%
M48
M72
T01C0.0236
T02C0.0320
T03C0.0400
T04C0.1260
%
T01
X17005Y12901
X19755Y12651
X20255Y11901
X17755Y9401
X19505Y8651
X19755Y17651
X17005Y18651
X16005Y18651
T02
X13255Y19151
X11755Y19151
X10505Y17651
X9755Y17151
X9755Y18151
X8255Y18651
X8255Y17151
X6255Y17151
X6255Y18651
X11755Y15151
X11755Y13901
X13255Y13901
X13255Y15151
X15005Y13401
X15005Y12401
X15005Y11401
X15005Y10401
X13255Y9901
X13255Y8901
X11755Y8901
X11755Y9901
X10505Y8151
X11755Y6901
X13255Y6901
X15505Y4901
X17005Y4901
X18505Y4901
X17505Y6651
X17505Y8651
X18005Y10401
X18005Y11401
X18005Y12401
X18005Y13401
X10505Y12651
X9755Y12151
X9755Y13151
X8255Y13401
X8255Y11901
X6255Y11901
X6255Y13401
X6505Y8151
X5255Y7401
X4255Y7401
X7005Y6551
X7005Y5751
X9255Y5751
X9255Y6551
X10755Y3401
X12255Y3401
X13755Y3401
X13755Y1401
X12255Y1401
X10755Y1401
X15505Y901
X17005Y901
X18505Y901
X20005Y1651
X22005Y1651
T03
X4505Y1151
X4505Y2151
X4505Y3901
X4505Y4901
X7505Y3651
X7505Y1651
X15255Y6651
X15255Y7651
X15255Y8651
X10255Y10151
X15255Y14901
X16255Y14901
X16255Y15901
X15255Y15901
X15005Y17651
X17255Y15901
X17255Y14901
X18005Y17251
X18005Y18051
X21755Y17651
X21755Y16651
X21755Y15651
X21755Y14651
X21005Y10901
X21005Y9901
X21005Y8901
X21005Y7901
X21005Y6901
X10255Y15401
X4505Y16901
X4505Y17901
X4505Y18901
X4255Y15401
X4505Y13651
X4505Y12651
X4505Y11651
X4255Y10151
X21755Y18651
T04
X21755Y12651
M30
