%
M48
M72
T01C0.0236
T02C0.0320
T03C0.0400
T04C0.1260
%
T01
X9003Y15651
X8003Y18151
X6503Y15901
X16003Y18151
X16003Y18651
X16253Y19651
X18503Y19151
X18503Y18151
X16003Y11901
T02
X17003Y11151
X17003Y12651
X17003Y9651
X16003Y7651
X16003Y5651
X16003Y4151
X16003Y2151
X14503Y2151
X13003Y2151
X13003Y4151
X14503Y4151
X14503Y5651
X14503Y7651
X13003Y9651
X13003Y11151
X13003Y12651
X11503Y13651
X10003Y13651
X8503Y14151
X8003Y12151
X8003Y11151
X8753Y11651
X10003Y9651
X8503Y9151
X8503Y7051
X8503Y6251
X6503Y9151
X6503Y14151
X8503Y16651
X9503Y16651
X10503Y16651
X11503Y16651
X11503Y19651
X10503Y19651
X9503Y19651
X8503Y19651
X8503Y21151
X10003Y21651
X11503Y21651
X12503Y21401
X12503Y22901
X14503Y24151
X14503Y25151
X16503Y22901
X16503Y21401
X11503Y25651
X10003Y25651
X8503Y26151
X8003Y24151
X8003Y23151
X8753Y23651
X6503Y21151
X6503Y19151
X6503Y17151
X11503Y9651
X11003Y7051
X11003Y6251
X18503Y4151
X18503Y2151
X6503Y26151
T03
X4253Y4401
X4503Y3151
X4503Y2151
X6503Y4651
X6503Y5651
X10003Y4151
X10003Y2151
X4253Y10401
X4503Y11651
X4503Y12651
X4503Y13651
X4253Y15151
X4253Y21151
X4503Y22651
X4503Y23651
X4503Y24651
X14003Y19651
X14003Y18651
X14003Y17651
X15003Y17651
X15003Y18651
X15003Y19651
X17103Y17151
X17903Y17151
X18003Y14651
X17003Y14651
X16003Y14651
X15003Y14651
X14003Y14651
X17503Y20151
X17503Y24151
X17503Y25151
X17503Y26151
X18503Y12651
X18503Y11651
X18503Y10651
X18503Y9651
X18503Y8651
T04
X10753Y8651
X18253Y22901
M30
