G75*
G70*
%OFA0B0*%
%FSLAX24Y24*%
%IPPOS*%
%LPD*%
%AMOC8*
5,1,8,0,0,1.08239X$1,22.5*
%
%ADD10C,0.0000*%
%ADD11C,0.0200*%
%ADD12C,0.0040*%
%ADD13C,0.0030*%
%ADD14C,0.0300*%
%ADD15C,0.0080*%
%ADD16C,0.0060*%
%ADD17R,0.0200X0.0300*%
%ADD18C,0.0050*%
%ADD19R,0.0400X0.0300*%
%ADD20R,0.0900X0.0250*%
%ADD21C,0.0120*%
%ADD22C,0.0100*%
%ADD23R,0.0040X0.0010*%
%ADD24R,0.0020X0.0010*%
%ADD25R,0.0060X0.0010*%
%ADD26R,0.0090X0.0010*%
%ADD27R,0.0080X0.0010*%
%ADD28R,0.0100X0.0010*%
%ADD29R,0.0110X0.0010*%
%ADD30R,0.0120X0.0010*%
%ADD31R,0.0130X0.0010*%
%ADD32R,0.0140X0.0010*%
%ADD33R,0.0150X0.0010*%
%ADD34R,0.0160X0.0010*%
%ADD35R,0.0170X0.0010*%
%ADD36R,0.0180X0.0010*%
%ADD37R,0.0190X0.0010*%
%ADD38R,0.0200X0.0010*%
%ADD39R,0.0220X0.0010*%
%ADD40R,0.0210X0.0010*%
%ADD41R,0.0230X0.0010*%
%ADD42R,0.0240X0.0010*%
%ADD43R,0.0260X0.0010*%
%ADD44R,0.0250X0.0010*%
%ADD45R,0.0280X0.0010*%
%ADD46R,0.0270X0.0010*%
%ADD47R,0.0290X0.0010*%
%ADD48R,0.0300X0.0010*%
%ADD49R,0.0320X0.0010*%
%ADD50R,0.0310X0.0010*%
%ADD51R,0.0330X0.0010*%
%ADD52R,0.0340X0.0010*%
%ADD53R,0.0350X0.0010*%
%ADD54R,0.0360X0.0010*%
%ADD55R,0.0070X0.0010*%
%ADD56R,0.0030X0.0010*%
%ADD57R,0.0050X0.0010*%
%ADD58R,0.0010X0.0010*%
%ADD59R,0.0370X0.0010*%
%ADD60R,0.0390X0.0010*%
%ADD61R,0.0440X0.0010*%
%ADD62R,0.0480X0.0010*%
%ADD63R,0.0520X0.0010*%
%ADD64R,0.0580X0.0010*%
%ADD65R,0.0320X0.0160*%
D10*
X003003Y000151D02*
X003003Y027651D01*
X020003Y027651D01*
X019996Y000151D01*
X003003Y000151D01*
X009873Y008651D02*
X009875Y008701D01*
X009881Y008751D01*
X009891Y008800D01*
X009905Y008848D01*
X009922Y008895D01*
X009943Y008940D01*
X009968Y008984D01*
X009996Y009025D01*
X010028Y009064D01*
X010062Y009101D01*
X010099Y009135D01*
X010139Y009165D01*
X010181Y009192D01*
X010225Y009216D01*
X010271Y009237D01*
X010318Y009253D01*
X010366Y009266D01*
X010416Y009275D01*
X010465Y009280D01*
X010516Y009281D01*
X010566Y009278D01*
X010615Y009271D01*
X010664Y009260D01*
X010712Y009245D01*
X010758Y009227D01*
X010803Y009205D01*
X010846Y009179D01*
X010887Y009150D01*
X010926Y009118D01*
X010962Y009083D01*
X010994Y009045D01*
X011024Y009005D01*
X011051Y008962D01*
X011074Y008918D01*
X011093Y008872D01*
X011109Y008824D01*
X011121Y008775D01*
X011129Y008726D01*
X011133Y008676D01*
X011133Y008626D01*
X011129Y008576D01*
X011121Y008527D01*
X011109Y008478D01*
X011093Y008430D01*
X011074Y008384D01*
X011051Y008340D01*
X011024Y008297D01*
X010994Y008257D01*
X010962Y008219D01*
X010926Y008184D01*
X010887Y008152D01*
X010846Y008123D01*
X010803Y008097D01*
X010758Y008075D01*
X010712Y008057D01*
X010664Y008042D01*
X010615Y008031D01*
X010566Y008024D01*
X010516Y008021D01*
X010465Y008022D01*
X010416Y008027D01*
X010366Y008036D01*
X010318Y008049D01*
X010271Y008065D01*
X010225Y008086D01*
X010181Y008110D01*
X010139Y008137D01*
X010099Y008167D01*
X010062Y008201D01*
X010028Y008238D01*
X009996Y008277D01*
X009968Y008318D01*
X009943Y008362D01*
X009922Y008407D01*
X009905Y008454D01*
X009891Y008502D01*
X009881Y008551D01*
X009875Y008601D01*
X009873Y008651D01*
X016903Y017151D02*
X016905Y017179D01*
X016911Y017206D01*
X016920Y017232D01*
X016933Y017257D01*
X016950Y017280D01*
X016969Y017300D01*
X016991Y017317D01*
X017015Y017331D01*
X017041Y017341D01*
X017068Y017348D01*
X017096Y017351D01*
X017124Y017350D01*
X017151Y017345D01*
X017178Y017336D01*
X017203Y017324D01*
X017226Y017309D01*
X017247Y017290D01*
X017265Y017269D01*
X017280Y017245D01*
X017291Y017219D01*
X017299Y017193D01*
X017303Y017165D01*
X017303Y017137D01*
X017299Y017109D01*
X017291Y017083D01*
X017280Y017057D01*
X017265Y017033D01*
X017247Y017012D01*
X017226Y016993D01*
X017203Y016978D01*
X017178Y016966D01*
X017151Y016957D01*
X017124Y016952D01*
X017096Y016951D01*
X017068Y016954D01*
X017041Y016961D01*
X017015Y016971D01*
X016991Y016985D01*
X016969Y017002D01*
X016950Y017022D01*
X016933Y017045D01*
X016920Y017070D01*
X016911Y017096D01*
X016905Y017123D01*
X016903Y017151D01*
X017703Y017151D02*
X017705Y017179D01*
X017711Y017206D01*
X017720Y017232D01*
X017733Y017257D01*
X017750Y017280D01*
X017769Y017300D01*
X017791Y017317D01*
X017815Y017331D01*
X017841Y017341D01*
X017868Y017348D01*
X017896Y017351D01*
X017924Y017350D01*
X017951Y017345D01*
X017978Y017336D01*
X018003Y017324D01*
X018026Y017309D01*
X018047Y017290D01*
X018065Y017269D01*
X018080Y017245D01*
X018091Y017219D01*
X018099Y017193D01*
X018103Y017165D01*
X018103Y017137D01*
X018099Y017109D01*
X018091Y017083D01*
X018080Y017057D01*
X018065Y017033D01*
X018047Y017012D01*
X018026Y016993D01*
X018003Y016978D01*
X017978Y016966D01*
X017951Y016957D01*
X017924Y016952D01*
X017896Y016951D01*
X017868Y016954D01*
X017841Y016961D01*
X017815Y016971D01*
X017791Y016985D01*
X017769Y017002D01*
X017750Y017022D01*
X017733Y017045D01*
X017720Y017070D01*
X017711Y017096D01*
X017705Y017123D01*
X017703Y017151D01*
X017303Y020151D02*
X017305Y020179D01*
X017311Y020206D01*
X017320Y020232D01*
X017333Y020257D01*
X017350Y020280D01*
X017369Y020300D01*
X017391Y020317D01*
X017415Y020331D01*
X017441Y020341D01*
X017468Y020348D01*
X017496Y020351D01*
X017524Y020350D01*
X017551Y020345D01*
X017578Y020336D01*
X017603Y020324D01*
X017626Y020309D01*
X017647Y020290D01*
X017665Y020269D01*
X017680Y020245D01*
X017691Y020219D01*
X017699Y020193D01*
X017703Y020165D01*
X017703Y020137D01*
X017699Y020109D01*
X017691Y020083D01*
X017680Y020057D01*
X017665Y020033D01*
X017647Y020012D01*
X017626Y019993D01*
X017603Y019978D01*
X017578Y019966D01*
X017551Y019957D01*
X017524Y019952D01*
X017496Y019951D01*
X017468Y019954D01*
X017441Y019961D01*
X017415Y019971D01*
X017391Y019985D01*
X017369Y020002D01*
X017350Y020022D01*
X017333Y020045D01*
X017320Y020070D01*
X017311Y020096D01*
X017305Y020123D01*
X017303Y020151D01*
X017623Y022901D02*
X017625Y022951D01*
X017631Y023001D01*
X017641Y023050D01*
X017655Y023098D01*
X017672Y023145D01*
X017693Y023190D01*
X017718Y023234D01*
X017746Y023275D01*
X017778Y023314D01*
X017812Y023351D01*
X017849Y023385D01*
X017889Y023415D01*
X017931Y023442D01*
X017975Y023466D01*
X018021Y023487D01*
X018068Y023503D01*
X018116Y023516D01*
X018166Y023525D01*
X018215Y023530D01*
X018266Y023531D01*
X018316Y023528D01*
X018365Y023521D01*
X018414Y023510D01*
X018462Y023495D01*
X018508Y023477D01*
X018553Y023455D01*
X018596Y023429D01*
X018637Y023400D01*
X018676Y023368D01*
X018712Y023333D01*
X018744Y023295D01*
X018774Y023255D01*
X018801Y023212D01*
X018824Y023168D01*
X018843Y023122D01*
X018859Y023074D01*
X018871Y023025D01*
X018879Y022976D01*
X018883Y022926D01*
X018883Y022876D01*
X018879Y022826D01*
X018871Y022777D01*
X018859Y022728D01*
X018843Y022680D01*
X018824Y022634D01*
X018801Y022590D01*
X018774Y022547D01*
X018744Y022507D01*
X018712Y022469D01*
X018676Y022434D01*
X018637Y022402D01*
X018596Y022373D01*
X018553Y022347D01*
X018508Y022325D01*
X018462Y022307D01*
X018414Y022292D01*
X018365Y022281D01*
X018316Y022274D01*
X018266Y022271D01*
X018215Y022272D01*
X018166Y022277D01*
X018116Y022286D01*
X018068Y022299D01*
X018021Y022315D01*
X017975Y022336D01*
X017931Y022360D01*
X017889Y022387D01*
X017849Y022417D01*
X017812Y022451D01*
X017778Y022488D01*
X017746Y022527D01*
X017718Y022568D01*
X017693Y022612D01*
X017672Y022657D01*
X017655Y022704D01*
X017641Y022752D01*
X017631Y022801D01*
X017625Y022851D01*
X017623Y022901D01*
D11*
X006003Y022651D02*
X005503Y022651D01*
X005753Y023401D02*
X005753Y023901D01*
X005503Y023651D02*
X006003Y023651D01*
X005753Y012901D02*
X005753Y012401D01*
X005503Y012651D02*
X006003Y012651D01*
X006003Y011651D02*
X005503Y011651D01*
X005503Y003151D02*
X006003Y003151D01*
X005753Y002401D02*
X005753Y002151D01*
X005753Y001901D01*
X005753Y002151D02*
X005503Y002151D01*
X005753Y002151D02*
X006003Y002151D01*
D12*
X012273Y007498D02*
X012350Y007421D01*
X012504Y007421D01*
X012580Y007498D01*
X012580Y007882D01*
X012734Y007728D02*
X012887Y007882D01*
X012887Y007421D01*
X012734Y007421D02*
X013041Y007421D01*
X012273Y007498D02*
X012273Y007882D01*
X018273Y019693D02*
X018273Y019847D01*
X018273Y019770D02*
X018657Y019770D01*
X018733Y019693D01*
X018733Y019617D01*
X018657Y019540D01*
X018733Y020000D02*
X018273Y020000D01*
X018273Y020231D01*
X018350Y020307D01*
X018503Y020307D01*
X018580Y020231D01*
X018580Y020000D01*
X018657Y020461D02*
X018733Y020537D01*
X018733Y020691D01*
X018657Y020768D01*
X018580Y020768D01*
X018503Y020691D01*
X018503Y020614D01*
X018503Y020691D02*
X018427Y020768D01*
X018350Y020768D01*
X018273Y020691D01*
X018273Y020537D01*
X018350Y020461D01*
X015661Y026171D02*
X015661Y026555D01*
X015738Y026632D01*
X015738Y026401D02*
X015585Y026401D01*
X015431Y026171D02*
X015278Y026171D01*
X015355Y026171D02*
X015355Y026632D01*
X015278Y026632D01*
X015278Y026768D02*
X015278Y027228D01*
X015508Y027228D01*
X015585Y027151D01*
X015585Y026998D01*
X015508Y026921D01*
X015278Y026921D01*
X015124Y026921D02*
X014894Y026921D01*
X014817Y026998D01*
X014817Y027228D01*
X014664Y027228D02*
X014511Y027228D01*
X014587Y027305D02*
X014587Y026998D01*
X014664Y026921D01*
X014664Y026632D02*
X014664Y026171D01*
X014511Y026325D01*
X014357Y026171D01*
X014357Y026632D01*
X014280Y026921D02*
X014357Y026998D01*
X014357Y027151D01*
X014280Y027228D01*
X014127Y027228D01*
X014050Y027151D01*
X014050Y026998D01*
X014127Y026921D01*
X014280Y026921D01*
X013897Y026921D02*
X013820Y026998D01*
X013820Y027305D01*
X013743Y027228D02*
X013897Y027228D01*
X013590Y027151D02*
X013513Y027228D01*
X013360Y027228D01*
X013283Y027151D01*
X013283Y026998D01*
X013360Y026921D01*
X013513Y026921D01*
X013590Y026998D01*
X013590Y027151D01*
X013130Y027228D02*
X013053Y027228D01*
X012899Y027075D01*
X012899Y027228D02*
X012899Y026921D01*
X012669Y027075D02*
X012439Y027075D01*
X012439Y026921D02*
X012439Y027382D01*
X012669Y027382D01*
X012746Y027305D01*
X012746Y027151D01*
X012669Y027075D01*
X012439Y026632D02*
X012362Y026555D01*
X012362Y026171D01*
X012286Y026401D02*
X012439Y026401D01*
X012592Y026401D02*
X012669Y026478D01*
X012823Y026478D01*
X012899Y026401D01*
X012899Y026248D01*
X012823Y026171D01*
X012669Y026171D01*
X012592Y026248D01*
X012592Y026401D01*
X012132Y026401D02*
X011979Y026401D01*
X012055Y026555D02*
X012055Y026171D01*
X011825Y026171D02*
X011672Y026171D01*
X011748Y026171D02*
X011748Y026478D01*
X011672Y026478D01*
X011748Y026632D02*
X011748Y026708D01*
X011748Y026921D02*
X011595Y026921D01*
X011518Y026998D01*
X011518Y027151D01*
X011595Y027228D01*
X011748Y027228D01*
X011825Y027151D01*
X011825Y027075D01*
X011518Y027075D01*
X011365Y026921D02*
X011211Y026921D01*
X011288Y026921D02*
X011288Y027382D01*
X011211Y027382D01*
X011058Y027228D02*
X010828Y027228D01*
X010751Y027151D01*
X010751Y026998D01*
X010828Y026921D01*
X011058Y026921D01*
X011058Y026844D02*
X011058Y027228D01*
X011058Y026844D02*
X010981Y026768D01*
X010904Y026768D01*
X010981Y026632D02*
X010905Y026555D01*
X010905Y026248D01*
X010981Y026171D01*
X011135Y026171D01*
X011211Y026248D01*
X011365Y026171D02*
X011518Y026171D01*
X011442Y026171D02*
X011442Y026632D01*
X011365Y026632D01*
X011211Y026555D02*
X011135Y026632D01*
X010981Y026632D01*
X010598Y026844D02*
X010598Y027228D01*
X010367Y027228D01*
X010291Y027151D01*
X010291Y026998D01*
X010367Y026921D01*
X010598Y026921D01*
X010598Y026844D02*
X010521Y026768D01*
X010444Y026768D01*
X010291Y026478D02*
X010291Y026094D01*
X010214Y026018D01*
X010137Y026018D01*
X010061Y026171D02*
X010291Y026171D01*
X010061Y026171D02*
X009984Y026248D01*
X009984Y026478D01*
X009830Y026401D02*
X009754Y026478D01*
X009523Y026478D01*
X009523Y026632D02*
X009523Y026171D01*
X009754Y026171D01*
X009830Y026248D01*
X009830Y026401D01*
X009830Y026921D02*
X009830Y027382D01*
X009984Y027228D02*
X010061Y027228D01*
X010061Y026921D01*
X010137Y026921D02*
X009984Y026921D01*
X009830Y026921D02*
X009677Y027075D01*
X009523Y026921D01*
X009523Y027382D01*
X010061Y027382D02*
X010061Y027458D01*
X012055Y026555D02*
X012132Y026632D01*
X013053Y026478D02*
X013053Y026171D01*
X013053Y026325D02*
X013206Y026478D01*
X013283Y026478D01*
X013436Y026401D02*
X013513Y026478D01*
X013743Y026478D01*
X013743Y026632D02*
X013743Y026171D01*
X013513Y026171D01*
X013436Y026248D01*
X013436Y026401D01*
X014817Y026401D02*
X014817Y026248D01*
X014894Y026171D01*
X015048Y026171D01*
X015124Y026248D01*
X015124Y026401D01*
X015048Y026478D01*
X014894Y026478D01*
X014817Y026401D01*
X014971Y026768D02*
X015048Y026768D01*
X015124Y026844D01*
X015124Y027228D01*
X015738Y027151D02*
X015815Y027228D01*
X015968Y027228D01*
X016045Y027151D01*
X016045Y027075D01*
X015738Y027075D01*
X015738Y027151D02*
X015738Y026998D01*
X015815Y026921D01*
X015968Y026921D01*
X016659Y027228D02*
X016812Y026921D01*
X016966Y027228D01*
X017119Y027305D02*
X017119Y026998D01*
X017426Y027305D01*
X017426Y026998D01*
X017349Y026921D01*
X017196Y026921D01*
X017119Y026998D01*
X017119Y027305D02*
X017196Y027382D01*
X017349Y027382D01*
X017426Y027305D01*
X017580Y026998D02*
X017656Y026998D01*
X017656Y026921D01*
X017580Y026921D01*
X017580Y026998D01*
X017810Y026921D02*
X018117Y027228D01*
X018117Y027305D01*
X018040Y027382D01*
X017886Y027382D01*
X017810Y027305D01*
X017810Y026921D02*
X018117Y026921D01*
D13*
X012988Y019986D02*
X012803Y019986D01*
X012742Y019924D01*
X012803Y019862D01*
X012988Y019862D01*
X012988Y019739D02*
X012742Y019739D01*
X012742Y019800D01*
X012803Y019862D01*
X012803Y019617D02*
X012742Y019556D01*
X012742Y019432D01*
X012803Y019370D01*
X012927Y019370D01*
X012988Y019432D01*
X012988Y019556D01*
X012927Y019617D01*
X012803Y019617D01*
X012742Y019249D02*
X012742Y019064D01*
X012803Y019002D01*
X012927Y019002D01*
X012988Y019064D01*
X012988Y019249D01*
X012988Y018880D02*
X012988Y018818D01*
X012927Y018818D01*
X012927Y018880D01*
X012988Y018880D01*
X012927Y018696D02*
X012988Y018635D01*
X012988Y018450D01*
X013112Y018450D02*
X012742Y018450D01*
X012742Y018635D01*
X012803Y018696D01*
X012927Y018696D01*
X012927Y018328D02*
X012803Y018328D01*
X012742Y018266D01*
X012742Y018143D01*
X012803Y018081D01*
X012927Y018081D01*
X012988Y018143D01*
X012988Y018266D01*
X012927Y018328D01*
X012988Y017960D02*
X012803Y017960D01*
X012742Y017898D01*
X012742Y017775D01*
X012803Y017713D01*
X012742Y017592D02*
X012742Y017406D01*
X012803Y017345D01*
X012865Y017406D01*
X012865Y017530D01*
X012927Y017592D01*
X012988Y017530D01*
X012988Y017345D01*
X012865Y017223D02*
X012865Y016976D01*
X012803Y016976D02*
X012742Y017038D01*
X012742Y017162D01*
X012803Y017223D01*
X012865Y017223D01*
X012988Y017162D02*
X012988Y017038D01*
X012927Y016976D01*
X012803Y016976D01*
X012742Y016855D02*
X012742Y016670D01*
X012803Y016608D01*
X012927Y016608D01*
X012988Y016670D01*
X012988Y016855D01*
X012988Y016487D02*
X012803Y016487D01*
X012742Y016425D01*
X012742Y016301D01*
X012865Y016301D02*
X012865Y016487D01*
X012988Y016487D02*
X012988Y016301D01*
X012927Y016240D01*
X012865Y016301D01*
X012803Y016118D02*
X012927Y016118D01*
X012988Y016057D01*
X012988Y015871D01*
X013112Y015871D02*
X012742Y015871D01*
X012742Y016057D01*
X012803Y016118D01*
X012742Y015750D02*
X012742Y015565D01*
X012803Y015503D01*
X012865Y015565D01*
X012865Y015688D01*
X012927Y015750D01*
X012988Y015688D01*
X012988Y015503D01*
X012742Y015381D02*
X012742Y015320D01*
X012865Y015196D01*
X012865Y015075D02*
X012865Y014828D01*
X012803Y014828D02*
X012742Y014890D01*
X012742Y015013D01*
X012803Y015075D01*
X012865Y015075D01*
X012988Y015013D02*
X012988Y014890D01*
X012927Y014828D01*
X012803Y014828D01*
X012742Y014706D02*
X012865Y014521D01*
X012988Y014706D01*
X012988Y014521D02*
X012618Y014521D01*
X012742Y014400D02*
X012742Y014214D01*
X012803Y014153D01*
X012927Y014153D01*
X012988Y014214D01*
X012988Y014400D01*
X012988Y014031D02*
X012803Y014031D01*
X012742Y013970D01*
X012742Y013846D01*
X012865Y013846D02*
X012865Y014031D01*
X012988Y014031D02*
X012988Y013846D01*
X012927Y013784D01*
X012865Y013846D01*
X012803Y013663D02*
X012988Y013663D01*
X012803Y013663D02*
X012742Y013601D01*
X012742Y013478D01*
X012803Y013416D01*
X012618Y013416D02*
X012988Y013416D01*
X012988Y015196D02*
X012742Y015196D01*
X012618Y017713D02*
X012988Y017713D01*
X018247Y006654D02*
X018198Y006606D01*
X018198Y006509D01*
X018247Y006461D01*
X018198Y006360D02*
X018440Y006360D01*
X018488Y006311D01*
X018488Y006215D01*
X018440Y006166D01*
X018198Y006166D01*
X018488Y006461D02*
X018295Y006654D01*
X018247Y006654D01*
X018488Y006654D02*
X018488Y006461D01*
D14*
X002503Y002151D02*
X000253Y002151D01*
X000253Y003151D02*
X002503Y003151D01*
X002503Y011651D02*
X000253Y011651D01*
X000253Y012651D02*
X002503Y012651D01*
X002503Y013651D02*
X000253Y013651D01*
X000253Y022651D02*
X002503Y022651D01*
X002503Y023651D02*
X000253Y023651D01*
X000253Y024651D02*
X002503Y024651D01*
X013228Y020276D02*
X013230Y020300D01*
X013236Y020324D01*
X013245Y020346D01*
X013258Y020366D01*
X013274Y020384D01*
X013293Y020399D01*
X013314Y020412D01*
X013336Y020420D01*
X013360Y020425D01*
X013384Y020426D01*
X013408Y020423D01*
X013431Y020416D01*
X013453Y020406D01*
X013473Y020392D01*
X013490Y020375D01*
X013505Y020356D01*
X013516Y020335D01*
X013524Y020312D01*
X013528Y020288D01*
X013528Y020264D01*
X013524Y020240D01*
X013516Y020217D01*
X013505Y020196D01*
X013490Y020177D01*
X013473Y020160D01*
X013453Y020146D01*
X013431Y020136D01*
X013408Y020129D01*
X013384Y020126D01*
X013360Y020127D01*
X013336Y020132D01*
X013314Y020140D01*
X013293Y020153D01*
X013274Y020168D01*
X013258Y020186D01*
X013245Y020206D01*
X013236Y020228D01*
X013230Y020252D01*
X013228Y020276D01*
D15*
X013753Y023651D02*
X015253Y023651D01*
X006674Y006862D02*
X006464Y006862D01*
X006464Y006441D01*
X006674Y006441D01*
X006744Y006511D01*
X006744Y006791D01*
X006674Y006862D01*
X006284Y006862D02*
X006284Y006441D01*
X006004Y006862D01*
X006004Y006441D01*
X005824Y006511D02*
X005824Y006651D01*
X005684Y006651D01*
X005824Y006511D02*
X005754Y006441D01*
X005614Y006441D01*
X005543Y006511D01*
X005543Y006791D01*
X005614Y006862D01*
X005754Y006862D01*
X005824Y006791D01*
D16*
X006253Y006151D02*
X006003Y005901D01*
X006003Y005401D01*
X006253Y005151D01*
X006753Y005151D01*
X007003Y005401D01*
X007003Y005901D01*
X006753Y006151D01*
X006253Y006151D01*
X006253Y005151D02*
X006003Y004901D01*
X006003Y004401D01*
X006253Y004151D01*
X006753Y004151D01*
X007003Y004401D01*
X007003Y004901D01*
X006753Y005151D01*
X005103Y005101D02*
X005103Y005451D01*
X005053Y005501D01*
X005053Y009301D01*
X005103Y009351D01*
X005103Y009701D01*
X005101Y009718D01*
X005097Y009735D01*
X005090Y009751D01*
X005080Y009765D01*
X005067Y009778D01*
X005053Y009788D01*
X005037Y009795D01*
X005020Y009799D01*
X005003Y009801D01*
X003503Y009801D01*
X003486Y009799D01*
X003469Y009795D01*
X003453Y009788D01*
X003439Y009778D01*
X003426Y009765D01*
X003416Y009751D01*
X003409Y009735D01*
X003405Y009718D01*
X003403Y009701D01*
X003403Y009351D01*
X003453Y009301D01*
X003453Y005501D01*
X003403Y005451D01*
X003403Y005101D01*
X003405Y005084D01*
X003409Y005067D01*
X003416Y005051D01*
X003426Y005037D01*
X003439Y005024D01*
X003453Y005014D01*
X003469Y005007D01*
X003486Y005003D01*
X003503Y005001D01*
X005003Y005001D01*
X005020Y005003D01*
X005037Y005007D01*
X005053Y005014D01*
X005067Y005024D01*
X005080Y005037D01*
X005090Y005051D01*
X005097Y005067D01*
X005101Y005084D01*
X005103Y005101D01*
X003753Y003651D02*
X002753Y003651D01*
X002753Y002651D01*
X002753Y001651D01*
X003753Y001651D01*
X003753Y002651D01*
X003753Y003651D01*
X003753Y002651D02*
X002753Y002651D01*
X006153Y008551D02*
X008853Y008551D01*
X008870Y008553D01*
X008887Y008557D01*
X008903Y008564D01*
X008917Y008574D01*
X008930Y008587D01*
X008940Y008601D01*
X008947Y008617D01*
X008951Y008634D01*
X008953Y008651D01*
X008953Y009651D01*
X008951Y009668D01*
X008947Y009685D01*
X008940Y009701D01*
X008930Y009715D01*
X008917Y009728D01*
X008903Y009738D01*
X008887Y009745D01*
X008870Y009749D01*
X008853Y009751D01*
X006153Y009751D01*
X006136Y009749D01*
X006119Y009745D01*
X006103Y009738D01*
X006089Y009728D01*
X006076Y009715D01*
X006066Y009701D01*
X006059Y009685D01*
X006055Y009668D01*
X006053Y009651D01*
X006053Y008651D01*
X006055Y008634D01*
X006059Y008617D01*
X006066Y008601D01*
X006076Y008587D01*
X006089Y008574D01*
X006103Y008564D01*
X006119Y008557D01*
X006136Y008553D01*
X006153Y008551D01*
X006903Y009151D02*
X007383Y009151D01*
X007633Y009151D02*
X008103Y009151D01*
X009403Y010051D02*
X009403Y010301D01*
X009453Y010351D01*
X009453Y012951D01*
X009403Y013001D01*
X009403Y013251D01*
X009405Y013268D01*
X009409Y013285D01*
X009416Y013301D01*
X009426Y013315D01*
X009439Y013328D01*
X009453Y013338D01*
X009469Y013345D01*
X009486Y013349D01*
X009503Y013351D01*
X008953Y013651D02*
X008953Y014651D01*
X008951Y014668D01*
X008947Y014685D01*
X008940Y014701D01*
X008930Y014715D01*
X008917Y014728D01*
X008903Y014738D01*
X008887Y014745D01*
X008870Y014749D01*
X008853Y014751D01*
X006153Y014751D01*
X006136Y014749D01*
X006119Y014745D01*
X006103Y014738D01*
X006089Y014728D01*
X006076Y014715D01*
X006066Y014701D01*
X006059Y014685D01*
X006055Y014668D01*
X006053Y014651D01*
X006053Y013651D01*
X006055Y013634D01*
X006059Y013617D01*
X006066Y013601D01*
X006076Y013587D01*
X006089Y013574D01*
X006103Y013564D01*
X006119Y013557D01*
X006136Y013553D01*
X006153Y013551D01*
X008853Y013551D01*
X008870Y013553D01*
X008887Y013557D01*
X008903Y013564D01*
X008917Y013574D01*
X008930Y013587D01*
X008940Y013601D01*
X008947Y013617D01*
X008951Y013634D01*
X008953Y013651D01*
X008103Y014151D02*
X007633Y014151D01*
X007383Y014151D02*
X006903Y014151D01*
X005103Y015851D02*
X005103Y016201D01*
X005053Y016251D01*
X005053Y020051D01*
X005103Y020101D01*
X005103Y020451D01*
X005101Y020468D01*
X005097Y020485D01*
X005090Y020501D01*
X005080Y020515D01*
X005067Y020528D01*
X005053Y020538D01*
X005037Y020545D01*
X005020Y020549D01*
X005003Y020551D01*
X003503Y020551D01*
X003486Y020549D01*
X003469Y020545D01*
X003453Y020538D01*
X003439Y020528D01*
X003426Y020515D01*
X003416Y020501D01*
X003409Y020485D01*
X003405Y020468D01*
X003403Y020451D01*
X003403Y020101D01*
X003453Y020051D01*
X003453Y016251D01*
X003403Y016201D01*
X003403Y015851D01*
X003405Y015834D01*
X003409Y015817D01*
X003416Y015801D01*
X003426Y015787D01*
X003439Y015774D01*
X003453Y015764D01*
X003469Y015757D01*
X003486Y015753D01*
X003503Y015751D01*
X005003Y015751D01*
X005020Y015753D01*
X005037Y015757D01*
X005053Y015764D01*
X005067Y015774D01*
X005080Y015787D01*
X005090Y015801D01*
X005097Y015817D01*
X005101Y015834D01*
X005103Y015851D01*
X006003Y016701D02*
X007003Y016701D01*
X007020Y016703D01*
X007037Y016707D01*
X007053Y016714D01*
X007067Y016724D01*
X007080Y016737D01*
X007090Y016751D01*
X007097Y016767D01*
X007101Y016784D01*
X007103Y016801D01*
X007103Y019501D01*
X007101Y019518D01*
X007097Y019535D01*
X007090Y019551D01*
X007080Y019565D01*
X007067Y019578D01*
X007053Y019588D01*
X007037Y019595D01*
X007020Y019599D01*
X007003Y019601D01*
X006003Y019601D01*
X005986Y019599D01*
X005969Y019595D01*
X005953Y019588D01*
X005939Y019578D01*
X005926Y019565D01*
X005916Y019551D01*
X005909Y019535D01*
X005905Y019518D01*
X005903Y019501D01*
X005903Y016801D01*
X005905Y016784D01*
X005909Y016767D01*
X005916Y016751D01*
X005926Y016737D01*
X005939Y016724D01*
X005953Y016714D01*
X005969Y016707D01*
X005986Y016703D01*
X006003Y016701D01*
X006503Y017551D02*
X006503Y018021D01*
X006503Y018271D02*
X006503Y018751D01*
X006153Y020551D02*
X008853Y020551D01*
X008870Y020553D01*
X008887Y020557D01*
X008903Y020564D01*
X008917Y020574D01*
X008930Y020587D01*
X008940Y020601D01*
X008947Y020617D01*
X008951Y020634D01*
X008953Y020651D01*
X008953Y021651D01*
X008951Y021668D01*
X008947Y021685D01*
X008940Y021701D01*
X008930Y021715D01*
X008917Y021728D01*
X008903Y021738D01*
X008887Y021745D01*
X008870Y021749D01*
X008853Y021751D01*
X006153Y021751D01*
X006136Y021749D01*
X006119Y021745D01*
X006103Y021738D01*
X006089Y021728D01*
X006076Y021715D01*
X006066Y021701D01*
X006059Y021685D01*
X006055Y021668D01*
X006053Y021651D01*
X006053Y020651D01*
X006055Y020634D01*
X006059Y020617D01*
X006066Y020601D01*
X006076Y020587D01*
X006089Y020574D01*
X006103Y020564D01*
X006119Y020557D01*
X006136Y020553D01*
X006153Y020551D01*
X006903Y021151D02*
X007383Y021151D01*
X007633Y021151D02*
X008103Y021151D01*
X009403Y022051D02*
X009403Y022301D01*
X009453Y022351D01*
X009453Y024951D01*
X009403Y025001D01*
X009403Y025251D01*
X009405Y025268D01*
X009409Y025285D01*
X009416Y025301D01*
X009426Y025315D01*
X009439Y025328D01*
X009453Y025338D01*
X009469Y025345D01*
X009486Y025349D01*
X009503Y025351D01*
X008953Y025651D02*
X008953Y026651D01*
X008951Y026668D01*
X008947Y026685D01*
X008940Y026701D01*
X008930Y026715D01*
X008917Y026728D01*
X008903Y026738D01*
X008887Y026745D01*
X008870Y026749D01*
X008853Y026751D01*
X006153Y026751D01*
X006136Y026749D01*
X006119Y026745D01*
X006103Y026738D01*
X006089Y026728D01*
X006076Y026715D01*
X006066Y026701D01*
X006059Y026685D01*
X006055Y026668D01*
X006053Y026651D01*
X006053Y025651D01*
X006055Y025634D01*
X006059Y025617D01*
X006066Y025601D01*
X006076Y025587D01*
X006089Y025574D01*
X006103Y025564D01*
X006119Y025557D01*
X006136Y025553D01*
X006153Y025551D01*
X008853Y025551D01*
X008870Y025553D01*
X008887Y025557D01*
X008903Y025564D01*
X008917Y025574D01*
X008930Y025587D01*
X008940Y025601D01*
X008947Y025617D01*
X008951Y025634D01*
X008953Y025651D01*
X008103Y026151D02*
X007633Y026151D01*
X007383Y026151D02*
X006903Y026151D01*
X009403Y022051D02*
X009405Y022034D01*
X009409Y022017D01*
X009416Y022001D01*
X009426Y021987D01*
X009439Y021974D01*
X009453Y021964D01*
X009469Y021957D01*
X009486Y021953D01*
X009503Y021951D01*
X010503Y021951D02*
X010520Y021953D01*
X010537Y021957D01*
X010553Y021964D01*
X010567Y021974D01*
X010580Y021987D01*
X010590Y022001D01*
X010597Y022017D01*
X010601Y022034D01*
X010603Y022051D01*
X010603Y022301D01*
X010553Y022351D01*
X010553Y024951D01*
X010603Y025001D01*
X010603Y025251D01*
X010601Y025268D01*
X010597Y025285D01*
X010590Y025301D01*
X010580Y025315D01*
X010567Y025328D01*
X010553Y025338D01*
X010537Y025345D01*
X010520Y025349D01*
X010503Y025351D01*
X010903Y025251D02*
X010903Y025001D01*
X010953Y024951D01*
X010953Y022351D01*
X010903Y022301D01*
X010903Y022051D01*
X010905Y022034D01*
X010909Y022017D01*
X010916Y022001D01*
X010926Y021987D01*
X010939Y021974D01*
X010953Y021964D01*
X010969Y021957D01*
X010986Y021953D01*
X011003Y021951D01*
X012003Y021951D02*
X012020Y021953D01*
X012037Y021957D01*
X012053Y021964D01*
X012067Y021974D01*
X012080Y021987D01*
X012090Y022001D01*
X012097Y022017D01*
X012101Y022034D01*
X012103Y022051D01*
X012103Y022301D01*
X012053Y022351D01*
X012053Y024951D01*
X012103Y025001D01*
X012103Y025251D01*
X012101Y025268D01*
X012097Y025285D01*
X012090Y025301D01*
X012080Y025315D01*
X012067Y025328D01*
X012053Y025338D01*
X012037Y025345D01*
X012020Y025349D01*
X012003Y025351D01*
X011003Y025351D02*
X010986Y025349D01*
X010969Y025345D01*
X010953Y025338D01*
X010939Y025328D01*
X010926Y025315D01*
X010916Y025301D01*
X010909Y025285D01*
X010905Y025268D01*
X010903Y025251D01*
X012903Y023501D02*
X013153Y023501D01*
X013203Y023451D01*
X015803Y023451D01*
X015853Y023501D01*
X016103Y023501D01*
X016120Y023499D01*
X016137Y023495D01*
X016153Y023488D01*
X016167Y023478D01*
X016180Y023465D01*
X016190Y023451D01*
X016197Y023435D01*
X016201Y023418D01*
X016203Y023401D01*
X017003Y023901D02*
X017003Y024401D01*
X017253Y024651D01*
X017003Y024901D01*
X017003Y025401D01*
X017253Y025651D01*
X017003Y025901D01*
X017003Y026401D01*
X017253Y026651D01*
X017753Y026651D01*
X018003Y026401D01*
X018003Y025901D01*
X017753Y025651D01*
X018003Y025401D01*
X018003Y024901D01*
X017753Y024651D01*
X018003Y024401D01*
X018003Y023901D01*
X017753Y023651D01*
X017253Y023651D01*
X017003Y023901D01*
X017253Y024651D02*
X017753Y024651D01*
X017753Y025651D02*
X017253Y025651D01*
X016203Y022401D02*
X016201Y022384D01*
X016197Y022367D01*
X016190Y022351D01*
X016180Y022337D01*
X016167Y022324D01*
X016153Y022314D01*
X016137Y022307D01*
X016120Y022303D01*
X016103Y022301D01*
X015853Y022301D01*
X015803Y022351D01*
X013203Y022351D01*
X013153Y022301D01*
X012903Y022301D01*
X012886Y022303D01*
X012869Y022307D01*
X012853Y022314D01*
X012839Y022324D01*
X012826Y022337D01*
X012816Y022351D01*
X012809Y022367D01*
X012805Y022384D01*
X012803Y022401D01*
X012903Y022001D02*
X013153Y022001D01*
X013203Y021951D01*
X015803Y021951D01*
X015853Y022001D01*
X016103Y022001D01*
X016120Y021999D01*
X016137Y021995D01*
X016153Y021988D01*
X016167Y021978D01*
X016180Y021965D01*
X016190Y021951D01*
X016197Y021935D01*
X016201Y021918D01*
X016203Y021901D01*
X016203Y020901D02*
X016201Y020884D01*
X016197Y020867D01*
X016190Y020851D01*
X016180Y020837D01*
X016167Y020824D01*
X016153Y020814D01*
X016137Y020807D01*
X016120Y020803D01*
X016103Y020801D01*
X015853Y020801D01*
X015803Y020851D01*
X013203Y020851D01*
X013153Y020801D01*
X012903Y020801D01*
X012886Y020803D01*
X012869Y020807D01*
X012853Y020814D01*
X012839Y020824D01*
X012826Y020837D01*
X012816Y020851D01*
X012809Y020867D01*
X012805Y020884D01*
X012803Y020901D01*
X012803Y021901D02*
X012805Y021918D01*
X012809Y021935D01*
X012816Y021951D01*
X012826Y021965D01*
X012839Y021978D01*
X012853Y021988D01*
X012869Y021995D01*
X012886Y021999D01*
X012903Y022001D01*
X012803Y023401D02*
X012805Y023418D01*
X012809Y023435D01*
X012816Y023451D01*
X012826Y023465D01*
X012839Y023478D01*
X012853Y023488D01*
X012869Y023495D01*
X012886Y023499D01*
X012903Y023501D01*
X013503Y024651D02*
X013505Y024714D01*
X013511Y024776D01*
X013521Y024838D01*
X013534Y024900D01*
X013552Y024960D01*
X013573Y025019D01*
X013598Y025077D01*
X013627Y025133D01*
X013659Y025187D01*
X013694Y025239D01*
X013732Y025288D01*
X013774Y025336D01*
X013818Y025380D01*
X013866Y025422D01*
X013915Y025460D01*
X013967Y025495D01*
X014021Y025527D01*
X014077Y025556D01*
X014135Y025581D01*
X014194Y025602D01*
X014254Y025620D01*
X014316Y025633D01*
X014378Y025643D01*
X014440Y025649D01*
X014503Y025651D01*
X014566Y025649D01*
X014628Y025643D01*
X014690Y025633D01*
X014752Y025620D01*
X014812Y025602D01*
X014871Y025581D01*
X014929Y025556D01*
X014985Y025527D01*
X015039Y025495D01*
X015091Y025460D01*
X015140Y025422D01*
X015188Y025380D01*
X015232Y025336D01*
X015274Y025288D01*
X015312Y025239D01*
X015347Y025187D01*
X015379Y025133D01*
X015408Y025077D01*
X015433Y025019D01*
X015454Y024960D01*
X015472Y024900D01*
X015485Y024838D01*
X015495Y024776D01*
X015501Y024714D01*
X015503Y024651D01*
X015501Y024588D01*
X015495Y024526D01*
X015485Y024464D01*
X015472Y024402D01*
X015454Y024342D01*
X015433Y024283D01*
X015408Y024225D01*
X015379Y024169D01*
X015347Y024115D01*
X015312Y024063D01*
X015274Y024014D01*
X015232Y023966D01*
X015188Y023922D01*
X015140Y023880D01*
X015091Y023842D01*
X015039Y023807D01*
X014985Y023775D01*
X014929Y023746D01*
X014871Y023721D01*
X014812Y023700D01*
X014752Y023682D01*
X014690Y023669D01*
X014628Y023659D01*
X014566Y023653D01*
X014503Y023651D01*
X014440Y023653D01*
X014378Y023659D01*
X014316Y023669D01*
X014254Y023682D01*
X014194Y023700D01*
X014135Y023721D01*
X014077Y023746D01*
X014021Y023775D01*
X013967Y023807D01*
X013915Y023842D01*
X013866Y023880D01*
X013818Y023922D01*
X013774Y023966D01*
X013732Y024014D01*
X013694Y024063D01*
X013659Y024115D01*
X013627Y024169D01*
X013598Y024225D01*
X013573Y024283D01*
X013552Y024342D01*
X013534Y024402D01*
X013521Y024464D01*
X013511Y024526D01*
X013505Y024588D01*
X013503Y024651D01*
X013753Y020151D02*
X015253Y020151D01*
X015503Y019901D01*
X015503Y019401D01*
X015253Y019151D01*
X013753Y019151D01*
X013503Y018901D01*
X013503Y018401D01*
X013753Y018151D01*
X013503Y017901D01*
X013503Y017401D01*
X013753Y017151D01*
X015253Y017151D01*
X015503Y017401D01*
X015503Y017901D01*
X015253Y018151D01*
X013753Y018151D01*
X013753Y019151D02*
X013503Y019401D01*
X013503Y019901D01*
X013753Y020151D01*
X015253Y019151D02*
X015503Y018901D01*
X015503Y018401D01*
X015253Y018151D01*
X015253Y015151D02*
X014753Y015151D01*
X014503Y014901D01*
X014503Y014401D01*
X014753Y014151D01*
X015253Y014151D01*
X015503Y014401D01*
X015503Y014901D01*
X015253Y015151D01*
X015503Y014901D02*
X015753Y015151D01*
X016253Y015151D01*
X016503Y014901D01*
X016753Y015151D01*
X017253Y015151D01*
X017503Y014901D01*
X017753Y015151D01*
X018253Y015151D01*
X018503Y014901D01*
X018503Y014401D01*
X018253Y014151D01*
X017753Y014151D01*
X017503Y014401D01*
X017253Y014151D01*
X016753Y014151D01*
X016503Y014401D01*
X016253Y014151D01*
X015753Y014151D01*
X015503Y014401D01*
X016353Y013251D02*
X016303Y013201D01*
X013703Y013201D01*
X013653Y013251D01*
X013403Y013251D01*
X013386Y013249D01*
X013369Y013245D01*
X013353Y013238D01*
X013339Y013228D01*
X013326Y013215D01*
X013316Y013201D01*
X013309Y013185D01*
X013305Y013168D01*
X013303Y013151D01*
X013753Y014151D02*
X014253Y014151D01*
X014503Y014401D01*
X014503Y014901D02*
X014253Y015151D01*
X013753Y015151D01*
X013503Y014901D01*
X013503Y014401D01*
X013753Y014151D01*
X013303Y012151D02*
X013305Y012134D01*
X013309Y012117D01*
X013316Y012101D01*
X013326Y012087D01*
X013339Y012074D01*
X013353Y012064D01*
X013369Y012057D01*
X013386Y012053D01*
X013403Y012051D01*
X013653Y012051D01*
X013703Y012101D01*
X016303Y012101D01*
X016353Y012051D01*
X016603Y012051D01*
X016620Y012053D01*
X016637Y012057D01*
X016653Y012064D01*
X016667Y012074D01*
X016680Y012087D01*
X016690Y012101D01*
X016697Y012117D01*
X016701Y012134D01*
X016703Y012151D01*
X016603Y011751D02*
X016353Y011751D01*
X016303Y011701D01*
X013703Y011701D01*
X013653Y011751D01*
X013403Y011751D01*
X013386Y011749D01*
X013369Y011745D01*
X013353Y011738D01*
X013339Y011728D01*
X013326Y011715D01*
X013316Y011701D01*
X013309Y011685D01*
X013305Y011668D01*
X013303Y011651D01*
X013303Y010651D02*
X013305Y010634D01*
X013309Y010617D01*
X013316Y010601D01*
X013326Y010587D01*
X013339Y010574D01*
X013353Y010564D01*
X013369Y010557D01*
X013386Y010553D01*
X013403Y010551D01*
X013653Y010551D01*
X013703Y010601D01*
X016303Y010601D01*
X016353Y010551D01*
X016603Y010551D01*
X016620Y010553D01*
X016637Y010557D01*
X016653Y010564D01*
X016667Y010574D01*
X016680Y010587D01*
X016690Y010601D01*
X016697Y010617D01*
X016701Y010634D01*
X016703Y010651D01*
X016603Y010251D02*
X016353Y010251D01*
X016303Y010201D01*
X013703Y010201D01*
X013653Y010251D01*
X013403Y010251D01*
X013386Y010249D01*
X013369Y010245D01*
X013353Y010238D01*
X013339Y010228D01*
X013326Y010215D01*
X013316Y010201D01*
X013309Y010185D01*
X013305Y010168D01*
X013303Y010151D01*
X013303Y009151D02*
X013305Y009134D01*
X013309Y009117D01*
X013316Y009101D01*
X013326Y009087D01*
X013339Y009074D01*
X013353Y009064D01*
X013369Y009057D01*
X013386Y009053D01*
X013403Y009051D01*
X013653Y009051D01*
X013703Y009101D01*
X016303Y009101D01*
X016353Y009051D01*
X016603Y009051D01*
X016620Y009053D01*
X016637Y009057D01*
X016653Y009064D01*
X016667Y009074D01*
X016680Y009087D01*
X016690Y009101D01*
X016697Y009117D01*
X016701Y009134D01*
X016703Y009151D01*
X016503Y008101D02*
X015503Y008101D01*
X015486Y008099D01*
X015469Y008095D01*
X015453Y008088D01*
X015439Y008078D01*
X015426Y008065D01*
X015416Y008051D01*
X015409Y008035D01*
X015405Y008018D01*
X015403Y008001D01*
X015403Y005301D01*
X015405Y005284D01*
X015409Y005267D01*
X015416Y005251D01*
X015426Y005237D01*
X015439Y005224D01*
X015453Y005214D01*
X015469Y005207D01*
X015486Y005203D01*
X015503Y005201D01*
X016503Y005201D01*
X016520Y005203D01*
X016537Y005207D01*
X016553Y005214D01*
X016567Y005224D01*
X016580Y005237D01*
X016590Y005251D01*
X016597Y005267D01*
X016601Y005284D01*
X016603Y005301D01*
X016603Y008001D01*
X016601Y008018D01*
X016597Y008035D01*
X016590Y008051D01*
X016580Y008065D01*
X016567Y008078D01*
X016553Y008088D01*
X016537Y008095D01*
X016520Y008099D01*
X016503Y008101D01*
X016003Y007251D02*
X016003Y006771D01*
X016003Y006521D02*
X016003Y006051D01*
X015103Y005301D02*
X015103Y008001D01*
X015101Y008018D01*
X015097Y008035D01*
X015090Y008051D01*
X015080Y008065D01*
X015067Y008078D01*
X015053Y008088D01*
X015037Y008095D01*
X015020Y008099D01*
X015003Y008101D01*
X014003Y008101D01*
X013986Y008099D01*
X013969Y008095D01*
X013953Y008088D01*
X013939Y008078D01*
X013926Y008065D01*
X013916Y008051D01*
X013909Y008035D01*
X013905Y008018D01*
X013903Y008001D01*
X013903Y005301D01*
X013905Y005284D01*
X013909Y005267D01*
X013916Y005251D01*
X013926Y005237D01*
X013939Y005224D01*
X013953Y005214D01*
X013969Y005207D01*
X013986Y005203D01*
X014003Y005201D01*
X015003Y005201D01*
X015020Y005203D01*
X015037Y005207D01*
X015053Y005214D01*
X015067Y005224D01*
X015080Y005237D01*
X015090Y005251D01*
X015097Y005267D01*
X015101Y005284D01*
X015103Y005301D01*
X015003Y004601D02*
X014003Y004601D01*
X013986Y004599D01*
X013969Y004595D01*
X013953Y004588D01*
X013939Y004578D01*
X013926Y004565D01*
X013916Y004551D01*
X013909Y004535D01*
X013905Y004518D01*
X013903Y004501D01*
X013903Y001801D01*
X013905Y001784D01*
X013909Y001767D01*
X013916Y001751D01*
X013926Y001737D01*
X013939Y001724D01*
X013953Y001714D01*
X013969Y001707D01*
X013986Y001703D01*
X014003Y001701D01*
X015003Y001701D01*
X015020Y001703D01*
X015037Y001707D01*
X015053Y001714D01*
X015067Y001724D01*
X015080Y001737D01*
X015090Y001751D01*
X015097Y001767D01*
X015101Y001784D01*
X015103Y001801D01*
X015103Y004501D01*
X015101Y004518D01*
X015097Y004535D01*
X015090Y004551D01*
X015080Y004565D01*
X015067Y004578D01*
X015053Y004588D01*
X015037Y004595D01*
X015020Y004599D01*
X015003Y004601D01*
X015403Y004501D02*
X015403Y001801D01*
X015405Y001784D01*
X015409Y001767D01*
X015416Y001751D01*
X015426Y001737D01*
X015439Y001724D01*
X015453Y001714D01*
X015469Y001707D01*
X015486Y001703D01*
X015503Y001701D01*
X016503Y001701D01*
X016520Y001703D01*
X016537Y001707D01*
X016553Y001714D01*
X016567Y001724D01*
X016580Y001737D01*
X016590Y001751D01*
X016597Y001767D01*
X016601Y001784D01*
X016603Y001801D01*
X016603Y004501D01*
X016601Y004518D01*
X016597Y004535D01*
X016590Y004551D01*
X016580Y004565D01*
X016567Y004578D01*
X016553Y004588D01*
X016537Y004595D01*
X016520Y004599D01*
X016503Y004601D01*
X015503Y004601D01*
X015486Y004599D01*
X015469Y004595D01*
X015453Y004588D01*
X015439Y004578D01*
X015426Y004565D01*
X015416Y004551D01*
X015409Y004535D01*
X015405Y004518D01*
X015403Y004501D01*
X016003Y003751D02*
X016003Y003271D01*
X016003Y003021D02*
X016003Y002551D01*
X014503Y002551D02*
X014503Y003021D01*
X014503Y003271D02*
X014503Y003751D01*
X013603Y004501D02*
X013603Y001801D01*
X013601Y001784D01*
X013597Y001767D01*
X013590Y001751D01*
X013580Y001737D01*
X013567Y001724D01*
X013553Y001714D01*
X013537Y001707D01*
X013520Y001703D01*
X013503Y001701D01*
X012503Y001701D01*
X012486Y001703D01*
X012469Y001707D01*
X012453Y001714D01*
X012439Y001724D01*
X012426Y001737D01*
X012416Y001751D01*
X012409Y001767D01*
X012405Y001784D01*
X012403Y001801D01*
X012403Y004501D01*
X012405Y004518D01*
X012409Y004535D01*
X012416Y004551D01*
X012426Y004565D01*
X012439Y004578D01*
X012453Y004588D01*
X012469Y004595D01*
X012486Y004599D01*
X012503Y004601D01*
X013503Y004601D01*
X013520Y004599D01*
X013537Y004595D01*
X013553Y004588D01*
X013567Y004578D01*
X013580Y004565D01*
X013590Y004551D01*
X013597Y004535D01*
X013601Y004518D01*
X013603Y004501D01*
X013003Y003751D02*
X013003Y003271D01*
X013003Y003021D02*
X013003Y002551D01*
X010653Y004651D02*
X010353Y004651D01*
X010503Y004501D02*
X010503Y004801D01*
X010003Y003601D02*
X010003Y003501D01*
X010453Y003501D01*
X010453Y003251D01*
X009553Y003251D01*
X009553Y003501D01*
X010003Y003501D01*
X008003Y003151D02*
X008005Y003249D01*
X008013Y003347D01*
X008025Y003444D01*
X008041Y003541D01*
X008063Y003637D01*
X008089Y003732D01*
X008120Y003825D01*
X008155Y003916D01*
X008195Y004006D01*
X008239Y004094D01*
X008288Y004179D01*
X008340Y004262D01*
X008397Y004342D01*
X008457Y004420D01*
X008521Y004494D01*
X008589Y004565D01*
X008660Y004633D01*
X008734Y004697D01*
X008812Y004757D01*
X008892Y004814D01*
X008975Y004866D01*
X009060Y004915D01*
X009148Y004959D01*
X009238Y004999D01*
X009329Y005034D01*
X009422Y005065D01*
X009517Y005091D01*
X009613Y005113D01*
X009710Y005129D01*
X009807Y005141D01*
X009905Y005149D01*
X010003Y005151D01*
X010101Y005149D01*
X010199Y005141D01*
X010296Y005129D01*
X010393Y005113D01*
X010489Y005091D01*
X010584Y005065D01*
X010677Y005034D01*
X010768Y004999D01*
X010858Y004959D01*
X010946Y004915D01*
X011031Y004866D01*
X011114Y004814D01*
X011194Y004757D01*
X011272Y004697D01*
X011346Y004633D01*
X011417Y004565D01*
X011485Y004494D01*
X011549Y004420D01*
X011609Y004342D01*
X011666Y004262D01*
X011718Y004179D01*
X011767Y004094D01*
X011811Y004006D01*
X011851Y003916D01*
X011886Y003825D01*
X011917Y003732D01*
X011943Y003637D01*
X011965Y003541D01*
X011981Y003444D01*
X011993Y003347D01*
X012001Y003249D01*
X012003Y003151D01*
X012001Y003053D01*
X011993Y002955D01*
X011981Y002858D01*
X011965Y002761D01*
X011943Y002665D01*
X011917Y002570D01*
X011886Y002477D01*
X011851Y002386D01*
X011811Y002296D01*
X011767Y002208D01*
X011718Y002123D01*
X011666Y002040D01*
X011609Y001960D01*
X011549Y001882D01*
X011485Y001808D01*
X011417Y001737D01*
X011346Y001669D01*
X011272Y001605D01*
X011194Y001545D01*
X011114Y001488D01*
X011031Y001436D01*
X010946Y001387D01*
X010858Y001343D01*
X010768Y001303D01*
X010677Y001268D01*
X010584Y001237D01*
X010489Y001211D01*
X010393Y001189D01*
X010296Y001173D01*
X010199Y001161D01*
X010101Y001153D01*
X010003Y001151D01*
X009905Y001153D01*
X009807Y001161D01*
X009710Y001173D01*
X009613Y001189D01*
X009517Y001211D01*
X009422Y001237D01*
X009329Y001268D01*
X009238Y001303D01*
X009148Y001343D01*
X009060Y001387D01*
X008975Y001436D01*
X008892Y001488D01*
X008812Y001545D01*
X008734Y001605D01*
X008660Y001669D01*
X008589Y001737D01*
X008521Y001808D01*
X008457Y001882D01*
X008397Y001960D01*
X008340Y002040D01*
X008288Y002123D01*
X008239Y002208D01*
X008195Y002296D01*
X008155Y002386D01*
X008120Y002477D01*
X008089Y002570D01*
X008063Y002665D01*
X008041Y002761D01*
X008025Y002858D01*
X008013Y002955D01*
X008005Y003053D01*
X008003Y003151D01*
X010003Y002901D02*
X010003Y002701D01*
X012444Y006332D02*
X012481Y006332D01*
X012444Y006332D02*
X012444Y006970D01*
X012481Y006970D01*
X012798Y006970D02*
X013209Y006970D01*
X013526Y006970D02*
X013563Y006970D01*
X013563Y006332D01*
X013526Y006332D01*
X013209Y006332D02*
X013172Y006332D01*
X012835Y006332D02*
X012798Y006332D01*
X011803Y007051D02*
X011603Y007051D01*
X011703Y007151D02*
X011703Y006951D01*
X010003Y006651D02*
X010005Y006714D01*
X010011Y006776D01*
X010021Y006838D01*
X010034Y006900D01*
X010052Y006960D01*
X010073Y007019D01*
X010098Y007077D01*
X010127Y007133D01*
X010159Y007187D01*
X010194Y007239D01*
X010232Y007288D01*
X010274Y007336D01*
X010318Y007380D01*
X010366Y007422D01*
X010415Y007460D01*
X010467Y007495D01*
X010521Y007527D01*
X010577Y007556D01*
X010635Y007581D01*
X010694Y007602D01*
X010754Y007620D01*
X010816Y007633D01*
X010878Y007643D01*
X010940Y007649D01*
X011003Y007651D01*
X011066Y007649D01*
X011128Y007643D01*
X011190Y007633D01*
X011252Y007620D01*
X011312Y007602D01*
X011371Y007581D01*
X011429Y007556D01*
X011485Y007527D01*
X011539Y007495D01*
X011591Y007460D01*
X011640Y007422D01*
X011688Y007380D01*
X011732Y007336D01*
X011774Y007288D01*
X011812Y007239D01*
X011847Y007187D01*
X011879Y007133D01*
X011908Y007077D01*
X011933Y007019D01*
X011954Y006960D01*
X011972Y006900D01*
X011985Y006838D01*
X011995Y006776D01*
X012001Y006714D01*
X012003Y006651D01*
X012001Y006588D01*
X011995Y006526D01*
X011985Y006464D01*
X011972Y006402D01*
X011954Y006342D01*
X011933Y006283D01*
X011908Y006225D01*
X011879Y006169D01*
X011847Y006115D01*
X011812Y006063D01*
X011774Y006014D01*
X011732Y005966D01*
X011688Y005922D01*
X011640Y005880D01*
X011591Y005842D01*
X011539Y005807D01*
X011485Y005775D01*
X011429Y005746D01*
X011371Y005721D01*
X011312Y005700D01*
X011252Y005682D01*
X011190Y005669D01*
X011128Y005659D01*
X011066Y005653D01*
X011003Y005651D01*
X010940Y005653D01*
X010878Y005659D01*
X010816Y005669D01*
X010754Y005682D01*
X010694Y005700D01*
X010635Y005721D01*
X010577Y005746D01*
X010521Y005775D01*
X010467Y005807D01*
X010415Y005842D01*
X010366Y005880D01*
X010318Y005922D01*
X010274Y005966D01*
X010232Y006014D01*
X010194Y006063D01*
X010159Y006115D01*
X010127Y006169D01*
X010098Y006225D01*
X010073Y006283D01*
X010052Y006342D01*
X010034Y006402D01*
X010021Y006464D01*
X010011Y006526D01*
X010005Y006588D01*
X010003Y006651D01*
X009303Y007051D02*
X009103Y007051D01*
X009203Y007151D02*
X009203Y006951D01*
X007503Y006651D02*
X007505Y006714D01*
X007511Y006776D01*
X007521Y006838D01*
X007534Y006900D01*
X007552Y006960D01*
X007573Y007019D01*
X007598Y007077D01*
X007627Y007133D01*
X007659Y007187D01*
X007694Y007239D01*
X007732Y007288D01*
X007774Y007336D01*
X007818Y007380D01*
X007866Y007422D01*
X007915Y007460D01*
X007967Y007495D01*
X008021Y007527D01*
X008077Y007556D01*
X008135Y007581D01*
X008194Y007602D01*
X008254Y007620D01*
X008316Y007633D01*
X008378Y007643D01*
X008440Y007649D01*
X008503Y007651D01*
X008566Y007649D01*
X008628Y007643D01*
X008690Y007633D01*
X008752Y007620D01*
X008812Y007602D01*
X008871Y007581D01*
X008929Y007556D01*
X008985Y007527D01*
X009039Y007495D01*
X009091Y007460D01*
X009140Y007422D01*
X009188Y007380D01*
X009232Y007336D01*
X009274Y007288D01*
X009312Y007239D01*
X009347Y007187D01*
X009379Y007133D01*
X009408Y007077D01*
X009433Y007019D01*
X009454Y006960D01*
X009472Y006900D01*
X009485Y006838D01*
X009495Y006776D01*
X009501Y006714D01*
X009503Y006651D01*
X009501Y006588D01*
X009495Y006526D01*
X009485Y006464D01*
X009472Y006402D01*
X009454Y006342D01*
X009433Y006283D01*
X009408Y006225D01*
X009379Y006169D01*
X009347Y006115D01*
X009312Y006063D01*
X009274Y006014D01*
X009232Y005966D01*
X009188Y005922D01*
X009140Y005880D01*
X009091Y005842D01*
X009039Y005807D01*
X008985Y005775D01*
X008929Y005746D01*
X008871Y005721D01*
X008812Y005700D01*
X008752Y005682D01*
X008690Y005669D01*
X008628Y005659D01*
X008566Y005653D01*
X008503Y005651D01*
X008440Y005653D01*
X008378Y005659D01*
X008316Y005669D01*
X008254Y005682D01*
X008194Y005700D01*
X008135Y005721D01*
X008077Y005746D01*
X008021Y005775D01*
X007967Y005807D01*
X007915Y005842D01*
X007866Y005880D01*
X007818Y005922D01*
X007774Y005966D01*
X007732Y006014D01*
X007694Y006063D01*
X007659Y006115D01*
X007627Y006169D01*
X007598Y006225D01*
X007573Y006283D01*
X007552Y006342D01*
X007534Y006402D01*
X007521Y006464D01*
X007511Y006526D01*
X007505Y006588D01*
X007503Y006651D01*
X009503Y009951D02*
X009486Y009953D01*
X009469Y009957D01*
X009453Y009964D01*
X009439Y009974D01*
X009426Y009987D01*
X009416Y010001D01*
X009409Y010017D01*
X009405Y010034D01*
X009403Y010051D01*
X010503Y009951D02*
X010520Y009953D01*
X010537Y009957D01*
X010553Y009964D01*
X010567Y009974D01*
X010580Y009987D01*
X010590Y010001D01*
X010597Y010017D01*
X010601Y010034D01*
X010603Y010051D01*
X010603Y010301D01*
X010553Y010351D01*
X010553Y012951D01*
X010603Y013001D01*
X010603Y013251D01*
X010601Y013268D01*
X010597Y013285D01*
X010590Y013301D01*
X010580Y013315D01*
X010567Y013328D01*
X010553Y013338D01*
X010537Y013345D01*
X010520Y013349D01*
X010503Y013351D01*
X010903Y013251D02*
X010903Y013001D01*
X010953Y012951D01*
X010953Y010351D01*
X010903Y010301D01*
X010903Y010051D01*
X010905Y010034D01*
X010909Y010017D01*
X010916Y010001D01*
X010926Y009987D01*
X010939Y009974D01*
X010953Y009964D01*
X010969Y009957D01*
X010986Y009953D01*
X011003Y009951D01*
X012003Y009951D02*
X012020Y009953D01*
X012037Y009957D01*
X012053Y009964D01*
X012067Y009974D01*
X012080Y009987D01*
X012090Y010001D01*
X012097Y010017D01*
X012101Y010034D01*
X012103Y010051D01*
X012103Y010301D01*
X012053Y010351D01*
X012053Y012951D01*
X012103Y013001D01*
X012103Y013251D01*
X012101Y013268D01*
X012097Y013285D01*
X012090Y013301D01*
X012080Y013315D01*
X012067Y013328D01*
X012053Y013338D01*
X012037Y013345D01*
X012020Y013349D01*
X012003Y013351D01*
X011003Y013351D02*
X010986Y013349D01*
X010969Y013345D01*
X010953Y013338D01*
X010939Y013328D01*
X010926Y013315D01*
X010916Y013301D01*
X010909Y013285D01*
X010905Y013268D01*
X010903Y013251D01*
X012003Y017051D02*
X012003Y019251D01*
X008003Y019251D01*
X008003Y018401D01*
X008033Y018399D01*
X008063Y018394D01*
X008092Y018385D01*
X008119Y018372D01*
X008145Y018357D01*
X008169Y018338D01*
X008190Y018317D01*
X008209Y018293D01*
X008224Y018267D01*
X008237Y018240D01*
X008246Y018211D01*
X008251Y018181D01*
X008253Y018151D01*
X008251Y018121D01*
X008246Y018091D01*
X008237Y018062D01*
X008224Y018035D01*
X008209Y018009D01*
X008190Y017985D01*
X008169Y017964D01*
X008145Y017945D01*
X008119Y017930D01*
X008092Y017917D01*
X008063Y017908D01*
X008033Y017903D01*
X008003Y017901D01*
X008003Y017051D01*
X012003Y017051D01*
X016503Y014901D02*
X016503Y014401D01*
X016603Y013251D02*
X016353Y013251D01*
X016603Y013251D02*
X016620Y013249D01*
X016637Y013245D01*
X016653Y013238D01*
X016667Y013228D01*
X016680Y013215D01*
X016690Y013201D01*
X016697Y013185D01*
X016701Y013168D01*
X016703Y013151D01*
X017503Y014401D02*
X017503Y014901D01*
X018253Y013151D02*
X018003Y012901D01*
X018003Y012401D01*
X018253Y012151D01*
X018003Y011901D01*
X018003Y011401D01*
X018253Y011151D01*
X018753Y011151D01*
X019003Y011401D01*
X019003Y011901D01*
X018753Y012151D01*
X018253Y012151D01*
X018753Y012151D02*
X019003Y012401D01*
X019003Y012901D01*
X018753Y013151D01*
X018253Y013151D01*
X018253Y011151D02*
X018003Y010901D01*
X018003Y010401D01*
X018253Y010151D01*
X018003Y009901D01*
X018003Y009401D01*
X018253Y009151D01*
X018003Y008901D01*
X018003Y008401D01*
X018253Y008151D01*
X018753Y008151D01*
X019003Y008401D01*
X019003Y008901D01*
X018753Y009151D01*
X018253Y009151D01*
X018753Y009151D02*
X019003Y009401D01*
X019003Y009901D01*
X018753Y010151D01*
X018253Y010151D01*
X018753Y010151D02*
X019003Y010401D01*
X019003Y010901D01*
X018753Y011151D01*
X016703Y011651D02*
X016701Y011668D01*
X016697Y011685D01*
X016690Y011701D01*
X016680Y011715D01*
X016667Y011728D01*
X016653Y011738D01*
X016637Y011745D01*
X016620Y011749D01*
X016603Y011751D01*
X016603Y010251D02*
X016620Y010249D01*
X016637Y010245D01*
X016653Y010238D01*
X016667Y010228D01*
X016680Y010215D01*
X016690Y010201D01*
X016697Y010185D01*
X016701Y010168D01*
X016703Y010151D01*
X014503Y007251D02*
X014503Y006771D01*
X014503Y006521D02*
X014503Y006051D01*
X017903Y004501D02*
X017903Y001801D01*
X017905Y001784D01*
X017909Y001767D01*
X017916Y001751D01*
X017926Y001737D01*
X017939Y001724D01*
X017953Y001714D01*
X017969Y001707D01*
X017986Y001703D01*
X018003Y001701D01*
X019003Y001701D01*
X019020Y001703D01*
X019037Y001707D01*
X019053Y001714D01*
X019067Y001724D01*
X019080Y001737D01*
X019090Y001751D01*
X019097Y001767D01*
X019101Y001784D01*
X019103Y001801D01*
X019103Y004501D01*
X019101Y004518D01*
X019097Y004535D01*
X019090Y004551D01*
X019080Y004565D01*
X019067Y004578D01*
X019053Y004588D01*
X019037Y004595D01*
X019020Y004599D01*
X019003Y004601D01*
X018003Y004601D01*
X017986Y004599D01*
X017969Y004595D01*
X017953Y004588D01*
X017939Y004578D01*
X017926Y004565D01*
X017916Y004551D01*
X017909Y004535D01*
X017905Y004518D01*
X017903Y004501D01*
X018503Y003751D02*
X018503Y003271D01*
X018503Y003021D02*
X018503Y002551D01*
X003753Y011151D02*
X002753Y011151D01*
X002753Y012151D01*
X002753Y013151D01*
X002753Y014151D01*
X003753Y014151D01*
X003753Y013151D01*
X002753Y013151D01*
X002753Y012151D02*
X003753Y012151D01*
X003753Y013151D01*
X003753Y012151D02*
X003753Y011151D01*
X003753Y022151D02*
X002753Y022151D01*
X002753Y023151D01*
X002753Y024151D01*
X002753Y025151D01*
X003753Y025151D01*
X003753Y024151D01*
X002753Y024151D01*
X002753Y023151D02*
X003753Y023151D01*
X003753Y024151D01*
X003753Y023151D02*
X003753Y022151D01*
D17*
X002653Y022651D03*
X002653Y023651D03*
X002653Y024651D03*
X002653Y013651D03*
X002653Y012651D03*
X002653Y011651D03*
X002653Y003151D03*
X002653Y002151D03*
D18*
X003297Y001377D02*
X003448Y001377D01*
X003372Y001377D02*
X003372Y001001D01*
X003297Y000926D01*
X003222Y000926D01*
X003147Y001001D01*
X003608Y000926D02*
X003608Y001377D01*
X003833Y001377D01*
X003908Y001301D01*
X003908Y001151D01*
X003833Y001076D01*
X003608Y001076D01*
X004068Y000926D02*
X004368Y000926D01*
X004218Y000926D02*
X004218Y001377D01*
X004068Y001226D01*
X005683Y004146D02*
X005758Y004221D01*
X005758Y004296D01*
X005683Y004371D01*
X005308Y004371D01*
X005308Y004296D02*
X005308Y004446D01*
X005308Y004607D02*
X005308Y004832D01*
X005383Y004907D01*
X005533Y004907D01*
X005608Y004832D01*
X005608Y004607D01*
X005758Y004607D02*
X005308Y004607D01*
X005383Y005067D02*
X005458Y005067D01*
X005533Y005142D01*
X005533Y005367D01*
X005383Y005367D02*
X005308Y005292D01*
X005308Y005142D01*
X005383Y005067D01*
X005383Y005367D02*
X005683Y005367D01*
X005758Y005292D01*
X005758Y005142D01*
X005683Y005067D01*
X007358Y005101D02*
X007433Y005026D01*
X007583Y005026D01*
X007658Y005101D01*
X007818Y005026D02*
X008118Y005326D01*
X008118Y005401D01*
X008043Y005477D01*
X007893Y005477D01*
X007818Y005401D01*
X007658Y005401D02*
X007583Y005477D01*
X007433Y005477D01*
X007358Y005401D01*
X007358Y005101D01*
X007818Y005026D02*
X008118Y005026D01*
X008104Y001457D02*
X007954Y001457D01*
X007878Y001381D01*
X007878Y001081D01*
X007954Y001006D01*
X008104Y001006D01*
X008179Y001081D01*
X008339Y001006D02*
X008639Y001006D01*
X008489Y001006D02*
X008489Y001457D01*
X008339Y001306D01*
X008179Y001381D02*
X008104Y001457D01*
X011354Y005076D02*
X011278Y005151D01*
X011278Y005451D01*
X011354Y005527D01*
X011504Y005527D01*
X011579Y005451D01*
X011739Y005451D02*
X011814Y005527D01*
X011964Y005527D01*
X012039Y005451D01*
X012039Y005376D01*
X011964Y005301D01*
X012039Y005226D01*
X012039Y005151D01*
X011964Y005076D01*
X011814Y005076D01*
X011739Y005151D01*
X011579Y005151D02*
X011504Y005076D01*
X011354Y005076D01*
X011889Y005301D02*
X011964Y005301D01*
X014204Y008426D02*
X014354Y008426D01*
X014429Y008501D01*
X014589Y008501D02*
X014589Y008576D01*
X014664Y008651D01*
X014814Y008651D01*
X014889Y008576D01*
X014889Y008501D01*
X014814Y008426D01*
X014664Y008426D01*
X014589Y008501D01*
X014664Y008651D02*
X014589Y008726D01*
X014589Y008801D01*
X014664Y008877D01*
X014814Y008877D01*
X014889Y008801D01*
X014889Y008726D01*
X014814Y008651D01*
X014429Y008801D02*
X014354Y008877D01*
X014204Y008877D01*
X014128Y008801D01*
X014128Y008501D01*
X014204Y008426D01*
X014193Y009426D02*
X014043Y009426D01*
X013968Y009501D01*
X014043Y009651D02*
X014268Y009651D01*
X014268Y009501D02*
X014268Y009801D01*
X014193Y009877D01*
X014043Y009877D01*
X013968Y009801D01*
X013968Y009726D01*
X014043Y009651D01*
X013808Y009651D02*
X013808Y009801D01*
X013733Y009877D01*
X013508Y009877D01*
X013508Y009426D01*
X013508Y009576D02*
X013733Y009576D01*
X013808Y009651D01*
X013658Y009576D02*
X013808Y009426D01*
X014193Y009426D02*
X014268Y009501D01*
X014193Y010926D02*
X014043Y010926D01*
X013968Y011001D01*
X013968Y011076D01*
X014043Y011151D01*
X014193Y011151D01*
X014268Y011076D01*
X014268Y011001D01*
X014193Y010926D01*
X014193Y011151D02*
X014268Y011226D01*
X014268Y011301D01*
X014193Y011377D01*
X014043Y011377D01*
X013968Y011301D01*
X013968Y011226D01*
X014043Y011151D01*
X013808Y011151D02*
X013733Y011076D01*
X013508Y011076D01*
X013508Y010926D02*
X013508Y011377D01*
X013733Y011377D01*
X013808Y011301D01*
X013808Y011151D01*
X013658Y011076D02*
X013808Y010926D01*
X013929Y012426D02*
X013779Y012576D01*
X013854Y012576D02*
X013628Y012576D01*
X013628Y012426D02*
X013628Y012877D01*
X013854Y012877D01*
X013929Y012801D01*
X013929Y012651D01*
X013854Y012576D01*
X014089Y012426D02*
X014389Y012726D01*
X014389Y012801D01*
X014314Y012877D01*
X014164Y012877D01*
X014089Y012801D01*
X014089Y012426D02*
X014389Y012426D01*
X014419Y015396D02*
X014419Y015471D01*
X014719Y015771D01*
X014719Y015847D01*
X014419Y015847D01*
X014259Y015771D02*
X014259Y015621D01*
X014184Y015546D01*
X013959Y015546D01*
X013959Y015396D02*
X013959Y015847D01*
X014184Y015847D01*
X014259Y015771D01*
X013799Y015847D02*
X013649Y015847D01*
X013724Y015847D02*
X013724Y015471D01*
X013649Y015396D01*
X013574Y015396D01*
X013498Y015471D01*
X014528Y016501D02*
X014604Y016426D01*
X014679Y016426D01*
X014754Y016501D01*
X014754Y016877D01*
X014679Y016877D02*
X014829Y016877D01*
X014989Y016877D02*
X014989Y016426D01*
X014989Y016576D02*
X015214Y016576D01*
X015289Y016651D01*
X015289Y016801D01*
X015214Y016877D01*
X014989Y016877D01*
X015449Y016801D02*
X015524Y016877D01*
X015674Y016877D01*
X015749Y016801D01*
X015749Y016726D01*
X015449Y016426D01*
X015749Y016426D01*
X016878Y017026D02*
X016878Y020276D01*
X017253Y020651D01*
X017753Y020651D01*
X018128Y020276D01*
X018128Y017026D01*
X017753Y016651D01*
X017253Y016651D01*
X016878Y017026D01*
X019323Y013046D02*
X019398Y013046D01*
X019473Y012971D01*
X019473Y012821D01*
X019398Y012746D01*
X019323Y012746D01*
X019248Y012821D01*
X019248Y012971D01*
X019323Y013046D01*
X019473Y012971D02*
X019548Y013046D01*
X019623Y013046D01*
X019698Y012971D01*
X019698Y012821D01*
X019623Y012746D01*
X019548Y012746D01*
X019473Y012821D01*
X019473Y012586D02*
X019323Y012586D01*
X019248Y012511D01*
X019248Y012285D01*
X019698Y012285D01*
X019548Y012285D02*
X019548Y012511D01*
X019473Y012586D01*
X019248Y012125D02*
X019248Y011975D01*
X019248Y012050D02*
X019623Y012050D01*
X019698Y011975D01*
X019698Y011900D01*
X019623Y011825D01*
X016389Y008877D02*
X016389Y008801D01*
X016089Y008501D01*
X016089Y008426D01*
X015929Y008501D02*
X015854Y008426D01*
X015704Y008426D01*
X015628Y008501D01*
X015628Y008801D01*
X015704Y008877D01*
X015854Y008877D01*
X015929Y008801D01*
X016089Y008877D02*
X016389Y008877D01*
X017913Y006742D02*
X019094Y006742D01*
X019094Y005561D01*
X017913Y005561D01*
X017913Y006742D01*
X017753Y005351D02*
X017755Y005371D01*
X017761Y005389D01*
X017770Y005407D01*
X017782Y005422D01*
X017797Y005434D01*
X017815Y005443D01*
X017833Y005449D01*
X017853Y005451D01*
X017873Y005449D01*
X017891Y005443D01*
X017909Y005434D01*
X017924Y005422D01*
X017936Y005407D01*
X017945Y005389D01*
X017951Y005371D01*
X017953Y005351D01*
X017951Y005331D01*
X017945Y005313D01*
X017936Y005295D01*
X017924Y005280D01*
X017909Y005268D01*
X017891Y005259D01*
X017873Y005253D01*
X017853Y005251D01*
X017833Y005253D01*
X017815Y005259D01*
X017797Y005268D01*
X017782Y005280D01*
X017770Y005295D01*
X017761Y005313D01*
X017755Y005331D01*
X017753Y005351D01*
X017954Y001377D02*
X017878Y001301D01*
X017878Y001001D01*
X017954Y000926D01*
X018104Y000926D01*
X018179Y001001D01*
X018339Y000926D02*
X018639Y000926D01*
X018489Y000926D02*
X018489Y001377D01*
X018339Y001226D01*
X018179Y001301D02*
X018104Y001377D01*
X017954Y001377D01*
X018799Y001301D02*
X018799Y001001D01*
X019099Y001301D01*
X019099Y001001D01*
X019024Y000926D01*
X018874Y000926D01*
X018799Y001001D01*
X018799Y001301D02*
X018874Y001377D01*
X019024Y001377D01*
X019099Y001301D01*
X016389Y001377D02*
X016239Y001301D01*
X016089Y001151D01*
X016314Y001151D01*
X016389Y001076D01*
X016389Y001001D01*
X016314Y000926D01*
X016164Y000926D01*
X016089Y001001D01*
X016089Y001151D01*
X015929Y001001D02*
X015854Y000926D01*
X015704Y000926D01*
X015628Y001001D01*
X015628Y001301D01*
X015704Y001377D01*
X015854Y001377D01*
X015929Y001301D01*
X014889Y001377D02*
X014589Y001377D01*
X014589Y001151D01*
X014739Y001226D01*
X014814Y001226D01*
X014889Y001151D01*
X014889Y001001D01*
X014814Y000926D01*
X014664Y000926D01*
X014589Y001001D01*
X014429Y001001D02*
X014354Y000926D01*
X014204Y000926D01*
X014128Y001001D01*
X014128Y001301D01*
X014204Y001377D01*
X014354Y001377D01*
X014429Y001301D01*
X013389Y001151D02*
X013089Y001151D01*
X013314Y001377D01*
X013314Y000926D01*
X012929Y001001D02*
X012854Y000926D01*
X012704Y000926D01*
X012628Y001001D01*
X012628Y001301D01*
X012704Y001377D01*
X012854Y001377D01*
X012929Y001301D01*
X008099Y009926D02*
X007799Y009926D01*
X007949Y009926D02*
X007949Y010377D01*
X007799Y010226D01*
X007639Y009926D02*
X007339Y009926D01*
X007489Y009926D02*
X007489Y010377D01*
X007339Y010226D01*
X007179Y010301D02*
X007104Y010377D01*
X006954Y010377D01*
X006878Y010301D01*
X006878Y010001D01*
X006954Y009926D01*
X007104Y009926D01*
X007179Y010001D01*
X007353Y010827D02*
X007353Y012476D01*
X007354Y012926D02*
X007278Y013001D01*
X007278Y013301D01*
X007354Y013377D01*
X007504Y013377D01*
X007579Y013301D01*
X007579Y013001D01*
X007504Y012926D01*
X007354Y012926D01*
X007429Y013076D02*
X007579Y012926D01*
X007739Y012926D02*
X008039Y012926D01*
X007889Y012926D02*
X007889Y013377D01*
X007739Y013226D01*
X007903Y012696D02*
X007903Y012538D01*
X007903Y011764D02*
X007903Y011538D01*
X007353Y012476D02*
X007401Y012511D01*
X007451Y012544D01*
X007503Y012575D01*
X007557Y012602D01*
X007612Y012626D01*
X007669Y012646D01*
X007726Y012664D01*
X007784Y012678D01*
X007843Y012689D01*
X007903Y012696D01*
X009006Y011341D02*
X008986Y011281D01*
X008962Y011222D01*
X008934Y011165D01*
X008903Y011110D01*
X008868Y011056D01*
X008831Y011005D01*
X008790Y010956D01*
X008746Y010910D01*
X008700Y010866D01*
X008651Y010825D01*
X008600Y010787D01*
X008547Y010753D01*
X008491Y010721D01*
X008434Y010694D01*
X008375Y010669D01*
X008315Y010649D01*
X008254Y010631D01*
X008192Y010618D01*
X008129Y010609D01*
X008066Y010603D01*
X008002Y010601D01*
X007938Y010603D01*
X007875Y010609D01*
X007812Y010618D01*
X007750Y010632D01*
X007689Y010649D01*
X007629Y010670D01*
X007570Y010694D01*
X007513Y010722D01*
X007457Y010754D01*
X007404Y010789D01*
X007353Y010826D01*
X007903Y010764D02*
X007903Y010606D01*
X009006Y011961D02*
X008986Y012020D01*
X008963Y012077D01*
X008936Y012134D01*
X008905Y012188D01*
X008872Y012241D01*
X008835Y012291D01*
X008796Y012340D01*
X008753Y012385D01*
X008708Y012429D01*
X008661Y012469D01*
X008611Y012507D01*
X008559Y012542D01*
X008505Y012573D01*
X008450Y012601D01*
X008393Y012626D01*
X008334Y012647D01*
X008274Y012665D01*
X008213Y012680D01*
X008152Y012690D01*
X008090Y012697D01*
X008028Y012701D01*
X007965Y012700D01*
X007903Y012696D01*
X007274Y014926D02*
X007124Y014926D01*
X007049Y015001D01*
X006889Y014926D02*
X006589Y014926D01*
X006739Y014926D02*
X006739Y015377D01*
X006589Y015226D01*
X006429Y015301D02*
X006354Y015377D01*
X006204Y015377D01*
X006128Y015301D01*
X006128Y015001D01*
X006204Y014926D01*
X006354Y014926D01*
X006429Y015001D01*
X007049Y015301D02*
X007124Y015377D01*
X007274Y015377D01*
X007349Y015301D01*
X007349Y015226D01*
X007274Y015151D01*
X007349Y015076D01*
X007349Y015001D01*
X007274Y014926D01*
X007274Y015151D02*
X007199Y015151D01*
X007418Y017176D02*
X007418Y017326D01*
X007418Y017251D02*
X007868Y017251D01*
X007868Y017176D02*
X007868Y017326D01*
X007793Y017483D02*
X007868Y017558D01*
X007868Y017708D01*
X007793Y017783D01*
X007868Y017943D02*
X007868Y018244D01*
X007868Y018094D02*
X007418Y018094D01*
X007568Y017943D01*
X007493Y017783D02*
X007418Y017708D01*
X007418Y017558D01*
X007493Y017483D01*
X007793Y017483D01*
X007653Y018655D02*
X007353Y018655D01*
X007278Y018730D01*
X007278Y018881D01*
X007353Y018956D01*
X007353Y019116D02*
X007428Y019116D01*
X007503Y019191D01*
X007503Y019416D01*
X007653Y019416D02*
X007353Y019416D01*
X007278Y019341D01*
X007278Y019191D01*
X007353Y019116D01*
X007653Y019116D02*
X007728Y019191D01*
X007728Y019341D01*
X007653Y019416D01*
X007653Y018956D02*
X007728Y018881D01*
X007728Y018730D01*
X007653Y018655D01*
X005728Y020620D02*
X005653Y020545D01*
X005728Y020620D02*
X005728Y020695D01*
X005653Y020770D01*
X005278Y020770D01*
X005278Y020695D02*
X005278Y020845D01*
X005278Y021005D02*
X005278Y021231D01*
X005353Y021306D01*
X005503Y021306D01*
X005578Y021231D01*
X005578Y021005D01*
X005728Y021005D02*
X005278Y021005D01*
X005278Y021466D02*
X005503Y021466D01*
X005428Y021616D01*
X005428Y021691D01*
X005503Y021766D01*
X005653Y021766D01*
X005728Y021691D01*
X005728Y021541D01*
X005653Y021466D01*
X005278Y021466D02*
X005278Y021766D01*
X006878Y022001D02*
X006954Y021926D01*
X007104Y021926D01*
X007179Y022001D01*
X007339Y021926D02*
X007639Y021926D01*
X007489Y021926D02*
X007489Y022377D01*
X007339Y022226D01*
X007179Y022301D02*
X007104Y022377D01*
X006954Y022377D01*
X006878Y022301D01*
X006878Y022001D01*
X007353Y022827D02*
X007353Y024476D01*
X007354Y024926D02*
X007278Y025001D01*
X007278Y025301D01*
X007354Y025377D01*
X007504Y025377D01*
X007579Y025301D01*
X007579Y025001D01*
X007504Y024926D01*
X007354Y024926D01*
X007429Y025076D02*
X007579Y024926D01*
X007739Y024926D02*
X008039Y025226D01*
X008039Y025301D01*
X007964Y025377D01*
X007814Y025377D01*
X007739Y025301D01*
X007739Y024926D02*
X008039Y024926D01*
X007903Y024696D02*
X007903Y024538D01*
X007903Y023764D02*
X007903Y023538D01*
X007353Y024476D02*
X007401Y024511D01*
X007451Y024544D01*
X007503Y024575D01*
X007557Y024602D01*
X007612Y024626D01*
X007669Y024646D01*
X007726Y024664D01*
X007784Y024678D01*
X007843Y024689D01*
X007903Y024696D01*
X009006Y023341D02*
X008986Y023281D01*
X008962Y023222D01*
X008934Y023165D01*
X008903Y023110D01*
X008868Y023056D01*
X008831Y023005D01*
X008790Y022956D01*
X008746Y022910D01*
X008700Y022866D01*
X008651Y022825D01*
X008600Y022787D01*
X008547Y022753D01*
X008491Y022721D01*
X008434Y022694D01*
X008375Y022669D01*
X008315Y022649D01*
X008254Y022631D01*
X008192Y022618D01*
X008129Y022609D01*
X008066Y022603D01*
X008002Y022601D01*
X007938Y022603D01*
X007875Y022609D01*
X007812Y022618D01*
X007750Y022632D01*
X007689Y022649D01*
X007629Y022670D01*
X007570Y022694D01*
X007513Y022722D01*
X007457Y022754D01*
X007404Y022789D01*
X007353Y022826D01*
X007874Y022377D02*
X007799Y022301D01*
X007874Y022377D02*
X008024Y022377D01*
X008099Y022301D01*
X008099Y022226D01*
X007799Y021926D01*
X008099Y021926D01*
X007903Y022606D02*
X007903Y022764D01*
X009006Y023961D02*
X008986Y024020D01*
X008963Y024077D01*
X008936Y024134D01*
X008905Y024188D01*
X008872Y024241D01*
X008835Y024291D01*
X008796Y024340D01*
X008753Y024385D01*
X008708Y024429D01*
X008661Y024469D01*
X008611Y024507D01*
X008559Y024542D01*
X008505Y024573D01*
X008450Y024601D01*
X008393Y024626D01*
X008334Y024647D01*
X008274Y024665D01*
X008213Y024680D01*
X008152Y024690D01*
X008090Y024697D01*
X008028Y024701D01*
X007965Y024700D01*
X007903Y024696D01*
X007274Y026926D02*
X007274Y027377D01*
X007049Y027151D01*
X007349Y027151D01*
X006889Y026926D02*
X006589Y026926D01*
X006739Y026926D02*
X006739Y027377D01*
X006589Y027226D01*
X006429Y027301D02*
X006354Y027377D01*
X006204Y027377D01*
X006128Y027301D01*
X006128Y027001D01*
X006204Y026926D01*
X006354Y026926D01*
X006429Y027001D01*
X009778Y024666D02*
X009778Y024366D01*
X010003Y024366D01*
X009928Y024516D01*
X009928Y024591D01*
X010003Y024666D01*
X010153Y024666D01*
X010228Y024591D01*
X010228Y024441D01*
X010153Y024366D01*
X010228Y024206D02*
X010078Y024056D01*
X010078Y024131D02*
X010078Y023905D01*
X010228Y023905D02*
X009778Y023905D01*
X009778Y024131D01*
X009853Y024206D01*
X010003Y024206D01*
X010078Y024131D01*
X011278Y024131D02*
X011278Y023905D01*
X011728Y023905D01*
X011578Y023905D02*
X011578Y024131D01*
X011503Y024206D01*
X011353Y024206D01*
X011278Y024131D01*
X011578Y024056D02*
X011728Y024206D01*
X011653Y024366D02*
X011728Y024441D01*
X011728Y024591D01*
X011653Y024666D01*
X011578Y024666D01*
X011503Y024591D01*
X011503Y024366D01*
X011653Y024366D01*
X011503Y024366D02*
X011353Y024516D01*
X011278Y024666D01*
X013258Y023127D02*
X013258Y022676D01*
X013258Y022826D02*
X013483Y022826D01*
X013558Y022901D01*
X013558Y023051D01*
X013483Y023127D01*
X013258Y023127D01*
X013408Y022826D02*
X013558Y022676D01*
X013718Y022676D02*
X013718Y022751D01*
X014018Y023051D01*
X014018Y023127D01*
X013718Y023127D01*
X013868Y021627D02*
X013868Y021176D01*
X013718Y021176D02*
X014018Y021176D01*
X013718Y021476D02*
X013868Y021627D01*
X013558Y021551D02*
X013558Y021401D01*
X013483Y021326D01*
X013258Y021326D01*
X013258Y021176D02*
X013258Y021627D01*
X013483Y021627D01*
X013558Y021551D01*
X013408Y021326D02*
X013558Y021176D01*
X015778Y025386D02*
X016004Y025386D01*
X016079Y025461D01*
X016079Y025761D01*
X016004Y025837D01*
X015778Y025837D01*
X015778Y025386D01*
X016239Y025386D02*
X016539Y025386D01*
X016389Y025386D02*
X016389Y025837D01*
X016239Y025686D01*
X018248Y025625D02*
X018248Y025475D01*
X018248Y025550D02*
X018623Y025550D01*
X018698Y025475D01*
X018698Y025400D01*
X018623Y025325D01*
X018548Y025785D02*
X018548Y026011D01*
X018473Y026086D01*
X018323Y026086D01*
X018248Y026011D01*
X018248Y025785D01*
X018698Y025785D01*
X018623Y026246D02*
X018473Y026246D01*
X018473Y026471D01*
X018548Y026546D01*
X018623Y026546D01*
X018698Y026471D01*
X018698Y026321D01*
X018623Y026246D01*
X018473Y026246D02*
X018323Y026396D01*
X018248Y026546D01*
X011728Y012591D02*
X011278Y012591D01*
X011503Y012366D01*
X011503Y012666D01*
X011503Y012206D02*
X011353Y012206D01*
X011278Y012131D01*
X011278Y011905D01*
X011728Y011905D01*
X011578Y011905D02*
X011578Y012131D01*
X011503Y012206D01*
X011578Y012056D02*
X011728Y012206D01*
X010228Y012206D02*
X010078Y012056D01*
X010078Y012131D02*
X010078Y011905D01*
X010228Y011905D02*
X009778Y011905D01*
X009778Y012131D01*
X009853Y012206D01*
X010003Y012206D01*
X010078Y012131D01*
X010153Y012366D02*
X010228Y012441D01*
X010228Y012591D01*
X010153Y012666D01*
X010078Y012666D01*
X010003Y012591D01*
X010003Y012516D01*
X010003Y012591D02*
X009928Y012666D01*
X009853Y012666D01*
X009778Y012591D01*
X009778Y012441D01*
X009853Y012366D01*
X005728Y010441D02*
X005278Y010441D01*
X005503Y010216D01*
X005503Y010516D01*
X005503Y010056D02*
X005353Y010056D01*
X005278Y009981D01*
X005278Y009755D01*
X005728Y009755D01*
X005578Y009755D02*
X005578Y009981D01*
X005503Y010056D01*
X005278Y009595D02*
X005278Y009445D01*
X005278Y009520D02*
X005653Y009520D01*
X005728Y009445D01*
X005728Y009370D01*
X005653Y009295D01*
X003218Y005787D02*
X003218Y005487D01*
X003218Y005637D02*
X002768Y005637D01*
X002918Y005487D01*
X003218Y005326D02*
X003218Y005026D01*
X002768Y005026D01*
X002768Y015776D02*
X003218Y015776D01*
X003218Y016076D01*
X003218Y016237D02*
X002918Y016537D01*
X002843Y016537D01*
X002768Y016462D01*
X002768Y016312D01*
X002843Y016237D01*
X003218Y016237D02*
X003218Y016537D01*
D19*
X003953Y013651D03*
X003953Y012651D03*
X003953Y011651D03*
X003953Y003151D03*
X003953Y002151D03*
X003953Y022651D03*
X003953Y023651D03*
X003953Y024651D03*
D20*
X010003Y002926D03*
D21*
X012753Y003021D02*
X013003Y003021D01*
X013253Y003021D01*
X013253Y003271D02*
X013003Y003271D01*
X012753Y003271D01*
X014253Y003271D02*
X014503Y003271D01*
X014753Y003271D01*
X014753Y003021D02*
X014503Y003021D01*
X014253Y003021D01*
X015753Y003021D02*
X016003Y003021D01*
X016253Y003021D01*
X016253Y003271D02*
X016003Y003271D01*
X015753Y003271D01*
X018253Y003271D02*
X018503Y003271D01*
X018753Y003271D01*
X018753Y003021D02*
X018503Y003021D01*
X018253Y003021D01*
X016253Y006521D02*
X016003Y006521D01*
X015753Y006521D01*
X015753Y006771D02*
X016003Y006771D01*
X016253Y006771D01*
X014753Y006771D02*
X014503Y006771D01*
X014253Y006771D01*
X014253Y006521D02*
X014503Y006521D01*
X014753Y006521D01*
X007633Y008901D02*
X007633Y009151D01*
X007633Y009401D01*
X007383Y009401D02*
X007383Y009151D01*
X007383Y008901D01*
X007383Y013901D02*
X007383Y014151D01*
X007383Y014401D01*
X007633Y014401D02*
X007633Y014151D01*
X007633Y013901D01*
X006753Y018021D02*
X006503Y018021D01*
X006253Y018021D01*
X006253Y018271D02*
X006503Y018271D01*
X006753Y018271D01*
X007383Y020901D02*
X007383Y021151D01*
X007383Y021401D01*
X007633Y021401D02*
X007633Y021151D01*
X007633Y020901D01*
X007633Y025901D02*
X007633Y026151D01*
X007633Y026401D01*
X007383Y026401D02*
X007383Y026151D01*
X007383Y025901D01*
D22*
X013753Y023651D02*
X013699Y023694D01*
X013647Y023740D01*
X013598Y023789D01*
X013551Y023841D01*
X013508Y023895D01*
X013467Y023951D01*
X013430Y024010D01*
X013396Y024070D01*
X013366Y024133D01*
X013339Y024196D01*
X013315Y024262D01*
X013295Y024328D01*
X013279Y024396D01*
X013267Y024464D01*
X013259Y024533D01*
X013254Y024602D01*
X013253Y024672D01*
X013256Y024741D01*
X013263Y024810D01*
X013274Y024878D01*
X013288Y024946D01*
X013307Y025013D01*
X013329Y025079D01*
X013354Y025144D01*
X013383Y025207D01*
X013416Y025268D01*
X013452Y025327D01*
X013491Y025384D01*
X013533Y025440D01*
X013578Y025492D01*
X013626Y025542D01*
X013677Y025589D01*
X013731Y025634D01*
X013786Y025675D01*
X013844Y025713D01*
X013904Y025748D01*
X013966Y025780D01*
X014029Y025808D01*
X014094Y025832D01*
X014160Y025853D01*
X014228Y025870D01*
X014296Y025884D01*
X014365Y025893D01*
X014434Y025899D01*
X014503Y025901D01*
X014572Y025899D01*
X014641Y025893D01*
X014710Y025884D01*
X014778Y025870D01*
X014846Y025853D01*
X014912Y025832D01*
X014977Y025808D01*
X015040Y025780D01*
X015102Y025748D01*
X015162Y025713D01*
X015220Y025675D01*
X015275Y025634D01*
X015329Y025589D01*
X015380Y025542D01*
X015428Y025492D01*
X015473Y025440D01*
X015515Y025384D01*
X015554Y025327D01*
X015590Y025268D01*
X015623Y025207D01*
X015652Y025144D01*
X015677Y025079D01*
X015699Y025013D01*
X015718Y024946D01*
X015732Y024878D01*
X015743Y024810D01*
X015750Y024741D01*
X015753Y024672D01*
X015752Y024602D01*
X015747Y024533D01*
X015739Y024464D01*
X015727Y024396D01*
X015711Y024328D01*
X015691Y024262D01*
X015667Y024196D01*
X015640Y024133D01*
X015610Y024070D01*
X015576Y024010D01*
X015539Y023951D01*
X015498Y023895D01*
X015455Y023841D01*
X015408Y023789D01*
X015359Y023740D01*
X015307Y023694D01*
X015253Y023651D01*
D23*
X011258Y015731D03*
X011358Y015621D03*
X011268Y015331D03*
X011048Y015211D03*
X011048Y015111D03*
X010718Y015111D03*
X010718Y015101D03*
X010718Y015091D03*
X010718Y015081D03*
X010718Y015071D03*
X010718Y015121D03*
X010718Y015131D03*
X010718Y015141D03*
X010718Y015151D03*
X010718Y015271D03*
X010718Y015281D03*
X010718Y015291D03*
X010718Y015301D03*
X010718Y015311D03*
X010718Y015321D03*
X010718Y015331D03*
X010718Y015341D03*
X010718Y015351D03*
X010488Y015351D03*
X010488Y015341D03*
X010488Y015331D03*
X010488Y015321D03*
X010488Y015311D03*
X010488Y015361D03*
X010488Y015371D03*
X010488Y015381D03*
X010488Y015391D03*
X010488Y015401D03*
X010488Y015201D03*
X010488Y015191D03*
X010488Y015181D03*
X010488Y015171D03*
X010488Y015161D03*
X010488Y015151D03*
X010488Y015141D03*
X010488Y015131D03*
X010488Y015121D03*
X010488Y015111D03*
X010418Y015131D03*
X010418Y015141D03*
X010378Y015171D03*
X010488Y015001D03*
X010488Y014991D03*
X010488Y014981D03*
X010488Y014971D03*
X010488Y014961D03*
X010488Y014951D03*
X010488Y014941D03*
X010488Y014931D03*
X010488Y014921D03*
X010488Y014911D03*
X010418Y014921D03*
X010568Y014691D03*
X010728Y014721D03*
X010718Y014871D03*
X010718Y014881D03*
X010718Y014891D03*
X010718Y014901D03*
X010718Y014911D03*
X010718Y014921D03*
X010718Y014931D03*
X010718Y014941D03*
X010718Y014951D03*
X010938Y014721D03*
X010988Y014661D03*
X010668Y014391D03*
X010148Y014711D03*
X010018Y015041D03*
X010008Y015251D03*
X010018Y015261D03*
X010108Y015541D03*
X010918Y015651D03*
X011018Y015581D03*
X011508Y015241D03*
X011508Y015061D03*
X011298Y014981D03*
D24*
X011518Y015081D03*
X011518Y015091D03*
X011518Y015211D03*
X011518Y015221D03*
X011238Y015371D03*
X011118Y015191D03*
X011038Y015231D03*
X011038Y015091D03*
X011038Y014911D03*
X010948Y014711D03*
X010858Y014731D03*
X010728Y014711D03*
X010728Y014701D03*
X010728Y014691D03*
X010728Y014681D03*
X010728Y014671D03*
X010728Y014661D03*
X010728Y014651D03*
X010528Y014631D03*
X010748Y014391D03*
X010158Y014681D03*
X010008Y015051D03*
X009998Y015061D03*
X009998Y015071D03*
X009998Y015231D03*
X010228Y015361D03*
X010118Y015571D03*
X010118Y015581D03*
X010378Y015161D03*
X010428Y015161D03*
X010428Y015171D03*
X010428Y015111D03*
X011278Y015721D03*
X011328Y015671D03*
X011338Y015661D03*
X011378Y014711D03*
X011378Y014701D03*
D25*
X011398Y014761D03*
X011398Y014771D03*
X011488Y015031D03*
X011498Y015041D03*
X011498Y015261D03*
X011218Y015381D03*
X011118Y015221D03*
X011058Y015191D03*
X011058Y015141D03*
X010928Y015211D03*
X010928Y015011D03*
X010708Y014981D03*
X010708Y015041D03*
X010708Y015181D03*
X010708Y015241D03*
X010708Y015381D03*
X010498Y015421D03*
X010498Y015281D03*
X010498Y015221D03*
X010378Y015181D03*
X010498Y015081D03*
X010498Y015021D03*
X010498Y014881D03*
X010708Y014841D03*
X010658Y014691D03*
X010838Y014391D03*
X010998Y014651D03*
X010938Y014731D03*
X010928Y015411D03*
X010938Y015601D03*
X010898Y015611D03*
X010848Y015621D03*
X010808Y015631D03*
X010638Y015621D03*
X010598Y015611D03*
X010558Y015601D03*
X010478Y015581D03*
X010678Y015921D03*
X010028Y015281D03*
X010028Y015021D03*
X010138Y014741D03*
X011368Y015591D03*
D26*
X011193Y015711D03*
X011473Y015291D03*
X011473Y015011D03*
X011403Y014811D03*
X011123Y015101D03*
X010693Y015001D03*
X010513Y015061D03*
X010393Y014931D03*
X010513Y014861D03*
X010643Y014671D03*
X010503Y014601D03*
X010633Y014401D03*
X010133Y014771D03*
X010223Y014981D03*
X010043Y015001D03*
X010513Y015261D03*
X010693Y015201D03*
X010693Y015401D03*
X010493Y015661D03*
D27*
X010598Y015661D03*
X010828Y015921D03*
X010898Y015661D03*
X010988Y015691D03*
X010998Y015561D03*
X011118Y015231D03*
X011068Y015171D03*
X011068Y015161D03*
X011068Y014921D03*
X011408Y014801D03*
X011478Y015281D03*
X011278Y015321D03*
X011378Y015561D03*
X010648Y014681D03*
X010748Y014401D03*
X010388Y015071D03*
X010378Y015201D03*
X010398Y015371D03*
X010098Y015481D03*
X010098Y015491D03*
X010038Y015291D03*
X010038Y015011D03*
D28*
X010058Y014991D03*
X010128Y014791D03*
X010128Y014781D03*
X010298Y014911D03*
X010388Y015061D03*
X010378Y015211D03*
X010258Y015381D03*
X010188Y015301D03*
X010048Y015301D03*
X010098Y015451D03*
X010098Y015461D03*
X010098Y015471D03*
X010278Y015671D03*
X010498Y015561D03*
X010748Y015641D03*
X010998Y015701D03*
X011378Y015551D03*
X011378Y015541D03*
X011118Y015241D03*
X011128Y015091D03*
X011248Y014921D03*
X011318Y015001D03*
X011408Y014831D03*
X011408Y014821D03*
X011008Y014641D03*
X010858Y014861D03*
X010858Y015061D03*
X010858Y015261D03*
X010308Y014591D03*
X010878Y014401D03*
X010638Y015911D03*
D29*
X010753Y015891D03*
X010913Y015401D03*
X010913Y015201D03*
X010913Y015001D03*
X011123Y015081D03*
X011113Y015251D03*
X011203Y015391D03*
X011283Y015311D03*
X011463Y015301D03*
X011383Y015521D03*
X011383Y015531D03*
X011463Y015001D03*
X010843Y014711D03*
X010683Y014741D03*
X010633Y014661D03*
X010603Y014411D03*
X010683Y015011D03*
X010383Y015041D03*
X010383Y015051D03*
X010213Y014991D03*
X010123Y014801D03*
D30*
X010128Y014811D03*
X010068Y014981D03*
X010178Y015291D03*
X010058Y015311D03*
X010098Y015431D03*
X010098Y015441D03*
X010378Y015361D03*
X010378Y015221D03*
X010528Y015251D03*
X010678Y015211D03*
X010678Y015411D03*
X010618Y015671D03*
X010478Y015671D03*
X010878Y015671D03*
X010868Y015911D03*
X011088Y015371D03*
X011388Y015511D03*
X011408Y014851D03*
X011408Y014841D03*
X011218Y014631D03*
X011018Y014631D03*
X010748Y014411D03*
X010528Y014851D03*
X010528Y015051D03*
X010378Y015031D03*
D31*
X010373Y015021D03*
X010373Y015011D03*
X010373Y014941D03*
X010123Y014831D03*
X010123Y014821D03*
X010373Y015231D03*
X010073Y015321D03*
X010613Y015901D03*
X011013Y015711D03*
X010973Y015551D03*
X010903Y015391D03*
X010863Y015271D03*
X010903Y015191D03*
X010903Y014991D03*
X010863Y014871D03*
X010853Y014701D03*
X010633Y014621D03*
X010623Y014631D03*
X010623Y014641D03*
X010623Y014651D03*
X010493Y014591D03*
X010583Y014421D03*
X010903Y014411D03*
X011093Y014931D03*
X011123Y015071D03*
X011113Y015261D03*
X011323Y015011D03*
X011453Y014991D03*
X011413Y014861D03*
X011453Y015311D03*
X011383Y015501D03*
D32*
X011388Y015491D03*
X011388Y015481D03*
X011298Y015301D03*
X011438Y014981D03*
X011408Y014881D03*
X011408Y014871D03*
X011228Y014911D03*
X010868Y015071D03*
X010368Y015001D03*
X010368Y014991D03*
X010368Y015241D03*
X010368Y015251D03*
X010098Y015411D03*
X010098Y015421D03*
X010078Y014971D03*
X010638Y014611D03*
X010748Y014421D03*
X010748Y015881D03*
X010898Y015901D03*
D33*
X010593Y015891D03*
X010643Y015681D03*
X010523Y015551D03*
X010663Y015421D03*
X010663Y015221D03*
X010543Y015241D03*
X010363Y015261D03*
X010173Y015281D03*
X010083Y015331D03*
X010103Y015401D03*
X010203Y015001D03*
X010323Y014901D03*
X010363Y014981D03*
X010543Y015041D03*
X010663Y015021D03*
X010873Y015081D03*
X010903Y014981D03*
X010873Y014881D03*
X010863Y014691D03*
X010663Y014751D03*
X010873Y015281D03*
X010903Y015181D03*
X010903Y015381D03*
X011113Y015271D03*
X011123Y015061D03*
X011443Y015321D03*
X010923Y014421D03*
X010563Y014431D03*
X010123Y014841D03*
X010123Y014851D03*
D34*
X010128Y014861D03*
X010358Y014961D03*
X010358Y014971D03*
X010548Y014841D03*
X010478Y014581D03*
X010748Y014431D03*
X010858Y014641D03*
X010868Y014651D03*
X010868Y014661D03*
X010868Y014671D03*
X010868Y014681D03*
X011038Y014621D03*
X010878Y014891D03*
X010898Y014971D03*
X010878Y015091D03*
X010898Y015171D03*
X010878Y015291D03*
X010898Y015371D03*
X011108Y015361D03*
X011108Y015281D03*
X011428Y015331D03*
X011388Y015461D03*
X011388Y015471D03*
X011188Y015701D03*
X010918Y015891D03*
X010748Y015871D03*
X010568Y015881D03*
X010278Y015391D03*
X010358Y015351D03*
X010358Y015271D03*
X010098Y015391D03*
X011328Y015021D03*
X011428Y014971D03*
X011408Y014901D03*
X011408Y014891D03*
D35*
X011403Y014911D03*
X011113Y014941D03*
X011123Y015051D03*
X011113Y015291D03*
X011173Y015401D03*
X011303Y015291D03*
X011393Y015451D03*
X011023Y015721D03*
X010853Y015681D03*
X010893Y015361D03*
X010893Y015351D03*
X010883Y015321D03*
X010883Y015311D03*
X010883Y015301D03*
X010893Y015161D03*
X010893Y015151D03*
X010883Y015121D03*
X010883Y015111D03*
X010883Y015101D03*
X010893Y014961D03*
X010893Y014951D03*
X010883Y014921D03*
X010883Y014911D03*
X010883Y014901D03*
X010853Y014631D03*
X010853Y014621D03*
X010843Y014611D03*
X010943Y014431D03*
X010553Y014441D03*
X010313Y014601D03*
X010123Y014871D03*
X010123Y014881D03*
X010093Y014961D03*
X010193Y015011D03*
X010353Y014951D03*
X010353Y015281D03*
X010353Y015291D03*
X010103Y015371D03*
X010103Y015381D03*
X010093Y015341D03*
X010463Y015681D03*
D36*
X010288Y015661D03*
X010558Y015871D03*
X010748Y015861D03*
X010938Y015881D03*
X010888Y015341D03*
X010888Y015331D03*
X010888Y015141D03*
X010888Y015131D03*
X010888Y014941D03*
X010888Y014931D03*
X011118Y015301D03*
X011118Y015311D03*
X011388Y015431D03*
X011388Y015441D03*
X011338Y015031D03*
X011418Y014961D03*
X011408Y014921D03*
X010748Y014441D03*
X010108Y014951D03*
X010168Y015271D03*
X010108Y015361D03*
X010348Y015301D03*
D37*
X010343Y015311D03*
X010343Y015321D03*
X010163Y015261D03*
X010103Y015351D03*
X010193Y015021D03*
X010123Y014901D03*
X010123Y014891D03*
X010533Y014451D03*
X010963Y014441D03*
X011213Y014641D03*
X011403Y014931D03*
X011403Y014941D03*
X011123Y015031D03*
X011123Y015041D03*
X011123Y015321D03*
X011123Y015331D03*
X011313Y015281D03*
X011413Y015341D03*
X010943Y015541D03*
D38*
X011128Y015351D03*
X011128Y015341D03*
X011388Y015411D03*
X011388Y015421D03*
X011178Y015691D03*
X010958Y015871D03*
X010748Y015851D03*
X010538Y015861D03*
X010548Y015541D03*
X010338Y015341D03*
X010338Y015331D03*
X010338Y014891D03*
X010338Y014881D03*
X010128Y014911D03*
X010458Y014571D03*
X010518Y014461D03*
X010748Y014451D03*
X010978Y014451D03*
X010638Y014761D03*
X011128Y015021D03*
X011338Y015041D03*
D39*
X011338Y015051D03*
X011138Y014991D03*
X011058Y014611D03*
X010988Y014461D03*
X010748Y014461D03*
X010328Y014831D03*
X010328Y014841D03*
X010328Y014851D03*
X010128Y014931D03*
X010188Y015031D03*
X010298Y015651D03*
X010438Y015691D03*
X010508Y015841D03*
X010748Y015831D03*
X011388Y015391D03*
D40*
X011383Y015401D03*
X011403Y015351D03*
X011313Y015271D03*
X011133Y015011D03*
X011133Y015001D03*
X011133Y014951D03*
X011203Y014901D03*
X011403Y014951D03*
X011043Y015731D03*
X010973Y015861D03*
X010753Y015841D03*
X010523Y015851D03*
X010303Y015401D03*
X010163Y015251D03*
X010123Y014941D03*
X010123Y014921D03*
X010333Y014871D03*
X010333Y014861D03*
X010323Y014611D03*
X010503Y014471D03*
D41*
X010493Y014481D03*
X010483Y014491D03*
X010753Y014471D03*
X011003Y014471D03*
X011203Y014651D03*
X011143Y014971D03*
X011143Y014981D03*
X011343Y015061D03*
X011383Y015371D03*
X011383Y015381D03*
X011183Y015491D03*
X011183Y015501D03*
X011183Y015511D03*
X011173Y015481D03*
X011173Y015681D03*
X010983Y015851D03*
X010183Y015041D03*
X010323Y014821D03*
X010323Y014811D03*
X010323Y014801D03*
D42*
X010318Y014791D03*
X010318Y014781D03*
X010318Y014771D03*
X010158Y015241D03*
X010488Y015821D03*
X010498Y015831D03*
X010748Y015821D03*
X010998Y015841D03*
X010918Y015531D03*
X011148Y015421D03*
X011148Y015411D03*
X011188Y015521D03*
X011188Y015531D03*
X011188Y015541D03*
X011188Y015551D03*
X011388Y015361D03*
X011318Y015261D03*
X011148Y014961D03*
X011018Y014481D03*
X010748Y014481D03*
D43*
X010748Y014491D03*
X010748Y014501D03*
X011028Y014491D03*
X011038Y014501D03*
X010458Y014511D03*
X010318Y014671D03*
X010178Y015051D03*
X010158Y015231D03*
X010308Y015431D03*
X010308Y015441D03*
X010308Y015451D03*
X010288Y015501D03*
X010288Y015511D03*
X010748Y015801D03*
X011188Y015611D03*
X011158Y015471D03*
X011158Y015461D03*
D44*
X011153Y015451D03*
X011153Y015441D03*
X011153Y015431D03*
X011193Y015561D03*
X011193Y015571D03*
X011193Y015581D03*
X011193Y015591D03*
X011193Y015601D03*
X011013Y015831D03*
X010753Y015811D03*
X010573Y015531D03*
X010313Y015421D03*
X010313Y015411D03*
X010473Y015811D03*
X010313Y014761D03*
X010313Y014751D03*
X010313Y014741D03*
X010313Y014731D03*
X010313Y014721D03*
X010313Y014711D03*
X010313Y014701D03*
X010313Y014691D03*
X010313Y014681D03*
X010333Y014621D03*
X010473Y014501D03*
X011343Y015071D03*
X011323Y015251D03*
D45*
X011178Y015621D03*
X011048Y015801D03*
X010748Y015791D03*
X010748Y015781D03*
X010448Y015781D03*
X010158Y015211D03*
X010178Y015061D03*
X010338Y014631D03*
X010748Y014511D03*
X011048Y014511D03*
X011058Y014521D03*
D46*
X011193Y014661D03*
X011173Y014891D03*
X011343Y015081D03*
X011323Y015241D03*
X011163Y015671D03*
X011033Y015811D03*
X011023Y015821D03*
X010603Y015441D03*
X010603Y015431D03*
X010603Y015231D03*
X010603Y015031D03*
X010603Y014831D03*
X010603Y014821D03*
X010603Y014811D03*
X010603Y014801D03*
X010603Y014791D03*
X010603Y014781D03*
X010603Y014771D03*
X010443Y014531D03*
X010453Y014521D03*
X010153Y015221D03*
X010303Y015461D03*
X010303Y015471D03*
X010303Y015481D03*
X010293Y015491D03*
X010283Y015521D03*
X010283Y015531D03*
X010283Y015541D03*
X010283Y015551D03*
X010283Y015561D03*
X010283Y015571D03*
X010283Y015581D03*
X010283Y015591D03*
X010283Y015601D03*
X010293Y015611D03*
X010303Y015641D03*
X010453Y015791D03*
X010463Y015801D03*
D47*
X010433Y015771D03*
X010593Y015521D03*
X010893Y015521D03*
X011053Y015791D03*
X011323Y015231D03*
X011343Y015091D03*
X011173Y014881D03*
X011173Y014871D03*
X011173Y014861D03*
X010753Y014521D03*
X010433Y014541D03*
X010423Y014551D03*
X010173Y015071D03*
D48*
X010158Y015201D03*
X010308Y015621D03*
X010318Y015631D03*
X010418Y015751D03*
X010428Y015761D03*
X010618Y015451D03*
X010748Y015761D03*
X010748Y015771D03*
X011068Y015781D03*
X011158Y015661D03*
X011328Y015221D03*
X011178Y014851D03*
X011178Y014841D03*
X011078Y014541D03*
X011068Y014531D03*
X010748Y014531D03*
X010748Y014541D03*
X010418Y014561D03*
X010348Y014641D03*
D49*
X010748Y014561D03*
X010748Y014551D03*
X011098Y014561D03*
X011188Y014701D03*
X011188Y014771D03*
X011188Y014781D03*
X011188Y014791D03*
X011188Y014801D03*
X011328Y015211D03*
X011148Y015651D03*
X010748Y015741D03*
X010748Y015751D03*
X010408Y015741D03*
X010398Y015731D03*
X010158Y015191D03*
D50*
X010173Y015081D03*
X011083Y014551D03*
X011183Y014671D03*
X011183Y014811D03*
X011183Y014821D03*
X011183Y014831D03*
X011343Y015101D03*
X011343Y015111D03*
X011083Y015761D03*
X011073Y015771D03*
D51*
X011093Y015751D03*
X011153Y015631D03*
X010753Y015731D03*
X010393Y015721D03*
X010163Y015181D03*
X010173Y015091D03*
X010353Y014651D03*
X010753Y014571D03*
X011103Y014571D03*
X011183Y014691D03*
X011193Y014711D03*
X011193Y014721D03*
X011193Y014731D03*
X011193Y014741D03*
X011193Y014751D03*
X011193Y014761D03*
X011343Y015121D03*
D52*
X011338Y015131D03*
X011328Y015191D03*
X011328Y015201D03*
X011138Y015641D03*
X011098Y015741D03*
X010748Y015721D03*
X010748Y015711D03*
X010388Y015711D03*
X010378Y015701D03*
X010168Y015171D03*
X010178Y015101D03*
X010358Y014661D03*
X010748Y014581D03*
X011108Y014581D03*
X011118Y014591D03*
X011178Y014681D03*
D53*
X011123Y014601D03*
X010753Y014591D03*
X010173Y015111D03*
X010163Y015161D03*
X010643Y015461D03*
X011333Y015141D03*
D54*
X011328Y015151D03*
X011328Y015181D03*
X010748Y015691D03*
X010748Y015701D03*
X010168Y015151D03*
X010178Y015121D03*
X010748Y014601D03*
D55*
X010703Y014731D03*
X010573Y014711D03*
X010573Y014701D03*
X010513Y014611D03*
X010503Y014871D03*
X010503Y015071D03*
X010383Y015081D03*
X010373Y015191D03*
X010503Y015271D03*
X010703Y015191D03*
X010703Y014991D03*
X010843Y014721D03*
X010933Y014741D03*
X011123Y015111D03*
X011063Y015151D03*
X011063Y015181D03*
X011063Y015381D03*
X010983Y015591D03*
X010703Y015391D03*
X010513Y015591D03*
X010503Y015651D03*
X010753Y015901D03*
X011373Y015581D03*
X011373Y015571D03*
X011493Y015271D03*
X011483Y015021D03*
X011313Y014991D03*
X011403Y014791D03*
X011403Y014781D03*
X010133Y014761D03*
X010133Y014751D03*
X010193Y015311D03*
X010103Y015501D03*
X010103Y015511D03*
D56*
X010113Y015551D03*
X010113Y015561D03*
X010213Y015691D03*
X010203Y015321D03*
X010003Y015241D03*
X010383Y015101D03*
X010423Y015121D03*
X010423Y015151D03*
X010423Y015381D03*
X010513Y015641D03*
X010573Y015651D03*
X010973Y015671D03*
X011023Y015571D03*
X011043Y015221D03*
X011123Y015201D03*
X011123Y015131D03*
X011043Y015101D03*
X010953Y014751D03*
X011293Y014611D03*
X011383Y014721D03*
X011393Y014731D03*
X011393Y014741D03*
X011513Y015071D03*
X011513Y015231D03*
X011353Y015631D03*
X011343Y015641D03*
X011343Y015651D03*
X010553Y014721D03*
X010563Y014681D03*
X010483Y014701D03*
X010483Y014711D03*
X010483Y014721D03*
X010483Y014731D03*
X010483Y014741D03*
X010483Y014751D03*
X010483Y014761D03*
X010153Y014701D03*
X010153Y014691D03*
D57*
X010143Y014721D03*
X010143Y014731D03*
X010283Y014921D03*
X010233Y014971D03*
X010383Y015091D03*
X010493Y015091D03*
X010493Y015101D03*
X010493Y015011D03*
X010493Y014901D03*
X010493Y014891D03*
X010713Y014861D03*
X010713Y014851D03*
X010713Y014961D03*
X010713Y014971D03*
X010713Y015051D03*
X010713Y015061D03*
X010713Y015161D03*
X010713Y015171D03*
X010713Y015251D03*
X010713Y015261D03*
X010713Y015361D03*
X010713Y015371D03*
X010843Y015251D03*
X010843Y015051D03*
X010843Y014851D03*
X011053Y015121D03*
X011053Y015131D03*
X011053Y015201D03*
X011123Y015211D03*
X011123Y015121D03*
X011263Y014931D03*
X011393Y014751D03*
X011503Y015051D03*
X011503Y015251D03*
X011363Y015601D03*
X011363Y015611D03*
X010983Y015681D03*
X010683Y015631D03*
X010473Y015571D03*
X010493Y015411D03*
X010493Y015301D03*
X010493Y015291D03*
X010493Y015211D03*
X010243Y015371D03*
X010103Y015521D03*
X010103Y015531D03*
X010023Y015271D03*
X010023Y015031D03*
X010523Y014621D03*
D58*
X010523Y014671D03*
X010553Y014671D03*
X010643Y014701D03*
X010733Y014641D03*
X010973Y014671D03*
X011273Y014941D03*
X011293Y014971D03*
X011123Y015141D03*
X011033Y015081D03*
X011033Y015241D03*
X011253Y015341D03*
X011323Y015681D03*
X011313Y015691D03*
X011523Y015201D03*
X011523Y015191D03*
X011523Y015111D03*
X011523Y015101D03*
X011373Y014691D03*
X011313Y014621D03*
X010743Y015651D03*
X010433Y015181D03*
X010433Y015101D03*
X010383Y015111D03*
X010243Y014961D03*
X010263Y014931D03*
X010163Y014671D03*
X009993Y015081D03*
X009993Y015221D03*
X010123Y015591D03*
D59*
X010173Y015141D03*
X010183Y015131D03*
X011323Y015161D03*
X011323Y015171D03*
D60*
X010663Y015471D03*
D61*
X010688Y015481D03*
D62*
X010708Y015491D03*
D63*
X010728Y015501D03*
D64*
X010748Y015511D03*
D65*
X004253Y015671D03*
X004253Y020631D03*
X004253Y009881D03*
X004253Y004921D03*
M02*
