G75*
G70*
%OFA0B0*%
%FSLAX24Y24*%
%IPPOS*%
%LPD*%
%AMOC8*
5,1,8,0,0,1.08239X$1,22.5*
%
%ADD10C,0.0000*%
%ADD11R,0.0217X0.0472*%
%ADD12R,0.0098X0.0315*%
%ADD13R,0.0197X0.0098*%
D10*
X003255Y000151D02*
X003255Y019651D01*
X022755Y019651D01*
X022755Y000151D01*
X003255Y000151D01*
X021125Y012651D02*
X021127Y012701D01*
X021133Y012751D01*
X021143Y012800D01*
X021157Y012848D01*
X021174Y012895D01*
X021195Y012940D01*
X021220Y012984D01*
X021248Y013025D01*
X021280Y013064D01*
X021314Y013101D01*
X021351Y013135D01*
X021391Y013165D01*
X021433Y013192D01*
X021477Y013216D01*
X021523Y013237D01*
X021570Y013253D01*
X021618Y013266D01*
X021668Y013275D01*
X021717Y013280D01*
X021768Y013281D01*
X021818Y013278D01*
X021867Y013271D01*
X021916Y013260D01*
X021964Y013245D01*
X022010Y013227D01*
X022055Y013205D01*
X022098Y013179D01*
X022139Y013150D01*
X022178Y013118D01*
X022214Y013083D01*
X022246Y013045D01*
X022276Y013005D01*
X022303Y012962D01*
X022326Y012918D01*
X022345Y012872D01*
X022361Y012824D01*
X022373Y012775D01*
X022381Y012726D01*
X022385Y012676D01*
X022385Y012626D01*
X022381Y012576D01*
X022373Y012527D01*
X022361Y012478D01*
X022345Y012430D01*
X022326Y012384D01*
X022303Y012340D01*
X022276Y012297D01*
X022246Y012257D01*
X022214Y012219D01*
X022178Y012184D01*
X022139Y012152D01*
X022098Y012123D01*
X022055Y012097D01*
X022010Y012075D01*
X021964Y012057D01*
X021916Y012042D01*
X021867Y012031D01*
X021818Y012024D01*
X021768Y012021D01*
X021717Y012022D01*
X021668Y012027D01*
X021618Y012036D01*
X021570Y012049D01*
X021523Y012065D01*
X021477Y012086D01*
X021433Y012110D01*
X021391Y012137D01*
X021351Y012167D01*
X021314Y012201D01*
X021280Y012238D01*
X021248Y012277D01*
X021220Y012318D01*
X021195Y012362D01*
X021174Y012407D01*
X021157Y012454D01*
X021143Y012502D01*
X021133Y012551D01*
X021127Y012601D01*
X021125Y012651D01*
X017805Y017251D02*
X017807Y017279D01*
X017813Y017306D01*
X017822Y017332D01*
X017835Y017357D01*
X017852Y017380D01*
X017871Y017400D01*
X017893Y017417D01*
X017917Y017431D01*
X017943Y017441D01*
X017970Y017448D01*
X017998Y017451D01*
X018026Y017450D01*
X018053Y017445D01*
X018080Y017436D01*
X018105Y017424D01*
X018128Y017409D01*
X018149Y017390D01*
X018167Y017369D01*
X018182Y017345D01*
X018193Y017319D01*
X018201Y017293D01*
X018205Y017265D01*
X018205Y017237D01*
X018201Y017209D01*
X018193Y017183D01*
X018182Y017157D01*
X018167Y017133D01*
X018149Y017112D01*
X018128Y017093D01*
X018105Y017078D01*
X018080Y017066D01*
X018053Y017057D01*
X018026Y017052D01*
X017998Y017051D01*
X017970Y017054D01*
X017943Y017061D01*
X017917Y017071D01*
X017893Y017085D01*
X017871Y017102D01*
X017852Y017122D01*
X017835Y017145D01*
X017822Y017170D01*
X017813Y017196D01*
X017807Y017223D01*
X017805Y017251D01*
X017805Y018051D02*
X017807Y018079D01*
X017813Y018106D01*
X017822Y018132D01*
X017835Y018157D01*
X017852Y018180D01*
X017871Y018200D01*
X017893Y018217D01*
X017917Y018231D01*
X017943Y018241D01*
X017970Y018248D01*
X017998Y018251D01*
X018026Y018250D01*
X018053Y018245D01*
X018080Y018236D01*
X018105Y018224D01*
X018128Y018209D01*
X018149Y018190D01*
X018167Y018169D01*
X018182Y018145D01*
X018193Y018119D01*
X018201Y018093D01*
X018205Y018065D01*
X018205Y018037D01*
X018201Y018009D01*
X018193Y017983D01*
X018182Y017957D01*
X018167Y017933D01*
X018149Y017912D01*
X018128Y017893D01*
X018105Y017878D01*
X018080Y017866D01*
X018053Y017857D01*
X018026Y017852D01*
X017998Y017851D01*
X017970Y017854D01*
X017943Y017861D01*
X017917Y017871D01*
X017893Y017885D01*
X017871Y017902D01*
X017852Y017922D01*
X017835Y017945D01*
X017822Y017970D01*
X017813Y017996D01*
X017807Y018023D01*
X017805Y018051D01*
X014805Y017651D02*
X014807Y017679D01*
X014813Y017706D01*
X014822Y017732D01*
X014835Y017757D01*
X014852Y017780D01*
X014871Y017800D01*
X014893Y017817D01*
X014917Y017831D01*
X014943Y017841D01*
X014970Y017848D01*
X014998Y017851D01*
X015026Y017850D01*
X015053Y017845D01*
X015080Y017836D01*
X015105Y017824D01*
X015128Y017809D01*
X015149Y017790D01*
X015167Y017769D01*
X015182Y017745D01*
X015193Y017719D01*
X015201Y017693D01*
X015205Y017665D01*
X015205Y017637D01*
X015201Y017609D01*
X015193Y017583D01*
X015182Y017557D01*
X015167Y017533D01*
X015149Y017512D01*
X015128Y017493D01*
X015105Y017478D01*
X015080Y017466D01*
X015053Y017457D01*
X015026Y017452D01*
X014998Y017451D01*
X014970Y017454D01*
X014943Y017461D01*
X014917Y017471D01*
X014893Y017485D01*
X014871Y017502D01*
X014852Y017522D01*
X014835Y017545D01*
X014822Y017570D01*
X014813Y017596D01*
X014807Y017623D01*
X014805Y017651D01*
D11*
X011879Y005663D03*
X011131Y005663D03*
X011131Y004639D03*
X011505Y004639D03*
X011879Y004639D03*
D12*
X020362Y004443D03*
X020559Y004443D03*
X020755Y004443D03*
X020952Y004443D03*
X021149Y004443D03*
X021149Y003360D03*
X020952Y003360D03*
X020755Y003360D03*
X020559Y003360D03*
X020362Y003360D03*
D13*
X020165Y003901D03*
X021346Y003901D03*
M02*
