G75*
G70*
%OFA0B0*%
%FSLAX24Y24*%
%IPPOS*%
%LPD*%
%AMOC8*
5,1,8,0,0,1.08239X$1,22.5*
%
%ADD10C,0.0000*%
%ADD11C,0.1300*%
%ADD12C,0.0640*%
%ADD13C,0.1040*%
%ADD14OC8,0.1040*%
%ADD15OC8,0.0560*%
%ADD16C,0.0560*%
%ADD17C,0.0560*%
%ADD18OC8,0.0640*%
%ADD19C,0.0440*%
D10*
X003003Y000151D02*
X003003Y027651D01*
X020003Y027651D01*
X019996Y000151D01*
X003003Y000151D01*
X009873Y008651D02*
X009875Y008701D01*
X009881Y008751D01*
X009891Y008800D01*
X009905Y008848D01*
X009922Y008895D01*
X009943Y008940D01*
X009968Y008984D01*
X009996Y009025D01*
X010028Y009064D01*
X010062Y009101D01*
X010099Y009135D01*
X010139Y009165D01*
X010181Y009192D01*
X010225Y009216D01*
X010271Y009237D01*
X010318Y009253D01*
X010366Y009266D01*
X010416Y009275D01*
X010465Y009280D01*
X010516Y009281D01*
X010566Y009278D01*
X010615Y009271D01*
X010664Y009260D01*
X010712Y009245D01*
X010758Y009227D01*
X010803Y009205D01*
X010846Y009179D01*
X010887Y009150D01*
X010926Y009118D01*
X010962Y009083D01*
X010994Y009045D01*
X011024Y009005D01*
X011051Y008962D01*
X011074Y008918D01*
X011093Y008872D01*
X011109Y008824D01*
X011121Y008775D01*
X011129Y008726D01*
X011133Y008676D01*
X011133Y008626D01*
X011129Y008576D01*
X011121Y008527D01*
X011109Y008478D01*
X011093Y008430D01*
X011074Y008384D01*
X011051Y008340D01*
X011024Y008297D01*
X010994Y008257D01*
X010962Y008219D01*
X010926Y008184D01*
X010887Y008152D01*
X010846Y008123D01*
X010803Y008097D01*
X010758Y008075D01*
X010712Y008057D01*
X010664Y008042D01*
X010615Y008031D01*
X010566Y008024D01*
X010516Y008021D01*
X010465Y008022D01*
X010416Y008027D01*
X010366Y008036D01*
X010318Y008049D01*
X010271Y008065D01*
X010225Y008086D01*
X010181Y008110D01*
X010139Y008137D01*
X010099Y008167D01*
X010062Y008201D01*
X010028Y008238D01*
X009996Y008277D01*
X009968Y008318D01*
X009943Y008362D01*
X009922Y008407D01*
X009905Y008454D01*
X009891Y008502D01*
X009881Y008551D01*
X009875Y008601D01*
X009873Y008651D01*
X016903Y017151D02*
X016905Y017179D01*
X016911Y017206D01*
X016920Y017232D01*
X016933Y017257D01*
X016950Y017280D01*
X016969Y017300D01*
X016991Y017317D01*
X017015Y017331D01*
X017041Y017341D01*
X017068Y017348D01*
X017096Y017351D01*
X017124Y017350D01*
X017151Y017345D01*
X017178Y017336D01*
X017203Y017324D01*
X017226Y017309D01*
X017247Y017290D01*
X017265Y017269D01*
X017280Y017245D01*
X017291Y017219D01*
X017299Y017193D01*
X017303Y017165D01*
X017303Y017137D01*
X017299Y017109D01*
X017291Y017083D01*
X017280Y017057D01*
X017265Y017033D01*
X017247Y017012D01*
X017226Y016993D01*
X017203Y016978D01*
X017178Y016966D01*
X017151Y016957D01*
X017124Y016952D01*
X017096Y016951D01*
X017068Y016954D01*
X017041Y016961D01*
X017015Y016971D01*
X016991Y016985D01*
X016969Y017002D01*
X016950Y017022D01*
X016933Y017045D01*
X016920Y017070D01*
X016911Y017096D01*
X016905Y017123D01*
X016903Y017151D01*
X017703Y017151D02*
X017705Y017179D01*
X017711Y017206D01*
X017720Y017232D01*
X017733Y017257D01*
X017750Y017280D01*
X017769Y017300D01*
X017791Y017317D01*
X017815Y017331D01*
X017841Y017341D01*
X017868Y017348D01*
X017896Y017351D01*
X017924Y017350D01*
X017951Y017345D01*
X017978Y017336D01*
X018003Y017324D01*
X018026Y017309D01*
X018047Y017290D01*
X018065Y017269D01*
X018080Y017245D01*
X018091Y017219D01*
X018099Y017193D01*
X018103Y017165D01*
X018103Y017137D01*
X018099Y017109D01*
X018091Y017083D01*
X018080Y017057D01*
X018065Y017033D01*
X018047Y017012D01*
X018026Y016993D01*
X018003Y016978D01*
X017978Y016966D01*
X017951Y016957D01*
X017924Y016952D01*
X017896Y016951D01*
X017868Y016954D01*
X017841Y016961D01*
X017815Y016971D01*
X017791Y016985D01*
X017769Y017002D01*
X017750Y017022D01*
X017733Y017045D01*
X017720Y017070D01*
X017711Y017096D01*
X017705Y017123D01*
X017703Y017151D01*
X017303Y020151D02*
X017305Y020179D01*
X017311Y020206D01*
X017320Y020232D01*
X017333Y020257D01*
X017350Y020280D01*
X017369Y020300D01*
X017391Y020317D01*
X017415Y020331D01*
X017441Y020341D01*
X017468Y020348D01*
X017496Y020351D01*
X017524Y020350D01*
X017551Y020345D01*
X017578Y020336D01*
X017603Y020324D01*
X017626Y020309D01*
X017647Y020290D01*
X017665Y020269D01*
X017680Y020245D01*
X017691Y020219D01*
X017699Y020193D01*
X017703Y020165D01*
X017703Y020137D01*
X017699Y020109D01*
X017691Y020083D01*
X017680Y020057D01*
X017665Y020033D01*
X017647Y020012D01*
X017626Y019993D01*
X017603Y019978D01*
X017578Y019966D01*
X017551Y019957D01*
X017524Y019952D01*
X017496Y019951D01*
X017468Y019954D01*
X017441Y019961D01*
X017415Y019971D01*
X017391Y019985D01*
X017369Y020002D01*
X017350Y020022D01*
X017333Y020045D01*
X017320Y020070D01*
X017311Y020096D01*
X017305Y020123D01*
X017303Y020151D01*
X017623Y022901D02*
X017625Y022951D01*
X017631Y023001D01*
X017641Y023050D01*
X017655Y023098D01*
X017672Y023145D01*
X017693Y023190D01*
X017718Y023234D01*
X017746Y023275D01*
X017778Y023314D01*
X017812Y023351D01*
X017849Y023385D01*
X017889Y023415D01*
X017931Y023442D01*
X017975Y023466D01*
X018021Y023487D01*
X018068Y023503D01*
X018116Y023516D01*
X018166Y023525D01*
X018215Y023530D01*
X018266Y023531D01*
X018316Y023528D01*
X018365Y023521D01*
X018414Y023510D01*
X018462Y023495D01*
X018508Y023477D01*
X018553Y023455D01*
X018596Y023429D01*
X018637Y023400D01*
X018676Y023368D01*
X018712Y023333D01*
X018744Y023295D01*
X018774Y023255D01*
X018801Y023212D01*
X018824Y023168D01*
X018843Y023122D01*
X018859Y023074D01*
X018871Y023025D01*
X018879Y022976D01*
X018883Y022926D01*
X018883Y022876D01*
X018879Y022826D01*
X018871Y022777D01*
X018859Y022728D01*
X018843Y022680D01*
X018824Y022634D01*
X018801Y022590D01*
X018774Y022547D01*
X018744Y022507D01*
X018712Y022469D01*
X018676Y022434D01*
X018637Y022402D01*
X018596Y022373D01*
X018553Y022347D01*
X018508Y022325D01*
X018462Y022307D01*
X018414Y022292D01*
X018365Y022281D01*
X018316Y022274D01*
X018266Y022271D01*
X018215Y022272D01*
X018166Y022277D01*
X018116Y022286D01*
X018068Y022299D01*
X018021Y022315D01*
X017975Y022336D01*
X017931Y022360D01*
X017889Y022387D01*
X017849Y022417D01*
X017812Y022451D01*
X017778Y022488D01*
X017746Y022527D01*
X017718Y022568D01*
X017693Y022612D01*
X017672Y022657D01*
X017655Y022704D01*
X017641Y022752D01*
X017631Y022801D01*
X017625Y022851D01*
X017623Y022901D01*
D11*
X018253Y022901D03*
X010503Y008651D03*
D12*
X006803Y005651D02*
X006203Y005651D01*
X006203Y004651D02*
X006803Y004651D01*
X004803Y003151D02*
X004203Y003151D01*
X004203Y002151D02*
X004803Y002151D01*
X004803Y011651D02*
X004203Y011651D01*
X004203Y012651D02*
X004803Y012651D01*
X004803Y013651D02*
X004203Y013651D01*
X004203Y022651D02*
X004803Y022651D01*
X004803Y023651D02*
X004203Y023651D01*
X004203Y024651D02*
X004803Y024651D01*
X014003Y014951D02*
X014003Y014351D01*
X015003Y014351D02*
X015003Y014951D01*
X016003Y014951D02*
X016003Y014351D01*
X017003Y014351D02*
X017003Y014951D01*
X018003Y014951D02*
X018003Y014351D01*
X018203Y012651D02*
X018803Y012651D01*
X018803Y011651D02*
X018203Y011651D01*
X018203Y010651D02*
X018803Y010651D01*
X018803Y009651D02*
X018203Y009651D01*
X018203Y008651D02*
X018803Y008651D01*
X017803Y024151D02*
X017203Y024151D01*
X017203Y025151D02*
X017803Y025151D01*
X017803Y026151D02*
X017203Y026151D01*
D13*
X010003Y004151D03*
D14*
X010003Y002151D03*
D15*
X013003Y002151D03*
X014503Y002151D03*
X014503Y004151D03*
X014503Y005651D03*
X014503Y007651D03*
X013003Y009651D03*
X013003Y011151D03*
X013003Y012651D03*
X011503Y013651D03*
X010003Y013651D03*
X008503Y014151D03*
X008003Y012151D03*
X008003Y011151D03*
X008753Y011651D03*
X010003Y009651D03*
X008503Y009151D03*
X006503Y009151D03*
X008503Y006251D03*
X011003Y006251D03*
X013003Y004151D03*
X016003Y004151D03*
X016003Y005651D03*
X016003Y007651D03*
X017003Y009651D03*
X017003Y011151D03*
X017003Y012651D03*
X011503Y009651D03*
X006503Y014151D03*
X006503Y017151D03*
X006503Y019151D03*
X006503Y021151D03*
X008003Y023151D03*
X008003Y024151D03*
X008753Y023651D03*
X010003Y025651D03*
X008503Y026151D03*
X006503Y026151D03*
X010003Y021651D03*
X008503Y021151D03*
X011503Y021651D03*
X012503Y021401D03*
X012503Y022901D03*
X014503Y024151D03*
X014503Y025151D03*
X016503Y022901D03*
X016503Y021401D03*
X011503Y025651D03*
X018503Y004151D03*
X018503Y002151D03*
X016003Y002151D03*
D16*
X011003Y007051D03*
X008503Y007051D03*
D17*
X008503Y016391D02*
X008503Y016911D01*
X009503Y016911D02*
X009503Y016391D01*
X010503Y016391D02*
X010503Y016911D01*
X011503Y016911D02*
X011503Y016391D01*
X011503Y019391D02*
X011503Y019911D01*
X010503Y019911D02*
X010503Y019391D01*
X009503Y019391D02*
X009503Y019911D01*
X008503Y019911D02*
X008503Y019391D01*
D18*
X004253Y021151D03*
X004253Y015151D03*
X004253Y010401D03*
X004253Y004401D03*
X014003Y017651D03*
X014003Y018651D03*
X014003Y019651D03*
X015003Y019651D03*
X015003Y018651D03*
X015003Y017651D03*
D19*
X017103Y017151D03*
X017903Y017151D03*
X017503Y020151D03*
M02*
