G75*
G70*
%OFA0B0*%
%FSLAX24Y24*%
%IPPOS*%
%LPD*%
%AMOC8*
5,1,8,0,0,1.08239X$1,22.5*
%
%ADD10C,0.0000*%
%ADD11C,0.0600*%
%ADD12C,0.1000*%
%ADD13OC8,0.1000*%
%ADD14OC8,0.0520*%
%ADD15C,0.0520*%
%ADD16C,0.0520*%
%ADD17OC8,0.0600*%
%ADD18C,0.0200*%
%ADD19C,0.0100*%
%ADD20R,0.0356X0.0356*%
D10*
X003255Y000151D02*
X003255Y019651D01*
X022755Y019651D01*
X022755Y000151D01*
X003255Y000151D01*
X021125Y012651D02*
X021127Y012701D01*
X021133Y012751D01*
X021143Y012800D01*
X021157Y012848D01*
X021174Y012895D01*
X021195Y012940D01*
X021220Y012984D01*
X021248Y013025D01*
X021280Y013064D01*
X021314Y013101D01*
X021351Y013135D01*
X021391Y013165D01*
X021433Y013192D01*
X021477Y013216D01*
X021523Y013237D01*
X021570Y013253D01*
X021618Y013266D01*
X021668Y013275D01*
X021717Y013280D01*
X021768Y013281D01*
X021818Y013278D01*
X021867Y013271D01*
X021916Y013260D01*
X021964Y013245D01*
X022010Y013227D01*
X022055Y013205D01*
X022098Y013179D01*
X022139Y013150D01*
X022178Y013118D01*
X022214Y013083D01*
X022246Y013045D01*
X022276Y013005D01*
X022303Y012962D01*
X022326Y012918D01*
X022345Y012872D01*
X022361Y012824D01*
X022373Y012775D01*
X022381Y012726D01*
X022385Y012676D01*
X022385Y012626D01*
X022381Y012576D01*
X022373Y012527D01*
X022361Y012478D01*
X022345Y012430D01*
X022326Y012384D01*
X022303Y012340D01*
X022276Y012297D01*
X022246Y012257D01*
X022214Y012219D01*
X022178Y012184D01*
X022139Y012152D01*
X022098Y012123D01*
X022055Y012097D01*
X022010Y012075D01*
X021964Y012057D01*
X021916Y012042D01*
X021867Y012031D01*
X021818Y012024D01*
X021768Y012021D01*
X021717Y012022D01*
X021668Y012027D01*
X021618Y012036D01*
X021570Y012049D01*
X021523Y012065D01*
X021477Y012086D01*
X021433Y012110D01*
X021391Y012137D01*
X021351Y012167D01*
X021314Y012201D01*
X021280Y012238D01*
X021248Y012277D01*
X021220Y012318D01*
X021195Y012362D01*
X021174Y012407D01*
X021157Y012454D01*
X021143Y012502D01*
X021133Y012551D01*
X021127Y012601D01*
X021125Y012651D01*
X017805Y017251D02*
X017807Y017279D01*
X017813Y017306D01*
X017822Y017332D01*
X017835Y017357D01*
X017852Y017380D01*
X017871Y017400D01*
X017893Y017417D01*
X017917Y017431D01*
X017943Y017441D01*
X017970Y017448D01*
X017998Y017451D01*
X018026Y017450D01*
X018053Y017445D01*
X018080Y017436D01*
X018105Y017424D01*
X018128Y017409D01*
X018149Y017390D01*
X018167Y017369D01*
X018182Y017345D01*
X018193Y017319D01*
X018201Y017293D01*
X018205Y017265D01*
X018205Y017237D01*
X018201Y017209D01*
X018193Y017183D01*
X018182Y017157D01*
X018167Y017133D01*
X018149Y017112D01*
X018128Y017093D01*
X018105Y017078D01*
X018080Y017066D01*
X018053Y017057D01*
X018026Y017052D01*
X017998Y017051D01*
X017970Y017054D01*
X017943Y017061D01*
X017917Y017071D01*
X017893Y017085D01*
X017871Y017102D01*
X017852Y017122D01*
X017835Y017145D01*
X017822Y017170D01*
X017813Y017196D01*
X017807Y017223D01*
X017805Y017251D01*
X017805Y018051D02*
X017807Y018079D01*
X017813Y018106D01*
X017822Y018132D01*
X017835Y018157D01*
X017852Y018180D01*
X017871Y018200D01*
X017893Y018217D01*
X017917Y018231D01*
X017943Y018241D01*
X017970Y018248D01*
X017998Y018251D01*
X018026Y018250D01*
X018053Y018245D01*
X018080Y018236D01*
X018105Y018224D01*
X018128Y018209D01*
X018149Y018190D01*
X018167Y018169D01*
X018182Y018145D01*
X018193Y018119D01*
X018201Y018093D01*
X018205Y018065D01*
X018205Y018037D01*
X018201Y018009D01*
X018193Y017983D01*
X018182Y017957D01*
X018167Y017933D01*
X018149Y017912D01*
X018128Y017893D01*
X018105Y017878D01*
X018080Y017866D01*
X018053Y017857D01*
X018026Y017852D01*
X017998Y017851D01*
X017970Y017854D01*
X017943Y017861D01*
X017917Y017871D01*
X017893Y017885D01*
X017871Y017902D01*
X017852Y017922D01*
X017835Y017945D01*
X017822Y017970D01*
X017813Y017996D01*
X017807Y018023D01*
X017805Y018051D01*
X014805Y017651D02*
X014807Y017679D01*
X014813Y017706D01*
X014822Y017732D01*
X014835Y017757D01*
X014852Y017780D01*
X014871Y017800D01*
X014893Y017817D01*
X014917Y017831D01*
X014943Y017841D01*
X014970Y017848D01*
X014998Y017851D01*
X015026Y017850D01*
X015053Y017845D01*
X015080Y017836D01*
X015105Y017824D01*
X015128Y017809D01*
X015149Y017790D01*
X015167Y017769D01*
X015182Y017745D01*
X015193Y017719D01*
X015201Y017693D01*
X015205Y017665D01*
X015205Y017637D01*
X015201Y017609D01*
X015193Y017583D01*
X015182Y017557D01*
X015167Y017533D01*
X015149Y017512D01*
X015128Y017493D01*
X015105Y017478D01*
X015080Y017466D01*
X015053Y017457D01*
X015026Y017452D01*
X014998Y017451D01*
X014970Y017454D01*
X014943Y017461D01*
X014917Y017471D01*
X014893Y017485D01*
X014871Y017502D01*
X014852Y017522D01*
X014835Y017545D01*
X014822Y017570D01*
X014813Y017596D01*
X014807Y017623D01*
X014805Y017651D01*
D11*
X021455Y017651D02*
X022055Y017651D01*
X022055Y016651D02*
X021455Y016651D01*
X021455Y015651D02*
X022055Y015651D01*
X022055Y014651D02*
X021455Y014651D01*
X021305Y010901D02*
X020705Y010901D01*
X020705Y009901D02*
X021305Y009901D01*
X021305Y008901D02*
X020705Y008901D01*
X020705Y007901D02*
X021305Y007901D01*
X021305Y006901D02*
X020705Y006901D01*
X015555Y006651D02*
X014955Y006651D01*
X014955Y007651D02*
X015555Y007651D01*
X015555Y008651D02*
X014955Y008651D01*
X004805Y011651D02*
X004205Y011651D01*
X004205Y012651D02*
X004805Y012651D01*
X004805Y013651D02*
X004205Y013651D01*
X004205Y016901D02*
X004805Y016901D01*
X004805Y017901D02*
X004205Y017901D01*
X004205Y018901D02*
X004805Y018901D01*
X004805Y004901D02*
X004205Y004901D01*
X004205Y003901D02*
X004805Y003901D01*
X004805Y002151D02*
X004205Y002151D01*
X004205Y001151D02*
X004805Y001151D01*
X021455Y018651D02*
X022055Y018651D01*
D12*
X007505Y003651D03*
D13*
X007505Y001651D03*
D14*
X010755Y001401D03*
X012255Y001401D03*
X013755Y001401D03*
X015505Y000901D03*
X017005Y000901D03*
X018505Y000901D03*
X020005Y001651D03*
X022005Y001651D03*
X018505Y004901D03*
X017005Y004901D03*
X015505Y004901D03*
X013755Y003401D03*
X012255Y003401D03*
X010755Y003401D03*
X009255Y005751D03*
X007005Y005751D03*
X005255Y007401D03*
X004255Y007401D03*
X006505Y008151D03*
X010505Y008151D03*
X011755Y008901D03*
X011755Y009901D03*
X013255Y009901D03*
X013255Y008901D03*
X013255Y006901D03*
X011755Y006901D03*
X017505Y006651D03*
X017505Y008651D03*
X013255Y013901D03*
X013255Y015151D03*
X011755Y015151D03*
X011755Y013901D03*
X010505Y012651D03*
X009755Y012151D03*
X009755Y013151D03*
X008255Y013401D03*
X008255Y011901D03*
X006255Y011901D03*
X006255Y013401D03*
X006255Y017151D03*
X006255Y018651D03*
X008255Y018651D03*
X009755Y018151D03*
X010505Y017651D03*
X009755Y017151D03*
X008255Y017151D03*
X011755Y019151D03*
X013255Y019151D03*
D15*
X009255Y006551D03*
X007005Y006551D03*
D16*
X014745Y010401D02*
X015265Y010401D01*
X015265Y011401D02*
X014745Y011401D01*
X014745Y012401D02*
X015265Y012401D01*
X015265Y013401D02*
X014745Y013401D01*
X017745Y013401D02*
X018265Y013401D01*
X018265Y012401D02*
X017745Y012401D01*
X017745Y011401D02*
X018265Y011401D01*
X018265Y010401D02*
X017745Y010401D01*
D17*
X017255Y014901D03*
X016255Y014901D03*
X015255Y014901D03*
X015255Y015901D03*
X016255Y015901D03*
X017255Y015901D03*
X010255Y015401D03*
X010255Y010151D03*
X004255Y010151D03*
X004255Y015401D03*
D18*
X005505Y016151D02*
X008005Y016151D01*
X008255Y016401D01*
X008255Y017151D01*
X009755Y017151D01*
X008255Y017151D02*
X008255Y018651D01*
X005505Y016901D02*
X005505Y016151D01*
X005505Y011901D01*
X005255Y011651D01*
X004505Y011651D01*
X005255Y011651D02*
X005255Y011151D01*
X008005Y011151D01*
X008255Y011401D01*
X008255Y011901D01*
X008255Y012151D01*
X008255Y013401D01*
X008255Y012151D02*
X009755Y012151D01*
X010255Y010151D02*
X011005Y010151D01*
X011005Y015151D01*
X010755Y015401D01*
X010255Y015401D01*
X011005Y015151D02*
X011755Y015151D01*
X013255Y013901D02*
X013755Y013401D01*
X015005Y013401D01*
X015755Y013901D02*
X015755Y012651D01*
X015505Y012401D01*
X015005Y012401D01*
X013005Y012401D01*
X012505Y012901D01*
X012505Y018901D01*
X012755Y019151D01*
X013255Y019151D01*
X014755Y019151D01*
X015255Y018651D01*
X016005Y018651D01*
X017005Y018651D02*
X019505Y018651D01*
X019755Y018401D01*
X019755Y017651D01*
X020505Y018401D02*
X020505Y015901D01*
X019755Y015901D01*
X017255Y015901D01*
X017255Y014901D02*
X017255Y014151D01*
X017005Y013901D01*
X017005Y012901D01*
X018005Y012401D02*
X019505Y012401D01*
X019755Y012651D01*
X020255Y011901D02*
X019755Y011401D01*
X018005Y011401D01*
X018005Y010401D02*
X017505Y010401D01*
X017005Y009901D01*
X017005Y007901D01*
X017255Y007651D01*
X017755Y007651D01*
X018505Y006901D01*
X018505Y004901D01*
X017505Y005901D02*
X017505Y006651D01*
X016755Y006651D01*
X016255Y007151D01*
X016255Y010901D01*
X016255Y013901D01*
X015755Y014401D01*
X015755Y015651D01*
X015505Y015901D01*
X015255Y015901D01*
X015255Y014901D02*
X015255Y014401D01*
X015755Y013901D01*
X018005Y013401D02*
X019505Y013401D01*
X019755Y013651D01*
X019755Y015901D01*
X021005Y014651D02*
X020755Y014401D01*
X020755Y011901D01*
X021005Y011651D01*
X021005Y010901D01*
X016255Y010901D01*
X016255Y010401D02*
X015005Y010401D01*
X014005Y009401D02*
X014255Y009151D01*
X014255Y006901D01*
X014505Y006651D01*
X015255Y006651D01*
X014255Y005651D02*
X017255Y005651D01*
X017505Y005901D01*
X019505Y007151D02*
X019755Y006901D01*
X021005Y006901D01*
X019505Y007151D02*
X019505Y008651D01*
X020255Y008901D02*
X019755Y009401D01*
X017755Y009401D01*
X020255Y008901D02*
X021005Y008901D01*
X021005Y009901D02*
X021755Y009901D01*
X022005Y009651D01*
X022005Y001651D01*
X021255Y001651D01*
X020505Y002401D01*
X014755Y002401D01*
X013755Y001401D01*
X012255Y001401D01*
X010755Y001401D01*
X010505Y001651D01*
X007505Y001651D01*
X007005Y002151D01*
X004505Y002151D01*
X004505Y003901D01*
X004505Y004901D01*
X005355Y005751D01*
X005255Y005851D01*
X005255Y007401D01*
X005255Y011151D01*
X010505Y009151D02*
X010505Y008151D01*
X010505Y009151D02*
X010755Y009401D01*
X014005Y009401D01*
X013505Y008901D02*
X013755Y008651D01*
X013755Y006151D01*
X014255Y005651D01*
X013255Y006901D02*
X011755Y006901D01*
X010255Y006301D02*
X010005Y006551D01*
X009255Y006551D01*
X009255Y005751D02*
X007005Y005751D01*
X005355Y005751D01*
X010255Y006301D02*
X010255Y004151D01*
X010755Y003651D01*
X010755Y003401D01*
X012255Y003401D01*
X013255Y008901D02*
X013505Y008901D01*
X011755Y009901D02*
X011255Y009901D01*
X011005Y010151D01*
X005505Y016901D02*
X004505Y016901D01*
X020505Y018401D02*
X020755Y018651D01*
X021755Y018651D01*
X021755Y014651D02*
X021005Y014651D01*
D19*
X020891Y014834D02*
X017665Y014834D01*
X017665Y014736D02*
X020793Y014736D01*
X020694Y014637D02*
X017571Y014637D01*
X017665Y014731D02*
X017465Y014531D01*
X017465Y014238D01*
X017465Y014064D01*
X017215Y013814D01*
X017215Y013189D01*
X017229Y013189D01*
X017294Y013125D01*
X017294Y012677D01*
X017229Y012613D01*
X016782Y012613D01*
X016717Y012677D01*
X016717Y013125D01*
X016782Y013189D01*
X016795Y013189D01*
X016795Y013988D01*
X016918Y014111D01*
X017045Y014238D01*
X017045Y014531D01*
X016845Y014731D01*
X016845Y015071D01*
X017086Y015311D01*
X017425Y015311D01*
X017665Y015071D01*
X017665Y014731D01*
X017665Y014933D02*
X021157Y014933D01*
X021108Y014883D02*
X021099Y014861D01*
X021092Y014861D01*
X020918Y014861D01*
X020668Y014611D01*
X020545Y014488D01*
X020545Y011988D01*
X020545Y011814D01*
X020795Y011564D01*
X020795Y011311D01*
X020624Y011311D01*
X020473Y011249D01*
X020358Y011133D01*
X020349Y011111D01*
X018499Y011111D01*
X018579Y011191D01*
X019668Y011191D01*
X019842Y011191D01*
X020264Y011613D01*
X020479Y011613D01*
X020544Y011677D01*
X020544Y012125D01*
X020479Y012189D01*
X020032Y012189D01*
X019967Y012125D01*
X019967Y011910D01*
X019668Y011611D01*
X018579Y011611D01*
X018475Y011715D01*
X018339Y011771D01*
X017672Y011771D01*
X017536Y011715D01*
X017432Y011611D01*
X017375Y011475D01*
X017375Y011328D01*
X017432Y011192D01*
X017512Y011111D01*
X016465Y011111D01*
X016465Y013988D01*
X016342Y014111D01*
X015965Y014488D01*
X015965Y014611D01*
X016086Y014491D01*
X016425Y014491D01*
X016665Y014731D01*
X016665Y015071D01*
X016425Y015311D01*
X016086Y015311D01*
X015965Y015191D01*
X015965Y015611D01*
X016086Y015491D01*
X016425Y015491D01*
X016665Y015731D01*
X016665Y016071D01*
X016425Y016311D01*
X016086Y016311D01*
X015845Y016071D01*
X015845Y015858D01*
X015842Y015861D01*
X015665Y016038D01*
X015665Y016071D01*
X015425Y016311D01*
X015086Y016311D01*
X014845Y016071D01*
X014845Y015731D01*
X015086Y015491D01*
X015425Y015491D01*
X015522Y015588D01*
X015545Y015564D01*
X015545Y015191D01*
X015425Y015311D01*
X015086Y015311D01*
X014845Y015071D01*
X014845Y014731D01*
X015045Y014531D01*
X015045Y014488D01*
X015045Y014314D01*
X015545Y013814D01*
X015545Y013644D01*
X015475Y013715D01*
X015339Y013771D01*
X014672Y013771D01*
X014536Y013715D01*
X014432Y013611D01*
X013842Y013611D01*
X013625Y013828D01*
X013625Y014054D01*
X013409Y014271D01*
X013102Y014271D01*
X012885Y014054D01*
X012885Y013748D01*
X013102Y013531D01*
X013328Y013531D01*
X013668Y013191D01*
X013842Y013191D01*
X014432Y013191D01*
X014536Y013088D01*
X014672Y013031D01*
X015339Y013031D01*
X015475Y013088D01*
X015545Y013158D01*
X015545Y012738D01*
X015499Y012691D01*
X015475Y012715D01*
X015339Y012771D01*
X014672Y012771D01*
X014536Y012715D01*
X014432Y012611D01*
X013092Y012611D01*
X012715Y012988D01*
X012715Y018814D01*
X012842Y018941D01*
X012942Y018941D01*
X013102Y018781D01*
X013409Y018781D01*
X013569Y018941D01*
X014668Y018941D01*
X015168Y018441D01*
X015342Y018441D01*
X015717Y018441D01*
X015717Y018427D01*
X015782Y018363D01*
X016229Y018363D01*
X016294Y018427D01*
X016294Y018875D01*
X016229Y018939D01*
X015782Y018939D01*
X015717Y018875D01*
X015717Y018861D01*
X015342Y018861D01*
X014965Y019238D01*
X014842Y019361D01*
X013569Y019361D01*
X013429Y019501D01*
X022605Y019501D01*
X022605Y000301D01*
X003405Y000301D01*
X003405Y019501D01*
X011582Y019501D01*
X011385Y019304D01*
X011385Y018998D01*
X011602Y018781D01*
X011909Y018781D01*
X012125Y018998D01*
X012125Y019304D01*
X011929Y019501D01*
X013082Y019501D01*
X012942Y019361D01*
X012668Y019361D01*
X012545Y019238D01*
X012295Y018988D01*
X012295Y018814D01*
X012295Y012814D01*
X012418Y012691D01*
X012918Y012191D01*
X013092Y012191D01*
X014432Y012191D01*
X014536Y012088D01*
X014672Y012031D01*
X015339Y012031D01*
X015475Y012088D01*
X015579Y012191D01*
X015592Y012191D01*
X015715Y012314D01*
X015965Y012564D01*
X015965Y012738D01*
X015965Y013894D01*
X016045Y013814D01*
X016045Y010988D01*
X016045Y010611D01*
X015579Y010611D01*
X015475Y010715D01*
X015339Y010771D01*
X014672Y010771D01*
X014536Y010715D01*
X014432Y010611D01*
X014375Y010475D01*
X014375Y010328D01*
X014432Y010192D01*
X014536Y010088D01*
X014672Y010031D01*
X015339Y010031D01*
X015475Y010088D01*
X015579Y010191D01*
X016045Y010191D01*
X016045Y007238D01*
X016045Y007064D01*
X016668Y006441D01*
X016842Y006441D01*
X017192Y006441D01*
X017295Y006338D01*
X017295Y005988D01*
X017168Y005861D01*
X014342Y005861D01*
X013965Y006238D01*
X013965Y008738D01*
X013842Y008861D01*
X013592Y009111D01*
X013569Y009111D01*
X013489Y009191D01*
X013918Y009191D01*
X014045Y009064D01*
X014045Y006814D01*
X014168Y006691D01*
X014295Y006564D01*
X014418Y006441D01*
X014599Y006441D01*
X014608Y006419D01*
X014723Y006304D01*
X014874Y006241D01*
X015637Y006241D01*
X015788Y006304D01*
X015903Y006419D01*
X015965Y006570D01*
X015965Y006733D01*
X015903Y006883D01*
X015788Y006999D01*
X015637Y007061D01*
X014874Y007061D01*
X014723Y006999D01*
X014608Y006883D01*
X014599Y006861D01*
X014592Y006861D01*
X014465Y006988D01*
X014465Y009238D01*
X014342Y009361D01*
X014092Y009611D01*
X013918Y009611D01*
X013489Y009611D01*
X016045Y009611D01*
X016045Y009513D02*
X014191Y009513D01*
X014289Y009414D02*
X016045Y009414D01*
X016045Y009316D02*
X014388Y009316D01*
X014465Y009217D02*
X016045Y009217D01*
X016045Y009119D02*
X014465Y009119D01*
X014465Y009020D02*
X014775Y009020D01*
X014723Y008999D02*
X014608Y008883D01*
X014545Y008733D01*
X014545Y008570D01*
X014608Y008419D01*
X014723Y008304D01*
X014874Y008241D01*
X015637Y008241D01*
X015788Y008304D01*
X015903Y008419D01*
X015965Y008570D01*
X015965Y008733D01*
X015903Y008883D01*
X015788Y008999D01*
X015637Y009061D01*
X014874Y009061D01*
X014723Y008999D01*
X014646Y008922D02*
X014465Y008922D01*
X014465Y008823D02*
X014583Y008823D01*
X014545Y008724D02*
X014465Y008724D01*
X014465Y008626D02*
X014545Y008626D01*
X014563Y008527D02*
X014465Y008527D01*
X014465Y008429D02*
X014604Y008429D01*
X014696Y008330D02*
X014465Y008330D01*
X014465Y008232D02*
X016045Y008232D01*
X016045Y008330D02*
X015814Y008330D01*
X015907Y008429D02*
X016045Y008429D01*
X016045Y008527D02*
X015948Y008527D01*
X015965Y008626D02*
X016045Y008626D01*
X016045Y008724D02*
X015965Y008724D01*
X015928Y008823D02*
X016045Y008823D01*
X016045Y008922D02*
X015865Y008922D01*
X015736Y009020D02*
X016045Y009020D01*
X016465Y009020D02*
X016795Y009020D01*
X016795Y008922D02*
X016465Y008922D01*
X016465Y008823D02*
X016795Y008823D01*
X016795Y008724D02*
X016465Y008724D01*
X016465Y008626D02*
X016795Y008626D01*
X016795Y008527D02*
X016465Y008527D01*
X016465Y008429D02*
X016795Y008429D01*
X016795Y008330D02*
X016465Y008330D01*
X016465Y008232D02*
X016795Y008232D01*
X016795Y008133D02*
X016465Y008133D01*
X016465Y008035D02*
X016795Y008035D01*
X016795Y007936D02*
X016465Y007936D01*
X016465Y007838D02*
X016795Y007838D01*
X016795Y007814D02*
X016918Y007691D01*
X017168Y007441D01*
X017342Y007441D01*
X017668Y007441D01*
X018295Y006814D01*
X018295Y005214D01*
X018135Y005054D01*
X018135Y004748D01*
X018352Y004531D01*
X018659Y004531D01*
X018875Y004748D01*
X018875Y005054D01*
X018715Y005214D01*
X018715Y006814D01*
X018715Y006988D01*
X017965Y007738D01*
X017842Y007861D01*
X017342Y007861D01*
X017215Y007988D01*
X017215Y008361D01*
X017336Y008241D01*
X017475Y008241D01*
X017475Y008621D01*
X017535Y008621D01*
X017535Y008241D01*
X017675Y008241D01*
X017915Y008481D01*
X017915Y008621D01*
X017536Y008621D01*
X017536Y008681D01*
X017915Y008681D01*
X017915Y008821D01*
X017675Y009061D01*
X017535Y009061D01*
X017535Y008681D01*
X017475Y008681D01*
X017475Y009061D01*
X017336Y009061D01*
X017215Y008941D01*
X017215Y009814D01*
X017512Y010111D01*
X017536Y010088D01*
X017672Y010031D01*
X018339Y010031D01*
X018475Y010088D01*
X018579Y010192D01*
X018635Y010328D01*
X018635Y010475D01*
X018579Y010611D01*
X018499Y010691D01*
X020349Y010691D01*
X020358Y010669D01*
X020473Y010554D01*
X020624Y010491D01*
X021387Y010491D01*
X021538Y010554D01*
X021653Y010669D01*
X021715Y010820D01*
X021715Y010983D01*
X021653Y011133D01*
X021538Y011249D01*
X021387Y011311D01*
X021215Y011311D01*
X021215Y011738D01*
X021092Y011861D01*
X020965Y011988D01*
X020965Y014314D01*
X021092Y014441D01*
X021099Y014441D01*
X021108Y014419D01*
X021223Y014304D01*
X021374Y014241D01*
X022137Y014241D01*
X022288Y014304D01*
X022403Y014419D01*
X022465Y014570D01*
X022465Y014733D01*
X022403Y014883D01*
X022288Y014999D01*
X022137Y015061D01*
X021374Y015061D01*
X021223Y014999D01*
X021108Y014883D01*
X021302Y015031D02*
X017665Y015031D01*
X017607Y015130D02*
X022605Y015130D01*
X022605Y015228D02*
X017508Y015228D01*
X017442Y015451D02*
X017305Y015451D01*
X017305Y015851D01*
X017205Y015851D01*
X016805Y015851D01*
X016805Y015715D01*
X017069Y015451D01*
X017205Y015451D01*
X017205Y015851D01*
X017205Y015951D01*
X016805Y015951D01*
X016805Y016088D01*
X017069Y016351D01*
X017205Y016351D01*
X017205Y015951D01*
X017305Y015951D01*
X017305Y016351D01*
X017442Y016351D01*
X017705Y016088D01*
X017705Y015951D01*
X017306Y015951D01*
X017306Y015851D01*
X017705Y015851D01*
X017705Y015715D01*
X017442Y015451D01*
X017515Y015524D02*
X021064Y015524D01*
X021045Y015570D02*
X021108Y015419D01*
X021223Y015304D01*
X021374Y015241D01*
X022137Y015241D01*
X022288Y015304D01*
X022403Y015419D01*
X022465Y015570D01*
X022465Y015733D01*
X022403Y015883D01*
X022288Y015999D01*
X022137Y016061D01*
X021374Y016061D01*
X021223Y015999D01*
X021108Y015883D01*
X021045Y015733D01*
X021045Y015570D01*
X021045Y015622D02*
X017613Y015622D01*
X017705Y015721D02*
X021045Y015721D01*
X021081Y015820D02*
X017705Y015820D01*
X017705Y016017D02*
X021266Y016017D01*
X021143Y015918D02*
X017306Y015918D01*
X017305Y015820D02*
X017205Y015820D01*
X017205Y015918D02*
X016665Y015918D01*
X016665Y015820D02*
X016805Y015820D01*
X016805Y015721D02*
X016655Y015721D01*
X016557Y015622D02*
X016898Y015622D01*
X016996Y015524D02*
X016458Y015524D01*
X016053Y015524D02*
X015965Y015524D01*
X015965Y015425D02*
X021105Y015425D01*
X021200Y015327D02*
X015965Y015327D01*
X015965Y015228D02*
X016003Y015228D01*
X015545Y015228D02*
X015508Y015228D01*
X015545Y015327D02*
X013603Y015327D01*
X013625Y015304D02*
X013409Y015521D01*
X013102Y015521D01*
X012885Y015304D01*
X012885Y014998D01*
X013102Y014781D01*
X013409Y014781D01*
X013625Y014998D01*
X013625Y015304D01*
X013625Y015228D02*
X015003Y015228D01*
X014904Y015130D02*
X013625Y015130D01*
X013625Y015031D02*
X014845Y015031D01*
X014845Y014933D02*
X013560Y014933D01*
X013462Y014834D02*
X014845Y014834D01*
X014845Y014736D02*
X012715Y014736D01*
X012715Y014834D02*
X013049Y014834D01*
X012951Y014933D02*
X012715Y014933D01*
X012715Y015031D02*
X012885Y015031D01*
X012885Y015130D02*
X012715Y015130D01*
X012715Y015228D02*
X012885Y015228D01*
X012908Y015327D02*
X012715Y015327D01*
X012715Y015425D02*
X013006Y015425D01*
X012715Y015524D02*
X015053Y015524D01*
X014954Y015622D02*
X012715Y015622D01*
X012715Y015721D02*
X014856Y015721D01*
X014845Y015820D02*
X012715Y015820D01*
X012715Y015918D02*
X014845Y015918D01*
X014845Y016017D02*
X012715Y016017D01*
X012715Y016115D02*
X014890Y016115D01*
X014988Y016214D02*
X012715Y016214D01*
X012715Y016312D02*
X017030Y016312D01*
X016932Y016214D02*
X016523Y016214D01*
X016621Y016115D02*
X016833Y016115D01*
X016805Y016017D02*
X016665Y016017D01*
X017205Y016017D02*
X017305Y016017D01*
X017305Y016115D02*
X017205Y016115D01*
X017205Y016214D02*
X017305Y016214D01*
X017305Y016312D02*
X017205Y016312D01*
X017481Y016312D02*
X021214Y016312D01*
X021223Y016304D02*
X021374Y016241D01*
X022137Y016241D01*
X022288Y016304D01*
X022403Y016419D01*
X022465Y016570D01*
X022465Y016733D01*
X022403Y016883D01*
X022288Y016999D01*
X022137Y017061D01*
X021374Y017061D01*
X021223Y016999D01*
X021108Y016883D01*
X021045Y016733D01*
X021045Y016570D01*
X021108Y016419D01*
X021223Y016304D01*
X021116Y016411D02*
X012715Y016411D01*
X012715Y016509D02*
X021070Y016509D01*
X021045Y016608D02*
X012715Y016608D01*
X012715Y016706D02*
X021045Y016706D01*
X021075Y016805D02*
X012715Y016805D01*
X012715Y016904D02*
X017930Y016904D01*
X017936Y016901D02*
X018075Y016901D01*
X018204Y016954D01*
X018302Y017053D01*
X018355Y017182D01*
X018355Y017321D01*
X018302Y017449D01*
X018204Y017548D01*
X018075Y017601D01*
X017936Y017601D01*
X017807Y017548D01*
X017709Y017449D01*
X017655Y017321D01*
X017655Y017182D01*
X017709Y017053D01*
X017807Y016954D01*
X017936Y016901D01*
X018081Y016904D02*
X021128Y016904D01*
X021231Y017002D02*
X018251Y017002D01*
X018322Y017101D02*
X022605Y017101D01*
X022605Y017199D02*
X018355Y017199D01*
X018355Y017298D02*
X021237Y017298D01*
X021223Y017304D02*
X021374Y017241D01*
X022137Y017241D01*
X022288Y017304D01*
X022403Y017419D01*
X022465Y017570D01*
X022465Y017733D01*
X022403Y017883D01*
X022288Y017999D01*
X022137Y018061D01*
X021374Y018061D01*
X021223Y017999D01*
X021108Y017883D01*
X021045Y017733D01*
X021045Y017570D01*
X021108Y017419D01*
X021223Y017304D01*
X021131Y017396D02*
X020012Y017396D01*
X020044Y017427D02*
X019979Y017363D01*
X019532Y017363D01*
X019467Y017427D01*
X019467Y017875D01*
X019532Y017939D01*
X019545Y017939D01*
X019545Y018314D01*
X019418Y018441D01*
X017294Y018441D01*
X017294Y018427D01*
X017229Y018363D01*
X016782Y018363D01*
X016717Y018427D01*
X016717Y018875D01*
X016782Y018939D01*
X017229Y018939D01*
X017294Y018875D01*
X017294Y018861D01*
X019418Y018861D01*
X019592Y018861D01*
X019842Y018611D01*
X019965Y018488D01*
X019965Y017939D01*
X019979Y017939D01*
X020044Y017875D01*
X020044Y017427D01*
X020044Y017495D02*
X021076Y017495D01*
X021045Y017593D02*
X020044Y017593D01*
X020044Y017692D02*
X021045Y017692D01*
X021069Y017790D02*
X020044Y017790D01*
X020029Y017889D02*
X021113Y017889D01*
X021212Y017988D02*
X019965Y017988D01*
X019965Y018086D02*
X022605Y018086D01*
X022605Y017988D02*
X022299Y017988D01*
X022397Y017889D02*
X022605Y017889D01*
X022605Y017790D02*
X022441Y017790D01*
X022465Y017692D02*
X022605Y017692D01*
X022605Y017593D02*
X022465Y017593D01*
X022434Y017495D02*
X022605Y017495D01*
X022605Y017396D02*
X022380Y017396D01*
X022273Y017298D02*
X022605Y017298D01*
X022605Y017002D02*
X022280Y017002D01*
X022383Y016904D02*
X022605Y016904D01*
X022605Y016805D02*
X022435Y016805D01*
X022465Y016706D02*
X022605Y016706D01*
X022605Y016608D02*
X022465Y016608D01*
X022440Y016509D02*
X022605Y016509D01*
X022605Y016411D02*
X022395Y016411D01*
X022296Y016312D02*
X022605Y016312D01*
X022605Y016214D02*
X017579Y016214D01*
X017678Y016115D02*
X022605Y016115D01*
X022605Y016017D02*
X022244Y016017D01*
X022368Y015918D02*
X022605Y015918D01*
X022605Y015820D02*
X022429Y015820D01*
X022465Y015721D02*
X022605Y015721D01*
X022605Y015622D02*
X022465Y015622D01*
X022446Y015524D02*
X022605Y015524D01*
X022605Y015425D02*
X022406Y015425D01*
X022311Y015327D02*
X022605Y015327D01*
X022605Y015031D02*
X022209Y015031D01*
X022354Y014933D02*
X022605Y014933D01*
X022605Y014834D02*
X022423Y014834D01*
X022464Y014736D02*
X022605Y014736D01*
X022605Y014637D02*
X022465Y014637D01*
X022452Y014539D02*
X022605Y014539D01*
X022605Y014440D02*
X022412Y014440D01*
X022325Y014341D02*
X022605Y014341D01*
X022605Y014243D02*
X022141Y014243D01*
X022605Y014144D02*
X020965Y014144D01*
X020965Y014046D02*
X022605Y014046D01*
X022605Y013947D02*
X020965Y013947D01*
X020965Y013849D02*
X022605Y013849D01*
X022605Y013750D02*
X020965Y013750D01*
X020965Y013652D02*
X022605Y013652D01*
X022605Y013553D02*
X020965Y013553D01*
X020965Y013455D02*
X022605Y013455D01*
X022605Y013356D02*
X022092Y013356D01*
X022197Y013312D02*
X021911Y013431D01*
X021600Y013431D01*
X021314Y013312D01*
X021094Y013093D01*
X020976Y012806D01*
X020976Y012496D01*
X021094Y012209D01*
X021314Y011990D01*
X021600Y011871D01*
X021911Y011871D01*
X022197Y011990D01*
X022417Y012209D01*
X022535Y012496D01*
X022535Y012806D01*
X022417Y013093D01*
X022197Y013312D01*
X022252Y013257D02*
X022605Y013257D01*
X022605Y013159D02*
X022351Y013159D01*
X022430Y013060D02*
X022605Y013060D01*
X022605Y012962D02*
X022471Y012962D01*
X022512Y012863D02*
X022605Y012863D01*
X022605Y012765D02*
X022535Y012765D01*
X022535Y012666D02*
X022605Y012666D01*
X022605Y012568D02*
X022535Y012568D01*
X022524Y012469D02*
X022605Y012469D01*
X022605Y012371D02*
X022483Y012371D01*
X022443Y012272D02*
X022605Y012272D01*
X022605Y012173D02*
X022381Y012173D01*
X022282Y012075D02*
X022605Y012075D01*
X022605Y011976D02*
X022164Y011976D01*
X021926Y011878D02*
X022605Y011878D01*
X022605Y011779D02*
X021174Y011779D01*
X021215Y011681D02*
X022605Y011681D01*
X022605Y011582D02*
X021215Y011582D01*
X021215Y011484D02*
X022605Y011484D01*
X022605Y011385D02*
X021215Y011385D01*
X021446Y011287D02*
X022605Y011287D01*
X022605Y011188D02*
X021598Y011188D01*
X021671Y011089D02*
X022605Y011089D01*
X022605Y010991D02*
X021712Y010991D01*
X021715Y010892D02*
X022605Y010892D01*
X022605Y010794D02*
X021705Y010794D01*
X021664Y010695D02*
X022605Y010695D01*
X022605Y010597D02*
X021581Y010597D01*
X021404Y010498D02*
X022605Y010498D01*
X022605Y010400D02*
X018635Y010400D01*
X018626Y010498D02*
X020607Y010498D01*
X020600Y010340D02*
X020533Y010318D01*
X020470Y010286D01*
X020412Y010244D01*
X020362Y010194D01*
X020321Y010137D01*
X020288Y010074D01*
X020266Y010007D01*
X020258Y009951D01*
X020955Y009951D01*
X020955Y009851D01*
X020258Y009851D01*
X020266Y009796D01*
X020288Y009728D01*
X020321Y009665D01*
X020362Y009608D01*
X020412Y009558D01*
X020470Y009516D01*
X020533Y009484D01*
X020600Y009462D01*
X020670Y009451D01*
X020955Y009451D01*
X020955Y009851D01*
X021055Y009851D01*
X021055Y009451D01*
X021341Y009451D01*
X021411Y009462D01*
X021478Y009484D01*
X021541Y009516D01*
X021599Y009558D01*
X021649Y009608D01*
X021690Y009665D01*
X021722Y009728D01*
X021744Y009796D01*
X021753Y009851D01*
X021056Y009851D01*
X021056Y009951D01*
X021753Y009951D01*
X021744Y010007D01*
X021722Y010074D01*
X021690Y010137D01*
X021649Y010194D01*
X021599Y010244D01*
X021541Y010286D01*
X021478Y010318D01*
X021411Y010340D01*
X021341Y010351D01*
X021055Y010351D01*
X021055Y009951D01*
X020955Y009951D01*
X020955Y010351D01*
X020670Y010351D01*
X020600Y010340D01*
X020499Y010301D02*
X018624Y010301D01*
X018584Y010203D02*
X020370Y010203D01*
X020304Y010104D02*
X018492Y010104D01*
X018585Y010597D02*
X020430Y010597D01*
X020955Y010301D02*
X021055Y010301D01*
X021055Y010203D02*
X020955Y010203D01*
X020955Y010104D02*
X021055Y010104D01*
X021055Y010006D02*
X020955Y010006D01*
X020955Y009907D02*
X017308Y009907D01*
X017215Y009808D02*
X020264Y009808D01*
X020298Y009710D02*
X017215Y009710D01*
X017215Y009611D02*
X017467Y009611D01*
X017467Y009625D02*
X017467Y009177D01*
X017532Y009113D01*
X017979Y009113D01*
X018044Y009177D01*
X018044Y009191D01*
X019668Y009191D01*
X020045Y008814D01*
X020168Y008691D01*
X020349Y008691D01*
X020358Y008669D01*
X020473Y008554D01*
X020624Y008491D01*
X021387Y008491D01*
X021538Y008554D01*
X021653Y008669D01*
X021715Y008820D01*
X021715Y008983D01*
X021653Y009133D01*
X021538Y009249D01*
X021387Y009311D01*
X020624Y009311D01*
X020473Y009249D01*
X020358Y009133D01*
X020349Y009111D01*
X020342Y009111D01*
X019842Y009611D01*
X019668Y009611D01*
X018044Y009611D01*
X018044Y009625D01*
X017979Y009689D01*
X017532Y009689D01*
X017467Y009625D01*
X017467Y009513D02*
X017215Y009513D01*
X017215Y009414D02*
X017467Y009414D01*
X017467Y009316D02*
X017215Y009316D01*
X017215Y009217D02*
X017467Y009217D01*
X017526Y009119D02*
X017215Y009119D01*
X017215Y009020D02*
X017295Y009020D01*
X017475Y009020D02*
X017535Y009020D01*
X017535Y008922D02*
X017475Y008922D01*
X017475Y008823D02*
X017535Y008823D01*
X017535Y008724D02*
X017475Y008724D01*
X017536Y008626D02*
X019217Y008626D01*
X019217Y008724D02*
X017915Y008724D01*
X017913Y008823D02*
X019217Y008823D01*
X019217Y008875D02*
X019217Y008427D01*
X019282Y008363D01*
X019295Y008363D01*
X019295Y007238D01*
X019295Y007064D01*
X019545Y006814D01*
X019668Y006691D01*
X020349Y006691D01*
X020358Y006669D01*
X020473Y006554D01*
X020624Y006491D01*
X021387Y006491D01*
X021538Y006554D01*
X021653Y006669D01*
X021715Y006820D01*
X021715Y006983D01*
X021653Y007133D01*
X021538Y007249D01*
X021387Y007311D01*
X020624Y007311D01*
X020473Y007249D01*
X020358Y007133D01*
X020349Y007111D01*
X019842Y007111D01*
X019715Y007238D01*
X019715Y008363D01*
X019729Y008363D01*
X019794Y008427D01*
X019794Y008875D01*
X019729Y008939D01*
X019282Y008939D01*
X019217Y008875D01*
X019264Y008922D02*
X017815Y008922D01*
X017716Y009020D02*
X019840Y009020D01*
X019747Y008922D02*
X019938Y008922D01*
X020037Y008823D02*
X019794Y008823D01*
X019794Y008724D02*
X020135Y008724D01*
X020401Y008626D02*
X019794Y008626D01*
X019794Y008527D02*
X020536Y008527D01*
X020624Y008311D02*
X020473Y008249D01*
X020358Y008133D01*
X019715Y008133D01*
X019715Y008035D02*
X020317Y008035D01*
X020295Y007983D02*
X020295Y007820D01*
X020358Y007669D01*
X020473Y007554D01*
X020624Y007491D01*
X021387Y007491D01*
X021538Y007554D01*
X021653Y007669D01*
X021715Y007820D01*
X021715Y007983D01*
X021653Y008133D01*
X022605Y008133D01*
X022605Y008035D02*
X021694Y008035D01*
X021715Y007936D02*
X022605Y007936D01*
X022605Y007838D02*
X021715Y007838D01*
X021682Y007739D02*
X022605Y007739D01*
X022605Y007640D02*
X021625Y007640D01*
X021509Y007542D02*
X022605Y007542D01*
X022605Y007443D02*
X019715Y007443D01*
X019715Y007345D02*
X022605Y007345D01*
X022605Y007246D02*
X021540Y007246D01*
X021639Y007148D02*
X022605Y007148D01*
X022605Y007049D02*
X021688Y007049D01*
X021715Y006951D02*
X022605Y006951D01*
X022605Y006852D02*
X021715Y006852D01*
X021688Y006754D02*
X022605Y006754D01*
X022605Y006655D02*
X021639Y006655D01*
X021541Y006556D02*
X022605Y006556D01*
X022605Y006458D02*
X018715Y006458D01*
X018715Y006556D02*
X020470Y006556D01*
X020372Y006655D02*
X018715Y006655D01*
X018715Y006754D02*
X019606Y006754D01*
X019507Y006852D02*
X018715Y006852D01*
X018715Y006951D02*
X019409Y006951D01*
X019310Y007049D02*
X018654Y007049D01*
X018556Y007148D02*
X019295Y007148D01*
X019295Y007246D02*
X018457Y007246D01*
X018359Y007345D02*
X019295Y007345D01*
X019295Y007443D02*
X018260Y007443D01*
X018162Y007542D02*
X019295Y007542D01*
X019295Y007640D02*
X018063Y007640D01*
X017965Y007738D02*
X017965Y007738D01*
X017965Y007739D02*
X019295Y007739D01*
X019295Y007838D02*
X017866Y007838D01*
X017765Y007345D02*
X016465Y007345D01*
X016465Y007443D02*
X017166Y007443D01*
X017068Y007542D02*
X016465Y007542D01*
X016465Y007640D02*
X016969Y007640D01*
X016871Y007739D02*
X016465Y007739D01*
X016045Y007739D02*
X015963Y007739D01*
X015965Y007733D02*
X015903Y007883D01*
X015788Y007999D01*
X015637Y008061D01*
X014874Y008061D01*
X014723Y007999D01*
X014608Y007883D01*
X014545Y007733D01*
X014545Y007570D01*
X014608Y007419D01*
X014723Y007304D01*
X014874Y007241D01*
X015637Y007241D01*
X015788Y007304D01*
X015903Y007419D01*
X015965Y007570D01*
X015965Y007733D01*
X015965Y007640D02*
X016045Y007640D01*
X016045Y007542D02*
X015954Y007542D01*
X015913Y007443D02*
X016045Y007443D01*
X016045Y007345D02*
X015829Y007345D01*
X015649Y007246D02*
X016045Y007246D01*
X016045Y007148D02*
X014465Y007148D01*
X014465Y007246D02*
X014861Y007246D01*
X014845Y007049D02*
X014465Y007049D01*
X014503Y006951D02*
X014675Y006951D01*
X014682Y007345D02*
X014465Y007345D01*
X014465Y007443D02*
X014598Y007443D01*
X014557Y007542D02*
X014465Y007542D01*
X014465Y007640D02*
X014545Y007640D01*
X014548Y007739D02*
X014465Y007739D01*
X014465Y007838D02*
X014589Y007838D01*
X014661Y007936D02*
X014465Y007936D01*
X014465Y008035D02*
X014810Y008035D01*
X014465Y008133D02*
X016045Y008133D01*
X016045Y008035D02*
X015701Y008035D01*
X015850Y007936D02*
X016045Y007936D01*
X016045Y007838D02*
X015922Y007838D01*
X016465Y007246D02*
X017863Y007246D01*
X017962Y007148D02*
X016556Y007148D01*
X016465Y007238D02*
X016465Y010314D01*
X016465Y010488D01*
X016465Y010691D01*
X017512Y010691D01*
X017432Y010611D01*
X017418Y010611D01*
X017295Y010488D01*
X016795Y009988D01*
X016795Y009814D01*
X016795Y007814D01*
X017215Y008035D02*
X019295Y008035D01*
X019295Y008133D02*
X017215Y008133D01*
X017215Y008232D02*
X019295Y008232D01*
X019295Y008330D02*
X017764Y008330D01*
X017863Y008429D02*
X019217Y008429D01*
X019217Y008527D02*
X017915Y008527D01*
X017535Y008527D02*
X017475Y008527D01*
X017475Y008429D02*
X017535Y008429D01*
X017535Y008330D02*
X017475Y008330D01*
X017246Y008330D02*
X017215Y008330D01*
X017267Y007936D02*
X019295Y007936D01*
X019715Y007936D02*
X020295Y007936D01*
X020295Y007983D02*
X020358Y008133D01*
X020456Y008232D02*
X019715Y008232D01*
X019715Y008330D02*
X022605Y008330D01*
X022605Y008232D02*
X021555Y008232D01*
X021538Y008249D02*
X021387Y008311D01*
X020624Y008311D01*
X020295Y007838D02*
X019715Y007838D01*
X019715Y007739D02*
X020329Y007739D01*
X020386Y007640D02*
X019715Y007640D01*
X019715Y007542D02*
X020501Y007542D01*
X020471Y007246D02*
X019715Y007246D01*
X019806Y007148D02*
X020372Y007148D01*
X019794Y008429D02*
X022605Y008429D01*
X022605Y008527D02*
X021474Y008527D01*
X021610Y008626D02*
X022605Y008626D01*
X022605Y008724D02*
X021676Y008724D01*
X021715Y008823D02*
X022605Y008823D01*
X022605Y008922D02*
X021715Y008922D01*
X021700Y009020D02*
X022605Y009020D01*
X022605Y009119D02*
X021659Y009119D01*
X021569Y009217D02*
X022605Y009217D01*
X022605Y009316D02*
X020138Y009316D01*
X020039Y009414D02*
X022605Y009414D01*
X022605Y009513D02*
X021534Y009513D01*
X021651Y009611D02*
X022605Y009611D01*
X022605Y009710D02*
X021713Y009710D01*
X021746Y009808D02*
X022605Y009808D01*
X022605Y009907D02*
X021056Y009907D01*
X021055Y009808D02*
X020955Y009808D01*
X020955Y009710D02*
X021055Y009710D01*
X021055Y009611D02*
X020955Y009611D01*
X020955Y009513D02*
X021055Y009513D01*
X020476Y009513D02*
X019941Y009513D01*
X020360Y009611D02*
X018044Y009611D01*
X017985Y009119D02*
X019741Y009119D01*
X020236Y009217D02*
X020442Y009217D01*
X020352Y009119D02*
X020335Y009119D01*
X020266Y010006D02*
X017407Y010006D01*
X017505Y010104D02*
X017519Y010104D01*
X017207Y010400D02*
X016465Y010400D01*
X016465Y010498D02*
X017306Y010498D01*
X017404Y010597D02*
X016465Y010597D01*
X016465Y010301D02*
X017108Y010301D01*
X017010Y010203D02*
X016465Y010203D01*
X016465Y010104D02*
X016911Y010104D01*
X016813Y010006D02*
X016465Y010006D01*
X016465Y009907D02*
X016795Y009907D01*
X016795Y009808D02*
X016465Y009808D01*
X016465Y009710D02*
X016795Y009710D01*
X016795Y009611D02*
X016465Y009611D01*
X016465Y009513D02*
X016795Y009513D01*
X016795Y009414D02*
X016465Y009414D01*
X016465Y009316D02*
X016795Y009316D01*
X016795Y009217D02*
X016465Y009217D01*
X016465Y009119D02*
X016795Y009119D01*
X016045Y009710D02*
X013587Y009710D01*
X013625Y009748D02*
X013625Y010054D01*
X013409Y010271D01*
X013102Y010271D01*
X012885Y010054D01*
X012885Y009748D01*
X013022Y009611D01*
X011989Y009611D01*
X013022Y009611D01*
X012923Y009710D02*
X012087Y009710D01*
X012125Y009748D02*
X012125Y010054D01*
X011909Y010271D01*
X011602Y010271D01*
X011442Y010111D01*
X011342Y010111D01*
X011215Y010238D01*
X011215Y014941D01*
X011442Y014941D01*
X011602Y014781D01*
X011909Y014781D01*
X012125Y014998D01*
X012125Y015304D01*
X011909Y015521D01*
X011602Y015521D01*
X011442Y015361D01*
X011092Y015361D01*
X010842Y015611D01*
X010668Y015611D01*
X010625Y015611D01*
X010425Y015811D01*
X010086Y015811D01*
X009845Y015571D01*
X009845Y015231D01*
X010086Y014991D01*
X010425Y014991D01*
X010625Y015191D01*
X010668Y015191D01*
X010795Y015064D01*
X010795Y012884D01*
X010659Y013021D01*
X010352Y013021D01*
X010135Y012804D01*
X010135Y012498D01*
X010352Y012281D01*
X010659Y012281D01*
X010795Y012418D01*
X010795Y010361D01*
X010625Y010361D01*
X010425Y010561D01*
X010086Y010561D01*
X009845Y010321D01*
X009845Y009981D01*
X010086Y009741D01*
X010425Y009741D01*
X010625Y009941D01*
X010918Y009941D01*
X011168Y009691D01*
X011342Y009691D01*
X011442Y009691D01*
X011522Y009611D01*
X010668Y009611D01*
X010545Y009488D01*
X010295Y009238D01*
X010295Y009064D01*
X010295Y008464D01*
X010135Y008304D01*
X010135Y007998D01*
X010352Y007781D01*
X010659Y007781D01*
X010875Y007998D01*
X010875Y008304D01*
X010715Y008464D01*
X010715Y009064D01*
X010842Y009191D01*
X011522Y009191D01*
X011385Y009054D01*
X011385Y008748D01*
X011602Y008531D01*
X011909Y008531D01*
X012125Y008748D01*
X012125Y009054D01*
X011989Y009191D01*
X013022Y009191D01*
X012885Y009054D01*
X012885Y008748D01*
X013102Y008531D01*
X013409Y008531D01*
X013494Y008616D01*
X013545Y008564D01*
X013545Y007191D01*
X013425Y007311D01*
X013285Y007311D01*
X013285Y006931D01*
X013225Y006931D01*
X013225Y006871D01*
X012845Y006871D01*
X012845Y006731D01*
X013086Y006491D01*
X013225Y006491D01*
X013225Y006871D01*
X013285Y006871D01*
X013285Y006491D01*
X013425Y006491D01*
X013545Y006611D01*
X013545Y006238D01*
X013545Y006064D01*
X014168Y005441D01*
X014342Y005441D01*
X017168Y005441D01*
X017342Y005441D01*
X017592Y005691D01*
X017592Y005691D01*
X017715Y005814D01*
X017715Y006338D01*
X017875Y006498D01*
X017875Y006804D01*
X017659Y007021D01*
X017352Y007021D01*
X017192Y006861D01*
X016842Y006861D01*
X016465Y007238D01*
X016654Y007049D02*
X018060Y007049D01*
X018159Y006951D02*
X017729Y006951D01*
X017828Y006852D02*
X018257Y006852D01*
X018295Y006754D02*
X017875Y006754D01*
X017875Y006655D02*
X018295Y006655D01*
X018295Y006556D02*
X017875Y006556D01*
X017835Y006458D02*
X018295Y006458D01*
X018295Y006359D02*
X017737Y006359D01*
X017715Y006261D02*
X018295Y006261D01*
X018295Y006162D02*
X017715Y006162D01*
X017715Y006064D02*
X018295Y006064D01*
X018295Y005965D02*
X017715Y005965D01*
X017715Y005867D02*
X018295Y005867D01*
X018295Y005768D02*
X017669Y005768D01*
X017571Y005670D02*
X018295Y005670D01*
X018295Y005571D02*
X017472Y005571D01*
X017374Y005473D02*
X018295Y005473D01*
X018295Y005374D02*
X010465Y005374D01*
X010465Y005473D02*
X014137Y005473D01*
X014039Y005571D02*
X010465Y005571D01*
X010465Y005670D02*
X013940Y005670D01*
X013841Y005768D02*
X010465Y005768D01*
X010465Y005867D02*
X013743Y005867D01*
X013644Y005965D02*
X010465Y005965D01*
X010465Y006064D02*
X013546Y006064D01*
X013545Y006162D02*
X010465Y006162D01*
X010465Y006214D02*
X010465Y006388D01*
X010215Y006638D01*
X010092Y006761D01*
X009569Y006761D01*
X009465Y006865D01*
X009329Y006921D01*
X009182Y006921D01*
X009046Y006865D01*
X008942Y006761D01*
X008885Y006625D01*
X008885Y006478D01*
X008942Y006342D01*
X009046Y006238D01*
X009182Y006181D01*
X009329Y006181D01*
X009465Y006238D01*
X009569Y006341D01*
X009918Y006341D01*
X010045Y006214D01*
X010045Y004064D01*
X010168Y003941D01*
X010470Y003639D01*
X010385Y003554D01*
X010385Y003248D01*
X010602Y003031D01*
X010909Y003031D01*
X011069Y003191D01*
X011942Y003191D01*
X012102Y003031D01*
X012409Y003031D01*
X012625Y003248D01*
X012625Y003554D01*
X012409Y003771D01*
X012102Y003771D01*
X011942Y003611D01*
X011069Y003611D01*
X010965Y003714D01*
X010965Y003738D01*
X010465Y004238D01*
X010465Y006214D01*
X010465Y006261D02*
X013545Y006261D01*
X013545Y006359D02*
X010465Y006359D01*
X010396Y006458D02*
X013545Y006458D01*
X013545Y006556D02*
X013491Y006556D01*
X013285Y006556D02*
X013225Y006556D01*
X013225Y006655D02*
X013285Y006655D01*
X013285Y006754D02*
X013225Y006754D01*
X013225Y006852D02*
X013285Y006852D01*
X013285Y006951D02*
X013225Y006951D01*
X013225Y006931D02*
X013225Y007311D01*
X013086Y007311D01*
X012845Y007071D01*
X012845Y006931D01*
X013225Y006931D01*
X013225Y007049D02*
X013285Y007049D01*
X013285Y007148D02*
X013225Y007148D01*
X013225Y007246D02*
X013285Y007246D01*
X013490Y007246D02*
X013545Y007246D01*
X013545Y007345D02*
X005665Y007345D01*
X005665Y007371D02*
X005286Y007371D01*
X005286Y007431D01*
X005665Y007431D01*
X005665Y007571D01*
X005425Y007811D01*
X005285Y007811D01*
X005285Y007431D01*
X005225Y007431D01*
X005225Y007371D01*
X004845Y007371D01*
X004845Y007231D01*
X005086Y006991D01*
X005225Y006991D01*
X005225Y007371D01*
X005285Y007371D01*
X005285Y006991D01*
X005425Y006991D01*
X005665Y007231D01*
X005665Y007371D01*
X005665Y007443D02*
X013545Y007443D01*
X013545Y007542D02*
X005665Y007542D01*
X005596Y007640D02*
X013545Y007640D01*
X013545Y007739D02*
X005497Y007739D01*
X005285Y007739D02*
X005225Y007739D01*
X005225Y007811D02*
X005086Y007811D01*
X004845Y007571D01*
X004845Y007431D01*
X005225Y007431D01*
X005225Y007811D01*
X005225Y007640D02*
X005285Y007640D01*
X005285Y007542D02*
X005225Y007542D01*
X005225Y007443D02*
X005285Y007443D01*
X005285Y007345D02*
X005225Y007345D01*
X005225Y007246D02*
X005285Y007246D01*
X005285Y007148D02*
X005225Y007148D01*
X005225Y007049D02*
X005285Y007049D01*
X005483Y007049D02*
X011345Y007049D01*
X011345Y007071D02*
X011345Y006931D01*
X011725Y006931D01*
X011725Y006871D01*
X011345Y006871D01*
X011345Y006731D01*
X011586Y006491D01*
X011725Y006491D01*
X011725Y006871D01*
X011785Y006871D01*
X011785Y006491D01*
X011925Y006491D01*
X012165Y006731D01*
X012165Y006871D01*
X011786Y006871D01*
X011786Y006931D01*
X012165Y006931D01*
X012165Y007071D01*
X011925Y007311D01*
X011785Y007311D01*
X011785Y006931D01*
X011725Y006931D01*
X011725Y007311D01*
X011586Y007311D01*
X011345Y007071D01*
X011422Y007148D02*
X005582Y007148D01*
X005665Y007246D02*
X011521Y007246D01*
X011725Y007246D02*
X011785Y007246D01*
X011785Y007148D02*
X011725Y007148D01*
X011725Y007049D02*
X011785Y007049D01*
X011785Y006951D02*
X011725Y006951D01*
X011725Y006852D02*
X011785Y006852D01*
X011785Y006754D02*
X011725Y006754D01*
X011725Y006655D02*
X011785Y006655D01*
X011785Y006556D02*
X011725Y006556D01*
X011520Y006556D02*
X010297Y006556D01*
X010199Y006655D02*
X011422Y006655D01*
X011345Y006754D02*
X010100Y006754D01*
X009999Y006261D02*
X009488Y006261D01*
X009425Y006161D02*
X009285Y006161D01*
X009285Y005781D01*
X009225Y005781D01*
X009225Y005721D01*
X008845Y005721D01*
X008845Y005581D01*
X009086Y005341D01*
X009225Y005341D01*
X009225Y005721D01*
X009285Y005721D01*
X009285Y005341D01*
X009425Y005341D01*
X009665Y005581D01*
X009665Y005721D01*
X009286Y005721D01*
X009286Y005781D01*
X009665Y005781D01*
X009665Y005921D01*
X009425Y006161D01*
X009523Y006064D02*
X010045Y006064D01*
X010045Y006162D02*
X003405Y006162D01*
X003405Y006064D02*
X006738Y006064D01*
X006836Y006161D02*
X006595Y005921D01*
X006595Y005781D01*
X006975Y005781D01*
X006975Y005721D01*
X006595Y005721D01*
X006595Y005581D01*
X006836Y005341D01*
X006975Y005341D01*
X006975Y005721D01*
X007035Y005721D01*
X007035Y005341D01*
X007175Y005341D01*
X007415Y005581D01*
X007415Y005721D01*
X007036Y005721D01*
X007036Y005781D01*
X007415Y005781D01*
X007415Y005921D01*
X007175Y006161D01*
X007035Y006161D01*
X007035Y005781D01*
X006975Y005781D01*
X006975Y006161D01*
X006836Y006161D01*
X006796Y006238D02*
X006932Y006181D01*
X007079Y006181D01*
X007215Y006238D01*
X007319Y006342D01*
X007375Y006478D01*
X007375Y006625D01*
X007319Y006761D01*
X007215Y006865D01*
X007079Y006921D01*
X006932Y006921D01*
X006796Y006865D01*
X006692Y006761D01*
X006635Y006625D01*
X006635Y006478D01*
X006692Y006342D01*
X006796Y006238D01*
X006772Y006261D02*
X003405Y006261D01*
X003405Y006359D02*
X006684Y006359D01*
X006644Y006458D02*
X003405Y006458D01*
X003405Y006556D02*
X006635Y006556D01*
X006648Y006655D02*
X003405Y006655D01*
X003405Y006754D02*
X006689Y006754D01*
X006783Y006852D02*
X003405Y006852D01*
X003405Y006951D02*
X011345Y006951D01*
X011345Y006852D02*
X009478Y006852D01*
X009033Y006852D02*
X007228Y006852D01*
X007322Y006754D02*
X008939Y006754D01*
X008898Y006655D02*
X007363Y006655D01*
X007375Y006556D02*
X008885Y006556D01*
X008894Y006458D02*
X007367Y006458D01*
X007326Y006359D02*
X008934Y006359D01*
X009022Y006261D02*
X007238Y006261D01*
X007273Y006064D02*
X008988Y006064D01*
X009086Y006161D02*
X008845Y005921D01*
X008845Y005781D01*
X009225Y005781D01*
X009225Y006161D01*
X009086Y006161D01*
X009225Y006064D02*
X009285Y006064D01*
X009285Y005965D02*
X009225Y005965D01*
X009225Y005867D02*
X009285Y005867D01*
X009286Y005768D02*
X010045Y005768D01*
X010045Y005670D02*
X009665Y005670D01*
X009655Y005571D02*
X010045Y005571D01*
X010045Y005473D02*
X009557Y005473D01*
X009458Y005374D02*
X010045Y005374D01*
X010045Y005275D02*
X005056Y005275D01*
X005041Y005286D02*
X004978Y005318D01*
X004911Y005340D01*
X004841Y005351D01*
X004555Y005351D01*
X004555Y004951D01*
X004455Y004951D01*
X004455Y004851D01*
X003758Y004851D01*
X003766Y004796D01*
X003788Y004728D01*
X003821Y004665D01*
X003862Y004608D01*
X003912Y004558D01*
X003970Y004516D01*
X004033Y004484D01*
X004100Y004462D01*
X004170Y004451D01*
X004455Y004451D01*
X004455Y004851D01*
X004555Y004851D01*
X004555Y004451D01*
X004841Y004451D01*
X004911Y004462D01*
X004978Y004484D01*
X005041Y004516D01*
X005099Y004558D01*
X005149Y004608D01*
X005190Y004665D01*
X005222Y004728D01*
X005244Y004796D01*
X005253Y004851D01*
X004556Y004851D01*
X004556Y004951D01*
X005253Y004951D01*
X005244Y005007D01*
X005222Y005074D01*
X005190Y005137D01*
X005149Y005194D01*
X005099Y005244D01*
X005041Y005286D01*
X005161Y005177D02*
X010045Y005177D01*
X010045Y005078D02*
X005220Y005078D01*
X005249Y004980D02*
X010045Y004980D01*
X010045Y004881D02*
X004556Y004881D01*
X004555Y004783D02*
X004455Y004783D01*
X004455Y004881D02*
X003405Y004881D01*
X003405Y004783D02*
X003771Y004783D01*
X003811Y004684D02*
X003405Y004684D01*
X003405Y004586D02*
X003885Y004586D01*
X004027Y004487D02*
X003405Y004487D01*
X003405Y004389D02*
X010045Y004389D01*
X010045Y004487D02*
X004984Y004487D01*
X004911Y004340D02*
X004841Y004351D01*
X004555Y004351D01*
X004555Y003951D01*
X004455Y003951D01*
X004455Y003851D01*
X003758Y003851D01*
X003766Y003796D01*
X003788Y003728D01*
X003821Y003665D01*
X003862Y003608D01*
X003912Y003558D01*
X003970Y003516D01*
X004033Y003484D01*
X004100Y003462D01*
X004170Y003451D01*
X004455Y003451D01*
X004455Y003851D01*
X004555Y003851D01*
X004555Y003451D01*
X004841Y003451D01*
X004911Y003462D01*
X004978Y003484D01*
X005041Y003516D01*
X005099Y003558D01*
X005149Y003608D01*
X005190Y003665D01*
X005222Y003728D01*
X005244Y003796D01*
X005253Y003851D01*
X004556Y003851D01*
X004556Y003951D01*
X005253Y003951D01*
X005244Y004007D01*
X005222Y004074D01*
X005190Y004137D01*
X005149Y004194D01*
X005099Y004244D01*
X005041Y004286D01*
X004978Y004318D01*
X004911Y004340D01*
X005033Y004290D02*
X007194Y004290D01*
X007051Y004221D02*
X007343Y004362D01*
X007343Y004362D01*
X007668Y004362D01*
X007668Y004362D01*
X007960Y004221D01*
X007960Y004221D01*
X008162Y003967D01*
X008162Y003967D01*
X008234Y003651D01*
X008162Y003335D01*
X008162Y003335D01*
X007960Y003081D01*
X007960Y003081D01*
X007960Y003081D01*
X007668Y002940D01*
X007668Y002940D01*
X007343Y002940D01*
X007343Y002940D01*
X007051Y003081D01*
X007051Y003081D01*
X006849Y003335D01*
X006849Y003335D01*
X006776Y003651D01*
X006776Y003651D01*
X006849Y003967D01*
X006849Y003967D01*
X007051Y004221D01*
X007051Y004221D01*
X007051Y004221D01*
X007027Y004191D02*
X005151Y004191D01*
X005213Y004093D02*
X006949Y004093D01*
X006870Y003994D02*
X005246Y003994D01*
X005245Y003797D02*
X006810Y003797D01*
X006787Y003699D02*
X005207Y003699D01*
X005141Y003600D02*
X006788Y003600D01*
X006811Y003502D02*
X005013Y003502D01*
X004555Y003502D02*
X004455Y003502D01*
X004455Y003600D02*
X004555Y003600D01*
X004555Y003699D02*
X004455Y003699D01*
X004455Y003797D02*
X004555Y003797D01*
X004556Y003896D02*
X006832Y003896D01*
X006833Y003403D02*
X003405Y003403D01*
X003405Y003305D02*
X006873Y003305D01*
X006951Y003206D02*
X003405Y003206D01*
X003405Y003107D02*
X007030Y003107D01*
X007201Y003009D02*
X003405Y003009D01*
X003405Y002910D02*
X022605Y002910D01*
X022605Y002812D02*
X003405Y002812D01*
X003405Y002713D02*
X022605Y002713D01*
X022605Y002615D02*
X003405Y002615D01*
X003405Y002516D02*
X003942Y002516D01*
X003970Y002536D02*
X003912Y002494D01*
X003862Y002444D01*
X003821Y002387D01*
X003788Y002324D01*
X003766Y002257D01*
X003758Y002201D01*
X004455Y002201D01*
X004455Y002101D01*
X003758Y002101D01*
X003766Y002046D01*
X003788Y001978D01*
X003821Y001915D01*
X003862Y001858D01*
X003912Y001808D01*
X003970Y001766D01*
X004033Y001734D01*
X004100Y001712D01*
X004170Y001701D01*
X004455Y001701D01*
X004455Y002101D01*
X004555Y002101D01*
X004555Y001701D01*
X004841Y001701D01*
X004911Y001712D01*
X004978Y001734D01*
X005041Y001766D01*
X005099Y001808D01*
X005149Y001858D01*
X005190Y001915D01*
X005222Y001978D01*
X005244Y002046D01*
X005253Y002101D01*
X004556Y002101D01*
X004556Y002201D01*
X005253Y002201D01*
X005244Y002257D01*
X005222Y002324D01*
X005190Y002387D01*
X005149Y002444D01*
X005099Y002494D01*
X005041Y002536D01*
X004978Y002568D01*
X004911Y002590D01*
X004841Y002601D01*
X004555Y002601D01*
X004555Y002201D01*
X004455Y002201D01*
X004455Y002601D01*
X004170Y002601D01*
X004100Y002590D01*
X004033Y002568D01*
X003970Y002536D01*
X003843Y002418D02*
X003405Y002418D01*
X003405Y002319D02*
X003787Y002319D01*
X003761Y002221D02*
X003405Y002221D01*
X003405Y002122D02*
X004455Y002122D01*
X004455Y002024D02*
X004555Y002024D01*
X004556Y002122D02*
X006972Y002122D01*
X007051Y002221D02*
X005250Y002221D01*
X005224Y002319D02*
X007254Y002319D01*
X007343Y002362D02*
X007051Y002221D01*
X006849Y001967D01*
X006776Y001651D01*
X006849Y001335D01*
X007051Y001081D01*
X007343Y000940D01*
X007668Y000940D01*
X007960Y001081D01*
X007960Y001081D01*
X007960Y001081D01*
X008162Y001335D01*
X008234Y001651D01*
X008162Y001967D01*
X008162Y001967D01*
X007960Y002221D01*
X007668Y002362D01*
X007668Y002362D01*
X007343Y002362D01*
X007343Y002362D01*
X007756Y002319D02*
X022605Y002319D01*
X022605Y002221D02*
X007960Y002221D01*
X007960Y002221D01*
X008039Y002122D02*
X022605Y002122D01*
X022605Y002024D02*
X022213Y002024D01*
X022175Y002061D02*
X022035Y002061D01*
X022035Y001681D01*
X021975Y001681D01*
X021975Y001621D01*
X021595Y001621D01*
X021595Y001481D01*
X021836Y001241D01*
X021975Y001241D01*
X021975Y001621D01*
X022035Y001621D01*
X022035Y001241D01*
X022175Y001241D01*
X022415Y001481D01*
X022415Y001621D01*
X022036Y001621D01*
X022036Y001681D01*
X022415Y001681D01*
X022415Y001821D01*
X022175Y002061D01*
X022035Y002024D02*
X021975Y002024D01*
X021975Y002061D02*
X021836Y002061D01*
X021595Y001821D01*
X021595Y001681D01*
X021975Y001681D01*
X021975Y002061D01*
X021975Y001925D02*
X022035Y001925D01*
X022035Y001826D02*
X021975Y001826D01*
X021975Y001728D02*
X022035Y001728D01*
X022036Y001629D02*
X022605Y001629D01*
X022605Y001531D02*
X022415Y001531D01*
X022366Y001432D02*
X022605Y001432D01*
X022605Y001334D02*
X022268Y001334D01*
X022035Y001334D02*
X021975Y001334D01*
X021975Y001432D02*
X022035Y001432D01*
X022035Y001531D02*
X021975Y001531D01*
X021975Y001629D02*
X020375Y001629D01*
X020375Y001531D02*
X021595Y001531D01*
X021645Y001432D02*
X020310Y001432D01*
X020375Y001498D02*
X020159Y001281D01*
X019852Y001281D01*
X019635Y001498D01*
X019635Y001804D01*
X019852Y002021D01*
X020159Y002021D01*
X020375Y001804D01*
X020375Y001498D01*
X020375Y001728D02*
X021595Y001728D01*
X021601Y001826D02*
X020353Y001826D01*
X020255Y001925D02*
X021699Y001925D01*
X021798Y002024D02*
X008118Y002024D01*
X008172Y001925D02*
X019756Y001925D01*
X019657Y001826D02*
X008194Y001826D01*
X008217Y001728D02*
X010502Y001728D01*
X010586Y001811D02*
X010345Y001571D01*
X010345Y001431D01*
X010725Y001431D01*
X010725Y001371D01*
X010345Y001371D01*
X010345Y001231D01*
X010586Y000991D01*
X010725Y000991D01*
X010725Y001371D01*
X010785Y001371D01*
X010785Y000991D01*
X010925Y000991D01*
X011165Y001231D01*
X011165Y001371D01*
X010786Y001371D01*
X010786Y001431D01*
X011165Y001431D01*
X011165Y001571D01*
X010925Y001811D01*
X010785Y001811D01*
X010785Y001431D01*
X010725Y001431D01*
X010725Y001811D01*
X010586Y001811D01*
X010725Y001728D02*
X010785Y001728D01*
X010785Y001629D02*
X010725Y001629D01*
X010725Y001531D02*
X010785Y001531D01*
X010785Y001432D02*
X010725Y001432D01*
X010725Y001334D02*
X010785Y001334D01*
X010785Y001235D02*
X010725Y001235D01*
X010725Y001137D02*
X010785Y001137D01*
X010785Y001038D02*
X010725Y001038D01*
X010539Y001038D02*
X007870Y001038D01*
X008004Y001137D02*
X010440Y001137D01*
X010345Y001235D02*
X008083Y001235D01*
X008161Y001334D02*
X010345Y001334D01*
X010345Y001432D02*
X008184Y001432D01*
X008162Y001335D02*
X008162Y001335D01*
X008207Y001531D02*
X010345Y001531D01*
X010404Y001629D02*
X008229Y001629D01*
X007668Y000940D02*
X007668Y000940D01*
X007343Y000940D02*
X007343Y000940D01*
X007140Y001038D02*
X005202Y001038D01*
X005215Y001070D02*
X005215Y001233D01*
X005153Y001383D01*
X005038Y001499D01*
X004887Y001561D01*
X004124Y001561D01*
X003973Y001499D01*
X003858Y001383D01*
X003795Y001233D01*
X003795Y001070D01*
X003858Y000919D01*
X003973Y000804D01*
X004124Y000741D01*
X004887Y000741D01*
X005038Y000804D01*
X005153Y000919D01*
X005215Y001070D01*
X005215Y001137D02*
X007007Y001137D01*
X007051Y001081D02*
X007051Y001081D01*
X006928Y001235D02*
X005214Y001235D01*
X005174Y001334D02*
X006850Y001334D01*
X006849Y001335D02*
X006849Y001335D01*
X006826Y001432D02*
X005104Y001432D01*
X004960Y001531D02*
X006804Y001531D01*
X006781Y001629D02*
X003405Y001629D01*
X003405Y001531D02*
X004051Y001531D01*
X003907Y001432D02*
X003405Y001432D01*
X003405Y001334D02*
X003837Y001334D01*
X003796Y001235D02*
X003405Y001235D01*
X003405Y001137D02*
X003795Y001137D01*
X003808Y001038D02*
X003405Y001038D01*
X003405Y000940D02*
X003849Y000940D01*
X003936Y000841D02*
X003405Y000841D01*
X003405Y000742D02*
X004121Y000742D01*
X003405Y000644D02*
X015239Y000644D01*
X015141Y000742D02*
X004890Y000742D01*
X005075Y000841D02*
X015135Y000841D01*
X015135Y000748D02*
X015352Y000531D01*
X015659Y000531D01*
X015875Y000748D01*
X015875Y001054D01*
X015659Y001271D01*
X015352Y001271D01*
X015135Y001054D01*
X015135Y000748D01*
X015135Y000940D02*
X005161Y000940D01*
X004959Y001728D02*
X006794Y001728D01*
X006776Y001651D02*
X006776Y001651D01*
X006816Y001826D02*
X005117Y001826D01*
X005195Y001925D02*
X006839Y001925D01*
X006849Y001967D02*
X006849Y001967D01*
X006893Y002024D02*
X005237Y002024D01*
X005168Y002418D02*
X022605Y002418D01*
X022605Y002516D02*
X005069Y002516D01*
X004555Y002516D02*
X004455Y002516D01*
X004455Y002418D02*
X004555Y002418D01*
X004555Y002319D02*
X004455Y002319D01*
X004455Y002221D02*
X004555Y002221D01*
X004555Y001925D02*
X004455Y001925D01*
X004455Y001826D02*
X004555Y001826D01*
X004555Y001728D02*
X004455Y001728D01*
X004052Y001728D02*
X003405Y001728D01*
X003405Y001826D02*
X003894Y001826D01*
X003816Y001925D02*
X003405Y001925D01*
X003405Y002024D02*
X003774Y002024D01*
X003998Y003502D02*
X003405Y003502D01*
X003405Y003600D02*
X003870Y003600D01*
X003804Y003699D02*
X003405Y003699D01*
X003405Y003797D02*
X003766Y003797D01*
X003758Y003951D02*
X004455Y003951D01*
X004455Y004351D01*
X004170Y004351D01*
X004100Y004340D01*
X004033Y004318D01*
X003970Y004286D01*
X003912Y004244D01*
X003862Y004194D01*
X003821Y004137D01*
X003788Y004074D01*
X003766Y004007D01*
X003758Y003951D01*
X003765Y003994D02*
X003405Y003994D01*
X003405Y003896D02*
X004455Y003896D01*
X004455Y003994D02*
X004555Y003994D01*
X004555Y004093D02*
X004455Y004093D01*
X004455Y004191D02*
X004555Y004191D01*
X004555Y004290D02*
X004455Y004290D01*
X004455Y004487D02*
X004555Y004487D01*
X004555Y004586D02*
X004455Y004586D01*
X004455Y004684D02*
X004555Y004684D01*
X004455Y004951D02*
X003758Y004951D01*
X003766Y005007D01*
X003788Y005074D01*
X003821Y005137D01*
X003862Y005194D01*
X003912Y005244D01*
X003970Y005286D01*
X004033Y005318D01*
X004100Y005340D01*
X004170Y005351D01*
X004455Y005351D01*
X004455Y004951D01*
X004455Y004980D02*
X004555Y004980D01*
X004555Y005078D02*
X004455Y005078D01*
X004455Y005177D02*
X004555Y005177D01*
X004555Y005275D02*
X004455Y005275D01*
X003955Y005275D02*
X003405Y005275D01*
X003405Y005177D02*
X003850Y005177D01*
X003791Y005078D02*
X003405Y005078D01*
X003405Y004980D02*
X003762Y004980D01*
X003405Y005374D02*
X006803Y005374D01*
X006704Y005473D02*
X003405Y005473D01*
X003405Y005571D02*
X006606Y005571D01*
X006595Y005670D02*
X003405Y005670D01*
X003405Y005768D02*
X006975Y005768D01*
X007036Y005768D02*
X009225Y005768D01*
X009225Y005670D02*
X009285Y005670D01*
X009285Y005571D02*
X009225Y005571D01*
X009225Y005473D02*
X009285Y005473D01*
X009285Y005374D02*
X009225Y005374D01*
X009053Y005374D02*
X007208Y005374D01*
X007307Y005473D02*
X008954Y005473D01*
X008856Y005571D02*
X007405Y005571D01*
X007415Y005670D02*
X008845Y005670D01*
X008845Y005867D02*
X007415Y005867D01*
X007371Y005965D02*
X008890Y005965D01*
X009621Y005965D02*
X010045Y005965D01*
X010045Y005867D02*
X009665Y005867D01*
X010465Y005275D02*
X018295Y005275D01*
X018258Y005177D02*
X017253Y005177D01*
X017159Y005271D02*
X017375Y005054D01*
X017375Y004748D01*
X017159Y004531D01*
X016852Y004531D01*
X016635Y004748D01*
X016635Y005054D01*
X016852Y005271D01*
X017159Y005271D01*
X017351Y005078D02*
X018159Y005078D01*
X018135Y004980D02*
X017375Y004980D01*
X017375Y004881D02*
X018135Y004881D01*
X018135Y004783D02*
X017375Y004783D01*
X017312Y004684D02*
X018199Y004684D01*
X018298Y004586D02*
X017213Y004586D01*
X016798Y004586D02*
X015713Y004586D01*
X015659Y004531D02*
X015352Y004531D01*
X015135Y004748D01*
X015135Y005054D01*
X015352Y005271D01*
X015659Y005271D01*
X015875Y005054D01*
X015875Y004748D01*
X015659Y004531D01*
X015812Y004684D02*
X016699Y004684D01*
X016635Y004783D02*
X015875Y004783D01*
X015875Y004881D02*
X016635Y004881D01*
X016635Y004980D02*
X015875Y004980D01*
X015851Y005078D02*
X016659Y005078D01*
X016758Y005177D02*
X015753Y005177D01*
X015258Y005177D02*
X010465Y005177D01*
X010465Y005078D02*
X015159Y005078D01*
X015135Y004980D02*
X010465Y004980D01*
X010465Y004881D02*
X015135Y004881D01*
X015135Y004783D02*
X010465Y004783D01*
X010465Y004684D02*
X015199Y004684D01*
X015298Y004586D02*
X010465Y004586D01*
X010465Y004487D02*
X022605Y004487D01*
X022605Y004389D02*
X010465Y004389D01*
X010465Y004290D02*
X022605Y004290D01*
X022605Y004191D02*
X010512Y004191D01*
X010611Y004093D02*
X022605Y004093D01*
X022605Y003994D02*
X010709Y003994D01*
X010808Y003896D02*
X022605Y003896D01*
X022605Y003797D02*
X010906Y003797D01*
X010981Y003699D02*
X012030Y003699D01*
X012481Y003699D02*
X013530Y003699D01*
X013602Y003771D02*
X013385Y003554D01*
X013385Y003248D01*
X013602Y003031D01*
X013909Y003031D01*
X014125Y003248D01*
X014125Y003554D01*
X013909Y003771D01*
X013602Y003771D01*
X013431Y003600D02*
X012580Y003600D01*
X012625Y003502D02*
X013385Y003502D01*
X013385Y003403D02*
X012625Y003403D01*
X012625Y003305D02*
X013385Y003305D01*
X013427Y003206D02*
X012584Y003206D01*
X012485Y003107D02*
X013526Y003107D01*
X013985Y003107D02*
X022605Y003107D01*
X022605Y003009D02*
X007810Y003009D01*
X007981Y003107D02*
X010526Y003107D01*
X010427Y003206D02*
X008059Y003206D01*
X008138Y003305D02*
X010385Y003305D01*
X010385Y003403D02*
X008178Y003403D01*
X008200Y003502D02*
X010385Y003502D01*
X010431Y003600D02*
X008223Y003600D01*
X008224Y003699D02*
X010411Y003699D01*
X010312Y003797D02*
X008201Y003797D01*
X008179Y003896D02*
X010214Y003896D01*
X010115Y003994D02*
X008141Y003994D01*
X008062Y004093D02*
X010045Y004093D01*
X010045Y004191D02*
X007984Y004191D01*
X007817Y004290D02*
X010045Y004290D01*
X010045Y004586D02*
X005126Y004586D01*
X005200Y004684D02*
X010045Y004684D01*
X010045Y004783D02*
X005240Y004783D01*
X003977Y004290D02*
X003405Y004290D01*
X003405Y004191D02*
X003860Y004191D01*
X003798Y004093D02*
X003405Y004093D01*
X003405Y005867D02*
X006595Y005867D01*
X006640Y005965D02*
X003405Y005965D01*
X003405Y007049D02*
X004084Y007049D01*
X004102Y007031D02*
X004409Y007031D01*
X004625Y007248D01*
X004625Y007554D01*
X004409Y007771D01*
X004102Y007771D01*
X003885Y007554D01*
X003885Y007248D01*
X004102Y007031D01*
X003986Y007148D02*
X003405Y007148D01*
X003405Y007246D02*
X003887Y007246D01*
X003885Y007345D02*
X003405Y007345D01*
X003405Y007443D02*
X003885Y007443D01*
X003885Y007542D02*
X003405Y007542D01*
X003405Y007640D02*
X003971Y007640D01*
X004070Y007739D02*
X003405Y007739D01*
X003405Y007838D02*
X006296Y007838D01*
X006352Y007781D02*
X006659Y007781D01*
X006875Y007998D01*
X006875Y008304D01*
X006659Y008521D01*
X006352Y008521D01*
X006135Y008304D01*
X006135Y007998D01*
X006352Y007781D01*
X006197Y007936D02*
X003405Y007936D01*
X003405Y008035D02*
X006135Y008035D01*
X006135Y008133D02*
X003405Y008133D01*
X003405Y008232D02*
X006135Y008232D01*
X006161Y008330D02*
X003405Y008330D01*
X003405Y008429D02*
X006260Y008429D01*
X006751Y008429D02*
X010260Y008429D01*
X010295Y008527D02*
X003405Y008527D01*
X003405Y008626D02*
X010295Y008626D01*
X010295Y008724D02*
X003405Y008724D01*
X003405Y008823D02*
X010295Y008823D01*
X010295Y008922D02*
X003405Y008922D01*
X003405Y009020D02*
X010295Y009020D01*
X010295Y009119D02*
X003405Y009119D01*
X003405Y009217D02*
X010295Y009217D01*
X010373Y009316D02*
X003405Y009316D01*
X003405Y009414D02*
X010472Y009414D01*
X010570Y009513D02*
X003405Y009513D01*
X003405Y009611D02*
X011522Y009611D01*
X011150Y009710D02*
X003405Y009710D01*
X003405Y009808D02*
X004018Y009808D01*
X004086Y009741D02*
X004425Y009741D01*
X004665Y009981D01*
X004665Y010321D01*
X004425Y010561D01*
X004086Y010561D01*
X003845Y010321D01*
X003845Y009981D01*
X004086Y009741D01*
X003920Y009907D02*
X003405Y009907D01*
X003405Y010006D02*
X003845Y010006D01*
X003845Y010104D02*
X003405Y010104D01*
X003405Y010203D02*
X003845Y010203D01*
X003845Y010301D02*
X003405Y010301D01*
X003405Y010400D02*
X003924Y010400D01*
X004023Y010498D02*
X003405Y010498D01*
X003405Y010597D02*
X010795Y010597D01*
X010795Y010695D02*
X003405Y010695D01*
X003405Y010794D02*
X010795Y010794D01*
X010795Y010892D02*
X003405Y010892D01*
X003405Y010991D02*
X010795Y010991D01*
X010795Y011089D02*
X003405Y011089D01*
X003405Y011188D02*
X010795Y011188D01*
X010795Y011287D02*
X005069Y011287D01*
X005041Y011266D02*
X005099Y011308D01*
X005149Y011358D01*
X005190Y011415D01*
X005222Y011478D01*
X005244Y011546D01*
X005253Y011601D01*
X004556Y011601D01*
X004556Y011701D01*
X005253Y011701D01*
X005244Y011757D01*
X005222Y011824D01*
X005190Y011887D01*
X005149Y011944D01*
X005099Y011994D01*
X005041Y012036D01*
X004978Y012068D01*
X004911Y012090D01*
X004841Y012101D01*
X004555Y012101D01*
X004555Y011701D01*
X004455Y011701D01*
X004455Y011601D01*
X003758Y011601D01*
X003766Y011546D01*
X003788Y011478D01*
X003821Y011415D01*
X003862Y011358D01*
X003912Y011308D01*
X003970Y011266D01*
X004033Y011234D01*
X004100Y011212D01*
X004170Y011201D01*
X004455Y011201D01*
X004455Y011601D01*
X004555Y011601D01*
X004555Y011201D01*
X004841Y011201D01*
X004911Y011212D01*
X004978Y011234D01*
X005041Y011266D01*
X005168Y011385D02*
X010795Y011385D01*
X010795Y011484D02*
X005224Y011484D01*
X005250Y011582D02*
X006051Y011582D01*
X006102Y011531D02*
X006409Y011531D01*
X006625Y011748D01*
X006625Y012054D01*
X006409Y012271D01*
X006102Y012271D01*
X005885Y012054D01*
X005885Y011748D01*
X006102Y011531D01*
X005953Y011681D02*
X004556Y011681D01*
X004555Y011779D02*
X004455Y011779D01*
X004455Y011701D02*
X004455Y012101D01*
X004170Y012101D01*
X004100Y012090D01*
X004033Y012068D01*
X003970Y012036D01*
X003912Y011994D01*
X003862Y011944D01*
X003821Y011887D01*
X003788Y011824D01*
X003766Y011757D01*
X003758Y011701D01*
X004455Y011701D01*
X004455Y011681D02*
X003405Y011681D01*
X003405Y011779D02*
X003774Y011779D01*
X003816Y011878D02*
X003405Y011878D01*
X003405Y011976D02*
X003894Y011976D01*
X004053Y012075D02*
X003405Y012075D01*
X003405Y012173D02*
X006004Y012173D01*
X005906Y012075D02*
X004957Y012075D01*
X004887Y012241D02*
X005038Y012304D01*
X005153Y012419D01*
X005215Y012570D01*
X005215Y012733D01*
X005153Y012883D01*
X005038Y012999D01*
X004887Y013061D01*
X004124Y013061D01*
X003973Y012999D01*
X003858Y012883D01*
X003795Y012733D01*
X003795Y012570D01*
X003858Y012419D01*
X003973Y012304D01*
X004124Y012241D01*
X004887Y012241D01*
X004961Y012272D02*
X008046Y012272D01*
X008086Y012311D02*
X007845Y012071D01*
X007845Y011931D01*
X008225Y011931D01*
X008225Y011871D01*
X007845Y011871D01*
X007845Y011731D01*
X008086Y011491D01*
X008225Y011491D01*
X008225Y011871D01*
X008285Y011871D01*
X008285Y011491D01*
X008425Y011491D01*
X008665Y011731D01*
X008665Y011871D01*
X008286Y011871D01*
X008286Y011931D01*
X008665Y011931D01*
X008665Y012071D01*
X008425Y012311D01*
X008285Y012311D01*
X008285Y011931D01*
X008225Y011931D01*
X008225Y012311D01*
X008086Y012311D01*
X008225Y012272D02*
X008285Y012272D01*
X008285Y012173D02*
X008225Y012173D01*
X008225Y012075D02*
X008285Y012075D01*
X008285Y011976D02*
X008225Y011976D01*
X008225Y011878D02*
X006625Y011878D01*
X006625Y011976D02*
X007845Y011976D01*
X007849Y012075D02*
X006605Y012075D01*
X006506Y012173D02*
X007948Y012173D01*
X007845Y011779D02*
X006625Y011779D01*
X006558Y011681D02*
X007896Y011681D01*
X007995Y011582D02*
X006460Y011582D01*
X005885Y011779D02*
X005237Y011779D01*
X005195Y011878D02*
X005885Y011878D01*
X005885Y011976D02*
X005117Y011976D01*
X005105Y012371D02*
X009395Y012371D01*
X009345Y012321D02*
X009345Y012181D01*
X009725Y012181D01*
X009725Y012121D01*
X009345Y012121D01*
X009345Y011981D01*
X009586Y011741D01*
X009725Y011741D01*
X009725Y012121D01*
X009785Y012121D01*
X009785Y011741D01*
X009925Y011741D01*
X010165Y011981D01*
X010165Y012121D01*
X009786Y012121D01*
X009786Y012181D01*
X010165Y012181D01*
X010165Y012321D01*
X009925Y012561D01*
X009785Y012561D01*
X009785Y012181D01*
X009725Y012181D01*
X009725Y012561D01*
X009586Y012561D01*
X009345Y012321D01*
X009345Y012272D02*
X008464Y012272D01*
X008563Y012173D02*
X009725Y012173D01*
X009786Y012173D02*
X010795Y012173D01*
X010795Y012075D02*
X010165Y012075D01*
X010160Y011976D02*
X010795Y011976D01*
X010795Y011878D02*
X010062Y011878D01*
X009963Y011779D02*
X010795Y011779D01*
X010795Y011681D02*
X008615Y011681D01*
X008665Y011779D02*
X009547Y011779D01*
X009449Y011878D02*
X008286Y011878D01*
X008285Y011779D02*
X008225Y011779D01*
X008225Y011681D02*
X008285Y011681D01*
X008285Y011582D02*
X008225Y011582D01*
X008516Y011582D02*
X010795Y011582D01*
X011215Y011582D02*
X014420Y011582D01*
X014432Y011611D02*
X014375Y011475D01*
X014375Y011328D01*
X014432Y011192D01*
X014536Y011088D01*
X014672Y011031D01*
X015339Y011031D01*
X015475Y011088D01*
X015579Y011192D01*
X015635Y011328D01*
X015635Y011475D01*
X015579Y011611D01*
X015475Y011715D01*
X015339Y011771D01*
X014672Y011771D01*
X014536Y011715D01*
X014432Y011611D01*
X014502Y011681D02*
X011215Y011681D01*
X011215Y011779D02*
X016045Y011779D01*
X016045Y011681D02*
X015509Y011681D01*
X015591Y011582D02*
X016045Y011582D01*
X016045Y011484D02*
X015632Y011484D01*
X015635Y011385D02*
X016045Y011385D01*
X016045Y011287D02*
X015618Y011287D01*
X015576Y011188D02*
X016045Y011188D01*
X016045Y011089D02*
X015477Y011089D01*
X015494Y010695D02*
X016045Y010695D01*
X016045Y010794D02*
X011215Y010794D01*
X011215Y010892D02*
X016045Y010892D01*
X016045Y010991D02*
X011215Y010991D01*
X011215Y011089D02*
X014534Y011089D01*
X014435Y011188D02*
X011215Y011188D01*
X011215Y011287D02*
X014392Y011287D01*
X014375Y011385D02*
X011215Y011385D01*
X011215Y011484D02*
X014379Y011484D01*
X014566Y012075D02*
X011215Y012075D01*
X011215Y012173D02*
X014450Y012173D01*
X014487Y012666D02*
X013037Y012666D01*
X012939Y012765D02*
X014656Y012765D01*
X014601Y013060D02*
X012715Y013060D01*
X012715Y013159D02*
X014464Y013159D01*
X014473Y013652D02*
X013802Y013652D01*
X013703Y013750D02*
X014621Y013750D01*
X015117Y014243D02*
X013437Y014243D01*
X013535Y014144D02*
X015215Y014144D01*
X015314Y014046D02*
X013625Y014046D01*
X013625Y013947D02*
X015412Y013947D01*
X015511Y013849D02*
X013625Y013849D01*
X013405Y013455D02*
X012715Y013455D01*
X012715Y013553D02*
X013080Y013553D01*
X012982Y013652D02*
X012715Y013652D01*
X012715Y013750D02*
X012885Y013750D01*
X012885Y013849D02*
X012715Y013849D01*
X012715Y013947D02*
X012885Y013947D01*
X012885Y014046D02*
X012715Y014046D01*
X012715Y014144D02*
X012975Y014144D01*
X013074Y014243D02*
X012715Y014243D01*
X012715Y014341D02*
X015045Y014341D01*
X015045Y014440D02*
X012715Y014440D01*
X012715Y014539D02*
X015038Y014539D01*
X014940Y014637D02*
X012715Y014637D01*
X012295Y014637D02*
X011215Y014637D01*
X011215Y014539D02*
X012295Y014539D01*
X012295Y014440D02*
X011215Y014440D01*
X011215Y014341D02*
X012295Y014341D01*
X012295Y014243D02*
X011937Y014243D01*
X011909Y014271D02*
X011602Y014271D01*
X011385Y014054D01*
X011385Y013748D01*
X011602Y013531D01*
X011909Y013531D01*
X012125Y013748D01*
X012125Y014054D01*
X011909Y014271D01*
X012035Y014144D02*
X012295Y014144D01*
X012295Y014046D02*
X012125Y014046D01*
X012125Y013947D02*
X012295Y013947D01*
X012295Y013849D02*
X012125Y013849D01*
X012125Y013750D02*
X012295Y013750D01*
X012295Y013652D02*
X012029Y013652D01*
X011931Y013553D02*
X012295Y013553D01*
X012295Y013455D02*
X011215Y013455D01*
X011215Y013553D02*
X011580Y013553D01*
X011482Y013652D02*
X011215Y013652D01*
X011215Y013750D02*
X011385Y013750D01*
X011385Y013849D02*
X011215Y013849D01*
X011215Y013947D02*
X011385Y013947D01*
X011385Y014046D02*
X011215Y014046D01*
X011215Y014144D02*
X011475Y014144D01*
X011574Y014243D02*
X011215Y014243D01*
X010795Y014243D02*
X003405Y014243D01*
X003405Y014341D02*
X010795Y014341D01*
X010795Y014440D02*
X003405Y014440D01*
X003405Y014539D02*
X010795Y014539D01*
X010795Y014637D02*
X003405Y014637D01*
X003405Y014736D02*
X010795Y014736D01*
X010795Y014834D02*
X003405Y014834D01*
X003405Y014933D02*
X010795Y014933D01*
X010795Y015031D02*
X010465Y015031D01*
X010564Y015130D02*
X010730Y015130D01*
X011028Y015425D02*
X011506Y015425D01*
X011451Y014933D02*
X011215Y014933D01*
X011215Y014834D02*
X011549Y014834D01*
X011215Y014736D02*
X012295Y014736D01*
X012295Y014834D02*
X011962Y014834D01*
X012060Y014933D02*
X012295Y014933D01*
X012295Y015031D02*
X012125Y015031D01*
X012125Y015130D02*
X012295Y015130D01*
X012295Y015228D02*
X012125Y015228D01*
X012103Y015327D02*
X012295Y015327D01*
X012295Y015425D02*
X012004Y015425D01*
X012295Y015524D02*
X010930Y015524D01*
X010614Y015622D02*
X012295Y015622D01*
X012295Y015721D02*
X010515Y015721D01*
X009995Y015721D02*
X004515Y015721D01*
X004425Y015811D02*
X004086Y015811D01*
X003845Y015571D01*
X003845Y015231D01*
X004086Y014991D01*
X004425Y014991D01*
X004665Y015231D01*
X004665Y015571D01*
X004425Y015811D01*
X004614Y015622D02*
X009897Y015622D01*
X009845Y015524D02*
X004665Y015524D01*
X004665Y015425D02*
X009845Y015425D01*
X009845Y015327D02*
X004665Y015327D01*
X004662Y015228D02*
X009848Y015228D01*
X009947Y015130D02*
X004564Y015130D01*
X004465Y015031D02*
X010046Y015031D01*
X010795Y014144D02*
X003405Y014144D01*
X003405Y014046D02*
X004087Y014046D01*
X004124Y014061D02*
X003973Y013999D01*
X003858Y013883D01*
X003795Y013733D01*
X003795Y013570D01*
X003858Y013419D01*
X003973Y013304D01*
X004124Y013241D01*
X004887Y013241D01*
X005038Y013304D01*
X005153Y013419D01*
X005215Y013570D01*
X005215Y013733D01*
X005153Y013883D01*
X005038Y013999D01*
X004887Y014061D01*
X004124Y014061D01*
X003922Y013947D02*
X003405Y013947D01*
X003405Y013849D02*
X003844Y013849D01*
X003803Y013750D02*
X003405Y013750D01*
X003405Y013652D02*
X003795Y013652D01*
X003802Y013553D02*
X003405Y013553D01*
X003405Y013455D02*
X003843Y013455D01*
X003921Y013356D02*
X003405Y013356D01*
X003405Y013257D02*
X004085Y013257D01*
X004122Y013060D02*
X003405Y013060D01*
X003405Y012962D02*
X003936Y012962D01*
X003850Y012863D02*
X003405Y012863D01*
X003405Y012765D02*
X003809Y012765D01*
X003795Y012666D02*
X003405Y012666D01*
X003405Y012568D02*
X003796Y012568D01*
X003837Y012469D02*
X003405Y012469D01*
X003405Y012371D02*
X003906Y012371D01*
X004049Y012272D02*
X003405Y012272D01*
X003405Y011582D02*
X003761Y011582D01*
X003787Y011484D02*
X003405Y011484D01*
X003405Y011385D02*
X003842Y011385D01*
X003942Y011287D02*
X003405Y011287D01*
X004455Y011287D02*
X004555Y011287D01*
X004555Y011385D02*
X004455Y011385D01*
X004455Y011484D02*
X004555Y011484D01*
X004555Y011582D02*
X004455Y011582D01*
X004455Y011878D02*
X004555Y011878D01*
X004555Y011976D02*
X004455Y011976D01*
X004455Y012075D02*
X004555Y012075D01*
X005174Y012469D02*
X009494Y012469D01*
X009725Y012469D02*
X009785Y012469D01*
X009785Y012371D02*
X009725Y012371D01*
X009725Y012272D02*
X009785Y012272D01*
X009785Y012075D02*
X009725Y012075D01*
X009725Y011976D02*
X009785Y011976D01*
X009785Y011878D02*
X009725Y011878D01*
X009725Y011779D02*
X009785Y011779D01*
X009350Y011976D02*
X008665Y011976D01*
X008661Y012075D02*
X009345Y012075D01*
X010017Y012469D02*
X010164Y012469D01*
X010135Y012568D02*
X005215Y012568D01*
X005215Y012666D02*
X010135Y012666D01*
X010135Y012765D02*
X005202Y012765D01*
X005161Y012863D02*
X009520Y012863D01*
X009602Y012781D02*
X009909Y012781D01*
X010125Y012998D01*
X010125Y013304D01*
X009909Y013521D01*
X009602Y013521D01*
X009385Y013304D01*
X009385Y012998D01*
X009602Y012781D01*
X009422Y012962D02*
X005075Y012962D01*
X004889Y013060D02*
X006073Y013060D01*
X006102Y013031D02*
X006409Y013031D01*
X006625Y013248D01*
X006625Y013554D01*
X006409Y013771D01*
X006102Y013771D01*
X005885Y013554D01*
X005885Y013248D01*
X006102Y013031D01*
X005974Y013159D02*
X003405Y013159D01*
X004926Y013257D02*
X005885Y013257D01*
X005885Y013356D02*
X005090Y013356D01*
X005168Y013455D02*
X005885Y013455D01*
X005885Y013553D02*
X005209Y013553D01*
X005215Y013652D02*
X005983Y013652D01*
X006081Y013750D02*
X005208Y013750D01*
X005167Y013849D02*
X010795Y013849D01*
X010795Y013947D02*
X005089Y013947D01*
X004924Y014046D02*
X010795Y014046D01*
X010795Y013750D02*
X008486Y013750D01*
X008425Y013811D02*
X008665Y013571D01*
X008665Y013431D01*
X008286Y013431D01*
X008286Y013371D01*
X008665Y013371D01*
X008665Y013231D01*
X008425Y012991D01*
X008285Y012991D01*
X008285Y013371D01*
X008225Y013371D01*
X007845Y013371D01*
X007845Y013231D01*
X008086Y012991D01*
X008225Y012991D01*
X008225Y013371D01*
X008225Y013431D01*
X007845Y013431D01*
X007845Y013571D01*
X008086Y013811D01*
X008225Y013811D01*
X008225Y013431D01*
X008285Y013431D01*
X008285Y013811D01*
X008425Y013811D01*
X008285Y013750D02*
X008225Y013750D01*
X008225Y013652D02*
X008285Y013652D01*
X008285Y013553D02*
X008225Y013553D01*
X008225Y013455D02*
X008285Y013455D01*
X008285Y013356D02*
X008225Y013356D01*
X008225Y013257D02*
X008285Y013257D01*
X008285Y013159D02*
X008225Y013159D01*
X008225Y013060D02*
X008285Y013060D01*
X008494Y013060D02*
X009385Y013060D01*
X009385Y013159D02*
X008593Y013159D01*
X008665Y013257D02*
X009385Y013257D01*
X009437Y013356D02*
X008665Y013356D01*
X008665Y013455D02*
X009536Y013455D01*
X009975Y013455D02*
X010795Y013455D01*
X010795Y013553D02*
X008665Y013553D01*
X008585Y013652D02*
X010795Y013652D01*
X010795Y013356D02*
X010074Y013356D01*
X010125Y013257D02*
X010795Y013257D01*
X010795Y013159D02*
X010125Y013159D01*
X010125Y013060D02*
X010795Y013060D01*
X010795Y012962D02*
X010718Y012962D01*
X010293Y012962D02*
X010089Y012962D01*
X009991Y012863D02*
X010194Y012863D01*
X010263Y012371D02*
X010116Y012371D01*
X010165Y012272D02*
X010795Y012272D01*
X010795Y012371D02*
X010748Y012371D01*
X011215Y012371D02*
X012739Y012371D01*
X012641Y012469D02*
X011215Y012469D01*
X011215Y012568D02*
X012542Y012568D01*
X012443Y012666D02*
X011215Y012666D01*
X011215Y012765D02*
X012345Y012765D01*
X012295Y012863D02*
X011215Y012863D01*
X011215Y012962D02*
X012295Y012962D01*
X012295Y013060D02*
X011215Y013060D01*
X011215Y013159D02*
X012295Y013159D01*
X012295Y013257D02*
X011215Y013257D01*
X011215Y013356D02*
X012295Y013356D01*
X012715Y013356D02*
X013504Y013356D01*
X013602Y013257D02*
X012715Y013257D01*
X012742Y012962D02*
X015545Y012962D01*
X015545Y013060D02*
X015409Y013060D01*
X015545Y012863D02*
X012840Y012863D01*
X012838Y012272D02*
X011215Y012272D01*
X011215Y011976D02*
X016045Y011976D01*
X016045Y011878D02*
X011215Y011878D01*
X011215Y010695D02*
X014516Y010695D01*
X014426Y010597D02*
X011215Y010597D01*
X011215Y010498D02*
X014385Y010498D01*
X014375Y010400D02*
X011215Y010400D01*
X011215Y010301D02*
X014386Y010301D01*
X014427Y010203D02*
X013477Y010203D01*
X013576Y010104D02*
X014519Y010104D01*
X013625Y010006D02*
X016045Y010006D01*
X016045Y010104D02*
X015492Y010104D01*
X016045Y009907D02*
X013625Y009907D01*
X013625Y009808D02*
X016045Y009808D01*
X016465Y011188D02*
X017435Y011188D01*
X017392Y011287D02*
X016465Y011287D01*
X016465Y011385D02*
X017375Y011385D01*
X017379Y011484D02*
X016465Y011484D01*
X016465Y011582D02*
X017420Y011582D01*
X017502Y011681D02*
X016465Y011681D01*
X016465Y011779D02*
X019837Y011779D01*
X019935Y011878D02*
X016465Y011878D01*
X016465Y011976D02*
X019967Y011976D01*
X019967Y012075D02*
X018445Y012075D01*
X018475Y012088D02*
X018339Y012031D01*
X017672Y012031D01*
X017536Y012088D01*
X017432Y012192D01*
X017375Y012328D01*
X017375Y012475D01*
X017432Y012611D01*
X017536Y012715D01*
X017672Y012771D01*
X018339Y012771D01*
X018475Y012715D01*
X018579Y012611D01*
X019418Y012611D01*
X019467Y012660D01*
X019467Y012875D01*
X019532Y012939D01*
X019979Y012939D01*
X020044Y012875D01*
X020044Y012427D01*
X019979Y012363D01*
X019764Y012363D01*
X019592Y012191D01*
X019418Y012191D01*
X018579Y012191D01*
X018475Y012088D01*
X018561Y012173D02*
X020016Y012173D01*
X019987Y012371D02*
X020545Y012371D01*
X020545Y012469D02*
X020044Y012469D01*
X020044Y012568D02*
X020545Y012568D01*
X020545Y012666D02*
X020044Y012666D01*
X020044Y012765D02*
X020545Y012765D01*
X020545Y012863D02*
X020044Y012863D01*
X020545Y012962D02*
X017294Y012962D01*
X017294Y013060D02*
X017517Y013060D01*
X017531Y013051D02*
X017588Y013021D01*
X017649Y013001D01*
X017713Y012991D01*
X017975Y012991D01*
X017975Y013371D01*
X017335Y013371D01*
X017335Y013369D01*
X017346Y013305D01*
X017365Y013244D01*
X017395Y013186D01*
X017433Y013134D01*
X017478Y013088D01*
X017531Y013051D01*
X017415Y013159D02*
X017259Y013159D01*
X017215Y013257D02*
X017361Y013257D01*
X017337Y013356D02*
X017215Y013356D01*
X017215Y013455D02*
X017339Y013455D01*
X017335Y013433D02*
X017346Y013497D01*
X017365Y013559D01*
X017395Y013616D01*
X017433Y013668D01*
X017478Y013714D01*
X017531Y013752D01*
X017588Y013781D01*
X017649Y013801D01*
X017713Y013811D01*
X017975Y013811D01*
X017975Y013431D01*
X017975Y013371D01*
X018035Y013371D01*
X018035Y012991D01*
X018298Y012991D01*
X018361Y013001D01*
X018423Y013021D01*
X018480Y013051D01*
X018533Y013088D01*
X018578Y013134D01*
X018616Y013186D01*
X018645Y013244D01*
X018665Y013305D01*
X018675Y013369D01*
X018675Y013371D01*
X018036Y013371D01*
X018036Y013431D01*
X018675Y013431D01*
X018675Y013433D01*
X018665Y013497D01*
X018645Y013559D01*
X018616Y013616D01*
X018578Y013668D01*
X018533Y013714D01*
X018480Y013752D01*
X018423Y013781D01*
X018361Y013801D01*
X018298Y013811D01*
X018035Y013811D01*
X018035Y013431D01*
X017975Y013431D01*
X017335Y013431D01*
X017335Y013433D01*
X017364Y013553D02*
X017215Y013553D01*
X017215Y013652D02*
X017421Y013652D01*
X017528Y013750D02*
X017215Y013750D01*
X017250Y013849D02*
X020545Y013849D01*
X020545Y013947D02*
X017348Y013947D01*
X017447Y014046D02*
X020545Y014046D01*
X020545Y014144D02*
X017465Y014144D01*
X017465Y014243D02*
X020545Y014243D01*
X020545Y014341D02*
X017465Y014341D01*
X017465Y014440D02*
X020545Y014440D01*
X020596Y014539D02*
X017473Y014539D01*
X017038Y014539D02*
X016473Y014539D01*
X016571Y014637D02*
X016940Y014637D01*
X016845Y014736D02*
X016665Y014736D01*
X016665Y014834D02*
X016845Y014834D01*
X016845Y014933D02*
X016665Y014933D01*
X016665Y015031D02*
X016845Y015031D01*
X016904Y015130D02*
X016607Y015130D01*
X016508Y015228D02*
X017003Y015228D01*
X017205Y015524D02*
X017305Y015524D01*
X017305Y015622D02*
X017205Y015622D01*
X017205Y015721D02*
X017305Y015721D01*
X017760Y017002D02*
X012715Y017002D01*
X012715Y017101D02*
X017689Y017101D01*
X017655Y017199D02*
X012715Y017199D01*
X012715Y017298D02*
X017655Y017298D01*
X017687Y017396D02*
X015245Y017396D01*
X015204Y017354D02*
X015302Y017453D01*
X015355Y017582D01*
X015355Y017721D01*
X015302Y017849D01*
X015204Y017948D01*
X015075Y018001D01*
X014936Y018001D01*
X014807Y017948D01*
X014709Y017849D01*
X014655Y017721D01*
X014655Y017582D01*
X014709Y017453D01*
X014807Y017354D01*
X014936Y017301D01*
X015075Y017301D01*
X015204Y017354D01*
X015319Y017495D02*
X017754Y017495D01*
X017917Y017593D02*
X015355Y017593D01*
X015355Y017692D02*
X019467Y017692D01*
X019467Y017790D02*
X018240Y017790D01*
X018204Y017754D02*
X018302Y017853D01*
X018355Y017982D01*
X018355Y018121D01*
X018302Y018249D01*
X018204Y018348D01*
X018075Y018401D01*
X017936Y018401D01*
X017807Y018348D01*
X017709Y018249D01*
X017655Y018121D01*
X017655Y017982D01*
X017709Y017853D01*
X017807Y017754D01*
X017936Y017701D01*
X018075Y017701D01*
X018204Y017754D01*
X018317Y017889D02*
X019481Y017889D01*
X019545Y017988D02*
X018355Y017988D01*
X018355Y018086D02*
X019545Y018086D01*
X019545Y018185D02*
X018329Y018185D01*
X018268Y018283D02*
X019545Y018283D01*
X019478Y018382D02*
X018122Y018382D01*
X017889Y018382D02*
X017248Y018382D01*
X017682Y018185D02*
X012715Y018185D01*
X012715Y018283D02*
X017742Y018283D01*
X017655Y018086D02*
X012715Y018086D01*
X012715Y017988D02*
X014903Y017988D01*
X014748Y017889D02*
X012715Y017889D01*
X012715Y017790D02*
X014684Y017790D01*
X014655Y017692D02*
X012715Y017692D01*
X012715Y017593D02*
X014655Y017593D01*
X014691Y017495D02*
X012715Y017495D01*
X012715Y017396D02*
X014765Y017396D01*
X015327Y017790D02*
X017771Y017790D01*
X017694Y017889D02*
X015263Y017889D01*
X015108Y017988D02*
X017655Y017988D01*
X018094Y017593D02*
X019467Y017593D01*
X019467Y017495D02*
X018257Y017495D01*
X018324Y017396D02*
X019499Y017396D01*
X019965Y018185D02*
X022605Y018185D01*
X022605Y018283D02*
X022314Y018283D01*
X022291Y018266D02*
X022349Y018308D01*
X022399Y018358D01*
X022440Y018415D01*
X022472Y018478D01*
X022494Y018546D01*
X022503Y018601D01*
X021806Y018601D01*
X021806Y018701D01*
X022503Y018701D01*
X022494Y018757D01*
X022472Y018824D01*
X022440Y018887D01*
X022399Y018944D01*
X022349Y018994D01*
X022291Y019036D01*
X022228Y019068D01*
X022161Y019090D01*
X022091Y019101D01*
X021805Y019101D01*
X021805Y018701D01*
X021705Y018701D01*
X021705Y018601D01*
X021008Y018601D01*
X021016Y018546D01*
X021038Y018478D01*
X021071Y018415D01*
X021112Y018358D01*
X021162Y018308D01*
X021220Y018266D01*
X021283Y018234D01*
X021350Y018212D01*
X021420Y018201D01*
X021705Y018201D01*
X021705Y018601D01*
X021805Y018601D01*
X021805Y018201D01*
X022091Y018201D01*
X022161Y018212D01*
X022228Y018234D01*
X022291Y018266D01*
X022416Y018382D02*
X022605Y018382D01*
X022605Y018480D02*
X022473Y018480D01*
X022500Y018579D02*
X022605Y018579D01*
X022605Y018677D02*
X021806Y018677D01*
X021805Y018579D02*
X021705Y018579D01*
X021705Y018677D02*
X019776Y018677D01*
X019875Y018579D02*
X021011Y018579D01*
X021038Y018480D02*
X019965Y018480D01*
X019965Y018382D02*
X021095Y018382D01*
X021196Y018283D02*
X019965Y018283D01*
X019678Y018776D02*
X021023Y018776D01*
X021016Y018757D02*
X021038Y018824D01*
X021071Y018887D01*
X021112Y018944D01*
X021162Y018994D01*
X021220Y019036D01*
X021283Y019068D01*
X021350Y019090D01*
X021420Y019101D01*
X021705Y019101D01*
X021705Y018701D01*
X021008Y018701D01*
X021016Y018757D01*
X021064Y018874D02*
X017294Y018874D01*
X016717Y018874D02*
X016294Y018874D01*
X016294Y018776D02*
X016717Y018776D01*
X016717Y018677D02*
X016294Y018677D01*
X016294Y018579D02*
X016717Y018579D01*
X016717Y018480D02*
X016294Y018480D01*
X016248Y018382D02*
X016763Y018382D01*
X015763Y018382D02*
X012715Y018382D01*
X012715Y018480D02*
X015129Y018480D01*
X015031Y018579D02*
X012715Y018579D01*
X012715Y018677D02*
X014932Y018677D01*
X014834Y018776D02*
X012715Y018776D01*
X012776Y018874D02*
X013009Y018874D01*
X013502Y018874D02*
X014735Y018874D01*
X015034Y019170D02*
X022605Y019170D01*
X022605Y019071D02*
X022218Y019071D01*
X022370Y018973D02*
X022605Y018973D01*
X022605Y018874D02*
X022447Y018874D01*
X022488Y018776D02*
X022605Y018776D01*
X022605Y019269D02*
X014935Y019269D01*
X015132Y019071D02*
X021293Y019071D01*
X021141Y018973D02*
X015231Y018973D01*
X015329Y018874D02*
X015717Y018874D01*
X013563Y019367D02*
X022605Y019367D01*
X022605Y019466D02*
X013464Y019466D01*
X013047Y019466D02*
X011964Y019466D01*
X012063Y019367D02*
X012948Y019367D01*
X012576Y019269D02*
X012125Y019269D01*
X012125Y019170D02*
X012477Y019170D01*
X012379Y019071D02*
X012125Y019071D01*
X012100Y018973D02*
X012295Y018973D01*
X012295Y018874D02*
X012002Y018874D01*
X012295Y018776D02*
X008665Y018776D01*
X008665Y018821D02*
X008665Y018681D01*
X008286Y018681D01*
X008286Y018621D01*
X008665Y018621D01*
X008665Y018481D01*
X008425Y018241D01*
X008285Y018241D01*
X008285Y018621D01*
X008225Y018621D01*
X007845Y018621D01*
X007845Y018481D01*
X008086Y018241D01*
X008225Y018241D01*
X008225Y018621D01*
X008225Y018681D01*
X007845Y018681D01*
X007845Y018821D01*
X008086Y019061D01*
X008225Y019061D01*
X008225Y018681D01*
X008285Y018681D01*
X008285Y019061D01*
X008425Y019061D01*
X008665Y018821D01*
X008612Y018874D02*
X011509Y018874D01*
X011410Y018973D02*
X008513Y018973D01*
X008285Y018973D02*
X008225Y018973D01*
X008225Y018874D02*
X008285Y018874D01*
X008285Y018776D02*
X008225Y018776D01*
X008225Y018677D02*
X006625Y018677D01*
X006625Y018579D02*
X007845Y018579D01*
X007847Y018480D02*
X006608Y018480D01*
X006625Y018498D02*
X006409Y018281D01*
X006102Y018281D01*
X005885Y018498D01*
X005885Y018804D01*
X006102Y019021D01*
X006409Y019021D01*
X006625Y018804D01*
X006625Y018498D01*
X006509Y018382D02*
X007945Y018382D01*
X008044Y018283D02*
X006411Y018283D01*
X006100Y018283D02*
X004955Y018283D01*
X004887Y018311D02*
X004124Y018311D01*
X003973Y018249D01*
X003858Y018133D01*
X003795Y017983D01*
X003795Y017820D01*
X003858Y017669D01*
X003973Y017554D01*
X004124Y017491D01*
X004887Y017491D01*
X005038Y017554D01*
X005153Y017669D01*
X005215Y017820D01*
X005215Y017983D01*
X005153Y018133D01*
X005038Y018249D01*
X004887Y018311D01*
X004887Y018491D02*
X005038Y018554D01*
X005153Y018669D01*
X005215Y018820D01*
X005215Y018983D01*
X005153Y019133D01*
X005038Y019249D01*
X004887Y019311D01*
X004124Y019311D01*
X003973Y019249D01*
X003858Y019133D01*
X003795Y018983D01*
X003795Y018820D01*
X003858Y018669D01*
X003973Y018554D01*
X004124Y018491D01*
X004887Y018491D01*
X005063Y018579D02*
X005885Y018579D01*
X005885Y018677D02*
X005156Y018677D01*
X005197Y018776D02*
X005885Y018776D01*
X005955Y018874D02*
X005215Y018874D01*
X005215Y018973D02*
X006054Y018973D01*
X006457Y018973D02*
X007997Y018973D01*
X007899Y018874D02*
X006555Y018874D01*
X006625Y018776D02*
X007845Y018776D01*
X008225Y018579D02*
X008285Y018579D01*
X008286Y018677D02*
X012295Y018677D01*
X012295Y018579D02*
X008665Y018579D01*
X008664Y018480D02*
X009561Y018480D01*
X009602Y018521D02*
X009385Y018304D01*
X009385Y017998D01*
X009602Y017781D01*
X009909Y017781D01*
X010125Y017998D01*
X010125Y018304D01*
X009909Y018521D01*
X009602Y018521D01*
X009463Y018382D02*
X008566Y018382D01*
X008467Y018283D02*
X009385Y018283D01*
X009385Y018185D02*
X005102Y018185D01*
X005173Y018086D02*
X009385Y018086D01*
X009396Y017988D02*
X005213Y017988D01*
X005215Y017889D02*
X009494Y017889D01*
X009593Y017790D02*
X005203Y017790D01*
X005162Y017692D02*
X010135Y017692D01*
X010135Y017790D02*
X009918Y017790D01*
X010016Y017889D02*
X010220Y017889D01*
X010135Y017804D02*
X010135Y017498D01*
X010352Y017281D01*
X010659Y017281D01*
X010875Y017498D01*
X010875Y017804D01*
X010659Y018021D01*
X010352Y018021D01*
X010135Y017804D01*
X010115Y017988D02*
X010319Y017988D01*
X010125Y018086D02*
X012295Y018086D01*
X012295Y017988D02*
X010692Y017988D01*
X010791Y017889D02*
X012295Y017889D01*
X012295Y017790D02*
X010875Y017790D01*
X010875Y017692D02*
X012295Y017692D01*
X012295Y017593D02*
X010875Y017593D01*
X010872Y017495D02*
X012295Y017495D01*
X012295Y017396D02*
X010774Y017396D01*
X010675Y017298D02*
X012295Y017298D01*
X012295Y017199D02*
X010165Y017199D01*
X010165Y017181D02*
X010165Y017321D01*
X009925Y017561D01*
X009785Y017561D01*
X009785Y017181D01*
X009725Y017181D01*
X009725Y017121D01*
X009345Y017121D01*
X009345Y016981D01*
X009586Y016741D01*
X009725Y016741D01*
X009725Y017121D01*
X009785Y017121D01*
X009785Y016741D01*
X009925Y016741D01*
X010165Y016981D01*
X010165Y017121D01*
X009786Y017121D01*
X009786Y017181D01*
X010165Y017181D01*
X010165Y017101D02*
X012295Y017101D01*
X012295Y017002D02*
X010165Y017002D01*
X010088Y016904D02*
X012295Y016904D01*
X012295Y016805D02*
X009989Y016805D01*
X009785Y016805D02*
X009725Y016805D01*
X009725Y016904D02*
X009785Y016904D01*
X009785Y017002D02*
X009725Y017002D01*
X009725Y017101D02*
X009785Y017101D01*
X009785Y017199D02*
X009725Y017199D01*
X009725Y017181D02*
X009725Y017561D01*
X009586Y017561D01*
X009345Y017321D01*
X009345Y017181D01*
X009725Y017181D01*
X009725Y017298D02*
X009785Y017298D01*
X009785Y017396D02*
X009725Y017396D01*
X009725Y017495D02*
X009785Y017495D01*
X009992Y017495D02*
X010139Y017495D01*
X010135Y017593D02*
X005077Y017593D01*
X004896Y017495D02*
X006076Y017495D01*
X006102Y017521D02*
X005885Y017304D01*
X005885Y016998D01*
X006102Y016781D01*
X006409Y016781D01*
X006625Y016998D01*
X006625Y017304D01*
X006409Y017521D01*
X006102Y017521D01*
X005977Y017396D02*
X003405Y017396D01*
X003405Y017298D02*
X003993Y017298D01*
X003970Y017286D02*
X003912Y017244D01*
X003862Y017194D01*
X003821Y017137D01*
X003788Y017074D01*
X003766Y017007D01*
X003758Y016951D01*
X004455Y016951D01*
X004455Y016851D01*
X003758Y016851D01*
X003766Y016796D01*
X003788Y016728D01*
X003821Y016665D01*
X003862Y016608D01*
X003912Y016558D01*
X003970Y016516D01*
X004033Y016484D01*
X004100Y016462D01*
X004170Y016451D01*
X004455Y016451D01*
X004455Y016851D01*
X004555Y016851D01*
X004555Y016451D01*
X004841Y016451D01*
X004911Y016462D01*
X004978Y016484D01*
X005041Y016516D01*
X005099Y016558D01*
X005149Y016608D01*
X005190Y016665D01*
X005222Y016728D01*
X005244Y016796D01*
X005253Y016851D01*
X004556Y016851D01*
X004556Y016951D01*
X005253Y016951D01*
X005244Y017007D01*
X005222Y017074D01*
X005190Y017137D01*
X005149Y017194D01*
X005099Y017244D01*
X005041Y017286D01*
X004978Y017318D01*
X004911Y017340D01*
X004841Y017351D01*
X004555Y017351D01*
X004555Y016951D01*
X004455Y016951D01*
X004455Y017351D01*
X004170Y017351D01*
X004100Y017340D01*
X004033Y017318D01*
X003970Y017286D01*
X003867Y017199D02*
X003405Y017199D01*
X003405Y017101D02*
X003802Y017101D01*
X003766Y017002D02*
X003405Y017002D01*
X003405Y016904D02*
X004455Y016904D01*
X004455Y017002D02*
X004555Y017002D01*
X004556Y016904D02*
X005980Y016904D01*
X005885Y017002D02*
X005245Y017002D01*
X005209Y017101D02*
X005885Y017101D01*
X005885Y017199D02*
X005144Y017199D01*
X005018Y017298D02*
X005885Y017298D01*
X006078Y016805D02*
X005246Y016805D01*
X005211Y016706D02*
X012295Y016706D01*
X012295Y016608D02*
X005149Y016608D01*
X005028Y016509D02*
X012295Y016509D01*
X012295Y016411D02*
X003405Y016411D01*
X003405Y016509D02*
X003983Y016509D01*
X003862Y016608D02*
X003405Y016608D01*
X003405Y016706D02*
X003800Y016706D01*
X003765Y016805D02*
X003405Y016805D01*
X003405Y016312D02*
X012295Y016312D01*
X012295Y016214D02*
X003405Y016214D01*
X003405Y016115D02*
X012295Y016115D01*
X012295Y016017D02*
X003405Y016017D01*
X003405Y015918D02*
X012295Y015918D01*
X012295Y015820D02*
X003405Y015820D01*
X003405Y015721D02*
X003995Y015721D01*
X003897Y015622D02*
X003405Y015622D01*
X003405Y015524D02*
X003845Y015524D01*
X003845Y015425D02*
X003405Y015425D01*
X003405Y015327D02*
X003845Y015327D01*
X003848Y015228D02*
X003405Y015228D01*
X003405Y015130D02*
X003947Y015130D01*
X004046Y015031D02*
X003405Y015031D01*
X004455Y016509D02*
X004555Y016509D01*
X004555Y016608D02*
X004455Y016608D01*
X004455Y016706D02*
X004555Y016706D01*
X004555Y016805D02*
X004455Y016805D01*
X004455Y017101D02*
X004555Y017101D01*
X004555Y017199D02*
X004455Y017199D01*
X004455Y017298D02*
X004555Y017298D01*
X004115Y017495D02*
X003405Y017495D01*
X003405Y017593D02*
X003933Y017593D01*
X003848Y017692D02*
X003405Y017692D01*
X003405Y017790D02*
X003807Y017790D01*
X003795Y017889D02*
X003405Y017889D01*
X003405Y017988D02*
X003797Y017988D01*
X003838Y018086D02*
X003405Y018086D01*
X003405Y018185D02*
X003909Y018185D01*
X004056Y018283D02*
X003405Y018283D01*
X003405Y018382D02*
X006002Y018382D01*
X005903Y018480D02*
X003405Y018480D01*
X003405Y018579D02*
X003948Y018579D01*
X003854Y018677D02*
X003405Y018677D01*
X003405Y018776D02*
X003814Y018776D01*
X003795Y018874D02*
X003405Y018874D01*
X003405Y018973D02*
X003795Y018973D01*
X003832Y019071D02*
X003405Y019071D01*
X003405Y019170D02*
X003894Y019170D01*
X004021Y019269D02*
X003405Y019269D01*
X003405Y019367D02*
X011448Y019367D01*
X011385Y019269D02*
X004990Y019269D01*
X005116Y019170D02*
X011385Y019170D01*
X011385Y019071D02*
X005179Y019071D01*
X003405Y019466D02*
X011547Y019466D01*
X012295Y018480D02*
X009950Y018480D01*
X010048Y018382D02*
X012295Y018382D01*
X012295Y018283D02*
X010125Y018283D01*
X010125Y018185D02*
X012295Y018185D01*
X010336Y017298D02*
X010165Y017298D01*
X010237Y017396D02*
X010090Y017396D01*
X009519Y017495D02*
X008492Y017495D01*
X008425Y017561D02*
X008665Y017321D01*
X008665Y017181D01*
X008286Y017181D01*
X008286Y017121D01*
X008665Y017121D01*
X008665Y016981D01*
X008425Y016741D01*
X008285Y016741D01*
X008285Y017121D01*
X008225Y017121D01*
X007845Y017121D01*
X007845Y016981D01*
X008086Y016741D01*
X008225Y016741D01*
X008225Y017121D01*
X008225Y017181D01*
X007845Y017181D01*
X007845Y017321D01*
X008086Y017561D01*
X008225Y017561D01*
X008225Y017181D01*
X008285Y017181D01*
X008285Y017561D01*
X008425Y017561D01*
X008285Y017495D02*
X008225Y017495D01*
X008225Y017396D02*
X008285Y017396D01*
X008285Y017298D02*
X008225Y017298D01*
X008225Y017199D02*
X008285Y017199D01*
X008285Y017101D02*
X008225Y017101D01*
X008225Y017002D02*
X008285Y017002D01*
X008285Y016904D02*
X008225Y016904D01*
X008225Y016805D02*
X008285Y016805D01*
X008489Y016805D02*
X009522Y016805D01*
X009423Y016904D02*
X008588Y016904D01*
X008665Y017002D02*
X009345Y017002D01*
X009345Y017101D02*
X008665Y017101D01*
X008665Y017199D02*
X009345Y017199D01*
X009345Y017298D02*
X008665Y017298D01*
X008590Y017396D02*
X009421Y017396D01*
X008285Y018283D02*
X008225Y018283D01*
X008225Y018382D02*
X008285Y018382D01*
X008285Y018480D02*
X008225Y018480D01*
X008019Y017495D02*
X006435Y017495D01*
X006534Y017396D02*
X007921Y017396D01*
X007845Y017298D02*
X006625Y017298D01*
X006625Y017199D02*
X007845Y017199D01*
X007845Y017101D02*
X006625Y017101D01*
X006625Y017002D02*
X007845Y017002D01*
X007923Y016904D02*
X006531Y016904D01*
X006432Y016805D02*
X008022Y016805D01*
X008025Y013750D02*
X006430Y013750D01*
X006528Y013652D02*
X007926Y013652D01*
X007845Y013553D02*
X006625Y013553D01*
X006625Y013455D02*
X007845Y013455D01*
X007845Y013356D02*
X006625Y013356D01*
X006625Y013257D02*
X007845Y013257D01*
X007918Y013159D02*
X006536Y013159D01*
X006438Y013060D02*
X008016Y013060D01*
X010023Y010498D02*
X004488Y010498D01*
X004587Y010400D02*
X009924Y010400D01*
X009845Y010301D02*
X004665Y010301D01*
X004665Y010203D02*
X009845Y010203D01*
X009845Y010104D02*
X004665Y010104D01*
X004665Y010006D02*
X009845Y010006D01*
X009920Y009907D02*
X004591Y009907D01*
X004492Y009808D02*
X010018Y009808D01*
X010492Y009808D02*
X011051Y009808D01*
X010953Y009907D02*
X010591Y009907D01*
X010587Y010400D02*
X010795Y010400D01*
X010795Y010498D02*
X010488Y010498D01*
X011251Y010203D02*
X011534Y010203D01*
X011977Y010203D02*
X013034Y010203D01*
X012935Y010104D02*
X012076Y010104D01*
X012125Y010006D02*
X012885Y010006D01*
X012885Y009907D02*
X012125Y009907D01*
X012125Y009808D02*
X012885Y009808D01*
X013489Y009611D02*
X013625Y009748D01*
X013561Y009119D02*
X013991Y009119D01*
X014045Y009020D02*
X013683Y009020D01*
X013782Y008922D02*
X014045Y008922D01*
X014045Y008823D02*
X013881Y008823D01*
X013965Y008724D02*
X014045Y008724D01*
X014045Y008626D02*
X013965Y008626D01*
X013965Y008527D02*
X014045Y008527D01*
X014045Y008429D02*
X013965Y008429D01*
X013965Y008330D02*
X014045Y008330D01*
X014045Y008232D02*
X013965Y008232D01*
X013965Y008133D02*
X014045Y008133D01*
X014045Y008035D02*
X013965Y008035D01*
X013965Y007936D02*
X014045Y007936D01*
X014045Y007838D02*
X013965Y007838D01*
X013965Y007739D02*
X014045Y007739D01*
X014045Y007640D02*
X013965Y007640D01*
X013965Y007542D02*
X014045Y007542D01*
X014045Y007443D02*
X013965Y007443D01*
X013965Y007345D02*
X014045Y007345D01*
X014045Y007246D02*
X013965Y007246D01*
X013965Y007148D02*
X014045Y007148D01*
X014045Y007049D02*
X013965Y007049D01*
X013965Y006951D02*
X014045Y006951D01*
X014045Y006852D02*
X013965Y006852D01*
X013965Y006754D02*
X014106Y006754D01*
X014205Y006655D02*
X013965Y006655D01*
X013965Y006556D02*
X014303Y006556D01*
X014402Y006458D02*
X013965Y006458D01*
X013965Y006359D02*
X014667Y006359D01*
X014826Y006261D02*
X013965Y006261D01*
X014041Y006162D02*
X017295Y006162D01*
X017295Y006064D02*
X014140Y006064D01*
X014238Y005965D02*
X017273Y005965D01*
X017174Y005867D02*
X014337Y005867D01*
X015684Y006261D02*
X017295Y006261D01*
X017274Y006359D02*
X015843Y006359D01*
X015919Y006458D02*
X016652Y006458D01*
X016553Y006556D02*
X015960Y006556D01*
X015965Y006655D02*
X016455Y006655D01*
X016356Y006754D02*
X015957Y006754D01*
X015916Y006852D02*
X016257Y006852D01*
X016159Y006951D02*
X015836Y006951D01*
X015666Y007049D02*
X016060Y007049D01*
X016753Y006951D02*
X017282Y006951D01*
X018715Y006359D02*
X022605Y006359D01*
X022605Y006261D02*
X018715Y006261D01*
X018715Y006162D02*
X022605Y006162D01*
X022605Y006064D02*
X018715Y006064D01*
X018715Y005965D02*
X022605Y005965D01*
X022605Y005867D02*
X018715Y005867D01*
X018715Y005768D02*
X022605Y005768D01*
X022605Y005670D02*
X018715Y005670D01*
X018715Y005571D02*
X022605Y005571D01*
X022605Y005473D02*
X018715Y005473D01*
X018715Y005374D02*
X022605Y005374D01*
X022605Y005275D02*
X018715Y005275D01*
X018753Y005177D02*
X022605Y005177D01*
X022605Y005078D02*
X018851Y005078D01*
X018875Y004980D02*
X022605Y004980D01*
X022605Y004881D02*
X018875Y004881D01*
X018875Y004783D02*
X022605Y004783D01*
X022605Y004684D02*
X018812Y004684D01*
X018713Y004586D02*
X022605Y004586D01*
X022605Y003699D02*
X013981Y003699D01*
X014080Y003600D02*
X022605Y003600D01*
X022605Y003502D02*
X014125Y003502D01*
X014125Y003403D02*
X022605Y003403D01*
X022605Y003305D02*
X014125Y003305D01*
X014084Y003206D02*
X022605Y003206D01*
X022605Y001925D02*
X022311Y001925D01*
X022410Y001826D02*
X022605Y001826D01*
X022605Y001728D02*
X022415Y001728D01*
X022605Y001235D02*
X018695Y001235D01*
X018659Y001271D02*
X018352Y001271D01*
X018135Y001054D01*
X018135Y000748D01*
X018352Y000531D01*
X018659Y000531D01*
X018875Y000748D01*
X018875Y001054D01*
X018659Y001271D01*
X018793Y001137D02*
X022605Y001137D01*
X022605Y001038D02*
X018875Y001038D01*
X018875Y000940D02*
X022605Y000940D01*
X022605Y000841D02*
X018875Y000841D01*
X018870Y000742D02*
X022605Y000742D01*
X022605Y000644D02*
X018771Y000644D01*
X018673Y000545D02*
X022605Y000545D01*
X022605Y000447D02*
X003405Y000447D01*
X003405Y000545D02*
X015338Y000545D01*
X015673Y000545D02*
X016838Y000545D01*
X016852Y000531D02*
X017159Y000531D01*
X017375Y000748D01*
X017375Y001054D01*
X017159Y001271D01*
X016852Y001271D01*
X016635Y001054D01*
X016635Y000748D01*
X016852Y000531D01*
X016739Y000644D02*
X015771Y000644D01*
X015870Y000742D02*
X016641Y000742D01*
X016635Y000841D02*
X015875Y000841D01*
X015875Y000940D02*
X016635Y000940D01*
X016635Y001038D02*
X015875Y001038D01*
X015793Y001137D02*
X016718Y001137D01*
X016816Y001235D02*
X015695Y001235D01*
X015316Y001235D02*
X014165Y001235D01*
X014165Y001231D02*
X014165Y001371D01*
X013786Y001371D01*
X013786Y001431D01*
X014165Y001431D01*
X014165Y001571D01*
X013925Y001811D01*
X013785Y001811D01*
X013785Y001431D01*
X013725Y001431D01*
X013725Y001371D01*
X013345Y001371D01*
X013345Y001231D01*
X013586Y000991D01*
X013725Y000991D01*
X013725Y001371D01*
X013785Y001371D01*
X013785Y000991D01*
X013925Y000991D01*
X014165Y001231D01*
X014165Y001334D02*
X019800Y001334D01*
X019701Y001432D02*
X014165Y001432D01*
X014165Y001531D02*
X019635Y001531D01*
X019635Y001629D02*
X014107Y001629D01*
X014009Y001728D02*
X019635Y001728D01*
X020211Y001334D02*
X021743Y001334D01*
X022605Y000348D02*
X003405Y000348D01*
X007051Y002221D02*
X007051Y002221D01*
X007051Y002221D01*
X006975Y005374D02*
X007035Y005374D01*
X007035Y005473D02*
X006975Y005473D01*
X006975Y005571D02*
X007035Y005571D01*
X007035Y005670D02*
X006975Y005670D01*
X006975Y005867D02*
X007035Y005867D01*
X007035Y005965D02*
X006975Y005965D01*
X006975Y006064D02*
X007035Y006064D01*
X006715Y007838D02*
X010296Y007838D01*
X010197Y007936D02*
X006814Y007936D01*
X006875Y008035D02*
X010135Y008035D01*
X010135Y008133D02*
X006875Y008133D01*
X006875Y008232D02*
X010135Y008232D01*
X010161Y008330D02*
X006850Y008330D01*
X005013Y007739D02*
X004441Y007739D01*
X004539Y007640D02*
X004915Y007640D01*
X004845Y007542D02*
X004625Y007542D01*
X004625Y007443D02*
X004845Y007443D01*
X004845Y007345D02*
X004625Y007345D01*
X004624Y007246D02*
X004845Y007246D01*
X004929Y007148D02*
X004525Y007148D01*
X004427Y007049D02*
X005028Y007049D01*
X010715Y007838D02*
X013545Y007838D01*
X013545Y007936D02*
X010814Y007936D01*
X010875Y008035D02*
X013545Y008035D01*
X013545Y008133D02*
X010875Y008133D01*
X010875Y008232D02*
X013545Y008232D01*
X013545Y008330D02*
X010850Y008330D01*
X010751Y008429D02*
X013545Y008429D01*
X013545Y008527D02*
X010715Y008527D01*
X010715Y008626D02*
X011507Y008626D01*
X011409Y008724D02*
X010715Y008724D01*
X010715Y008823D02*
X011385Y008823D01*
X011385Y008922D02*
X010715Y008922D01*
X010715Y009020D02*
X011385Y009020D01*
X011450Y009119D02*
X010770Y009119D01*
X012061Y009119D02*
X012950Y009119D01*
X012885Y009020D02*
X012125Y009020D01*
X012125Y008922D02*
X012885Y008922D01*
X012885Y008823D02*
X012125Y008823D01*
X012102Y008724D02*
X012909Y008724D01*
X013007Y008626D02*
X012003Y008626D01*
X011989Y009611D02*
X012125Y009748D01*
X011990Y007246D02*
X013021Y007246D01*
X012922Y007148D02*
X012089Y007148D01*
X012165Y007049D02*
X012845Y007049D01*
X012845Y006951D02*
X012165Y006951D01*
X012165Y006852D02*
X012845Y006852D01*
X012845Y006754D02*
X012165Y006754D01*
X012089Y006655D02*
X012922Y006655D01*
X013020Y006556D02*
X011991Y006556D01*
X012026Y003107D02*
X010985Y003107D01*
X012086Y001811D02*
X011845Y001571D01*
X011845Y001431D01*
X012225Y001431D01*
X012225Y001371D01*
X011845Y001371D01*
X011845Y001231D01*
X012086Y000991D01*
X012225Y000991D01*
X012225Y001371D01*
X012285Y001371D01*
X012285Y000991D01*
X012425Y000991D01*
X012665Y001231D01*
X012665Y001371D01*
X012286Y001371D01*
X012286Y001431D01*
X012665Y001431D01*
X012665Y001571D01*
X012425Y001811D01*
X012285Y001811D01*
X012285Y001431D01*
X012225Y001431D01*
X012225Y001811D01*
X012086Y001811D01*
X012002Y001728D02*
X011009Y001728D01*
X011107Y001629D02*
X011904Y001629D01*
X011845Y001531D02*
X011165Y001531D01*
X011165Y001432D02*
X011845Y001432D01*
X011845Y001334D02*
X011165Y001334D01*
X011165Y001235D02*
X011845Y001235D01*
X011940Y001137D02*
X011071Y001137D01*
X010972Y001038D02*
X012039Y001038D01*
X012225Y001038D02*
X012285Y001038D01*
X012285Y001137D02*
X012225Y001137D01*
X012225Y001235D02*
X012285Y001235D01*
X012285Y001334D02*
X012225Y001334D01*
X012225Y001432D02*
X012285Y001432D01*
X012285Y001531D02*
X012225Y001531D01*
X012225Y001629D02*
X012285Y001629D01*
X012285Y001728D02*
X012225Y001728D01*
X012509Y001728D02*
X013502Y001728D01*
X013586Y001811D02*
X013345Y001571D01*
X013345Y001431D01*
X013725Y001431D01*
X013725Y001811D01*
X013586Y001811D01*
X013725Y001728D02*
X013785Y001728D01*
X013785Y001629D02*
X013725Y001629D01*
X013725Y001531D02*
X013785Y001531D01*
X013785Y001432D02*
X013725Y001432D01*
X013725Y001334D02*
X013785Y001334D01*
X013785Y001235D02*
X013725Y001235D01*
X013725Y001137D02*
X013785Y001137D01*
X013785Y001038D02*
X013725Y001038D01*
X013539Y001038D02*
X012472Y001038D01*
X012571Y001137D02*
X013440Y001137D01*
X013345Y001235D02*
X012665Y001235D01*
X012665Y001334D02*
X013345Y001334D01*
X013345Y001432D02*
X012665Y001432D01*
X012665Y001531D02*
X013345Y001531D01*
X013404Y001629D02*
X012607Y001629D01*
X013972Y001038D02*
X015135Y001038D01*
X015218Y001137D02*
X014071Y001137D01*
X017173Y000545D02*
X018338Y000545D01*
X018239Y000644D02*
X017271Y000644D01*
X017370Y000742D02*
X018141Y000742D01*
X018135Y000841D02*
X017375Y000841D01*
X017375Y000940D02*
X018135Y000940D01*
X018135Y001038D02*
X017375Y001038D01*
X017293Y001137D02*
X018218Y001137D01*
X018316Y001235D02*
X017195Y001235D01*
X021653Y008133D02*
X021538Y008249D01*
X021745Y010006D02*
X022605Y010006D01*
X022605Y010104D02*
X021707Y010104D01*
X021640Y010203D02*
X022605Y010203D01*
X022605Y010301D02*
X021512Y010301D01*
X020565Y011287D02*
X019938Y011287D01*
X020036Y011385D02*
X020795Y011385D01*
X020795Y011484D02*
X020135Y011484D01*
X020233Y011582D02*
X020777Y011582D01*
X020679Y011681D02*
X020544Y011681D01*
X020544Y011779D02*
X020580Y011779D01*
X020544Y011878D02*
X020545Y011878D01*
X020544Y011976D02*
X020545Y011976D01*
X020544Y012075D02*
X020545Y012075D01*
X020545Y012173D02*
X020495Y012173D01*
X020545Y012272D02*
X019673Y012272D01*
X019467Y012666D02*
X018524Y012666D01*
X018355Y012765D02*
X019467Y012765D01*
X019467Y012863D02*
X017294Y012863D01*
X017294Y012765D02*
X017656Y012765D01*
X017487Y012666D02*
X017282Y012666D01*
X017414Y012568D02*
X016465Y012568D01*
X016465Y012666D02*
X016729Y012666D01*
X016717Y012765D02*
X016465Y012765D01*
X016465Y012863D02*
X016717Y012863D01*
X016717Y012962D02*
X016465Y012962D01*
X016465Y013060D02*
X016717Y013060D01*
X016751Y013159D02*
X016465Y013159D01*
X016465Y013257D02*
X016795Y013257D01*
X016795Y013356D02*
X016465Y013356D01*
X016465Y013455D02*
X016795Y013455D01*
X016795Y013553D02*
X016465Y013553D01*
X016465Y013652D02*
X016795Y013652D01*
X016795Y013750D02*
X016465Y013750D01*
X016465Y013849D02*
X016795Y013849D01*
X016795Y013947D02*
X016465Y013947D01*
X016408Y014046D02*
X016853Y014046D01*
X016952Y014144D02*
X016309Y014144D01*
X016211Y014243D02*
X017045Y014243D01*
X017045Y014341D02*
X016112Y014341D01*
X016014Y014440D02*
X017045Y014440D01*
X016038Y014539D02*
X015965Y014539D01*
X015965Y013849D02*
X016011Y013849D01*
X016045Y013750D02*
X015965Y013750D01*
X015965Y013652D02*
X016045Y013652D01*
X016045Y013553D02*
X015965Y013553D01*
X015965Y013455D02*
X016045Y013455D01*
X016045Y013356D02*
X015965Y013356D01*
X015965Y013257D02*
X016045Y013257D01*
X016045Y013159D02*
X015965Y013159D01*
X015965Y013060D02*
X016045Y013060D01*
X016045Y012962D02*
X015965Y012962D01*
X015965Y012863D02*
X016045Y012863D01*
X016045Y012765D02*
X015965Y012765D01*
X015965Y012666D02*
X016045Y012666D01*
X016045Y012568D02*
X015965Y012568D01*
X016045Y012469D02*
X015870Y012469D01*
X015772Y012371D02*
X016045Y012371D01*
X016045Y012272D02*
X015673Y012272D01*
X015561Y012173D02*
X016045Y012173D01*
X016045Y012075D02*
X015445Y012075D01*
X015355Y012765D02*
X015545Y012765D01*
X015538Y013652D02*
X015545Y013652D01*
X015545Y013750D02*
X015390Y013750D01*
X016465Y012469D02*
X017375Y012469D01*
X017375Y012371D02*
X016465Y012371D01*
X016465Y012272D02*
X017398Y012272D01*
X017450Y012173D02*
X016465Y012173D01*
X016465Y012075D02*
X017566Y012075D01*
X018509Y011681D02*
X019738Y011681D01*
X020412Y011188D02*
X018575Y011188D01*
X018494Y013060D02*
X020545Y013060D01*
X020545Y013159D02*
X018596Y013159D01*
X018650Y013257D02*
X020545Y013257D01*
X020545Y013356D02*
X018673Y013356D01*
X018672Y013455D02*
X020545Y013455D01*
X020545Y013553D02*
X018647Y013553D01*
X018590Y013652D02*
X020545Y013652D01*
X020545Y013750D02*
X018483Y013750D01*
X018035Y013750D02*
X017975Y013750D01*
X017975Y013652D02*
X018035Y013652D01*
X018035Y013553D02*
X017975Y013553D01*
X017975Y013455D02*
X018035Y013455D01*
X018035Y013356D02*
X017975Y013356D01*
X017975Y013257D02*
X018035Y013257D01*
X018035Y013159D02*
X017975Y013159D01*
X017975Y013060D02*
X018035Y013060D01*
X015545Y015425D02*
X013504Y015425D01*
X015458Y015524D02*
X015545Y015524D01*
X015785Y015918D02*
X015845Y015918D01*
X015845Y016017D02*
X015687Y016017D01*
X015621Y016115D02*
X015890Y016115D01*
X015988Y016214D02*
X015523Y016214D01*
X020993Y014341D02*
X021185Y014341D01*
X021099Y014440D02*
X021091Y014440D01*
X020965Y014243D02*
X021370Y014243D01*
X021419Y013356D02*
X020965Y013356D01*
X020965Y013257D02*
X021259Y013257D01*
X021160Y013159D02*
X020965Y013159D01*
X020965Y013060D02*
X021081Y013060D01*
X021040Y012962D02*
X020965Y012962D01*
X020965Y012863D02*
X020999Y012863D01*
X020976Y012765D02*
X020965Y012765D01*
X020965Y012666D02*
X020976Y012666D01*
X020965Y012568D02*
X020976Y012568D01*
X020965Y012469D02*
X020987Y012469D01*
X020965Y012371D02*
X021027Y012371D01*
X021068Y012272D02*
X020965Y012272D01*
X020965Y012173D02*
X021130Y012173D01*
X021229Y012075D02*
X020965Y012075D01*
X020977Y011976D02*
X021346Y011976D01*
X021584Y011878D02*
X021076Y011878D01*
X021705Y018283D02*
X021805Y018283D01*
X021805Y018382D02*
X021705Y018382D01*
X021705Y018480D02*
X021805Y018480D01*
X021805Y018776D02*
X021705Y018776D01*
X021705Y018874D02*
X021805Y018874D01*
X021805Y018973D02*
X021705Y018973D01*
X021705Y019071D02*
X021805Y019071D01*
D20*
X019755Y017651D03*
X017005Y018651D03*
X016005Y018651D03*
X017005Y012901D03*
X019755Y012651D03*
X020255Y011901D03*
X017755Y009401D03*
X019505Y008651D03*
M02*
