G75*
G70*
%OFA0B0*%
%FSLAX24Y24*%
%IPPOS*%
%LPD*%
%AMOC8*
5,1,8,0,0,1.08239X$1,22.5*
%
%ADD10C,0.0000*%
D10*
X003003Y000151D02*
X003003Y027651D01*
X020003Y027651D01*
X019996Y000151D01*
X003003Y000151D01*
X010123Y008651D02*
X010125Y008701D01*
X010131Y008751D01*
X010141Y008800D01*
X010155Y008848D01*
X010172Y008895D01*
X010193Y008940D01*
X010218Y008984D01*
X010246Y009025D01*
X010278Y009064D01*
X010312Y009101D01*
X010349Y009135D01*
X010389Y009165D01*
X010431Y009192D01*
X010475Y009216D01*
X010521Y009237D01*
X010568Y009253D01*
X010616Y009266D01*
X010666Y009275D01*
X010715Y009280D01*
X010766Y009281D01*
X010816Y009278D01*
X010865Y009271D01*
X010914Y009260D01*
X010962Y009245D01*
X011008Y009227D01*
X011053Y009205D01*
X011096Y009179D01*
X011137Y009150D01*
X011176Y009118D01*
X011212Y009083D01*
X011244Y009045D01*
X011274Y009005D01*
X011301Y008962D01*
X011324Y008918D01*
X011343Y008872D01*
X011359Y008824D01*
X011371Y008775D01*
X011379Y008726D01*
X011383Y008676D01*
X011383Y008626D01*
X011379Y008576D01*
X011371Y008527D01*
X011359Y008478D01*
X011343Y008430D01*
X011324Y008384D01*
X011301Y008340D01*
X011274Y008297D01*
X011244Y008257D01*
X011212Y008219D01*
X011176Y008184D01*
X011137Y008152D01*
X011096Y008123D01*
X011053Y008097D01*
X011008Y008075D01*
X010962Y008057D01*
X010914Y008042D01*
X010865Y008031D01*
X010816Y008024D01*
X010766Y008021D01*
X010715Y008022D01*
X010666Y008027D01*
X010616Y008036D01*
X010568Y008049D01*
X010521Y008065D01*
X010475Y008086D01*
X010431Y008110D01*
X010389Y008137D01*
X010349Y008167D01*
X010312Y008201D01*
X010278Y008238D01*
X010246Y008277D01*
X010218Y008318D01*
X010193Y008362D01*
X010172Y008407D01*
X010155Y008454D01*
X010141Y008502D01*
X010131Y008551D01*
X010125Y008601D01*
X010123Y008651D01*
X016903Y017151D02*
X016905Y017179D01*
X016911Y017206D01*
X016920Y017232D01*
X016933Y017257D01*
X016950Y017280D01*
X016969Y017300D01*
X016991Y017317D01*
X017015Y017331D01*
X017041Y017341D01*
X017068Y017348D01*
X017096Y017351D01*
X017124Y017350D01*
X017151Y017345D01*
X017178Y017336D01*
X017203Y017324D01*
X017226Y017309D01*
X017247Y017290D01*
X017265Y017269D01*
X017280Y017245D01*
X017291Y017219D01*
X017299Y017193D01*
X017303Y017165D01*
X017303Y017137D01*
X017299Y017109D01*
X017291Y017083D01*
X017280Y017057D01*
X017265Y017033D01*
X017247Y017012D01*
X017226Y016993D01*
X017203Y016978D01*
X017178Y016966D01*
X017151Y016957D01*
X017124Y016952D01*
X017096Y016951D01*
X017068Y016954D01*
X017041Y016961D01*
X017015Y016971D01*
X016991Y016985D01*
X016969Y017002D01*
X016950Y017022D01*
X016933Y017045D01*
X016920Y017070D01*
X016911Y017096D01*
X016905Y017123D01*
X016903Y017151D01*
X017703Y017151D02*
X017705Y017179D01*
X017711Y017206D01*
X017720Y017232D01*
X017733Y017257D01*
X017750Y017280D01*
X017769Y017300D01*
X017791Y017317D01*
X017815Y017331D01*
X017841Y017341D01*
X017868Y017348D01*
X017896Y017351D01*
X017924Y017350D01*
X017951Y017345D01*
X017978Y017336D01*
X018003Y017324D01*
X018026Y017309D01*
X018047Y017290D01*
X018065Y017269D01*
X018080Y017245D01*
X018091Y017219D01*
X018099Y017193D01*
X018103Y017165D01*
X018103Y017137D01*
X018099Y017109D01*
X018091Y017083D01*
X018080Y017057D01*
X018065Y017033D01*
X018047Y017012D01*
X018026Y016993D01*
X018003Y016978D01*
X017978Y016966D01*
X017951Y016957D01*
X017924Y016952D01*
X017896Y016951D01*
X017868Y016954D01*
X017841Y016961D01*
X017815Y016971D01*
X017791Y016985D01*
X017769Y017002D01*
X017750Y017022D01*
X017733Y017045D01*
X017720Y017070D01*
X017711Y017096D01*
X017705Y017123D01*
X017703Y017151D01*
X017303Y020151D02*
X017305Y020179D01*
X017311Y020206D01*
X017320Y020232D01*
X017333Y020257D01*
X017350Y020280D01*
X017369Y020300D01*
X017391Y020317D01*
X017415Y020331D01*
X017441Y020341D01*
X017468Y020348D01*
X017496Y020351D01*
X017524Y020350D01*
X017551Y020345D01*
X017578Y020336D01*
X017603Y020324D01*
X017626Y020309D01*
X017647Y020290D01*
X017665Y020269D01*
X017680Y020245D01*
X017691Y020219D01*
X017699Y020193D01*
X017703Y020165D01*
X017703Y020137D01*
X017699Y020109D01*
X017691Y020083D01*
X017680Y020057D01*
X017665Y020033D01*
X017647Y020012D01*
X017626Y019993D01*
X017603Y019978D01*
X017578Y019966D01*
X017551Y019957D01*
X017524Y019952D01*
X017496Y019951D01*
X017468Y019954D01*
X017441Y019961D01*
X017415Y019971D01*
X017391Y019985D01*
X017369Y020002D01*
X017350Y020022D01*
X017333Y020045D01*
X017320Y020070D01*
X017311Y020096D01*
X017305Y020123D01*
X017303Y020151D01*
X017623Y022901D02*
X017625Y022951D01*
X017631Y023001D01*
X017641Y023050D01*
X017655Y023098D01*
X017672Y023145D01*
X017693Y023190D01*
X017718Y023234D01*
X017746Y023275D01*
X017778Y023314D01*
X017812Y023351D01*
X017849Y023385D01*
X017889Y023415D01*
X017931Y023442D01*
X017975Y023466D01*
X018021Y023487D01*
X018068Y023503D01*
X018116Y023516D01*
X018166Y023525D01*
X018215Y023530D01*
X018266Y023531D01*
X018316Y023528D01*
X018365Y023521D01*
X018414Y023510D01*
X018462Y023495D01*
X018508Y023477D01*
X018553Y023455D01*
X018596Y023429D01*
X018637Y023400D01*
X018676Y023368D01*
X018712Y023333D01*
X018744Y023295D01*
X018774Y023255D01*
X018801Y023212D01*
X018824Y023168D01*
X018843Y023122D01*
X018859Y023074D01*
X018871Y023025D01*
X018879Y022976D01*
X018883Y022926D01*
X018883Y022876D01*
X018879Y022826D01*
X018871Y022777D01*
X018859Y022728D01*
X018843Y022680D01*
X018824Y022634D01*
X018801Y022590D01*
X018774Y022547D01*
X018744Y022507D01*
X018712Y022469D01*
X018676Y022434D01*
X018637Y022402D01*
X018596Y022373D01*
X018553Y022347D01*
X018508Y022325D01*
X018462Y022307D01*
X018414Y022292D01*
X018365Y022281D01*
X018316Y022274D01*
X018266Y022271D01*
X018215Y022272D01*
X018166Y022277D01*
X018116Y022286D01*
X018068Y022299D01*
X018021Y022315D01*
X017975Y022336D01*
X017931Y022360D01*
X017889Y022387D01*
X017849Y022417D01*
X017812Y022451D01*
X017778Y022488D01*
X017746Y022527D01*
X017718Y022568D01*
X017693Y022612D01*
X017672Y022657D01*
X017655Y022704D01*
X017641Y022752D01*
X017631Y022801D01*
X017625Y022851D01*
X017623Y022901D01*
M02*
