G75*
G70*
%OFA0B0*%
%FSLAX24Y24*%
%IPPOS*%
%LPD*%
%AMOC8*
5,1,8,0,0,1.08239X$1,22.5*
%
%ADD10C,0.0000*%
%ADD11C,0.0200*%
%ADD12C,0.0040*%
%ADD13C,0.0030*%
%ADD14C,0.0300*%
%ADD15C,0.0060*%
%ADD16R,0.0200X0.0300*%
%ADD17R,0.0400X0.0300*%
%ADD18C,0.0050*%
%ADD19R,0.0900X0.0250*%
%ADD20C,0.0120*%
%ADD21C,0.0080*%
%ADD22C,0.0100*%
%ADD23R,0.0040X0.0010*%
%ADD24R,0.0020X0.0010*%
%ADD25R,0.0060X0.0010*%
%ADD26R,0.0090X0.0010*%
%ADD27R,0.0080X0.0010*%
%ADD28R,0.0100X0.0010*%
%ADD29R,0.0110X0.0010*%
%ADD30R,0.0120X0.0010*%
%ADD31R,0.0130X0.0010*%
%ADD32R,0.0140X0.0010*%
%ADD33R,0.0150X0.0010*%
%ADD34R,0.0160X0.0010*%
%ADD35R,0.0170X0.0010*%
%ADD36R,0.0180X0.0010*%
%ADD37R,0.0190X0.0010*%
%ADD38R,0.0200X0.0010*%
%ADD39R,0.0220X0.0010*%
%ADD40R,0.0210X0.0010*%
%ADD41R,0.0230X0.0010*%
%ADD42R,0.0240X0.0010*%
%ADD43R,0.0260X0.0010*%
%ADD44R,0.0250X0.0010*%
%ADD45R,0.0280X0.0010*%
%ADD46R,0.0270X0.0010*%
%ADD47R,0.0290X0.0010*%
%ADD48R,0.0300X0.0010*%
%ADD49R,0.0320X0.0010*%
%ADD50R,0.0310X0.0010*%
%ADD51R,0.0330X0.0010*%
%ADD52R,0.0340X0.0010*%
%ADD53R,0.0350X0.0010*%
%ADD54R,0.0360X0.0010*%
%ADD55R,0.0070X0.0010*%
%ADD56R,0.0030X0.0010*%
%ADD57R,0.0050X0.0010*%
%ADD58R,0.0010X0.0010*%
%ADD59R,0.0370X0.0010*%
%ADD60R,0.0390X0.0010*%
%ADD61R,0.0440X0.0010*%
%ADD62R,0.0480X0.0010*%
%ADD63R,0.0520X0.0010*%
%ADD64R,0.0580X0.0010*%
%ADD65R,0.0160X0.0320*%
D10*
X003255Y000151D02*
X003255Y019651D01*
X022755Y019651D01*
X022755Y000151D01*
X003255Y000151D01*
X021125Y012651D02*
X021127Y012701D01*
X021133Y012751D01*
X021143Y012800D01*
X021157Y012848D01*
X021174Y012895D01*
X021195Y012940D01*
X021220Y012984D01*
X021248Y013025D01*
X021280Y013064D01*
X021314Y013101D01*
X021351Y013135D01*
X021391Y013165D01*
X021433Y013192D01*
X021477Y013216D01*
X021523Y013237D01*
X021570Y013253D01*
X021618Y013266D01*
X021668Y013275D01*
X021717Y013280D01*
X021768Y013281D01*
X021818Y013278D01*
X021867Y013271D01*
X021916Y013260D01*
X021964Y013245D01*
X022010Y013227D01*
X022055Y013205D01*
X022098Y013179D01*
X022139Y013150D01*
X022178Y013118D01*
X022214Y013083D01*
X022246Y013045D01*
X022276Y013005D01*
X022303Y012962D01*
X022326Y012918D01*
X022345Y012872D01*
X022361Y012824D01*
X022373Y012775D01*
X022381Y012726D01*
X022385Y012676D01*
X022385Y012626D01*
X022381Y012576D01*
X022373Y012527D01*
X022361Y012478D01*
X022345Y012430D01*
X022326Y012384D01*
X022303Y012340D01*
X022276Y012297D01*
X022246Y012257D01*
X022214Y012219D01*
X022178Y012184D01*
X022139Y012152D01*
X022098Y012123D01*
X022055Y012097D01*
X022010Y012075D01*
X021964Y012057D01*
X021916Y012042D01*
X021867Y012031D01*
X021818Y012024D01*
X021768Y012021D01*
X021717Y012022D01*
X021668Y012027D01*
X021618Y012036D01*
X021570Y012049D01*
X021523Y012065D01*
X021477Y012086D01*
X021433Y012110D01*
X021391Y012137D01*
X021351Y012167D01*
X021314Y012201D01*
X021280Y012238D01*
X021248Y012277D01*
X021220Y012318D01*
X021195Y012362D01*
X021174Y012407D01*
X021157Y012454D01*
X021143Y012502D01*
X021133Y012551D01*
X021127Y012601D01*
X021125Y012651D01*
X017805Y017251D02*
X017807Y017279D01*
X017813Y017306D01*
X017822Y017332D01*
X017835Y017357D01*
X017852Y017380D01*
X017871Y017400D01*
X017893Y017417D01*
X017917Y017431D01*
X017943Y017441D01*
X017970Y017448D01*
X017998Y017451D01*
X018026Y017450D01*
X018053Y017445D01*
X018080Y017436D01*
X018105Y017424D01*
X018128Y017409D01*
X018149Y017390D01*
X018167Y017369D01*
X018182Y017345D01*
X018193Y017319D01*
X018201Y017293D01*
X018205Y017265D01*
X018205Y017237D01*
X018201Y017209D01*
X018193Y017183D01*
X018182Y017157D01*
X018167Y017133D01*
X018149Y017112D01*
X018128Y017093D01*
X018105Y017078D01*
X018080Y017066D01*
X018053Y017057D01*
X018026Y017052D01*
X017998Y017051D01*
X017970Y017054D01*
X017943Y017061D01*
X017917Y017071D01*
X017893Y017085D01*
X017871Y017102D01*
X017852Y017122D01*
X017835Y017145D01*
X017822Y017170D01*
X017813Y017196D01*
X017807Y017223D01*
X017805Y017251D01*
X017805Y018051D02*
X017807Y018079D01*
X017813Y018106D01*
X017822Y018132D01*
X017835Y018157D01*
X017852Y018180D01*
X017871Y018200D01*
X017893Y018217D01*
X017917Y018231D01*
X017943Y018241D01*
X017970Y018248D01*
X017998Y018251D01*
X018026Y018250D01*
X018053Y018245D01*
X018080Y018236D01*
X018105Y018224D01*
X018128Y018209D01*
X018149Y018190D01*
X018167Y018169D01*
X018182Y018145D01*
X018193Y018119D01*
X018201Y018093D01*
X018205Y018065D01*
X018205Y018037D01*
X018201Y018009D01*
X018193Y017983D01*
X018182Y017957D01*
X018167Y017933D01*
X018149Y017912D01*
X018128Y017893D01*
X018105Y017878D01*
X018080Y017866D01*
X018053Y017857D01*
X018026Y017852D01*
X017998Y017851D01*
X017970Y017854D01*
X017943Y017861D01*
X017917Y017871D01*
X017893Y017885D01*
X017871Y017902D01*
X017852Y017922D01*
X017835Y017945D01*
X017822Y017970D01*
X017813Y017996D01*
X017807Y018023D01*
X017805Y018051D01*
X014805Y017651D02*
X014807Y017679D01*
X014813Y017706D01*
X014822Y017732D01*
X014835Y017757D01*
X014852Y017780D01*
X014871Y017800D01*
X014893Y017817D01*
X014917Y017831D01*
X014943Y017841D01*
X014970Y017848D01*
X014998Y017851D01*
X015026Y017850D01*
X015053Y017845D01*
X015080Y017836D01*
X015105Y017824D01*
X015128Y017809D01*
X015149Y017790D01*
X015167Y017769D01*
X015182Y017745D01*
X015193Y017719D01*
X015201Y017693D01*
X015205Y017665D01*
X015205Y017637D01*
X015201Y017609D01*
X015193Y017583D01*
X015182Y017557D01*
X015167Y017533D01*
X015149Y017512D01*
X015128Y017493D01*
X015105Y017478D01*
X015080Y017466D01*
X015053Y017457D01*
X015026Y017452D01*
X014998Y017451D01*
X014970Y017454D01*
X014943Y017461D01*
X014917Y017471D01*
X014893Y017485D01*
X014871Y017502D01*
X014852Y017522D01*
X014835Y017545D01*
X014822Y017570D01*
X014813Y017596D01*
X014807Y017623D01*
X014805Y017651D01*
D11*
X005505Y001151D02*
X005505Y000901D01*
X005505Y000651D01*
X005505Y000901D02*
X005755Y000901D01*
X005505Y000901D02*
X005255Y000901D01*
D12*
X010775Y005998D02*
X010852Y005921D01*
X011006Y005921D01*
X011082Y005998D01*
X011082Y006382D01*
X011236Y006228D02*
X011389Y006382D01*
X011389Y005921D01*
X011236Y005921D02*
X011543Y005921D01*
X010775Y005998D02*
X010775Y006382D01*
X018948Y010458D02*
X019025Y010458D01*
X019179Y010458D02*
X019485Y010458D01*
X019485Y010382D02*
X019485Y010535D01*
X019409Y010688D02*
X019485Y010765D01*
X019485Y010995D01*
X019562Y010995D02*
X019179Y010995D01*
X019179Y010765D01*
X019255Y010688D01*
X019409Y010688D01*
X019639Y010842D02*
X019639Y010919D01*
X019562Y010995D01*
X019409Y011149D02*
X019485Y011225D01*
X019485Y011456D01*
X019562Y011456D02*
X019179Y011456D01*
X019179Y011225D01*
X019255Y011149D01*
X019409Y011149D01*
X019639Y011302D02*
X019639Y011379D01*
X019562Y011456D01*
X019485Y011609D02*
X019485Y011763D01*
X019485Y011686D02*
X019025Y011686D01*
X019025Y011609D01*
X019255Y011916D02*
X019179Y011993D01*
X019179Y012146D01*
X019255Y012223D01*
X019332Y012223D01*
X019332Y011916D01*
X019409Y011916D02*
X019255Y011916D01*
X019409Y011916D02*
X019485Y011993D01*
X019485Y012146D01*
X020025Y012171D02*
X020485Y012171D01*
X020485Y012401D01*
X020409Y012478D01*
X020255Y012478D01*
X020179Y012401D01*
X020179Y012171D01*
X020179Y012632D02*
X020409Y012632D01*
X020485Y012708D01*
X020485Y012938D01*
X020562Y012938D02*
X020639Y012862D01*
X020639Y012785D01*
X020562Y012938D02*
X020179Y012938D01*
X020102Y013552D02*
X020409Y013552D01*
X020485Y013629D01*
X020485Y013782D01*
X020409Y013859D01*
X020485Y014013D02*
X020485Y014166D01*
X020485Y014089D02*
X020025Y014089D01*
X020025Y014013D01*
X020102Y013859D02*
X020025Y013782D01*
X020025Y013629D01*
X020102Y013552D01*
X019485Y013757D02*
X019485Y013911D01*
X019409Y013988D01*
X019255Y013988D01*
X019179Y013911D01*
X019179Y013757D01*
X019255Y013681D01*
X019409Y013681D01*
X019485Y013757D01*
X019179Y013527D02*
X019179Y013451D01*
X019332Y013297D01*
X019485Y013297D02*
X019179Y013297D01*
X019255Y013144D02*
X019102Y013144D01*
X019025Y013067D01*
X019025Y012837D01*
X019485Y012837D01*
X019332Y012837D02*
X019332Y013067D01*
X019255Y013144D01*
X019179Y014141D02*
X019179Y014294D01*
X019102Y014218D02*
X019409Y014218D01*
X019485Y014294D01*
X019409Y014448D02*
X019485Y014525D01*
X019485Y014678D01*
X019409Y014755D01*
X019255Y014755D01*
X019179Y014678D01*
X019179Y014525D01*
X019255Y014448D01*
X019409Y014448D01*
X019179Y014908D02*
X019179Y015062D01*
X019102Y014985D02*
X019409Y014985D01*
X019485Y015062D01*
X019409Y015215D02*
X019485Y015292D01*
X019485Y015522D01*
X019562Y015522D02*
X019639Y015445D01*
X019639Y015369D01*
X019562Y015522D02*
X019179Y015522D01*
X019179Y015676D02*
X019179Y015906D01*
X019255Y015982D01*
X019409Y015982D01*
X019485Y015906D01*
X019485Y015676D01*
X019639Y015676D02*
X019179Y015676D01*
X019255Y016136D02*
X019179Y016213D01*
X019179Y016366D01*
X019255Y016443D01*
X019332Y016443D01*
X019332Y016136D01*
X019409Y016136D02*
X019255Y016136D01*
X019409Y016136D02*
X019485Y016213D01*
X019485Y016366D01*
X020025Y016391D02*
X020485Y016391D01*
X020485Y016161D01*
X020409Y016084D01*
X020255Y016084D01*
X020179Y016161D01*
X020179Y016391D01*
X020179Y015931D02*
X020179Y015854D01*
X020332Y015701D01*
X020485Y015701D02*
X020179Y015701D01*
X020255Y015547D02*
X020179Y015470D01*
X020179Y015317D01*
X020255Y015240D01*
X020409Y015240D01*
X020485Y015317D01*
X020485Y015470D01*
X020409Y015547D01*
X020255Y015547D01*
X020255Y015087D02*
X020255Y014933D01*
X020255Y014780D02*
X020255Y014626D01*
X020102Y014703D02*
X020025Y014780D01*
X020102Y014703D02*
X020485Y014703D01*
X020485Y014473D02*
X020485Y014319D01*
X020485Y014396D02*
X020179Y014396D01*
X020179Y014319D01*
X020025Y014396D02*
X019948Y014396D01*
X020102Y015010D02*
X020025Y015087D01*
X020102Y015010D02*
X020485Y015010D01*
X019409Y015215D02*
X019179Y015215D01*
X020025Y017005D02*
X020485Y017005D01*
X020332Y017158D01*
X020485Y017312D01*
X020025Y017312D01*
X020179Y017542D02*
X020255Y017465D01*
X020409Y017465D01*
X020485Y017542D01*
X020485Y017695D01*
X020409Y017772D01*
X020255Y017772D01*
X020179Y017695D01*
X020179Y017542D01*
X020025Y017926D02*
X020025Y018002D01*
X020485Y018002D01*
X020485Y017926D02*
X020485Y018079D01*
X020485Y018309D02*
X020102Y018309D01*
X020025Y018386D01*
X020255Y018386D02*
X020255Y018232D01*
X019485Y018207D02*
X019179Y018514D01*
X019102Y018514D01*
X019025Y018438D01*
X019025Y018284D01*
X019102Y018207D01*
X019409Y018054D02*
X019409Y017977D01*
X019485Y017977D01*
X019485Y018054D01*
X019409Y018054D01*
X019485Y018207D02*
X019485Y018514D01*
X019409Y017824D02*
X019102Y017824D01*
X019409Y017517D01*
X019485Y017594D01*
X019485Y017747D01*
X019409Y017824D01*
X019102Y017824D02*
X019025Y017747D01*
X019025Y017594D01*
X019102Y017517D01*
X019409Y017517D01*
X019179Y017364D02*
X019485Y017210D01*
X019179Y017057D01*
X015503Y018498D02*
X015426Y018421D01*
X015273Y018421D01*
X015196Y018498D01*
X015043Y018651D02*
X014966Y018575D01*
X014736Y018575D01*
X014736Y018421D02*
X014736Y018882D01*
X014966Y018882D01*
X015043Y018805D01*
X015043Y018651D01*
X015196Y018805D02*
X015273Y018882D01*
X015426Y018882D01*
X015503Y018805D01*
X015503Y018728D01*
X015426Y018651D01*
X015503Y018575D01*
X015503Y018498D01*
X015426Y018651D02*
X015350Y018651D01*
X014582Y018882D02*
X014429Y018882D01*
X014506Y018882D02*
X014506Y018498D01*
X014429Y018421D01*
X014352Y018421D01*
X014275Y018498D01*
X019179Y010458D02*
X019179Y010382D01*
X019025Y010228D02*
X019485Y010228D01*
X019332Y010075D01*
X019485Y009921D01*
X019025Y009921D01*
D13*
X017067Y005786D02*
X017067Y005416D01*
X016946Y005478D02*
X016884Y005540D01*
X016761Y005540D01*
X016699Y005601D01*
X016761Y005663D01*
X016946Y005663D01*
X017067Y005601D02*
X017129Y005663D01*
X017252Y005663D01*
X017314Y005601D01*
X017314Y005416D01*
X017436Y005478D02*
X017436Y005601D01*
X017497Y005663D01*
X017621Y005663D01*
X017682Y005601D01*
X017682Y005478D01*
X017621Y005416D01*
X017497Y005416D01*
X017436Y005478D01*
X017804Y005416D02*
X017989Y005416D01*
X018051Y005478D01*
X018051Y005601D01*
X017989Y005663D01*
X017804Y005663D01*
X017804Y005293D01*
X018172Y005416D02*
X018234Y005416D01*
X018234Y005478D01*
X018172Y005478D01*
X018172Y005416D01*
X018356Y005478D02*
X018356Y005601D01*
X018418Y005663D01*
X018603Y005663D01*
X018725Y005601D02*
X018725Y005478D01*
X018786Y005416D01*
X018910Y005416D01*
X018971Y005478D01*
X018971Y005601D01*
X018910Y005663D01*
X018786Y005663D01*
X018725Y005601D01*
X018603Y005416D02*
X018418Y005416D01*
X018356Y005478D01*
X019093Y005416D02*
X019093Y005663D01*
X019155Y005663D01*
X019216Y005601D01*
X019278Y005663D01*
X019340Y005601D01*
X019340Y005416D01*
X019216Y005416D02*
X019216Y005601D01*
X020450Y004356D02*
X020499Y004404D01*
X020547Y004404D01*
X020740Y004211D01*
X020740Y004404D01*
X020450Y004356D02*
X020450Y004259D01*
X020499Y004211D01*
X020450Y004110D02*
X020692Y004110D01*
X020740Y004061D01*
X020740Y003965D01*
X020692Y003916D01*
X020450Y003916D01*
X016946Y005478D02*
X016884Y005416D01*
X016699Y005416D01*
X016578Y005540D02*
X016331Y005540D01*
X016331Y005601D02*
X016331Y005478D01*
X016392Y005416D01*
X016516Y005416D01*
X016578Y005540D02*
X016578Y005601D01*
X016516Y005663D01*
X016392Y005663D01*
X016331Y005601D01*
X016209Y005663D02*
X016024Y005663D01*
X015962Y005601D01*
X015962Y005478D01*
X016024Y005416D01*
X016209Y005416D01*
X015841Y005416D02*
X015841Y005601D01*
X015779Y005663D01*
X015656Y005663D01*
X015656Y005540D02*
X015841Y005540D01*
X015841Y005416D02*
X015656Y005416D01*
X015594Y005478D01*
X015656Y005540D01*
X015473Y005601D02*
X015473Y005478D01*
X015411Y005416D01*
X015226Y005416D01*
X015226Y005293D02*
X015226Y005663D01*
X015411Y005663D01*
X015473Y005601D01*
X015104Y005663D02*
X014919Y005663D01*
X014857Y005601D01*
X014919Y005540D01*
X015043Y005540D01*
X015104Y005478D01*
X015043Y005416D01*
X014857Y005416D01*
X014736Y005663D02*
X014674Y005663D01*
X014551Y005540D01*
X014429Y005540D02*
X014429Y005601D01*
X014367Y005663D01*
X014244Y005663D01*
X014182Y005601D01*
X014182Y005478D01*
X014244Y005416D01*
X014367Y005416D01*
X014429Y005540D02*
X014182Y005540D01*
X014061Y005663D02*
X013875Y005540D01*
X014061Y005416D01*
X013875Y005416D02*
X013875Y005786D01*
X013754Y005663D02*
X013569Y005663D01*
X013507Y005601D01*
X013507Y005478D01*
X013569Y005416D01*
X013754Y005416D01*
X013386Y005416D02*
X013200Y005416D01*
X013139Y005478D01*
X013200Y005540D01*
X013386Y005540D01*
X013386Y005601D02*
X013386Y005416D01*
X013386Y005601D02*
X013324Y005663D01*
X013200Y005663D01*
X013017Y005601D02*
X013017Y005416D01*
X013017Y005601D02*
X012956Y005663D01*
X012832Y005663D01*
X012770Y005601D01*
X012770Y005786D02*
X012770Y005416D01*
X014551Y005416D02*
X014551Y005663D01*
D14*
X002505Y001151D02*
X000255Y001151D01*
X000255Y002151D02*
X002505Y002151D01*
X002505Y011651D02*
X000255Y011651D01*
X000255Y012651D02*
X002505Y012651D01*
X002505Y013651D02*
X000255Y013651D01*
X000255Y016901D02*
X002505Y016901D01*
X002505Y017901D02*
X000255Y017901D01*
X000255Y018901D02*
X002505Y018901D01*
X014230Y014276D02*
X014232Y014300D01*
X014238Y014324D01*
X014247Y014346D01*
X014260Y014366D01*
X014276Y014384D01*
X014295Y014399D01*
X014316Y014412D01*
X014338Y014420D01*
X014362Y014425D01*
X014386Y014426D01*
X014410Y014423D01*
X014433Y014416D01*
X014455Y014406D01*
X014475Y014392D01*
X014492Y014375D01*
X014507Y014356D01*
X014518Y014335D01*
X014526Y014312D01*
X014530Y014288D01*
X014530Y014264D01*
X014526Y014240D01*
X014518Y014217D01*
X014507Y014196D01*
X014492Y014177D01*
X014475Y014160D01*
X014455Y014146D01*
X014433Y014136D01*
X014410Y014129D01*
X014386Y014126D01*
X014362Y014127D01*
X014338Y014132D01*
X014316Y014140D01*
X014295Y014153D01*
X014276Y014168D01*
X014260Y014186D01*
X014247Y014206D01*
X014238Y014228D01*
X014232Y014252D01*
X014230Y014276D01*
D15*
X014755Y014651D02*
X014755Y016151D01*
X015005Y016401D01*
X015505Y016401D01*
X015755Y016151D01*
X015755Y014651D01*
X016005Y014401D01*
X016505Y014401D01*
X016755Y014651D01*
X017005Y014401D01*
X017505Y014401D01*
X017755Y014651D01*
X017755Y016151D01*
X017505Y016401D01*
X017005Y016401D01*
X016755Y016151D01*
X016755Y014651D01*
X017605Y013901D02*
X015405Y013901D01*
X015405Y009901D01*
X016255Y009901D01*
X016257Y009931D01*
X016262Y009961D01*
X016271Y009990D01*
X016284Y010017D01*
X016299Y010043D01*
X016318Y010067D01*
X016339Y010088D01*
X016363Y010107D01*
X016389Y010122D01*
X016416Y010135D01*
X016445Y010144D01*
X016475Y010149D01*
X016505Y010151D01*
X016535Y010149D01*
X016565Y010144D01*
X016594Y010135D01*
X016621Y010122D01*
X016647Y010107D01*
X016671Y010088D01*
X016692Y010067D01*
X016711Y010043D01*
X016726Y010017D01*
X016739Y009990D01*
X016748Y009961D01*
X016753Y009931D01*
X016755Y009901D01*
X017605Y009901D01*
X017605Y013901D01*
X015755Y014651D02*
X015505Y014401D01*
X015005Y014401D01*
X014755Y014651D01*
X013855Y015551D02*
X013855Y015801D01*
X013805Y015851D01*
X013805Y018451D01*
X013855Y018501D01*
X013855Y018751D01*
X013853Y018768D01*
X013849Y018785D01*
X013842Y018801D01*
X013832Y018815D01*
X013819Y018828D01*
X013805Y018838D01*
X013789Y018845D01*
X013772Y018849D01*
X013755Y018851D01*
X012755Y018851D02*
X012738Y018849D01*
X012721Y018845D01*
X012705Y018838D01*
X012691Y018828D01*
X012678Y018815D01*
X012668Y018801D01*
X012661Y018785D01*
X012657Y018768D01*
X012655Y018751D01*
X012655Y018501D01*
X012705Y018451D01*
X012705Y015851D01*
X012655Y015801D01*
X012655Y015551D01*
X012657Y015534D01*
X012661Y015517D01*
X012668Y015501D01*
X012678Y015487D01*
X012691Y015474D01*
X012705Y015464D01*
X012721Y015457D01*
X012738Y015453D01*
X012755Y015451D01*
X012355Y015551D02*
X012355Y015801D01*
X012305Y015851D01*
X012305Y018451D01*
X012355Y018501D01*
X012355Y018751D01*
X012353Y018768D01*
X012349Y018785D01*
X012342Y018801D01*
X012332Y018815D01*
X012319Y018828D01*
X012305Y018838D01*
X012289Y018845D01*
X012272Y018849D01*
X012255Y018851D01*
X011255Y018851D02*
X011238Y018849D01*
X011221Y018845D01*
X011205Y018838D01*
X011191Y018828D01*
X011178Y018815D01*
X011168Y018801D01*
X011161Y018785D01*
X011157Y018768D01*
X011155Y018751D01*
X011155Y018501D01*
X011205Y018451D01*
X011205Y015851D01*
X011155Y015801D01*
X011155Y015551D01*
X011157Y015534D01*
X011161Y015517D01*
X011168Y015501D01*
X011178Y015487D01*
X011191Y015474D01*
X011205Y015464D01*
X011221Y015457D01*
X011238Y015453D01*
X011255Y015451D01*
X012255Y015451D02*
X012272Y015453D01*
X012289Y015457D01*
X012305Y015464D01*
X012319Y015474D01*
X012332Y015487D01*
X012342Y015501D01*
X012349Y015517D01*
X012353Y015534D01*
X012355Y015551D01*
X013755Y015451D02*
X013772Y015453D01*
X013789Y015457D01*
X013805Y015464D01*
X013819Y015474D01*
X013832Y015487D01*
X013842Y015501D01*
X013849Y015517D01*
X013853Y015534D01*
X013855Y015551D01*
X015755Y016151D02*
X016005Y016401D01*
X016505Y016401D01*
X016755Y016151D01*
X013855Y013501D02*
X013855Y013251D01*
X013805Y013201D01*
X013805Y010601D01*
X013855Y010551D01*
X013855Y010301D01*
X013853Y010284D01*
X013849Y010267D01*
X013842Y010251D01*
X013832Y010237D01*
X013819Y010224D01*
X013805Y010214D01*
X013789Y010207D01*
X013772Y010203D01*
X013755Y010201D01*
X013755Y009351D02*
X012755Y009351D01*
X012738Y009349D01*
X012721Y009345D01*
X012705Y009338D01*
X012691Y009328D01*
X012678Y009315D01*
X012668Y009301D01*
X012661Y009285D01*
X012657Y009268D01*
X012655Y009251D01*
X012655Y006551D01*
X012657Y006534D01*
X012661Y006517D01*
X012668Y006501D01*
X012678Y006487D01*
X012691Y006474D01*
X012705Y006464D01*
X012721Y006457D01*
X012738Y006453D01*
X012755Y006451D01*
X013755Y006451D01*
X013772Y006453D01*
X013789Y006457D01*
X013805Y006464D01*
X013819Y006474D01*
X013832Y006487D01*
X013842Y006501D01*
X013849Y006517D01*
X013853Y006534D01*
X013855Y006551D01*
X013855Y009251D01*
X013853Y009268D01*
X013849Y009285D01*
X013842Y009301D01*
X013832Y009315D01*
X013819Y009328D01*
X013805Y009338D01*
X013789Y009345D01*
X013772Y009349D01*
X013755Y009351D01*
X014755Y008901D02*
X014755Y008401D01*
X015005Y008151D01*
X014755Y007901D01*
X014755Y007401D01*
X015005Y007151D01*
X014755Y006901D01*
X014755Y006401D01*
X015005Y006151D01*
X015505Y006151D01*
X015755Y006401D01*
X015755Y006901D01*
X015505Y007151D01*
X015005Y007151D01*
X015505Y007151D02*
X015755Y007401D01*
X015755Y007901D01*
X015505Y008151D01*
X015005Y008151D01*
X015505Y008151D02*
X015755Y008401D01*
X015755Y008901D01*
X015505Y009151D01*
X015005Y009151D01*
X014755Y008901D01*
X013255Y008501D02*
X013255Y008021D01*
X013255Y007771D02*
X013255Y007301D01*
X012355Y006551D02*
X012355Y009251D01*
X012353Y009268D01*
X012349Y009285D01*
X012342Y009301D01*
X012332Y009315D01*
X012319Y009328D01*
X012305Y009338D01*
X012289Y009345D01*
X012272Y009349D01*
X012255Y009351D01*
X011255Y009351D01*
X011238Y009349D01*
X011221Y009345D01*
X011205Y009338D01*
X011191Y009328D01*
X011178Y009315D01*
X011168Y009301D01*
X011161Y009285D01*
X011157Y009268D01*
X011155Y009251D01*
X011155Y006551D01*
X011157Y006534D01*
X011161Y006517D01*
X011168Y006501D01*
X011178Y006487D01*
X011191Y006474D01*
X011205Y006464D01*
X011221Y006457D01*
X011238Y006453D01*
X011255Y006451D01*
X012255Y006451D01*
X012272Y006453D01*
X012289Y006457D01*
X012305Y006464D01*
X012319Y006474D01*
X012332Y006487D01*
X012342Y006501D01*
X012349Y006517D01*
X012353Y006534D01*
X012355Y006551D01*
X011755Y007301D02*
X011755Y007771D01*
X011755Y008021D02*
X011755Y008501D01*
X010205Y008651D02*
X010203Y008668D01*
X010199Y008685D01*
X010192Y008701D01*
X010182Y008715D01*
X010169Y008728D01*
X010155Y008738D01*
X010139Y008745D01*
X010122Y008749D01*
X010105Y008751D01*
X009855Y008751D01*
X009805Y008701D01*
X007205Y008701D01*
X007155Y008751D01*
X006905Y008751D01*
X006888Y008749D01*
X006871Y008745D01*
X006855Y008738D01*
X006841Y008728D01*
X006828Y008715D01*
X006818Y008701D01*
X006811Y008685D01*
X006807Y008668D01*
X006805Y008651D01*
X006805Y007651D02*
X006807Y007634D01*
X006811Y007617D01*
X006818Y007601D01*
X006828Y007587D01*
X006841Y007574D01*
X006855Y007564D01*
X006871Y007557D01*
X006888Y007553D01*
X006905Y007551D01*
X007155Y007551D01*
X007205Y007601D01*
X009805Y007601D01*
X009855Y007551D01*
X010105Y007551D01*
X010122Y007553D01*
X010139Y007557D01*
X010155Y007564D01*
X010169Y007574D01*
X010182Y007587D01*
X010192Y007601D01*
X010199Y007617D01*
X010203Y007634D01*
X010205Y007651D01*
X009955Y006651D02*
X009955Y006451D01*
X009855Y006551D02*
X010055Y006551D01*
X008255Y006151D02*
X008257Y006214D01*
X008263Y006276D01*
X008273Y006338D01*
X008286Y006400D01*
X008304Y006460D01*
X008325Y006519D01*
X008350Y006577D01*
X008379Y006633D01*
X008411Y006687D01*
X008446Y006739D01*
X008484Y006788D01*
X008526Y006836D01*
X008570Y006880D01*
X008618Y006922D01*
X008667Y006960D01*
X008719Y006995D01*
X008773Y007027D01*
X008829Y007056D01*
X008887Y007081D01*
X008946Y007102D01*
X009006Y007120D01*
X009068Y007133D01*
X009130Y007143D01*
X009192Y007149D01*
X009255Y007151D01*
X009318Y007149D01*
X009380Y007143D01*
X009442Y007133D01*
X009504Y007120D01*
X009564Y007102D01*
X009623Y007081D01*
X009681Y007056D01*
X009737Y007027D01*
X009791Y006995D01*
X009843Y006960D01*
X009892Y006922D01*
X009940Y006880D01*
X009984Y006836D01*
X010026Y006788D01*
X010064Y006739D01*
X010099Y006687D01*
X010131Y006633D01*
X010160Y006577D01*
X010185Y006519D01*
X010206Y006460D01*
X010224Y006400D01*
X010237Y006338D01*
X010247Y006276D01*
X010253Y006214D01*
X010255Y006151D01*
X010253Y006088D01*
X010247Y006026D01*
X010237Y005964D01*
X010224Y005902D01*
X010206Y005842D01*
X010185Y005783D01*
X010160Y005725D01*
X010131Y005669D01*
X010099Y005615D01*
X010064Y005563D01*
X010026Y005514D01*
X009984Y005466D01*
X009940Y005422D01*
X009892Y005380D01*
X009843Y005342D01*
X009791Y005307D01*
X009737Y005275D01*
X009681Y005246D01*
X009623Y005221D01*
X009564Y005200D01*
X009504Y005182D01*
X009442Y005169D01*
X009380Y005159D01*
X009318Y005153D01*
X009255Y005151D01*
X009192Y005153D01*
X009130Y005159D01*
X009068Y005169D01*
X009006Y005182D01*
X008946Y005200D01*
X008887Y005221D01*
X008829Y005246D01*
X008773Y005275D01*
X008719Y005307D01*
X008667Y005342D01*
X008618Y005380D01*
X008570Y005422D01*
X008526Y005466D01*
X008484Y005514D01*
X008446Y005563D01*
X008411Y005615D01*
X008379Y005669D01*
X008350Y005725D01*
X008325Y005783D01*
X008304Y005842D01*
X008286Y005902D01*
X008273Y005964D01*
X008263Y006026D01*
X008257Y006088D01*
X008255Y006151D01*
X007805Y006551D02*
X007605Y006551D01*
X007705Y006651D02*
X007705Y006451D01*
X006005Y006151D02*
X006007Y006214D01*
X006013Y006276D01*
X006023Y006338D01*
X006036Y006400D01*
X006054Y006460D01*
X006075Y006519D01*
X006100Y006577D01*
X006129Y006633D01*
X006161Y006687D01*
X006196Y006739D01*
X006234Y006788D01*
X006276Y006836D01*
X006320Y006880D01*
X006368Y006922D01*
X006417Y006960D01*
X006469Y006995D01*
X006523Y007027D01*
X006579Y007056D01*
X006637Y007081D01*
X006696Y007102D01*
X006756Y007120D01*
X006818Y007133D01*
X006880Y007143D01*
X006942Y007149D01*
X007005Y007151D01*
X007068Y007149D01*
X007130Y007143D01*
X007192Y007133D01*
X007254Y007120D01*
X007314Y007102D01*
X007373Y007081D01*
X007431Y007056D01*
X007487Y007027D01*
X007541Y006995D01*
X007593Y006960D01*
X007642Y006922D01*
X007690Y006880D01*
X007734Y006836D01*
X007776Y006788D01*
X007814Y006739D01*
X007849Y006687D01*
X007881Y006633D01*
X007910Y006577D01*
X007935Y006519D01*
X007956Y006460D01*
X007974Y006400D01*
X007987Y006338D01*
X007997Y006276D01*
X008003Y006214D01*
X008005Y006151D01*
X008003Y006088D01*
X007997Y006026D01*
X007987Y005964D01*
X007974Y005902D01*
X007956Y005842D01*
X007935Y005783D01*
X007910Y005725D01*
X007881Y005669D01*
X007849Y005615D01*
X007814Y005563D01*
X007776Y005514D01*
X007734Y005466D01*
X007690Y005422D01*
X007642Y005380D01*
X007593Y005342D01*
X007541Y005307D01*
X007487Y005275D01*
X007431Y005246D01*
X007373Y005221D01*
X007314Y005200D01*
X007254Y005182D01*
X007192Y005169D01*
X007130Y005159D01*
X007068Y005153D01*
X007005Y005151D01*
X006942Y005153D01*
X006880Y005159D01*
X006818Y005169D01*
X006756Y005182D01*
X006696Y005200D01*
X006637Y005221D01*
X006579Y005246D01*
X006523Y005275D01*
X006469Y005307D01*
X006417Y005342D01*
X006368Y005380D01*
X006320Y005422D01*
X006276Y005466D01*
X006234Y005514D01*
X006196Y005563D01*
X006161Y005615D01*
X006129Y005669D01*
X006100Y005725D01*
X006075Y005783D01*
X006054Y005842D01*
X006036Y005902D01*
X006023Y005964D01*
X006013Y006026D01*
X006007Y006088D01*
X006005Y006151D01*
X005005Y005151D02*
X005005Y004651D01*
X004755Y004401D01*
X005005Y004151D01*
X005005Y003651D01*
X004755Y003401D01*
X004255Y003401D01*
X004005Y003651D01*
X004005Y004151D01*
X004255Y004401D01*
X004005Y004651D01*
X004005Y005151D01*
X004255Y005401D01*
X004755Y005401D01*
X005005Y005151D01*
X004755Y004401D02*
X004255Y004401D01*
X003755Y002651D02*
X002755Y002651D01*
X002755Y001651D01*
X002755Y000651D01*
X003755Y000651D01*
X003755Y001651D01*
X003755Y002651D01*
X003755Y001651D02*
X002755Y001651D01*
X007055Y002751D02*
X007955Y002751D01*
X007955Y003001D01*
X007505Y003001D01*
X007055Y003001D01*
X007055Y002751D01*
X005505Y002651D02*
X005507Y002749D01*
X005515Y002847D01*
X005527Y002944D01*
X005543Y003041D01*
X005565Y003137D01*
X005591Y003232D01*
X005622Y003325D01*
X005657Y003416D01*
X005697Y003506D01*
X005741Y003594D01*
X005790Y003679D01*
X005842Y003762D01*
X005899Y003842D01*
X005959Y003920D01*
X006023Y003994D01*
X006091Y004065D01*
X006162Y004133D01*
X006236Y004197D01*
X006314Y004257D01*
X006394Y004314D01*
X006477Y004366D01*
X006562Y004415D01*
X006650Y004459D01*
X006740Y004499D01*
X006831Y004534D01*
X006924Y004565D01*
X007019Y004591D01*
X007115Y004613D01*
X007212Y004629D01*
X007309Y004641D01*
X007407Y004649D01*
X007505Y004651D01*
X007603Y004649D01*
X007701Y004641D01*
X007798Y004629D01*
X007895Y004613D01*
X007991Y004591D01*
X008086Y004565D01*
X008179Y004534D01*
X008270Y004499D01*
X008360Y004459D01*
X008448Y004415D01*
X008533Y004366D01*
X008616Y004314D01*
X008696Y004257D01*
X008774Y004197D01*
X008848Y004133D01*
X008919Y004065D01*
X008987Y003994D01*
X009051Y003920D01*
X009111Y003842D01*
X009168Y003762D01*
X009220Y003679D01*
X009269Y003594D01*
X009313Y003506D01*
X009353Y003416D01*
X009388Y003325D01*
X009419Y003232D01*
X009445Y003137D01*
X009467Y003041D01*
X009483Y002944D01*
X009495Y002847D01*
X009503Y002749D01*
X009505Y002651D01*
X009503Y002553D01*
X009495Y002455D01*
X009483Y002358D01*
X009467Y002261D01*
X009445Y002165D01*
X009419Y002070D01*
X009388Y001977D01*
X009353Y001886D01*
X009313Y001796D01*
X009269Y001708D01*
X009220Y001623D01*
X009168Y001540D01*
X009111Y001460D01*
X009051Y001382D01*
X008987Y001308D01*
X008919Y001237D01*
X008848Y001169D01*
X008774Y001105D01*
X008696Y001045D01*
X008616Y000988D01*
X008533Y000936D01*
X008448Y000887D01*
X008360Y000843D01*
X008270Y000803D01*
X008179Y000768D01*
X008086Y000737D01*
X007991Y000711D01*
X007895Y000689D01*
X007798Y000673D01*
X007701Y000661D01*
X007603Y000653D01*
X007505Y000651D01*
X007407Y000653D01*
X007309Y000661D01*
X007212Y000673D01*
X007115Y000689D01*
X007019Y000711D01*
X006924Y000737D01*
X006831Y000768D01*
X006740Y000803D01*
X006650Y000843D01*
X006562Y000887D01*
X006477Y000936D01*
X006394Y000988D01*
X006314Y001045D01*
X006236Y001105D01*
X006162Y001169D01*
X006091Y001237D01*
X006023Y001308D01*
X005959Y001382D01*
X005899Y001460D01*
X005842Y001540D01*
X005790Y001623D01*
X005741Y001708D01*
X005697Y001796D01*
X005657Y001886D01*
X005622Y001977D01*
X005591Y002070D01*
X005565Y002165D01*
X005543Y002261D01*
X005527Y002358D01*
X005515Y002455D01*
X005507Y002553D01*
X005505Y002651D01*
X007505Y002401D02*
X007505Y002201D01*
X007505Y003001D02*
X007505Y003101D01*
X008005Y004001D02*
X008005Y004301D01*
X008155Y004151D02*
X007855Y004151D01*
X010155Y003751D02*
X010155Y001051D01*
X010157Y001034D01*
X010161Y001017D01*
X010168Y001001D01*
X010178Y000987D01*
X010191Y000974D01*
X010205Y000964D01*
X010221Y000957D01*
X010238Y000953D01*
X010255Y000951D01*
X011255Y000951D01*
X011272Y000953D01*
X011289Y000957D01*
X011305Y000964D01*
X011319Y000974D01*
X011332Y000987D01*
X011342Y001001D01*
X011349Y001017D01*
X011353Y001034D01*
X011355Y001051D01*
X011355Y003751D01*
X011353Y003768D01*
X011349Y003785D01*
X011342Y003801D01*
X011332Y003815D01*
X011319Y003828D01*
X011305Y003838D01*
X011289Y003845D01*
X011272Y003849D01*
X011255Y003851D01*
X010255Y003851D01*
X010238Y003849D01*
X010221Y003845D01*
X010205Y003838D01*
X010191Y003828D01*
X010178Y003815D01*
X010168Y003801D01*
X010161Y003785D01*
X010157Y003768D01*
X010155Y003751D01*
X010755Y003001D02*
X010755Y002521D01*
X010755Y002271D02*
X010755Y001801D01*
X011655Y001051D02*
X011655Y003751D01*
X011657Y003768D01*
X011661Y003785D01*
X011668Y003801D01*
X011678Y003815D01*
X011691Y003828D01*
X011705Y003838D01*
X011721Y003845D01*
X011738Y003849D01*
X011755Y003851D01*
X012755Y003851D01*
X012772Y003849D01*
X012789Y003845D01*
X012805Y003838D01*
X012819Y003828D01*
X012832Y003815D01*
X012842Y003801D01*
X012849Y003785D01*
X012853Y003768D01*
X012855Y003751D01*
X012855Y001051D01*
X012853Y001034D01*
X012849Y001017D01*
X012842Y001001D01*
X012832Y000987D01*
X012819Y000974D01*
X012805Y000964D01*
X012789Y000957D01*
X012772Y000953D01*
X012755Y000951D01*
X011755Y000951D01*
X011738Y000953D01*
X011721Y000957D01*
X011705Y000964D01*
X011691Y000974D01*
X011678Y000987D01*
X011668Y001001D01*
X011661Y001017D01*
X011657Y001034D01*
X011655Y001051D01*
X012255Y001801D02*
X012255Y002271D01*
X012255Y002521D02*
X012255Y003001D01*
X013155Y003751D02*
X013155Y001051D01*
X013157Y001034D01*
X013161Y001017D01*
X013168Y001001D01*
X013178Y000987D01*
X013191Y000974D01*
X013205Y000964D01*
X013221Y000957D01*
X013238Y000953D01*
X013255Y000951D01*
X014255Y000951D01*
X014272Y000953D01*
X014289Y000957D01*
X014305Y000964D01*
X014319Y000974D01*
X014332Y000987D01*
X014342Y001001D01*
X014349Y001017D01*
X014353Y001034D01*
X014355Y001051D01*
X014355Y003751D01*
X014353Y003768D01*
X014349Y003785D01*
X014342Y003801D01*
X014332Y003815D01*
X014319Y003828D01*
X014305Y003838D01*
X014289Y003845D01*
X014272Y003849D01*
X014255Y003851D01*
X013255Y003851D01*
X013238Y003849D01*
X013221Y003845D01*
X013205Y003838D01*
X013191Y003828D01*
X013178Y003815D01*
X013168Y003801D01*
X013161Y003785D01*
X013157Y003768D01*
X013155Y003751D01*
X013755Y003001D02*
X013755Y002521D01*
X013755Y002271D02*
X013755Y001801D01*
X014905Y001551D02*
X014905Y001301D01*
X014907Y001284D01*
X014911Y001267D01*
X014918Y001251D01*
X014928Y001237D01*
X014941Y001224D01*
X014955Y001214D01*
X014971Y001207D01*
X014988Y001203D01*
X015005Y001201D01*
X014905Y001551D02*
X014955Y001601D01*
X014955Y004201D01*
X014905Y004251D01*
X014905Y004501D01*
X014907Y004518D01*
X014911Y004535D01*
X014918Y004551D01*
X014928Y004565D01*
X014941Y004578D01*
X014955Y004588D01*
X014971Y004595D01*
X014988Y004599D01*
X015005Y004601D01*
X016005Y004601D02*
X016022Y004599D01*
X016039Y004595D01*
X016055Y004588D01*
X016069Y004578D01*
X016082Y004565D01*
X016092Y004551D01*
X016099Y004535D01*
X016103Y004518D01*
X016105Y004501D01*
X016105Y004251D01*
X016055Y004201D01*
X016055Y001601D01*
X016105Y001551D01*
X016105Y001301D01*
X016103Y001284D01*
X016099Y001267D01*
X016092Y001251D01*
X016082Y001237D01*
X016069Y001224D01*
X016055Y001214D01*
X016039Y001207D01*
X016022Y001203D01*
X016005Y001201D01*
X016405Y001301D02*
X016405Y001551D01*
X016455Y001601D01*
X016455Y004201D01*
X016405Y004251D01*
X016405Y004501D01*
X016407Y004518D01*
X016411Y004535D01*
X016418Y004551D01*
X016428Y004565D01*
X016441Y004578D01*
X016455Y004588D01*
X016471Y004595D01*
X016488Y004599D01*
X016505Y004601D01*
X017505Y004601D02*
X017522Y004599D01*
X017539Y004595D01*
X017555Y004588D01*
X017569Y004578D01*
X017582Y004565D01*
X017592Y004551D01*
X017599Y004535D01*
X017603Y004518D01*
X017605Y004501D01*
X017605Y004251D01*
X017555Y004201D01*
X017555Y001601D01*
X017605Y001551D01*
X017605Y001301D01*
X017603Y001284D01*
X017599Y001267D01*
X017592Y001251D01*
X017582Y001237D01*
X017569Y001224D01*
X017555Y001214D01*
X017539Y001207D01*
X017522Y001203D01*
X017505Y001201D01*
X017905Y001301D02*
X017905Y001551D01*
X017955Y001601D01*
X017955Y004201D01*
X017905Y004251D01*
X017905Y004501D01*
X017907Y004518D01*
X017911Y004535D01*
X017918Y004551D01*
X017928Y004565D01*
X017941Y004578D01*
X017955Y004588D01*
X017971Y004595D01*
X017988Y004599D01*
X018005Y004601D01*
X019005Y004601D02*
X019022Y004599D01*
X019039Y004595D01*
X019055Y004588D01*
X019069Y004578D01*
X019082Y004565D01*
X019092Y004551D01*
X019099Y004535D01*
X019103Y004518D01*
X019105Y004501D01*
X019105Y004251D01*
X019055Y004201D01*
X019055Y001601D01*
X019105Y001551D01*
X019105Y001301D01*
X019103Y001284D01*
X019099Y001267D01*
X019092Y001251D01*
X019082Y001237D01*
X019069Y001224D01*
X019055Y001214D01*
X019039Y001207D01*
X019022Y001203D01*
X019005Y001201D01*
X019555Y001151D02*
X019555Y002151D01*
X019557Y002168D01*
X019561Y002185D01*
X019568Y002201D01*
X019578Y002215D01*
X019591Y002228D01*
X019605Y002238D01*
X019621Y002245D01*
X019638Y002249D01*
X019655Y002251D01*
X022355Y002251D01*
X022372Y002249D01*
X022389Y002245D01*
X022405Y002238D01*
X022419Y002228D01*
X022432Y002215D01*
X022442Y002201D01*
X022449Y002185D01*
X022453Y002168D01*
X022455Y002151D01*
X022455Y001151D01*
X022453Y001134D01*
X022449Y001117D01*
X022442Y001101D01*
X022432Y001087D01*
X022419Y001074D01*
X022405Y001064D01*
X022389Y001057D01*
X022372Y001053D01*
X022355Y001051D01*
X019655Y001051D01*
X019638Y001053D01*
X019621Y001057D01*
X019605Y001064D01*
X019591Y001074D01*
X019578Y001087D01*
X019568Y001101D01*
X019561Y001117D01*
X019557Y001134D01*
X019555Y001151D01*
X020405Y001651D02*
X020885Y001651D01*
X021135Y001651D02*
X021605Y001651D01*
X022048Y004431D02*
X022048Y004858D01*
X022262Y004858D02*
X022262Y004431D01*
X022262Y005076D02*
X022262Y005503D01*
X022048Y005503D02*
X022048Y005076D01*
X022155Y005720D02*
X021835Y005720D01*
X021835Y006147D01*
X022048Y006040D02*
X022155Y006147D01*
X022369Y006147D01*
X022475Y006040D01*
X022475Y005827D01*
X022369Y005720D01*
X022155Y005720D02*
X022048Y005934D01*
X022048Y006040D01*
X021942Y006365D02*
X021835Y006471D01*
X021835Y006685D01*
X021942Y006792D01*
X022369Y006365D01*
X022475Y006471D01*
X022475Y006685D01*
X022369Y006792D01*
X021942Y006792D01*
X021942Y007009D02*
X021835Y007116D01*
X021835Y007330D01*
X021942Y007436D01*
X022048Y007436D01*
X022475Y007009D01*
X022475Y007436D01*
X022369Y007654D02*
X021942Y008081D01*
X022369Y008081D01*
X022475Y007974D01*
X022475Y007761D01*
X022369Y007654D01*
X021942Y007654D01*
X021835Y007761D01*
X021835Y007974D01*
X021942Y008081D01*
X022155Y008298D02*
X022155Y008619D01*
X022262Y008725D01*
X022369Y008725D01*
X022475Y008619D01*
X022475Y008405D01*
X022369Y008298D01*
X022155Y008298D01*
X021942Y008512D01*
X021835Y008725D01*
X022048Y008943D02*
X022048Y009370D01*
X022262Y009370D02*
X022262Y008943D01*
X022262Y009587D02*
X022262Y010014D01*
X022048Y010014D02*
X022048Y009587D01*
X021505Y009651D02*
X021505Y010151D01*
X021255Y010401D01*
X020755Y010401D01*
X020505Y010151D01*
X020505Y009651D01*
X020755Y009401D01*
X021255Y009401D01*
X021505Y009651D01*
X021255Y009401D02*
X021505Y009151D01*
X021505Y008651D01*
X021255Y008401D01*
X021505Y008151D01*
X021505Y007651D01*
X021255Y007401D01*
X021505Y007151D01*
X021505Y006651D01*
X021255Y006401D01*
X020755Y006401D01*
X020505Y006651D01*
X020505Y007151D01*
X020755Y007401D01*
X020505Y007651D01*
X020505Y008151D01*
X020755Y008401D01*
X020505Y008651D01*
X020505Y009151D01*
X020755Y009401D01*
X020755Y008401D02*
X021255Y008401D01*
X021255Y007401D02*
X020755Y007401D01*
X021942Y006365D02*
X022369Y006365D01*
X018105Y006301D02*
X018105Y009001D01*
X018103Y009018D01*
X018099Y009035D01*
X018092Y009051D01*
X018082Y009065D01*
X018069Y009078D01*
X018055Y009088D01*
X018039Y009095D01*
X018022Y009099D01*
X018005Y009101D01*
X017005Y009101D01*
X016988Y009099D01*
X016971Y009095D01*
X016955Y009088D01*
X016941Y009078D01*
X016928Y009065D01*
X016918Y009051D01*
X016911Y009035D01*
X016907Y009018D01*
X016905Y009001D01*
X016905Y006301D01*
X016907Y006284D01*
X016911Y006267D01*
X016918Y006251D01*
X016928Y006237D01*
X016941Y006224D01*
X016955Y006214D01*
X016971Y006207D01*
X016988Y006203D01*
X017005Y006201D01*
X018005Y006201D01*
X018022Y006203D01*
X018039Y006207D01*
X018055Y006214D01*
X018069Y006224D01*
X018082Y006237D01*
X018092Y006251D01*
X018099Y006267D01*
X018103Y006284D01*
X018105Y006301D01*
X017505Y007051D02*
X017505Y007531D01*
X017505Y007781D02*
X017505Y008251D01*
X020505Y010651D02*
X020505Y011151D01*
X020755Y011401D01*
X021255Y011401D01*
X021505Y011151D01*
X021505Y010651D01*
X021255Y010401D01*
X020755Y010401D02*
X020505Y010651D01*
X021505Y014151D02*
X021255Y014401D01*
X021255Y014901D01*
X021505Y015151D01*
X021255Y015401D01*
X021255Y015901D01*
X021505Y016151D01*
X022005Y016151D01*
X022255Y015901D01*
X022255Y015401D01*
X022005Y015151D01*
X022255Y014901D01*
X022255Y014401D01*
X022005Y014151D01*
X021505Y014151D01*
X021505Y015151D02*
X022005Y015151D01*
X022005Y016151D02*
X022255Y016401D01*
X022255Y016901D01*
X022005Y017151D01*
X022255Y017401D01*
X022255Y017901D01*
X022005Y018151D01*
X022255Y018401D01*
X022255Y018901D01*
X022005Y019151D01*
X021505Y019151D01*
X021255Y018901D01*
X021255Y018401D01*
X021505Y018151D01*
X022005Y018151D01*
X021505Y018151D02*
X021255Y017901D01*
X021255Y017401D01*
X021505Y017151D01*
X022005Y017151D01*
X021505Y017151D02*
X021255Y016901D01*
X021255Y016401D01*
X021505Y016151D01*
X013855Y013501D02*
X013853Y013518D01*
X013849Y013535D01*
X013842Y013551D01*
X013832Y013565D01*
X013819Y013578D01*
X013805Y013588D01*
X013789Y013595D01*
X013772Y013599D01*
X013755Y013601D01*
X012755Y013601D02*
X012738Y013599D01*
X012721Y013595D01*
X012705Y013588D01*
X012691Y013578D01*
X012678Y013565D01*
X012668Y013551D01*
X012661Y013535D01*
X012657Y013518D01*
X012655Y013501D01*
X012655Y013251D01*
X012705Y013201D01*
X012705Y010601D01*
X012655Y010551D01*
X012655Y010301D01*
X012657Y010284D01*
X012661Y010267D01*
X012668Y010251D01*
X012678Y010237D01*
X012691Y010224D01*
X012705Y010214D01*
X012721Y010207D01*
X012738Y010203D01*
X012755Y010201D01*
X012355Y010301D02*
X012355Y010551D01*
X012305Y010601D01*
X012305Y013201D01*
X012355Y013251D01*
X012355Y013501D01*
X012353Y013518D01*
X012349Y013535D01*
X012342Y013551D01*
X012332Y013565D01*
X012319Y013578D01*
X012305Y013588D01*
X012289Y013595D01*
X012272Y013599D01*
X012255Y013601D01*
X011255Y013601D02*
X011238Y013599D01*
X011221Y013595D01*
X011205Y013588D01*
X011191Y013578D01*
X011178Y013565D01*
X011168Y013551D01*
X011161Y013535D01*
X011157Y013518D01*
X011155Y013501D01*
X011155Y013251D01*
X011205Y013201D01*
X011205Y010601D01*
X011155Y010551D01*
X011155Y010301D01*
X011157Y010284D01*
X011161Y010267D01*
X011168Y010251D01*
X011178Y010237D01*
X011191Y010224D01*
X011205Y010214D01*
X011221Y010207D01*
X011238Y010203D01*
X011255Y010201D01*
X012255Y010201D02*
X012272Y010203D01*
X012289Y010207D01*
X012305Y010214D01*
X012319Y010224D01*
X012332Y010237D01*
X012342Y010251D01*
X012349Y010267D01*
X012353Y010284D01*
X012355Y010301D01*
X009655Y010901D02*
X009655Y009401D01*
X009653Y009384D01*
X009649Y009367D01*
X009642Y009351D01*
X009632Y009337D01*
X009619Y009324D01*
X009605Y009314D01*
X009589Y009307D01*
X009572Y009303D01*
X009555Y009301D01*
X009205Y009301D01*
X009155Y009351D01*
X005355Y009351D01*
X005305Y009301D01*
X004955Y009301D01*
X004938Y009303D01*
X004921Y009307D01*
X004905Y009314D01*
X004891Y009324D01*
X004878Y009337D01*
X004868Y009351D01*
X004861Y009367D01*
X004857Y009384D01*
X004855Y009401D01*
X004855Y010901D01*
X004857Y010918D01*
X004861Y010935D01*
X004868Y010951D01*
X004878Y010965D01*
X004891Y010978D01*
X004905Y010988D01*
X004921Y010995D01*
X004938Y010999D01*
X004955Y011001D01*
X005305Y011001D01*
X005355Y010951D01*
X009155Y010951D01*
X009205Y011001D01*
X009555Y011001D01*
X009572Y010999D01*
X009589Y010995D01*
X009605Y010988D01*
X009619Y010978D01*
X009632Y010965D01*
X009642Y010951D01*
X009649Y010935D01*
X009653Y010918D01*
X009655Y010901D01*
X008705Y011401D02*
X008705Y012401D01*
X008703Y012418D01*
X008699Y012435D01*
X008692Y012451D01*
X008682Y012465D01*
X008669Y012478D01*
X008655Y012488D01*
X008639Y012495D01*
X008622Y012499D01*
X008605Y012501D01*
X005905Y012501D01*
X005888Y012499D01*
X005871Y012495D01*
X005855Y012488D01*
X005841Y012478D01*
X005828Y012465D01*
X005818Y012451D01*
X005811Y012435D01*
X005807Y012418D01*
X005805Y012401D01*
X005805Y011401D01*
X005807Y011384D01*
X005811Y011367D01*
X005818Y011351D01*
X005828Y011337D01*
X005841Y011324D01*
X005855Y011314D01*
X005871Y011307D01*
X005888Y011303D01*
X005905Y011301D01*
X008605Y011301D01*
X008622Y011303D01*
X008639Y011307D01*
X008655Y011314D01*
X008669Y011324D01*
X008682Y011337D01*
X008692Y011351D01*
X008699Y011367D01*
X008703Y011384D01*
X008705Y011401D01*
X007855Y011901D02*
X007385Y011901D01*
X007135Y011901D02*
X006655Y011901D01*
X005905Y012801D02*
X008605Y012801D01*
X008622Y012803D01*
X008639Y012807D01*
X008655Y012814D01*
X008669Y012824D01*
X008682Y012837D01*
X008692Y012851D01*
X008699Y012867D01*
X008703Y012884D01*
X008705Y012901D01*
X008705Y013901D01*
X008703Y013918D01*
X008699Y013935D01*
X008692Y013951D01*
X008682Y013965D01*
X008669Y013978D01*
X008655Y013988D01*
X008639Y013995D01*
X008622Y013999D01*
X008605Y014001D01*
X005905Y014001D01*
X005888Y013999D01*
X005871Y013995D01*
X005855Y013988D01*
X005841Y013978D01*
X005828Y013965D01*
X005818Y013951D01*
X005811Y013935D01*
X005807Y013918D01*
X005805Y013901D01*
X005805Y012901D01*
X005807Y012884D01*
X005811Y012867D01*
X005818Y012851D01*
X005828Y012837D01*
X005841Y012824D01*
X005855Y012814D01*
X005871Y012807D01*
X005888Y012803D01*
X005905Y012801D01*
X006655Y013401D02*
X007135Y013401D01*
X007385Y013401D02*
X007855Y013401D01*
X009155Y014601D02*
X005355Y014601D01*
X005305Y014551D01*
X004955Y014551D01*
X004938Y014553D01*
X004921Y014557D01*
X004905Y014564D01*
X004891Y014574D01*
X004878Y014587D01*
X004868Y014601D01*
X004861Y014617D01*
X004857Y014634D01*
X004855Y014651D01*
X004855Y016151D01*
X004857Y016168D01*
X004861Y016185D01*
X004868Y016201D01*
X004878Y016215D01*
X004891Y016228D01*
X004905Y016238D01*
X004921Y016245D01*
X004938Y016249D01*
X004955Y016251D01*
X005305Y016251D01*
X005355Y016201D01*
X009155Y016201D01*
X009205Y016251D01*
X009555Y016251D01*
X009572Y016249D01*
X009589Y016245D01*
X009605Y016238D01*
X009619Y016228D01*
X009632Y016215D01*
X009642Y016201D01*
X009649Y016185D01*
X009653Y016168D01*
X009655Y016151D01*
X009655Y014651D01*
X009653Y014634D01*
X009649Y014617D01*
X009642Y014601D01*
X009632Y014587D01*
X009619Y014574D01*
X009605Y014564D01*
X009589Y014557D01*
X009572Y014553D01*
X009555Y014551D01*
X009205Y014551D01*
X009155Y014601D01*
X008605Y016551D02*
X005905Y016551D01*
X005888Y016553D01*
X005871Y016557D01*
X005855Y016564D01*
X005841Y016574D01*
X005828Y016587D01*
X005818Y016601D01*
X005811Y016617D01*
X005807Y016634D01*
X005805Y016651D01*
X005805Y017651D01*
X005807Y017668D01*
X005811Y017685D01*
X005818Y017701D01*
X005828Y017715D01*
X005841Y017728D01*
X005855Y017738D01*
X005871Y017745D01*
X005888Y017749D01*
X005905Y017751D01*
X008605Y017751D01*
X008622Y017749D01*
X008639Y017745D01*
X008655Y017738D01*
X008669Y017728D01*
X008682Y017715D01*
X008692Y017701D01*
X008699Y017685D01*
X008703Y017668D01*
X008705Y017651D01*
X008705Y016651D01*
X008703Y016634D01*
X008699Y016617D01*
X008692Y016601D01*
X008682Y016587D01*
X008669Y016574D01*
X008655Y016564D01*
X008639Y016557D01*
X008622Y016553D01*
X008605Y016551D01*
X007855Y017151D02*
X007385Y017151D01*
X007135Y017151D02*
X006655Y017151D01*
X005905Y018051D02*
X008605Y018051D01*
X008622Y018053D01*
X008639Y018057D01*
X008655Y018064D01*
X008669Y018074D01*
X008682Y018087D01*
X008692Y018101D01*
X008699Y018117D01*
X008703Y018134D01*
X008705Y018151D01*
X008705Y019151D01*
X008703Y019168D01*
X008699Y019185D01*
X008692Y019201D01*
X008682Y019215D01*
X008669Y019228D01*
X008655Y019238D01*
X008639Y019245D01*
X008622Y019249D01*
X008605Y019251D01*
X005905Y019251D01*
X005888Y019249D01*
X005871Y019245D01*
X005855Y019238D01*
X005841Y019228D01*
X005828Y019215D01*
X005818Y019201D01*
X005811Y019185D01*
X005807Y019168D01*
X005805Y019151D01*
X005805Y018151D01*
X005807Y018134D01*
X005811Y018117D01*
X005818Y018101D01*
X005828Y018087D01*
X005841Y018074D01*
X005855Y018064D01*
X005871Y018057D01*
X005888Y018053D01*
X005905Y018051D01*
X006655Y018651D02*
X007135Y018651D01*
X007385Y018651D02*
X007855Y018651D01*
X003755Y018401D02*
X003755Y017401D01*
X002755Y017401D01*
X002755Y018401D01*
X002755Y019401D01*
X003755Y019401D01*
X003755Y018401D01*
X002755Y018401D01*
X002755Y017401D02*
X002755Y016401D01*
X003755Y016401D01*
X003755Y017401D01*
X003755Y014151D02*
X002755Y014151D01*
X002755Y013151D01*
X002755Y012151D01*
X002755Y011151D01*
X003755Y011151D01*
X003755Y012151D01*
X003755Y013151D01*
X003755Y014151D01*
X003755Y013151D02*
X002755Y013151D01*
X002755Y012151D02*
X003755Y012151D01*
X003755Y007401D02*
X003757Y007464D01*
X003763Y007526D01*
X003773Y007588D01*
X003786Y007650D01*
X003804Y007710D01*
X003825Y007769D01*
X003850Y007827D01*
X003879Y007883D01*
X003911Y007937D01*
X003946Y007989D01*
X003984Y008038D01*
X004026Y008086D01*
X004070Y008130D01*
X004118Y008172D01*
X004167Y008210D01*
X004219Y008245D01*
X004273Y008277D01*
X004329Y008306D01*
X004387Y008331D01*
X004446Y008352D01*
X004506Y008370D01*
X004568Y008383D01*
X004630Y008393D01*
X004692Y008399D01*
X004755Y008401D01*
X004818Y008399D01*
X004880Y008393D01*
X004942Y008383D01*
X005004Y008370D01*
X005064Y008352D01*
X005123Y008331D01*
X005181Y008306D01*
X005237Y008277D01*
X005291Y008245D01*
X005343Y008210D01*
X005392Y008172D01*
X005440Y008130D01*
X005484Y008086D01*
X005526Y008038D01*
X005564Y007989D01*
X005599Y007937D01*
X005631Y007883D01*
X005660Y007827D01*
X005685Y007769D01*
X005706Y007710D01*
X005724Y007650D01*
X005737Y007588D01*
X005747Y007526D01*
X005753Y007464D01*
X005755Y007401D01*
X005753Y007338D01*
X005747Y007276D01*
X005737Y007214D01*
X005724Y007152D01*
X005706Y007092D01*
X005685Y007033D01*
X005660Y006975D01*
X005631Y006919D01*
X005599Y006865D01*
X005564Y006813D01*
X005526Y006764D01*
X005484Y006716D01*
X005440Y006672D01*
X005392Y006630D01*
X005343Y006592D01*
X005291Y006557D01*
X005237Y006525D01*
X005181Y006496D01*
X005123Y006471D01*
X005064Y006450D01*
X005004Y006432D01*
X004942Y006419D01*
X004880Y006409D01*
X004818Y006403D01*
X004755Y006401D01*
X004692Y006403D01*
X004630Y006409D01*
X004568Y006419D01*
X004506Y006432D01*
X004446Y006450D01*
X004387Y006471D01*
X004329Y006496D01*
X004273Y006525D01*
X004219Y006557D01*
X004167Y006592D01*
X004118Y006630D01*
X004070Y006672D01*
X004026Y006716D01*
X003984Y006764D01*
X003946Y006813D01*
X003911Y006865D01*
X003879Y006919D01*
X003850Y006975D01*
X003825Y007033D01*
X003804Y007092D01*
X003786Y007152D01*
X003773Y007214D01*
X003763Y007276D01*
X003757Y007338D01*
X003755Y007401D01*
X010946Y005470D02*
X010946Y004832D01*
X010983Y004832D01*
X011300Y004832D02*
X011337Y004832D01*
X011674Y004832D02*
X011711Y004832D01*
X012028Y004832D02*
X012065Y004832D01*
X012065Y005470D01*
X012028Y005470D01*
X011711Y005470D02*
X011300Y005470D01*
X010983Y005470D02*
X010946Y005470D01*
X016405Y001301D02*
X016407Y001284D01*
X016411Y001267D01*
X016418Y001251D01*
X016428Y001237D01*
X016441Y001224D01*
X016455Y001214D01*
X016471Y001207D01*
X016488Y001203D01*
X016505Y001201D01*
X017905Y001301D02*
X017907Y001284D01*
X017911Y001267D01*
X017918Y001251D01*
X017928Y001237D01*
X017941Y001224D01*
X017955Y001214D01*
X017971Y001207D01*
X017988Y001203D01*
X018005Y001201D01*
D16*
X002655Y001151D03*
X002655Y002151D03*
X002655Y011651D03*
X002655Y012651D03*
X002655Y013651D03*
X002655Y016901D03*
X002655Y017901D03*
X002655Y018901D03*
D17*
X003955Y018901D03*
X003955Y017901D03*
X003955Y016901D03*
X003955Y013651D03*
X003955Y012651D03*
X003955Y011651D03*
X003955Y002151D03*
X003955Y001151D03*
D18*
X004110Y002676D02*
X004110Y003127D01*
X004335Y003127D01*
X004410Y003051D01*
X004410Y002901D01*
X004335Y002826D01*
X004110Y002826D01*
X003874Y002751D02*
X003874Y003127D01*
X003799Y003127D02*
X003950Y003127D01*
X003685Y003396D02*
X003760Y003471D01*
X003760Y003546D01*
X003685Y003621D01*
X003310Y003621D01*
X003310Y003546D02*
X003310Y003696D01*
X003310Y003857D02*
X003310Y004082D01*
X003385Y004157D01*
X003535Y004157D01*
X003610Y004082D01*
X003610Y003857D01*
X003760Y003857D02*
X003310Y003857D01*
X003385Y004317D02*
X003460Y004317D01*
X003535Y004392D01*
X003535Y004617D01*
X003385Y004617D02*
X003310Y004542D01*
X003310Y004392D01*
X003385Y004317D01*
X003385Y004617D02*
X003685Y004617D01*
X003760Y004542D01*
X003760Y004392D01*
X003685Y004317D01*
X004720Y003127D02*
X004570Y002976D01*
X004720Y003127D02*
X004720Y002676D01*
X004570Y002676D02*
X004870Y002676D01*
X003874Y002751D02*
X003799Y002676D01*
X003724Y002676D01*
X003649Y002751D01*
X005685Y004776D02*
X005835Y004776D01*
X005910Y004851D01*
X006070Y004776D02*
X006370Y005076D01*
X006370Y005151D01*
X006295Y005227D01*
X006145Y005227D01*
X006070Y005151D01*
X005910Y005151D02*
X005835Y005227D01*
X005685Y005227D01*
X005610Y005151D01*
X005610Y004851D01*
X005685Y004776D01*
X006070Y004776D02*
X006370Y004776D01*
X007860Y004851D02*
X007935Y004776D01*
X008085Y004776D01*
X008160Y004851D01*
X008320Y004851D02*
X008395Y004776D01*
X008545Y004776D01*
X008620Y004851D01*
X008620Y004926D01*
X008545Y005001D01*
X008470Y005001D01*
X008545Y005001D02*
X008620Y005076D01*
X008620Y005151D01*
X008545Y005227D01*
X008395Y005227D01*
X008320Y005151D01*
X008160Y005151D02*
X008085Y005227D01*
X007935Y005227D01*
X007860Y005151D01*
X007860Y004851D01*
X010380Y004301D02*
X010380Y004001D01*
X010455Y003926D01*
X010606Y003926D01*
X010681Y004001D01*
X010841Y004151D02*
X011141Y004151D01*
X011066Y003926D02*
X011066Y004377D01*
X010841Y004151D01*
X010681Y004301D02*
X010606Y004377D01*
X010455Y004377D01*
X010380Y004301D01*
X011880Y004301D02*
X011880Y004001D01*
X011955Y003926D01*
X012106Y003926D01*
X012181Y004001D01*
X012341Y004001D02*
X012416Y003926D01*
X012566Y003926D01*
X012641Y004001D01*
X012641Y004151D01*
X012566Y004226D01*
X012491Y004226D01*
X012341Y004151D01*
X012341Y004377D01*
X012641Y004377D01*
X012181Y004301D02*
X012106Y004377D01*
X011955Y004377D01*
X011880Y004301D01*
X013380Y004301D02*
X013380Y004001D01*
X013455Y003926D01*
X013606Y003926D01*
X013681Y004001D01*
X013841Y004001D02*
X013916Y003926D01*
X014066Y003926D01*
X014141Y004001D01*
X014141Y004076D01*
X014066Y004151D01*
X013841Y004151D01*
X013841Y004001D01*
X013841Y004151D02*
X013991Y004301D01*
X014141Y004377D01*
X013681Y004301D02*
X013606Y004377D01*
X013455Y004377D01*
X013380Y004301D01*
X015355Y002166D02*
X015280Y002091D01*
X015280Y001941D01*
X015355Y001866D01*
X015430Y001866D01*
X015505Y001941D01*
X015505Y002166D01*
X015655Y002166D02*
X015355Y002166D01*
X015655Y002166D02*
X015730Y002091D01*
X015730Y001941D01*
X015655Y001866D01*
X015730Y001706D02*
X015580Y001556D01*
X015580Y001631D02*
X015580Y001405D01*
X015730Y001405D02*
X015280Y001405D01*
X015280Y001631D01*
X015355Y001706D01*
X015505Y001706D01*
X015580Y001631D01*
X016780Y001631D02*
X016780Y001405D01*
X017230Y001405D01*
X017080Y001405D02*
X017080Y001631D01*
X017005Y001706D01*
X016855Y001706D01*
X016780Y001631D01*
X016855Y001866D02*
X016930Y001866D01*
X017005Y001941D01*
X017005Y002091D01*
X017080Y002166D01*
X017155Y002166D01*
X017230Y002091D01*
X017230Y001941D01*
X017155Y001866D01*
X017080Y001866D01*
X017005Y001941D01*
X017005Y002091D02*
X016930Y002166D01*
X016855Y002166D01*
X016780Y002091D01*
X016780Y001941D01*
X016855Y001866D01*
X017080Y001556D02*
X017230Y001706D01*
X018280Y001631D02*
X018280Y001405D01*
X018730Y001405D01*
X018580Y001405D02*
X018580Y001631D01*
X018505Y001706D01*
X018355Y001706D01*
X018280Y001631D01*
X018355Y001866D02*
X018280Y001941D01*
X018280Y002091D01*
X018355Y002166D01*
X018430Y002166D01*
X018730Y001866D01*
X018730Y002166D01*
X018730Y001706D02*
X018580Y001556D01*
X020005Y003101D02*
X020007Y003121D01*
X020013Y003139D01*
X020022Y003157D01*
X020034Y003172D01*
X020049Y003184D01*
X020067Y003193D01*
X020085Y003199D01*
X020105Y003201D01*
X020125Y003199D01*
X020143Y003193D01*
X020161Y003184D01*
X020176Y003172D01*
X020188Y003157D01*
X020197Y003139D01*
X020203Y003121D01*
X020205Y003101D01*
X020203Y003081D01*
X020197Y003063D01*
X020188Y003045D01*
X020176Y003030D01*
X020161Y003018D01*
X020143Y003009D01*
X020125Y003003D01*
X020105Y003001D01*
X020085Y003003D01*
X020067Y003009D01*
X020049Y003018D01*
X020034Y003030D01*
X020022Y003045D01*
X020013Y003063D01*
X020007Y003081D01*
X020005Y003101D01*
X020165Y003311D02*
X021346Y003311D01*
X021346Y004492D01*
X020165Y004492D01*
X020165Y003311D01*
X021780Y003137D02*
X022230Y003137D01*
X022230Y002987D02*
X022230Y003287D01*
X022155Y003447D02*
X021855Y003747D01*
X022155Y003747D01*
X022230Y003672D01*
X022230Y003522D01*
X022155Y003447D01*
X021855Y003447D01*
X021780Y003522D01*
X021780Y003672D01*
X021855Y003747D01*
X021780Y003137D02*
X021930Y002987D01*
X021855Y002826D02*
X021780Y002751D01*
X021780Y002601D01*
X021855Y002526D01*
X022155Y002526D01*
X022230Y002601D01*
X022230Y002751D01*
X022155Y002826D01*
X016730Y006351D02*
X016730Y006501D01*
X016655Y006576D01*
X016655Y006737D02*
X016730Y006812D01*
X016730Y006962D01*
X016655Y007037D01*
X016355Y007037D01*
X016280Y006962D01*
X016280Y006812D01*
X016355Y006737D01*
X016430Y006737D01*
X016505Y006812D01*
X016505Y007037D01*
X016355Y006576D02*
X016280Y006501D01*
X016280Y006351D01*
X016355Y006276D01*
X016655Y006276D01*
X016730Y006351D01*
X016375Y007825D02*
X016450Y007900D01*
X016450Y007975D01*
X016375Y008050D01*
X016000Y008050D01*
X016000Y007975D02*
X016000Y008125D01*
X016000Y008285D02*
X016000Y008511D01*
X016075Y008586D01*
X016225Y008586D01*
X016300Y008511D01*
X016300Y008285D01*
X016450Y008285D02*
X016000Y008285D01*
X016225Y008746D02*
X016225Y008971D01*
X016300Y009046D01*
X016375Y009046D01*
X016450Y008971D01*
X016450Y008821D01*
X016375Y008746D01*
X016225Y008746D01*
X016075Y008896D01*
X016000Y009046D01*
X016303Y009316D02*
X016453Y009316D01*
X016378Y009316D02*
X016378Y009767D01*
X016303Y009767D02*
X016453Y009767D01*
X016610Y009691D02*
X016610Y009391D01*
X016685Y009316D01*
X016835Y009316D01*
X016910Y009391D01*
X017070Y009316D02*
X017370Y009316D01*
X017220Y009316D02*
X017220Y009767D01*
X017070Y009616D01*
X016910Y009691D02*
X016835Y009767D01*
X016685Y009767D01*
X016610Y009691D01*
X014480Y009341D02*
X014480Y009191D01*
X014405Y009116D01*
X014330Y009116D01*
X014255Y009191D01*
X014255Y009341D01*
X014330Y009416D01*
X014405Y009416D01*
X014480Y009341D01*
X014255Y009341D02*
X014180Y009416D01*
X014105Y009416D01*
X014030Y009341D01*
X014030Y009191D01*
X014105Y009116D01*
X014180Y009116D01*
X014255Y009191D01*
X014105Y008956D02*
X014030Y008881D01*
X014030Y008730D01*
X014105Y008655D01*
X014405Y008655D01*
X014480Y008730D01*
X014480Y008881D01*
X014405Y008956D01*
X010980Y009001D02*
X010980Y008851D01*
X010905Y008776D01*
X010605Y008776D01*
X010530Y008851D01*
X010530Y009001D01*
X010605Y009076D01*
X010530Y009237D02*
X010530Y009537D01*
X010605Y009537D01*
X010905Y009237D01*
X010980Y009237D01*
X010905Y009076D02*
X010980Y009001D01*
X009020Y009916D02*
X008720Y009916D01*
X008870Y009916D02*
X008870Y010367D01*
X008720Y010216D01*
X008560Y009916D02*
X008260Y009916D01*
X008260Y010367D01*
X009655Y011606D02*
X009655Y011764D01*
X009105Y011827D02*
X009105Y013476D01*
X009105Y013926D02*
X009030Y014001D01*
X009030Y014301D01*
X009105Y014377D01*
X009256Y014377D01*
X009331Y014301D01*
X009331Y014001D01*
X009256Y013926D01*
X009105Y013926D01*
X009181Y014076D02*
X009331Y013926D01*
X009491Y013926D02*
X009791Y013926D01*
X009641Y013926D02*
X009641Y014377D01*
X009491Y014226D01*
X009655Y013696D02*
X009655Y013538D01*
X009655Y012764D02*
X009655Y012538D01*
X009105Y013476D02*
X009153Y013511D01*
X009203Y013544D01*
X009255Y013575D01*
X009309Y013602D01*
X009364Y013626D01*
X009421Y013646D01*
X009478Y013664D01*
X009536Y013678D01*
X009595Y013689D01*
X009655Y013696D01*
X010758Y012341D02*
X010738Y012281D01*
X010714Y012222D01*
X010686Y012165D01*
X010655Y012110D01*
X010620Y012056D01*
X010583Y012005D01*
X010542Y011956D01*
X010498Y011910D01*
X010452Y011866D01*
X010403Y011825D01*
X010352Y011787D01*
X010299Y011753D01*
X010243Y011721D01*
X010186Y011694D01*
X010127Y011669D01*
X010067Y011649D01*
X010006Y011631D01*
X009944Y011618D01*
X009881Y011609D01*
X009818Y011603D01*
X009754Y011601D01*
X009690Y011603D01*
X009627Y011609D01*
X009564Y011618D01*
X009502Y011632D01*
X009441Y011649D01*
X009381Y011670D01*
X009322Y011694D01*
X009265Y011722D01*
X009209Y011754D01*
X009156Y011789D01*
X009105Y011826D01*
X009655Y013696D02*
X009717Y013700D01*
X009780Y013701D01*
X009842Y013697D01*
X009904Y013690D01*
X009965Y013680D01*
X010026Y013665D01*
X010086Y013647D01*
X010145Y013626D01*
X010202Y013601D01*
X010257Y013573D01*
X010311Y013542D01*
X010363Y013507D01*
X010413Y013469D01*
X010460Y013429D01*
X010505Y013385D01*
X010548Y013340D01*
X010587Y013291D01*
X010624Y013241D01*
X010657Y013188D01*
X010688Y013134D01*
X010715Y013077D01*
X010738Y013020D01*
X010758Y012961D01*
X011530Y012841D02*
X011605Y012916D01*
X011680Y012916D01*
X011755Y012841D01*
X011830Y012916D01*
X011905Y012916D01*
X011980Y012841D01*
X011980Y012691D01*
X011905Y012616D01*
X011980Y012456D02*
X011830Y012306D01*
X011830Y012381D02*
X011830Y012155D01*
X011980Y012155D02*
X011530Y012155D01*
X011530Y012381D01*
X011605Y012456D01*
X011755Y012456D01*
X011830Y012381D01*
X011605Y012616D02*
X011530Y012691D01*
X011530Y012841D01*
X011755Y012841D02*
X011755Y012766D01*
X013030Y012841D02*
X013255Y012616D01*
X013255Y012916D01*
X013480Y012841D02*
X013030Y012841D01*
X013105Y012456D02*
X013030Y012381D01*
X013030Y012155D01*
X013480Y012155D01*
X013330Y012155D02*
X013330Y012381D01*
X013255Y012456D01*
X013105Y012456D01*
X013330Y012306D02*
X013480Y012456D01*
X009020Y015166D02*
X008720Y015166D01*
X009020Y015466D01*
X009020Y015541D01*
X008945Y015617D01*
X008795Y015617D01*
X008720Y015541D01*
X008560Y015166D02*
X008260Y015166D01*
X008260Y015617D01*
X009105Y016827D02*
X009105Y018476D01*
X009105Y018926D02*
X009030Y019001D01*
X009030Y019301D01*
X009105Y019377D01*
X009256Y019377D01*
X009331Y019301D01*
X009331Y019001D01*
X009256Y018926D01*
X009105Y018926D01*
X009181Y019076D02*
X009331Y018926D01*
X009491Y018926D02*
X009791Y019226D01*
X009791Y019301D01*
X009716Y019377D01*
X009566Y019377D01*
X009491Y019301D01*
X009491Y018926D02*
X009791Y018926D01*
X009655Y018696D02*
X009655Y018538D01*
X009655Y017764D02*
X009655Y017538D01*
X009105Y018476D02*
X009153Y018511D01*
X009203Y018544D01*
X009255Y018575D01*
X009309Y018602D01*
X009364Y018626D01*
X009421Y018646D01*
X009478Y018664D01*
X009536Y018678D01*
X009595Y018689D01*
X009655Y018696D01*
X010758Y017341D02*
X010738Y017281D01*
X010714Y017222D01*
X010686Y017165D01*
X010655Y017110D01*
X010620Y017056D01*
X010583Y017005D01*
X010542Y016956D01*
X010498Y016910D01*
X010452Y016866D01*
X010403Y016825D01*
X010352Y016787D01*
X010299Y016753D01*
X010243Y016721D01*
X010186Y016694D01*
X010127Y016669D01*
X010067Y016649D01*
X010006Y016631D01*
X009944Y016618D01*
X009881Y016609D01*
X009818Y016603D01*
X009754Y016601D01*
X009690Y016603D01*
X009627Y016609D01*
X009564Y016618D01*
X009502Y016632D01*
X009441Y016649D01*
X009381Y016670D01*
X009322Y016694D01*
X009265Y016722D01*
X009209Y016754D01*
X009156Y016789D01*
X009105Y016826D01*
X009655Y016764D02*
X009655Y016606D01*
X010758Y017961D02*
X010738Y018020D01*
X010715Y018077D01*
X010688Y018134D01*
X010657Y018188D01*
X010624Y018241D01*
X010587Y018291D01*
X010548Y018340D01*
X010505Y018385D01*
X010460Y018429D01*
X010413Y018469D01*
X010363Y018507D01*
X010311Y018542D01*
X010257Y018573D01*
X010202Y018601D01*
X010145Y018626D01*
X010086Y018647D01*
X010026Y018665D01*
X009965Y018680D01*
X009904Y018690D01*
X009842Y018697D01*
X009780Y018701D01*
X009717Y018700D01*
X009655Y018696D01*
X011530Y018166D02*
X011530Y017866D01*
X011755Y017866D01*
X011680Y018016D01*
X011680Y018091D01*
X011755Y018166D01*
X011905Y018166D01*
X011980Y018091D01*
X011980Y017941D01*
X011905Y017866D01*
X011980Y017706D02*
X011830Y017556D01*
X011830Y017631D02*
X011830Y017405D01*
X011980Y017405D02*
X011530Y017405D01*
X011530Y017631D01*
X011605Y017706D01*
X011755Y017706D01*
X011830Y017631D01*
X013030Y017631D02*
X013030Y017405D01*
X013480Y017405D01*
X013330Y017405D02*
X013330Y017631D01*
X013255Y017706D01*
X013105Y017706D01*
X013030Y017631D01*
X013255Y017866D02*
X013255Y018091D01*
X013330Y018166D01*
X013405Y018166D01*
X013480Y018091D01*
X013480Y017941D01*
X013405Y017866D01*
X013255Y017866D01*
X013105Y018016D01*
X013030Y018166D01*
X013480Y017706D02*
X013330Y017556D01*
X014505Y017401D02*
X014880Y017026D01*
X018130Y017026D01*
X018505Y017401D01*
X018505Y017901D01*
X018130Y018276D01*
X014880Y018276D01*
X014505Y017901D01*
X014505Y017401D01*
X018030Y016572D02*
X018030Y016422D01*
X018105Y016347D01*
X018105Y016187D02*
X018030Y016112D01*
X018030Y015887D01*
X018480Y015887D01*
X018330Y015887D02*
X018330Y016112D01*
X018255Y016187D01*
X018105Y016187D01*
X018480Y016347D02*
X018180Y016647D01*
X018105Y016647D01*
X018030Y016572D01*
X018480Y016647D02*
X018480Y016347D01*
X018405Y015651D02*
X018030Y015651D01*
X018030Y015576D02*
X018030Y015726D01*
X018405Y015651D02*
X018480Y015576D01*
X018480Y015501D01*
X018405Y015426D01*
X020929Y013531D02*
X021004Y013456D01*
X021079Y013456D01*
X021154Y013531D01*
X021154Y013907D01*
X021079Y013907D02*
X021230Y013907D01*
X021390Y013907D02*
X021615Y013907D01*
X021690Y013831D01*
X021690Y013681D01*
X021615Y013606D01*
X021390Y013606D01*
X021390Y013456D02*
X021390Y013907D01*
X021850Y013907D02*
X022150Y013907D01*
X022150Y013831D01*
X021850Y013531D01*
X021850Y013456D01*
X021825Y011296D02*
X021900Y011296D01*
X021975Y011221D01*
X021975Y011071D01*
X021900Y010996D01*
X021825Y010996D01*
X021750Y011071D01*
X021750Y011221D01*
X021825Y011296D01*
X021975Y011221D02*
X022050Y011296D01*
X022125Y011296D01*
X022200Y011221D01*
X022200Y011071D01*
X022125Y010996D01*
X022050Y010996D01*
X021975Y011071D01*
X021975Y010836D02*
X022050Y010761D01*
X022050Y010535D01*
X022200Y010535D02*
X021750Y010535D01*
X021750Y010761D01*
X021825Y010836D01*
X021975Y010836D01*
X021750Y010375D02*
X021750Y010225D01*
X021750Y010300D02*
X022125Y010300D01*
X022200Y010225D01*
X022200Y010150D01*
X022125Y010075D01*
X009891Y000756D02*
X009591Y000756D01*
X009741Y000756D02*
X009741Y001207D01*
X009591Y001056D01*
X009431Y001131D02*
X009356Y001207D01*
X009205Y001207D01*
X009130Y001131D01*
X009130Y000831D01*
X009205Y000756D01*
X009356Y000756D01*
X009431Y000831D01*
X007470Y007926D02*
X007470Y008001D01*
X007770Y008301D01*
X007770Y008377D01*
X007470Y008377D01*
X007310Y008301D02*
X007310Y008151D01*
X007235Y008076D01*
X007010Y008076D01*
X007010Y007926D02*
X007010Y008377D01*
X007235Y008377D01*
X007310Y008301D01*
X007160Y008076D02*
X007310Y007926D01*
X004676Y010676D02*
X004676Y011127D01*
X004451Y010901D01*
X004751Y010901D01*
X004291Y010901D02*
X004216Y010826D01*
X003991Y010826D01*
X003991Y010676D02*
X003991Y011127D01*
X004216Y011127D01*
X004291Y011051D01*
X004291Y010901D01*
X003831Y011127D02*
X003681Y011127D01*
X003756Y011127D02*
X003756Y010751D01*
X003681Y010676D01*
X003605Y010676D01*
X003530Y010751D01*
X003585Y009167D02*
X003360Y009167D01*
X003360Y008716D01*
X003585Y008716D01*
X003660Y008791D01*
X003660Y009091D01*
X003585Y009167D01*
X003820Y009016D02*
X003970Y009167D01*
X003970Y008716D01*
X003820Y008716D02*
X004120Y008716D01*
X005355Y011276D02*
X005655Y011276D01*
X005730Y011351D01*
X005730Y011501D01*
X005655Y011576D01*
X005730Y011737D02*
X005730Y012037D01*
X005730Y011887D02*
X005280Y011887D01*
X005430Y011737D01*
X005355Y011576D02*
X005280Y011501D01*
X005280Y011351D01*
X005355Y011276D01*
X005430Y012197D02*
X005280Y012347D01*
X005730Y012347D01*
X005730Y012197D02*
X005730Y012497D01*
X005655Y012776D02*
X005730Y012851D01*
X005730Y013001D01*
X005655Y013076D01*
X005730Y013237D02*
X005730Y013537D01*
X005730Y013387D02*
X005280Y013387D01*
X005430Y013237D01*
X005355Y013076D02*
X005280Y013001D01*
X005280Y012851D01*
X005355Y012776D01*
X005655Y012776D01*
X005655Y013697D02*
X005730Y013772D01*
X005730Y013922D01*
X005655Y013997D01*
X005580Y013997D01*
X005505Y013922D01*
X005505Y013847D01*
X005505Y013922D02*
X005430Y013997D01*
X005355Y013997D01*
X005280Y013922D01*
X005280Y013772D01*
X005355Y013697D01*
X004676Y015926D02*
X004526Y015926D01*
X004451Y016001D01*
X004451Y016151D02*
X004601Y016226D01*
X004676Y016226D01*
X004751Y016151D01*
X004751Y016001D01*
X004676Y015926D01*
X004451Y016151D02*
X004451Y016377D01*
X004751Y016377D01*
X004291Y016301D02*
X004291Y016151D01*
X004216Y016076D01*
X003991Y016076D01*
X003991Y015926D02*
X003991Y016377D01*
X004216Y016377D01*
X004291Y016301D01*
X003831Y016377D02*
X003681Y016377D01*
X003756Y016377D02*
X003756Y016001D01*
X003681Y015926D01*
X003605Y015926D01*
X003530Y016001D01*
X005280Y016601D02*
X005355Y016526D01*
X005655Y016526D01*
X005730Y016601D01*
X005730Y016751D01*
X005655Y016826D01*
X005730Y016987D02*
X005730Y017287D01*
X005730Y017137D02*
X005280Y017137D01*
X005430Y016987D01*
X005355Y016826D02*
X005280Y016751D01*
X005280Y016601D01*
X005355Y017447D02*
X005280Y017522D01*
X005280Y017672D01*
X005355Y017747D01*
X005430Y017747D01*
X005730Y017447D01*
X005730Y017747D01*
X005655Y018026D02*
X005355Y018026D01*
X005280Y018101D01*
X005280Y018251D01*
X005355Y018326D01*
X005430Y018487D02*
X005280Y018637D01*
X005730Y018637D01*
X005730Y018487D02*
X005730Y018787D01*
X005505Y018947D02*
X005505Y019247D01*
X005280Y019172D02*
X005505Y018947D01*
X005730Y019172D02*
X005280Y019172D01*
X005655Y018326D02*
X005730Y018251D01*
X005730Y018101D01*
X005655Y018026D01*
D19*
X007505Y002426D03*
D20*
X010505Y002521D02*
X010755Y002521D01*
X011005Y002521D01*
X011005Y002271D02*
X010755Y002271D01*
X010505Y002271D01*
X012005Y002271D02*
X012255Y002271D01*
X012505Y002271D01*
X012505Y002521D02*
X012255Y002521D01*
X012005Y002521D01*
X013505Y002521D02*
X013755Y002521D01*
X014005Y002521D01*
X014005Y002271D02*
X013755Y002271D01*
X013505Y002271D01*
X017255Y007531D02*
X017505Y007531D01*
X017755Y007531D01*
X017755Y007781D02*
X017505Y007781D01*
X017255Y007781D01*
X013505Y007771D02*
X013255Y007771D01*
X013005Y007771D01*
X013005Y008021D02*
X013255Y008021D01*
X013505Y008021D01*
X012005Y008021D02*
X011755Y008021D01*
X011505Y008021D01*
X011505Y007771D02*
X011755Y007771D01*
X012005Y007771D01*
X007385Y011651D02*
X007385Y011901D01*
X007385Y012151D01*
X007135Y012151D02*
X007135Y011901D01*
X007135Y011651D01*
X007135Y013151D02*
X007135Y013401D01*
X007135Y013651D01*
X007385Y013651D02*
X007385Y013401D01*
X007385Y013151D01*
X007385Y016901D02*
X007385Y017151D01*
X007385Y017401D01*
X007135Y017401D02*
X007135Y017151D01*
X007135Y016901D01*
X007135Y018401D02*
X007135Y018651D01*
X007135Y018901D01*
X007385Y018901D02*
X007385Y018651D01*
X007385Y018401D01*
X020885Y001901D02*
X020885Y001651D01*
X020885Y001401D01*
X021135Y001401D02*
X021135Y001651D01*
X021135Y001901D01*
D21*
X005755Y006651D02*
X005755Y008151D01*
D22*
X005712Y008205D01*
X005666Y008257D01*
X005617Y008306D01*
X005565Y008353D01*
X005511Y008396D01*
X005455Y008437D01*
X005396Y008474D01*
X005336Y008508D01*
X005273Y008538D01*
X005210Y008565D01*
X005144Y008589D01*
X005078Y008609D01*
X005010Y008625D01*
X004942Y008637D01*
X004873Y008645D01*
X004804Y008650D01*
X004734Y008651D01*
X004665Y008648D01*
X004596Y008641D01*
X004528Y008630D01*
X004460Y008616D01*
X004393Y008597D01*
X004327Y008575D01*
X004262Y008550D01*
X004199Y008521D01*
X004138Y008488D01*
X004079Y008452D01*
X004022Y008413D01*
X003966Y008371D01*
X003914Y008326D01*
X003864Y008278D01*
X003817Y008227D01*
X003772Y008173D01*
X003731Y008118D01*
X003693Y008060D01*
X003658Y008000D01*
X003626Y007938D01*
X003598Y007875D01*
X003574Y007810D01*
X003553Y007744D01*
X003536Y007676D01*
X003522Y007608D01*
X003513Y007539D01*
X003507Y007470D01*
X003505Y007401D01*
X003507Y007332D01*
X003513Y007263D01*
X003522Y007194D01*
X003536Y007126D01*
X003553Y007058D01*
X003574Y006992D01*
X003598Y006927D01*
X003626Y006864D01*
X003658Y006802D01*
X003693Y006742D01*
X003731Y006684D01*
X003772Y006629D01*
X003817Y006575D01*
X003864Y006524D01*
X003914Y006476D01*
X003966Y006431D01*
X004022Y006389D01*
X004079Y006350D01*
X004138Y006314D01*
X004199Y006281D01*
X004262Y006252D01*
X004327Y006227D01*
X004393Y006205D01*
X004460Y006186D01*
X004528Y006172D01*
X004596Y006161D01*
X004665Y006154D01*
X004734Y006151D01*
X004804Y006152D01*
X004873Y006157D01*
X004942Y006165D01*
X005010Y006177D01*
X005078Y006193D01*
X005144Y006213D01*
X005210Y006237D01*
X005273Y006264D01*
X005336Y006294D01*
X005396Y006328D01*
X005455Y006365D01*
X005511Y006406D01*
X005565Y006449D01*
X005617Y006496D01*
X005666Y006545D01*
X005712Y006597D01*
X005755Y006651D01*
D23*
X018520Y007291D03*
X018510Y007501D03*
X018520Y007511D03*
X018610Y007791D03*
X018990Y007651D03*
X018990Y007641D03*
X018990Y007631D03*
X018990Y007621D03*
X018990Y007611D03*
X018990Y007601D03*
X018990Y007591D03*
X018990Y007581D03*
X018990Y007571D03*
X018990Y007561D03*
X018990Y007451D03*
X018990Y007441D03*
X018990Y007431D03*
X018990Y007421D03*
X018990Y007411D03*
X018990Y007401D03*
X018990Y007391D03*
X018990Y007381D03*
X018990Y007371D03*
X018990Y007361D03*
X018920Y007381D03*
X018920Y007391D03*
X018880Y007421D03*
X018990Y007251D03*
X018990Y007241D03*
X018990Y007231D03*
X018990Y007221D03*
X018990Y007211D03*
X018990Y007201D03*
X018990Y007191D03*
X018990Y007181D03*
X018990Y007171D03*
X018990Y007161D03*
X018920Y007171D03*
X019070Y006941D03*
X019230Y006971D03*
X019220Y007121D03*
X019220Y007131D03*
X019220Y007141D03*
X019220Y007151D03*
X019220Y007161D03*
X019220Y007171D03*
X019220Y007181D03*
X019220Y007191D03*
X019220Y007201D03*
X019220Y007321D03*
X019220Y007331D03*
X019220Y007341D03*
X019220Y007351D03*
X019220Y007361D03*
X019220Y007371D03*
X019220Y007381D03*
X019220Y007391D03*
X019220Y007401D03*
X019220Y007521D03*
X019220Y007531D03*
X019220Y007541D03*
X019220Y007551D03*
X019220Y007561D03*
X019220Y007571D03*
X019220Y007581D03*
X019220Y007591D03*
X019220Y007601D03*
X019420Y007901D03*
X019520Y007831D03*
X019760Y007981D03*
X019860Y007871D03*
X019770Y007581D03*
X019550Y007461D03*
X019550Y007361D03*
X019800Y007231D03*
X020010Y007311D03*
X020010Y007491D03*
X019440Y006971D03*
X019490Y006911D03*
X019170Y006641D03*
X018650Y006961D03*
D24*
X018660Y006931D03*
X019030Y006881D03*
X019230Y006901D03*
X019230Y006911D03*
X019230Y006921D03*
X019230Y006931D03*
X019230Y006941D03*
X019230Y006951D03*
X019230Y006961D03*
X019360Y006981D03*
X019450Y006961D03*
X019540Y007161D03*
X019540Y007341D03*
X019620Y007441D03*
X019540Y007481D03*
X019740Y007621D03*
X019840Y007911D03*
X019830Y007921D03*
X019780Y007971D03*
X020020Y007471D03*
X020020Y007461D03*
X020020Y007341D03*
X020020Y007331D03*
X019880Y006961D03*
X019880Y006951D03*
X019250Y006641D03*
X018930Y007361D03*
X018930Y007411D03*
X018930Y007421D03*
X018880Y007411D03*
X018730Y007611D03*
X018620Y007821D03*
X018620Y007831D03*
X018500Y007481D03*
X018500Y007321D03*
X018500Y007311D03*
X018510Y007301D03*
D25*
X018530Y007271D03*
X018640Y006991D03*
X019000Y007131D03*
X019000Y007271D03*
X019000Y007331D03*
X019000Y007471D03*
X019000Y007531D03*
X019000Y007671D03*
X018980Y007831D03*
X019060Y007851D03*
X019100Y007861D03*
X019140Y007871D03*
X019310Y007881D03*
X019350Y007871D03*
X019400Y007861D03*
X019440Y007851D03*
X019430Y007661D03*
X019430Y007461D03*
X019560Y007441D03*
X019560Y007391D03*
X019620Y007471D03*
X019720Y007631D03*
X019870Y007841D03*
X020000Y007511D03*
X020000Y007291D03*
X019990Y007281D03*
X019900Y007021D03*
X019900Y007011D03*
X019500Y006901D03*
X019440Y006981D03*
X019210Y007091D03*
X019210Y007231D03*
X019210Y007291D03*
X019210Y007431D03*
X019210Y007491D03*
X019210Y007631D03*
X018880Y007431D03*
X018530Y007531D03*
X019160Y006941D03*
X019430Y007261D03*
X019340Y006641D03*
X019180Y008171D03*
D26*
X018995Y007911D03*
X019195Y007651D03*
X019195Y007451D03*
X019015Y007511D03*
X019015Y007311D03*
X018895Y007181D03*
X019015Y007111D03*
X019195Y007251D03*
X019145Y006921D03*
X019005Y006851D03*
X019135Y006651D03*
X018635Y007021D03*
X018725Y007231D03*
X018545Y007251D03*
X019625Y007351D03*
X019975Y007261D03*
X019905Y007061D03*
X019975Y007541D03*
X019695Y007961D03*
D27*
X019490Y007941D03*
X019400Y007911D03*
X019500Y007811D03*
X019780Y007571D03*
X019620Y007481D03*
X019570Y007421D03*
X019570Y007411D03*
X019570Y007171D03*
X019910Y007051D03*
X019250Y006651D03*
X019150Y006931D03*
X018890Y007321D03*
X018880Y007451D03*
X018900Y007621D03*
X018600Y007731D03*
X018600Y007741D03*
X018540Y007541D03*
X018540Y007261D03*
X019100Y007911D03*
X019330Y008171D03*
X019880Y007811D03*
X019980Y007531D03*
D28*
X019880Y007791D03*
X019880Y007801D03*
X019500Y007951D03*
X019250Y007891D03*
X019000Y007811D03*
X018780Y007921D03*
X018600Y007721D03*
X018600Y007711D03*
X018600Y007701D03*
X018550Y007551D03*
X018690Y007551D03*
X018760Y007631D03*
X018880Y007461D03*
X018890Y007311D03*
X018800Y007161D03*
X018630Y007041D03*
X018630Y007031D03*
X018560Y007241D03*
X018810Y006841D03*
X019380Y006651D03*
X019510Y006891D03*
X019360Y007111D03*
X019360Y007311D03*
X019360Y007511D03*
X019620Y007491D03*
X019630Y007341D03*
X019750Y007171D03*
X019820Y007251D03*
X019910Y007081D03*
X019910Y007071D03*
X019140Y008161D03*
D29*
X019255Y008141D03*
X019885Y007781D03*
X019885Y007771D03*
X019705Y007641D03*
X019785Y007561D03*
X019615Y007501D03*
X019625Y007331D03*
X019415Y007251D03*
X019415Y007451D03*
X019415Y007651D03*
X019185Y007261D03*
X019185Y006991D03*
X019135Y006911D03*
X019345Y006961D03*
X019105Y006661D03*
X018625Y007051D03*
X018715Y007241D03*
X018885Y007291D03*
X018885Y007301D03*
X019965Y007251D03*
X019965Y007551D03*
D30*
X019890Y007761D03*
X019590Y007621D03*
X019380Y007921D03*
X019120Y007921D03*
X018980Y007921D03*
X018880Y007611D03*
X018880Y007471D03*
X019030Y007501D03*
X019180Y007461D03*
X019180Y007661D03*
X019030Y007301D03*
X018880Y007281D03*
X019030Y007101D03*
X018630Y007061D03*
X018570Y007231D03*
X018680Y007541D03*
X018560Y007561D03*
X018600Y007681D03*
X018600Y007691D03*
X019370Y008161D03*
X019910Y007101D03*
X019910Y007091D03*
X019720Y006881D03*
X019520Y006881D03*
X019250Y006661D03*
D31*
X019405Y006661D03*
X019085Y006671D03*
X018995Y006841D03*
X019125Y006881D03*
X019125Y006891D03*
X019125Y006901D03*
X019135Y006871D03*
X019355Y006951D03*
X019365Y007121D03*
X019405Y007241D03*
X019595Y007181D03*
X019625Y007321D03*
X019615Y007511D03*
X019405Y007441D03*
X019365Y007521D03*
X019405Y007641D03*
X019475Y007801D03*
X019515Y007961D03*
X019885Y007751D03*
X019955Y007561D03*
X019955Y007241D03*
X019825Y007261D03*
X019915Y007111D03*
X018875Y007191D03*
X018875Y007261D03*
X018875Y007271D03*
X018875Y007481D03*
X018575Y007571D03*
X018625Y007081D03*
X018625Y007071D03*
X019115Y008151D03*
D32*
X019250Y008131D03*
X019400Y008151D03*
X019890Y007741D03*
X019890Y007731D03*
X019800Y007551D03*
X019940Y007231D03*
X019910Y007131D03*
X019910Y007121D03*
X019730Y007161D03*
X019370Y007321D03*
X018870Y007251D03*
X018870Y007241D03*
X018870Y007491D03*
X018870Y007501D03*
X018600Y007661D03*
X018600Y007671D03*
X018580Y007221D03*
X019140Y006861D03*
X019250Y006671D03*
D33*
X019425Y006671D03*
X019065Y006681D03*
X019165Y007001D03*
X019365Y006941D03*
X019375Y007131D03*
X019405Y007231D03*
X019375Y007331D03*
X019405Y007431D03*
X019375Y007531D03*
X019405Y007631D03*
X019615Y007521D03*
X019625Y007311D03*
X019945Y007571D03*
X019165Y007471D03*
X019045Y007491D03*
X018865Y007511D03*
X018675Y007531D03*
X018585Y007581D03*
X018605Y007651D03*
X018705Y007251D03*
X018825Y007151D03*
X018865Y007231D03*
X019045Y007291D03*
X019165Y007271D03*
X019165Y007671D03*
X019025Y007801D03*
X019145Y007931D03*
X019095Y008141D03*
X018625Y007101D03*
X018625Y007091D03*
D34*
X018630Y007111D03*
X018860Y007211D03*
X018860Y007221D03*
X019050Y007091D03*
X018980Y006831D03*
X019250Y006681D03*
X019360Y006891D03*
X019370Y006901D03*
X019370Y006911D03*
X019370Y006921D03*
X019370Y006931D03*
X019540Y006871D03*
X019380Y007141D03*
X019400Y007221D03*
X019380Y007341D03*
X019400Y007421D03*
X019380Y007541D03*
X019400Y007621D03*
X019610Y007611D03*
X019610Y007531D03*
X019890Y007711D03*
X019890Y007721D03*
X019930Y007581D03*
X019830Y007271D03*
X019930Y007221D03*
X019910Y007151D03*
X019910Y007141D03*
X019690Y007951D03*
X019420Y008141D03*
X019250Y008121D03*
X019070Y008131D03*
X018780Y007641D03*
X018860Y007601D03*
X018860Y007521D03*
X018600Y007641D03*
D35*
X018605Y007631D03*
X018605Y007621D03*
X018595Y007591D03*
X018855Y007541D03*
X018855Y007531D03*
X018695Y007261D03*
X018595Y007211D03*
X018625Y007131D03*
X018625Y007121D03*
X018855Y007201D03*
X018815Y006851D03*
X019055Y006691D03*
X019345Y006861D03*
X019355Y006871D03*
X019355Y006881D03*
X019445Y006681D03*
X019385Y007151D03*
X019385Y007161D03*
X019385Y007171D03*
X019395Y007201D03*
X019395Y007211D03*
X019385Y007351D03*
X019385Y007361D03*
X019385Y007371D03*
X019395Y007401D03*
X019395Y007411D03*
X019385Y007551D03*
X019385Y007561D03*
X019385Y007571D03*
X019395Y007601D03*
X019395Y007611D03*
X019615Y007541D03*
X019675Y007651D03*
X019805Y007541D03*
X019895Y007701D03*
X019525Y007971D03*
X019355Y007931D03*
X018965Y007931D03*
X019625Y007301D03*
X019615Y007191D03*
X019905Y007161D03*
D36*
X019910Y007171D03*
X019920Y007211D03*
X019840Y007281D03*
X019620Y007551D03*
X019620Y007561D03*
X019390Y007581D03*
X019390Y007591D03*
X019390Y007391D03*
X019390Y007381D03*
X019390Y007191D03*
X019390Y007181D03*
X018850Y007551D03*
X018670Y007521D03*
X018610Y007611D03*
X018790Y007911D03*
X019060Y008121D03*
X019250Y008111D03*
X019440Y008131D03*
X019890Y007691D03*
X019890Y007681D03*
X019250Y006691D03*
X018610Y007201D03*
D37*
X018625Y007151D03*
X018625Y007141D03*
X018695Y007271D03*
X018665Y007511D03*
X018605Y007601D03*
X018845Y007571D03*
X018845Y007561D03*
X019445Y007791D03*
X019625Y007581D03*
X019625Y007571D03*
X019815Y007531D03*
X019915Y007591D03*
X019905Y007191D03*
X019905Y007181D03*
X019625Y007281D03*
X019625Y007291D03*
X019715Y006891D03*
X019465Y006691D03*
X019035Y006701D03*
D38*
X019020Y006711D03*
X018960Y006821D03*
X019140Y007011D03*
X018840Y007131D03*
X018840Y007141D03*
X018630Y007161D03*
X018840Y007581D03*
X018840Y007591D03*
X019050Y007791D03*
X019040Y008111D03*
X019250Y008101D03*
X019460Y008121D03*
X019680Y007941D03*
X019890Y007671D03*
X019890Y007661D03*
X019630Y007601D03*
X019630Y007591D03*
X019630Y007271D03*
X019840Y007291D03*
X019480Y006701D03*
X019250Y006701D03*
D39*
X019250Y006711D03*
X019490Y006711D03*
X019560Y006861D03*
X019640Y007241D03*
X019840Y007301D03*
X019890Y007641D03*
X019250Y008081D03*
X019010Y008091D03*
X018940Y007941D03*
X018800Y007901D03*
X018690Y007281D03*
X018630Y007181D03*
X018830Y007101D03*
X018830Y007091D03*
X018830Y007081D03*
D40*
X018835Y007111D03*
X018835Y007121D03*
X018625Y007171D03*
X018625Y007191D03*
X018665Y007501D03*
X018805Y007651D03*
X019025Y008101D03*
X019255Y008091D03*
X019475Y008111D03*
X019545Y007981D03*
X019885Y007651D03*
X019905Y007601D03*
X019815Y007521D03*
X019635Y007261D03*
X019635Y007251D03*
X019635Y007201D03*
X019705Y007151D03*
X019905Y007201D03*
X019005Y006721D03*
X018825Y006861D03*
D41*
X018825Y007051D03*
X018825Y007061D03*
X018825Y007071D03*
X018685Y007291D03*
X018985Y006741D03*
X018995Y006731D03*
X019255Y006721D03*
X019505Y006721D03*
X019705Y006901D03*
X019645Y007221D03*
X019645Y007231D03*
X019845Y007311D03*
X019885Y007621D03*
X019885Y007631D03*
X019685Y007741D03*
X019685Y007751D03*
X019685Y007761D03*
X019675Y007731D03*
X019675Y007931D03*
X019485Y008101D03*
D42*
X019500Y008091D03*
X019250Y008071D03*
X019420Y007781D03*
X019650Y007671D03*
X019650Y007661D03*
X019690Y007771D03*
X019690Y007781D03*
X019690Y007791D03*
X019690Y007801D03*
X019890Y007611D03*
X019820Y007511D03*
X019650Y007211D03*
X019520Y006731D03*
X019250Y006731D03*
X018820Y007021D03*
X018820Y007031D03*
X018820Y007041D03*
X018660Y007491D03*
X018990Y008071D03*
X019000Y008081D03*
D43*
X018790Y007761D03*
X018790Y007751D03*
X018810Y007701D03*
X018810Y007691D03*
X018810Y007681D03*
X018660Y007481D03*
X018680Y007301D03*
X018820Y006921D03*
X018960Y006761D03*
X019250Y006751D03*
X019250Y006741D03*
X019530Y006741D03*
X019540Y006751D03*
X019660Y007711D03*
X019660Y007721D03*
X019690Y007861D03*
X019250Y008051D03*
D44*
X019255Y008061D03*
X019515Y008081D03*
X019695Y007851D03*
X019695Y007841D03*
X019695Y007831D03*
X019695Y007821D03*
X019695Y007811D03*
X019655Y007701D03*
X019655Y007691D03*
X019655Y007681D03*
X019825Y007501D03*
X019845Y007321D03*
X019075Y007781D03*
X018815Y007671D03*
X018815Y007661D03*
X018975Y008061D03*
X018815Y007011D03*
X018815Y007001D03*
X018815Y006991D03*
X018815Y006981D03*
X018815Y006971D03*
X018815Y006961D03*
X018815Y006951D03*
X018815Y006941D03*
X018815Y006931D03*
X018835Y006871D03*
X018975Y006751D03*
D45*
X018840Y006881D03*
X019250Y006761D03*
X019550Y006761D03*
X019560Y006771D03*
X018680Y007311D03*
X018660Y007461D03*
X018950Y008031D03*
X019250Y008031D03*
X019250Y008041D03*
X019550Y008051D03*
X019680Y007871D03*
D46*
X019665Y007921D03*
X019535Y008061D03*
X019525Y008071D03*
X019105Y007691D03*
X019105Y007681D03*
X019105Y007481D03*
X019105Y007281D03*
X019105Y007081D03*
X019105Y007071D03*
X019105Y007061D03*
X019105Y007051D03*
X019105Y007041D03*
X019105Y007031D03*
X019105Y007021D03*
X018945Y006781D03*
X018955Y006771D03*
X019695Y006911D03*
X019675Y007141D03*
X019845Y007331D03*
X019825Y007491D03*
X018965Y008051D03*
X018955Y008041D03*
X018805Y007891D03*
X018795Y007861D03*
X018785Y007851D03*
X018785Y007841D03*
X018785Y007831D03*
X018785Y007821D03*
X018785Y007811D03*
X018785Y007801D03*
X018785Y007791D03*
X018785Y007781D03*
X018785Y007771D03*
X018795Y007741D03*
X018805Y007731D03*
X018805Y007721D03*
X018805Y007711D03*
X018655Y007471D03*
D47*
X018675Y007321D03*
X018925Y006801D03*
X018935Y006791D03*
X019255Y006771D03*
X019675Y007111D03*
X019675Y007121D03*
X019675Y007131D03*
X019845Y007341D03*
X019825Y007481D03*
X019395Y007771D03*
X019095Y007771D03*
X018935Y008021D03*
X019555Y008041D03*
D48*
X019570Y008031D03*
X019660Y007911D03*
X019250Y008011D03*
X019250Y008021D03*
X018930Y008011D03*
X018920Y008001D03*
X018820Y007881D03*
X018810Y007871D03*
X019120Y007701D03*
X018660Y007451D03*
X018850Y006891D03*
X018920Y006811D03*
X019250Y006791D03*
X019250Y006781D03*
X019570Y006781D03*
X019580Y006791D03*
X019680Y007091D03*
X019680Y007101D03*
X019830Y007471D03*
D49*
X019830Y007461D03*
X019690Y007051D03*
X019690Y007041D03*
X019690Y007031D03*
X019690Y007021D03*
X019690Y006951D03*
X019600Y006811D03*
X019250Y006811D03*
X019250Y006801D03*
X018660Y007441D03*
X018900Y007981D03*
X018910Y007991D03*
X019250Y007991D03*
X019250Y008001D03*
X019650Y007901D03*
D50*
X019585Y008011D03*
X019575Y008021D03*
X019845Y007361D03*
X019845Y007351D03*
X019685Y007081D03*
X019685Y007071D03*
X019685Y007061D03*
X019685Y006921D03*
X019585Y006801D03*
X018675Y007331D03*
D51*
X018675Y007341D03*
X018665Y007431D03*
X018855Y006901D03*
X019255Y006821D03*
X019605Y006821D03*
X019685Y006941D03*
X019695Y006961D03*
X019695Y006971D03*
X019695Y006981D03*
X019695Y006991D03*
X019695Y007001D03*
X019695Y007011D03*
X019845Y007371D03*
X019655Y007881D03*
X019595Y008001D03*
X019255Y007981D03*
X018895Y007971D03*
D52*
X018890Y007961D03*
X018880Y007951D03*
X019250Y007961D03*
X019250Y007971D03*
X019600Y007991D03*
X019640Y007891D03*
X019830Y007451D03*
X019830Y007441D03*
X019840Y007381D03*
X019680Y006931D03*
X019620Y006841D03*
X019610Y006831D03*
X019250Y006831D03*
X018860Y006911D03*
X018680Y007351D03*
X018670Y007421D03*
D53*
X018665Y007411D03*
X018675Y007361D03*
X019145Y007711D03*
X019835Y007391D03*
X019625Y006851D03*
X019255Y006841D03*
D54*
X019250Y006851D03*
X018680Y007371D03*
X018670Y007401D03*
X019250Y007941D03*
X019250Y007951D03*
X019830Y007431D03*
X019830Y007401D03*
D55*
X019815Y007241D03*
X019985Y007271D03*
X019905Y007041D03*
X019905Y007031D03*
X019625Y007361D03*
X019565Y007401D03*
X019565Y007431D03*
X019565Y007631D03*
X019485Y007841D03*
X019875Y007831D03*
X019875Y007821D03*
X019995Y007521D03*
X019435Y006991D03*
X019345Y006971D03*
X019205Y006981D03*
X019075Y006961D03*
X019075Y006951D03*
X019015Y006861D03*
X019005Y007121D03*
X019005Y007321D03*
X018885Y007331D03*
X018875Y007441D03*
X019005Y007521D03*
X019205Y007441D03*
X019205Y007241D03*
X019205Y007641D03*
X019015Y007841D03*
X019005Y007901D03*
X018605Y007761D03*
X018605Y007751D03*
X018695Y007561D03*
X018635Y007011D03*
X018635Y007001D03*
X019255Y008151D03*
D56*
X019075Y007901D03*
X019015Y007891D03*
X018925Y007631D03*
X018705Y007571D03*
X018505Y007491D03*
X018615Y007801D03*
X018615Y007811D03*
X018715Y007941D03*
X018925Y007401D03*
X018925Y007371D03*
X018885Y007351D03*
X018985Y007011D03*
X018985Y007001D03*
X018985Y006991D03*
X018985Y006981D03*
X018985Y006971D03*
X018985Y006961D03*
X018985Y006951D03*
X019055Y006971D03*
X019065Y006931D03*
X019455Y007001D03*
X019545Y007351D03*
X019625Y007381D03*
X019625Y007451D03*
X019545Y007471D03*
X019525Y007821D03*
X019475Y007921D03*
X019845Y007901D03*
X019845Y007891D03*
X019855Y007881D03*
X020015Y007481D03*
X020015Y007321D03*
X019895Y006991D03*
X019895Y006981D03*
X019885Y006971D03*
X019795Y006861D03*
X018655Y006941D03*
X018655Y006951D03*
D57*
X018645Y006971D03*
X018645Y006981D03*
X018785Y007171D03*
X018735Y007221D03*
X018885Y007341D03*
X018995Y007341D03*
X018995Y007351D03*
X018995Y007261D03*
X018995Y007151D03*
X018995Y007141D03*
X019215Y007111D03*
X019215Y007101D03*
X019215Y007211D03*
X019215Y007221D03*
X019215Y007301D03*
X019215Y007311D03*
X019215Y007411D03*
X019215Y007421D03*
X019215Y007501D03*
X019215Y007511D03*
X019215Y007611D03*
X019215Y007621D03*
X019345Y007501D03*
X019345Y007301D03*
X019345Y007101D03*
X019025Y006871D03*
X018995Y007461D03*
X018995Y007541D03*
X018995Y007551D03*
X018995Y007661D03*
X018975Y007821D03*
X019185Y007881D03*
X019485Y007931D03*
X019865Y007861D03*
X019865Y007851D03*
X020005Y007501D03*
X020005Y007301D03*
X019765Y007181D03*
X019895Y007001D03*
X019625Y007371D03*
X019555Y007371D03*
X019555Y007381D03*
X019555Y007451D03*
X019625Y007461D03*
X018745Y007621D03*
X018605Y007771D03*
X018605Y007781D03*
X018525Y007521D03*
X018525Y007281D03*
D58*
X018495Y007331D03*
X018495Y007471D03*
X018745Y007211D03*
X018765Y007181D03*
X018885Y007361D03*
X018935Y007351D03*
X018935Y007431D03*
X018625Y007841D03*
X019245Y007901D03*
X019535Y007491D03*
X019625Y007391D03*
X019535Y007331D03*
X019775Y007191D03*
X019795Y007221D03*
X020025Y007351D03*
X020025Y007361D03*
X020025Y007441D03*
X020025Y007451D03*
X019755Y007591D03*
X019825Y007931D03*
X019815Y007941D03*
X019875Y006941D03*
X019815Y006871D03*
X019475Y006921D03*
X019235Y006891D03*
X019145Y006951D03*
X019055Y006921D03*
X019025Y006921D03*
X018665Y006921D03*
D59*
X018685Y007381D03*
X018675Y007391D03*
X019825Y007411D03*
X019825Y007421D03*
D60*
X019165Y007721D03*
D61*
X019190Y007731D03*
D62*
X019210Y007741D03*
D63*
X019230Y007751D03*
D64*
X019250Y007761D03*
D65*
X009735Y010151D03*
X004775Y010151D03*
X004775Y015401D03*
X009735Y015401D03*
M02*
