G75*
G70*
%OFA0B0*%
%FSLAX24Y24*%
%IPPOS*%
%LPD*%
%AMOC8*
5,1,8,0,0,1.08239X$1,22.5*
%
%ADD10C,0.0000*%
%ADD11C,0.0600*%
%ADD12C,0.1000*%
%ADD13OC8,0.1000*%
%ADD14OC8,0.0520*%
%ADD15C,0.0520*%
%ADD16C,0.0520*%
%ADD17OC8,0.0600*%
%ADD18C,0.0100*%
%ADD19C,0.0200*%
%ADD20R,0.0356X0.0356*%
D10*
X003003Y000151D02*
X003003Y027651D01*
X020003Y027651D01*
X019996Y000151D01*
X003003Y000151D01*
X009873Y008651D02*
X009875Y008701D01*
X009881Y008751D01*
X009891Y008800D01*
X009905Y008848D01*
X009922Y008895D01*
X009943Y008940D01*
X009968Y008984D01*
X009996Y009025D01*
X010028Y009064D01*
X010062Y009101D01*
X010099Y009135D01*
X010139Y009165D01*
X010181Y009192D01*
X010225Y009216D01*
X010271Y009237D01*
X010318Y009253D01*
X010366Y009266D01*
X010416Y009275D01*
X010465Y009280D01*
X010516Y009281D01*
X010566Y009278D01*
X010615Y009271D01*
X010664Y009260D01*
X010712Y009245D01*
X010758Y009227D01*
X010803Y009205D01*
X010846Y009179D01*
X010887Y009150D01*
X010926Y009118D01*
X010962Y009083D01*
X010994Y009045D01*
X011024Y009005D01*
X011051Y008962D01*
X011074Y008918D01*
X011093Y008872D01*
X011109Y008824D01*
X011121Y008775D01*
X011129Y008726D01*
X011133Y008676D01*
X011133Y008626D01*
X011129Y008576D01*
X011121Y008527D01*
X011109Y008478D01*
X011093Y008430D01*
X011074Y008384D01*
X011051Y008340D01*
X011024Y008297D01*
X010994Y008257D01*
X010962Y008219D01*
X010926Y008184D01*
X010887Y008152D01*
X010846Y008123D01*
X010803Y008097D01*
X010758Y008075D01*
X010712Y008057D01*
X010664Y008042D01*
X010615Y008031D01*
X010566Y008024D01*
X010516Y008021D01*
X010465Y008022D01*
X010416Y008027D01*
X010366Y008036D01*
X010318Y008049D01*
X010271Y008065D01*
X010225Y008086D01*
X010181Y008110D01*
X010139Y008137D01*
X010099Y008167D01*
X010062Y008201D01*
X010028Y008238D01*
X009996Y008277D01*
X009968Y008318D01*
X009943Y008362D01*
X009922Y008407D01*
X009905Y008454D01*
X009891Y008502D01*
X009881Y008551D01*
X009875Y008601D01*
X009873Y008651D01*
X016903Y017151D02*
X016905Y017179D01*
X016911Y017206D01*
X016920Y017232D01*
X016933Y017257D01*
X016950Y017280D01*
X016969Y017300D01*
X016991Y017317D01*
X017015Y017331D01*
X017041Y017341D01*
X017068Y017348D01*
X017096Y017351D01*
X017124Y017350D01*
X017151Y017345D01*
X017178Y017336D01*
X017203Y017324D01*
X017226Y017309D01*
X017247Y017290D01*
X017265Y017269D01*
X017280Y017245D01*
X017291Y017219D01*
X017299Y017193D01*
X017303Y017165D01*
X017303Y017137D01*
X017299Y017109D01*
X017291Y017083D01*
X017280Y017057D01*
X017265Y017033D01*
X017247Y017012D01*
X017226Y016993D01*
X017203Y016978D01*
X017178Y016966D01*
X017151Y016957D01*
X017124Y016952D01*
X017096Y016951D01*
X017068Y016954D01*
X017041Y016961D01*
X017015Y016971D01*
X016991Y016985D01*
X016969Y017002D01*
X016950Y017022D01*
X016933Y017045D01*
X016920Y017070D01*
X016911Y017096D01*
X016905Y017123D01*
X016903Y017151D01*
X017703Y017151D02*
X017705Y017179D01*
X017711Y017206D01*
X017720Y017232D01*
X017733Y017257D01*
X017750Y017280D01*
X017769Y017300D01*
X017791Y017317D01*
X017815Y017331D01*
X017841Y017341D01*
X017868Y017348D01*
X017896Y017351D01*
X017924Y017350D01*
X017951Y017345D01*
X017978Y017336D01*
X018003Y017324D01*
X018026Y017309D01*
X018047Y017290D01*
X018065Y017269D01*
X018080Y017245D01*
X018091Y017219D01*
X018099Y017193D01*
X018103Y017165D01*
X018103Y017137D01*
X018099Y017109D01*
X018091Y017083D01*
X018080Y017057D01*
X018065Y017033D01*
X018047Y017012D01*
X018026Y016993D01*
X018003Y016978D01*
X017978Y016966D01*
X017951Y016957D01*
X017924Y016952D01*
X017896Y016951D01*
X017868Y016954D01*
X017841Y016961D01*
X017815Y016971D01*
X017791Y016985D01*
X017769Y017002D01*
X017750Y017022D01*
X017733Y017045D01*
X017720Y017070D01*
X017711Y017096D01*
X017705Y017123D01*
X017703Y017151D01*
X017303Y020151D02*
X017305Y020179D01*
X017311Y020206D01*
X017320Y020232D01*
X017333Y020257D01*
X017350Y020280D01*
X017369Y020300D01*
X017391Y020317D01*
X017415Y020331D01*
X017441Y020341D01*
X017468Y020348D01*
X017496Y020351D01*
X017524Y020350D01*
X017551Y020345D01*
X017578Y020336D01*
X017603Y020324D01*
X017626Y020309D01*
X017647Y020290D01*
X017665Y020269D01*
X017680Y020245D01*
X017691Y020219D01*
X017699Y020193D01*
X017703Y020165D01*
X017703Y020137D01*
X017699Y020109D01*
X017691Y020083D01*
X017680Y020057D01*
X017665Y020033D01*
X017647Y020012D01*
X017626Y019993D01*
X017603Y019978D01*
X017578Y019966D01*
X017551Y019957D01*
X017524Y019952D01*
X017496Y019951D01*
X017468Y019954D01*
X017441Y019961D01*
X017415Y019971D01*
X017391Y019985D01*
X017369Y020002D01*
X017350Y020022D01*
X017333Y020045D01*
X017320Y020070D01*
X017311Y020096D01*
X017305Y020123D01*
X017303Y020151D01*
X017623Y022901D02*
X017625Y022951D01*
X017631Y023001D01*
X017641Y023050D01*
X017655Y023098D01*
X017672Y023145D01*
X017693Y023190D01*
X017718Y023234D01*
X017746Y023275D01*
X017778Y023314D01*
X017812Y023351D01*
X017849Y023385D01*
X017889Y023415D01*
X017931Y023442D01*
X017975Y023466D01*
X018021Y023487D01*
X018068Y023503D01*
X018116Y023516D01*
X018166Y023525D01*
X018215Y023530D01*
X018266Y023531D01*
X018316Y023528D01*
X018365Y023521D01*
X018414Y023510D01*
X018462Y023495D01*
X018508Y023477D01*
X018553Y023455D01*
X018596Y023429D01*
X018637Y023400D01*
X018676Y023368D01*
X018712Y023333D01*
X018744Y023295D01*
X018774Y023255D01*
X018801Y023212D01*
X018824Y023168D01*
X018843Y023122D01*
X018859Y023074D01*
X018871Y023025D01*
X018879Y022976D01*
X018883Y022926D01*
X018883Y022876D01*
X018879Y022826D01*
X018871Y022777D01*
X018859Y022728D01*
X018843Y022680D01*
X018824Y022634D01*
X018801Y022590D01*
X018774Y022547D01*
X018744Y022507D01*
X018712Y022469D01*
X018676Y022434D01*
X018637Y022402D01*
X018596Y022373D01*
X018553Y022347D01*
X018508Y022325D01*
X018462Y022307D01*
X018414Y022292D01*
X018365Y022281D01*
X018316Y022274D01*
X018266Y022271D01*
X018215Y022272D01*
X018166Y022277D01*
X018116Y022286D01*
X018068Y022299D01*
X018021Y022315D01*
X017975Y022336D01*
X017931Y022360D01*
X017889Y022387D01*
X017849Y022417D01*
X017812Y022451D01*
X017778Y022488D01*
X017746Y022527D01*
X017718Y022568D01*
X017693Y022612D01*
X017672Y022657D01*
X017655Y022704D01*
X017641Y022752D01*
X017631Y022801D01*
X017625Y022851D01*
X017623Y022901D01*
D11*
X017803Y024151D02*
X017203Y024151D01*
X017203Y025151D02*
X017803Y025151D01*
X017803Y026151D02*
X017203Y026151D01*
X017003Y014951D02*
X017003Y014351D01*
X016003Y014351D02*
X016003Y014951D01*
X015003Y014951D02*
X015003Y014351D01*
X014003Y014351D02*
X014003Y014951D01*
X018003Y014951D02*
X018003Y014351D01*
X018203Y012651D02*
X018803Y012651D01*
X018803Y011651D02*
X018203Y011651D01*
X018203Y010651D02*
X018803Y010651D01*
X018803Y009651D02*
X018203Y009651D01*
X018203Y008651D02*
X018803Y008651D01*
X006803Y005651D02*
X006203Y005651D01*
X006203Y004651D02*
X006803Y004651D01*
X004803Y003151D02*
X004203Y003151D01*
X004203Y002151D02*
X004803Y002151D01*
X004803Y011651D02*
X004203Y011651D01*
X004203Y012651D02*
X004803Y012651D01*
X004803Y013651D02*
X004203Y013651D01*
X004203Y022651D02*
X004803Y022651D01*
X004803Y023651D02*
X004203Y023651D01*
X004203Y024651D02*
X004803Y024651D01*
D12*
X010003Y004151D03*
D13*
X010003Y002151D03*
D14*
X013003Y002151D03*
X014503Y002151D03*
X014503Y004151D03*
X014503Y005651D03*
X014503Y007651D03*
X013003Y009651D03*
X013003Y011151D03*
X013003Y012651D03*
X011503Y013651D03*
X010003Y013651D03*
X008503Y014151D03*
X008003Y012151D03*
X008003Y011151D03*
X008753Y011651D03*
X010003Y009651D03*
X008503Y009151D03*
X006503Y009151D03*
X008503Y006251D03*
X011003Y006251D03*
X013003Y004151D03*
X016003Y004151D03*
X016003Y005651D03*
X016003Y007651D03*
X017003Y009651D03*
X017003Y011151D03*
X017003Y012651D03*
X011503Y009651D03*
X006503Y014151D03*
X006503Y017151D03*
X006503Y019151D03*
X006503Y021151D03*
X008003Y023151D03*
X008003Y024151D03*
X008753Y023651D03*
X010003Y025651D03*
X008503Y026151D03*
X006503Y026151D03*
X010003Y021651D03*
X008503Y021151D03*
X011503Y021651D03*
X012503Y021401D03*
X012503Y022901D03*
X014503Y024151D03*
X014503Y025151D03*
X016503Y022901D03*
X016503Y021401D03*
X011503Y025651D03*
X018503Y004151D03*
X018503Y002151D03*
X016003Y002151D03*
D15*
X011003Y007051D03*
X008503Y007051D03*
D16*
X008503Y016391D02*
X008503Y016911D01*
X009503Y016911D02*
X009503Y016391D01*
X010503Y016391D02*
X010503Y016911D01*
X011503Y016911D02*
X011503Y016391D01*
X011503Y019391D02*
X011503Y019911D01*
X010503Y019911D02*
X010503Y019391D01*
X009503Y019391D02*
X009503Y019911D01*
X008503Y019911D02*
X008503Y019391D01*
D17*
X004253Y021151D03*
X004253Y015151D03*
X004253Y010401D03*
X004253Y004401D03*
X014003Y017651D03*
X014003Y018651D03*
X014003Y019651D03*
X015003Y019651D03*
X015003Y018651D03*
X015003Y017651D03*
D18*
X014953Y017692D02*
X014413Y017692D01*
X014413Y017790D02*
X014553Y017790D01*
X014553Y017838D02*
X014553Y017701D01*
X014953Y017701D01*
X014953Y017601D01*
X014553Y017601D01*
X014553Y017465D01*
X014817Y017201D01*
X014953Y017201D01*
X014953Y017601D01*
X015053Y017601D01*
X015053Y017201D01*
X015190Y017201D01*
X015453Y017465D01*
X015453Y017601D01*
X015054Y017601D01*
X015054Y017701D01*
X015453Y017701D01*
X015453Y017838D01*
X015190Y018101D01*
X015053Y018101D01*
X015053Y017701D01*
X014953Y017701D01*
X014953Y018101D01*
X014817Y018101D01*
X014553Y017838D01*
X014605Y017889D02*
X014345Y017889D01*
X014413Y017821D02*
X014173Y018061D01*
X013834Y018061D01*
X013634Y017861D01*
X008916Y017861D01*
X008793Y017738D01*
X008293Y017238D01*
X008293Y017224D01*
X008190Y017121D01*
X008133Y016985D01*
X008133Y016318D01*
X008190Y016182D01*
X008294Y016078D01*
X008430Y016021D01*
X008577Y016021D01*
X008713Y016078D01*
X008817Y016182D01*
X008873Y016318D01*
X008873Y016985D01*
X008817Y017121D01*
X008794Y017144D01*
X009090Y017441D01*
X013634Y017441D01*
X013834Y017241D01*
X014173Y017241D01*
X014413Y017481D01*
X014413Y017821D01*
X014413Y017593D02*
X014553Y017593D01*
X014553Y017495D02*
X014413Y017495D01*
X014328Y017396D02*
X014622Y017396D01*
X014721Y017298D02*
X014230Y017298D01*
X013777Y017298D02*
X011641Y017298D01*
X011661Y017291D02*
X011599Y017311D01*
X011536Y017321D01*
X011533Y017321D01*
X011533Y016681D01*
X011473Y016681D01*
X011473Y016621D01*
X011093Y016621D01*
X011093Y016359D01*
X011104Y016295D01*
X011124Y016234D01*
X011153Y016176D01*
X011191Y016124D01*
X011204Y016111D01*
X011090Y016111D01*
X010873Y016328D01*
X010873Y016985D01*
X010817Y017121D01*
X010713Y017225D01*
X010577Y017281D01*
X010430Y017281D01*
X010294Y017225D01*
X010190Y017121D01*
X010133Y016985D01*
X010133Y016318D01*
X010190Y016182D01*
X010294Y016078D01*
X010430Y016021D01*
X010577Y016021D01*
X010584Y016024D01*
X010793Y015814D01*
X010916Y015691D01*
X012416Y015691D01*
X012590Y015691D01*
X012840Y015941D01*
X015666Y015941D01*
X015793Y015814D01*
X015793Y015308D01*
X015771Y015299D01*
X015656Y015183D01*
X015593Y015033D01*
X015593Y014270D01*
X015656Y014119D01*
X015771Y014004D01*
X015793Y013994D01*
X015793Y012189D01*
X015780Y012189D01*
X015715Y012125D01*
X015715Y011677D01*
X015780Y011613D01*
X016227Y011613D01*
X016292Y011677D01*
X016292Y012125D01*
X016227Y012189D01*
X016213Y012189D01*
X016213Y013994D01*
X016236Y014004D01*
X016351Y014119D01*
X016413Y014270D01*
X016413Y015033D01*
X016351Y015183D01*
X016236Y015299D01*
X016213Y015308D01*
X016213Y015988D01*
X016090Y016111D01*
X015963Y016238D01*
X015840Y016361D01*
X012666Y016361D01*
X012543Y016238D01*
X012416Y016111D01*
X011803Y016111D01*
X011816Y016124D01*
X011854Y016176D01*
X011883Y016234D01*
X011903Y016295D01*
X011913Y016359D01*
X011913Y016621D01*
X011534Y016621D01*
X011534Y016681D01*
X011913Y016681D01*
X011913Y016943D01*
X011903Y017007D01*
X011883Y017069D01*
X011854Y017126D01*
X011816Y017178D01*
X011771Y017224D01*
X011718Y017262D01*
X011661Y017291D01*
X011533Y017298D02*
X011473Y017298D01*
X011473Y017321D02*
X011471Y017321D01*
X011407Y017311D01*
X011346Y017291D01*
X011289Y017262D01*
X011236Y017224D01*
X011191Y017178D01*
X011153Y017126D01*
X011124Y017069D01*
X011104Y017007D01*
X011093Y016943D01*
X011093Y016681D01*
X011473Y016681D01*
X011473Y017321D01*
X011366Y017298D02*
X008947Y017298D01*
X009045Y017396D02*
X013679Y017396D01*
X013661Y017889D02*
X003153Y017889D01*
X003153Y017988D02*
X013760Y017988D01*
X013834Y018241D02*
X014173Y018241D01*
X014413Y018481D01*
X014413Y018821D01*
X014173Y019061D01*
X013834Y019061D01*
X013634Y018861D01*
X009840Y018861D01*
X009713Y018988D01*
X009713Y019078D01*
X009817Y019182D01*
X009873Y019318D01*
X009873Y019985D01*
X009817Y020121D01*
X009713Y020225D01*
X009577Y020281D01*
X009430Y020281D01*
X009294Y020225D01*
X009190Y020121D01*
X009133Y019985D01*
X009133Y019318D01*
X009190Y019182D01*
X009293Y019078D01*
X009293Y018988D01*
X009293Y018814D01*
X009543Y018564D01*
X009666Y018441D01*
X013634Y018441D01*
X013834Y018241D01*
X013792Y018283D02*
X003153Y018283D01*
X003153Y018185D02*
X015715Y018185D01*
X015715Y018283D02*
X015215Y018283D01*
X015173Y018241D02*
X015413Y018481D01*
X015413Y018585D01*
X016192Y019363D01*
X016477Y019363D01*
X016542Y019427D01*
X016542Y019875D01*
X016477Y019939D01*
X016030Y019939D01*
X015965Y019875D01*
X015965Y019589D01*
X015305Y018929D01*
X015173Y019061D01*
X014834Y019061D01*
X014593Y018821D01*
X014593Y018481D01*
X014834Y018241D01*
X015173Y018241D01*
X015205Y018086D02*
X015715Y018086D01*
X015715Y017988D02*
X015303Y017988D01*
X015402Y017889D02*
X015754Y017889D01*
X015780Y017863D02*
X016227Y017863D01*
X016292Y017927D01*
X016292Y017991D01*
X018215Y017991D01*
X018215Y017927D01*
X018280Y017863D01*
X018293Y017863D01*
X018293Y015988D01*
X018166Y015861D01*
X017166Y015861D01*
X017043Y015738D01*
X016793Y015488D01*
X016793Y015314D01*
X016793Y015308D01*
X016771Y015299D01*
X016656Y015183D01*
X016593Y015033D01*
X016593Y014270D01*
X016656Y014119D01*
X016771Y014004D01*
X016922Y013941D01*
X017085Y013941D01*
X017236Y014004D01*
X017351Y014119D01*
X017413Y014270D01*
X017413Y015033D01*
X017351Y015183D01*
X017236Y015299D01*
X017213Y015308D01*
X017213Y015314D01*
X017340Y015441D01*
X018166Y015441D01*
X018340Y015441D01*
X018590Y015691D01*
X018713Y015814D01*
X018713Y017863D01*
X018727Y017863D01*
X018792Y017927D01*
X018792Y017941D01*
X019090Y017941D01*
X019213Y018064D01*
X019463Y018314D01*
X019463Y018488D01*
X019463Y024238D01*
X019340Y024361D01*
X018340Y025361D01*
X018166Y025361D01*
X018160Y025361D01*
X018151Y025383D01*
X018036Y025499D01*
X017885Y025561D01*
X017122Y025561D01*
X016971Y025499D01*
X016856Y025383D01*
X016793Y025233D01*
X016793Y025070D01*
X016856Y024919D01*
X016971Y024804D01*
X017122Y024741D01*
X017885Y024741D01*
X018036Y024804D01*
X018151Y024919D01*
X018160Y024941D01*
X018166Y024941D01*
X019043Y024064D01*
X019043Y018488D01*
X018916Y018361D01*
X018792Y018361D01*
X018792Y018375D01*
X018727Y018439D01*
X018280Y018439D01*
X018215Y018375D01*
X018215Y018311D01*
X016292Y018311D01*
X016292Y018375D01*
X016265Y018401D01*
X016292Y018427D01*
X016292Y018441D01*
X016666Y018441D01*
X016840Y018441D01*
X017090Y018691D01*
X017213Y018814D01*
X017213Y019946D01*
X017305Y019854D01*
X017434Y019801D01*
X017573Y019801D01*
X017702Y019854D01*
X017800Y019953D01*
X017853Y020082D01*
X017853Y020221D01*
X017800Y020349D01*
X017702Y020448D01*
X017573Y020501D01*
X017434Y020501D01*
X017305Y020448D01*
X017213Y020356D01*
X017213Y020814D01*
X017213Y020988D01*
X016873Y021328D01*
X016873Y021554D01*
X016737Y021691D01*
X017166Y021691D01*
X018293Y020564D01*
X018293Y019439D01*
X018280Y019439D01*
X018215Y019375D01*
X018215Y018927D01*
X018280Y018863D01*
X018727Y018863D01*
X018792Y018927D01*
X018792Y019375D01*
X018727Y019439D01*
X018713Y019439D01*
X018713Y020564D01*
X018713Y020738D01*
X017463Y021988D01*
X017340Y022111D01*
X014590Y022111D01*
X014416Y022111D01*
X013793Y021488D01*
X013793Y021314D01*
X013793Y021111D01*
X012737Y021111D01*
X012873Y021248D01*
X012873Y021554D01*
X012657Y021771D01*
X012350Y021771D01*
X012133Y021554D01*
X012133Y021248D01*
X012270Y021111D01*
X010963Y021111D01*
X010963Y023564D01*
X011713Y024314D01*
X011713Y024488D01*
X011713Y025338D01*
X011873Y025498D01*
X011873Y025804D01*
X011657Y026021D01*
X011350Y026021D01*
X011133Y025804D01*
X011133Y025498D01*
X011293Y025338D01*
X011293Y024488D01*
X010666Y023861D01*
X010543Y023738D01*
X010543Y020988D01*
X010416Y020861D01*
X010293Y020738D01*
X010293Y020224D01*
X010190Y020121D01*
X010133Y019985D01*
X010133Y019318D01*
X010190Y019182D01*
X010294Y019078D01*
X010430Y019021D01*
X010577Y019021D01*
X010713Y019078D01*
X010817Y019182D01*
X010873Y019318D01*
X010873Y019985D01*
X010817Y020121D01*
X010713Y020224D01*
X010713Y020564D01*
X010840Y020691D01*
X013793Y020691D01*
X013793Y020021D01*
X013593Y019821D01*
X013593Y019481D01*
X013834Y019241D01*
X014173Y019241D01*
X014413Y019481D01*
X014413Y019821D01*
X014213Y020021D01*
X014213Y020988D01*
X014213Y021314D01*
X014590Y021691D01*
X016270Y021691D01*
X016133Y021554D01*
X016133Y021248D01*
X016350Y021031D01*
X016576Y021031D01*
X016793Y020814D01*
X016793Y018988D01*
X016666Y018861D01*
X016292Y018861D01*
X016292Y018875D01*
X016227Y018939D01*
X015780Y018939D01*
X015715Y018875D01*
X015715Y018427D01*
X015742Y018401D01*
X015715Y018375D01*
X015715Y017927D01*
X015780Y017863D01*
X016003Y018151D02*
X018503Y018151D01*
X018215Y017988D02*
X016292Y017988D01*
X016253Y017889D02*
X018254Y017889D01*
X018293Y017790D02*
X015453Y017790D01*
X015453Y017593D02*
X018293Y017593D01*
X018293Y017495D02*
X017988Y017495D01*
X017973Y017501D02*
X017834Y017501D01*
X017705Y017448D01*
X017607Y017349D01*
X017553Y017221D01*
X017553Y017082D01*
X017607Y016953D01*
X017705Y016854D01*
X017834Y016801D01*
X017973Y016801D01*
X018102Y016854D01*
X018200Y016953D01*
X018253Y017082D01*
X018253Y017221D01*
X018200Y017349D01*
X018102Y017448D01*
X017973Y017501D01*
X017819Y017495D02*
X017188Y017495D01*
X017173Y017501D02*
X017034Y017501D01*
X016905Y017448D01*
X016807Y017349D01*
X016753Y017221D01*
X016753Y017082D01*
X016807Y016953D01*
X016905Y016854D01*
X017034Y016801D01*
X017173Y016801D01*
X017302Y016854D01*
X017400Y016953D01*
X017453Y017082D01*
X017453Y017221D01*
X017400Y017349D01*
X017302Y017448D01*
X017173Y017501D01*
X017019Y017495D02*
X015453Y017495D01*
X015385Y017396D02*
X016854Y017396D01*
X016785Y017298D02*
X015286Y017298D01*
X015053Y017298D02*
X014953Y017298D01*
X014953Y017396D02*
X015053Y017396D01*
X015053Y017495D02*
X014953Y017495D01*
X014953Y017593D02*
X015053Y017593D01*
X015054Y017692D02*
X018293Y017692D01*
X018293Y017396D02*
X018153Y017396D01*
X018222Y017298D02*
X018293Y017298D01*
X018293Y017199D02*
X018253Y017199D01*
X018253Y017101D02*
X018293Y017101D01*
X018293Y017002D02*
X018221Y017002D01*
X018151Y016904D02*
X018293Y016904D01*
X018293Y016805D02*
X017982Y016805D01*
X017825Y016805D02*
X017182Y016805D01*
X017025Y016805D02*
X011913Y016805D01*
X011913Y016904D02*
X016856Y016904D01*
X016786Y017002D02*
X011904Y017002D01*
X011867Y017101D02*
X016753Y017101D01*
X016753Y017199D02*
X011795Y017199D01*
X011533Y017199D02*
X011473Y017199D01*
X011473Y017101D02*
X011533Y017101D01*
X011533Y017002D02*
X011473Y017002D01*
X011473Y016904D02*
X011533Y016904D01*
X011533Y016805D02*
X011473Y016805D01*
X011473Y016706D02*
X011533Y016706D01*
X011913Y016706D02*
X018293Y016706D01*
X018293Y016608D02*
X011913Y016608D01*
X011913Y016509D02*
X018293Y016509D01*
X018293Y016411D02*
X011913Y016411D01*
X011906Y016312D02*
X012618Y016312D01*
X012519Y016214D02*
X011873Y016214D01*
X011807Y016115D02*
X012421Y016115D01*
X012620Y015721D02*
X012776Y015721D01*
X012719Y015820D02*
X012875Y015820D01*
X012916Y015861D02*
X012666Y015611D01*
X010590Y015611D01*
X009873Y016328D01*
X009873Y016985D01*
X009817Y017121D01*
X009713Y017225D01*
X009577Y017281D01*
X009430Y017281D01*
X009294Y017225D01*
X009190Y017121D01*
X009133Y016985D01*
X009133Y016318D01*
X009190Y016182D01*
X009294Y016078D01*
X009430Y016021D01*
X009577Y016021D01*
X009584Y016024D01*
X010416Y015191D01*
X010590Y015191D01*
X012840Y015191D01*
X012963Y015314D01*
X013090Y015441D01*
X014666Y015441D01*
X014793Y015314D01*
X014793Y015308D01*
X014771Y015299D01*
X014656Y015183D01*
X014593Y015033D01*
X014593Y014270D01*
X014656Y014119D01*
X014771Y014004D01*
X014793Y013994D01*
X014793Y011564D01*
X014916Y011441D01*
X015416Y010941D01*
X015590Y010941D01*
X016690Y010941D01*
X016850Y010781D01*
X017076Y010781D01*
X017293Y010564D01*
X017293Y009884D01*
X017157Y010021D01*
X016850Y010021D01*
X016633Y009804D01*
X016633Y009498D01*
X016850Y009281D01*
X017157Y009281D01*
X017293Y009418D01*
X017293Y009064D01*
X017416Y008941D01*
X017797Y008560D01*
X017856Y008419D01*
X017971Y008304D01*
X018122Y008241D01*
X018885Y008241D01*
X019036Y008304D01*
X019151Y008419D01*
X019213Y008570D01*
X019213Y008733D01*
X019151Y008883D01*
X019036Y008999D01*
X018885Y009061D01*
X018122Y009061D01*
X017971Y008999D01*
X017962Y008990D01*
X017713Y009238D01*
X017713Y010564D01*
X017713Y010738D01*
X017373Y011078D01*
X017373Y011304D01*
X017157Y011521D01*
X016850Y011521D01*
X016690Y011361D01*
X015590Y011361D01*
X015213Y011738D01*
X015213Y013994D01*
X015236Y014004D01*
X015351Y014119D01*
X015413Y014270D01*
X015413Y015033D01*
X015351Y015183D01*
X015236Y015299D01*
X015213Y015308D01*
X015213Y015488D01*
X015090Y015611D01*
X014963Y015738D01*
X014840Y015861D01*
X013090Y015861D01*
X012916Y015861D01*
X012817Y015918D02*
X015690Y015918D01*
X015788Y015820D02*
X014882Y015820D01*
X014963Y015738D02*
X014963Y015738D01*
X014981Y015721D02*
X015793Y015721D01*
X015793Y015622D02*
X015079Y015622D01*
X015090Y015611D02*
X015090Y015611D01*
X015178Y015524D02*
X015793Y015524D01*
X015793Y015425D02*
X015213Y015425D01*
X015213Y015327D02*
X015793Y015327D01*
X015701Y015228D02*
X015306Y015228D01*
X015373Y015130D02*
X015634Y015130D01*
X015593Y015031D02*
X015413Y015031D01*
X015413Y014933D02*
X015593Y014933D01*
X015593Y014834D02*
X015413Y014834D01*
X015413Y014736D02*
X015593Y014736D01*
X015593Y014637D02*
X015413Y014637D01*
X015413Y014539D02*
X015593Y014539D01*
X015593Y014440D02*
X015413Y014440D01*
X015413Y014341D02*
X015593Y014341D01*
X015605Y014243D02*
X015402Y014243D01*
X015362Y014144D02*
X015645Y014144D01*
X015729Y014046D02*
X015278Y014046D01*
X015213Y013947D02*
X015793Y013947D01*
X015793Y013849D02*
X015213Y013849D01*
X015213Y013750D02*
X015793Y013750D01*
X015793Y013652D02*
X015213Y013652D01*
X015213Y013553D02*
X015793Y013553D01*
X015793Y013455D02*
X015213Y013455D01*
X015213Y013356D02*
X015793Y013356D01*
X015793Y013257D02*
X015213Y013257D01*
X015213Y013159D02*
X015793Y013159D01*
X015793Y013060D02*
X015213Y013060D01*
X015213Y012962D02*
X015793Y012962D01*
X015793Y012863D02*
X015213Y012863D01*
X015213Y012765D02*
X015793Y012765D01*
X015793Y012666D02*
X015213Y012666D01*
X015213Y012568D02*
X015793Y012568D01*
X015793Y012469D02*
X015213Y012469D01*
X015213Y012371D02*
X015793Y012371D01*
X015793Y012272D02*
X015213Y012272D01*
X015213Y012173D02*
X015764Y012173D01*
X015715Y012075D02*
X015213Y012075D01*
X015213Y011976D02*
X015715Y011976D01*
X015715Y011878D02*
X015213Y011878D01*
X015213Y011779D02*
X015715Y011779D01*
X015715Y011681D02*
X015271Y011681D01*
X015369Y011582D02*
X017759Y011582D01*
X017756Y011601D02*
X017765Y011546D01*
X017786Y011478D01*
X017819Y011415D01*
X017860Y011358D01*
X017910Y011308D01*
X017968Y011266D01*
X018031Y011234D01*
X018098Y011212D01*
X018168Y011201D01*
X018453Y011201D01*
X018453Y011601D01*
X017756Y011601D01*
X017756Y011701D02*
X018453Y011701D01*
X018453Y011601D01*
X018553Y011601D01*
X018553Y011201D01*
X018839Y011201D01*
X018909Y011212D01*
X018976Y011234D01*
X019039Y011266D01*
X019097Y011308D01*
X019147Y011358D01*
X019188Y011415D01*
X019220Y011478D01*
X019242Y011546D01*
X019251Y011601D01*
X018554Y011601D01*
X018554Y011701D01*
X019251Y011701D01*
X019242Y011757D01*
X019220Y011824D01*
X019188Y011887D01*
X019147Y011944D01*
X019097Y011994D01*
X019039Y012036D01*
X018976Y012068D01*
X018909Y012090D01*
X018839Y012101D01*
X018553Y012101D01*
X018553Y011701D01*
X018453Y011701D01*
X018453Y012101D01*
X018168Y012101D01*
X018098Y012090D01*
X018031Y012068D01*
X017968Y012036D01*
X017910Y011994D01*
X017860Y011944D01*
X017819Y011887D01*
X017786Y011824D01*
X017765Y011757D01*
X017756Y011701D01*
X017772Y011779D02*
X016292Y011779D01*
X016292Y011681D02*
X018453Y011681D01*
X018453Y011779D02*
X018553Y011779D01*
X018554Y011681D02*
X019849Y011681D01*
X019849Y011779D02*
X019235Y011779D01*
X019193Y011878D02*
X019849Y011878D01*
X019849Y011976D02*
X019115Y011976D01*
X018955Y012075D02*
X019849Y012075D01*
X019849Y012173D02*
X016243Y012173D01*
X016213Y012272D02*
X018047Y012272D01*
X018122Y012241D02*
X018885Y012241D01*
X019036Y012304D01*
X019151Y012419D01*
X019213Y012570D01*
X019213Y012733D01*
X019151Y012883D01*
X019036Y012999D01*
X018885Y013061D01*
X018122Y013061D01*
X017971Y012999D01*
X017856Y012883D01*
X017793Y012733D01*
X017793Y012570D01*
X017856Y012419D01*
X017971Y012304D01*
X018122Y012241D01*
X018051Y012075D02*
X016292Y012075D01*
X016292Y011976D02*
X017892Y011976D01*
X017814Y011878D02*
X016292Y011878D01*
X016213Y012371D02*
X016761Y012371D01*
X016850Y012281D02*
X017157Y012281D01*
X017373Y012498D01*
X017373Y012804D01*
X017157Y013021D01*
X016850Y013021D01*
X016633Y012804D01*
X016633Y012498D01*
X016850Y012281D01*
X016662Y012469D02*
X016213Y012469D01*
X016213Y012568D02*
X016633Y012568D01*
X016633Y012666D02*
X016213Y012666D01*
X016213Y012765D02*
X016633Y012765D01*
X016692Y012863D02*
X016213Y012863D01*
X016213Y012962D02*
X016791Y012962D01*
X017216Y012962D02*
X017934Y012962D01*
X017848Y012863D02*
X017315Y012863D01*
X017373Y012765D02*
X017807Y012765D01*
X017793Y012666D02*
X017373Y012666D01*
X017373Y012568D02*
X017794Y012568D01*
X017835Y012469D02*
X017345Y012469D01*
X017246Y012371D02*
X017904Y012371D01*
X018120Y013060D02*
X016213Y013060D01*
X016213Y013159D02*
X019849Y013159D01*
X019849Y013257D02*
X016213Y013257D01*
X016213Y013356D02*
X019849Y013356D01*
X019849Y013455D02*
X016213Y013455D01*
X016213Y013553D02*
X019849Y013553D01*
X019849Y013652D02*
X016213Y013652D01*
X016213Y013750D02*
X019850Y013750D01*
X019850Y013849D02*
X016213Y013849D01*
X016213Y013947D02*
X016907Y013947D01*
X017100Y013947D02*
X017805Y013947D01*
X017831Y013934D02*
X017898Y013912D01*
X017953Y013903D01*
X017953Y014601D01*
X017553Y014601D01*
X017553Y014316D01*
X017565Y014246D01*
X017586Y014178D01*
X017619Y014115D01*
X017660Y014058D01*
X017710Y014008D01*
X017768Y013966D01*
X017831Y013934D01*
X017953Y013947D02*
X018053Y013947D01*
X018053Y013903D02*
X018109Y013912D01*
X018176Y013934D01*
X018239Y013966D01*
X018297Y014008D01*
X018347Y014058D01*
X018388Y014115D01*
X018420Y014178D01*
X018442Y014246D01*
X018453Y014316D01*
X018453Y014601D01*
X018054Y014601D01*
X018054Y014701D01*
X018453Y014701D01*
X018453Y014987D01*
X018442Y015057D01*
X018420Y015124D01*
X018388Y015187D01*
X018347Y015244D01*
X018297Y015294D01*
X018239Y015336D01*
X018176Y015368D01*
X018109Y015390D01*
X018053Y015399D01*
X018053Y014701D01*
X017953Y014701D01*
X017953Y014601D01*
X018053Y014601D01*
X018053Y013903D01*
X018053Y014046D02*
X017953Y014046D01*
X017953Y014144D02*
X018053Y014144D01*
X018053Y014243D02*
X017953Y014243D01*
X017953Y014341D02*
X018053Y014341D01*
X018053Y014440D02*
X017953Y014440D01*
X017953Y014539D02*
X018053Y014539D01*
X018054Y014637D02*
X019850Y014637D01*
X019850Y014539D02*
X018453Y014539D01*
X018453Y014440D02*
X019850Y014440D01*
X019850Y014341D02*
X018453Y014341D01*
X018441Y014243D02*
X019850Y014243D01*
X019850Y014144D02*
X018403Y014144D01*
X018334Y014046D02*
X019850Y014046D01*
X019850Y013947D02*
X018202Y013947D01*
X017953Y014637D02*
X017413Y014637D01*
X017413Y014539D02*
X017553Y014539D01*
X017553Y014440D02*
X017413Y014440D01*
X017413Y014341D02*
X017553Y014341D01*
X017565Y014243D02*
X017402Y014243D01*
X017362Y014144D02*
X017604Y014144D01*
X017672Y014046D02*
X017278Y014046D01*
X017413Y014736D02*
X017553Y014736D01*
X017553Y014701D02*
X017953Y014701D01*
X017953Y015399D01*
X017898Y015390D01*
X017831Y015368D01*
X017768Y015336D01*
X017710Y015294D01*
X017660Y015244D01*
X017619Y015187D01*
X017586Y015124D01*
X017565Y015057D01*
X017553Y014987D01*
X017553Y014701D01*
X017553Y014834D02*
X017413Y014834D01*
X017413Y014933D02*
X017553Y014933D01*
X017561Y015031D02*
X017413Y015031D01*
X017373Y015130D02*
X017589Y015130D01*
X017649Y015228D02*
X017306Y015228D01*
X017226Y015327D02*
X017755Y015327D01*
X017953Y015327D02*
X018053Y015327D01*
X018053Y015228D02*
X017953Y015228D01*
X017953Y015130D02*
X018053Y015130D01*
X018053Y015031D02*
X017953Y015031D01*
X017953Y014933D02*
X018053Y014933D01*
X018053Y014834D02*
X017953Y014834D01*
X017953Y014736D02*
X018053Y014736D01*
X018453Y014736D02*
X019850Y014736D01*
X019850Y014834D02*
X018453Y014834D01*
X018453Y014933D02*
X019850Y014933D01*
X019850Y015031D02*
X018446Y015031D01*
X018418Y015130D02*
X019850Y015130D01*
X019850Y015228D02*
X018358Y015228D01*
X018252Y015327D02*
X019850Y015327D01*
X019850Y015425D02*
X017325Y015425D01*
X017026Y015721D02*
X016213Y015721D01*
X016213Y015622D02*
X016928Y015622D01*
X016829Y015524D02*
X016213Y015524D01*
X016213Y015425D02*
X016793Y015425D01*
X016793Y015327D02*
X016213Y015327D01*
X016306Y015228D02*
X016701Y015228D01*
X016634Y015130D02*
X016373Y015130D01*
X016413Y015031D02*
X016593Y015031D01*
X016593Y014933D02*
X016413Y014933D01*
X016413Y014834D02*
X016593Y014834D01*
X016593Y014736D02*
X016413Y014736D01*
X016413Y014637D02*
X016593Y014637D01*
X016593Y014539D02*
X016413Y014539D01*
X016413Y014440D02*
X016593Y014440D01*
X016593Y014341D02*
X016413Y014341D01*
X016402Y014243D02*
X016605Y014243D01*
X016645Y014144D02*
X016362Y014144D01*
X016278Y014046D02*
X016729Y014046D01*
X017125Y015820D02*
X016213Y015820D01*
X016213Y015918D02*
X018223Y015918D01*
X018293Y016017D02*
X016185Y016017D01*
X016086Y016115D02*
X018293Y016115D01*
X018293Y016214D02*
X015988Y016214D01*
X015963Y016238D02*
X015963Y016238D01*
X015889Y016312D02*
X018293Y016312D01*
X018713Y016312D02*
X019850Y016312D01*
X019850Y016214D02*
X018713Y016214D01*
X018713Y016115D02*
X019850Y016115D01*
X019850Y016017D02*
X018713Y016017D01*
X018713Y015918D02*
X019850Y015918D01*
X019850Y015820D02*
X018713Y015820D01*
X018620Y015721D02*
X019850Y015721D01*
X019850Y015622D02*
X018522Y015622D01*
X018423Y015524D02*
X019850Y015524D01*
X019850Y016411D02*
X018713Y016411D01*
X018713Y016509D02*
X019850Y016509D01*
X019850Y016608D02*
X018713Y016608D01*
X018713Y016706D02*
X019850Y016706D01*
X019850Y016805D02*
X018713Y016805D01*
X018713Y016904D02*
X019850Y016904D01*
X019850Y017002D02*
X018713Y017002D01*
X018713Y017101D02*
X019850Y017101D01*
X019851Y017199D02*
X018713Y017199D01*
X018713Y017298D02*
X019851Y017298D01*
X019851Y017396D02*
X018713Y017396D01*
X018713Y017495D02*
X019851Y017495D01*
X019851Y017593D02*
X018713Y017593D01*
X018713Y017692D02*
X019851Y017692D01*
X019851Y017790D02*
X018713Y017790D01*
X018753Y017889D02*
X019851Y017889D01*
X019851Y017988D02*
X019137Y017988D01*
X019235Y018086D02*
X019851Y018086D01*
X019851Y018185D02*
X019334Y018185D01*
X019432Y018283D02*
X019851Y018283D01*
X019851Y018382D02*
X019463Y018382D01*
X019463Y018480D02*
X019851Y018480D01*
X019851Y018579D02*
X019463Y018579D01*
X019463Y018677D02*
X019851Y018677D01*
X019851Y018776D02*
X019463Y018776D01*
X019463Y018874D02*
X019851Y018874D01*
X019851Y018973D02*
X019463Y018973D01*
X019463Y019071D02*
X019851Y019071D01*
X019851Y019170D02*
X019463Y019170D01*
X019463Y019269D02*
X019851Y019269D01*
X019851Y019367D02*
X019463Y019367D01*
X019463Y019466D02*
X019851Y019466D01*
X019851Y019564D02*
X019463Y019564D01*
X019463Y019663D02*
X019851Y019663D01*
X019851Y019761D02*
X019463Y019761D01*
X019463Y019860D02*
X019851Y019860D01*
X019851Y019958D02*
X019463Y019958D01*
X019463Y020057D02*
X019851Y020057D01*
X019851Y020155D02*
X019463Y020155D01*
X019463Y020254D02*
X019851Y020254D01*
X019851Y020353D02*
X019463Y020353D01*
X019463Y020451D02*
X019851Y020451D01*
X019851Y020550D02*
X019463Y020550D01*
X019463Y020648D02*
X019851Y020648D01*
X019852Y020747D02*
X019463Y020747D01*
X019463Y020845D02*
X019852Y020845D01*
X019852Y020944D02*
X019463Y020944D01*
X019463Y021042D02*
X019852Y021042D01*
X019852Y021141D02*
X019463Y021141D01*
X019463Y021239D02*
X019852Y021239D01*
X019852Y021338D02*
X019463Y021338D01*
X019463Y021437D02*
X019852Y021437D01*
X019852Y021535D02*
X019463Y021535D01*
X019463Y021634D02*
X019852Y021634D01*
X019852Y021732D02*
X019463Y021732D01*
X019463Y021831D02*
X019852Y021831D01*
X019852Y021929D02*
X019463Y021929D01*
X019463Y022028D02*
X019852Y022028D01*
X019852Y022126D02*
X019463Y022126D01*
X019463Y022225D02*
X019852Y022225D01*
X019852Y022323D02*
X019463Y022323D01*
X019463Y022422D02*
X019852Y022422D01*
X019852Y022521D02*
X019463Y022521D01*
X019463Y022619D02*
X019852Y022619D01*
X019852Y022718D02*
X019463Y022718D01*
X019463Y022816D02*
X019852Y022816D01*
X019852Y022915D02*
X019463Y022915D01*
X019463Y023013D02*
X019852Y023013D01*
X019852Y023112D02*
X019463Y023112D01*
X019463Y023210D02*
X019852Y023210D01*
X019852Y023309D02*
X019463Y023309D01*
X019463Y023407D02*
X019852Y023407D01*
X019852Y023506D02*
X019463Y023506D01*
X019463Y023604D02*
X019852Y023604D01*
X019852Y023703D02*
X019463Y023703D01*
X019463Y023802D02*
X019852Y023802D01*
X019852Y023900D02*
X019463Y023900D01*
X019463Y023999D02*
X019852Y023999D01*
X019852Y024097D02*
X019463Y024097D01*
X019463Y024196D02*
X019853Y024196D01*
X019853Y024294D02*
X019407Y024294D01*
X019309Y024393D02*
X019853Y024393D01*
X019853Y024491D02*
X019210Y024491D01*
X019112Y024590D02*
X019853Y024590D01*
X019853Y024688D02*
X019013Y024688D01*
X018915Y024787D02*
X019853Y024787D01*
X019853Y024886D02*
X018816Y024886D01*
X018717Y024984D02*
X019853Y024984D01*
X019853Y025083D02*
X018619Y025083D01*
X018520Y025181D02*
X019853Y025181D01*
X019853Y025280D02*
X018422Y025280D01*
X018153Y025378D02*
X019853Y025378D01*
X019853Y025477D02*
X018058Y025477D01*
X017960Y025772D02*
X019853Y025772D01*
X019853Y025674D02*
X011873Y025674D01*
X011873Y025772D02*
X017046Y025772D01*
X016971Y025804D02*
X017122Y025741D01*
X017885Y025741D01*
X018036Y025804D01*
X018151Y025919D01*
X018213Y026070D01*
X018213Y026233D01*
X018151Y026383D01*
X018036Y026499D01*
X017885Y026561D01*
X017122Y026561D01*
X016971Y026499D01*
X016856Y026383D01*
X016793Y026233D01*
X016793Y026070D01*
X016856Y025919D01*
X016971Y025804D01*
X016904Y025871D02*
X011807Y025871D01*
X011708Y025970D02*
X016835Y025970D01*
X016794Y026068D02*
X008913Y026068D01*
X008913Y026121D02*
X008534Y026121D01*
X008534Y026181D01*
X008913Y026181D01*
X008913Y026321D01*
X008673Y026561D01*
X008533Y026561D01*
X008533Y026181D01*
X008473Y026181D01*
X008473Y026121D01*
X008093Y026121D01*
X008093Y025981D01*
X008334Y025741D01*
X008473Y025741D01*
X008473Y026121D01*
X008533Y026121D01*
X008533Y025741D01*
X008673Y025741D01*
X008913Y025981D01*
X008913Y026121D01*
X008913Y026265D02*
X016807Y026265D01*
X016793Y026167D02*
X008534Y026167D01*
X008473Y026167D02*
X006873Y026167D01*
X006873Y026265D02*
X008093Y026265D01*
X008093Y026321D02*
X008093Y026181D01*
X008473Y026181D01*
X008473Y026561D01*
X008334Y026561D01*
X008093Y026321D01*
X008136Y026364D02*
X006814Y026364D01*
X006873Y026304D02*
X006657Y026521D01*
X006350Y026521D01*
X006133Y026304D01*
X006133Y025998D01*
X006293Y025838D01*
X006293Y024488D01*
X005666Y023861D01*
X005160Y023861D01*
X005151Y023883D01*
X005036Y023999D01*
X005804Y023999D01*
X005903Y024097D02*
X003153Y024097D01*
X003153Y023999D02*
X003971Y023999D01*
X003856Y023883D01*
X003793Y023733D01*
X003793Y023570D01*
X003856Y023419D01*
X003971Y023304D01*
X004122Y023241D01*
X004885Y023241D01*
X005036Y023304D01*
X005151Y023419D01*
X005160Y023441D01*
X005840Y023441D01*
X005963Y023564D01*
X006713Y024314D01*
X006713Y024488D01*
X006713Y025838D01*
X006873Y025998D01*
X006873Y026304D01*
X006716Y026462D02*
X008235Y026462D01*
X008333Y026561D02*
X003153Y026561D01*
X003153Y026659D02*
X019853Y026659D01*
X019853Y026561D02*
X017886Y026561D01*
X018072Y026462D02*
X019853Y026462D01*
X019853Y026364D02*
X018159Y026364D01*
X018200Y026265D02*
X019853Y026265D01*
X019853Y026167D02*
X018213Y026167D01*
X018213Y026068D02*
X019853Y026068D01*
X019853Y025970D02*
X018172Y025970D01*
X018103Y025871D02*
X019853Y025871D01*
X019853Y025575D02*
X011873Y025575D01*
X011852Y025477D02*
X014306Y025477D01*
X014350Y025521D02*
X014133Y025304D01*
X014133Y024998D01*
X014350Y024781D01*
X014657Y024781D01*
X014873Y024998D01*
X014873Y025304D01*
X014657Y025521D01*
X014350Y025521D01*
X014207Y025378D02*
X011754Y025378D01*
X011713Y025280D02*
X014133Y025280D01*
X014133Y025181D02*
X011713Y025181D01*
X011713Y025083D02*
X014133Y025083D01*
X014147Y024984D02*
X011713Y024984D01*
X011713Y024886D02*
X014246Y024886D01*
X014344Y024787D02*
X011713Y024787D01*
X011713Y024688D02*
X018419Y024688D01*
X018518Y024590D02*
X011713Y024590D01*
X011713Y024491D02*
X014264Y024491D01*
X014334Y024561D02*
X014093Y024321D01*
X014093Y024181D01*
X014473Y024181D01*
X014473Y024121D01*
X014093Y024121D01*
X014093Y023981D01*
X014334Y023741D01*
X014473Y023741D01*
X014473Y024121D01*
X014533Y024121D01*
X014533Y023741D01*
X014673Y023741D01*
X014913Y023981D01*
X014913Y024121D01*
X014534Y024121D01*
X014534Y024181D01*
X014913Y024181D01*
X014913Y024321D01*
X014673Y024561D01*
X014533Y024561D01*
X014533Y024181D01*
X014473Y024181D01*
X014473Y024561D01*
X014334Y024561D01*
X014473Y024491D02*
X014533Y024491D01*
X014533Y024393D02*
X014473Y024393D01*
X014473Y024294D02*
X014533Y024294D01*
X014533Y024196D02*
X014473Y024196D01*
X014473Y024097D02*
X014533Y024097D01*
X014533Y023999D02*
X014473Y023999D01*
X014473Y023900D02*
X014533Y023900D01*
X014533Y023802D02*
X014473Y023802D01*
X014273Y023802D02*
X011201Y023802D01*
X011299Y023900D02*
X014175Y023900D01*
X014093Y023999D02*
X011398Y023999D01*
X011496Y024097D02*
X014093Y024097D01*
X014093Y024196D02*
X011595Y024196D01*
X011694Y024294D02*
X014093Y024294D01*
X014165Y024393D02*
X011713Y024393D01*
X011293Y024491D02*
X008186Y024491D01*
X008157Y024521D02*
X007850Y024521D01*
X007633Y024304D01*
X007633Y023998D01*
X007850Y023781D01*
X008157Y023781D01*
X008373Y023998D01*
X008373Y024304D01*
X008157Y024521D01*
X008285Y024393D02*
X011198Y024393D01*
X011100Y024294D02*
X008373Y024294D01*
X008373Y024196D02*
X011001Y024196D01*
X010903Y024097D02*
X008373Y024097D01*
X008373Y023999D02*
X008578Y023999D01*
X008600Y024021D02*
X008383Y023804D01*
X008383Y023498D01*
X008600Y023281D01*
X008907Y023281D01*
X009123Y023498D01*
X009123Y023804D01*
X008907Y024021D01*
X008600Y024021D01*
X008479Y023900D02*
X008276Y023900D01*
X008177Y023802D02*
X008383Y023802D01*
X008383Y023703D02*
X006102Y023703D01*
X006004Y023604D02*
X008383Y023604D01*
X008383Y023506D02*
X008228Y023506D01*
X008173Y023561D02*
X008033Y023561D01*
X008033Y023181D01*
X007973Y023181D01*
X007973Y023121D01*
X007593Y023121D01*
X007593Y022981D01*
X007834Y022741D01*
X007973Y022741D01*
X007973Y023121D01*
X008033Y023121D01*
X008033Y022741D01*
X008173Y022741D01*
X008413Y022981D01*
X008413Y023121D01*
X008034Y023121D01*
X008034Y023181D01*
X008413Y023181D01*
X008413Y023321D01*
X008173Y023561D01*
X008033Y023506D02*
X007973Y023506D01*
X007973Y023561D02*
X007834Y023561D01*
X007593Y023321D01*
X007593Y023181D01*
X007973Y023181D01*
X007973Y023561D01*
X007973Y023407D02*
X008033Y023407D01*
X008033Y023309D02*
X007973Y023309D01*
X007973Y023210D02*
X008033Y023210D01*
X008033Y023112D02*
X007973Y023112D01*
X007973Y023013D02*
X008033Y023013D01*
X008033Y022915D02*
X007973Y022915D01*
X007973Y022816D02*
X008033Y022816D01*
X008248Y022816D02*
X010543Y022816D01*
X010543Y022718D02*
X005249Y022718D01*
X005251Y022701D02*
X005242Y022757D01*
X005220Y022824D01*
X005188Y022887D01*
X005147Y022944D01*
X005097Y022994D01*
X005039Y023036D01*
X004976Y023068D01*
X004909Y023090D01*
X004839Y023101D01*
X004553Y023101D01*
X004553Y022701D01*
X004453Y022701D01*
X004453Y022601D01*
X003756Y022601D01*
X003765Y022546D01*
X003786Y022478D01*
X003819Y022415D01*
X003860Y022358D01*
X003910Y022308D01*
X003968Y022266D01*
X004031Y022234D01*
X004098Y022212D01*
X004168Y022201D01*
X004453Y022201D01*
X004453Y022601D01*
X004553Y022601D01*
X004553Y022201D01*
X004839Y022201D01*
X004909Y022212D01*
X004976Y022234D01*
X005039Y022266D01*
X005097Y022308D01*
X005147Y022358D01*
X005188Y022415D01*
X005220Y022478D01*
X005242Y022546D01*
X005251Y022601D01*
X004554Y022601D01*
X004554Y022701D01*
X005251Y022701D01*
X005223Y022816D02*
X007759Y022816D01*
X007660Y022915D02*
X005168Y022915D01*
X005071Y023013D02*
X007593Y023013D01*
X007593Y023112D02*
X003153Y023112D01*
X003153Y023210D02*
X007593Y023210D01*
X007593Y023309D02*
X005041Y023309D01*
X005139Y023407D02*
X007680Y023407D01*
X007778Y023506D02*
X005905Y023506D01*
X006201Y023802D02*
X007830Y023802D01*
X007731Y023900D02*
X006299Y023900D01*
X006398Y023999D02*
X007633Y023999D01*
X007633Y024097D02*
X006496Y024097D01*
X006595Y024196D02*
X007633Y024196D01*
X007633Y024294D02*
X006694Y024294D01*
X006713Y024393D02*
X007722Y024393D01*
X007820Y024491D02*
X006713Y024491D01*
X006713Y024590D02*
X011293Y024590D01*
X011293Y024688D02*
X006713Y024688D01*
X006713Y024787D02*
X011293Y024787D01*
X011293Y024886D02*
X006713Y024886D01*
X006713Y024984D02*
X011293Y024984D01*
X011293Y025083D02*
X006713Y025083D01*
X006713Y025181D02*
X011293Y025181D01*
X011293Y025280D02*
X006713Y025280D01*
X006713Y025378D02*
X009753Y025378D01*
X009850Y025281D02*
X010157Y025281D01*
X010373Y025498D01*
X010373Y025804D01*
X010157Y026021D01*
X009850Y026021D01*
X009633Y025804D01*
X009633Y025498D01*
X009850Y025281D01*
X009655Y025477D02*
X006713Y025477D01*
X006713Y025575D02*
X009633Y025575D01*
X009633Y025674D02*
X006713Y025674D01*
X006713Y025772D02*
X008302Y025772D01*
X008204Y025871D02*
X006746Y025871D01*
X006845Y025970D02*
X008105Y025970D01*
X008093Y026068D02*
X006873Y026068D01*
X006260Y025871D02*
X003153Y025871D01*
X003153Y025970D02*
X006162Y025970D01*
X006133Y026068D02*
X003153Y026068D01*
X003153Y026167D02*
X006133Y026167D01*
X006133Y026265D02*
X003153Y026265D01*
X003153Y026364D02*
X006193Y026364D01*
X006291Y026462D02*
X003153Y026462D01*
X003153Y026758D02*
X019853Y026758D01*
X019853Y026856D02*
X003153Y026856D01*
X003153Y026955D02*
X019853Y026955D01*
X019853Y027054D02*
X003153Y027054D01*
X003153Y027152D02*
X019853Y027152D01*
X019853Y027251D02*
X003153Y027251D01*
X003153Y027349D02*
X019853Y027349D01*
X019853Y027448D02*
X003153Y027448D01*
X003153Y027501D02*
X019853Y027501D01*
X019846Y000301D01*
X003153Y000301D01*
X003153Y027501D01*
X003153Y025772D02*
X006293Y025772D01*
X006293Y025674D02*
X003153Y025674D01*
X003153Y025575D02*
X006293Y025575D01*
X006293Y025477D02*
X003153Y025477D01*
X003153Y025378D02*
X006293Y025378D01*
X006293Y025280D02*
X003153Y025280D01*
X003153Y025181D02*
X006293Y025181D01*
X006293Y025083D02*
X003153Y025083D01*
X003153Y024984D02*
X003957Y024984D01*
X003971Y024999D02*
X003856Y024883D01*
X003793Y024733D01*
X003793Y024570D01*
X003856Y024419D01*
X003971Y024304D01*
X004122Y024241D01*
X004885Y024241D01*
X005036Y024304D01*
X005151Y024419D01*
X005213Y024570D01*
X005213Y024733D01*
X005151Y024883D01*
X005036Y024999D01*
X004885Y025061D01*
X004122Y025061D01*
X003971Y024999D01*
X003858Y024886D02*
X003153Y024886D01*
X003153Y024787D02*
X003816Y024787D01*
X003793Y024688D02*
X003153Y024688D01*
X003153Y024590D02*
X003793Y024590D01*
X003826Y024491D02*
X003153Y024491D01*
X003153Y024393D02*
X003882Y024393D01*
X003994Y024294D02*
X003153Y024294D01*
X003153Y024196D02*
X006001Y024196D01*
X006100Y024294D02*
X005013Y024294D01*
X005125Y024393D02*
X006198Y024393D01*
X006293Y024491D02*
X005181Y024491D01*
X005213Y024590D02*
X006293Y024590D01*
X006293Y024688D02*
X005213Y024688D01*
X005191Y024787D02*
X006293Y024787D01*
X006293Y024886D02*
X005149Y024886D01*
X005050Y024984D02*
X006293Y024984D01*
X005705Y023900D02*
X005134Y023900D01*
X005036Y023999D02*
X004885Y024061D01*
X004122Y024061D01*
X003971Y023999D01*
X003873Y023900D02*
X003153Y023900D01*
X003153Y023802D02*
X003822Y023802D01*
X003793Y023703D02*
X003153Y023703D01*
X003153Y023604D02*
X003793Y023604D01*
X003820Y023506D02*
X003153Y023506D01*
X003153Y023407D02*
X003867Y023407D01*
X003966Y023309D02*
X003153Y023309D01*
X003153Y023013D02*
X003936Y023013D01*
X003910Y022994D02*
X003860Y022944D01*
X003819Y022887D01*
X003786Y022824D01*
X003765Y022757D01*
X003756Y022701D01*
X004453Y022701D01*
X004453Y023101D01*
X004168Y023101D01*
X004098Y023090D01*
X004031Y023068D01*
X003968Y023036D01*
X003910Y022994D01*
X003839Y022915D02*
X003153Y022915D01*
X003153Y022816D02*
X003784Y022816D01*
X003758Y022718D02*
X003153Y022718D01*
X003153Y022619D02*
X004453Y022619D01*
X004453Y022521D02*
X004553Y022521D01*
X004554Y022619D02*
X010543Y022619D01*
X010543Y022521D02*
X005234Y022521D01*
X005192Y022422D02*
X010543Y022422D01*
X010543Y022323D02*
X005112Y022323D01*
X004948Y022225D02*
X010543Y022225D01*
X010543Y022126D02*
X003153Y022126D01*
X003153Y022028D02*
X010543Y022028D01*
X010543Y021929D02*
X010249Y021929D01*
X010157Y022021D02*
X009850Y022021D01*
X009633Y021804D01*
X009633Y021498D01*
X009850Y021281D01*
X010157Y021281D01*
X010373Y021498D01*
X010373Y021804D01*
X010157Y022021D01*
X010347Y021831D02*
X010543Y021831D01*
X010543Y021732D02*
X010373Y021732D01*
X010373Y021634D02*
X010543Y021634D01*
X010543Y021535D02*
X010373Y021535D01*
X010312Y021437D02*
X010543Y021437D01*
X010543Y021338D02*
X010214Y021338D01*
X010543Y021239D02*
X008913Y021239D01*
X008913Y021181D02*
X008913Y021321D01*
X008673Y021561D01*
X008533Y021561D01*
X008533Y021181D01*
X008473Y021181D01*
X008473Y021121D01*
X008093Y021121D01*
X008093Y020981D01*
X008334Y020741D01*
X008473Y020741D01*
X008473Y021121D01*
X008533Y021121D01*
X008533Y020741D01*
X008673Y020741D01*
X008913Y020981D01*
X008913Y021121D01*
X008534Y021121D01*
X008534Y021181D01*
X008913Y021181D01*
X008913Y021042D02*
X010543Y021042D01*
X010543Y021141D02*
X008534Y021141D01*
X008473Y021141D02*
X006873Y021141D01*
X006873Y021239D02*
X008093Y021239D01*
X008093Y021181D02*
X008473Y021181D01*
X008473Y021561D01*
X008334Y021561D01*
X008093Y021321D01*
X008093Y021181D01*
X008093Y021042D02*
X006873Y021042D01*
X006873Y020998D02*
X006657Y020781D01*
X006350Y020781D01*
X006190Y020941D01*
X004623Y020941D01*
X004423Y020741D01*
X004084Y020741D01*
X003843Y020981D01*
X003843Y021321D01*
X004084Y021561D01*
X004423Y021561D01*
X004623Y021361D01*
X006190Y021361D01*
X006350Y021521D01*
X006657Y021521D01*
X006873Y021304D01*
X006873Y020998D01*
X006819Y020944D02*
X008131Y020944D01*
X008230Y020845D02*
X006721Y020845D01*
X006286Y020845D02*
X004527Y020845D01*
X004429Y020747D02*
X008328Y020747D01*
X008473Y020747D02*
X008533Y020747D01*
X008533Y020845D02*
X008473Y020845D01*
X008473Y020944D02*
X008533Y020944D01*
X008533Y021042D02*
X008473Y021042D01*
X008473Y021239D02*
X008533Y021239D01*
X008533Y021338D02*
X008473Y021338D01*
X008473Y021437D02*
X008533Y021437D01*
X008533Y021535D02*
X008473Y021535D01*
X008308Y021535D02*
X004449Y021535D01*
X004548Y021437D02*
X006266Y021437D01*
X006741Y021437D02*
X008209Y021437D01*
X008110Y021338D02*
X006840Y021338D01*
X006657Y019521D02*
X006350Y019521D01*
X006133Y019304D01*
X006133Y018998D01*
X006350Y018781D01*
X006657Y018781D01*
X006873Y018998D01*
X006873Y019304D01*
X006657Y019521D01*
X006712Y019466D02*
X008133Y019466D01*
X008133Y019564D02*
X003153Y019564D01*
X003153Y019466D02*
X006295Y019466D01*
X006196Y019367D02*
X003153Y019367D01*
X003153Y019269D02*
X006133Y019269D01*
X006133Y019170D02*
X003153Y019170D01*
X003153Y019071D02*
X006133Y019071D01*
X006158Y018973D02*
X003153Y018973D01*
X003153Y018874D02*
X006257Y018874D01*
X006750Y018874D02*
X009293Y018874D01*
X009293Y018973D02*
X006848Y018973D01*
X006873Y019071D02*
X008308Y019071D01*
X008294Y019078D02*
X008430Y019021D01*
X008577Y019021D01*
X008713Y019078D01*
X008817Y019182D01*
X008873Y019318D01*
X008873Y019985D01*
X008817Y020121D01*
X008713Y020225D01*
X008577Y020281D01*
X008430Y020281D01*
X008294Y020225D01*
X008190Y020121D01*
X008133Y019985D01*
X008133Y019318D01*
X008190Y019182D01*
X008294Y019078D01*
X008201Y019170D02*
X006873Y019170D01*
X006873Y019269D02*
X008154Y019269D01*
X008133Y019367D02*
X006811Y019367D01*
X006673Y017561D02*
X006533Y017561D01*
X006533Y017181D01*
X006473Y017181D01*
X006473Y017121D01*
X006093Y017121D01*
X006093Y016981D01*
X006334Y016741D01*
X006473Y016741D01*
X006473Y017121D01*
X006533Y017121D01*
X006533Y016741D01*
X006673Y016741D01*
X006913Y016981D01*
X006913Y017121D01*
X006534Y017121D01*
X006534Y017181D01*
X006913Y017181D01*
X006913Y017321D01*
X006673Y017561D01*
X006740Y017495D02*
X008550Y017495D01*
X008649Y017593D02*
X003153Y017593D01*
X003153Y017495D02*
X006267Y017495D01*
X006334Y017561D02*
X006093Y017321D01*
X006093Y017181D01*
X006473Y017181D01*
X006473Y017561D01*
X006334Y017561D01*
X006473Y017495D02*
X006533Y017495D01*
X006533Y017396D02*
X006473Y017396D01*
X006473Y017298D02*
X006533Y017298D01*
X006533Y017199D02*
X006473Y017199D01*
X006473Y017101D02*
X006533Y017101D01*
X006533Y017002D02*
X006473Y017002D01*
X006473Y016904D02*
X006533Y016904D01*
X006533Y016805D02*
X006473Y016805D01*
X006270Y016805D02*
X003153Y016805D01*
X003153Y016904D02*
X006171Y016904D01*
X006093Y017002D02*
X003153Y017002D01*
X003153Y017101D02*
X006093Y017101D01*
X006093Y017199D02*
X003153Y017199D01*
X003153Y017298D02*
X006093Y017298D01*
X006169Y017396D02*
X003153Y017396D01*
X003153Y017692D02*
X008747Y017692D01*
X008846Y017790D02*
X003153Y017790D01*
X003153Y018086D02*
X014802Y018086D01*
X014703Y017988D02*
X014247Y017988D01*
X014215Y018283D02*
X014792Y018283D01*
X014693Y018382D02*
X014314Y018382D01*
X014412Y018480D02*
X014595Y018480D01*
X014593Y018579D02*
X014413Y018579D01*
X014413Y018677D02*
X014593Y018677D01*
X014593Y018776D02*
X014413Y018776D01*
X014360Y018874D02*
X014647Y018874D01*
X014745Y018973D02*
X014261Y018973D01*
X014201Y019269D02*
X014806Y019269D01*
X014834Y019241D02*
X015173Y019241D01*
X015413Y019481D01*
X015413Y019821D01*
X015173Y020061D01*
X014834Y020061D01*
X014593Y019821D01*
X014593Y019481D01*
X014834Y019241D01*
X014708Y019367D02*
X014299Y019367D01*
X014398Y019466D02*
X014609Y019466D01*
X014593Y019564D02*
X014413Y019564D01*
X014413Y019663D02*
X014593Y019663D01*
X014593Y019761D02*
X014413Y019761D01*
X014375Y019860D02*
X014632Y019860D01*
X014731Y019958D02*
X014276Y019958D01*
X014213Y020057D02*
X014829Y020057D01*
X015177Y020057D02*
X016793Y020057D01*
X016793Y020155D02*
X014213Y020155D01*
X014213Y020254D02*
X016793Y020254D01*
X016793Y020353D02*
X014213Y020353D01*
X014213Y020451D02*
X016793Y020451D01*
X016793Y020550D02*
X014213Y020550D01*
X014213Y020648D02*
X016793Y020648D01*
X016793Y020747D02*
X014213Y020747D01*
X014213Y020845D02*
X016762Y020845D01*
X016664Y020944D02*
X014213Y020944D01*
X014213Y021042D02*
X016339Y021042D01*
X016240Y021141D02*
X014213Y021141D01*
X014213Y021239D02*
X016142Y021239D01*
X016133Y021338D02*
X014237Y021338D01*
X014336Y021437D02*
X016133Y021437D01*
X016133Y021535D02*
X014434Y021535D01*
X014533Y021634D02*
X016213Y021634D01*
X016794Y021634D02*
X017224Y021634D01*
X017323Y021535D02*
X016873Y021535D01*
X016873Y021437D02*
X017421Y021437D01*
X017520Y021338D02*
X016873Y021338D01*
X016962Y021239D02*
X017618Y021239D01*
X017717Y021141D02*
X017061Y021141D01*
X017159Y021042D02*
X017815Y021042D01*
X017914Y020944D02*
X017213Y020944D01*
X017213Y020845D02*
X018012Y020845D01*
X018111Y020747D02*
X017213Y020747D01*
X017213Y020648D02*
X018209Y020648D01*
X018293Y020550D02*
X017213Y020550D01*
X017213Y020451D02*
X017313Y020451D01*
X017694Y020451D02*
X018293Y020451D01*
X018293Y020353D02*
X017797Y020353D01*
X017840Y020254D02*
X018293Y020254D01*
X018293Y020155D02*
X017853Y020155D01*
X017843Y020057D02*
X018293Y020057D01*
X018293Y019958D02*
X017802Y019958D01*
X017707Y019860D02*
X018293Y019860D01*
X018293Y019761D02*
X017213Y019761D01*
X017213Y019663D02*
X018293Y019663D01*
X018293Y019564D02*
X017213Y019564D01*
X017213Y019466D02*
X018293Y019466D01*
X018215Y019367D02*
X017213Y019367D01*
X017213Y019269D02*
X018215Y019269D01*
X018215Y019170D02*
X017213Y019170D01*
X017213Y019071D02*
X018215Y019071D01*
X018215Y018973D02*
X017213Y018973D01*
X017213Y018874D02*
X018268Y018874D01*
X018222Y018382D02*
X016285Y018382D01*
X016292Y018874D02*
X016680Y018874D01*
X016778Y018973D02*
X015801Y018973D01*
X015715Y018874D02*
X015703Y018874D01*
X015715Y018776D02*
X015604Y018776D01*
X015506Y018677D02*
X015715Y018677D01*
X015715Y018579D02*
X015413Y018579D01*
X015412Y018480D02*
X015715Y018480D01*
X015722Y018382D02*
X015314Y018382D01*
X015253Y018651D02*
X015003Y018651D01*
X015253Y018651D02*
X016253Y019651D01*
X015965Y019663D02*
X015413Y019663D01*
X015413Y019761D02*
X015965Y019761D01*
X015965Y019860D02*
X015375Y019860D01*
X015276Y019958D02*
X016793Y019958D01*
X016793Y019860D02*
X016542Y019860D01*
X016542Y019761D02*
X016793Y019761D01*
X016793Y019663D02*
X016542Y019663D01*
X016542Y019564D02*
X016793Y019564D01*
X016793Y019466D02*
X016542Y019466D01*
X016481Y019367D02*
X016793Y019367D01*
X016793Y019269D02*
X016097Y019269D01*
X015999Y019170D02*
X016793Y019170D01*
X016793Y019071D02*
X015900Y019071D01*
X015645Y019269D02*
X015201Y019269D01*
X015299Y019367D02*
X015743Y019367D01*
X015842Y019466D02*
X015398Y019466D01*
X015413Y019564D02*
X015940Y019564D01*
X015546Y019170D02*
X011806Y019170D01*
X011817Y019182D02*
X011873Y019318D01*
X011873Y019985D01*
X011817Y020121D01*
X011713Y020225D01*
X011577Y020281D01*
X011430Y020281D01*
X011294Y020225D01*
X011190Y020121D01*
X011133Y019985D01*
X011133Y019318D01*
X011190Y019182D01*
X011294Y019078D01*
X011430Y019021D01*
X011577Y019021D01*
X011713Y019078D01*
X011817Y019182D01*
X011853Y019269D02*
X013806Y019269D01*
X013708Y019367D02*
X011873Y019367D01*
X011873Y019466D02*
X013609Y019466D01*
X013593Y019564D02*
X011873Y019564D01*
X011873Y019663D02*
X013593Y019663D01*
X013593Y019761D02*
X011873Y019761D01*
X011873Y019860D02*
X013632Y019860D01*
X013731Y019958D02*
X011873Y019958D01*
X011844Y020057D02*
X013793Y020057D01*
X013793Y020155D02*
X011782Y020155D01*
X011643Y020254D02*
X013793Y020254D01*
X013793Y020353D02*
X010713Y020353D01*
X010713Y020451D02*
X013793Y020451D01*
X013793Y020550D02*
X010713Y020550D01*
X010797Y020648D02*
X013793Y020648D01*
X013793Y021141D02*
X012766Y021141D01*
X012865Y021239D02*
X013793Y021239D01*
X013793Y021338D02*
X012873Y021338D01*
X012873Y021437D02*
X013793Y021437D01*
X013840Y021535D02*
X012873Y021535D01*
X012794Y021634D02*
X013939Y021634D01*
X014037Y021732D02*
X012696Y021732D01*
X012311Y021732D02*
X011873Y021732D01*
X011873Y021804D02*
X011657Y022021D01*
X011350Y022021D01*
X011133Y021804D01*
X011133Y021498D01*
X011350Y021281D01*
X011657Y021281D01*
X011873Y021498D01*
X011873Y021804D01*
X011847Y021831D02*
X014136Y021831D01*
X014235Y021929D02*
X011749Y021929D01*
X011873Y021634D02*
X012213Y021634D01*
X012133Y021535D02*
X011873Y021535D01*
X011812Y021437D02*
X012133Y021437D01*
X012133Y021338D02*
X011714Y021338D01*
X011293Y021338D02*
X010963Y021338D01*
X010963Y021239D02*
X012142Y021239D01*
X012240Y021141D02*
X010963Y021141D01*
X010963Y021437D02*
X011195Y021437D01*
X011133Y021535D02*
X010963Y021535D01*
X010963Y021634D02*
X011133Y021634D01*
X011133Y021732D02*
X010963Y021732D01*
X010963Y021831D02*
X011160Y021831D01*
X011258Y021929D02*
X010963Y021929D01*
X010963Y022028D02*
X014333Y022028D01*
X014734Y023802D02*
X016976Y023802D01*
X016971Y023804D02*
X017122Y023741D01*
X017885Y023741D01*
X018036Y023804D01*
X018151Y023919D01*
X018213Y024070D01*
X018213Y024233D01*
X018151Y024383D01*
X018036Y024499D01*
X017885Y024561D01*
X017122Y024561D01*
X016971Y024499D01*
X016856Y024383D01*
X016793Y024233D01*
X016793Y024070D01*
X016856Y023919D01*
X016971Y023804D01*
X016875Y023900D02*
X014832Y023900D01*
X014913Y023999D02*
X016823Y023999D01*
X016793Y024097D02*
X014913Y024097D01*
X014913Y024196D02*
X016793Y024196D01*
X016819Y024294D02*
X014913Y024294D01*
X014842Y024393D02*
X016865Y024393D01*
X016964Y024491D02*
X014743Y024491D01*
X014663Y024787D02*
X017011Y024787D01*
X016889Y024886D02*
X014761Y024886D01*
X014860Y024984D02*
X016829Y024984D01*
X016793Y025083D02*
X014873Y025083D01*
X014873Y025181D02*
X016793Y025181D01*
X016813Y025280D02*
X014873Y025280D01*
X014800Y025378D02*
X016854Y025378D01*
X016949Y025477D02*
X014701Y025477D01*
X016289Y023210D02*
X012718Y023210D01*
X012657Y023271D02*
X012873Y023054D01*
X012873Y022748D01*
X012657Y022531D01*
X012350Y022531D01*
X012133Y022748D01*
X012133Y023054D01*
X012350Y023271D01*
X012657Y023271D01*
X012816Y023112D02*
X016191Y023112D01*
X016133Y023054D02*
X016133Y022748D01*
X016350Y022531D01*
X016657Y022531D01*
X016873Y022748D01*
X016873Y023054D01*
X016657Y023271D01*
X016350Y023271D01*
X016133Y023054D01*
X016133Y023013D02*
X012873Y023013D01*
X012873Y022915D02*
X016133Y022915D01*
X016133Y022816D02*
X012873Y022816D01*
X012843Y022718D02*
X016164Y022718D01*
X016262Y022619D02*
X012745Y022619D01*
X012262Y022619D02*
X010963Y022619D01*
X010963Y022521D02*
X017567Y022521D01*
X017592Y022459D02*
X017812Y022240D01*
X018098Y022121D01*
X018409Y022121D01*
X018695Y022240D01*
X018915Y022459D01*
X019033Y022746D01*
X019033Y023056D01*
X018915Y023343D01*
X018695Y023562D01*
X018409Y023681D01*
X018098Y023681D01*
X017812Y023562D01*
X017592Y023343D01*
X017474Y023056D01*
X017474Y022746D01*
X017592Y022459D01*
X017630Y022422D02*
X010963Y022422D01*
X010963Y022323D02*
X017728Y022323D01*
X017848Y022225D02*
X010963Y022225D01*
X010963Y022126D02*
X018086Y022126D01*
X018421Y022126D02*
X019043Y022126D01*
X019043Y022028D02*
X017424Y022028D01*
X017522Y021929D02*
X019043Y021929D01*
X019043Y021831D02*
X017621Y021831D01*
X017719Y021732D02*
X019043Y021732D01*
X019043Y021634D02*
X017818Y021634D01*
X017916Y021535D02*
X019043Y021535D01*
X019043Y021437D02*
X018015Y021437D01*
X018114Y021338D02*
X019043Y021338D01*
X019043Y021239D02*
X018212Y021239D01*
X018311Y021141D02*
X019043Y021141D01*
X019043Y021042D02*
X018409Y021042D01*
X018508Y020944D02*
X019043Y020944D01*
X019043Y020845D02*
X018606Y020845D01*
X018705Y020747D02*
X019043Y020747D01*
X019043Y020648D02*
X018713Y020648D01*
X018713Y020550D02*
X019043Y020550D01*
X019043Y020451D02*
X018713Y020451D01*
X018713Y020353D02*
X019043Y020353D01*
X019043Y020254D02*
X018713Y020254D01*
X018713Y020155D02*
X019043Y020155D01*
X019043Y020057D02*
X018713Y020057D01*
X018713Y019958D02*
X019043Y019958D01*
X019043Y019860D02*
X018713Y019860D01*
X018713Y019761D02*
X019043Y019761D01*
X019043Y019663D02*
X018713Y019663D01*
X018713Y019564D02*
X019043Y019564D01*
X019043Y019466D02*
X018713Y019466D01*
X018792Y019367D02*
X019043Y019367D01*
X019043Y019269D02*
X018792Y019269D01*
X018792Y019170D02*
X019043Y019170D01*
X019043Y019071D02*
X018792Y019071D01*
X018792Y018973D02*
X019043Y018973D01*
X019043Y018874D02*
X018738Y018874D01*
X018785Y018382D02*
X018937Y018382D01*
X019036Y018480D02*
X016879Y018480D01*
X016978Y018579D02*
X019043Y018579D01*
X019043Y018677D02*
X017077Y018677D01*
X017175Y018776D02*
X019043Y018776D01*
X017654Y017396D02*
X017353Y017396D01*
X017422Y017298D02*
X017585Y017298D01*
X017553Y017199D02*
X017453Y017199D01*
X017453Y017101D02*
X017553Y017101D01*
X017586Y017002D02*
X017421Y017002D01*
X017351Y016904D02*
X017656Y016904D01*
X017300Y019860D02*
X017213Y019860D01*
X018659Y022225D02*
X019043Y022225D01*
X019043Y022323D02*
X018779Y022323D01*
X018877Y022422D02*
X019043Y022422D01*
X019043Y022521D02*
X018940Y022521D01*
X018981Y022619D02*
X019043Y022619D01*
X019043Y022718D02*
X019022Y022718D01*
X019033Y022816D02*
X019043Y022816D01*
X019033Y022915D02*
X019043Y022915D01*
X019033Y023013D02*
X019043Y023013D01*
X019043Y023112D02*
X019010Y023112D01*
X019043Y023210D02*
X018970Y023210D01*
X018929Y023309D02*
X019043Y023309D01*
X019043Y023407D02*
X018850Y023407D01*
X018752Y023506D02*
X019043Y023506D01*
X019043Y023604D02*
X018593Y023604D01*
X019043Y023703D02*
X011102Y023703D01*
X011004Y023604D02*
X017913Y023604D01*
X017755Y023506D02*
X010963Y023506D01*
X010963Y023407D02*
X017657Y023407D01*
X017578Y023309D02*
X010963Y023309D01*
X010963Y023210D02*
X012289Y023210D01*
X012191Y023112D02*
X010963Y023112D01*
X010963Y023013D02*
X012133Y023013D01*
X012133Y022915D02*
X010963Y022915D01*
X010963Y022816D02*
X012133Y022816D01*
X012164Y022718D02*
X010963Y022718D01*
X010543Y022915D02*
X008347Y022915D01*
X008413Y023013D02*
X010543Y023013D01*
X010543Y023112D02*
X008413Y023112D01*
X008413Y023210D02*
X010543Y023210D01*
X010543Y023309D02*
X008934Y023309D01*
X009033Y023407D02*
X010543Y023407D01*
X010543Y023506D02*
X009123Y023506D01*
X009123Y023604D02*
X010543Y023604D01*
X010543Y023703D02*
X009123Y023703D01*
X009123Y023802D02*
X010607Y023802D01*
X010705Y023900D02*
X009028Y023900D01*
X008929Y023999D02*
X010804Y023999D01*
X011253Y025378D02*
X010254Y025378D01*
X010352Y025477D02*
X011155Y025477D01*
X011133Y025575D02*
X010373Y025575D01*
X010373Y025674D02*
X011133Y025674D01*
X011133Y025772D02*
X010373Y025772D01*
X010307Y025871D02*
X011200Y025871D01*
X011299Y025970D02*
X010208Y025970D01*
X009799Y025970D02*
X008902Y025970D01*
X008803Y025871D02*
X009700Y025871D01*
X009633Y025772D02*
X008705Y025772D01*
X008533Y025772D02*
X008473Y025772D01*
X008473Y025871D02*
X008533Y025871D01*
X008533Y025970D02*
X008473Y025970D01*
X008473Y026068D02*
X008533Y026068D01*
X008533Y026265D02*
X008473Y026265D01*
X008473Y026364D02*
X008533Y026364D01*
X008533Y026462D02*
X008473Y026462D01*
X008473Y026561D02*
X008533Y026561D01*
X008674Y026561D02*
X017121Y026561D01*
X016935Y026462D02*
X008772Y026462D01*
X008871Y026364D02*
X016848Y026364D01*
X018118Y024886D02*
X018222Y024886D01*
X018321Y024787D02*
X017996Y024787D01*
X018043Y024491D02*
X018616Y024491D01*
X018715Y024393D02*
X018142Y024393D01*
X018188Y024294D02*
X018813Y024294D01*
X018912Y024196D02*
X018213Y024196D01*
X018213Y024097D02*
X019010Y024097D01*
X019043Y023999D02*
X018184Y023999D01*
X018132Y023900D02*
X019043Y023900D01*
X019043Y023802D02*
X018031Y023802D01*
X017537Y023210D02*
X016718Y023210D01*
X016816Y023112D02*
X017497Y023112D01*
X017474Y023013D02*
X016873Y023013D01*
X016873Y022915D02*
X017474Y022915D01*
X017474Y022816D02*
X016873Y022816D01*
X016843Y022718D02*
X017485Y022718D01*
X017526Y022619D02*
X016745Y022619D01*
X015448Y019071D02*
X011698Y019071D01*
X011308Y019071D02*
X010698Y019071D01*
X010806Y019170D02*
X011201Y019170D01*
X011154Y019269D02*
X010853Y019269D01*
X010873Y019367D02*
X011133Y019367D01*
X011133Y019466D02*
X010873Y019466D01*
X010873Y019564D02*
X011133Y019564D01*
X011133Y019663D02*
X010873Y019663D01*
X010873Y019761D02*
X011133Y019761D01*
X011133Y019860D02*
X010873Y019860D01*
X010873Y019958D02*
X011133Y019958D01*
X011163Y020057D02*
X010844Y020057D01*
X010782Y020155D02*
X011225Y020155D01*
X011364Y020254D02*
X010713Y020254D01*
X010293Y020254D02*
X009643Y020254D01*
X009782Y020155D02*
X010225Y020155D01*
X010163Y020057D02*
X009844Y020057D01*
X009873Y019958D02*
X010133Y019958D01*
X010133Y019860D02*
X009873Y019860D01*
X009873Y019761D02*
X010133Y019761D01*
X010133Y019663D02*
X009873Y019663D01*
X009873Y019564D02*
X010133Y019564D01*
X010133Y019466D02*
X009873Y019466D01*
X009873Y019367D02*
X010133Y019367D01*
X010154Y019269D02*
X009853Y019269D01*
X009806Y019170D02*
X010201Y019170D01*
X010308Y019071D02*
X009713Y019071D01*
X009729Y018973D02*
X013745Y018973D01*
X013647Y018874D02*
X009827Y018874D01*
X009529Y018579D02*
X003153Y018579D01*
X003153Y018677D02*
X009430Y018677D01*
X009332Y018776D02*
X003153Y018776D01*
X003153Y018480D02*
X009627Y018480D01*
X009293Y019071D02*
X008698Y019071D01*
X008806Y019170D02*
X009201Y019170D01*
X009154Y019269D02*
X008853Y019269D01*
X008873Y019367D02*
X009133Y019367D01*
X009133Y019466D02*
X008873Y019466D01*
X008873Y019564D02*
X009133Y019564D01*
X009133Y019663D02*
X008873Y019663D01*
X008873Y019761D02*
X009133Y019761D01*
X009133Y019860D02*
X008873Y019860D01*
X008873Y019958D02*
X009133Y019958D01*
X009163Y020057D02*
X008844Y020057D01*
X008782Y020155D02*
X009225Y020155D01*
X009364Y020254D02*
X008643Y020254D01*
X008364Y020254D02*
X003153Y020254D01*
X003153Y020155D02*
X008225Y020155D01*
X008163Y020057D02*
X003153Y020057D01*
X003153Y019958D02*
X008133Y019958D01*
X008133Y019860D02*
X003153Y019860D01*
X003153Y019761D02*
X008133Y019761D01*
X008133Y019663D02*
X003153Y019663D01*
X003153Y020353D02*
X010293Y020353D01*
X010293Y020451D02*
X003153Y020451D01*
X003153Y020550D02*
X010293Y020550D01*
X010293Y020648D02*
X003153Y020648D01*
X003153Y020747D02*
X004078Y020747D01*
X003980Y020845D02*
X003153Y020845D01*
X003153Y020944D02*
X003881Y020944D01*
X003843Y021042D02*
X003153Y021042D01*
X003153Y021141D02*
X003843Y021141D01*
X003843Y021239D02*
X003153Y021239D01*
X003153Y021338D02*
X003860Y021338D01*
X003959Y021437D02*
X003153Y021437D01*
X003153Y021535D02*
X004058Y021535D01*
X004059Y022225D02*
X003153Y022225D01*
X003153Y022323D02*
X003895Y022323D01*
X003815Y022422D02*
X003153Y022422D01*
X003153Y022521D02*
X003773Y022521D01*
X003153Y021929D02*
X009758Y021929D01*
X009660Y021831D02*
X003153Y021831D01*
X003153Y021732D02*
X009633Y021732D01*
X009633Y021634D02*
X003153Y021634D01*
X004453Y022225D02*
X004553Y022225D01*
X004553Y022323D02*
X004453Y022323D01*
X004453Y022422D02*
X004553Y022422D01*
X004553Y022718D02*
X004453Y022718D01*
X004453Y022816D02*
X004553Y022816D01*
X004553Y022915D02*
X004453Y022915D01*
X004453Y023013D02*
X004553Y023013D01*
X003153Y018382D02*
X013693Y018382D01*
X014953Y018086D02*
X015053Y018086D01*
X015053Y017988D02*
X014953Y017988D01*
X014953Y017889D02*
X015053Y017889D01*
X015053Y017790D02*
X014953Y017790D01*
X015261Y018973D02*
X015349Y018973D01*
X014682Y015425D02*
X013075Y015425D01*
X012976Y015327D02*
X013839Y015327D01*
X013771Y015299D02*
X013656Y015183D01*
X013593Y015033D01*
X013593Y014861D01*
X010090Y014861D01*
X009292Y015660D01*
X009292Y015875D01*
X009227Y015939D01*
X008780Y015939D01*
X008715Y015875D01*
X008715Y015427D01*
X008780Y015363D01*
X008995Y015363D01*
X009916Y014441D01*
X010090Y014441D01*
X013593Y014441D01*
X013593Y014270D01*
X013656Y014119D01*
X013771Y014004D01*
X013922Y013941D01*
X014085Y013941D01*
X014236Y014004D01*
X014351Y014119D01*
X014413Y014270D01*
X014413Y015033D01*
X014351Y015183D01*
X014236Y015299D01*
X014085Y015361D01*
X013922Y015361D01*
X013771Y015299D01*
X013701Y015228D02*
X012878Y015228D01*
X012678Y015622D02*
X010579Y015622D01*
X010481Y015721D02*
X010887Y015721D01*
X010788Y015820D02*
X010382Y015820D01*
X010283Y015918D02*
X010690Y015918D01*
X010591Y016017D02*
X010185Y016017D01*
X010256Y016115D02*
X010086Y016115D01*
X010176Y016214D02*
X009988Y016214D01*
X009889Y016312D02*
X010136Y016312D01*
X010133Y016411D02*
X009873Y016411D01*
X009873Y016509D02*
X010133Y016509D01*
X010133Y016608D02*
X009873Y016608D01*
X009873Y016706D02*
X010133Y016706D01*
X010133Y016805D02*
X009873Y016805D01*
X009873Y016904D02*
X010133Y016904D01*
X010141Y017002D02*
X009866Y017002D01*
X009825Y017101D02*
X010181Y017101D01*
X010268Y017199D02*
X009739Y017199D01*
X009268Y017199D02*
X008848Y017199D01*
X008825Y017101D02*
X009181Y017101D01*
X009141Y017002D02*
X008866Y017002D01*
X008873Y016904D02*
X009133Y016904D01*
X009133Y016805D02*
X008873Y016805D01*
X008873Y016706D02*
X009133Y016706D01*
X009133Y016608D02*
X008873Y016608D01*
X008873Y016509D02*
X009133Y016509D01*
X009133Y016411D02*
X008873Y016411D01*
X008871Y016312D02*
X009136Y016312D01*
X009176Y016214D02*
X008830Y016214D01*
X008751Y016115D02*
X009256Y016115D01*
X009248Y015918D02*
X009690Y015918D01*
X009788Y015820D02*
X009292Y015820D01*
X009292Y015721D02*
X009887Y015721D01*
X009985Y015622D02*
X009329Y015622D01*
X009428Y015524D02*
X010084Y015524D01*
X010182Y015425D02*
X009526Y015425D01*
X009625Y015327D02*
X010281Y015327D01*
X010379Y015228D02*
X009723Y015228D01*
X009822Y015130D02*
X013634Y015130D01*
X013593Y015031D02*
X009920Y015031D01*
X010019Y014933D02*
X013593Y014933D01*
X013593Y014440D02*
X008794Y014440D01*
X008696Y014539D02*
X009819Y014539D01*
X009721Y014637D02*
X005713Y014637D01*
X005713Y014539D02*
X008311Y014539D01*
X008334Y014561D02*
X008093Y014321D01*
X008093Y014181D01*
X008473Y014181D01*
X008473Y014121D01*
X008093Y014121D01*
X008093Y013981D01*
X008334Y013741D01*
X008473Y013741D01*
X008473Y014121D01*
X008533Y014121D01*
X008533Y013741D01*
X008673Y013741D01*
X008913Y013981D01*
X008913Y014121D01*
X008534Y014121D01*
X008534Y014181D01*
X008913Y014181D01*
X008913Y014321D01*
X008673Y014561D01*
X008533Y014561D01*
X008533Y014181D01*
X008473Y014181D01*
X008473Y014561D01*
X008334Y014561D01*
X008473Y014539D02*
X008533Y014539D01*
X008533Y014440D02*
X008473Y014440D01*
X008473Y014341D02*
X008533Y014341D01*
X008533Y014243D02*
X008473Y014243D01*
X008473Y014144D02*
X006873Y014144D01*
X006873Y014046D02*
X008093Y014046D01*
X008128Y013947D02*
X006823Y013947D01*
X006873Y013998D02*
X006713Y013838D01*
X006713Y013064D01*
X006590Y012941D01*
X006090Y012441D01*
X005916Y012441D01*
X005160Y012441D01*
X005151Y012419D01*
X005036Y012304D01*
X004885Y012241D01*
X004122Y012241D01*
X003971Y012304D01*
X003856Y012419D01*
X003793Y012570D01*
X003793Y012733D01*
X003856Y012883D01*
X003971Y012999D01*
X004122Y013061D01*
X004885Y013061D01*
X005036Y012999D01*
X005151Y012883D01*
X005160Y012861D01*
X005916Y012861D01*
X006293Y013238D01*
X006293Y013838D01*
X006133Y013998D01*
X006133Y014304D01*
X006350Y014521D01*
X006657Y014521D01*
X006873Y014304D01*
X006873Y013998D01*
X006724Y013849D02*
X008226Y013849D01*
X008325Y013750D02*
X006713Y013750D01*
X006713Y013652D02*
X009633Y013652D01*
X009633Y013750D02*
X008682Y013750D01*
X008781Y013849D02*
X009678Y013849D01*
X009633Y013804D02*
X009633Y013498D01*
X009850Y013281D01*
X010157Y013281D01*
X010373Y013498D01*
X010373Y013804D01*
X010157Y014021D01*
X009850Y014021D01*
X009633Y013804D01*
X009776Y013947D02*
X008879Y013947D01*
X008913Y014046D02*
X013729Y014046D01*
X013645Y014144D02*
X008534Y014144D01*
X008533Y014046D02*
X008473Y014046D01*
X008473Y013947D02*
X008533Y013947D01*
X008533Y013849D02*
X008473Y013849D01*
X008473Y013750D02*
X008533Y013750D01*
X008913Y014243D02*
X013605Y014243D01*
X013593Y014341D02*
X008893Y014341D01*
X009425Y014933D02*
X005832Y014933D01*
X005930Y015031D02*
X009326Y015031D01*
X009228Y015130D02*
X006029Y015130D01*
X006128Y015228D02*
X009129Y015228D01*
X009031Y015327D02*
X006226Y015327D01*
X006325Y015425D02*
X008717Y015425D01*
X008715Y015524D02*
X006423Y015524D01*
X006512Y015613D02*
X006727Y015613D01*
X006792Y015677D01*
X006792Y016125D01*
X006727Y016189D01*
X006280Y016189D01*
X006215Y016125D01*
X006215Y015910D01*
X005293Y014988D01*
X005293Y014814D01*
X005293Y014238D01*
X005045Y013990D01*
X005036Y013999D01*
X004885Y014061D01*
X004122Y014061D01*
X003971Y013999D01*
X003856Y013883D01*
X003793Y013733D01*
X003793Y013570D01*
X003856Y013419D01*
X003971Y013304D01*
X004122Y013241D01*
X004885Y013241D01*
X005036Y013304D01*
X005151Y013419D01*
X005210Y013560D01*
X005590Y013941D01*
X005713Y014064D01*
X005713Y014814D01*
X006512Y015613D01*
X006737Y015622D02*
X008715Y015622D01*
X008715Y015721D02*
X006792Y015721D01*
X006792Y015820D02*
X008715Y015820D01*
X008759Y015918D02*
X006792Y015918D01*
X006792Y016017D02*
X009591Y016017D01*
X009524Y014834D02*
X005733Y014834D01*
X005713Y014736D02*
X009622Y014736D01*
X010231Y013947D02*
X011276Y013947D01*
X011350Y014021D02*
X011133Y013804D01*
X011133Y013498D01*
X011350Y013281D01*
X011657Y013281D01*
X011873Y013498D01*
X011873Y013804D01*
X011657Y014021D01*
X011350Y014021D01*
X011178Y013849D02*
X010329Y013849D01*
X010373Y013750D02*
X011133Y013750D01*
X011133Y013652D02*
X010373Y013652D01*
X010373Y013553D02*
X011133Y013553D01*
X011177Y013455D02*
X010330Y013455D01*
X010231Y013356D02*
X011275Y013356D01*
X011731Y013356D02*
X014793Y013356D01*
X014793Y013455D02*
X011830Y013455D01*
X011873Y013553D02*
X014793Y013553D01*
X014793Y013652D02*
X011873Y013652D01*
X011873Y013750D02*
X014793Y013750D01*
X014793Y013849D02*
X011829Y013849D01*
X011731Y013947D02*
X013907Y013947D01*
X014100Y013947D02*
X014793Y013947D01*
X014729Y014046D02*
X014278Y014046D01*
X014362Y014144D02*
X014645Y014144D01*
X014605Y014243D02*
X014402Y014243D01*
X014413Y014341D02*
X014593Y014341D01*
X014593Y014440D02*
X014413Y014440D01*
X014413Y014539D02*
X014593Y014539D01*
X014593Y014637D02*
X014413Y014637D01*
X014413Y014736D02*
X014593Y014736D01*
X014593Y014834D02*
X014413Y014834D01*
X014413Y014933D02*
X014593Y014933D01*
X014593Y015031D02*
X014413Y015031D01*
X014373Y015130D02*
X014634Y015130D01*
X014701Y015228D02*
X014306Y015228D01*
X014168Y015327D02*
X014781Y015327D01*
X014793Y013257D02*
X006713Y013257D01*
X006713Y013159D02*
X014793Y013159D01*
X014793Y013060D02*
X006710Y013060D01*
X006611Y012962D02*
X012791Y012962D01*
X012850Y013021D02*
X012633Y012804D01*
X012633Y012498D01*
X012850Y012281D01*
X013157Y012281D01*
X013373Y012498D01*
X013373Y012804D01*
X013157Y013021D01*
X012850Y013021D01*
X012692Y012863D02*
X006513Y012863D01*
X006414Y012765D02*
X012633Y012765D01*
X012633Y012666D02*
X006315Y012666D01*
X006217Y012568D02*
X012633Y012568D01*
X012662Y012469D02*
X008209Y012469D01*
X008157Y012521D02*
X007850Y012521D01*
X007633Y012304D01*
X007633Y011998D01*
X007850Y011781D01*
X008157Y011781D01*
X008373Y011998D01*
X008373Y012304D01*
X008157Y012521D01*
X008307Y012371D02*
X012761Y012371D01*
X013246Y012371D02*
X014793Y012371D01*
X014793Y012469D02*
X013345Y012469D01*
X013373Y012568D02*
X014793Y012568D01*
X014793Y012666D02*
X013373Y012666D01*
X013373Y012765D02*
X014793Y012765D01*
X014793Y012863D02*
X013315Y012863D01*
X013216Y012962D02*
X014793Y012962D01*
X014793Y012272D02*
X008373Y012272D01*
X008373Y012173D02*
X014793Y012173D01*
X014793Y012075D02*
X008373Y012075D01*
X008352Y011976D02*
X008555Y011976D01*
X008600Y012021D02*
X008383Y011804D01*
X008383Y011498D01*
X008600Y011281D01*
X008907Y011281D01*
X009123Y011498D01*
X009123Y011804D01*
X008907Y012021D01*
X008600Y012021D01*
X008457Y011878D02*
X008253Y011878D01*
X008383Y011779D02*
X005235Y011779D01*
X005242Y011757D02*
X005220Y011824D01*
X005188Y011887D01*
X005147Y011944D01*
X005097Y011994D01*
X005039Y012036D01*
X004976Y012068D01*
X004909Y012090D01*
X004839Y012101D01*
X004553Y012101D01*
X004553Y011701D01*
X004453Y011701D01*
X004453Y011601D01*
X003756Y011601D01*
X003765Y011546D01*
X003786Y011478D01*
X003819Y011415D01*
X003860Y011358D01*
X003910Y011308D01*
X003968Y011266D01*
X004031Y011234D01*
X004098Y011212D01*
X004168Y011201D01*
X004453Y011201D01*
X004453Y011601D01*
X004553Y011601D01*
X004553Y011201D01*
X004839Y011201D01*
X004909Y011212D01*
X004976Y011234D01*
X005039Y011266D01*
X005097Y011308D01*
X005147Y011358D01*
X005188Y011415D01*
X005220Y011478D01*
X005242Y011546D01*
X005251Y011601D01*
X004554Y011601D01*
X004554Y011701D01*
X005251Y011701D01*
X005242Y011757D01*
X005193Y011878D02*
X007754Y011878D01*
X007655Y011976D02*
X005115Y011976D01*
X004955Y012075D02*
X007633Y012075D01*
X007633Y012173D02*
X003153Y012173D01*
X003153Y012075D02*
X004051Y012075D01*
X004031Y012068D02*
X004098Y012090D01*
X004168Y012101D01*
X004453Y012101D01*
X004453Y011701D01*
X003756Y011701D01*
X003765Y011757D01*
X003786Y011824D01*
X003819Y011887D01*
X003860Y011944D01*
X003910Y011994D01*
X003968Y012036D01*
X004031Y012068D01*
X003892Y011976D02*
X003153Y011976D01*
X003153Y011878D02*
X003814Y011878D01*
X003772Y011779D02*
X003153Y011779D01*
X003153Y011681D02*
X004453Y011681D01*
X004453Y011779D02*
X004553Y011779D01*
X004554Y011681D02*
X008383Y011681D01*
X008383Y011582D02*
X005248Y011582D01*
X005222Y011484D02*
X007756Y011484D01*
X007834Y011561D02*
X007593Y011321D01*
X007593Y011181D01*
X007973Y011181D01*
X007973Y011121D01*
X007593Y011121D01*
X007593Y010981D01*
X007834Y010741D01*
X007973Y010741D01*
X007973Y011121D01*
X008033Y011121D01*
X008033Y010741D01*
X008173Y010741D01*
X008413Y010981D01*
X008413Y011121D01*
X008034Y011121D01*
X008034Y011181D01*
X008413Y011181D01*
X008413Y011321D01*
X008173Y011561D01*
X008033Y011561D01*
X008033Y011181D01*
X007973Y011181D01*
X007973Y011561D01*
X007834Y011561D01*
X007973Y011484D02*
X008033Y011484D01*
X008033Y011385D02*
X007973Y011385D01*
X007973Y011287D02*
X008033Y011287D01*
X008033Y011188D02*
X007973Y011188D01*
X007973Y011089D02*
X008033Y011089D01*
X008033Y010991D02*
X007973Y010991D01*
X007973Y010892D02*
X008033Y010892D01*
X008033Y010794D02*
X007973Y010794D01*
X007781Y010794D02*
X004441Y010794D01*
X004423Y010811D02*
X004623Y010611D01*
X005916Y010611D01*
X006090Y010611D01*
X006590Y010111D01*
X006713Y009988D01*
X006713Y009464D01*
X006873Y009304D01*
X006873Y008998D01*
X006657Y008781D01*
X006350Y008781D01*
X006133Y008998D01*
X006133Y009304D01*
X006293Y009464D01*
X006293Y009814D01*
X005916Y010191D01*
X004623Y010191D01*
X004423Y009991D01*
X004084Y009991D01*
X003843Y010231D01*
X003843Y010571D01*
X004084Y010811D01*
X004423Y010811D01*
X004539Y010695D02*
X017162Y010695D01*
X017261Y010597D02*
X006105Y010597D01*
X006203Y010498D02*
X017293Y010498D01*
X017293Y010400D02*
X006302Y010400D01*
X006400Y010301D02*
X017293Y010301D01*
X017293Y010203D02*
X006499Y010203D01*
X006598Y010104D02*
X017293Y010104D01*
X017293Y010006D02*
X017172Y010006D01*
X017271Y009907D02*
X017293Y009907D01*
X017713Y009907D02*
X017879Y009907D01*
X017856Y009883D02*
X017793Y009733D01*
X017793Y009570D01*
X017856Y009419D01*
X017971Y009304D01*
X018122Y009241D01*
X018885Y009241D01*
X019036Y009304D01*
X019151Y009419D01*
X019213Y009570D01*
X019213Y009733D01*
X019151Y009883D01*
X019036Y009999D01*
X018885Y010061D01*
X018122Y010061D01*
X017971Y009999D01*
X017856Y009883D01*
X017825Y009808D02*
X017713Y009808D01*
X017713Y009710D02*
X017793Y009710D01*
X017793Y009611D02*
X017713Y009611D01*
X017713Y009513D02*
X017817Y009513D01*
X017861Y009414D02*
X017713Y009414D01*
X017713Y009316D02*
X017959Y009316D01*
X017833Y009119D02*
X019848Y009119D01*
X019848Y009217D02*
X017734Y009217D01*
X017931Y009020D02*
X018023Y009020D01*
X017633Y008724D02*
X011283Y008724D01*
X011283Y008806D02*
X011165Y009093D01*
X010945Y009312D01*
X010659Y009431D01*
X010348Y009431D01*
X010277Y009401D01*
X010373Y009498D01*
X010373Y009804D01*
X010157Y010021D01*
X009850Y010021D01*
X009633Y009804D01*
X009633Y009498D01*
X009850Y009281D01*
X010031Y009281D01*
X009842Y009093D01*
X009724Y008806D01*
X009724Y008496D01*
X009842Y008209D01*
X010062Y007990D01*
X010348Y007871D01*
X010659Y007871D01*
X010945Y007990D01*
X011165Y008209D01*
X011283Y008496D01*
X011283Y008806D01*
X011276Y008823D02*
X017535Y008823D01*
X017436Y008922D02*
X011236Y008922D01*
X011195Y009020D02*
X017338Y009020D01*
X017293Y009119D02*
X011139Y009119D01*
X011040Y009217D02*
X017293Y009217D01*
X017293Y009316D02*
X017191Y009316D01*
X017290Y009414D02*
X017293Y009414D01*
X016816Y009316D02*
X013191Y009316D01*
X013157Y009281D02*
X013373Y009498D01*
X013373Y009804D01*
X013157Y010021D01*
X012850Y010021D01*
X012633Y009804D01*
X012633Y009498D01*
X012850Y009281D01*
X013157Y009281D01*
X013290Y009414D02*
X016717Y009414D01*
X016633Y009513D02*
X013373Y009513D01*
X013373Y009611D02*
X016633Y009611D01*
X016633Y009710D02*
X013373Y009710D01*
X013369Y009808D02*
X016637Y009808D01*
X016736Y009907D02*
X013271Y009907D01*
X013172Y010006D02*
X016835Y010006D01*
X016838Y010794D02*
X013169Y010794D01*
X013157Y010781D02*
X013373Y010998D01*
X013373Y011304D01*
X013157Y011521D01*
X012850Y011521D01*
X012633Y011304D01*
X012633Y010998D01*
X012850Y010781D01*
X013157Y010781D01*
X013268Y010892D02*
X016739Y010892D01*
X016714Y011385D02*
X015566Y011385D01*
X015468Y011484D02*
X016813Y011484D01*
X017194Y011484D02*
X017785Y011484D01*
X017841Y011385D02*
X017293Y011385D01*
X017373Y011287D02*
X017940Y011287D01*
X017971Y010999D02*
X017856Y010883D01*
X017793Y010733D01*
X017793Y010570D01*
X017856Y010419D01*
X017971Y010304D01*
X018122Y010241D01*
X018885Y010241D01*
X019036Y010304D01*
X019151Y010419D01*
X019213Y010570D01*
X019213Y010733D01*
X019151Y010883D01*
X019036Y010999D01*
X018885Y011061D01*
X018122Y011061D01*
X017971Y010999D01*
X017963Y010991D02*
X017461Y010991D01*
X017373Y011089D02*
X019849Y011089D01*
X019849Y010991D02*
X019043Y010991D01*
X019142Y010892D02*
X019849Y010892D01*
X019849Y010794D02*
X019188Y010794D01*
X019213Y010695D02*
X019849Y010695D01*
X019849Y010597D02*
X019213Y010597D01*
X019184Y010498D02*
X019849Y010498D01*
X019849Y010400D02*
X019132Y010400D01*
X019030Y010301D02*
X019849Y010301D01*
X019849Y010203D02*
X017713Y010203D01*
X017713Y010301D02*
X017977Y010301D01*
X017875Y010400D02*
X017713Y010400D01*
X017713Y010498D02*
X017823Y010498D01*
X017793Y010597D02*
X017713Y010597D01*
X017713Y010695D02*
X017793Y010695D01*
X017819Y010794D02*
X017658Y010794D01*
X017559Y010892D02*
X017865Y010892D01*
X017373Y011188D02*
X019849Y011188D01*
X019849Y011287D02*
X019067Y011287D01*
X019166Y011385D02*
X019849Y011385D01*
X019849Y011484D02*
X019222Y011484D01*
X019248Y011582D02*
X019849Y011582D01*
X019849Y012272D02*
X018959Y012272D01*
X019103Y012371D02*
X019849Y012371D01*
X019849Y012469D02*
X019172Y012469D01*
X019213Y012568D02*
X019849Y012568D01*
X019849Y012666D02*
X019213Y012666D01*
X019200Y012765D02*
X019849Y012765D01*
X019849Y012863D02*
X019159Y012863D01*
X019073Y012962D02*
X019849Y012962D01*
X019849Y013060D02*
X018887Y013060D01*
X018553Y012075D02*
X018453Y012075D01*
X018453Y011976D02*
X018553Y011976D01*
X018553Y011878D02*
X018453Y011878D01*
X018453Y011582D02*
X018553Y011582D01*
X018553Y011484D02*
X018453Y011484D01*
X018453Y011385D02*
X018553Y011385D01*
X018553Y011287D02*
X018453Y011287D01*
X017713Y010104D02*
X019848Y010104D01*
X019848Y010006D02*
X019019Y010006D01*
X019127Y009907D02*
X019848Y009907D01*
X019848Y009808D02*
X019182Y009808D01*
X019213Y009710D02*
X019848Y009710D01*
X019848Y009611D02*
X019213Y009611D01*
X019190Y009513D02*
X019848Y009513D01*
X019848Y009414D02*
X019146Y009414D01*
X019048Y009316D02*
X019848Y009316D01*
X019848Y009020D02*
X018984Y009020D01*
X019113Y008922D02*
X019848Y008922D01*
X019848Y008823D02*
X019176Y008823D01*
X019213Y008724D02*
X019848Y008724D01*
X019848Y008626D02*
X019213Y008626D01*
X019196Y008527D02*
X019848Y008527D01*
X019848Y008429D02*
X019155Y008429D01*
X019062Y008330D02*
X019848Y008330D01*
X019848Y008232D02*
X011174Y008232D01*
X011215Y008330D02*
X017945Y008330D01*
X017852Y008429D02*
X011255Y008429D01*
X011283Y008527D02*
X017811Y008527D01*
X017732Y008626D02*
X011283Y008626D01*
X011088Y008133D02*
X019848Y008133D01*
X019848Y008035D02*
X010990Y008035D01*
X010815Y007936D02*
X014265Y007936D01*
X014350Y008021D02*
X014133Y007804D01*
X014133Y007498D01*
X014350Y007281D01*
X014657Y007281D01*
X014873Y007498D01*
X014873Y007804D01*
X014657Y008021D01*
X014350Y008021D01*
X014167Y007838D02*
X003153Y007838D01*
X003153Y007936D02*
X010192Y007936D01*
X010017Y008035D02*
X003153Y008035D01*
X003153Y008133D02*
X009918Y008133D01*
X009833Y008232D02*
X003153Y008232D01*
X003153Y008330D02*
X009792Y008330D01*
X009751Y008429D02*
X003153Y008429D01*
X003153Y008527D02*
X009724Y008527D01*
X009724Y008626D02*
X003153Y008626D01*
X003153Y008724D02*
X009724Y008724D01*
X009730Y008823D02*
X008755Y008823D01*
X008673Y008741D02*
X008913Y008981D01*
X008913Y009121D01*
X008534Y009121D01*
X008534Y009181D01*
X008913Y009181D01*
X008913Y009321D01*
X008673Y009561D01*
X008533Y009561D01*
X008533Y009181D01*
X008473Y009181D01*
X008473Y009121D01*
X008093Y009121D01*
X008093Y008981D01*
X008334Y008741D01*
X008473Y008741D01*
X008473Y009121D01*
X008533Y009121D01*
X008533Y008741D01*
X008673Y008741D01*
X008533Y008823D02*
X008473Y008823D01*
X008473Y008922D02*
X008533Y008922D01*
X008533Y009020D02*
X008473Y009020D01*
X008473Y009119D02*
X008533Y009119D01*
X008473Y009181D02*
X008093Y009181D01*
X008093Y009321D01*
X008334Y009561D01*
X008473Y009561D01*
X008473Y009181D01*
X008473Y009217D02*
X008533Y009217D01*
X008533Y009316D02*
X008473Y009316D01*
X008473Y009414D02*
X008533Y009414D01*
X008533Y009513D02*
X008473Y009513D01*
X008285Y009513D02*
X006713Y009513D01*
X006713Y009611D02*
X009633Y009611D01*
X009633Y009513D02*
X008722Y009513D01*
X008820Y009414D02*
X009717Y009414D01*
X009816Y009316D02*
X008913Y009316D01*
X008913Y009217D02*
X009967Y009217D01*
X009868Y009119D02*
X008913Y009119D01*
X008913Y009020D02*
X009812Y009020D01*
X009771Y008922D02*
X008854Y008922D01*
X008252Y008823D02*
X006699Y008823D01*
X006797Y008922D02*
X008153Y008922D01*
X008093Y009020D02*
X006873Y009020D01*
X006873Y009119D02*
X008093Y009119D01*
X008093Y009217D02*
X006873Y009217D01*
X006862Y009316D02*
X008093Y009316D01*
X008187Y009414D02*
X006764Y009414D01*
X006713Y009710D02*
X009633Y009710D01*
X009637Y009808D02*
X006713Y009808D01*
X006713Y009907D02*
X009736Y009907D01*
X009835Y010006D02*
X006696Y010006D01*
X006293Y009808D02*
X003153Y009808D01*
X003153Y009710D02*
X006293Y009710D01*
X006293Y009611D02*
X003153Y009611D01*
X003153Y009513D02*
X006293Y009513D01*
X006243Y009414D02*
X003153Y009414D01*
X003153Y009316D02*
X006145Y009316D01*
X006133Y009217D02*
X003153Y009217D01*
X003153Y009119D02*
X006133Y009119D01*
X006133Y009020D02*
X003153Y009020D01*
X003153Y008922D02*
X006210Y008922D01*
X006308Y008823D02*
X003153Y008823D01*
X003153Y007739D02*
X014133Y007739D01*
X014133Y007640D02*
X003153Y007640D01*
X003153Y007542D02*
X014133Y007542D01*
X014188Y007443D02*
X003153Y007443D01*
X003153Y007345D02*
X008274Y007345D01*
X008294Y007365D02*
X008190Y007261D01*
X008133Y007125D01*
X008133Y006978D01*
X008190Y006842D01*
X008294Y006738D01*
X008430Y006681D01*
X008577Y006681D01*
X008713Y006738D01*
X008817Y006842D01*
X008873Y006978D01*
X008873Y007125D01*
X008817Y007261D01*
X008713Y007365D01*
X008577Y007421D01*
X008430Y007421D01*
X008294Y007365D01*
X008184Y007246D02*
X003153Y007246D01*
X003153Y007148D02*
X008143Y007148D01*
X008133Y007049D02*
X003153Y007049D01*
X003153Y006951D02*
X008145Y006951D01*
X008185Y006852D02*
X003153Y006852D01*
X003153Y006754D02*
X008278Y006754D01*
X008334Y006661D02*
X008093Y006421D01*
X008093Y006281D01*
X008473Y006281D01*
X008473Y006221D01*
X008093Y006221D01*
X008093Y006081D01*
X008334Y005841D01*
X008473Y005841D01*
X008473Y006221D01*
X008533Y006221D01*
X008533Y005841D01*
X008673Y005841D01*
X008913Y006081D01*
X008913Y006221D01*
X008534Y006221D01*
X008534Y006281D01*
X008913Y006281D01*
X008913Y006421D01*
X008673Y006661D01*
X008533Y006661D01*
X008533Y006281D01*
X008473Y006281D01*
X008473Y006661D01*
X008334Y006661D01*
X008328Y006655D02*
X003153Y006655D01*
X003153Y006556D02*
X008229Y006556D01*
X008130Y006458D02*
X003153Y006458D01*
X003153Y006359D02*
X008093Y006359D01*
X008093Y006162D02*
X003153Y006162D01*
X003153Y006064D02*
X006022Y006064D01*
X006031Y006068D02*
X005968Y006036D01*
X005910Y005994D01*
X005860Y005944D01*
X005819Y005887D01*
X005786Y005824D01*
X005765Y005757D01*
X005756Y005701D01*
X006453Y005701D01*
X006453Y005601D01*
X005756Y005601D01*
X005765Y005546D01*
X005786Y005478D01*
X005819Y005415D01*
X005860Y005358D01*
X005910Y005308D01*
X005968Y005266D01*
X006031Y005234D01*
X006098Y005212D01*
X006168Y005201D01*
X006453Y005201D01*
X006453Y005601D01*
X006553Y005601D01*
X006553Y005201D01*
X006839Y005201D01*
X006909Y005212D01*
X006976Y005234D01*
X007039Y005266D01*
X007097Y005308D01*
X007147Y005358D01*
X007188Y005415D01*
X007220Y005478D01*
X007242Y005546D01*
X007251Y005601D01*
X006554Y005601D01*
X006554Y005701D01*
X007251Y005701D01*
X007242Y005757D01*
X007220Y005824D01*
X007188Y005887D01*
X007147Y005944D01*
X007097Y005994D01*
X007039Y006036D01*
X006976Y006068D01*
X006909Y006090D01*
X006839Y006101D01*
X006553Y006101D01*
X006553Y005701D01*
X006453Y005701D01*
X006453Y006101D01*
X006168Y006101D01*
X006098Y006090D01*
X006031Y006068D01*
X005881Y005965D02*
X003153Y005965D01*
X003153Y005867D02*
X005808Y005867D01*
X005768Y005768D02*
X003153Y005768D01*
X003153Y005670D02*
X006453Y005670D01*
X006453Y005768D02*
X006553Y005768D01*
X006554Y005670D02*
X014473Y005670D01*
X014473Y005681D02*
X014473Y005621D01*
X014093Y005621D01*
X014093Y005481D01*
X014334Y005241D01*
X014473Y005241D01*
X014473Y005621D01*
X014533Y005621D01*
X014533Y005241D01*
X014673Y005241D01*
X014913Y005481D01*
X014913Y005621D01*
X014534Y005621D01*
X014534Y005681D01*
X014913Y005681D01*
X014913Y005821D01*
X014673Y006061D01*
X014533Y006061D01*
X014533Y005681D01*
X014473Y005681D01*
X014093Y005681D01*
X014093Y005821D01*
X014334Y006061D01*
X014473Y006061D01*
X014473Y005681D01*
X014534Y005670D02*
X015973Y005670D01*
X015973Y005681D02*
X015973Y005621D01*
X015593Y005621D01*
X015593Y005481D01*
X015834Y005241D01*
X015973Y005241D01*
X015973Y005621D01*
X016033Y005621D01*
X016033Y005241D01*
X016173Y005241D01*
X016413Y005481D01*
X016413Y005621D01*
X016034Y005621D01*
X016034Y005681D01*
X016413Y005681D01*
X016413Y005821D01*
X016173Y006061D01*
X016033Y006061D01*
X016033Y005681D01*
X015973Y005681D01*
X015593Y005681D01*
X015593Y005821D01*
X015834Y006061D01*
X015973Y006061D01*
X015973Y005681D01*
X016034Y005670D02*
X019847Y005670D01*
X019847Y005768D02*
X016413Y005768D01*
X016368Y005867D02*
X019847Y005867D01*
X019847Y005965D02*
X016269Y005965D01*
X016033Y005965D02*
X015973Y005965D01*
X015973Y005867D02*
X016033Y005867D01*
X016033Y005768D02*
X015973Y005768D01*
X015973Y005571D02*
X016033Y005571D01*
X016033Y005473D02*
X015973Y005473D01*
X015973Y005374D02*
X016033Y005374D01*
X016033Y005275D02*
X015973Y005275D01*
X015799Y005275D02*
X014708Y005275D01*
X014806Y005374D02*
X015701Y005374D01*
X015602Y005473D02*
X014905Y005473D01*
X014913Y005571D02*
X015593Y005571D01*
X015593Y005768D02*
X014913Y005768D01*
X014868Y005867D02*
X015639Y005867D01*
X015738Y005965D02*
X014769Y005965D01*
X014533Y005965D02*
X014473Y005965D01*
X014473Y005867D02*
X014533Y005867D01*
X014533Y005768D02*
X014473Y005768D01*
X014473Y005571D02*
X014533Y005571D01*
X014533Y005473D02*
X014473Y005473D01*
X014473Y005374D02*
X014533Y005374D01*
X014533Y005275D02*
X014473Y005275D01*
X014299Y005275D02*
X007052Y005275D01*
X007158Y005374D02*
X014201Y005374D01*
X014102Y005473D02*
X007217Y005473D01*
X007246Y005571D02*
X014093Y005571D01*
X014093Y005768D02*
X007239Y005768D01*
X007199Y005867D02*
X008308Y005867D01*
X008210Y005965D02*
X007126Y005965D01*
X006985Y006064D02*
X008111Y006064D01*
X008473Y006064D02*
X008533Y006064D01*
X008533Y006162D02*
X008473Y006162D01*
X008473Y006261D02*
X003153Y006261D01*
X003153Y005571D02*
X005761Y005571D01*
X005789Y005473D02*
X003153Y005473D01*
X003153Y005374D02*
X005849Y005374D01*
X005955Y005275D02*
X003153Y005275D01*
X003153Y005177D02*
X019847Y005177D01*
X019847Y005275D02*
X016208Y005275D01*
X016306Y005374D02*
X019847Y005374D01*
X019847Y005473D02*
X016405Y005473D01*
X016413Y005571D02*
X019847Y005571D01*
X019847Y006064D02*
X011396Y006064D01*
X011413Y006081D02*
X011413Y006221D01*
X011034Y006221D01*
X011034Y006281D01*
X011413Y006281D01*
X011413Y006421D01*
X011173Y006661D01*
X011033Y006661D01*
X011033Y006281D01*
X010973Y006281D01*
X010973Y006221D01*
X010593Y006221D01*
X010593Y006081D01*
X010834Y005841D01*
X010973Y005841D01*
X010973Y006221D01*
X011033Y006221D01*
X011033Y005841D01*
X011173Y005841D01*
X011413Y006081D01*
X011413Y006162D02*
X019847Y006162D01*
X019847Y006261D02*
X011034Y006261D01*
X010973Y006261D02*
X008534Y006261D01*
X008533Y006359D02*
X008473Y006359D01*
X008473Y006458D02*
X008533Y006458D01*
X008533Y006556D02*
X008473Y006556D01*
X008473Y006655D02*
X008533Y006655D01*
X008679Y006655D02*
X010828Y006655D01*
X010834Y006661D02*
X010593Y006421D01*
X010593Y006281D01*
X010973Y006281D01*
X010973Y006661D01*
X010834Y006661D01*
X010794Y006738D02*
X010930Y006681D01*
X011077Y006681D01*
X011213Y006738D01*
X011317Y006842D01*
X011373Y006978D01*
X011373Y007125D01*
X011317Y007261D01*
X011213Y007365D01*
X011077Y007421D01*
X010930Y007421D01*
X010794Y007365D01*
X010690Y007261D01*
X010633Y007125D01*
X010633Y006978D01*
X010690Y006842D01*
X010794Y006738D01*
X010778Y006754D02*
X008729Y006754D01*
X008821Y006852D02*
X010685Y006852D01*
X010645Y006951D02*
X008862Y006951D01*
X008873Y007049D02*
X010633Y007049D01*
X010643Y007148D02*
X008864Y007148D01*
X008823Y007246D02*
X010684Y007246D01*
X010774Y007345D02*
X008733Y007345D01*
X008778Y006556D02*
X010729Y006556D01*
X010630Y006458D02*
X008876Y006458D01*
X008913Y006359D02*
X010593Y006359D01*
X010593Y006162D02*
X008913Y006162D01*
X008896Y006064D02*
X010611Y006064D01*
X010710Y005965D02*
X008797Y005965D01*
X008699Y005867D02*
X010808Y005867D01*
X010973Y005867D02*
X011033Y005867D01*
X011033Y005965D02*
X010973Y005965D01*
X010973Y006064D02*
X011033Y006064D01*
X011033Y006162D02*
X010973Y006162D01*
X010973Y006359D02*
X011033Y006359D01*
X011033Y006458D02*
X010973Y006458D01*
X010973Y006556D02*
X011033Y006556D01*
X011033Y006655D02*
X010973Y006655D01*
X011179Y006655D02*
X019848Y006655D01*
X019847Y006556D02*
X011278Y006556D01*
X011376Y006458D02*
X019847Y006458D01*
X019847Y006359D02*
X011413Y006359D01*
X011297Y005965D02*
X014238Y005965D01*
X014139Y005867D02*
X011199Y005867D01*
X011229Y006754D02*
X019848Y006754D01*
X019848Y006852D02*
X011321Y006852D01*
X011362Y006951D02*
X019848Y006951D01*
X019848Y007049D02*
X011373Y007049D01*
X011364Y007148D02*
X019848Y007148D01*
X019848Y007246D02*
X011323Y007246D01*
X011233Y007345D02*
X014287Y007345D01*
X014720Y007345D02*
X015787Y007345D01*
X015850Y007281D02*
X016157Y007281D01*
X016373Y007498D01*
X016373Y007804D01*
X016157Y008021D01*
X015850Y008021D01*
X015633Y007804D01*
X015633Y007498D01*
X015850Y007281D01*
X015688Y007443D02*
X014819Y007443D01*
X014873Y007542D02*
X015633Y007542D01*
X015633Y007640D02*
X014873Y007640D01*
X014873Y007739D02*
X015633Y007739D01*
X015667Y007838D02*
X014840Y007838D01*
X014742Y007936D02*
X015765Y007936D01*
X016242Y007936D02*
X019848Y007936D01*
X019848Y007838D02*
X016340Y007838D01*
X016373Y007739D02*
X019848Y007739D01*
X019848Y007640D02*
X016373Y007640D01*
X016373Y007542D02*
X019848Y007542D01*
X019848Y007443D02*
X016319Y007443D01*
X016220Y007345D02*
X019848Y007345D01*
X019847Y005078D02*
X006945Y005078D01*
X006976Y005068D02*
X006909Y005090D01*
X006839Y005101D01*
X006553Y005101D01*
X006553Y004701D01*
X006453Y004701D01*
X006453Y004601D01*
X005756Y004601D01*
X005765Y004546D01*
X005786Y004478D01*
X005819Y004415D01*
X005860Y004358D01*
X005910Y004308D01*
X005968Y004266D01*
X006031Y004234D01*
X006098Y004212D01*
X006168Y004201D01*
X006453Y004201D01*
X006453Y004601D01*
X006553Y004601D01*
X006553Y004201D01*
X006839Y004201D01*
X006909Y004212D01*
X006976Y004234D01*
X007039Y004266D01*
X007097Y004308D01*
X007147Y004358D01*
X007188Y004415D01*
X007220Y004478D01*
X007242Y004546D01*
X007251Y004601D01*
X006554Y004601D01*
X006554Y004701D01*
X007251Y004701D01*
X007242Y004757D01*
X007220Y004824D01*
X007188Y004887D01*
X007147Y004944D01*
X007097Y004994D01*
X007039Y005036D01*
X006976Y005068D01*
X007111Y004980D02*
X019847Y004980D01*
X019847Y004881D02*
X007191Y004881D01*
X007234Y004783D02*
X009677Y004783D01*
X009549Y004721D02*
X009841Y004862D01*
X009841Y004862D01*
X010166Y004862D01*
X010166Y004862D01*
X010458Y004721D01*
X010458Y004721D01*
X010660Y004467D01*
X010660Y004467D01*
X010732Y004151D01*
X010660Y003835D01*
X010660Y003835D01*
X010458Y003581D01*
X010458Y003581D01*
X010458Y003581D01*
X010166Y003440D01*
X010166Y003440D01*
X009841Y003440D01*
X009841Y003440D01*
X009549Y003581D01*
X009549Y003581D01*
X009347Y003835D01*
X009347Y003835D01*
X009274Y004151D01*
X009274Y004151D01*
X009347Y004467D01*
X009347Y004467D01*
X009549Y004721D01*
X009549Y004721D01*
X009549Y004721D01*
X009519Y004684D02*
X006554Y004684D01*
X006553Y004586D02*
X006453Y004586D01*
X006453Y004684D02*
X004550Y004684D01*
X004452Y004783D02*
X005773Y004783D01*
X005765Y004757D02*
X005786Y004824D01*
X005819Y004887D01*
X005860Y004944D01*
X005910Y004994D01*
X005968Y005036D01*
X006031Y005068D01*
X006098Y005090D01*
X006168Y005101D01*
X006453Y005101D01*
X006453Y004701D01*
X005756Y004701D01*
X005765Y004757D01*
X005816Y004881D02*
X003153Y004881D01*
X003153Y004783D02*
X004055Y004783D01*
X004084Y004811D02*
X003843Y004571D01*
X003843Y004231D01*
X004084Y003991D01*
X004423Y003991D01*
X004663Y004231D01*
X004663Y004571D01*
X004423Y004811D01*
X004084Y004811D01*
X003957Y004684D02*
X003153Y004684D01*
X003153Y004586D02*
X003858Y004586D01*
X003843Y004487D02*
X003153Y004487D01*
X003153Y004389D02*
X003843Y004389D01*
X003843Y004290D02*
X003153Y004290D01*
X003153Y004191D02*
X003883Y004191D01*
X003982Y004093D02*
X003153Y004093D01*
X003153Y003994D02*
X004080Y003994D01*
X004426Y003994D02*
X009310Y003994D01*
X009333Y003896D02*
X003153Y003896D01*
X003153Y003797D02*
X009377Y003797D01*
X009455Y003699D02*
X003153Y003699D01*
X003153Y003600D02*
X004162Y003600D01*
X004168Y003601D02*
X004098Y003590D01*
X004031Y003568D01*
X003968Y003536D01*
X003910Y003494D01*
X003860Y003444D01*
X003819Y003387D01*
X003786Y003324D01*
X003765Y003257D01*
X003756Y003201D01*
X004453Y003201D01*
X004453Y003101D01*
X003756Y003101D01*
X003765Y003046D01*
X003786Y002978D01*
X003819Y002915D01*
X003860Y002858D01*
X003910Y002808D01*
X003968Y002766D01*
X004031Y002734D01*
X004098Y002712D01*
X004168Y002701D01*
X004453Y002701D01*
X004453Y003101D01*
X004553Y003101D01*
X004553Y002701D01*
X004839Y002701D01*
X004909Y002712D01*
X004976Y002734D01*
X005039Y002766D01*
X005097Y002808D01*
X005147Y002858D01*
X005188Y002915D01*
X005220Y002978D01*
X005242Y003046D01*
X005251Y003101D01*
X004554Y003101D01*
X004554Y003201D01*
X005251Y003201D01*
X005242Y003257D01*
X005220Y003324D01*
X005188Y003387D01*
X005147Y003444D01*
X005097Y003494D01*
X005039Y003536D01*
X004976Y003568D01*
X004909Y003590D01*
X004839Y003601D01*
X004553Y003601D01*
X004553Y003201D01*
X004453Y003201D01*
X004453Y003601D01*
X004168Y003601D01*
X003920Y003502D02*
X003153Y003502D01*
X003153Y003403D02*
X003830Y003403D01*
X003780Y003305D02*
X003153Y003305D01*
X003153Y003206D02*
X003757Y003206D01*
X003776Y003009D02*
X003153Y003009D01*
X003153Y003107D02*
X004453Y003107D01*
X004453Y003009D02*
X004553Y003009D01*
X004554Y003107D02*
X019846Y003107D01*
X019846Y003009D02*
X005230Y003009D01*
X005185Y002910D02*
X019846Y002910D01*
X019846Y002812D02*
X010270Y002812D01*
X010166Y002862D02*
X010166Y002862D01*
X010458Y002721D01*
X010458Y002721D01*
X010660Y002467D01*
X010660Y002467D01*
X010732Y002151D01*
X010660Y001835D01*
X010660Y001835D01*
X010458Y001581D01*
X010458Y001581D01*
X010458Y001581D01*
X010166Y001440D01*
X010166Y001440D01*
X009841Y001440D01*
X009841Y001440D01*
X009549Y001581D01*
X009549Y001581D01*
X009347Y001835D01*
X009347Y001835D01*
X009274Y002151D01*
X009274Y002151D01*
X009347Y002467D01*
X009347Y002467D01*
X009549Y002721D01*
X009549Y002721D01*
X009549Y002721D01*
X009841Y002862D01*
X009841Y002862D01*
X010166Y002862D01*
X010464Y002713D02*
X019846Y002713D01*
X019846Y002615D02*
X010543Y002615D01*
X010621Y002516D02*
X012789Y002516D01*
X012834Y002561D02*
X012593Y002321D01*
X012593Y002181D01*
X012973Y002181D01*
X012973Y002121D01*
X012593Y002121D01*
X012593Y001981D01*
X012834Y001741D01*
X012973Y001741D01*
X012973Y002121D01*
X013033Y002121D01*
X013033Y001741D01*
X013173Y001741D01*
X013413Y001981D01*
X013413Y002121D01*
X013034Y002121D01*
X013034Y002181D01*
X013413Y002181D01*
X013413Y002321D01*
X013173Y002561D01*
X013033Y002561D01*
X013033Y002181D01*
X012973Y002181D01*
X012973Y002561D01*
X012834Y002561D01*
X012973Y002516D02*
X013033Y002516D01*
X013033Y002418D02*
X012973Y002418D01*
X012973Y002319D02*
X013033Y002319D01*
X013033Y002221D02*
X012973Y002221D01*
X012973Y002122D02*
X010726Y002122D01*
X010717Y002221D02*
X012593Y002221D01*
X012593Y002319D02*
X010694Y002319D01*
X010672Y002418D02*
X012690Y002418D01*
X012593Y002024D02*
X010703Y002024D01*
X010681Y001925D02*
X012650Y001925D01*
X012748Y001826D02*
X010654Y001826D01*
X010575Y001728D02*
X019846Y001728D01*
X019846Y001826D02*
X018759Y001826D01*
X018673Y001741D02*
X018913Y001981D01*
X018913Y002121D01*
X018534Y002121D01*
X018534Y002181D01*
X018913Y002181D01*
X018913Y002321D01*
X018673Y002561D01*
X018533Y002561D01*
X018533Y002181D01*
X018473Y002181D01*
X018473Y002121D01*
X018093Y002121D01*
X018093Y001981D01*
X018334Y001741D01*
X018473Y001741D01*
X018473Y002121D01*
X018533Y002121D01*
X018533Y001741D01*
X018673Y001741D01*
X018533Y001826D02*
X018473Y001826D01*
X018473Y001925D02*
X018533Y001925D01*
X018533Y002024D02*
X018473Y002024D01*
X018473Y002122D02*
X016034Y002122D01*
X016034Y002121D02*
X016034Y002181D01*
X016413Y002181D01*
X016413Y002321D01*
X016173Y002561D01*
X016033Y002561D01*
X016033Y002181D01*
X015973Y002181D01*
X015973Y002121D01*
X015593Y002121D01*
X015593Y001981D01*
X015834Y001741D01*
X015973Y001741D01*
X015973Y002121D01*
X016033Y002121D01*
X016033Y001741D01*
X016173Y001741D01*
X016413Y001981D01*
X016413Y002121D01*
X016034Y002121D01*
X015973Y002122D02*
X014534Y002122D01*
X014534Y002121D02*
X014534Y002181D01*
X014913Y002181D01*
X014913Y002321D01*
X014673Y002561D01*
X014533Y002561D01*
X014533Y002181D01*
X014473Y002181D01*
X014473Y002121D01*
X014093Y002121D01*
X014093Y001981D01*
X014334Y001741D01*
X014473Y001741D01*
X014473Y002121D01*
X014533Y002121D01*
X014533Y001741D01*
X014673Y001741D01*
X014913Y001981D01*
X014913Y002121D01*
X014534Y002121D01*
X014473Y002122D02*
X013034Y002122D01*
X013033Y002024D02*
X012973Y002024D01*
X012973Y001925D02*
X013033Y001925D01*
X013033Y001826D02*
X012973Y001826D01*
X013259Y001826D02*
X014248Y001826D01*
X014150Y001925D02*
X013357Y001925D01*
X013413Y002024D02*
X014093Y002024D01*
X014093Y002181D02*
X014473Y002181D01*
X014473Y002561D01*
X014334Y002561D01*
X014093Y002321D01*
X014093Y002181D01*
X014093Y002221D02*
X013413Y002221D01*
X013413Y002319D02*
X014093Y002319D01*
X014190Y002418D02*
X013317Y002418D01*
X013218Y002516D02*
X014289Y002516D01*
X014473Y002516D02*
X014533Y002516D01*
X014533Y002418D02*
X014473Y002418D01*
X014473Y002319D02*
X014533Y002319D01*
X014533Y002221D02*
X014473Y002221D01*
X014473Y002024D02*
X014533Y002024D01*
X014533Y001925D02*
X014473Y001925D01*
X014473Y001826D02*
X014533Y001826D01*
X014759Y001826D02*
X015748Y001826D01*
X015650Y001925D02*
X014857Y001925D01*
X014913Y002024D02*
X015593Y002024D01*
X015593Y002181D02*
X015973Y002181D01*
X015973Y002561D01*
X015834Y002561D01*
X015593Y002321D01*
X015593Y002181D01*
X015593Y002221D02*
X014913Y002221D01*
X014913Y002319D02*
X015593Y002319D01*
X015690Y002418D02*
X014817Y002418D01*
X014718Y002516D02*
X015789Y002516D01*
X015973Y002516D02*
X016033Y002516D01*
X016033Y002418D02*
X015973Y002418D01*
X015973Y002319D02*
X016033Y002319D01*
X016033Y002221D02*
X015973Y002221D01*
X015973Y002024D02*
X016033Y002024D01*
X016033Y001925D02*
X015973Y001925D01*
X015973Y001826D02*
X016033Y001826D01*
X016259Y001826D02*
X018248Y001826D01*
X018150Y001925D02*
X016357Y001925D01*
X016413Y002024D02*
X018093Y002024D01*
X018093Y002181D02*
X018473Y002181D01*
X018473Y002561D01*
X018334Y002561D01*
X018093Y002321D01*
X018093Y002181D01*
X018093Y002221D02*
X016413Y002221D01*
X016413Y002319D02*
X018093Y002319D01*
X018190Y002418D02*
X016317Y002418D01*
X016218Y002516D02*
X018289Y002516D01*
X018473Y002516D02*
X018533Y002516D01*
X018533Y002418D02*
X018473Y002418D01*
X018473Y002319D02*
X018533Y002319D01*
X018533Y002221D02*
X018473Y002221D01*
X018534Y002122D02*
X019846Y002122D01*
X019846Y002024D02*
X018913Y002024D01*
X018857Y001925D02*
X019846Y001925D01*
X019846Y002221D02*
X018913Y002221D01*
X018913Y002319D02*
X019846Y002319D01*
X019846Y002418D02*
X018817Y002418D01*
X018718Y002516D02*
X019846Y002516D01*
X019847Y003206D02*
X005250Y003206D01*
X005227Y003305D02*
X019847Y003305D01*
X019847Y003403D02*
X005177Y003403D01*
X005087Y003502D02*
X009714Y003502D01*
X009534Y003600D02*
X004845Y003600D01*
X004553Y003600D02*
X004453Y003600D01*
X004453Y003502D02*
X004553Y003502D01*
X004553Y003403D02*
X004453Y003403D01*
X004453Y003305D02*
X004553Y003305D01*
X004553Y003206D02*
X004453Y003206D01*
X004453Y002910D02*
X004553Y002910D01*
X004553Y002812D02*
X004453Y002812D01*
X004453Y002713D02*
X004553Y002713D01*
X004912Y002713D02*
X009543Y002713D01*
X009464Y002615D02*
X003153Y002615D01*
X003153Y002713D02*
X004095Y002713D01*
X004122Y002561D02*
X003971Y002499D01*
X003856Y002383D01*
X003793Y002233D01*
X003793Y002070D01*
X003856Y001919D01*
X003971Y001804D01*
X004122Y001741D01*
X004885Y001741D01*
X005036Y001804D01*
X005151Y001919D01*
X005213Y002070D01*
X005213Y002233D01*
X005151Y002383D01*
X005036Y002499D01*
X004885Y002561D01*
X004122Y002561D01*
X004013Y002516D02*
X003153Y002516D01*
X003153Y002418D02*
X003890Y002418D01*
X003829Y002319D02*
X003153Y002319D01*
X003153Y002221D02*
X003793Y002221D01*
X003793Y002122D02*
X003153Y002122D01*
X003153Y002024D02*
X003813Y002024D01*
X003853Y001925D02*
X003153Y001925D01*
X003153Y001826D02*
X003948Y001826D01*
X003153Y001728D02*
X009432Y001728D01*
X009353Y001826D02*
X005059Y001826D01*
X005154Y001925D02*
X009326Y001925D01*
X009304Y002024D02*
X005194Y002024D01*
X005213Y002122D02*
X009281Y002122D01*
X009290Y002221D02*
X005213Y002221D01*
X005178Y002319D02*
X009313Y002319D01*
X009335Y002418D02*
X005117Y002418D01*
X004993Y002516D02*
X009386Y002516D01*
X009737Y002812D02*
X005101Y002812D01*
X004525Y004093D02*
X009288Y004093D01*
X009284Y004191D02*
X004624Y004191D01*
X004663Y004290D02*
X005935Y004290D01*
X005838Y004389D02*
X004663Y004389D01*
X004663Y004487D02*
X005784Y004487D01*
X005758Y004586D02*
X004649Y004586D01*
X005896Y004980D02*
X003153Y004980D01*
X003153Y005078D02*
X006062Y005078D01*
X006453Y005078D02*
X006553Y005078D01*
X006553Y004980D02*
X006453Y004980D01*
X006453Y004881D02*
X006553Y004881D01*
X006553Y004783D02*
X006453Y004783D01*
X006453Y004487D02*
X006553Y004487D01*
X006553Y004389D02*
X006453Y004389D01*
X006453Y004290D02*
X006553Y004290D01*
X007072Y004290D02*
X009306Y004290D01*
X009329Y004389D02*
X007169Y004389D01*
X007223Y004487D02*
X009362Y004487D01*
X009441Y004586D02*
X007249Y004586D01*
X006553Y005275D02*
X006453Y005275D01*
X006453Y005374D02*
X006553Y005374D01*
X006553Y005473D02*
X006453Y005473D01*
X006453Y005571D02*
X006553Y005571D01*
X006553Y005867D02*
X006453Y005867D01*
X006453Y005965D02*
X006553Y005965D01*
X006553Y006064D02*
X006453Y006064D01*
X008473Y005965D02*
X008533Y005965D01*
X008533Y005867D02*
X008473Y005867D01*
X010330Y004783D02*
X019847Y004783D01*
X019847Y004684D02*
X010487Y004684D01*
X010566Y004586D02*
X019847Y004586D01*
X019847Y004487D02*
X018691Y004487D01*
X018657Y004521D02*
X018350Y004521D01*
X018133Y004304D01*
X018133Y003998D01*
X018350Y003781D01*
X018657Y003781D01*
X018873Y003998D01*
X018873Y004304D01*
X018657Y004521D01*
X018789Y004389D02*
X019847Y004389D01*
X019847Y004290D02*
X018873Y004290D01*
X018873Y004191D02*
X019847Y004191D01*
X019847Y004093D02*
X018873Y004093D01*
X018870Y003994D02*
X019847Y003994D01*
X019847Y003896D02*
X018771Y003896D01*
X018673Y003797D02*
X019847Y003797D01*
X019847Y003699D02*
X010552Y003699D01*
X010630Y003797D02*
X012834Y003797D01*
X012850Y003781D02*
X013157Y003781D01*
X013373Y003998D01*
X013373Y004304D01*
X013157Y004521D01*
X012850Y004521D01*
X012633Y004304D01*
X012633Y003998D01*
X012850Y003781D01*
X012736Y003896D02*
X010674Y003896D01*
X010697Y003994D02*
X012637Y003994D01*
X012633Y004093D02*
X010719Y004093D01*
X010723Y004191D02*
X012633Y004191D01*
X012633Y004290D02*
X010701Y004290D01*
X010678Y004389D02*
X012718Y004389D01*
X012816Y004487D02*
X010645Y004487D01*
X010473Y003600D02*
X019847Y003600D01*
X019847Y003502D02*
X010293Y003502D01*
X010496Y001629D02*
X019846Y001629D01*
X019846Y001531D02*
X010353Y001531D01*
X009654Y001531D02*
X003153Y001531D01*
X003153Y001629D02*
X009511Y001629D01*
X013173Y003797D02*
X014334Y003797D01*
X014350Y003781D02*
X014657Y003781D01*
X014873Y003998D01*
X014873Y004304D01*
X014657Y004521D01*
X014350Y004521D01*
X014133Y004304D01*
X014133Y003998D01*
X014350Y003781D01*
X014236Y003896D02*
X013271Y003896D01*
X013370Y003994D02*
X014137Y003994D01*
X014133Y004093D02*
X013373Y004093D01*
X013373Y004191D02*
X014133Y004191D01*
X014133Y004290D02*
X013373Y004290D01*
X013289Y004389D02*
X014218Y004389D01*
X014316Y004487D02*
X013191Y004487D01*
X014691Y004487D02*
X015816Y004487D01*
X015850Y004521D02*
X015633Y004304D01*
X015633Y003998D01*
X015850Y003781D01*
X016157Y003781D01*
X016373Y003998D01*
X016373Y004304D01*
X016157Y004521D01*
X015850Y004521D01*
X015718Y004389D02*
X014789Y004389D01*
X014873Y004290D02*
X015633Y004290D01*
X015633Y004191D02*
X014873Y004191D01*
X014873Y004093D02*
X015633Y004093D01*
X015637Y003994D02*
X014870Y003994D01*
X014771Y003896D02*
X015736Y003896D01*
X015834Y003797D02*
X014673Y003797D01*
X016173Y003797D02*
X018334Y003797D01*
X018236Y003896D02*
X016271Y003896D01*
X016370Y003994D02*
X018137Y003994D01*
X018133Y004093D02*
X016373Y004093D01*
X016373Y004191D02*
X018133Y004191D01*
X018133Y004290D02*
X016373Y004290D01*
X016289Y004389D02*
X018218Y004389D01*
X018316Y004487D02*
X016191Y004487D01*
X012816Y009316D02*
X011691Y009316D01*
X011657Y009281D02*
X011873Y009498D01*
X011873Y009804D01*
X011657Y010021D01*
X011350Y010021D01*
X011133Y009804D01*
X011133Y009498D01*
X011350Y009281D01*
X011657Y009281D01*
X011790Y009414D02*
X012717Y009414D01*
X012633Y009513D02*
X011873Y009513D01*
X011873Y009611D02*
X012633Y009611D01*
X012633Y009710D02*
X011873Y009710D01*
X011869Y009808D02*
X012637Y009808D01*
X012736Y009907D02*
X011771Y009907D01*
X011672Y010006D02*
X012835Y010006D01*
X012838Y010794D02*
X008226Y010794D01*
X008324Y010892D02*
X012739Y010892D01*
X012640Y010991D02*
X008413Y010991D01*
X008413Y011089D02*
X012633Y011089D01*
X012633Y011188D02*
X008413Y011188D01*
X008413Y011287D02*
X008595Y011287D01*
X008496Y011385D02*
X008349Y011385D01*
X008398Y011484D02*
X008251Y011484D01*
X007682Y010892D02*
X003153Y010892D01*
X003153Y010794D02*
X004066Y010794D01*
X003968Y010695D02*
X003153Y010695D01*
X003153Y010597D02*
X003869Y010597D01*
X003843Y010498D02*
X003153Y010498D01*
X003153Y010400D02*
X003843Y010400D01*
X003843Y010301D02*
X003153Y010301D01*
X003153Y010203D02*
X003872Y010203D01*
X003971Y010104D02*
X003153Y010104D01*
X003153Y010006D02*
X004069Y010006D01*
X004438Y010006D02*
X006102Y010006D01*
X006004Y010104D02*
X004536Y010104D01*
X004553Y011287D02*
X004453Y011287D01*
X004453Y011385D02*
X004553Y011385D01*
X004553Y011484D02*
X004453Y011484D01*
X004453Y011582D02*
X004553Y011582D01*
X004553Y011878D02*
X004453Y011878D01*
X004453Y011976D02*
X004553Y011976D01*
X004553Y012075D02*
X004453Y012075D01*
X004047Y012272D02*
X003153Y012272D01*
X003153Y012371D02*
X003904Y012371D01*
X003835Y012469D02*
X003153Y012469D01*
X003153Y012568D02*
X003794Y012568D01*
X003793Y012666D02*
X003153Y012666D01*
X003153Y012765D02*
X003807Y012765D01*
X003848Y012863D02*
X003153Y012863D01*
X003153Y012962D02*
X003934Y012962D01*
X004120Y013060D02*
X003153Y013060D01*
X003153Y013159D02*
X006214Y013159D01*
X006293Y013257D02*
X004924Y013257D01*
X005088Y013356D02*
X006293Y013356D01*
X006293Y013455D02*
X005166Y013455D01*
X005207Y013553D02*
X006293Y013553D01*
X006293Y013652D02*
X005301Y013652D01*
X005399Y013750D02*
X006293Y013750D01*
X006283Y013849D02*
X005498Y013849D01*
X005596Y013947D02*
X006184Y013947D01*
X006133Y014046D02*
X005695Y014046D01*
X005713Y014144D02*
X006133Y014144D01*
X006133Y014243D02*
X005713Y014243D01*
X005713Y014341D02*
X006170Y014341D01*
X006269Y014440D02*
X005713Y014440D01*
X005293Y014440D02*
X003153Y014440D01*
X003153Y014539D02*
X005293Y014539D01*
X005293Y014637D02*
X003153Y014637D01*
X003153Y014736D02*
X005293Y014736D01*
X005293Y014834D02*
X004516Y014834D01*
X004423Y014741D02*
X004663Y014981D01*
X004663Y015321D01*
X004423Y015561D01*
X004084Y015561D01*
X003843Y015321D01*
X003843Y014981D01*
X004084Y014741D01*
X004423Y014741D01*
X004615Y014933D02*
X005293Y014933D01*
X005337Y015031D02*
X004663Y015031D01*
X004663Y015130D02*
X005435Y015130D01*
X005534Y015228D02*
X004663Y015228D01*
X004658Y015327D02*
X005632Y015327D01*
X005731Y015425D02*
X004559Y015425D01*
X004460Y015524D02*
X005829Y015524D01*
X005928Y015622D02*
X003153Y015622D01*
X003153Y015524D02*
X004046Y015524D01*
X003948Y015425D02*
X003153Y015425D01*
X003153Y015327D02*
X003849Y015327D01*
X003843Y015228D02*
X003153Y015228D01*
X003153Y015130D02*
X003843Y015130D01*
X003843Y015031D02*
X003153Y015031D01*
X003153Y014933D02*
X003892Y014933D01*
X003991Y014834D02*
X003153Y014834D01*
X003153Y014341D02*
X005293Y014341D01*
X005293Y014243D02*
X003153Y014243D01*
X003153Y014144D02*
X005200Y014144D01*
X005101Y014046D02*
X004922Y014046D01*
X004085Y014046D02*
X003153Y014046D01*
X003153Y013947D02*
X003920Y013947D01*
X003842Y013849D02*
X003153Y013849D01*
X003153Y013750D02*
X003801Y013750D01*
X003793Y013652D02*
X003153Y013652D01*
X003153Y013553D02*
X003800Y013553D01*
X003841Y013455D02*
X003153Y013455D01*
X003153Y013356D02*
X003919Y013356D01*
X004083Y013257D02*
X003153Y013257D01*
X003153Y011582D02*
X003759Y011582D01*
X003785Y011484D02*
X003153Y011484D01*
X003153Y011385D02*
X003841Y011385D01*
X003940Y011287D02*
X003153Y011287D01*
X003153Y011188D02*
X007593Y011188D01*
X007593Y011089D02*
X003153Y011089D01*
X003153Y010991D02*
X007593Y010991D01*
X007593Y011287D02*
X005067Y011287D01*
X005166Y011385D02*
X007658Y011385D01*
X007633Y012272D02*
X004959Y012272D01*
X005103Y012371D02*
X007700Y012371D01*
X007798Y012469D02*
X006118Y012469D01*
X005919Y012863D02*
X005159Y012863D01*
X005073Y012962D02*
X006017Y012962D01*
X006116Y013060D02*
X004887Y013060D01*
X006713Y013356D02*
X009775Y013356D01*
X009677Y013455D02*
X006713Y013455D01*
X006713Y013553D02*
X009633Y013553D01*
X008951Y011976D02*
X014793Y011976D01*
X014793Y011878D02*
X009050Y011878D01*
X009123Y011779D02*
X014793Y011779D01*
X014793Y011681D02*
X009123Y011681D01*
X009123Y011582D02*
X014793Y011582D01*
X014874Y011484D02*
X013194Y011484D01*
X013293Y011385D02*
X014973Y011385D01*
X015071Y011287D02*
X013373Y011287D01*
X013373Y011188D02*
X015170Y011188D01*
X015268Y011089D02*
X013373Y011089D01*
X013366Y010991D02*
X015367Y010991D01*
X017713Y010006D02*
X017988Y010006D01*
X012813Y011484D02*
X009109Y011484D01*
X009011Y011385D02*
X012714Y011385D01*
X012633Y011287D02*
X008912Y011287D01*
X010172Y010006D02*
X011335Y010006D01*
X011236Y009907D02*
X010271Y009907D01*
X010369Y009808D02*
X011137Y009808D01*
X011133Y009710D02*
X010373Y009710D01*
X010373Y009611D02*
X011133Y009611D01*
X011133Y009513D02*
X010373Y009513D01*
X010308Y009414D02*
X010290Y009414D01*
X010699Y009414D02*
X011217Y009414D01*
X011316Y009316D02*
X010937Y009316D01*
X008093Y014243D02*
X006873Y014243D01*
X006836Y014341D02*
X008114Y014341D01*
X008212Y014440D02*
X006738Y014440D01*
X006026Y015721D02*
X003153Y015721D01*
X003153Y015820D02*
X006125Y015820D01*
X006215Y015918D02*
X003153Y015918D01*
X003153Y016017D02*
X006215Y016017D01*
X006215Y016115D02*
X003153Y016115D01*
X003153Y016214D02*
X008176Y016214D01*
X008136Y016312D02*
X003153Y016312D01*
X003153Y016411D02*
X008133Y016411D01*
X008133Y016509D02*
X003153Y016509D01*
X003153Y016608D02*
X008133Y016608D01*
X008133Y016706D02*
X003153Y016706D01*
X006737Y016805D02*
X008133Y016805D01*
X008133Y016904D02*
X006836Y016904D01*
X006913Y017002D02*
X008141Y017002D01*
X008181Y017101D02*
X006913Y017101D01*
X006913Y017199D02*
X008268Y017199D01*
X008353Y017298D02*
X006913Y017298D01*
X006838Y017396D02*
X008452Y017396D01*
X008256Y016115D02*
X006792Y016115D01*
X008679Y020747D02*
X010302Y020747D01*
X010401Y020845D02*
X008777Y020845D01*
X008876Y020944D02*
X010499Y020944D01*
X009793Y021338D02*
X008896Y021338D01*
X008798Y021437D02*
X009695Y021437D01*
X009633Y021535D02*
X008699Y021535D01*
X008573Y023309D02*
X008413Y023309D01*
X008474Y023407D02*
X008327Y023407D01*
X010739Y017199D02*
X011212Y017199D01*
X011140Y017101D02*
X010825Y017101D01*
X010866Y017002D02*
X011103Y017002D01*
X011093Y016904D02*
X010873Y016904D01*
X010873Y016805D02*
X011093Y016805D01*
X011093Y016706D02*
X010873Y016706D01*
X010873Y016608D02*
X011093Y016608D01*
X011093Y016509D02*
X010873Y016509D01*
X010873Y016411D02*
X011093Y016411D01*
X011101Y016312D02*
X010889Y016312D01*
X010988Y016214D02*
X011134Y016214D01*
X011086Y016115D02*
X011200Y016115D01*
X006201Y009907D02*
X003153Y009907D01*
X003153Y002910D02*
X003822Y002910D01*
X003906Y002812D02*
X003153Y002812D01*
X003153Y001432D02*
X019846Y001432D01*
X019846Y001334D02*
X003153Y001334D01*
X003153Y001235D02*
X019846Y001235D01*
X019846Y001137D02*
X003153Y001137D01*
X003153Y001038D02*
X019846Y001038D01*
X019846Y000940D02*
X003153Y000940D01*
X003153Y000841D02*
X019846Y000841D01*
X019846Y000742D02*
X003153Y000742D01*
X003153Y000644D02*
X019846Y000644D01*
X019846Y000545D02*
X003153Y000545D01*
X003153Y000447D02*
X019846Y000447D01*
X019846Y000348D02*
X003153Y000348D01*
D19*
X004503Y003151D02*
X006503Y003151D01*
X006503Y004651D01*
X006503Y005651D01*
X006503Y006151D01*
X006603Y006251D01*
X008503Y006251D01*
X009253Y006251D01*
X009253Y007901D01*
X008503Y008651D01*
X008503Y009151D01*
X008003Y009151D01*
X008003Y010651D01*
X008003Y011151D01*
X008003Y010651D02*
X007253Y010651D01*
X007253Y011651D01*
X004503Y011651D01*
X004503Y012651D02*
X006003Y012651D01*
X006503Y013151D01*
X006503Y014151D01*
X007253Y013151D02*
X007253Y011651D01*
X007253Y013151D02*
X008503Y013151D01*
X008503Y014151D01*
X008003Y014151D01*
X008003Y017151D01*
X006503Y017151D01*
X006503Y015901D02*
X005503Y014901D01*
X005503Y014151D01*
X005003Y013651D01*
X004503Y013651D01*
X004253Y010401D02*
X006003Y010401D01*
X006503Y009901D01*
X006503Y009151D01*
X009253Y006251D02*
X011003Y006251D01*
X011003Y005151D01*
X014503Y005151D01*
X015003Y005151D01*
X015003Y002151D01*
X016003Y002151D01*
X018503Y002151D01*
X016003Y005151D02*
X015003Y005151D01*
X014503Y005151D02*
X014503Y005651D01*
X016003Y005651D02*
X016003Y005151D01*
X016003Y005651D02*
X019003Y005651D01*
X019503Y006151D01*
X019503Y011651D01*
X019503Y014651D01*
X018003Y014651D01*
X018253Y015651D02*
X017253Y015651D01*
X017003Y015401D01*
X017003Y014651D01*
X016003Y014651D02*
X016003Y015901D01*
X015753Y016151D01*
X012753Y016151D01*
X012503Y015901D01*
X011003Y015901D01*
X010503Y016401D01*
X010503Y016651D01*
X009503Y016401D02*
X010503Y015401D01*
X012753Y015401D01*
X013003Y015651D01*
X014753Y015651D01*
X015003Y015401D01*
X015003Y014651D01*
X015003Y011651D01*
X015503Y011151D01*
X017003Y011151D01*
X017503Y010651D01*
X017503Y009151D01*
X018003Y008651D01*
X018503Y008651D01*
X018503Y011651D02*
X019503Y011651D01*
X018253Y015651D02*
X018503Y015901D01*
X018503Y018151D01*
X019003Y018151D01*
X019253Y018401D01*
X019253Y024151D01*
X018253Y025151D01*
X017503Y025151D01*
X017253Y021901D02*
X014503Y021901D01*
X014003Y021401D01*
X014003Y020901D01*
X010753Y020901D01*
X010503Y020651D01*
X010503Y019651D01*
X009753Y018651D02*
X009503Y018901D01*
X009503Y019651D01*
X009753Y018651D02*
X014003Y018651D01*
X014003Y019651D02*
X014003Y020901D01*
X016003Y018651D02*
X016753Y018651D01*
X017003Y018901D01*
X017003Y020901D01*
X016503Y021401D01*
X017253Y021901D02*
X018503Y020651D01*
X018503Y019151D01*
X016003Y014651D02*
X016003Y011901D01*
X014003Y014651D02*
X010003Y014651D01*
X009003Y015651D01*
X009503Y016401D02*
X009503Y016651D01*
X008503Y017151D02*
X009003Y017651D01*
X014003Y017651D01*
X014503Y016651D02*
X011503Y016651D01*
X014503Y016651D02*
X015003Y017151D01*
X015003Y017651D01*
X010753Y020901D02*
X010753Y023651D01*
X011503Y024401D01*
X011503Y025651D01*
X008503Y025151D02*
X007253Y025151D01*
X007253Y022651D01*
X008003Y022651D01*
X008003Y021151D01*
X008003Y018151D01*
X008003Y017151D01*
X008503Y017151D02*
X008503Y016651D01*
X008503Y021151D02*
X008003Y021151D01*
X008003Y022651D02*
X008003Y023151D01*
X007253Y022651D02*
X004503Y022651D01*
X004503Y023651D02*
X005753Y023651D01*
X006503Y024401D01*
X006503Y026151D01*
X008503Y026151D02*
X008503Y025151D01*
X006503Y021151D02*
X004253Y021151D01*
X006503Y003151D02*
X009003Y003151D01*
X010003Y002151D01*
X013003Y002151D02*
X014503Y002151D01*
X015003Y002151D01*
D20*
X016003Y011901D03*
X016003Y018151D03*
X016003Y018651D03*
X016253Y019651D03*
X018503Y019151D03*
X018503Y018151D03*
X009003Y015651D03*
X008003Y018151D03*
X006503Y015901D03*
M02*
