%
M48
M72
T01C0.0236
T02C0.0320
T03C0.0400
T04C0.1260
%
T01
X7003Y15651
X6003Y18151
X3753Y15901
X14003Y18151
X14003Y18651
X14253Y19651
X16503Y19151
X16503Y18151
X14003Y11901
T02
X15003Y11151
X15003Y12651
X15003Y9651
X14003Y7651
X14003Y5651
X14003Y4151
X14003Y2151
X12503Y2151
X12503Y4151
X12503Y5651
X12503Y7651
X11003Y9651
X11003Y11151
X11003Y12651
X9503Y13651
X8003Y13651
X6753Y11651
X6003Y11151
X6003Y12151
X6503Y14151
X6503Y16651
X7503Y16651
X8503Y16651
X9503Y16651
X9503Y19651
X8503Y19651
X7503Y19651
X6503Y19651
X6503Y21151
X6003Y23151
X6003Y24151
X6753Y23651
X8003Y25651
X9503Y25651
X10503Y22901
X9503Y21651
X10503Y21401
X12503Y24151
X12503Y25151
X14503Y22901
X14503Y21401
X8003Y21651
X6503Y26151
X4503Y26151
X4503Y21151
X4503Y19151
X4503Y17151
X4503Y14151
X4503Y9151
X6503Y9151
X6503Y7051
X6503Y6251
X8003Y9651
X9503Y9651
X9003Y7051
X9003Y6251
X11003Y4151
X11003Y2151
X16503Y2151
X16503Y4151
T03
X4503Y2151
X4503Y3151
X4503Y4651
X4503Y5651
X4503Y10651
X4503Y11651
X4503Y12651
X8003Y4151
X8003Y2151
X12003Y14651
X13003Y14651
X14003Y14651
X15003Y14651
X16003Y14651
X16503Y12651
X16503Y11651
X16503Y10651
X16503Y9651
X16503Y8651
X15903Y17151
X15103Y17151
X15503Y20151
X13003Y19651
X13003Y18651
X13003Y17651
X12003Y17651
X12003Y18651
X12003Y19651
X15503Y24151
X15503Y25151
X15503Y26151
X4503Y24651
X4503Y23651
X4503Y22651
T04
X8753Y8651
X16253Y22901
M30
