G75*
G70*
%OFA0B0*%
%FSLAX24Y24*%
%IPPOS*%
%LPD*%
%AMOC8*
5,1,8,0,0,1.08239X$1,22.5*
%
%ADD10C,0.0600*%
%ADD11R,0.0217X0.0472*%
%ADD12C,0.1000*%
%ADD13C,0.0500*%
%ADD14C,0.0480*%
%ADD15C,0.0310*%
%ADD16R,0.0098X0.0315*%
%ADD17R,0.0197X0.0098*%
%ADD18C,0.0240*%
%ADD19C,0.0200*%
%ADD20R,0.0396X0.0396*%
%ADD21C,0.0100*%
%ADD22C,0.0080*%
D10*
X004503Y002151D03*
X004503Y003151D03*
X004503Y004651D03*
X004503Y005651D03*
X004503Y010651D03*
X004503Y011651D03*
X004503Y012651D03*
X004503Y022651D03*
X004503Y023651D03*
X004503Y024651D03*
X012003Y019651D03*
X012003Y018651D03*
X012003Y017651D03*
X013003Y017651D03*
X013003Y018651D03*
X013003Y019651D03*
X015503Y024151D03*
X015503Y025151D03*
X015503Y026151D03*
X015003Y014651D03*
X014003Y014651D03*
X013003Y014651D03*
X012003Y014651D03*
X016003Y014651D03*
X016503Y012651D03*
X016503Y011651D03*
X016503Y010651D03*
X016503Y009651D03*
X016503Y008651D03*
D11*
X011377Y007163D03*
X011377Y006139D03*
X011003Y006139D03*
X010629Y006139D03*
X010629Y007163D03*
D12*
X008003Y004151D03*
X008003Y002151D03*
D13*
X009003Y006251D03*
X009003Y007051D03*
X006503Y007051D03*
X006503Y006251D03*
D14*
X006503Y009151D03*
X006003Y011151D03*
X006003Y012151D03*
X006753Y011651D03*
X008003Y009651D03*
X009503Y009651D03*
X011003Y009651D03*
X011003Y011151D03*
X011003Y012651D03*
X009503Y013651D03*
X008003Y013651D03*
X006503Y014151D03*
X006503Y016651D03*
X007503Y016651D03*
X008503Y016651D03*
X009503Y016651D03*
X009503Y019651D03*
X008503Y019651D03*
X007503Y019651D03*
X006503Y019651D03*
X006503Y021151D03*
X006003Y023151D03*
X006003Y024151D03*
X006753Y023651D03*
X008003Y025651D03*
X009503Y025651D03*
X010503Y022901D03*
X009503Y021651D03*
X010503Y021401D03*
X012503Y024151D03*
X012503Y025151D03*
X014503Y022901D03*
X014503Y021401D03*
X015003Y012651D03*
X015003Y011151D03*
X015003Y009651D03*
X014003Y007651D03*
X014003Y005651D03*
X014003Y004151D03*
X014003Y002151D03*
X012503Y002151D03*
X012503Y004151D03*
X012503Y005651D03*
X012503Y007651D03*
X011003Y004151D03*
X011003Y002151D03*
X016503Y002151D03*
X016503Y004151D03*
X008003Y021651D03*
X006503Y026151D03*
X004503Y026151D03*
X004503Y021151D03*
X004503Y019151D03*
X004503Y017151D03*
X004503Y014151D03*
X004503Y009151D03*
D15*
X015253Y017651D03*
X015253Y018151D03*
X015253Y018651D03*
X015253Y019151D03*
X015253Y019651D03*
X015753Y019651D03*
X015753Y019151D03*
X015753Y018651D03*
X015753Y018151D03*
X015753Y017651D03*
D16*
X016110Y006693D03*
X016307Y006693D03*
X016503Y006693D03*
X016700Y006693D03*
X016897Y006693D03*
X016897Y005610D03*
X016700Y005610D03*
X016503Y005610D03*
X016307Y005610D03*
X016110Y005610D03*
D17*
X015913Y006151D03*
X017094Y006151D03*
D18*
X012503Y004151D02*
X011003Y004151D01*
X008003Y004151D02*
X006003Y002151D01*
X004503Y002151D01*
D19*
X005603Y007051D02*
X004503Y008151D01*
X004503Y009151D01*
X005003Y009651D01*
X008003Y009651D01*
X009503Y009651D02*
X007503Y011651D01*
X006753Y011651D01*
X006003Y012151D02*
X006003Y012651D01*
X007003Y012651D01*
X008003Y013651D01*
X007003Y015651D02*
X006253Y015651D01*
X005503Y016401D01*
X005503Y017401D01*
X004503Y018401D01*
X004503Y019151D01*
X004503Y019401D01*
X004753Y019651D01*
X006503Y019651D01*
X007503Y020651D01*
X009753Y020651D01*
X010503Y021401D01*
X012253Y021401D01*
X013003Y020651D01*
X013003Y019651D01*
X012503Y019151D02*
X013003Y018651D01*
X012503Y019151D02*
X010253Y019151D01*
X010253Y015901D01*
X009503Y015151D01*
X009503Y013651D01*
X011003Y012651D02*
X011003Y015651D01*
X012003Y016651D01*
X012003Y017151D01*
X012003Y017651D01*
X010253Y019151D02*
X010003Y019151D01*
X009503Y019651D01*
X008753Y018151D02*
X006003Y018151D01*
X004503Y021151D02*
X005003Y021651D01*
X008003Y021651D01*
X009503Y021651D02*
X007503Y023651D01*
X006753Y023651D01*
X007003Y024651D02*
X008003Y025651D01*
X007003Y024651D02*
X006003Y024651D01*
X006003Y024151D01*
X006003Y024651D02*
X004503Y024651D01*
X004503Y023651D02*
X003753Y023651D01*
X003753Y026151D01*
X004503Y026151D01*
X003753Y023651D02*
X003753Y021151D01*
X003753Y015901D01*
X003753Y014151D02*
X004503Y014151D01*
X003753Y014151D02*
X003753Y011651D01*
X004503Y011651D01*
X003753Y011651D02*
X003753Y009901D01*
X004503Y009151D01*
X005603Y007051D02*
X006503Y007051D01*
X007503Y007051D01*
X008003Y007051D01*
X008003Y006901D01*
X008003Y004151D01*
X008003Y007051D02*
X009003Y007051D01*
X009115Y007163D01*
X010629Y007163D01*
X010629Y006139D01*
X010629Y004525D01*
X011003Y004151D01*
X011003Y005651D02*
X012503Y005651D01*
X013015Y006139D02*
X013253Y005901D01*
X013253Y004401D01*
X013503Y004151D01*
X014003Y004151D01*
X015003Y004151D02*
X016503Y004151D01*
X015003Y004151D02*
X015003Y007651D01*
X014003Y007651D01*
X013253Y007651D01*
X013253Y009651D01*
X013253Y012651D01*
X015003Y012651D01*
X016503Y012651D01*
X016503Y010651D02*
X017253Y010651D01*
X017253Y025651D01*
X016753Y026151D01*
X015503Y026151D01*
X015503Y024151D02*
X014753Y024151D01*
X014503Y023901D01*
X014503Y022901D01*
X015253Y021901D02*
X016503Y020651D01*
X016503Y019651D01*
X015753Y019651D01*
X015753Y017651D02*
X016503Y017651D01*
X016503Y015651D01*
X016003Y015651D01*
X016003Y014651D01*
X014003Y011901D02*
X014003Y009901D01*
X014253Y009651D01*
X015003Y009651D01*
X016503Y009651D01*
X013253Y009651D02*
X011003Y009651D01*
X011003Y011151D01*
X012503Y012651D02*
X012003Y013151D01*
X012003Y014651D01*
X012503Y012651D02*
X013253Y012651D01*
X013253Y007651D02*
X012503Y007651D01*
X011503Y007651D01*
X011377Y007525D01*
X011377Y007163D01*
X011377Y006139D02*
X013015Y006139D01*
X011003Y006139D02*
X011003Y005651D01*
X006003Y012651D02*
X004503Y012651D01*
X009503Y017401D02*
X008753Y018151D01*
X009503Y017401D02*
X009503Y016651D01*
X013003Y021901D02*
X015253Y021901D01*
X013003Y021901D02*
X012503Y022401D01*
X012503Y024151D01*
X012503Y025151D02*
X010753Y025151D01*
X010503Y024901D01*
X010503Y022901D01*
X004503Y021151D02*
X003753Y021151D01*
D20*
X006003Y018151D03*
X007003Y015651D03*
X003753Y015901D03*
X014003Y018151D03*
X014003Y018651D03*
X014253Y019651D03*
X016503Y019151D03*
X016503Y018151D03*
X014003Y011901D03*
D21*
X003253Y000401D02*
X003253Y027401D01*
X017753Y027401D01*
X017746Y000401D01*
X003253Y000401D01*
X003253Y000447D02*
X017746Y000447D01*
X017746Y000545D02*
X003253Y000545D01*
X003253Y000644D02*
X017746Y000644D01*
X017746Y000742D02*
X003253Y000742D01*
X003253Y000841D02*
X017746Y000841D01*
X017746Y000940D02*
X003253Y000940D01*
X003253Y001038D02*
X017746Y001038D01*
X017746Y001137D02*
X003253Y001137D01*
X003253Y001235D02*
X017746Y001235D01*
X017746Y001334D02*
X003253Y001334D01*
X003253Y001432D02*
X017746Y001432D01*
X017746Y001531D02*
X008353Y001531D01*
X008458Y001581D02*
X008166Y001440D01*
X008166Y001440D01*
X007841Y001440D01*
X007841Y001440D01*
X007549Y001581D01*
X007549Y001581D01*
X007347Y001835D01*
X007347Y001835D01*
X007274Y002151D01*
X007274Y002151D01*
X007347Y002467D01*
X007347Y002467D01*
X007549Y002721D01*
X007549Y002721D01*
X007549Y002721D01*
X007841Y002862D01*
X007841Y002862D01*
X008166Y002862D01*
X008166Y002862D01*
X008458Y002721D01*
X008458Y002721D01*
X008660Y002467D01*
X008660Y002467D01*
X008732Y002151D01*
X008660Y001835D01*
X008660Y001835D01*
X008458Y001581D01*
X008458Y001581D01*
X008458Y001581D01*
X008496Y001629D02*
X017746Y001629D01*
X017746Y001728D02*
X008575Y001728D01*
X008654Y001826D02*
X010787Y001826D01*
X010819Y001806D02*
X010890Y001776D01*
X010965Y001761D01*
X010973Y001761D01*
X010973Y002121D01*
X010613Y002121D01*
X010613Y002113D01*
X010628Y002037D01*
X010658Y001966D01*
X010701Y001903D01*
X010755Y001848D01*
X010819Y001806D01*
X010973Y001826D02*
X011033Y001826D01*
X011033Y001761D02*
X011042Y001761D01*
X011117Y001776D01*
X011188Y001806D01*
X011252Y001848D01*
X011306Y001903D01*
X011349Y001966D01*
X011378Y002037D01*
X011393Y002113D01*
X011393Y002121D01*
X011034Y002121D01*
X011034Y002181D01*
X011393Y002181D01*
X011393Y002190D01*
X011378Y002265D01*
X011349Y002336D01*
X011306Y002400D01*
X011252Y002454D01*
X011188Y002497D01*
X011117Y002526D01*
X011042Y002541D01*
X011033Y002541D01*
X011033Y002181D01*
X010973Y002181D01*
X010973Y002121D01*
X011033Y002121D01*
X011033Y001761D01*
X011033Y001925D02*
X010973Y001925D01*
X010973Y002024D02*
X011033Y002024D01*
X011034Y002122D02*
X012473Y002122D01*
X012473Y002121D02*
X012113Y002121D01*
X012113Y002113D01*
X012128Y002037D01*
X012158Y001966D01*
X012201Y001903D01*
X012255Y001848D01*
X012319Y001806D01*
X012390Y001776D01*
X012465Y001761D01*
X012473Y001761D01*
X012473Y002121D01*
X012473Y002181D01*
X012113Y002181D01*
X012113Y002190D01*
X012128Y002265D01*
X012158Y002336D01*
X012201Y002400D01*
X012255Y002454D01*
X012319Y002497D01*
X012390Y002526D01*
X012465Y002541D01*
X012473Y002541D01*
X012473Y002181D01*
X012533Y002181D01*
X012533Y002541D01*
X012542Y002541D01*
X012617Y002526D01*
X012688Y002497D01*
X012752Y002454D01*
X012806Y002400D01*
X012849Y002336D01*
X012878Y002265D01*
X012893Y002190D01*
X012893Y002181D01*
X012534Y002181D01*
X012534Y002121D01*
X012893Y002121D01*
X012893Y002113D01*
X012878Y002037D01*
X012849Y001966D01*
X012806Y001903D01*
X012752Y001848D01*
X012688Y001806D01*
X012617Y001776D01*
X012542Y001761D01*
X012533Y001761D01*
X012533Y002121D01*
X012473Y002121D01*
X012534Y002122D02*
X013973Y002122D01*
X013973Y002121D02*
X013613Y002121D01*
X013613Y002113D01*
X013628Y002037D01*
X013658Y001966D01*
X013701Y001903D01*
X013755Y001848D01*
X013819Y001806D01*
X013890Y001776D01*
X013965Y001761D01*
X013973Y001761D01*
X013973Y002121D01*
X013973Y002181D01*
X013613Y002181D01*
X013613Y002190D01*
X013628Y002265D01*
X013658Y002336D01*
X013701Y002400D01*
X013755Y002454D01*
X013819Y002497D01*
X013890Y002526D01*
X013965Y002541D01*
X013973Y002541D01*
X013973Y002181D01*
X014033Y002181D01*
X014033Y002541D01*
X014042Y002541D01*
X014117Y002526D01*
X014188Y002497D01*
X014252Y002454D01*
X014306Y002400D01*
X014349Y002336D01*
X014378Y002265D01*
X014393Y002190D01*
X014393Y002181D01*
X014034Y002181D01*
X014034Y002121D01*
X014393Y002121D01*
X014393Y002113D01*
X014378Y002037D01*
X014349Y001966D01*
X014306Y001903D01*
X014252Y001848D01*
X014188Y001806D01*
X014117Y001776D01*
X014042Y001761D01*
X014033Y001761D01*
X014033Y002121D01*
X013973Y002121D01*
X014034Y002122D02*
X016473Y002122D01*
X016473Y002121D02*
X016113Y002121D01*
X016113Y002113D01*
X016128Y002037D01*
X016158Y001966D01*
X016201Y001903D01*
X016255Y001848D01*
X016319Y001806D01*
X016390Y001776D01*
X016465Y001761D01*
X016473Y001761D01*
X016473Y002121D01*
X016473Y002181D01*
X016113Y002181D01*
X016113Y002190D01*
X016128Y002265D01*
X016158Y002336D01*
X016201Y002400D01*
X016255Y002454D01*
X016319Y002497D01*
X016390Y002526D01*
X016465Y002541D01*
X016473Y002541D01*
X016473Y002181D01*
X016533Y002181D01*
X016533Y002541D01*
X016542Y002541D01*
X016617Y002526D01*
X016688Y002497D01*
X016752Y002454D01*
X016806Y002400D01*
X016849Y002336D01*
X016878Y002265D01*
X016893Y002190D01*
X016893Y002181D01*
X016534Y002181D01*
X016534Y002121D01*
X016893Y002121D01*
X016893Y002113D01*
X016878Y002037D01*
X016849Y001966D01*
X016806Y001903D01*
X016752Y001848D01*
X016688Y001806D01*
X016617Y001776D01*
X016542Y001761D01*
X016533Y001761D01*
X016533Y002121D01*
X016473Y002121D01*
X016534Y002122D02*
X017746Y002122D01*
X017746Y002024D02*
X016873Y002024D01*
X016821Y001925D02*
X017746Y001925D01*
X017746Y001826D02*
X016719Y001826D01*
X016533Y001826D02*
X016473Y001826D01*
X016473Y001925D02*
X016533Y001925D01*
X016533Y002024D02*
X016473Y002024D01*
X016473Y002221D02*
X016533Y002221D01*
X016533Y002319D02*
X016473Y002319D01*
X016473Y002418D02*
X016533Y002418D01*
X016533Y002516D02*
X016473Y002516D01*
X016366Y002516D02*
X014141Y002516D01*
X014033Y002516D02*
X013973Y002516D01*
X013973Y002418D02*
X014033Y002418D01*
X014033Y002319D02*
X013973Y002319D01*
X013973Y002221D02*
X014033Y002221D01*
X014033Y002024D02*
X013973Y002024D01*
X013973Y001925D02*
X014033Y001925D01*
X014033Y001826D02*
X013973Y001826D01*
X013787Y001826D02*
X012719Y001826D01*
X012821Y001925D02*
X013686Y001925D01*
X013634Y002024D02*
X012873Y002024D01*
X012887Y002221D02*
X013620Y002221D01*
X013651Y002319D02*
X012856Y002319D01*
X012788Y002418D02*
X013718Y002418D01*
X013866Y002516D02*
X012641Y002516D01*
X012533Y002516D02*
X012473Y002516D01*
X012473Y002418D02*
X012533Y002418D01*
X012533Y002319D02*
X012473Y002319D01*
X012473Y002221D02*
X012533Y002221D01*
X012533Y002024D02*
X012473Y002024D01*
X012473Y001925D02*
X012533Y001925D01*
X012533Y001826D02*
X012473Y001826D01*
X012287Y001826D02*
X011219Y001826D01*
X011321Y001925D02*
X012186Y001925D01*
X012134Y002024D02*
X011373Y002024D01*
X011387Y002221D02*
X012120Y002221D01*
X012151Y002319D02*
X011356Y002319D01*
X011288Y002418D02*
X012218Y002418D01*
X012366Y002516D02*
X011141Y002516D01*
X011033Y002516D02*
X010973Y002516D01*
X010973Y002541D02*
X010965Y002541D01*
X010890Y002526D01*
X010819Y002497D01*
X010755Y002454D01*
X010701Y002400D01*
X010658Y002336D01*
X010628Y002265D01*
X010613Y002190D01*
X010613Y002181D01*
X010973Y002181D01*
X010973Y002541D01*
X010866Y002516D02*
X008621Y002516D01*
X008672Y002418D02*
X010718Y002418D01*
X010651Y002319D02*
X008694Y002319D01*
X008717Y002221D02*
X010620Y002221D01*
X010634Y002024D02*
X008703Y002024D01*
X008726Y002122D02*
X010973Y002122D01*
X010973Y002221D02*
X011033Y002221D01*
X011033Y002319D02*
X010973Y002319D01*
X010973Y002418D02*
X011033Y002418D01*
X010686Y001925D02*
X008681Y001925D01*
X008543Y002615D02*
X017746Y002615D01*
X017746Y002713D02*
X008464Y002713D01*
X008270Y002812D02*
X017746Y002812D01*
X017746Y002910D02*
X007116Y002910D01*
X007018Y002812D02*
X007737Y002812D01*
X007543Y002713D02*
X006919Y002713D01*
X006821Y002615D02*
X007464Y002615D01*
X007386Y002516D02*
X006722Y002516D01*
X006623Y002418D02*
X007335Y002418D01*
X007313Y002319D02*
X006525Y002319D01*
X006426Y002221D02*
X007290Y002221D01*
X007281Y002122D02*
X006328Y002122D01*
X006229Y002024D02*
X007304Y002024D01*
X007326Y001925D02*
X006111Y001925D01*
X006145Y001939D02*
X007710Y003504D01*
X007841Y003440D01*
X007841Y003440D01*
X008166Y003440D01*
X008458Y003581D01*
X008458Y003581D01*
X008458Y003581D01*
X008660Y003835D01*
X008732Y004151D01*
X008660Y004467D01*
X008660Y004467D01*
X008458Y004721D01*
X008233Y004829D01*
X008233Y006806D01*
X008233Y006821D01*
X008696Y006821D01*
X008788Y006729D01*
X008928Y006671D01*
X009079Y006671D01*
X009219Y006729D01*
X009326Y006836D01*
X009366Y006933D01*
X010391Y006933D01*
X010391Y006873D01*
X010399Y006865D01*
X010399Y006438D01*
X010391Y006429D01*
X010391Y005849D01*
X010399Y005841D01*
X010399Y004620D01*
X010399Y004430D01*
X010633Y004196D01*
X010633Y004078D01*
X010690Y003942D01*
X010794Y003838D01*
X010930Y003781D01*
X011077Y003781D01*
X011213Y003838D01*
X011277Y003901D01*
X012230Y003901D01*
X012294Y003838D01*
X012430Y003781D01*
X012577Y003781D01*
X012713Y003838D01*
X012817Y003942D01*
X012873Y004078D01*
X012873Y004225D01*
X012817Y004361D01*
X012713Y004465D01*
X012577Y004521D01*
X012430Y004521D01*
X012294Y004465D01*
X012230Y004401D01*
X011277Y004401D01*
X011213Y004465D01*
X011077Y004521D01*
X010959Y004521D01*
X010859Y004620D01*
X010859Y005757D01*
X010875Y005753D01*
X010999Y005753D01*
X010999Y006135D01*
X011008Y006135D01*
X011008Y005753D01*
X011131Y005753D01*
X011170Y005763D01*
X011204Y005783D01*
X011205Y005784D01*
X011215Y005773D01*
X011540Y005773D01*
X011616Y005849D01*
X011616Y005909D01*
X012210Y005909D01*
X012201Y005900D01*
X012158Y005836D01*
X012128Y005765D01*
X012113Y005690D01*
X012113Y005681D01*
X012473Y005681D01*
X012473Y005621D01*
X012113Y005621D01*
X012113Y005613D01*
X012128Y005537D01*
X012158Y005466D01*
X012201Y005403D01*
X012255Y005348D01*
X012319Y005306D01*
X012390Y005276D01*
X012465Y005261D01*
X012473Y005261D01*
X012473Y005621D01*
X012533Y005621D01*
X012533Y005261D01*
X012542Y005261D01*
X012617Y005276D01*
X012688Y005306D01*
X012752Y005348D01*
X012806Y005403D01*
X012849Y005466D01*
X012878Y005537D01*
X012893Y005613D01*
X012893Y005621D01*
X012534Y005621D01*
X012534Y005681D01*
X012893Y005681D01*
X012893Y005690D01*
X012878Y005765D01*
X012849Y005836D01*
X012806Y005900D01*
X012797Y005909D01*
X012920Y005909D01*
X013023Y005806D01*
X013023Y004496D01*
X013023Y004306D01*
X013273Y004056D01*
X013408Y003921D01*
X013710Y003921D01*
X013794Y003838D01*
X013930Y003781D01*
X014077Y003781D01*
X014213Y003838D01*
X014317Y003942D01*
X014373Y004078D01*
X014373Y004225D01*
X014317Y004361D01*
X014213Y004465D01*
X014077Y004521D01*
X013930Y004521D01*
X013794Y004465D01*
X013710Y004381D01*
X013599Y004381D01*
X013483Y004496D01*
X013483Y005996D01*
X013349Y006131D01*
X013349Y006131D01*
X013245Y006235D01*
X013111Y006369D01*
X011616Y006369D01*
X011616Y006429D01*
X011540Y006506D01*
X011215Y006506D01*
X011205Y006495D01*
X011204Y006496D01*
X011170Y006515D01*
X011131Y006526D01*
X011008Y006526D01*
X011008Y006144D01*
X010999Y006144D01*
X010999Y006526D01*
X010875Y006526D01*
X010859Y006521D01*
X010859Y006865D01*
X010868Y006873D01*
X010868Y007453D01*
X010792Y007529D01*
X010467Y007529D01*
X010391Y007453D01*
X010391Y007393D01*
X009211Y007393D01*
X009171Y007393D01*
X009079Y007431D01*
X008928Y007431D01*
X008788Y007373D01*
X008696Y007281D01*
X008099Y007281D01*
X007408Y007281D01*
X006811Y007281D01*
X006719Y007373D01*
X006579Y007431D01*
X006428Y007431D01*
X006288Y007373D01*
X006196Y007281D01*
X005699Y007281D01*
X004733Y008246D01*
X004733Y008858D01*
X004817Y008942D01*
X004873Y009078D01*
X004873Y009196D01*
X005099Y009421D01*
X006222Y009421D01*
X006201Y009400D01*
X006158Y009336D01*
X006128Y009265D01*
X006113Y009190D01*
X006113Y009181D01*
X006473Y009181D01*
X006473Y009121D01*
X006113Y009121D01*
X006113Y009113D01*
X006128Y009037D01*
X006158Y008966D01*
X006201Y008903D01*
X006255Y008848D01*
X006319Y008806D01*
X006390Y008776D01*
X006465Y008761D01*
X006473Y008761D01*
X006473Y009121D01*
X006533Y009121D01*
X006533Y008761D01*
X006542Y008761D01*
X006617Y008776D01*
X006688Y008806D01*
X006752Y008848D01*
X006806Y008903D01*
X006849Y008966D01*
X006878Y009037D01*
X006893Y009113D01*
X006893Y009121D01*
X006534Y009121D01*
X006534Y009181D01*
X006893Y009181D01*
X006893Y009190D01*
X006878Y009265D01*
X006849Y009336D01*
X006806Y009400D01*
X006785Y009421D01*
X007710Y009421D01*
X007794Y009338D01*
X007930Y009281D01*
X008077Y009281D01*
X008183Y009325D01*
X008007Y009150D01*
X007874Y008826D01*
X007874Y008476D01*
X008007Y008153D01*
X008255Y007905D01*
X008578Y007771D01*
X008928Y007771D01*
X009252Y007905D01*
X009499Y008153D01*
X009633Y008476D01*
X009633Y008826D01*
X009499Y009150D01*
X009324Y009325D01*
X009430Y009281D01*
X009577Y009281D01*
X009713Y009338D01*
X009817Y009442D01*
X009873Y009578D01*
X009873Y009725D01*
X009817Y009861D01*
X009713Y009965D01*
X009577Y010021D01*
X009459Y010021D01*
X007599Y011881D01*
X007408Y011881D01*
X007047Y011881D01*
X006963Y011965D01*
X006827Y012021D01*
X006680Y012021D01*
X006544Y011965D01*
X006440Y011861D01*
X006383Y011725D01*
X006383Y011578D01*
X006440Y011442D01*
X006544Y011338D01*
X006680Y011281D01*
X006827Y011281D01*
X006963Y011338D01*
X007047Y011421D01*
X007408Y011421D01*
X009133Y009696D01*
X009133Y009578D01*
X009190Y009442D01*
X009222Y009410D01*
X008928Y009531D01*
X008578Y009531D01*
X008285Y009410D01*
X008317Y009442D01*
X008373Y009578D01*
X008373Y009725D01*
X008317Y009861D01*
X008213Y009965D01*
X008077Y010021D01*
X007930Y010021D01*
X007794Y009965D01*
X007710Y009881D01*
X005099Y009881D01*
X004908Y009881D01*
X004548Y009521D01*
X004459Y009521D01*
X003983Y009996D01*
X003983Y011421D01*
X004133Y011421D01*
X004139Y011408D01*
X004260Y011287D01*
X004418Y011221D01*
X004589Y011221D01*
X004747Y011287D01*
X004868Y011408D01*
X004933Y011566D01*
X004933Y011737D01*
X004868Y011895D01*
X004747Y012016D01*
X004589Y012081D01*
X004418Y012081D01*
X004260Y012016D01*
X004139Y011895D01*
X004133Y011881D01*
X003983Y011881D01*
X003983Y013921D01*
X004210Y013921D01*
X004294Y013838D01*
X004430Y013781D01*
X004577Y013781D01*
X004713Y013838D01*
X004817Y013942D01*
X004873Y014078D01*
X004873Y014225D01*
X004817Y014361D01*
X004713Y014465D01*
X004577Y014521D01*
X004430Y014521D01*
X004294Y014465D01*
X004210Y014381D01*
X003658Y014381D01*
X003523Y014246D01*
X003523Y014056D01*
X003523Y011746D01*
X003523Y011556D01*
X003523Y009806D01*
X003658Y009671D01*
X004133Y009196D01*
X004133Y009078D01*
X004190Y008942D01*
X004273Y008858D01*
X004273Y008056D01*
X004408Y007921D01*
X005508Y006821D01*
X005699Y006821D01*
X006196Y006821D01*
X006288Y006729D01*
X006428Y006671D01*
X006579Y006671D01*
X006719Y006729D01*
X006811Y006821D01*
X007408Y006821D01*
X007773Y006821D01*
X007773Y006806D01*
X007773Y004829D01*
X007549Y004721D01*
X007347Y004467D01*
X007274Y004151D01*
X007344Y003845D01*
X005900Y002401D01*
X004862Y002401D01*
X004747Y002516D01*
X004589Y002581D01*
X004418Y002581D01*
X004260Y002516D01*
X004139Y002395D01*
X004073Y002237D01*
X004073Y002066D01*
X004139Y001908D01*
X004260Y001787D01*
X004418Y001721D01*
X004589Y001721D01*
X004747Y001787D01*
X004862Y001901D01*
X005954Y001901D01*
X006053Y001901D01*
X006145Y001939D01*
X005916Y002418D02*
X004845Y002418D01*
X004746Y002516D02*
X006015Y002516D01*
X006114Y002615D02*
X003253Y002615D01*
X003253Y002713D02*
X004395Y002713D01*
X004398Y002712D02*
X004453Y002703D01*
X004453Y003101D01*
X004056Y003101D01*
X004065Y003046D01*
X004086Y002978D01*
X004119Y002915D01*
X004160Y002858D01*
X004210Y002808D01*
X004268Y002766D01*
X004331Y002734D01*
X004398Y002712D01*
X004453Y002713D02*
X004553Y002713D01*
X004553Y002703D02*
X004609Y002712D01*
X004676Y002734D01*
X004739Y002766D01*
X004797Y002808D01*
X004847Y002858D01*
X004888Y002915D01*
X004920Y002978D01*
X004942Y003046D01*
X004951Y003101D01*
X004554Y003101D01*
X004554Y003201D01*
X004951Y003201D01*
X004942Y003257D01*
X004920Y003324D01*
X004888Y003387D01*
X004847Y003444D01*
X004797Y003494D01*
X004739Y003536D01*
X004676Y003568D01*
X004609Y003590D01*
X004553Y003599D01*
X004553Y003201D01*
X004453Y003201D01*
X004453Y003101D01*
X004553Y003101D01*
X004553Y002703D01*
X004612Y002713D02*
X006212Y002713D01*
X006311Y002812D02*
X004801Y002812D01*
X004885Y002910D02*
X006409Y002910D01*
X006508Y003009D02*
X004930Y003009D01*
X004950Y003206D02*
X006705Y003206D01*
X006803Y003305D02*
X004927Y003305D01*
X004877Y003403D02*
X006902Y003403D01*
X007000Y003502D02*
X004787Y003502D01*
X004553Y003502D02*
X004453Y003502D01*
X004453Y003599D02*
X004398Y003590D01*
X004331Y003568D01*
X004268Y003536D01*
X004210Y003494D01*
X004160Y003444D01*
X004119Y003387D01*
X004086Y003324D01*
X004065Y003257D01*
X004056Y003201D01*
X004453Y003201D01*
X004453Y003599D01*
X004453Y003403D02*
X004553Y003403D01*
X004553Y003305D02*
X004453Y003305D01*
X004453Y003206D02*
X004553Y003206D01*
X004554Y003107D02*
X006606Y003107D01*
X007215Y003009D02*
X017746Y003009D01*
X017746Y003107D02*
X007313Y003107D01*
X007412Y003206D02*
X017747Y003206D01*
X017747Y003305D02*
X007510Y003305D01*
X007609Y003403D02*
X017747Y003403D01*
X017747Y003502D02*
X008293Y003502D01*
X008166Y003440D02*
X008166Y003440D01*
X008473Y003600D02*
X017747Y003600D01*
X017747Y003699D02*
X008552Y003699D01*
X008630Y003797D02*
X010891Y003797D01*
X010736Y003896D02*
X008674Y003896D01*
X008660Y003835D02*
X008660Y003835D01*
X008697Y003994D02*
X010668Y003994D01*
X010633Y004093D02*
X008719Y004093D01*
X008723Y004191D02*
X010633Y004191D01*
X010539Y004290D02*
X008701Y004290D01*
X008678Y004389D02*
X010441Y004389D01*
X010399Y004487D02*
X008645Y004487D01*
X008566Y004586D02*
X010399Y004586D01*
X010399Y004684D02*
X008487Y004684D01*
X008458Y004721D02*
X008458Y004721D01*
X008330Y004783D02*
X010399Y004783D01*
X010399Y004881D02*
X008233Y004881D01*
X008233Y004980D02*
X010399Y004980D01*
X010399Y005078D02*
X008233Y005078D01*
X008233Y005177D02*
X010399Y005177D01*
X010399Y005275D02*
X008233Y005275D01*
X008233Y005374D02*
X010399Y005374D01*
X010399Y005473D02*
X008233Y005473D01*
X008233Y005571D02*
X010399Y005571D01*
X010399Y005670D02*
X008233Y005670D01*
X008233Y005768D02*
X010399Y005768D01*
X010391Y005867D02*
X009120Y005867D01*
X009193Y005897D01*
X009258Y005940D01*
X009314Y005996D01*
X009358Y006062D01*
X009388Y006134D01*
X009403Y006212D01*
X009403Y006221D01*
X009034Y006221D01*
X009034Y006281D01*
X009403Y006281D01*
X009403Y006291D01*
X009388Y006368D01*
X009358Y006441D01*
X009314Y006506D01*
X009258Y006562D01*
X009193Y006606D01*
X009120Y006636D01*
X009043Y006651D01*
X009033Y006651D01*
X009033Y006281D01*
X008973Y006281D01*
X008973Y006221D01*
X008603Y006221D01*
X008603Y006212D01*
X008619Y006134D01*
X008649Y006062D01*
X008693Y005996D01*
X008748Y005940D01*
X008814Y005897D01*
X008887Y005867D01*
X008964Y005851D01*
X008973Y005851D01*
X008973Y006221D01*
X009033Y006221D01*
X009033Y005851D01*
X009043Y005851D01*
X009120Y005867D01*
X009033Y005867D02*
X008973Y005867D01*
X008886Y005867D02*
X008233Y005867D01*
X008233Y005965D02*
X008724Y005965D01*
X008648Y006064D02*
X008233Y006064D01*
X008233Y006162D02*
X008613Y006162D01*
X008603Y006281D02*
X008973Y006281D01*
X008973Y006651D01*
X008964Y006651D01*
X008887Y006636D01*
X008814Y006606D01*
X008748Y006562D01*
X008693Y006506D01*
X008649Y006441D01*
X008619Y006368D01*
X008603Y006291D01*
X008603Y006281D01*
X008617Y006359D02*
X008233Y006359D01*
X008233Y006261D02*
X008973Y006261D01*
X009034Y006261D02*
X010391Y006261D01*
X010391Y006359D02*
X009390Y006359D01*
X009346Y006458D02*
X010399Y006458D01*
X010399Y006556D02*
X009264Y006556D01*
X009243Y006754D02*
X010399Y006754D01*
X010399Y006852D02*
X009332Y006852D01*
X009033Y006556D02*
X008973Y006556D01*
X008973Y006458D02*
X009033Y006458D01*
X009033Y006359D02*
X008973Y006359D01*
X008973Y006162D02*
X009033Y006162D01*
X009033Y006064D02*
X008973Y006064D01*
X008973Y005965D02*
X009033Y005965D01*
X009283Y005965D02*
X010391Y005965D01*
X010391Y006064D02*
X009359Y006064D01*
X009394Y006162D02*
X010391Y006162D01*
X010399Y006655D02*
X008233Y006655D01*
X008233Y006556D02*
X008743Y006556D01*
X008661Y006458D02*
X008233Y006458D01*
X008233Y006754D02*
X008764Y006754D01*
X008760Y007345D02*
X006747Y007345D01*
X006743Y006754D02*
X007773Y006754D01*
X007773Y006655D02*
X003253Y006655D01*
X003253Y006556D02*
X006243Y006556D01*
X006248Y006562D02*
X006193Y006506D01*
X006149Y006441D01*
X006119Y006368D01*
X006103Y006291D01*
X006103Y006281D01*
X006473Y006281D01*
X006473Y006221D01*
X006103Y006221D01*
X006103Y006212D01*
X006119Y006134D01*
X006149Y006062D01*
X006193Y005996D01*
X006248Y005940D01*
X006314Y005897D01*
X006387Y005867D01*
X006464Y005851D01*
X006473Y005851D01*
X006473Y006221D01*
X006533Y006221D01*
X006533Y005851D01*
X006543Y005851D01*
X006620Y005867D01*
X006693Y005897D01*
X006758Y005940D01*
X006814Y005996D01*
X006858Y006062D01*
X006888Y006134D01*
X006903Y006212D01*
X006903Y006221D01*
X006534Y006221D01*
X006534Y006281D01*
X006903Y006281D01*
X006903Y006291D01*
X006888Y006368D01*
X006858Y006441D01*
X006814Y006506D01*
X006758Y006562D01*
X006693Y006606D01*
X006620Y006636D01*
X006543Y006651D01*
X006533Y006651D01*
X006533Y006281D01*
X006473Y006281D01*
X006473Y006651D01*
X006464Y006651D01*
X006387Y006636D01*
X006314Y006606D01*
X006248Y006562D01*
X006161Y006458D02*
X003253Y006458D01*
X003253Y006359D02*
X006117Y006359D01*
X006113Y006162D02*
X003253Y006162D01*
X003253Y006064D02*
X004322Y006064D01*
X004331Y006068D02*
X004268Y006036D01*
X004210Y005994D01*
X004160Y005944D01*
X004119Y005887D01*
X004086Y005824D01*
X004065Y005757D01*
X004056Y005701D01*
X004453Y005701D01*
X004453Y005601D01*
X004056Y005601D01*
X004065Y005546D01*
X004086Y005478D01*
X004119Y005415D01*
X004160Y005358D01*
X004210Y005308D01*
X004268Y005266D01*
X004331Y005234D01*
X004398Y005212D01*
X004453Y005203D01*
X004453Y005601D01*
X004553Y005601D01*
X004553Y005203D01*
X004609Y005212D01*
X004676Y005234D01*
X004739Y005266D01*
X004797Y005308D01*
X004847Y005358D01*
X004888Y005415D01*
X004920Y005478D01*
X004942Y005546D01*
X004951Y005601D01*
X004554Y005601D01*
X004554Y005701D01*
X004951Y005701D01*
X004942Y005757D01*
X004920Y005824D01*
X004888Y005887D01*
X004847Y005944D01*
X004797Y005994D01*
X004739Y006036D01*
X004676Y006068D01*
X004609Y006090D01*
X004553Y006099D01*
X004553Y005701D01*
X004453Y005701D01*
X004453Y006099D01*
X004398Y006090D01*
X004331Y006068D01*
X004453Y006064D02*
X004553Y006064D01*
X004553Y005965D02*
X004453Y005965D01*
X004453Y005867D02*
X004553Y005867D01*
X004553Y005768D02*
X004453Y005768D01*
X004453Y005670D02*
X003253Y005670D01*
X003253Y005768D02*
X004068Y005768D01*
X004108Y005867D02*
X003253Y005867D01*
X003253Y005965D02*
X004181Y005965D01*
X004061Y005571D02*
X003253Y005571D01*
X003253Y005473D02*
X004089Y005473D01*
X004149Y005374D02*
X003253Y005374D01*
X003253Y005275D02*
X004255Y005275D01*
X004453Y005275D02*
X004553Y005275D01*
X004553Y005374D02*
X004453Y005374D01*
X004453Y005473D02*
X004553Y005473D01*
X004553Y005571D02*
X004453Y005571D01*
X004554Y005670D02*
X007773Y005670D01*
X007773Y005768D02*
X004939Y005768D01*
X004899Y005867D02*
X006386Y005867D01*
X006473Y005867D02*
X006533Y005867D01*
X006620Y005867D02*
X007773Y005867D01*
X007773Y005965D02*
X006783Y005965D01*
X006859Y006064D02*
X007773Y006064D01*
X007773Y006162D02*
X006894Y006162D01*
X006890Y006359D02*
X007773Y006359D01*
X007773Y006261D02*
X006534Y006261D01*
X006473Y006261D02*
X003253Y006261D01*
X003253Y006754D02*
X006264Y006754D01*
X006473Y006556D02*
X006533Y006556D01*
X006533Y006458D02*
X006473Y006458D01*
X006473Y006359D02*
X006533Y006359D01*
X006533Y006162D02*
X006473Y006162D01*
X006473Y006064D02*
X006533Y006064D01*
X006533Y005965D02*
X006473Y005965D01*
X006224Y005965D02*
X004826Y005965D01*
X004685Y006064D02*
X006148Y006064D01*
X005477Y006852D02*
X003253Y006852D01*
X003253Y006951D02*
X005379Y006951D01*
X005280Y007049D02*
X003253Y007049D01*
X003253Y007148D02*
X005182Y007148D01*
X005083Y007246D02*
X003253Y007246D01*
X003253Y007345D02*
X004985Y007345D01*
X004886Y007443D02*
X003253Y007443D01*
X003253Y007542D02*
X004787Y007542D01*
X004689Y007640D02*
X003253Y007640D01*
X003253Y007739D02*
X004590Y007739D01*
X004492Y007838D02*
X003253Y007838D01*
X003253Y007936D02*
X004393Y007936D01*
X004295Y008035D02*
X003253Y008035D01*
X003253Y008133D02*
X004273Y008133D01*
X004273Y008232D02*
X003253Y008232D01*
X003253Y008330D02*
X004273Y008330D01*
X004273Y008429D02*
X003253Y008429D01*
X003253Y008527D02*
X004273Y008527D01*
X004273Y008626D02*
X003253Y008626D01*
X003253Y008724D02*
X004273Y008724D01*
X004273Y008823D02*
X003253Y008823D01*
X003253Y008922D02*
X004210Y008922D01*
X004157Y009020D02*
X003253Y009020D01*
X003253Y009119D02*
X004133Y009119D01*
X004112Y009217D02*
X003253Y009217D01*
X003253Y009316D02*
X004014Y009316D01*
X003915Y009414D02*
X003253Y009414D01*
X003253Y009513D02*
X003817Y009513D01*
X003718Y009611D02*
X003253Y009611D01*
X003253Y009710D02*
X003619Y009710D01*
X003523Y009808D02*
X003253Y009808D01*
X003253Y009907D02*
X003523Y009907D01*
X003523Y010006D02*
X003253Y010006D01*
X003253Y010104D02*
X003523Y010104D01*
X003523Y010203D02*
X003253Y010203D01*
X003253Y010301D02*
X003523Y010301D01*
X003523Y010400D02*
X003253Y010400D01*
X003253Y010498D02*
X003523Y010498D01*
X003523Y010597D02*
X003253Y010597D01*
X003253Y010695D02*
X003523Y010695D01*
X003523Y010794D02*
X003253Y010794D01*
X003253Y010892D02*
X003523Y010892D01*
X003523Y010991D02*
X003253Y010991D01*
X003253Y011089D02*
X003523Y011089D01*
X003523Y011188D02*
X003253Y011188D01*
X003253Y011287D02*
X003523Y011287D01*
X003523Y011385D02*
X003253Y011385D01*
X003253Y011484D02*
X003523Y011484D01*
X003523Y011582D02*
X003253Y011582D01*
X003253Y011681D02*
X003523Y011681D01*
X003523Y011779D02*
X003253Y011779D01*
X003253Y011878D02*
X003523Y011878D01*
X003523Y011976D02*
X003253Y011976D01*
X003253Y012075D02*
X003523Y012075D01*
X003523Y012173D02*
X003253Y012173D01*
X003253Y012272D02*
X003523Y012272D01*
X003523Y012371D02*
X003253Y012371D01*
X003253Y012469D02*
X003523Y012469D01*
X003523Y012568D02*
X003253Y012568D01*
X003253Y012666D02*
X003523Y012666D01*
X003523Y012765D02*
X003253Y012765D01*
X003253Y012863D02*
X003523Y012863D01*
X003523Y012962D02*
X003253Y012962D01*
X003253Y013060D02*
X003523Y013060D01*
X003523Y013159D02*
X003253Y013159D01*
X003253Y013257D02*
X003523Y013257D01*
X003523Y013356D02*
X003253Y013356D01*
X003253Y013455D02*
X003523Y013455D01*
X003523Y013553D02*
X003253Y013553D01*
X003253Y013652D02*
X003523Y013652D01*
X003523Y013750D02*
X003253Y013750D01*
X003253Y013849D02*
X003523Y013849D01*
X003523Y013947D02*
X003253Y013947D01*
X003253Y014046D02*
X003523Y014046D01*
X003523Y014144D02*
X003253Y014144D01*
X003253Y014243D02*
X003523Y014243D01*
X003618Y014341D02*
X003253Y014341D01*
X003253Y014440D02*
X004269Y014440D01*
X004283Y013849D02*
X003983Y013849D01*
X003983Y013750D02*
X007644Y013750D01*
X007633Y013725D02*
X007633Y013606D01*
X006908Y012881D01*
X006099Y012881D01*
X005908Y012881D01*
X004874Y012881D01*
X004868Y012895D01*
X004747Y013016D01*
X004589Y013081D01*
X004418Y013081D01*
X004260Y013016D01*
X004139Y012895D01*
X004073Y012737D01*
X004073Y012566D01*
X004139Y012408D01*
X004260Y012287D01*
X004418Y012221D01*
X004589Y012221D01*
X004747Y012287D01*
X004868Y012408D01*
X004874Y012421D01*
X005750Y012421D01*
X005690Y012361D01*
X005633Y012225D01*
X005633Y012078D01*
X005690Y011942D01*
X005794Y011838D01*
X005930Y011781D01*
X006077Y011781D01*
X006213Y011838D01*
X006317Y011942D01*
X006373Y012078D01*
X006373Y012225D01*
X006317Y012361D01*
X006257Y012421D01*
X006908Y012421D01*
X007099Y012421D01*
X007959Y013281D01*
X008077Y013281D01*
X008213Y013338D01*
X008317Y013442D01*
X008373Y013578D01*
X008373Y013725D01*
X008317Y013861D01*
X008213Y013965D01*
X008077Y014021D01*
X007930Y014021D01*
X007794Y013965D01*
X007690Y013861D01*
X007633Y013725D01*
X007633Y013652D02*
X003983Y013652D01*
X003983Y013553D02*
X007580Y013553D01*
X007482Y013455D02*
X003983Y013455D01*
X003983Y013356D02*
X007383Y013356D01*
X007285Y013257D02*
X003983Y013257D01*
X003983Y013159D02*
X007186Y013159D01*
X007087Y013060D02*
X004639Y013060D01*
X004801Y012962D02*
X006989Y012962D01*
X007245Y012568D02*
X010638Y012568D01*
X010633Y012578D02*
X010690Y012442D01*
X010794Y012338D01*
X010930Y012281D01*
X011077Y012281D01*
X011213Y012338D01*
X011317Y012442D01*
X011373Y012578D01*
X011373Y012725D01*
X011317Y012861D01*
X011233Y012944D01*
X011233Y015556D01*
X012099Y016421D01*
X012233Y016556D01*
X012233Y016971D01*
X014328Y016971D01*
X014433Y017077D01*
X014693Y017336D01*
X014653Y017241D01*
X014653Y017062D01*
X014722Y016896D01*
X014849Y016770D01*
X015014Y016701D01*
X015193Y016701D01*
X015358Y016770D01*
X015485Y016896D01*
X015503Y016941D01*
X015522Y016896D01*
X015649Y016770D01*
X015814Y016701D01*
X015993Y016701D01*
X016158Y016770D01*
X016285Y016896D01*
X016353Y017062D01*
X016353Y017241D01*
X016285Y017406D01*
X016158Y017533D01*
X016050Y017578D01*
X016058Y017621D01*
X016058Y017624D01*
X015797Y017624D01*
X015803Y017630D01*
X015803Y017679D01*
X016058Y017679D01*
X016058Y017681D01*
X016047Y017740D01*
X016024Y017796D01*
X015990Y017846D01*
X015948Y017888D01*
X015915Y017910D01*
X015976Y017971D01*
X016175Y017971D01*
X016175Y017899D01*
X016251Y017823D01*
X016755Y017823D01*
X016832Y017899D01*
X016832Y018403D01*
X016755Y018479D01*
X016251Y018479D01*
X016175Y018403D01*
X016175Y018331D01*
X015976Y018331D01*
X015915Y018392D01*
X015948Y018414D01*
X015990Y018457D01*
X016024Y018507D01*
X016047Y018562D01*
X016058Y018621D01*
X016058Y018624D01*
X015803Y018624D01*
X015803Y018679D01*
X016058Y018679D01*
X016058Y018681D01*
X016047Y018740D01*
X016024Y018796D01*
X015990Y018846D01*
X015948Y018888D01*
X015915Y018910D01*
X015976Y018971D01*
X016175Y018971D01*
X016175Y018899D01*
X016251Y018823D01*
X016755Y018823D01*
X016832Y018899D01*
X016832Y019403D01*
X016755Y019479D01*
X016251Y019479D01*
X016175Y019403D01*
X016175Y019331D01*
X015976Y019331D01*
X015915Y019392D01*
X015948Y019414D01*
X015990Y019457D01*
X016024Y019507D01*
X016047Y019562D01*
X016058Y019621D01*
X016058Y019624D01*
X015803Y019624D01*
X015803Y019672D01*
X015797Y019679D01*
X016058Y019679D01*
X016058Y019681D01*
X016047Y019740D01*
X016024Y019796D01*
X015990Y019846D01*
X015948Y019888D01*
X015898Y019921D01*
X015896Y019922D01*
X015953Y020062D01*
X015953Y020241D01*
X015885Y020406D01*
X015758Y020533D01*
X015593Y020601D01*
X015414Y020601D01*
X015249Y020533D01*
X015122Y020406D01*
X015053Y020241D01*
X015053Y020062D01*
X015119Y019904D01*
X015092Y019893D01*
X015030Y019831D01*
X014582Y019831D01*
X014582Y019903D01*
X014505Y019979D01*
X014001Y019979D01*
X013925Y019903D01*
X013925Y019484D01*
X013578Y019831D01*
X013429Y019831D01*
X013394Y019831D01*
X013368Y019895D01*
X013247Y020016D01*
X013233Y020021D01*
X013233Y020556D01*
X013233Y020746D01*
X012349Y021631D01*
X012158Y021631D01*
X010797Y021631D01*
X010713Y021715D01*
X010577Y021771D01*
X010430Y021771D01*
X010294Y021715D01*
X010190Y021611D01*
X010133Y021475D01*
X010133Y021356D01*
X009658Y020881D01*
X007408Y020881D01*
X007273Y020746D01*
X006548Y020021D01*
X006430Y020021D01*
X006294Y019965D01*
X006210Y019881D01*
X004658Y019881D01*
X004523Y019746D01*
X004273Y019496D01*
X004273Y019444D01*
X004190Y019361D01*
X004133Y019225D01*
X004133Y019078D01*
X004190Y018942D01*
X004273Y018858D01*
X004273Y018306D01*
X004408Y018171D01*
X005273Y017306D01*
X005273Y016306D01*
X005408Y016171D01*
X006158Y015421D01*
X006349Y015421D01*
X006675Y015421D01*
X006675Y015399D01*
X006751Y015323D01*
X007255Y015323D01*
X007332Y015399D01*
X007332Y015903D01*
X007255Y015979D01*
X006751Y015979D01*
X006675Y015903D01*
X006675Y015881D01*
X006349Y015881D01*
X005733Y016496D01*
X005733Y017306D01*
X005733Y017496D01*
X004733Y018496D01*
X004733Y018858D01*
X004817Y018942D01*
X004873Y019078D01*
X004873Y019225D01*
X004817Y019361D01*
X004803Y019375D01*
X004849Y019421D01*
X006210Y019421D01*
X006294Y019338D01*
X006430Y019281D01*
X006577Y019281D01*
X006713Y019338D01*
X006817Y019442D01*
X006873Y019578D01*
X006873Y019696D01*
X007599Y020421D01*
X009658Y020421D01*
X009849Y020421D01*
X010459Y021031D01*
X010577Y021031D01*
X010713Y021088D01*
X010797Y021171D01*
X012158Y021171D01*
X012773Y020556D01*
X012773Y020021D01*
X012760Y020016D01*
X012639Y019895D01*
X012573Y019737D01*
X012573Y019566D01*
X012639Y019408D01*
X012760Y019287D01*
X012918Y019221D01*
X013089Y019221D01*
X013247Y019287D01*
X013368Y019408D01*
X013394Y019471D01*
X013429Y019471D01*
X013823Y019077D01*
X013921Y018979D01*
X013751Y018979D01*
X013675Y018903D01*
X013675Y018399D01*
X013675Y018331D01*
X013291Y018331D01*
X013368Y018408D01*
X013433Y018566D01*
X013433Y018737D01*
X013368Y018895D01*
X013247Y019016D01*
X013089Y019081D01*
X012918Y019081D01*
X012904Y019075D01*
X012733Y019246D01*
X012599Y019381D01*
X012341Y019381D01*
X012368Y019408D01*
X012433Y019566D01*
X012433Y019737D01*
X012368Y019895D01*
X012247Y020016D01*
X012089Y020081D01*
X011918Y020081D01*
X011760Y020016D01*
X011639Y019895D01*
X011573Y019737D01*
X011573Y019566D01*
X011639Y019408D01*
X011665Y019381D01*
X010349Y019381D01*
X010158Y019381D01*
X010099Y019381D01*
X009873Y019606D01*
X009873Y019725D01*
X009817Y019861D01*
X009713Y019965D01*
X009577Y020021D01*
X009430Y020021D01*
X009294Y019965D01*
X009190Y019861D01*
X009133Y019725D01*
X009133Y019578D01*
X009190Y019442D01*
X009294Y019338D01*
X009430Y019281D01*
X009548Y019281D01*
X009908Y018921D01*
X010023Y018921D01*
X010023Y015996D01*
X009273Y015246D01*
X009273Y015056D01*
X009273Y013944D01*
X009190Y013861D01*
X009133Y013725D01*
X009133Y013578D01*
X009190Y013442D01*
X009294Y013338D01*
X009430Y013281D01*
X009577Y013281D01*
X009713Y013338D01*
X009817Y013442D01*
X009873Y013578D01*
X009873Y013725D01*
X009817Y013861D01*
X009733Y013944D01*
X009733Y015056D01*
X010349Y015671D01*
X010483Y015806D01*
X010483Y018921D01*
X011665Y018921D01*
X011639Y018895D01*
X011573Y018737D01*
X011573Y018566D01*
X011639Y018408D01*
X011760Y018287D01*
X011918Y018221D01*
X011929Y018221D01*
X012069Y018081D01*
X011918Y018081D01*
X011760Y018016D01*
X011639Y017895D01*
X011573Y017737D01*
X011573Y017566D01*
X011639Y017408D01*
X011760Y017287D01*
X011773Y017281D01*
X011773Y017246D01*
X011773Y016746D01*
X010773Y015746D01*
X010773Y015556D01*
X010773Y012944D01*
X010690Y012861D01*
X010633Y012725D01*
X010633Y012578D01*
X010633Y012666D02*
X007344Y012666D01*
X007442Y012765D02*
X010650Y012765D01*
X010692Y012863D02*
X007541Y012863D01*
X007639Y012962D02*
X010773Y012962D01*
X010773Y013060D02*
X007738Y013060D01*
X007836Y013159D02*
X010773Y013159D01*
X010773Y013257D02*
X007935Y013257D01*
X008231Y013356D02*
X009275Y013356D01*
X009184Y013455D02*
X008322Y013455D01*
X008363Y013553D02*
X009144Y013553D01*
X009133Y013652D02*
X008373Y013652D01*
X008363Y013750D02*
X009144Y013750D01*
X009185Y013849D02*
X008322Y013849D01*
X008231Y013947D02*
X009273Y013947D01*
X009273Y014046D02*
X006880Y014046D01*
X006878Y014037D02*
X006893Y014113D01*
X006893Y014121D01*
X006534Y014121D01*
X006534Y014181D01*
X006893Y014181D01*
X006893Y014190D01*
X006878Y014265D01*
X006849Y014336D01*
X006806Y014400D01*
X006752Y014454D01*
X006688Y014497D01*
X006617Y014526D01*
X006542Y014541D01*
X006533Y014541D01*
X006533Y014181D01*
X006473Y014181D01*
X006473Y014121D01*
X006113Y014121D01*
X006113Y014113D01*
X006128Y014037D01*
X006158Y013966D01*
X006201Y013903D01*
X006255Y013848D01*
X006319Y013806D01*
X006390Y013776D01*
X006465Y013761D01*
X006473Y013761D01*
X006473Y014121D01*
X006533Y014121D01*
X006533Y013761D01*
X006542Y013761D01*
X006617Y013776D01*
X006688Y013806D01*
X006752Y013848D01*
X006806Y013903D01*
X006849Y013966D01*
X006878Y014037D01*
X006836Y013947D02*
X007776Y013947D01*
X007685Y013849D02*
X006753Y013849D01*
X006533Y013849D02*
X006473Y013849D01*
X006473Y013947D02*
X006533Y013947D01*
X006533Y014046D02*
X006473Y014046D01*
X006473Y014144D02*
X004873Y014144D01*
X004860Y014046D02*
X006127Y014046D01*
X006171Y013947D02*
X004819Y013947D01*
X004724Y013849D02*
X006254Y013849D01*
X006113Y014181D02*
X006473Y014181D01*
X006473Y014541D01*
X006465Y014541D01*
X006390Y014526D01*
X006319Y014497D01*
X006255Y014454D01*
X006201Y014400D01*
X006158Y014336D01*
X006128Y014265D01*
X006113Y014190D01*
X006113Y014181D01*
X006124Y014243D02*
X004866Y014243D01*
X004825Y014341D02*
X006162Y014341D01*
X006241Y014440D02*
X004738Y014440D01*
X004005Y015573D02*
X004082Y015649D01*
X004082Y016153D01*
X004005Y016229D01*
X003983Y016229D01*
X003983Y020921D01*
X004210Y020921D01*
X004294Y020838D01*
X004430Y020781D01*
X004577Y020781D01*
X004713Y020838D01*
X004817Y020942D01*
X004873Y021078D01*
X004873Y021196D01*
X005099Y021421D01*
X006222Y021421D01*
X006201Y021400D01*
X006158Y021336D01*
X006128Y021265D01*
X006113Y021190D01*
X006113Y021181D01*
X006473Y021181D01*
X006473Y021121D01*
X006113Y021121D01*
X006113Y021113D01*
X006128Y021037D01*
X006158Y020966D01*
X006201Y020903D01*
X006255Y020848D01*
X006319Y020806D01*
X006390Y020776D01*
X006465Y020761D01*
X006473Y020761D01*
X006473Y021121D01*
X006533Y021121D01*
X006533Y020761D01*
X006542Y020761D01*
X006617Y020776D01*
X006688Y020806D01*
X006752Y020848D01*
X006806Y020903D01*
X006849Y020966D01*
X006878Y021037D01*
X006893Y021113D01*
X006893Y021121D01*
X006534Y021121D01*
X006534Y021181D01*
X006893Y021181D01*
X006893Y021190D01*
X006878Y021265D01*
X006849Y021336D01*
X006806Y021400D01*
X006785Y021421D01*
X007710Y021421D01*
X007794Y021338D01*
X007930Y021281D01*
X008077Y021281D01*
X008213Y021338D01*
X008317Y021442D01*
X008373Y021578D01*
X008373Y021725D01*
X008317Y021861D01*
X008213Y021965D01*
X008077Y022021D01*
X007930Y022021D01*
X007794Y021965D01*
X007710Y021881D01*
X005099Y021881D01*
X004908Y021881D01*
X004548Y021521D01*
X004430Y021521D01*
X004294Y021465D01*
X004210Y021381D01*
X003983Y021381D01*
X003983Y023421D01*
X004133Y023421D01*
X004139Y023408D01*
X004260Y023287D01*
X004418Y023221D01*
X004589Y023221D01*
X004747Y023287D01*
X004868Y023408D01*
X004933Y023566D01*
X004933Y023737D01*
X004868Y023895D01*
X004747Y024016D01*
X004589Y024081D01*
X004418Y024081D01*
X004260Y024016D01*
X004139Y023895D01*
X004133Y023881D01*
X003983Y023881D01*
X003983Y025921D01*
X004210Y025921D01*
X004294Y025838D01*
X004430Y025781D01*
X004577Y025781D01*
X004713Y025838D01*
X004817Y025942D01*
X004873Y026078D01*
X004873Y026225D01*
X004817Y026361D01*
X004713Y026465D01*
X004577Y026521D01*
X004430Y026521D01*
X004294Y026465D01*
X004210Y026381D01*
X003658Y026381D01*
X003523Y026246D01*
X003523Y026056D01*
X003523Y023746D01*
X003523Y023556D01*
X003523Y021246D01*
X003523Y016229D01*
X003501Y016229D01*
X003425Y016153D01*
X003425Y015649D01*
X003501Y015573D01*
X004005Y015573D01*
X004055Y015622D02*
X005957Y015622D01*
X006055Y015524D02*
X003253Y015524D01*
X003253Y015622D02*
X003452Y015622D01*
X003425Y015721D02*
X003253Y015721D01*
X003253Y015820D02*
X003425Y015820D01*
X003425Y015918D02*
X003253Y015918D01*
X003253Y016017D02*
X003425Y016017D01*
X003425Y016115D02*
X003253Y016115D01*
X003253Y016214D02*
X003486Y016214D01*
X003523Y016312D02*
X003253Y016312D01*
X003253Y016411D02*
X003523Y016411D01*
X003523Y016509D02*
X003253Y016509D01*
X003253Y016608D02*
X003523Y016608D01*
X003523Y016706D02*
X003253Y016706D01*
X003253Y016805D02*
X003523Y016805D01*
X003523Y016904D02*
X003253Y016904D01*
X003253Y017002D02*
X003523Y017002D01*
X003523Y017101D02*
X003253Y017101D01*
X003253Y017199D02*
X003523Y017199D01*
X003523Y017298D02*
X003253Y017298D01*
X003253Y017396D02*
X003523Y017396D01*
X003523Y017495D02*
X003253Y017495D01*
X003253Y017593D02*
X003523Y017593D01*
X003523Y017692D02*
X003253Y017692D01*
X003253Y017790D02*
X003523Y017790D01*
X003523Y017889D02*
X003253Y017889D01*
X003253Y017988D02*
X003523Y017988D01*
X003523Y018086D02*
X003253Y018086D01*
X003253Y018185D02*
X003523Y018185D01*
X003523Y018283D02*
X003253Y018283D01*
X003253Y018382D02*
X003523Y018382D01*
X003523Y018480D02*
X003253Y018480D01*
X003253Y018579D02*
X003523Y018579D01*
X003523Y018677D02*
X003253Y018677D01*
X003253Y018776D02*
X003523Y018776D01*
X003523Y018874D02*
X003253Y018874D01*
X003253Y018973D02*
X003523Y018973D01*
X003523Y019071D02*
X003253Y019071D01*
X003253Y019170D02*
X003523Y019170D01*
X003523Y019269D02*
X003253Y019269D01*
X003253Y019367D02*
X003523Y019367D01*
X003523Y019466D02*
X003253Y019466D01*
X003253Y019564D02*
X003523Y019564D01*
X003523Y019663D02*
X003253Y019663D01*
X003253Y019761D02*
X003523Y019761D01*
X003523Y019860D02*
X003253Y019860D01*
X003253Y019958D02*
X003523Y019958D01*
X003523Y020057D02*
X003253Y020057D01*
X003253Y020155D02*
X003523Y020155D01*
X003523Y020254D02*
X003253Y020254D01*
X003253Y020353D02*
X003523Y020353D01*
X003523Y020451D02*
X003253Y020451D01*
X003253Y020550D02*
X003523Y020550D01*
X003523Y020648D02*
X003253Y020648D01*
X003253Y020747D02*
X003523Y020747D01*
X003523Y020845D02*
X003253Y020845D01*
X003253Y020944D02*
X003523Y020944D01*
X003523Y021042D02*
X003253Y021042D01*
X003253Y021141D02*
X003523Y021141D01*
X003523Y021239D02*
X003253Y021239D01*
X003253Y021338D02*
X003523Y021338D01*
X003523Y021437D02*
X003253Y021437D01*
X003253Y021535D02*
X003523Y021535D01*
X003523Y021634D02*
X003253Y021634D01*
X003253Y021732D02*
X003523Y021732D01*
X003523Y021831D02*
X003253Y021831D01*
X003253Y021929D02*
X003523Y021929D01*
X003523Y022028D02*
X003253Y022028D01*
X003253Y022126D02*
X003523Y022126D01*
X003523Y022225D02*
X003253Y022225D01*
X003253Y022323D02*
X003523Y022323D01*
X003523Y022422D02*
X003253Y022422D01*
X003253Y022521D02*
X003523Y022521D01*
X003523Y022619D02*
X003253Y022619D01*
X003253Y022718D02*
X003523Y022718D01*
X003523Y022816D02*
X003253Y022816D01*
X003253Y022915D02*
X003523Y022915D01*
X003523Y023013D02*
X003253Y023013D01*
X003253Y023112D02*
X003523Y023112D01*
X003523Y023210D02*
X003253Y023210D01*
X003253Y023309D02*
X003523Y023309D01*
X003523Y023407D02*
X003253Y023407D01*
X003253Y023506D02*
X003523Y023506D01*
X003523Y023604D02*
X003253Y023604D01*
X003253Y023703D02*
X003523Y023703D01*
X003523Y023802D02*
X003253Y023802D01*
X003253Y023900D02*
X003523Y023900D01*
X003523Y023999D02*
X003253Y023999D01*
X003253Y024097D02*
X003523Y024097D01*
X003523Y024196D02*
X003253Y024196D01*
X003253Y024294D02*
X003523Y024294D01*
X003523Y024393D02*
X003253Y024393D01*
X003253Y024491D02*
X003523Y024491D01*
X003523Y024590D02*
X003253Y024590D01*
X003253Y024688D02*
X003523Y024688D01*
X003523Y024787D02*
X003253Y024787D01*
X003253Y024886D02*
X003523Y024886D01*
X003523Y024984D02*
X003253Y024984D01*
X003253Y025083D02*
X003523Y025083D01*
X003523Y025181D02*
X003253Y025181D01*
X003253Y025280D02*
X003523Y025280D01*
X003523Y025378D02*
X003253Y025378D01*
X003253Y025477D02*
X003523Y025477D01*
X003523Y025575D02*
X003253Y025575D01*
X003253Y025674D02*
X003523Y025674D01*
X003523Y025772D02*
X003253Y025772D01*
X003253Y025871D02*
X003523Y025871D01*
X003523Y025970D02*
X003253Y025970D01*
X003253Y026068D02*
X003523Y026068D01*
X003523Y026167D02*
X003253Y026167D01*
X003253Y026265D02*
X003542Y026265D01*
X003641Y026364D02*
X003253Y026364D01*
X003253Y026462D02*
X004291Y026462D01*
X004716Y026462D02*
X006267Y026462D01*
X006255Y026454D02*
X006201Y026400D01*
X006158Y026336D01*
X006128Y026265D01*
X006113Y026190D01*
X006113Y026181D01*
X006473Y026181D01*
X006473Y026121D01*
X006113Y026121D01*
X006113Y026113D01*
X006128Y026037D01*
X006158Y025966D01*
X006201Y025903D01*
X006255Y025848D01*
X006319Y025806D01*
X006390Y025776D01*
X006465Y025761D01*
X006473Y025761D01*
X006473Y026121D01*
X006533Y026121D01*
X006533Y025761D01*
X006542Y025761D01*
X006617Y025776D01*
X006688Y025806D01*
X006752Y025848D01*
X006806Y025903D01*
X006849Y025966D01*
X006878Y026037D01*
X006893Y026113D01*
X006893Y026121D01*
X006534Y026121D01*
X006534Y026181D01*
X006893Y026181D01*
X006893Y026190D01*
X006878Y026265D01*
X015085Y026265D01*
X015073Y026237D02*
X015139Y026395D01*
X015260Y026516D01*
X015418Y026581D01*
X015589Y026581D01*
X015747Y026516D01*
X015868Y026395D01*
X015874Y026381D01*
X016658Y026381D01*
X016849Y026381D01*
X017349Y025881D01*
X017483Y025746D01*
X017483Y010746D01*
X017483Y010662D01*
X017564Y010581D01*
X017578Y010581D01*
X017683Y010476D01*
X017683Y005077D01*
X017578Y004971D01*
X017429Y004971D01*
X016929Y004971D01*
X016823Y005077D01*
X016717Y005183D01*
X016717Y005302D01*
X016700Y005302D01*
X016700Y005609D01*
X016700Y005609D01*
X016700Y005302D01*
X016683Y005302D01*
X016683Y004976D01*
X016683Y004827D01*
X016683Y004477D01*
X016713Y004465D01*
X016817Y004361D01*
X016873Y004225D01*
X016873Y004078D01*
X016817Y003942D01*
X016713Y003838D01*
X016577Y003781D01*
X016430Y003781D01*
X016294Y003838D01*
X016210Y003921D01*
X014908Y003921D01*
X014773Y004056D01*
X014773Y004246D01*
X014773Y007421D01*
X014297Y007421D01*
X014213Y007338D01*
X014077Y007281D01*
X013930Y007281D01*
X013794Y007338D01*
X013710Y007421D01*
X013349Y007421D01*
X013158Y007421D01*
X012797Y007421D01*
X012713Y007338D01*
X012577Y007281D01*
X012430Y007281D01*
X012294Y007338D01*
X012210Y007421D01*
X011616Y007421D01*
X011616Y006873D01*
X011540Y006797D01*
X011215Y006797D01*
X011139Y006873D01*
X011139Y007453D01*
X011147Y007461D01*
X011147Y007620D01*
X011273Y007746D01*
X011408Y007881D01*
X012210Y007881D01*
X012294Y007965D01*
X012430Y008021D01*
X012577Y008021D01*
X012713Y007965D01*
X012797Y007881D01*
X013023Y007881D01*
X013023Y009421D01*
X011297Y009421D01*
X011213Y009338D01*
X011077Y009281D01*
X010930Y009281D01*
X010794Y009338D01*
X010690Y009442D01*
X010633Y009578D01*
X010633Y009725D01*
X010690Y009861D01*
X010773Y009944D01*
X010773Y010858D01*
X010690Y010942D01*
X010633Y011078D01*
X010633Y011225D01*
X010690Y011361D01*
X010794Y011465D01*
X010930Y011521D01*
X011077Y011521D01*
X011213Y011465D01*
X011317Y011361D01*
X011373Y011225D01*
X011373Y011078D01*
X011317Y010942D01*
X011233Y010858D01*
X011233Y009944D01*
X011297Y009881D01*
X013023Y009881D01*
X013023Y012421D01*
X012408Y012421D01*
X012273Y012556D01*
X011773Y013056D01*
X011773Y013246D01*
X011773Y014281D01*
X011760Y014287D01*
X011639Y014408D01*
X011573Y014566D01*
X011573Y014737D01*
X011639Y014895D01*
X011760Y015016D01*
X011918Y015081D01*
X012089Y015081D01*
X012247Y015016D01*
X012368Y014895D01*
X012433Y014737D01*
X012433Y014566D01*
X012368Y014408D01*
X012247Y014287D01*
X012233Y014281D01*
X012233Y013246D01*
X012599Y012881D01*
X013158Y012881D01*
X013349Y012881D01*
X014710Y012881D01*
X014794Y012965D01*
X014930Y013021D01*
X015077Y013021D01*
X015213Y012965D01*
X015297Y012881D01*
X016133Y012881D01*
X016139Y012895D01*
X016260Y013016D01*
X016418Y013081D01*
X016589Y013081D01*
X016747Y013016D01*
X016868Y012895D01*
X016933Y012737D01*
X016933Y012566D01*
X016868Y012408D01*
X016747Y012287D01*
X016589Y012221D01*
X016418Y012221D01*
X016260Y012287D01*
X016139Y012408D01*
X016133Y012421D01*
X015297Y012421D01*
X015213Y012338D01*
X015077Y012281D01*
X014930Y012281D01*
X014794Y012338D01*
X014710Y012421D01*
X013483Y012421D01*
X013483Y009556D01*
X013483Y007881D01*
X013710Y007881D01*
X013794Y007965D01*
X013930Y008021D01*
X014077Y008021D01*
X014213Y007965D01*
X014297Y007881D01*
X014908Y007881D01*
X015099Y007881D01*
X015233Y007746D01*
X015233Y004381D01*
X016210Y004381D01*
X016294Y004465D01*
X016323Y004477D01*
X016323Y004721D01*
X015429Y004721D01*
X015323Y004827D01*
X015323Y004976D01*
X015323Y007226D01*
X015429Y007331D01*
X015578Y007331D01*
X016323Y007331D01*
X016323Y008260D01*
X016260Y008287D01*
X016139Y008408D01*
X016073Y008566D01*
X016073Y008737D01*
X016139Y008895D01*
X016260Y009016D01*
X016418Y009081D01*
X016589Y009081D01*
X016747Y009016D01*
X016823Y008939D01*
X016823Y009327D01*
X016805Y009345D01*
X016747Y009287D01*
X016589Y009221D01*
X016418Y009221D01*
X016260Y009287D01*
X016139Y009408D01*
X016133Y009421D01*
X015297Y009421D01*
X015213Y009338D01*
X015077Y009281D01*
X014930Y009281D01*
X014794Y009338D01*
X014710Y009421D01*
X014349Y009421D01*
X014158Y009421D01*
X013908Y009671D01*
X013773Y009806D01*
X013773Y011573D01*
X013751Y011573D01*
X013675Y011649D01*
X013675Y012153D01*
X013751Y012229D01*
X014255Y012229D01*
X014332Y012153D01*
X014332Y011649D01*
X014255Y011573D01*
X014233Y011573D01*
X014233Y009996D01*
X014349Y009881D01*
X014710Y009881D01*
X014794Y009965D01*
X014930Y010021D01*
X015077Y010021D01*
X015213Y009965D01*
X015297Y009881D01*
X016133Y009881D01*
X016139Y009895D01*
X016260Y010016D01*
X016418Y010081D01*
X016589Y010081D01*
X016747Y010016D01*
X016868Y009895D01*
X016933Y009737D01*
X016933Y009726D01*
X017183Y009476D01*
X017183Y009327D01*
X017183Y007577D01*
X017078Y007471D01*
X017077Y007470D01*
X017077Y006618D01*
X017076Y006617D01*
X017076Y006481D01*
X017000Y006405D01*
X016803Y006405D01*
X016627Y006405D01*
X016611Y006395D01*
X016572Y006385D01*
X016504Y006385D01*
X016504Y006692D01*
X016503Y006692D01*
X016503Y006385D01*
X016434Y006385D01*
X016396Y006395D01*
X016379Y006405D01*
X016213Y006405D01*
X016007Y006405D01*
X015931Y006481D01*
X015931Y006904D01*
X015998Y006971D01*
X015683Y006971D01*
X015683Y005081D01*
X016323Y005081D01*
X016323Y005322D01*
X016234Y005322D01*
X016217Y005313D01*
X016179Y005302D01*
X016110Y005302D01*
X016110Y005609D01*
X016110Y005609D01*
X016110Y005302D01*
X016041Y005302D01*
X016003Y005313D01*
X015968Y005332D01*
X015941Y005360D01*
X015921Y005394D01*
X015911Y005433D01*
X015911Y005610D01*
X016109Y005610D01*
X016109Y005610D01*
X015911Y005610D01*
X015911Y005787D01*
X015921Y005825D01*
X015941Y005859D01*
X015968Y005887D01*
X016003Y005907D01*
X016041Y005917D01*
X016110Y005917D01*
X016110Y005610D01*
X016110Y005610D01*
X016110Y005917D01*
X016179Y005917D01*
X016217Y005907D01*
X016234Y005897D01*
X016400Y005897D01*
X016576Y005897D01*
X016593Y005907D01*
X016631Y005917D01*
X016700Y005917D01*
X016700Y005610D01*
X016700Y005610D01*
X016700Y005917D01*
X016769Y005917D01*
X016807Y005907D01*
X016824Y005897D01*
X017000Y005897D01*
X017076Y005821D01*
X017076Y005685D01*
X017077Y005684D01*
X017077Y005332D01*
X017078Y005331D01*
X017323Y005331D01*
X017323Y010341D01*
X017243Y010421D01*
X016874Y010421D01*
X016868Y010408D01*
X016747Y010287D01*
X016589Y010221D01*
X016418Y010221D01*
X016260Y010287D01*
X016139Y010408D01*
X016073Y010566D01*
X016073Y010737D01*
X016139Y010895D01*
X016260Y011016D01*
X016418Y011081D01*
X016589Y011081D01*
X016747Y011016D01*
X016868Y010895D01*
X016874Y010881D01*
X017023Y010881D01*
X017023Y022461D01*
X016999Y022403D01*
X016752Y022155D01*
X016428Y022021D01*
X016078Y022021D01*
X015755Y022155D01*
X015507Y022403D01*
X015374Y022726D01*
X015374Y023076D01*
X015507Y023400D01*
X015755Y023647D01*
X016078Y023781D01*
X016428Y023781D01*
X016752Y023647D01*
X016999Y023400D01*
X017023Y023341D01*
X017023Y025556D01*
X016658Y025921D01*
X015874Y025921D01*
X015868Y025908D01*
X015747Y025787D01*
X015589Y025721D01*
X015418Y025721D01*
X015260Y025787D01*
X015139Y025908D01*
X015073Y026066D01*
X015073Y026237D01*
X015073Y026167D02*
X006534Y026167D01*
X006533Y026181D02*
X006473Y026181D01*
X006473Y026541D01*
X006465Y026541D01*
X006390Y026526D01*
X006319Y026497D01*
X006255Y026454D01*
X006176Y026364D02*
X004814Y026364D01*
X004857Y026265D02*
X006129Y026265D01*
X006122Y026068D02*
X004869Y026068D01*
X004873Y026167D02*
X006473Y026167D01*
X006533Y026181D02*
X006533Y026541D01*
X006542Y026541D01*
X006617Y026526D01*
X006688Y026497D01*
X006752Y026454D01*
X006806Y026400D01*
X006849Y026336D01*
X006878Y026265D01*
X006831Y026364D02*
X015126Y026364D01*
X015206Y026462D02*
X006740Y026462D01*
X006533Y026462D02*
X006473Y026462D01*
X006473Y026364D02*
X006533Y026364D01*
X006533Y026265D02*
X006473Y026265D01*
X006473Y026068D02*
X006533Y026068D01*
X006533Y025970D02*
X006473Y025970D01*
X006473Y025871D02*
X006533Y025871D01*
X006533Y025772D02*
X006473Y025772D01*
X006408Y025772D02*
X003983Y025772D01*
X003983Y025674D02*
X007633Y025674D01*
X007633Y025725D02*
X007633Y025606D01*
X006908Y024881D01*
X006099Y024881D01*
X005908Y024881D01*
X004874Y024881D01*
X004868Y024895D01*
X004747Y025016D01*
X004589Y025081D01*
X004418Y025081D01*
X004260Y025016D01*
X004139Y024895D01*
X004073Y024737D01*
X004073Y024566D01*
X004139Y024408D01*
X004260Y024287D01*
X004418Y024221D01*
X004589Y024221D01*
X004747Y024287D01*
X004868Y024408D01*
X004874Y024421D01*
X005750Y024421D01*
X005690Y024361D01*
X005633Y024225D01*
X005633Y024078D01*
X005690Y023942D01*
X005794Y023838D01*
X005930Y023781D01*
X006077Y023781D01*
X006213Y023838D01*
X006317Y023942D01*
X006373Y024078D01*
X006373Y024225D01*
X006317Y024361D01*
X006257Y024421D01*
X006908Y024421D01*
X007099Y024421D01*
X007959Y025281D01*
X008077Y025281D01*
X008213Y025338D01*
X008317Y025442D01*
X008373Y025578D01*
X008373Y025725D01*
X008317Y025861D01*
X008213Y025965D01*
X008077Y026021D01*
X007930Y026021D01*
X007794Y025965D01*
X007690Y025861D01*
X007633Y025725D01*
X007653Y025772D02*
X006598Y025772D01*
X006775Y025871D02*
X007700Y025871D01*
X007805Y025970D02*
X006850Y025970D01*
X006885Y026068D02*
X015073Y026068D01*
X015113Y025970D02*
X009702Y025970D01*
X009713Y025965D02*
X009577Y026021D01*
X009430Y026021D01*
X009294Y025965D01*
X009190Y025861D01*
X009133Y025725D01*
X009133Y025578D01*
X009190Y025442D01*
X009294Y025338D01*
X009430Y025281D01*
X009577Y025281D01*
X009713Y025338D01*
X009817Y025442D01*
X009873Y025578D01*
X009873Y025725D01*
X009817Y025861D01*
X009713Y025965D01*
X009807Y025871D02*
X015176Y025871D01*
X015294Y025772D02*
X009854Y025772D01*
X009873Y025674D02*
X016905Y025674D01*
X016807Y025772D02*
X015713Y025772D01*
X015831Y025871D02*
X016708Y025871D01*
X016866Y026364D02*
X017753Y026364D01*
X017753Y026462D02*
X015800Y026462D01*
X015638Y026561D02*
X017753Y026561D01*
X017753Y026659D02*
X003253Y026659D01*
X003253Y026561D02*
X015369Y026561D01*
X015418Y025581D02*
X015260Y025516D01*
X015139Y025395D01*
X015073Y025237D01*
X015073Y025066D01*
X015139Y024908D01*
X015260Y024787D01*
X015418Y024721D01*
X015589Y024721D01*
X015747Y024787D01*
X017023Y024787D01*
X017023Y024886D02*
X015846Y024886D01*
X015868Y024908D02*
X015933Y025066D01*
X015933Y025237D01*
X015868Y025395D01*
X015747Y025516D01*
X015589Y025581D01*
X015418Y025581D01*
X015404Y025575D02*
X009872Y025575D01*
X009832Y025477D02*
X012323Y025477D01*
X012294Y025465D02*
X012210Y025381D01*
X010658Y025381D01*
X010523Y025246D01*
X010273Y024996D01*
X010273Y024806D01*
X010273Y023194D01*
X010190Y023111D01*
X010133Y022975D01*
X010133Y022828D01*
X010190Y022692D01*
X010294Y022588D01*
X010430Y022531D01*
X010577Y022531D01*
X010713Y022588D01*
X010817Y022692D01*
X010873Y022828D01*
X010873Y022975D01*
X010817Y023111D01*
X010733Y023194D01*
X010733Y024806D01*
X010849Y024921D01*
X012210Y024921D01*
X012294Y024838D01*
X012430Y024781D01*
X012577Y024781D01*
X012713Y024838D01*
X012817Y024942D01*
X012873Y025078D01*
X012873Y025225D01*
X012817Y025361D01*
X012713Y025465D01*
X012577Y025521D01*
X012430Y025521D01*
X012294Y025465D01*
X012684Y025477D02*
X015221Y025477D01*
X015132Y025378D02*
X012800Y025378D01*
X012851Y025280D02*
X015091Y025280D01*
X015073Y025181D02*
X012873Y025181D01*
X012873Y025083D02*
X015073Y025083D01*
X015107Y024984D02*
X012835Y024984D01*
X012761Y024886D02*
X015161Y024886D01*
X015260Y024787D02*
X012591Y024787D01*
X012416Y024787D02*
X010733Y024787D01*
X010733Y024688D02*
X017023Y024688D01*
X017023Y024590D02*
X010733Y024590D01*
X010733Y024491D02*
X012311Y024491D01*
X012319Y024497D02*
X012255Y024454D01*
X012201Y024400D01*
X012158Y024336D01*
X012128Y024265D01*
X012113Y024190D01*
X012113Y024181D01*
X012473Y024181D01*
X012473Y024121D01*
X012113Y024121D01*
X012113Y024113D01*
X012128Y024037D01*
X012158Y023966D01*
X012201Y023903D01*
X012255Y023848D01*
X012319Y023806D01*
X012390Y023776D01*
X012465Y023761D01*
X012473Y023761D01*
X012473Y024121D01*
X012533Y024121D01*
X012533Y023761D01*
X012542Y023761D01*
X012617Y023776D01*
X012688Y023806D01*
X012752Y023848D01*
X012806Y023903D01*
X012849Y023966D01*
X012878Y024037D01*
X012893Y024113D01*
X012893Y024121D01*
X012534Y024121D01*
X012534Y024181D01*
X012893Y024181D01*
X012893Y024190D01*
X012878Y024265D01*
X012849Y024336D01*
X012806Y024400D01*
X012752Y024454D01*
X012688Y024497D01*
X012617Y024526D01*
X012542Y024541D01*
X012533Y024541D01*
X012533Y024181D01*
X012473Y024181D01*
X012473Y024541D01*
X012465Y024541D01*
X012390Y024526D01*
X012319Y024497D01*
X012473Y024491D02*
X012533Y024491D01*
X012533Y024393D02*
X012473Y024393D01*
X012473Y024294D02*
X012533Y024294D01*
X012533Y024196D02*
X012473Y024196D01*
X012473Y024097D02*
X012533Y024097D01*
X012533Y023999D02*
X012473Y023999D01*
X012473Y023900D02*
X012533Y023900D01*
X012533Y023802D02*
X012473Y023802D01*
X012328Y023802D02*
X010733Y023802D01*
X010733Y023900D02*
X012203Y023900D01*
X012144Y023999D02*
X010733Y023999D01*
X010733Y024097D02*
X012117Y024097D01*
X012115Y024196D02*
X010733Y024196D01*
X010733Y024294D02*
X012141Y024294D01*
X012196Y024393D02*
X010733Y024393D01*
X010813Y024886D02*
X012246Y024886D01*
X012696Y024491D02*
X015236Y024491D01*
X015260Y024516D02*
X015139Y024395D01*
X015133Y024381D01*
X014658Y024381D01*
X014523Y024246D01*
X014273Y023996D01*
X014273Y023806D01*
X014273Y023194D01*
X014190Y023111D01*
X014133Y022975D01*
X014133Y022828D01*
X014190Y022692D01*
X014294Y022588D01*
X014430Y022531D01*
X014577Y022531D01*
X014713Y022588D01*
X014817Y022692D01*
X014873Y022828D01*
X014873Y022975D01*
X014817Y023111D01*
X014733Y023194D01*
X014733Y023806D01*
X014849Y023921D01*
X015133Y023921D01*
X015139Y023908D01*
X015260Y023787D01*
X015418Y023721D01*
X015589Y023721D01*
X015747Y023787D01*
X015868Y023908D01*
X015933Y024066D01*
X015933Y024237D01*
X015868Y024395D01*
X015747Y024516D01*
X015589Y024581D01*
X015418Y024581D01*
X015260Y024516D01*
X015138Y024393D02*
X012811Y024393D01*
X012866Y024294D02*
X014571Y024294D01*
X014473Y024196D02*
X012892Y024196D01*
X012890Y024097D02*
X014374Y024097D01*
X014276Y023999D02*
X012862Y023999D01*
X012804Y023900D02*
X014273Y023900D01*
X014273Y023802D02*
X012679Y023802D01*
X014149Y023013D02*
X010858Y023013D01*
X010873Y022915D02*
X014133Y022915D01*
X014138Y022816D02*
X010869Y022816D01*
X010828Y022718D02*
X014179Y022718D01*
X014262Y022619D02*
X010745Y022619D01*
X010816Y023112D02*
X014191Y023112D01*
X014273Y023210D02*
X010733Y023210D01*
X010733Y023309D02*
X014273Y023309D01*
X014273Y023407D02*
X010733Y023407D01*
X010733Y023506D02*
X014273Y023506D01*
X014273Y023604D02*
X010733Y023604D01*
X010733Y023703D02*
X014273Y023703D01*
X014733Y023703D02*
X015890Y023703D01*
X015762Y023802D02*
X017023Y023802D01*
X017023Y023900D02*
X015860Y023900D01*
X015906Y023999D02*
X017023Y023999D01*
X017023Y024097D02*
X015933Y024097D01*
X015933Y024196D02*
X017023Y024196D01*
X017023Y024294D02*
X015910Y024294D01*
X015869Y024393D02*
X017023Y024393D01*
X017023Y024491D02*
X015771Y024491D01*
X015747Y024787D02*
X015868Y024908D01*
X015900Y024984D02*
X017023Y024984D01*
X017023Y025083D02*
X015933Y025083D01*
X015933Y025181D02*
X017023Y025181D01*
X017023Y025280D02*
X015916Y025280D01*
X015875Y025378D02*
X017023Y025378D01*
X017023Y025477D02*
X015786Y025477D01*
X015603Y025575D02*
X017004Y025575D01*
X017359Y025871D02*
X017753Y025871D01*
X017753Y025970D02*
X017260Y025970D01*
X017162Y026068D02*
X017753Y026068D01*
X017753Y026167D02*
X017063Y026167D01*
X016965Y026265D02*
X017753Y026265D01*
X017753Y025772D02*
X017457Y025772D01*
X017483Y025674D02*
X017753Y025674D01*
X017753Y025575D02*
X017483Y025575D01*
X017483Y025477D02*
X017753Y025477D01*
X017753Y025378D02*
X017483Y025378D01*
X017483Y025280D02*
X017753Y025280D01*
X017753Y025181D02*
X017483Y025181D01*
X017483Y025083D02*
X017753Y025083D01*
X017753Y024984D02*
X017483Y024984D01*
X017483Y024886D02*
X017753Y024886D01*
X017753Y024787D02*
X017483Y024787D01*
X017483Y024688D02*
X017753Y024688D01*
X017753Y024590D02*
X017483Y024590D01*
X017483Y024491D02*
X017753Y024491D01*
X017753Y024393D02*
X017483Y024393D01*
X017483Y024294D02*
X017753Y024294D01*
X017752Y024196D02*
X017483Y024196D01*
X017483Y024097D02*
X017752Y024097D01*
X017752Y023999D02*
X017483Y023999D01*
X017483Y023900D02*
X017752Y023900D01*
X017752Y023802D02*
X017483Y023802D01*
X017483Y023703D02*
X017752Y023703D01*
X017752Y023604D02*
X017483Y023604D01*
X017483Y023506D02*
X017752Y023506D01*
X017752Y023407D02*
X017483Y023407D01*
X017483Y023309D02*
X017752Y023309D01*
X017752Y023210D02*
X017483Y023210D01*
X017483Y023112D02*
X017752Y023112D01*
X017752Y023013D02*
X017483Y023013D01*
X017483Y022915D02*
X017752Y022915D01*
X017752Y022816D02*
X017483Y022816D01*
X017483Y022718D02*
X017752Y022718D01*
X017752Y022619D02*
X017483Y022619D01*
X017483Y022521D02*
X017752Y022521D01*
X017752Y022422D02*
X017483Y022422D01*
X017483Y022323D02*
X017752Y022323D01*
X017752Y022225D02*
X017483Y022225D01*
X017483Y022126D02*
X017752Y022126D01*
X017752Y022028D02*
X017483Y022028D01*
X017483Y021929D02*
X017752Y021929D01*
X017752Y021831D02*
X017483Y021831D01*
X017483Y021732D02*
X017752Y021732D01*
X017752Y021634D02*
X017483Y021634D01*
X017483Y021535D02*
X017752Y021535D01*
X017752Y021437D02*
X017483Y021437D01*
X017483Y021338D02*
X017752Y021338D01*
X017752Y021239D02*
X017483Y021239D01*
X017483Y021141D02*
X017752Y021141D01*
X017752Y021042D02*
X017483Y021042D01*
X017483Y020944D02*
X017752Y020944D01*
X017752Y020845D02*
X017483Y020845D01*
X017483Y020747D02*
X017751Y020747D01*
X017751Y020648D02*
X017483Y020648D01*
X017483Y020550D02*
X017751Y020550D01*
X017751Y020451D02*
X017483Y020451D01*
X017483Y020353D02*
X017751Y020353D01*
X017751Y020254D02*
X017483Y020254D01*
X017483Y020155D02*
X017751Y020155D01*
X017751Y020057D02*
X017483Y020057D01*
X017483Y019958D02*
X017751Y019958D01*
X017751Y019860D02*
X017483Y019860D01*
X017483Y019761D02*
X017751Y019761D01*
X017751Y019663D02*
X017483Y019663D01*
X017483Y019564D02*
X017751Y019564D01*
X017751Y019466D02*
X017483Y019466D01*
X017483Y019367D02*
X017751Y019367D01*
X017751Y019269D02*
X017483Y019269D01*
X017483Y019170D02*
X017751Y019170D01*
X017751Y019071D02*
X017483Y019071D01*
X017483Y018973D02*
X017751Y018973D01*
X017751Y018874D02*
X017483Y018874D01*
X017483Y018776D02*
X017751Y018776D01*
X017751Y018677D02*
X017483Y018677D01*
X017483Y018579D02*
X017751Y018579D01*
X017751Y018480D02*
X017483Y018480D01*
X017483Y018382D02*
X017751Y018382D01*
X017751Y018283D02*
X017483Y018283D01*
X017483Y018185D02*
X017751Y018185D01*
X017751Y018086D02*
X017483Y018086D01*
X017483Y017988D02*
X017751Y017988D01*
X017751Y017889D02*
X017483Y017889D01*
X017483Y017790D02*
X017751Y017790D01*
X017751Y017692D02*
X017483Y017692D01*
X017483Y017593D02*
X017751Y017593D01*
X017751Y017495D02*
X017483Y017495D01*
X017483Y017396D02*
X017751Y017396D01*
X017751Y017298D02*
X017483Y017298D01*
X017483Y017199D02*
X017751Y017199D01*
X017750Y017101D02*
X017483Y017101D01*
X017483Y017002D02*
X017750Y017002D01*
X017750Y016904D02*
X017483Y016904D01*
X017483Y016805D02*
X017750Y016805D01*
X017750Y016706D02*
X017483Y016706D01*
X017483Y016608D02*
X017750Y016608D01*
X017750Y016509D02*
X017483Y016509D01*
X017483Y016411D02*
X017750Y016411D01*
X017750Y016312D02*
X017483Y016312D01*
X017483Y016214D02*
X017750Y016214D01*
X017750Y016115D02*
X017483Y016115D01*
X017483Y016017D02*
X017750Y016017D01*
X017750Y015918D02*
X017483Y015918D01*
X017483Y015820D02*
X017750Y015820D01*
X017750Y015721D02*
X017483Y015721D01*
X017483Y015622D02*
X017750Y015622D01*
X017750Y015524D02*
X017483Y015524D01*
X017483Y015425D02*
X017750Y015425D01*
X017750Y015327D02*
X017483Y015327D01*
X017483Y015228D02*
X017750Y015228D01*
X017750Y015130D02*
X017483Y015130D01*
X017483Y015031D02*
X017750Y015031D01*
X017750Y014933D02*
X017483Y014933D01*
X017483Y014834D02*
X017750Y014834D01*
X017750Y014736D02*
X017483Y014736D01*
X017483Y014637D02*
X017750Y014637D01*
X017750Y014539D02*
X017483Y014539D01*
X017483Y014440D02*
X017750Y014440D01*
X017750Y014341D02*
X017483Y014341D01*
X017483Y014243D02*
X017750Y014243D01*
X017750Y014144D02*
X017483Y014144D01*
X017483Y014046D02*
X017750Y014046D01*
X017750Y013947D02*
X017483Y013947D01*
X017483Y013849D02*
X017750Y013849D01*
X017750Y013750D02*
X017483Y013750D01*
X017483Y013652D02*
X017749Y013652D01*
X017749Y013553D02*
X017483Y013553D01*
X017483Y013455D02*
X017749Y013455D01*
X017749Y013356D02*
X017483Y013356D01*
X017483Y013257D02*
X017749Y013257D01*
X017749Y013159D02*
X017483Y013159D01*
X017483Y013060D02*
X017749Y013060D01*
X017749Y012962D02*
X017483Y012962D01*
X017483Y012863D02*
X017749Y012863D01*
X017749Y012765D02*
X017483Y012765D01*
X017483Y012666D02*
X017749Y012666D01*
X017749Y012568D02*
X017483Y012568D01*
X017483Y012469D02*
X017749Y012469D01*
X017749Y012371D02*
X017483Y012371D01*
X017483Y012272D02*
X017749Y012272D01*
X017749Y012173D02*
X017483Y012173D01*
X017483Y012075D02*
X017749Y012075D01*
X017749Y011976D02*
X017483Y011976D01*
X017483Y011878D02*
X017749Y011878D01*
X017749Y011779D02*
X017483Y011779D01*
X017483Y011681D02*
X017749Y011681D01*
X017749Y011582D02*
X017483Y011582D01*
X017483Y011484D02*
X017749Y011484D01*
X017749Y011385D02*
X017483Y011385D01*
X017483Y011287D02*
X017749Y011287D01*
X017749Y011188D02*
X017483Y011188D01*
X017483Y011089D02*
X017749Y011089D01*
X017749Y010991D02*
X017483Y010991D01*
X017483Y010892D02*
X017749Y010892D01*
X017749Y010794D02*
X017483Y010794D01*
X017483Y010695D02*
X017749Y010695D01*
X017749Y010597D02*
X017548Y010597D01*
X017661Y010498D02*
X017749Y010498D01*
X017749Y010400D02*
X017683Y010400D01*
X017683Y010301D02*
X017749Y010301D01*
X017749Y010203D02*
X017683Y010203D01*
X017683Y010104D02*
X017749Y010104D01*
X017748Y010006D02*
X017683Y010006D01*
X017683Y009907D02*
X017748Y009907D01*
X017748Y009808D02*
X017683Y009808D01*
X017683Y009710D02*
X017748Y009710D01*
X017748Y009611D02*
X017683Y009611D01*
X017683Y009513D02*
X017748Y009513D01*
X017748Y009414D02*
X017683Y009414D01*
X017683Y009316D02*
X017748Y009316D01*
X017748Y009217D02*
X017683Y009217D01*
X017683Y009119D02*
X017748Y009119D01*
X017748Y009020D02*
X017683Y009020D01*
X017683Y008922D02*
X017748Y008922D01*
X017748Y008823D02*
X017683Y008823D01*
X017683Y008724D02*
X017748Y008724D01*
X017748Y008626D02*
X017683Y008626D01*
X017683Y008527D02*
X017748Y008527D01*
X017748Y008429D02*
X017683Y008429D01*
X017683Y008330D02*
X017748Y008330D01*
X017748Y008232D02*
X017683Y008232D01*
X017683Y008133D02*
X017748Y008133D01*
X017748Y008035D02*
X017683Y008035D01*
X017683Y007936D02*
X017748Y007936D01*
X017748Y007838D02*
X017683Y007838D01*
X017683Y007739D02*
X017748Y007739D01*
X017748Y007640D02*
X017683Y007640D01*
X017683Y007542D02*
X017748Y007542D01*
X017748Y007443D02*
X017683Y007443D01*
X017683Y007345D02*
X017748Y007345D01*
X017748Y007246D02*
X017683Y007246D01*
X017683Y007148D02*
X017748Y007148D01*
X017748Y007049D02*
X017683Y007049D01*
X017683Y006951D02*
X017748Y006951D01*
X017748Y006852D02*
X017683Y006852D01*
X017683Y006754D02*
X017748Y006754D01*
X017748Y006655D02*
X017683Y006655D01*
X017683Y006556D02*
X017747Y006556D01*
X017747Y006458D02*
X017683Y006458D01*
X017683Y006359D02*
X017747Y006359D01*
X017747Y006261D02*
X017683Y006261D01*
X017683Y006162D02*
X017747Y006162D01*
X017747Y006064D02*
X017683Y006064D01*
X017683Y005965D02*
X017747Y005965D01*
X017747Y005867D02*
X017683Y005867D01*
X017683Y005768D02*
X017747Y005768D01*
X017747Y005670D02*
X017683Y005670D01*
X017683Y005571D02*
X017747Y005571D01*
X017747Y005473D02*
X017683Y005473D01*
X017683Y005374D02*
X017747Y005374D01*
X017747Y005275D02*
X017683Y005275D01*
X017683Y005177D02*
X017747Y005177D01*
X017747Y005078D02*
X017683Y005078D01*
X017747Y004980D02*
X017587Y004980D01*
X017747Y004881D02*
X016683Y004881D01*
X016683Y004783D02*
X017747Y004783D01*
X017747Y004684D02*
X016683Y004684D01*
X016683Y004586D02*
X017747Y004586D01*
X017747Y004487D02*
X016683Y004487D01*
X016789Y004389D02*
X017747Y004389D01*
X017747Y004290D02*
X016846Y004290D01*
X016873Y004191D02*
X017747Y004191D01*
X017747Y004093D02*
X016873Y004093D01*
X016839Y003994D02*
X017747Y003994D01*
X017747Y003896D02*
X016771Y003896D01*
X016616Y003797D02*
X017747Y003797D01*
X017746Y002516D02*
X016641Y002516D01*
X016788Y002418D02*
X017746Y002418D01*
X017746Y002319D02*
X016856Y002319D01*
X016887Y002221D02*
X017746Y002221D01*
X016391Y003797D02*
X014116Y003797D01*
X014271Y003896D02*
X016236Y003896D01*
X016503Y004151D02*
X016503Y004901D01*
X015503Y004901D01*
X015503Y007151D01*
X016253Y007151D01*
X016307Y007098D01*
X016307Y006693D01*
X016503Y006693D02*
X016503Y007000D01*
X016487Y007000D01*
X016487Y007023D01*
X016487Y007164D01*
X016520Y007130D01*
X016520Y007000D01*
X016504Y007000D01*
X016504Y006693D01*
X016503Y006693D01*
X016503Y006655D02*
X016504Y006655D01*
X016503Y006556D02*
X016504Y006556D01*
X016503Y006458D02*
X016504Y006458D01*
X016503Y006754D02*
X016504Y006754D01*
X016503Y006852D02*
X016504Y006852D01*
X016503Y006951D02*
X016504Y006951D01*
X016487Y007049D02*
X016520Y007049D01*
X016502Y007148D02*
X016487Y007148D01*
X016700Y007204D02*
X016503Y007401D01*
X016503Y008651D01*
X016166Y008922D02*
X013483Y008922D01*
X013483Y009020D02*
X016271Y009020D01*
X016109Y008823D02*
X013483Y008823D01*
X013483Y008724D02*
X016073Y008724D01*
X016073Y008626D02*
X013483Y008626D01*
X013483Y008527D02*
X016089Y008527D01*
X016130Y008429D02*
X013483Y008429D01*
X013483Y008330D02*
X016216Y008330D01*
X016323Y008232D02*
X013483Y008232D01*
X013483Y008133D02*
X016323Y008133D01*
X016323Y008035D02*
X013483Y008035D01*
X013483Y007936D02*
X013765Y007936D01*
X013787Y007345D02*
X012720Y007345D01*
X012742Y007936D02*
X013023Y007936D01*
X013023Y008035D02*
X009381Y008035D01*
X009283Y007936D02*
X012265Y007936D01*
X012287Y007345D02*
X011616Y007345D01*
X011616Y007246D02*
X014773Y007246D01*
X014773Y007148D02*
X011616Y007148D01*
X011616Y007049D02*
X014773Y007049D01*
X014773Y006951D02*
X011616Y006951D01*
X011595Y006852D02*
X014773Y006852D01*
X014773Y006754D02*
X010859Y006754D01*
X010859Y006852D02*
X011160Y006852D01*
X011139Y006951D02*
X010868Y006951D01*
X010868Y007049D02*
X011139Y007049D01*
X011139Y007148D02*
X010868Y007148D01*
X010868Y007246D02*
X011139Y007246D01*
X011139Y007345D02*
X010868Y007345D01*
X010868Y007443D02*
X011139Y007443D01*
X011147Y007542D02*
X005438Y007542D01*
X005339Y007640D02*
X011168Y007640D01*
X011266Y007739D02*
X005241Y007739D01*
X005142Y007838D02*
X008418Y007838D01*
X008224Y007936D02*
X005044Y007936D01*
X004945Y008035D02*
X008126Y008035D01*
X008027Y008133D02*
X004847Y008133D01*
X004748Y008232D02*
X007975Y008232D01*
X007934Y008330D02*
X004733Y008330D01*
X004733Y008429D02*
X007893Y008429D01*
X007874Y008527D02*
X004733Y008527D01*
X004733Y008626D02*
X007874Y008626D01*
X007874Y008724D02*
X004733Y008724D01*
X004733Y008823D02*
X006293Y008823D01*
X006188Y008922D02*
X004797Y008922D01*
X004850Y009020D02*
X006136Y009020D01*
X006113Y009119D02*
X004873Y009119D01*
X004895Y009217D02*
X006119Y009217D01*
X006149Y009316D02*
X004993Y009316D01*
X005092Y009414D02*
X006215Y009414D01*
X006473Y009119D02*
X006533Y009119D01*
X006533Y009020D02*
X006473Y009020D01*
X006473Y008922D02*
X006533Y008922D01*
X006533Y008823D02*
X006473Y008823D01*
X006714Y008823D02*
X007874Y008823D01*
X007913Y008922D02*
X006819Y008922D01*
X006871Y009020D02*
X007954Y009020D01*
X007995Y009119D02*
X006893Y009119D01*
X006888Y009217D02*
X008075Y009217D01*
X008160Y009316D02*
X008174Y009316D01*
X008290Y009414D02*
X008296Y009414D01*
X008347Y009513D02*
X008534Y009513D01*
X008373Y009611D02*
X009133Y009611D01*
X009119Y009710D02*
X008373Y009710D01*
X008339Y009808D02*
X009021Y009808D01*
X008922Y009907D02*
X008271Y009907D01*
X008115Y010006D02*
X008824Y010006D01*
X008725Y010104D02*
X003983Y010104D01*
X003983Y010006D02*
X007892Y010006D01*
X007736Y009907D02*
X004073Y009907D01*
X004171Y009808D02*
X004835Y009808D01*
X004737Y009710D02*
X004270Y009710D01*
X004369Y009611D02*
X004638Y009611D01*
X004553Y010203D02*
X004609Y010212D01*
X004676Y010234D01*
X004739Y010266D01*
X004797Y010308D01*
X004847Y010358D01*
X004888Y010415D01*
X004920Y010478D01*
X004942Y010546D01*
X004951Y010601D01*
X004554Y010601D01*
X004554Y010701D01*
X004951Y010701D01*
X004942Y010757D01*
X004920Y010824D01*
X004888Y010887D01*
X004847Y010944D01*
X004797Y010994D01*
X004739Y011036D01*
X004676Y011068D01*
X004609Y011090D01*
X004553Y011099D01*
X004553Y010701D01*
X004453Y010701D01*
X004453Y010601D01*
X004056Y010601D01*
X004065Y010546D01*
X004086Y010478D01*
X004119Y010415D01*
X004160Y010358D01*
X004210Y010308D01*
X004268Y010266D01*
X004331Y010234D01*
X004398Y010212D01*
X004453Y010203D01*
X004453Y010601D01*
X004553Y010601D01*
X004553Y010203D01*
X004553Y010301D02*
X004453Y010301D01*
X004453Y010400D02*
X004553Y010400D01*
X004553Y010498D02*
X004453Y010498D01*
X004453Y010597D02*
X004553Y010597D01*
X004554Y010695D02*
X008134Y010695D01*
X008233Y010597D02*
X004950Y010597D01*
X004927Y010498D02*
X008331Y010498D01*
X008430Y010400D02*
X004877Y010400D01*
X004787Y010301D02*
X008528Y010301D01*
X008627Y010203D02*
X003983Y010203D01*
X003983Y010301D02*
X004220Y010301D01*
X004130Y010400D02*
X003983Y010400D01*
X003983Y010498D02*
X004080Y010498D01*
X004056Y010597D02*
X003983Y010597D01*
X003983Y010695D02*
X004453Y010695D01*
X004453Y010701D02*
X004056Y010701D01*
X004065Y010757D01*
X004086Y010824D01*
X004119Y010887D01*
X004160Y010944D01*
X004210Y010994D01*
X004268Y011036D01*
X004331Y011068D01*
X004398Y011090D01*
X004453Y011099D01*
X004453Y010701D01*
X004453Y010794D02*
X004553Y010794D01*
X004553Y010892D02*
X004453Y010892D01*
X004453Y010991D02*
X004553Y010991D01*
X004553Y011089D02*
X004453Y011089D01*
X004396Y011089D02*
X003983Y011089D01*
X003983Y010991D02*
X004207Y010991D01*
X004123Y010892D02*
X003983Y010892D01*
X003983Y010794D02*
X004077Y010794D01*
X003983Y011188D02*
X005613Y011188D01*
X005613Y011190D02*
X005613Y011181D01*
X005973Y011181D01*
X005973Y011121D01*
X005613Y011121D01*
X005613Y011113D01*
X005628Y011037D01*
X005658Y010966D01*
X005701Y010903D01*
X005755Y010848D01*
X005819Y010806D01*
X005890Y010776D01*
X005965Y010761D01*
X005973Y010761D01*
X005973Y011121D01*
X006033Y011121D01*
X006033Y010761D01*
X006042Y010761D01*
X006117Y010776D01*
X006188Y010806D01*
X006252Y010848D01*
X006306Y010903D01*
X006349Y010966D01*
X006378Y011037D01*
X006393Y011113D01*
X006393Y011121D01*
X006034Y011121D01*
X006034Y011181D01*
X006393Y011181D01*
X006393Y011190D01*
X006378Y011265D01*
X006349Y011336D01*
X006306Y011400D01*
X006252Y011454D01*
X006188Y011497D01*
X006117Y011526D01*
X006042Y011541D01*
X006033Y011541D01*
X006033Y011181D01*
X005973Y011181D01*
X005973Y011541D01*
X005965Y011541D01*
X005890Y011526D01*
X005819Y011497D01*
X005755Y011454D01*
X005701Y011400D01*
X005658Y011336D01*
X005628Y011265D01*
X005613Y011190D01*
X005637Y011287D02*
X004747Y011287D01*
X004845Y011385D02*
X005691Y011385D01*
X005799Y011484D02*
X004899Y011484D01*
X004933Y011582D02*
X006383Y011582D01*
X006383Y011681D02*
X004933Y011681D01*
X004916Y011779D02*
X006406Y011779D01*
X006457Y011878D02*
X006253Y011878D01*
X006331Y011976D02*
X006572Y011976D01*
X006372Y012075D02*
X013023Y012075D01*
X013023Y012173D02*
X006373Y012173D01*
X006354Y012272D02*
X013023Y012272D01*
X013023Y012371D02*
X011246Y012371D01*
X011328Y012469D02*
X012360Y012469D01*
X012262Y012568D02*
X011369Y012568D01*
X011373Y012666D02*
X012163Y012666D01*
X012065Y012765D02*
X011357Y012765D01*
X011315Y012863D02*
X011966Y012863D01*
X011868Y012962D02*
X011233Y012962D01*
X011233Y013060D02*
X011773Y013060D01*
X011773Y013159D02*
X011233Y013159D01*
X011233Y013257D02*
X011773Y013257D01*
X011773Y013356D02*
X011233Y013356D01*
X011233Y013455D02*
X011773Y013455D01*
X011773Y013553D02*
X011233Y013553D01*
X011233Y013652D02*
X011773Y013652D01*
X011773Y013750D02*
X011233Y013750D01*
X011233Y013849D02*
X011773Y013849D01*
X011773Y013947D02*
X011233Y013947D01*
X011233Y014046D02*
X011773Y014046D01*
X011773Y014144D02*
X011233Y014144D01*
X011233Y014243D02*
X011773Y014243D01*
X011705Y014341D02*
X011233Y014341D01*
X011233Y014440D02*
X011626Y014440D01*
X011585Y014539D02*
X011233Y014539D01*
X011233Y014637D02*
X011573Y014637D01*
X011573Y014736D02*
X011233Y014736D01*
X011233Y014834D02*
X011614Y014834D01*
X011677Y014933D02*
X011233Y014933D01*
X011233Y015031D02*
X011797Y015031D01*
X011300Y015622D02*
X017023Y015622D01*
X017023Y015524D02*
X011233Y015524D01*
X011233Y015425D02*
X017023Y015425D01*
X017023Y015327D02*
X011233Y015327D01*
X011233Y015228D02*
X017023Y015228D01*
X017023Y015130D02*
X011233Y015130D01*
X010773Y015130D02*
X009807Y015130D01*
X009733Y015031D02*
X010773Y015031D01*
X010773Y014933D02*
X009733Y014933D01*
X009733Y014834D02*
X010773Y014834D01*
X010773Y014736D02*
X009733Y014736D01*
X009733Y014637D02*
X010773Y014637D01*
X010773Y014539D02*
X009733Y014539D01*
X009733Y014440D02*
X010773Y014440D01*
X010773Y014341D02*
X009733Y014341D01*
X009733Y014243D02*
X010773Y014243D01*
X010773Y014144D02*
X009733Y014144D01*
X009733Y014046D02*
X010773Y014046D01*
X010773Y013947D02*
X009733Y013947D01*
X009822Y013849D02*
X010773Y013849D01*
X010773Y013750D02*
X009863Y013750D01*
X009873Y013652D02*
X010773Y013652D01*
X010773Y013553D02*
X009863Y013553D01*
X009822Y013455D02*
X010773Y013455D01*
X010773Y013356D02*
X009731Y013356D01*
X009273Y014144D02*
X006534Y014144D01*
X006533Y014243D02*
X006473Y014243D01*
X006473Y014341D02*
X006533Y014341D01*
X006533Y014440D02*
X006473Y014440D01*
X006473Y014539D02*
X006533Y014539D01*
X006555Y014539D02*
X009273Y014539D01*
X009273Y014637D02*
X003253Y014637D01*
X003253Y014539D02*
X006452Y014539D01*
X006766Y014440D02*
X009273Y014440D01*
X009273Y014341D02*
X006845Y014341D01*
X006883Y014243D02*
X009273Y014243D01*
X009273Y014736D02*
X003253Y014736D01*
X003253Y014834D02*
X009273Y014834D01*
X009273Y014933D02*
X003253Y014933D01*
X003253Y015031D02*
X009273Y015031D01*
X009273Y015130D02*
X003253Y015130D01*
X003253Y015228D02*
X009273Y015228D01*
X009354Y015327D02*
X007259Y015327D01*
X007332Y015425D02*
X009452Y015425D01*
X009551Y015524D02*
X007332Y015524D01*
X007332Y015622D02*
X009650Y015622D01*
X009748Y015721D02*
X007332Y015721D01*
X007332Y015820D02*
X009847Y015820D01*
X009945Y015918D02*
X007317Y015918D01*
X007430Y016281D02*
X007577Y016281D01*
X007713Y016338D01*
X007817Y016442D01*
X007873Y016578D01*
X007873Y016725D01*
X007817Y016861D01*
X007713Y016965D01*
X007577Y017021D01*
X007430Y017021D01*
X007294Y016965D01*
X007190Y016861D01*
X007133Y016725D01*
X007133Y016578D01*
X007190Y016442D01*
X007294Y016338D01*
X007430Y016281D01*
X007355Y016312D02*
X006652Y016312D01*
X006713Y016338D02*
X006817Y016442D01*
X006873Y016578D01*
X006873Y016725D01*
X006817Y016861D01*
X006713Y016965D01*
X006577Y017021D01*
X006430Y017021D01*
X006294Y016965D01*
X006190Y016861D01*
X006133Y016725D01*
X006133Y016578D01*
X006190Y016442D01*
X006294Y016338D01*
X006430Y016281D01*
X006577Y016281D01*
X006713Y016338D01*
X006786Y016411D02*
X007221Y016411D01*
X007162Y016509D02*
X006845Y016509D01*
X006873Y016608D02*
X007133Y016608D01*
X007133Y016706D02*
X006873Y016706D01*
X006840Y016805D02*
X007167Y016805D01*
X007233Y016904D02*
X006774Y016904D01*
X006623Y017002D02*
X007384Y017002D01*
X007623Y017002D02*
X008384Y017002D01*
X008430Y017021D02*
X008294Y016965D01*
X008190Y016861D01*
X008133Y016725D01*
X008133Y016578D01*
X008190Y016442D01*
X008294Y016338D01*
X008430Y016281D01*
X008577Y016281D01*
X008713Y016338D01*
X008817Y016442D01*
X008873Y016578D01*
X008873Y016725D01*
X008817Y016861D01*
X008713Y016965D01*
X008577Y017021D01*
X008430Y017021D01*
X008623Y017002D02*
X009332Y017002D01*
X009319Y016997D02*
X009255Y016954D01*
X009201Y016900D01*
X009158Y016836D01*
X009128Y016765D01*
X009113Y016690D01*
X009113Y016681D01*
X009473Y016681D01*
X009473Y016621D01*
X009113Y016621D01*
X009113Y016613D01*
X009128Y016537D01*
X009158Y016466D01*
X009201Y016403D01*
X009255Y016348D01*
X009319Y016306D01*
X009390Y016276D01*
X009465Y016261D01*
X009473Y016261D01*
X009473Y016621D01*
X009533Y016621D01*
X009533Y016261D01*
X009542Y016261D01*
X009617Y016276D01*
X009688Y016306D01*
X009752Y016348D01*
X009806Y016403D01*
X009849Y016466D01*
X009878Y016537D01*
X009893Y016613D01*
X009893Y016621D01*
X009534Y016621D01*
X009534Y016681D01*
X009893Y016681D01*
X009893Y016690D01*
X009878Y016765D01*
X009849Y016836D01*
X009806Y016900D01*
X009752Y016954D01*
X009688Y016997D01*
X009617Y017026D01*
X009542Y017041D01*
X009533Y017041D01*
X009533Y016681D01*
X009473Y016681D01*
X009473Y017041D01*
X009465Y017041D01*
X009390Y017026D01*
X009319Y016997D01*
X009204Y016904D02*
X008774Y016904D01*
X008840Y016805D02*
X009145Y016805D01*
X009117Y016706D02*
X008873Y016706D01*
X008873Y016608D02*
X009114Y016608D01*
X009140Y016509D02*
X008845Y016509D01*
X008786Y016411D02*
X009195Y016411D01*
X009309Y016312D02*
X008652Y016312D01*
X008355Y016312D02*
X007652Y016312D01*
X007786Y016411D02*
X008221Y016411D01*
X008162Y016509D02*
X007845Y016509D01*
X007873Y016608D02*
X008133Y016608D01*
X008133Y016706D02*
X007873Y016706D01*
X007840Y016805D02*
X008167Y016805D01*
X008233Y016904D02*
X007774Y016904D01*
X006748Y015327D02*
X003253Y015327D01*
X003253Y015425D02*
X006154Y015425D01*
X005858Y015721D02*
X004082Y015721D01*
X004082Y015820D02*
X005760Y015820D01*
X005661Y015918D02*
X004082Y015918D01*
X004082Y016017D02*
X005563Y016017D01*
X005464Y016115D02*
X004082Y016115D01*
X004021Y016214D02*
X005366Y016214D01*
X005273Y016312D02*
X003983Y016312D01*
X003983Y016411D02*
X005273Y016411D01*
X005273Y016509D02*
X003983Y016509D01*
X003983Y016608D02*
X005273Y016608D01*
X005273Y016706D02*
X003983Y016706D01*
X003983Y016805D02*
X004320Y016805D01*
X004319Y016806D02*
X004390Y016776D01*
X004465Y016761D01*
X004473Y016761D01*
X004473Y017121D01*
X004113Y017121D01*
X004113Y017113D01*
X004128Y017037D01*
X004158Y016966D01*
X004201Y016903D01*
X004255Y016848D01*
X004319Y016806D01*
X004200Y016904D02*
X003983Y016904D01*
X003983Y017002D02*
X004143Y017002D01*
X004116Y017101D02*
X003983Y017101D01*
X003983Y017199D02*
X004115Y017199D01*
X004113Y017190D02*
X004113Y017181D01*
X004473Y017181D01*
X004473Y017121D01*
X004533Y017121D01*
X004533Y016761D01*
X004542Y016761D01*
X004617Y016776D01*
X004688Y016806D01*
X004752Y016848D01*
X004806Y016903D01*
X004849Y016966D01*
X004878Y017037D01*
X004893Y017113D01*
X004893Y017121D01*
X004534Y017121D01*
X004534Y017181D01*
X004893Y017181D01*
X004893Y017190D01*
X004878Y017265D01*
X004849Y017336D01*
X004806Y017400D01*
X004752Y017454D01*
X004688Y017497D01*
X004617Y017526D01*
X004542Y017541D01*
X004533Y017541D01*
X004533Y017181D01*
X004473Y017181D01*
X004473Y017541D01*
X004465Y017541D01*
X004390Y017526D01*
X004319Y017497D01*
X004255Y017454D01*
X004201Y017400D01*
X004158Y017336D01*
X004128Y017265D01*
X004113Y017190D01*
X004142Y017298D02*
X003983Y017298D01*
X003983Y017396D02*
X004198Y017396D01*
X004316Y017495D02*
X003983Y017495D01*
X003983Y017593D02*
X004986Y017593D01*
X005085Y017495D02*
X004691Y017495D01*
X004809Y017396D02*
X005183Y017396D01*
X005273Y017298D02*
X004865Y017298D01*
X004892Y017199D02*
X005273Y017199D01*
X005273Y017101D02*
X004891Y017101D01*
X004864Y017002D02*
X005273Y017002D01*
X005273Y016904D02*
X004807Y016904D01*
X004687Y016805D02*
X005273Y016805D01*
X005733Y016805D02*
X006167Y016805D01*
X006133Y016706D02*
X005733Y016706D01*
X005733Y016608D02*
X006133Y016608D01*
X006162Y016509D02*
X005733Y016509D01*
X005819Y016411D02*
X006221Y016411D01*
X006355Y016312D02*
X005918Y016312D01*
X006016Y016214D02*
X010023Y016214D01*
X010023Y016312D02*
X009698Y016312D01*
X009812Y016411D02*
X010023Y016411D01*
X010023Y016509D02*
X009867Y016509D01*
X009892Y016608D02*
X010023Y016608D01*
X010023Y016706D02*
X009890Y016706D01*
X009862Y016805D02*
X010023Y016805D01*
X010023Y016904D02*
X009803Y016904D01*
X009675Y017002D02*
X010023Y017002D01*
X010023Y017101D02*
X005733Y017101D01*
X005733Y017199D02*
X010023Y017199D01*
X010023Y017298D02*
X005733Y017298D01*
X005733Y017396D02*
X010023Y017396D01*
X010023Y017495D02*
X005733Y017495D01*
X005636Y017593D02*
X010023Y017593D01*
X010023Y017692D02*
X005538Y017692D01*
X005439Y017790D02*
X010023Y017790D01*
X010023Y017889D02*
X005341Y017889D01*
X005242Y017988D02*
X010023Y017988D01*
X010023Y018086D02*
X005144Y018086D01*
X005045Y018185D02*
X010023Y018185D01*
X010023Y018283D02*
X004947Y018283D01*
X004848Y018382D02*
X010023Y018382D01*
X010023Y018480D02*
X004750Y018480D01*
X004733Y018579D02*
X010023Y018579D01*
X010023Y018677D02*
X004733Y018677D01*
X004733Y018776D02*
X010023Y018776D01*
X010023Y018874D02*
X004750Y018874D01*
X004830Y018973D02*
X009856Y018973D01*
X009758Y019071D02*
X004871Y019071D01*
X004873Y019170D02*
X009659Y019170D01*
X009561Y019269D02*
X004855Y019269D01*
X004811Y019367D02*
X006264Y019367D01*
X006287Y019958D02*
X003983Y019958D01*
X003983Y019860D02*
X004637Y019860D01*
X004538Y019761D02*
X003983Y019761D01*
X003983Y019663D02*
X004440Y019663D01*
X004341Y019564D02*
X003983Y019564D01*
X003983Y019466D02*
X004273Y019466D01*
X004196Y019367D02*
X003983Y019367D01*
X003983Y019269D02*
X004152Y019269D01*
X004133Y019170D02*
X003983Y019170D01*
X003983Y019071D02*
X004136Y019071D01*
X004177Y018973D02*
X003983Y018973D01*
X003983Y018874D02*
X004257Y018874D01*
X004273Y018776D02*
X003983Y018776D01*
X003983Y018677D02*
X004273Y018677D01*
X004273Y018579D02*
X003983Y018579D01*
X003983Y018480D02*
X004273Y018480D01*
X004273Y018382D02*
X003983Y018382D01*
X003983Y018283D02*
X004296Y018283D01*
X004395Y018185D02*
X003983Y018185D01*
X003983Y018086D02*
X004493Y018086D01*
X004592Y017988D02*
X003983Y017988D01*
X003983Y017889D02*
X004690Y017889D01*
X004789Y017790D02*
X003983Y017790D01*
X003983Y017692D02*
X004887Y017692D01*
X004533Y017495D02*
X004473Y017495D01*
X004473Y017396D02*
X004533Y017396D01*
X004533Y017298D02*
X004473Y017298D01*
X004473Y017199D02*
X004533Y017199D01*
X004533Y017101D02*
X004473Y017101D01*
X004473Y017002D02*
X004533Y017002D01*
X004533Y016904D02*
X004473Y016904D01*
X004473Y016805D02*
X004533Y016805D01*
X005733Y016904D02*
X006233Y016904D01*
X006384Y017002D02*
X005733Y017002D01*
X006115Y016115D02*
X010023Y016115D01*
X010023Y016017D02*
X006213Y016017D01*
X006312Y015918D02*
X006690Y015918D01*
X007430Y019281D02*
X007577Y019281D01*
X007713Y019338D01*
X007817Y019442D01*
X007873Y019578D01*
X007873Y019725D01*
X007817Y019861D01*
X007713Y019965D01*
X007577Y020021D01*
X007430Y020021D01*
X007294Y019965D01*
X007190Y019861D01*
X007133Y019725D01*
X007133Y019578D01*
X007190Y019442D01*
X007294Y019338D01*
X007430Y019281D01*
X007264Y019367D02*
X006743Y019367D01*
X006827Y019466D02*
X007180Y019466D01*
X007139Y019564D02*
X006868Y019564D01*
X006873Y019663D02*
X007133Y019663D01*
X007149Y019761D02*
X006939Y019761D01*
X007037Y019860D02*
X007189Y019860D01*
X007136Y019958D02*
X007287Y019958D01*
X007234Y020057D02*
X011859Y020057D01*
X011703Y019958D02*
X009719Y019958D01*
X009817Y019860D02*
X011624Y019860D01*
X011584Y019761D02*
X009858Y019761D01*
X009873Y019663D02*
X011573Y019663D01*
X011574Y019564D02*
X009916Y019564D01*
X010014Y019466D02*
X011615Y019466D01*
X011631Y018874D02*
X010483Y018874D01*
X010483Y018776D02*
X011590Y018776D01*
X011573Y018677D02*
X010483Y018677D01*
X010483Y018579D02*
X011573Y018579D01*
X011609Y018480D02*
X010483Y018480D01*
X010483Y018382D02*
X011665Y018382D01*
X011768Y018283D02*
X010483Y018283D01*
X010483Y018185D02*
X011965Y018185D01*
X012064Y018086D02*
X010483Y018086D01*
X010483Y017988D02*
X011732Y017988D01*
X011637Y017889D02*
X010483Y017889D01*
X010483Y017790D02*
X011596Y017790D01*
X011573Y017692D02*
X010483Y017692D01*
X010483Y017593D02*
X011573Y017593D01*
X011603Y017495D02*
X010483Y017495D01*
X010483Y017396D02*
X011650Y017396D01*
X011749Y017298D02*
X010483Y017298D01*
X010483Y017199D02*
X011773Y017199D01*
X011773Y017101D02*
X010483Y017101D01*
X010483Y017002D02*
X011773Y017002D01*
X011773Y016904D02*
X010483Y016904D01*
X010483Y016805D02*
X011773Y016805D01*
X011734Y016706D02*
X010483Y016706D01*
X010483Y016608D02*
X011635Y016608D01*
X011536Y016509D02*
X010483Y016509D01*
X010483Y016411D02*
X011438Y016411D01*
X011339Y016312D02*
X010483Y016312D01*
X010483Y016214D02*
X011241Y016214D01*
X011142Y016115D02*
X010483Y016115D01*
X010483Y016017D02*
X011044Y016017D01*
X010945Y015918D02*
X010483Y015918D01*
X010483Y015820D02*
X010847Y015820D01*
X010773Y015721D02*
X010399Y015721D01*
X010349Y015671D02*
X010349Y015671D01*
X010300Y015622D02*
X010773Y015622D01*
X010773Y015524D02*
X010201Y015524D01*
X010103Y015425D02*
X010773Y015425D01*
X010773Y015327D02*
X010004Y015327D01*
X009906Y015228D02*
X010773Y015228D01*
X011399Y015721D02*
X017023Y015721D01*
X017023Y015820D02*
X011497Y015820D01*
X011596Y015918D02*
X017023Y015918D01*
X017023Y016017D02*
X011694Y016017D01*
X011793Y016115D02*
X017023Y016115D01*
X017023Y016214D02*
X011891Y016214D01*
X011990Y016312D02*
X017023Y016312D01*
X017023Y016411D02*
X012088Y016411D01*
X012187Y016509D02*
X017023Y016509D01*
X017023Y016608D02*
X012233Y016608D01*
X012233Y016706D02*
X015001Y016706D01*
X015206Y016706D02*
X015801Y016706D01*
X016006Y016706D02*
X017023Y016706D01*
X017023Y016805D02*
X016194Y016805D01*
X016288Y016904D02*
X017023Y016904D01*
X017023Y017002D02*
X016329Y017002D01*
X016353Y017101D02*
X017023Y017101D01*
X017023Y017199D02*
X016353Y017199D01*
X016330Y017298D02*
X017023Y017298D01*
X017023Y017396D02*
X016289Y017396D01*
X016196Y017495D02*
X017023Y017495D01*
X017023Y017593D02*
X016053Y017593D01*
X016056Y017692D02*
X017023Y017692D01*
X017023Y017790D02*
X016026Y017790D01*
X015947Y017889D02*
X016186Y017889D01*
X016503Y018151D02*
X015753Y018151D01*
X015926Y018382D02*
X016175Y018382D01*
X016006Y018480D02*
X017023Y018480D01*
X017023Y018382D02*
X016832Y018382D01*
X016832Y018283D02*
X017023Y018283D01*
X017023Y018185D02*
X016832Y018185D01*
X016832Y018086D02*
X017023Y018086D01*
X017023Y017988D02*
X016832Y017988D01*
X016821Y017889D02*
X017023Y017889D01*
X017023Y018579D02*
X016050Y018579D01*
X016032Y018776D02*
X017023Y018776D01*
X017023Y018874D02*
X016807Y018874D01*
X016832Y018973D02*
X017023Y018973D01*
X017023Y019071D02*
X016832Y019071D01*
X016832Y019170D02*
X017023Y019170D01*
X017023Y019269D02*
X016832Y019269D01*
X016832Y019367D02*
X017023Y019367D01*
X017023Y019466D02*
X016769Y019466D01*
X017023Y019564D02*
X016047Y019564D01*
X015996Y019466D02*
X016238Y019466D01*
X016175Y019367D02*
X015941Y019367D01*
X015753Y019151D02*
X016503Y019151D01*
X016200Y018874D02*
X015962Y018874D01*
X015803Y018677D02*
X017023Y018677D01*
X017023Y019663D02*
X015803Y019663D01*
X016038Y019761D02*
X017023Y019761D01*
X017023Y019860D02*
X015976Y019860D01*
X015911Y019958D02*
X017023Y019958D01*
X017023Y020057D02*
X015951Y020057D01*
X015953Y020155D02*
X017023Y020155D01*
X017023Y020254D02*
X015948Y020254D01*
X015907Y020353D02*
X017023Y020353D01*
X017023Y020451D02*
X015840Y020451D01*
X015717Y020550D02*
X017023Y020550D01*
X017023Y020648D02*
X013233Y020648D01*
X013233Y020550D02*
X015290Y020550D01*
X015167Y020451D02*
X013233Y020451D01*
X013233Y020353D02*
X015100Y020353D01*
X015059Y020254D02*
X013233Y020254D01*
X013233Y020155D02*
X015053Y020155D01*
X015055Y020057D02*
X013233Y020057D01*
X013304Y019958D02*
X013981Y019958D01*
X013925Y019860D02*
X013382Y019860D01*
X013503Y019651D02*
X014003Y019151D01*
X015253Y019151D01*
X015253Y018651D02*
X014003Y018651D01*
X014332Y018471D02*
X015030Y018471D01*
X015092Y018410D01*
X015059Y018388D01*
X015017Y018346D01*
X014983Y018296D01*
X014960Y018240D01*
X014948Y018181D01*
X014948Y018179D01*
X015203Y018179D01*
X015203Y018124D01*
X014948Y018124D01*
X014948Y018121D01*
X014960Y018062D01*
X014983Y018007D01*
X015017Y017957D01*
X015059Y017914D01*
X015092Y017892D01*
X015030Y017831D01*
X014679Y017831D01*
X014573Y017726D01*
X014179Y017331D01*
X013320Y017331D01*
X013347Y017358D01*
X013388Y017415D01*
X013420Y017478D01*
X013442Y017546D01*
X013451Y017601D01*
X013054Y017601D01*
X013054Y017701D01*
X013451Y017701D01*
X013442Y017757D01*
X013420Y017824D01*
X013388Y017887D01*
X013347Y017944D01*
X013320Y017971D01*
X013675Y017971D01*
X013675Y017899D01*
X013751Y017823D01*
X014255Y017823D01*
X014332Y017899D01*
X014332Y018399D01*
X014332Y018471D01*
X014332Y018382D02*
X015053Y018382D01*
X014978Y018283D02*
X014332Y018283D01*
X014332Y018185D02*
X014949Y018185D01*
X014955Y018086D02*
X014332Y018086D01*
X014332Y017988D02*
X014996Y017988D01*
X015088Y017889D02*
X014321Y017889D01*
X014253Y017651D02*
X013003Y017651D01*
X012953Y017692D02*
X012433Y017692D01*
X012433Y017737D02*
X012368Y017895D01*
X012291Y017971D01*
X012687Y017971D01*
X012660Y017944D01*
X012619Y017887D01*
X012586Y017824D01*
X012565Y017757D01*
X012556Y017701D01*
X012953Y017701D01*
X012953Y017601D01*
X012556Y017601D01*
X012565Y017546D01*
X012586Y017478D01*
X012619Y017415D01*
X012660Y017358D01*
X012687Y017331D01*
X012291Y017331D01*
X012368Y017408D01*
X012433Y017566D01*
X012433Y017737D01*
X012411Y017790D02*
X012576Y017790D01*
X012620Y017889D02*
X012370Y017889D01*
X012253Y018151D02*
X014003Y018151D01*
X013675Y018382D02*
X013342Y018382D01*
X013398Y018480D02*
X013675Y018480D01*
X013675Y018579D02*
X013433Y018579D01*
X013433Y018677D02*
X013675Y018677D01*
X013675Y018776D02*
X013417Y018776D01*
X013376Y018874D02*
X013675Y018874D01*
X013745Y018973D02*
X013290Y018973D01*
X013112Y019071D02*
X013829Y019071D01*
X013730Y019170D02*
X012810Y019170D01*
X012803Y019269D02*
X012711Y019269D01*
X012679Y019367D02*
X012613Y019367D01*
X012615Y019466D02*
X012392Y019466D01*
X012433Y019564D02*
X012574Y019564D01*
X012573Y019663D02*
X012433Y019663D01*
X012423Y019761D02*
X012584Y019761D01*
X012624Y019860D02*
X012382Y019860D01*
X012304Y019958D02*
X012703Y019958D01*
X012773Y020057D02*
X012147Y020057D01*
X012484Y020845D02*
X010273Y020845D01*
X010174Y020747D02*
X012583Y020747D01*
X012681Y020648D02*
X010076Y020648D01*
X009977Y020550D02*
X012773Y020550D01*
X012773Y020451D02*
X009879Y020451D01*
X009721Y020944D02*
X006834Y020944D01*
X006879Y021042D02*
X009819Y021042D01*
X009918Y021141D02*
X006534Y021141D01*
X006473Y021141D02*
X004873Y021141D01*
X004859Y021042D02*
X006127Y021042D01*
X006173Y020944D02*
X004818Y020944D01*
X004721Y020845D02*
X006259Y020845D01*
X006473Y020845D02*
X006533Y020845D01*
X006533Y020944D02*
X006473Y020944D01*
X006473Y021042D02*
X006533Y021042D01*
X006748Y020845D02*
X007372Y020845D01*
X007274Y020747D02*
X003983Y020747D01*
X003983Y020845D02*
X004286Y020845D01*
X003983Y020648D02*
X007175Y020648D01*
X007077Y020550D02*
X003983Y020550D01*
X003983Y020451D02*
X006978Y020451D01*
X006880Y020353D02*
X003983Y020353D01*
X003983Y020254D02*
X006781Y020254D01*
X006683Y020155D02*
X003983Y020155D01*
X003983Y020057D02*
X006584Y020057D01*
X007333Y020155D02*
X012773Y020155D01*
X012773Y020254D02*
X007431Y020254D01*
X007530Y020353D02*
X012773Y020353D01*
X013233Y020747D02*
X017023Y020747D01*
X017023Y020845D02*
X013135Y020845D01*
X013036Y020944D02*
X017023Y020944D01*
X017023Y021042D02*
X014604Y021042D01*
X014577Y021031D02*
X014713Y021088D01*
X014817Y021192D01*
X014873Y021328D01*
X014873Y021475D01*
X014817Y021611D01*
X014713Y021715D01*
X014577Y021771D01*
X014430Y021771D01*
X014294Y021715D01*
X014190Y021611D01*
X014133Y021475D01*
X014133Y021328D01*
X014190Y021192D01*
X014294Y021088D01*
X014430Y021031D01*
X014577Y021031D01*
X014403Y021042D02*
X012937Y021042D01*
X012839Y021141D02*
X014240Y021141D01*
X014170Y021239D02*
X012740Y021239D01*
X012642Y021338D02*
X014133Y021338D01*
X014133Y021437D02*
X012543Y021437D01*
X012445Y021535D02*
X014158Y021535D01*
X014213Y021634D02*
X010794Y021634D01*
X010671Y021732D02*
X014336Y021732D01*
X014671Y021732D02*
X017023Y021732D01*
X017023Y021634D02*
X014794Y021634D01*
X014848Y021535D02*
X017023Y021535D01*
X017023Y021437D02*
X014873Y021437D01*
X014873Y021338D02*
X017023Y021338D01*
X017023Y021239D02*
X014837Y021239D01*
X014766Y021141D02*
X017023Y021141D01*
X017023Y021831D02*
X009830Y021831D01*
X009817Y021861D02*
X009713Y021965D01*
X009577Y022021D01*
X009459Y022021D01*
X007599Y023881D01*
X007408Y023881D01*
X007047Y023881D01*
X006963Y023965D01*
X006827Y024021D01*
X006680Y024021D01*
X006544Y023965D01*
X006440Y023861D01*
X006383Y023725D01*
X006383Y023578D01*
X006440Y023442D01*
X006544Y023338D01*
X006680Y023281D01*
X006827Y023281D01*
X006963Y023338D01*
X007047Y023421D01*
X007408Y023421D01*
X009133Y021696D01*
X009133Y021578D01*
X009190Y021442D01*
X009294Y021338D01*
X009430Y021281D01*
X009577Y021281D01*
X009713Y021338D01*
X009817Y021442D01*
X009873Y021578D01*
X009873Y021725D01*
X009817Y021861D01*
X009749Y021929D02*
X017023Y021929D01*
X017023Y022028D02*
X016444Y022028D01*
X016682Y022126D02*
X017023Y022126D01*
X017023Y022225D02*
X016822Y022225D01*
X016920Y022323D02*
X017023Y022323D01*
X017023Y022422D02*
X017007Y022422D01*
X016992Y023407D02*
X017023Y023407D01*
X017023Y023506D02*
X016893Y023506D01*
X016795Y023604D02*
X017023Y023604D01*
X017023Y023703D02*
X016617Y023703D01*
X015712Y023604D02*
X014733Y023604D01*
X014733Y023506D02*
X015614Y023506D01*
X015515Y023407D02*
X014733Y023407D01*
X014733Y023309D02*
X015470Y023309D01*
X015429Y023210D02*
X014733Y023210D01*
X014816Y023112D02*
X015388Y023112D01*
X015374Y023013D02*
X014858Y023013D01*
X014873Y022915D02*
X015374Y022915D01*
X015374Y022816D02*
X014869Y022816D01*
X014828Y022718D02*
X015377Y022718D01*
X015418Y022619D02*
X014745Y022619D01*
X015459Y022521D02*
X008959Y022521D01*
X008861Y022619D02*
X010262Y022619D01*
X010179Y022718D02*
X008762Y022718D01*
X008664Y022816D02*
X010138Y022816D01*
X010133Y022915D02*
X008565Y022915D01*
X008467Y023013D02*
X010149Y023013D01*
X010191Y023112D02*
X008368Y023112D01*
X008270Y023210D02*
X010273Y023210D01*
X010273Y023309D02*
X008171Y023309D01*
X008072Y023407D02*
X010273Y023407D01*
X010273Y023506D02*
X007974Y023506D01*
X007875Y023604D02*
X010273Y023604D01*
X010273Y023703D02*
X007777Y023703D01*
X007678Y023802D02*
X010273Y023802D01*
X010273Y023900D02*
X007028Y023900D01*
X006881Y023999D02*
X010273Y023999D01*
X010273Y024097D02*
X006373Y024097D01*
X006373Y024196D02*
X010273Y024196D01*
X010273Y024294D02*
X006345Y024294D01*
X006285Y024393D02*
X010273Y024393D01*
X010273Y024491D02*
X007169Y024491D01*
X007267Y024590D02*
X010273Y024590D01*
X010273Y024688D02*
X007366Y024688D01*
X007464Y024787D02*
X010273Y024787D01*
X010273Y024886D02*
X007563Y024886D01*
X007662Y024984D02*
X010273Y024984D01*
X010360Y025083D02*
X007760Y025083D01*
X007859Y025181D02*
X010458Y025181D01*
X010557Y025280D02*
X007957Y025280D01*
X008254Y025378D02*
X009253Y025378D01*
X009175Y025477D02*
X008332Y025477D01*
X008372Y025575D02*
X009134Y025575D01*
X009133Y025674D02*
X008373Y025674D01*
X008354Y025772D02*
X009153Y025772D01*
X009200Y025871D02*
X008307Y025871D01*
X008202Y025970D02*
X009305Y025970D01*
X009754Y025378D02*
X010655Y025378D01*
X009058Y022422D02*
X015499Y022422D01*
X015587Y022323D02*
X009156Y022323D01*
X009255Y022225D02*
X015685Y022225D01*
X015825Y022126D02*
X009354Y022126D01*
X009452Y022028D02*
X016063Y022028D01*
X015245Y023802D02*
X014733Y023802D01*
X014828Y023900D02*
X015146Y023900D01*
X017753Y026758D02*
X003253Y026758D01*
X003253Y026856D02*
X017753Y026856D01*
X017753Y026955D02*
X003253Y026955D01*
X003253Y027054D02*
X017753Y027054D01*
X017753Y027152D02*
X003253Y027152D01*
X003253Y027251D02*
X017753Y027251D01*
X017753Y027349D02*
X003253Y027349D01*
X003983Y025871D02*
X004260Y025871D01*
X003983Y025575D02*
X007602Y025575D01*
X007504Y025477D02*
X003983Y025477D01*
X003983Y025378D02*
X007405Y025378D01*
X007307Y025280D02*
X003983Y025280D01*
X003983Y025181D02*
X007208Y025181D01*
X007110Y025083D02*
X003983Y025083D01*
X003983Y024984D02*
X004228Y024984D01*
X004135Y024886D02*
X003983Y024886D01*
X003983Y024787D02*
X004094Y024787D01*
X004073Y024688D02*
X003983Y024688D01*
X003983Y024590D02*
X004073Y024590D01*
X004104Y024491D02*
X003983Y024491D01*
X003983Y024393D02*
X004154Y024393D01*
X004252Y024294D02*
X003983Y024294D01*
X003983Y024196D02*
X005633Y024196D01*
X005633Y024097D02*
X003983Y024097D01*
X003983Y023999D02*
X004243Y023999D01*
X004144Y023900D02*
X003983Y023900D01*
X003983Y023407D02*
X004139Y023407D01*
X004238Y023309D02*
X003983Y023309D01*
X003983Y023210D02*
X005618Y023210D01*
X005613Y023190D02*
X005613Y023181D01*
X005973Y023181D01*
X005973Y023121D01*
X005613Y023121D01*
X005613Y023113D01*
X005628Y023037D01*
X005658Y022966D01*
X005701Y022903D01*
X005755Y022848D01*
X005819Y022806D01*
X005890Y022776D01*
X005965Y022761D01*
X005973Y022761D01*
X005973Y023121D01*
X006033Y023121D01*
X006033Y022761D01*
X006042Y022761D01*
X006117Y022776D01*
X006188Y022806D01*
X006252Y022848D01*
X006306Y022903D01*
X006349Y022966D01*
X006378Y023037D01*
X006393Y023113D01*
X006393Y023121D01*
X006034Y023121D01*
X006034Y023181D01*
X006393Y023181D01*
X006393Y023190D01*
X006378Y023265D01*
X006349Y023336D01*
X006306Y023400D01*
X006252Y023454D01*
X006188Y023497D01*
X006117Y023526D01*
X006042Y023541D01*
X006033Y023541D01*
X006033Y023181D01*
X005973Y023181D01*
X005973Y023541D01*
X005965Y023541D01*
X005890Y023526D01*
X005819Y023497D01*
X005755Y023454D01*
X005701Y023400D01*
X005658Y023336D01*
X005628Y023265D01*
X005613Y023190D01*
X005614Y023112D02*
X003983Y023112D01*
X003983Y023013D02*
X004236Y023013D01*
X004210Y022994D02*
X004160Y022944D01*
X004119Y022887D01*
X004086Y022824D01*
X004065Y022757D01*
X004056Y022701D01*
X004453Y022701D01*
X004453Y022601D01*
X004056Y022601D01*
X004065Y022546D01*
X004086Y022478D01*
X004119Y022415D01*
X004160Y022358D01*
X004210Y022308D01*
X004268Y022266D01*
X004331Y022234D01*
X004398Y022212D01*
X004453Y022203D01*
X004453Y022601D01*
X004553Y022601D01*
X004553Y022203D01*
X004609Y022212D01*
X004676Y022234D01*
X004739Y022266D01*
X004797Y022308D01*
X004847Y022358D01*
X004888Y022415D01*
X004920Y022478D01*
X004942Y022546D01*
X004951Y022601D01*
X004554Y022601D01*
X004554Y022701D01*
X004951Y022701D01*
X004942Y022757D01*
X004920Y022824D01*
X004888Y022887D01*
X004847Y022944D01*
X004797Y022994D01*
X004739Y023036D01*
X004676Y023068D01*
X004609Y023090D01*
X004553Y023099D01*
X004553Y022701D01*
X004453Y022701D01*
X004453Y023099D01*
X004398Y023090D01*
X004331Y023068D01*
X004268Y023036D01*
X004210Y022994D01*
X004139Y022915D02*
X003983Y022915D01*
X003983Y022816D02*
X004084Y022816D01*
X004058Y022718D02*
X003983Y022718D01*
X003983Y022619D02*
X004453Y022619D01*
X004453Y022521D02*
X004553Y022521D01*
X004554Y022619D02*
X008210Y022619D01*
X008112Y022718D02*
X004949Y022718D01*
X004923Y022816D02*
X005803Y022816D01*
X005692Y022915D02*
X004868Y022915D01*
X004771Y023013D02*
X005638Y023013D01*
X005647Y023309D02*
X004769Y023309D01*
X004868Y023407D02*
X005708Y023407D01*
X005841Y023506D02*
X004909Y023506D01*
X004933Y023604D02*
X006383Y023604D01*
X006383Y023703D02*
X004933Y023703D01*
X004907Y023802D02*
X005881Y023802D01*
X005731Y023900D02*
X004863Y023900D01*
X004764Y023999D02*
X005666Y023999D01*
X005662Y024294D02*
X004755Y024294D01*
X004853Y024393D02*
X005722Y024393D01*
X006126Y023802D02*
X006415Y023802D01*
X006479Y023900D02*
X006276Y023900D01*
X006341Y023999D02*
X006626Y023999D01*
X006413Y023506D02*
X006166Y023506D01*
X006033Y023506D02*
X005973Y023506D01*
X005973Y023407D02*
X006033Y023407D01*
X006033Y023309D02*
X005973Y023309D01*
X005973Y023210D02*
X006033Y023210D01*
X006033Y023112D02*
X005973Y023112D01*
X005973Y023013D02*
X006033Y023013D01*
X006033Y022915D02*
X005973Y022915D01*
X005973Y022816D02*
X006033Y022816D01*
X006204Y022816D02*
X008013Y022816D01*
X007915Y022915D02*
X006314Y022915D01*
X006368Y023013D02*
X007816Y023013D01*
X007718Y023112D02*
X006393Y023112D01*
X006389Y023210D02*
X007619Y023210D01*
X007521Y023309D02*
X006894Y023309D01*
X007033Y023407D02*
X007422Y023407D01*
X006613Y023309D02*
X006360Y023309D01*
X006299Y023407D02*
X006474Y023407D01*
X006913Y024886D02*
X004872Y024886D01*
X004779Y024984D02*
X007011Y024984D01*
X006232Y025871D02*
X004746Y025871D01*
X004829Y025970D02*
X006157Y025970D01*
X004553Y023013D02*
X004453Y023013D01*
X004453Y022915D02*
X004553Y022915D01*
X004553Y022816D02*
X004453Y022816D01*
X004453Y022718D02*
X004553Y022718D01*
X004553Y022422D02*
X004453Y022422D01*
X004453Y022323D02*
X004553Y022323D01*
X004553Y022225D02*
X004453Y022225D01*
X004359Y022225D02*
X003983Y022225D01*
X003983Y022323D02*
X004195Y022323D01*
X004115Y022422D02*
X003983Y022422D01*
X003983Y022521D02*
X004073Y022521D01*
X003983Y022126D02*
X008703Y022126D01*
X008802Y022028D02*
X003983Y022028D01*
X003983Y021929D02*
X007758Y021929D01*
X007793Y021338D02*
X006848Y021338D01*
X006884Y021239D02*
X010016Y021239D01*
X010115Y021338D02*
X009714Y021338D01*
X009812Y021437D02*
X010133Y021437D01*
X010158Y021535D02*
X009856Y021535D01*
X009873Y021634D02*
X010213Y021634D01*
X010336Y021732D02*
X009870Y021732D01*
X009293Y021338D02*
X008214Y021338D01*
X008312Y021437D02*
X009195Y021437D01*
X009151Y021535D02*
X008356Y021535D01*
X008373Y021634D02*
X009133Y021634D01*
X009097Y021732D02*
X008370Y021732D01*
X008330Y021831D02*
X008999Y021831D01*
X008900Y021929D02*
X008249Y021929D01*
X008604Y022225D02*
X004648Y022225D01*
X004812Y022323D02*
X008506Y022323D01*
X008407Y022422D02*
X004892Y022422D01*
X004934Y022521D02*
X008309Y022521D01*
X008430Y020021D02*
X008294Y019965D01*
X008190Y019861D01*
X008133Y019725D01*
X008133Y019578D01*
X008190Y019442D01*
X008294Y019338D01*
X008430Y019281D01*
X008577Y019281D01*
X008713Y019338D01*
X008817Y019442D01*
X008873Y019578D01*
X008873Y019725D01*
X008817Y019861D01*
X008713Y019965D01*
X008577Y020021D01*
X008430Y020021D01*
X008287Y019958D02*
X007719Y019958D01*
X007817Y019860D02*
X008189Y019860D01*
X008149Y019761D02*
X007858Y019761D01*
X007873Y019663D02*
X008133Y019663D01*
X008139Y019564D02*
X007868Y019564D01*
X007827Y019466D02*
X008180Y019466D01*
X008264Y019367D02*
X007743Y019367D01*
X008743Y019367D02*
X009264Y019367D01*
X009180Y019466D02*
X008827Y019466D01*
X008868Y019564D02*
X009139Y019564D01*
X009133Y019663D02*
X008873Y019663D01*
X008858Y019761D02*
X009149Y019761D01*
X009189Y019860D02*
X008817Y019860D01*
X008719Y019958D02*
X009287Y019958D01*
X010371Y020944D02*
X012386Y020944D01*
X012287Y021042D02*
X010604Y021042D01*
X010766Y021141D02*
X012188Y021141D01*
X013003Y019651D02*
X013503Y019651D01*
X013648Y019761D02*
X013925Y019761D01*
X013925Y019663D02*
X013746Y019663D01*
X013845Y019564D02*
X013925Y019564D01*
X013631Y019269D02*
X013203Y019269D01*
X013327Y019367D02*
X013533Y019367D01*
X013434Y019466D02*
X013392Y019466D01*
X014253Y019651D02*
X015253Y019651D01*
X015059Y019860D02*
X014582Y019860D01*
X014526Y019958D02*
X015096Y019958D01*
X015253Y018151D02*
X014753Y018151D01*
X014253Y017651D01*
X014343Y017495D02*
X013426Y017495D01*
X013450Y017593D02*
X014441Y017593D01*
X014540Y017692D02*
X013054Y017692D01*
X013387Y017889D02*
X013686Y017889D01*
X013431Y017790D02*
X014638Y017790D01*
X014753Y017651D02*
X015253Y017651D01*
X014753Y017651D02*
X014253Y017151D01*
X012003Y017151D01*
X012233Y016904D02*
X014719Y016904D01*
X014678Y017002D02*
X014359Y017002D01*
X014457Y017101D02*
X014653Y017101D01*
X014653Y017199D02*
X014556Y017199D01*
X014655Y017298D02*
X014677Y017298D01*
X014244Y017396D02*
X013374Y017396D01*
X012632Y017396D02*
X012357Y017396D01*
X012404Y017495D02*
X012581Y017495D01*
X012557Y017593D02*
X012433Y017593D01*
X012253Y018151D02*
X012003Y018401D01*
X012003Y018651D01*
X012233Y016805D02*
X014813Y016805D01*
X015394Y016805D02*
X015613Y016805D01*
X015519Y016904D02*
X015488Y016904D01*
X015898Y015090D02*
X015831Y015068D01*
X015768Y015036D01*
X015710Y014994D01*
X015660Y014944D01*
X015619Y014887D01*
X015586Y014824D01*
X015565Y014757D01*
X015556Y014701D01*
X015953Y014701D01*
X015953Y014601D01*
X015556Y014601D01*
X015565Y014546D01*
X015586Y014478D01*
X015619Y014415D01*
X015660Y014358D01*
X015710Y014308D01*
X015768Y014266D01*
X015831Y014234D01*
X015898Y014212D01*
X015953Y014203D01*
X015953Y014601D01*
X016053Y014601D01*
X016053Y014203D01*
X016109Y014212D01*
X016176Y014234D01*
X016239Y014266D01*
X016297Y014308D01*
X016347Y014358D01*
X016388Y014415D01*
X016420Y014478D01*
X016442Y014546D01*
X016451Y014601D01*
X016054Y014601D01*
X016054Y014701D01*
X016451Y014701D01*
X016442Y014757D01*
X016420Y014824D01*
X016388Y014887D01*
X016347Y014944D01*
X016297Y014994D01*
X016239Y015036D01*
X016176Y015068D01*
X016109Y015090D01*
X016053Y015099D01*
X016053Y014701D01*
X015953Y014701D01*
X015953Y015099D01*
X015898Y015090D01*
X015953Y015031D02*
X016053Y015031D01*
X016053Y014933D02*
X015953Y014933D01*
X015953Y014834D02*
X016053Y014834D01*
X016053Y014736D02*
X015953Y014736D01*
X015953Y014637D02*
X015433Y014637D01*
X015433Y014566D02*
X015368Y014408D01*
X015247Y014287D01*
X015089Y014221D01*
X014918Y014221D01*
X014760Y014287D01*
X014639Y014408D01*
X014573Y014566D01*
X014573Y014737D01*
X014639Y014895D01*
X014760Y015016D01*
X014918Y015081D01*
X015089Y015081D01*
X015247Y015016D01*
X015368Y014895D01*
X015433Y014737D01*
X015433Y014566D01*
X015422Y014539D02*
X015567Y014539D01*
X015606Y014440D02*
X015381Y014440D01*
X015302Y014341D02*
X015677Y014341D01*
X015814Y014243D02*
X015141Y014243D01*
X015433Y014736D02*
X015561Y014736D01*
X015592Y014834D02*
X015393Y014834D01*
X015330Y014933D02*
X015652Y014933D01*
X015761Y015031D02*
X015209Y015031D01*
X014797Y015031D02*
X014209Y015031D01*
X014247Y015016D02*
X014089Y015081D01*
X013918Y015081D01*
X013760Y015016D01*
X013639Y014895D01*
X013573Y014737D01*
X013573Y014566D01*
X013639Y014408D01*
X013760Y014287D01*
X013918Y014221D01*
X014089Y014221D01*
X014247Y014287D01*
X014368Y014408D01*
X014433Y014566D01*
X014433Y014737D01*
X014368Y014895D01*
X014247Y015016D01*
X014330Y014933D02*
X014677Y014933D01*
X014614Y014834D02*
X014393Y014834D01*
X014433Y014736D02*
X014573Y014736D01*
X014573Y014637D02*
X014433Y014637D01*
X014422Y014539D02*
X014585Y014539D01*
X014626Y014440D02*
X014381Y014440D01*
X014302Y014341D02*
X014705Y014341D01*
X014866Y014243D02*
X014141Y014243D01*
X013866Y014243D02*
X013141Y014243D01*
X013089Y014221D02*
X013247Y014287D01*
X013368Y014408D01*
X013433Y014566D01*
X013433Y014737D01*
X013368Y014895D01*
X013247Y015016D01*
X013089Y015081D01*
X012918Y015081D01*
X012760Y015016D01*
X012639Y014895D01*
X012573Y014737D01*
X012573Y014566D01*
X012639Y014408D01*
X012760Y014287D01*
X012918Y014221D01*
X013089Y014221D01*
X013302Y014341D02*
X013705Y014341D01*
X013626Y014440D02*
X013381Y014440D01*
X013422Y014539D02*
X013585Y014539D01*
X013573Y014637D02*
X013433Y014637D01*
X013433Y014736D02*
X013573Y014736D01*
X013614Y014834D02*
X013393Y014834D01*
X013330Y014933D02*
X013677Y014933D01*
X013797Y015031D02*
X013209Y015031D01*
X012797Y015031D02*
X012209Y015031D01*
X012330Y014933D02*
X012677Y014933D01*
X012614Y014834D02*
X012393Y014834D01*
X012433Y014736D02*
X012573Y014736D01*
X012573Y014637D02*
X012433Y014637D01*
X012422Y014539D02*
X012585Y014539D01*
X012626Y014440D02*
X012381Y014440D01*
X012302Y014341D02*
X012705Y014341D01*
X012866Y014243D02*
X012233Y014243D01*
X012233Y014144D02*
X017023Y014144D01*
X017023Y014046D02*
X012233Y014046D01*
X012233Y013947D02*
X017023Y013947D01*
X017023Y013849D02*
X012233Y013849D01*
X012233Y013750D02*
X017023Y013750D01*
X017023Y013652D02*
X012233Y013652D01*
X012233Y013553D02*
X017023Y013553D01*
X017023Y013455D02*
X012233Y013455D01*
X012233Y013356D02*
X017023Y013356D01*
X017023Y013257D02*
X012233Y013257D01*
X012321Y013159D02*
X017023Y013159D01*
X017023Y013060D02*
X016639Y013060D01*
X016801Y012962D02*
X017023Y012962D01*
X017023Y012863D02*
X016881Y012863D01*
X016922Y012765D02*
X017023Y012765D01*
X017023Y012666D02*
X016933Y012666D01*
X016933Y012568D02*
X017023Y012568D01*
X017023Y012469D02*
X016893Y012469D01*
X016831Y012371D02*
X017023Y012371D01*
X017023Y012272D02*
X016712Y012272D01*
X016655Y012075D02*
X017023Y012075D01*
X017023Y012173D02*
X014311Y012173D01*
X014332Y012075D02*
X016351Y012075D01*
X016331Y012068D02*
X016398Y012090D01*
X016453Y012099D01*
X016453Y011701D01*
X016453Y011601D01*
X016056Y011601D01*
X016065Y011546D01*
X016086Y011478D01*
X016119Y011415D01*
X016160Y011358D01*
X016210Y011308D01*
X016268Y011266D01*
X016331Y011234D01*
X016398Y011212D01*
X016453Y011203D01*
X016453Y011601D01*
X016553Y011601D01*
X016553Y011203D01*
X016609Y011212D01*
X016676Y011234D01*
X016739Y011266D01*
X016797Y011308D01*
X016847Y011358D01*
X016888Y011415D01*
X016920Y011478D01*
X016942Y011546D01*
X016951Y011601D01*
X016554Y011601D01*
X016554Y011701D01*
X016951Y011701D01*
X016942Y011757D01*
X016920Y011824D01*
X016888Y011887D01*
X016847Y011944D01*
X016797Y011994D01*
X016739Y012036D01*
X016676Y012068D01*
X016609Y012090D01*
X016553Y012099D01*
X016553Y011701D01*
X016453Y011701D01*
X016056Y011701D01*
X016065Y011757D01*
X016086Y011824D01*
X016119Y011887D01*
X016160Y011944D01*
X016210Y011994D01*
X016268Y012036D01*
X016331Y012068D01*
X016453Y012075D02*
X016553Y012075D01*
X016553Y011976D02*
X016453Y011976D01*
X016453Y011878D02*
X016553Y011878D01*
X016553Y011779D02*
X016453Y011779D01*
X016453Y011681D02*
X014332Y011681D01*
X014332Y011779D02*
X016072Y011779D01*
X016114Y011878D02*
X014332Y011878D01*
X014332Y011976D02*
X016192Y011976D01*
X016295Y012272D02*
X013483Y012272D01*
X013483Y012371D02*
X014761Y012371D01*
X015246Y012371D02*
X016176Y012371D01*
X016206Y012962D02*
X015216Y012962D01*
X014791Y012962D02*
X012518Y012962D01*
X012419Y013060D02*
X016368Y013060D01*
X016815Y011976D02*
X017023Y011976D01*
X017023Y011878D02*
X016893Y011878D01*
X016935Y011779D02*
X017023Y011779D01*
X017023Y011681D02*
X016554Y011681D01*
X016553Y011582D02*
X016453Y011582D01*
X016453Y011484D02*
X016553Y011484D01*
X016553Y011385D02*
X016453Y011385D01*
X016453Y011287D02*
X016553Y011287D01*
X016767Y011287D02*
X017023Y011287D01*
X017023Y011385D02*
X016866Y011385D01*
X016922Y011484D02*
X017023Y011484D01*
X017023Y011582D02*
X016948Y011582D01*
X017023Y011188D02*
X015373Y011188D01*
X015373Y011225D02*
X015317Y011361D01*
X015213Y011465D01*
X015077Y011521D01*
X014930Y011521D01*
X014794Y011465D01*
X014690Y011361D01*
X014633Y011225D01*
X014633Y011078D01*
X014690Y010942D01*
X014794Y010838D01*
X014930Y010781D01*
X015077Y010781D01*
X015213Y010838D01*
X015317Y010942D01*
X015373Y011078D01*
X015373Y011225D01*
X015348Y011287D02*
X016240Y011287D01*
X016141Y011385D02*
X015293Y011385D01*
X015168Y011484D02*
X016085Y011484D01*
X016059Y011582D02*
X014265Y011582D01*
X014233Y011484D02*
X014839Y011484D01*
X014714Y011385D02*
X014233Y011385D01*
X014233Y011287D02*
X014659Y011287D01*
X014633Y011188D02*
X014233Y011188D01*
X014233Y011089D02*
X014633Y011089D01*
X014669Y010991D02*
X014233Y010991D01*
X014233Y010892D02*
X014739Y010892D01*
X014899Y010794D02*
X014233Y010794D01*
X014233Y010695D02*
X016073Y010695D01*
X016073Y010597D02*
X014233Y010597D01*
X014233Y010498D02*
X016101Y010498D01*
X016147Y010400D02*
X014233Y010400D01*
X014233Y010301D02*
X016245Y010301D01*
X016097Y010794D02*
X015108Y010794D01*
X015268Y010892D02*
X016138Y010892D01*
X016235Y010991D02*
X015338Y010991D01*
X015373Y011089D02*
X017023Y011089D01*
X017023Y010991D02*
X016772Y010991D01*
X016869Y010892D02*
X017023Y010892D01*
X016860Y010400D02*
X017265Y010400D01*
X017323Y010301D02*
X016761Y010301D01*
X016757Y010006D02*
X017323Y010006D01*
X017323Y010104D02*
X014233Y010104D01*
X014233Y010006D02*
X014892Y010006D01*
X014736Y009907D02*
X014323Y009907D01*
X014233Y010203D02*
X017323Y010203D01*
X017503Y010401D02*
X017503Y005151D01*
X017003Y005151D01*
X016897Y005257D01*
X016897Y005610D01*
X017077Y005571D02*
X017323Y005571D01*
X017323Y005473D02*
X017077Y005473D01*
X017077Y005374D02*
X017323Y005374D01*
X017323Y005670D02*
X017077Y005670D01*
X017076Y005768D02*
X017323Y005768D01*
X017323Y005867D02*
X017031Y005867D01*
X016942Y005972D02*
X017246Y005972D01*
X017322Y006048D01*
X017322Y006254D01*
X017246Y006330D01*
X016942Y006330D01*
X016866Y006254D01*
X016866Y006048D01*
X016942Y005972D01*
X016866Y006064D02*
X016141Y006064D01*
X016141Y006048D02*
X016141Y006254D01*
X016065Y006330D01*
X015761Y006330D01*
X015684Y006254D01*
X015684Y006048D01*
X015761Y005972D01*
X016065Y005972D01*
X016141Y006048D01*
X016141Y006162D02*
X016866Y006162D01*
X016872Y006261D02*
X016135Y006261D01*
X015954Y006458D02*
X015683Y006458D01*
X015683Y006556D02*
X015931Y006556D01*
X015931Y006655D02*
X015683Y006655D01*
X015683Y006754D02*
X015931Y006754D01*
X015931Y006852D02*
X015683Y006852D01*
X015683Y006951D02*
X015977Y006951D01*
X016323Y007345D02*
X015233Y007345D01*
X015233Y007443D02*
X016323Y007443D01*
X016323Y007542D02*
X015233Y007542D01*
X015233Y007640D02*
X016323Y007640D01*
X016323Y007739D02*
X015233Y007739D01*
X015142Y007838D02*
X016323Y007838D01*
X016323Y007936D02*
X014242Y007936D01*
X014220Y007345D02*
X014773Y007345D01*
X015233Y007246D02*
X015344Y007246D01*
X015323Y007148D02*
X015233Y007148D01*
X015233Y007049D02*
X015323Y007049D01*
X015323Y006951D02*
X015233Y006951D01*
X015233Y006852D02*
X015323Y006852D01*
X015323Y006754D02*
X015233Y006754D01*
X015233Y006655D02*
X015323Y006655D01*
X015323Y006556D02*
X015233Y006556D01*
X015233Y006458D02*
X015323Y006458D01*
X015323Y006359D02*
X015233Y006359D01*
X015233Y006261D02*
X015323Y006261D01*
X015323Y006162D02*
X015233Y006162D01*
X015233Y006064D02*
X015323Y006064D01*
X015323Y005965D02*
X015233Y005965D01*
X015233Y005867D02*
X015323Y005867D01*
X015323Y005768D02*
X015233Y005768D01*
X015233Y005670D02*
X015323Y005670D01*
X015323Y005571D02*
X015233Y005571D01*
X015233Y005473D02*
X015323Y005473D01*
X015323Y005374D02*
X015233Y005374D01*
X015233Y005275D02*
X015323Y005275D01*
X015323Y005177D02*
X015233Y005177D01*
X015233Y005078D02*
X015323Y005078D01*
X015323Y004980D02*
X015233Y004980D01*
X015233Y004881D02*
X015323Y004881D01*
X015367Y004783D02*
X015233Y004783D01*
X015233Y004684D02*
X016323Y004684D01*
X016323Y004586D02*
X015233Y004586D01*
X015233Y004487D02*
X016323Y004487D01*
X016218Y004389D02*
X015233Y004389D01*
X014773Y004389D02*
X014289Y004389D01*
X014346Y004290D02*
X014773Y004290D01*
X014773Y004191D02*
X014373Y004191D01*
X014373Y004093D02*
X014773Y004093D01*
X014835Y003994D02*
X014339Y003994D01*
X013891Y003797D02*
X012616Y003797D01*
X012771Y003896D02*
X013736Y003896D01*
X013718Y004389D02*
X013591Y004389D01*
X013493Y004487D02*
X013848Y004487D01*
X014159Y004487D02*
X014773Y004487D01*
X014773Y004586D02*
X013483Y004586D01*
X013483Y004684D02*
X014773Y004684D01*
X014773Y004783D02*
X013483Y004783D01*
X013483Y004881D02*
X014773Y004881D01*
X014773Y004980D02*
X013483Y004980D01*
X013483Y005078D02*
X014773Y005078D01*
X014773Y005177D02*
X013483Y005177D01*
X013483Y005275D02*
X013893Y005275D01*
X013890Y005276D02*
X013965Y005261D01*
X013973Y005261D01*
X013973Y005621D01*
X013613Y005621D01*
X013613Y005613D01*
X013628Y005537D01*
X013658Y005466D01*
X013701Y005403D01*
X013755Y005348D01*
X013819Y005306D01*
X013890Y005276D01*
X013973Y005275D02*
X014033Y005275D01*
X014033Y005261D02*
X014042Y005261D01*
X014117Y005276D01*
X014188Y005306D01*
X014252Y005348D01*
X014306Y005403D01*
X014349Y005466D01*
X014378Y005537D01*
X014393Y005613D01*
X014393Y005621D01*
X014034Y005621D01*
X014034Y005681D01*
X014393Y005681D01*
X014393Y005690D01*
X014378Y005765D01*
X014349Y005836D01*
X014306Y005900D01*
X014252Y005954D01*
X014188Y005997D01*
X014117Y006026D01*
X014042Y006041D01*
X014033Y006041D01*
X014033Y005681D01*
X013973Y005681D01*
X013973Y005621D01*
X014033Y005621D01*
X014033Y005261D01*
X014113Y005275D02*
X014773Y005275D01*
X014773Y005374D02*
X014278Y005374D01*
X014352Y005473D02*
X014773Y005473D01*
X014773Y005571D02*
X014385Y005571D01*
X014377Y005768D02*
X014773Y005768D01*
X014773Y005670D02*
X014034Y005670D01*
X013973Y005670D02*
X013483Y005670D01*
X013483Y005768D02*
X013630Y005768D01*
X013628Y005765D02*
X013613Y005690D01*
X013613Y005681D01*
X013973Y005681D01*
X013973Y006041D01*
X013965Y006041D01*
X013890Y006026D01*
X013819Y005997D01*
X013755Y005954D01*
X013701Y005900D01*
X013658Y005836D01*
X013628Y005765D01*
X013678Y005867D02*
X013483Y005867D01*
X013483Y005965D02*
X013772Y005965D01*
X013973Y005965D02*
X014033Y005965D01*
X014033Y005867D02*
X013973Y005867D01*
X013973Y005768D02*
X014033Y005768D01*
X014033Y005571D02*
X013973Y005571D01*
X013973Y005473D02*
X014033Y005473D01*
X014033Y005374D02*
X013973Y005374D01*
X013729Y005374D02*
X013483Y005374D01*
X013483Y005473D02*
X013655Y005473D01*
X013622Y005571D02*
X013483Y005571D01*
X013416Y006064D02*
X014773Y006064D01*
X014773Y006162D02*
X013317Y006162D01*
X013245Y006235D02*
X013245Y006235D01*
X013219Y006261D02*
X014773Y006261D01*
X014773Y006359D02*
X013120Y006359D01*
X012963Y005867D02*
X012829Y005867D01*
X012877Y005768D02*
X013023Y005768D01*
X013023Y005670D02*
X012534Y005670D01*
X012473Y005670D02*
X010859Y005670D01*
X010859Y005571D02*
X012122Y005571D01*
X012155Y005473D02*
X010859Y005473D01*
X010859Y005374D02*
X012229Y005374D01*
X012393Y005275D02*
X010859Y005275D01*
X010859Y005177D02*
X013023Y005177D01*
X013023Y005275D02*
X012613Y005275D01*
X012533Y005275D02*
X012473Y005275D01*
X012473Y005374D02*
X012533Y005374D01*
X012533Y005473D02*
X012473Y005473D01*
X012473Y005571D02*
X012533Y005571D01*
X012778Y005374D02*
X013023Y005374D01*
X013023Y005473D02*
X012852Y005473D01*
X012885Y005571D02*
X013023Y005571D01*
X013023Y005078D02*
X010859Y005078D01*
X010859Y004980D02*
X013023Y004980D01*
X013023Y004881D02*
X010859Y004881D01*
X010859Y004783D02*
X013023Y004783D01*
X013023Y004684D02*
X010859Y004684D01*
X010894Y004586D02*
X013023Y004586D01*
X013023Y004487D02*
X012659Y004487D01*
X012789Y004389D02*
X013023Y004389D01*
X013039Y004290D02*
X012846Y004290D01*
X012873Y004191D02*
X013138Y004191D01*
X013236Y004093D02*
X012873Y004093D01*
X012839Y003994D02*
X013335Y003994D01*
X012391Y003797D02*
X011116Y003797D01*
X011271Y003896D02*
X012236Y003896D01*
X012348Y004487D02*
X011159Y004487D01*
X011178Y005768D02*
X012130Y005768D01*
X012178Y005867D02*
X011616Y005867D01*
X011587Y006458D02*
X014773Y006458D01*
X014773Y006556D02*
X010859Y006556D01*
X010859Y006655D02*
X014773Y006655D01*
X014773Y005965D02*
X014235Y005965D01*
X014329Y005867D02*
X014773Y005867D01*
X015683Y005867D02*
X015948Y005867D01*
X015911Y005768D02*
X015683Y005768D01*
X015683Y005670D02*
X015911Y005670D01*
X015911Y005571D02*
X015683Y005571D01*
X015683Y005473D02*
X015911Y005473D01*
X015933Y005374D02*
X015683Y005374D01*
X015683Y005275D02*
X016323Y005275D01*
X016323Y005177D02*
X015683Y005177D01*
X016110Y005374D02*
X016110Y005374D01*
X016110Y005473D02*
X016110Y005473D01*
X016110Y005571D02*
X016110Y005571D01*
X016110Y005670D02*
X016110Y005670D01*
X016110Y005768D02*
X016110Y005768D01*
X016110Y005867D02*
X016110Y005867D01*
X015683Y005965D02*
X017323Y005965D01*
X017322Y006064D02*
X017323Y006064D01*
X017322Y006162D02*
X017323Y006162D01*
X017316Y006261D02*
X017323Y006261D01*
X017323Y006359D02*
X015683Y006359D01*
X015683Y006261D02*
X015691Y006261D01*
X015683Y006162D02*
X015684Y006162D01*
X015683Y006064D02*
X015684Y006064D01*
X016503Y005610D02*
X016503Y004901D01*
X016683Y004980D02*
X016920Y004980D01*
X016822Y005078D02*
X016683Y005078D01*
X016683Y005177D02*
X016723Y005177D01*
X016717Y005275D02*
X016683Y005275D01*
X016700Y005374D02*
X016700Y005374D01*
X016700Y005473D02*
X016700Y005473D01*
X016700Y005571D02*
X016700Y005571D01*
X016700Y005670D02*
X016700Y005670D01*
X016700Y005768D02*
X016700Y005768D01*
X016700Y005867D02*
X016700Y005867D01*
X017053Y006458D02*
X017323Y006458D01*
X017323Y006556D02*
X017076Y006556D01*
X017077Y006655D02*
X017323Y006655D01*
X017323Y006754D02*
X017077Y006754D01*
X017077Y006852D02*
X017323Y006852D01*
X017323Y006951D02*
X017077Y006951D01*
X017077Y007049D02*
X017323Y007049D01*
X017323Y007148D02*
X017077Y007148D01*
X017077Y007246D02*
X017323Y007246D01*
X017323Y007345D02*
X017077Y007345D01*
X017077Y007443D02*
X017323Y007443D01*
X017323Y007542D02*
X017149Y007542D01*
X017183Y007640D02*
X017323Y007640D01*
X017323Y007739D02*
X017183Y007739D01*
X017183Y007838D02*
X017323Y007838D01*
X017323Y007936D02*
X017183Y007936D01*
X017183Y008035D02*
X017323Y008035D01*
X017323Y008133D02*
X017183Y008133D01*
X017183Y008232D02*
X017323Y008232D01*
X017323Y008330D02*
X017183Y008330D01*
X017183Y008429D02*
X017323Y008429D01*
X017323Y008527D02*
X017183Y008527D01*
X017183Y008626D02*
X017323Y008626D01*
X017323Y008724D02*
X017183Y008724D01*
X017183Y008823D02*
X017323Y008823D01*
X017323Y008922D02*
X017183Y008922D01*
X017183Y009020D02*
X017323Y009020D01*
X017323Y009119D02*
X017183Y009119D01*
X017183Y009217D02*
X017323Y009217D01*
X017323Y009316D02*
X017183Y009316D01*
X017183Y009414D02*
X017323Y009414D01*
X017323Y009513D02*
X017146Y009513D01*
X017048Y009611D02*
X017323Y009611D01*
X017323Y009710D02*
X016949Y009710D01*
X016904Y009808D02*
X017323Y009808D01*
X017323Y009907D02*
X016856Y009907D01*
X016753Y009651D02*
X016503Y009651D01*
X016231Y009316D02*
X015160Y009316D01*
X015290Y009414D02*
X016136Y009414D01*
X016151Y009907D02*
X015271Y009907D01*
X015115Y010006D02*
X016250Y010006D01*
X016753Y009651D02*
X017003Y009401D01*
X017003Y007651D01*
X016897Y007545D01*
X016897Y006693D01*
X016700Y006693D02*
X016700Y007204D01*
X016736Y009020D02*
X016823Y009020D01*
X016823Y009119D02*
X013483Y009119D01*
X013483Y009217D02*
X016823Y009217D01*
X016823Y009316D02*
X016776Y009316D01*
X014846Y009316D02*
X013483Y009316D01*
X013483Y009414D02*
X014717Y009414D01*
X014067Y009513D02*
X013483Y009513D01*
X013483Y009611D02*
X013968Y009611D01*
X013869Y009710D02*
X013483Y009710D01*
X013483Y009808D02*
X013773Y009808D01*
X013773Y009907D02*
X013483Y009907D01*
X013483Y010006D02*
X013773Y010006D01*
X013773Y010104D02*
X013483Y010104D01*
X013483Y010203D02*
X013773Y010203D01*
X013773Y010301D02*
X013483Y010301D01*
X013483Y010400D02*
X013773Y010400D01*
X013773Y010498D02*
X013483Y010498D01*
X013483Y010597D02*
X013773Y010597D01*
X013773Y010695D02*
X013483Y010695D01*
X013483Y010794D02*
X013773Y010794D01*
X013773Y010892D02*
X013483Y010892D01*
X013483Y010991D02*
X013773Y010991D01*
X013773Y011089D02*
X013483Y011089D01*
X013483Y011188D02*
X013773Y011188D01*
X013773Y011287D02*
X013483Y011287D01*
X013483Y011385D02*
X013773Y011385D01*
X013773Y011484D02*
X013483Y011484D01*
X013483Y011582D02*
X013742Y011582D01*
X013675Y011681D02*
X013483Y011681D01*
X013483Y011779D02*
X013675Y011779D01*
X013675Y011878D02*
X013483Y011878D01*
X013483Y011976D02*
X013675Y011976D01*
X013675Y012075D02*
X013483Y012075D01*
X013483Y012173D02*
X013696Y012173D01*
X013023Y011976D02*
X006935Y011976D01*
X007147Y012469D02*
X010678Y012469D01*
X010761Y012371D02*
X006307Y012371D01*
X005700Y012371D02*
X004831Y012371D01*
X004712Y012272D02*
X005653Y012272D01*
X005633Y012173D02*
X003983Y012173D01*
X003983Y012075D02*
X004403Y012075D01*
X004604Y012075D02*
X005635Y012075D01*
X005675Y011976D02*
X004786Y011976D01*
X004875Y011878D02*
X005754Y011878D01*
X005973Y011484D02*
X006033Y011484D01*
X006033Y011385D02*
X005973Y011385D01*
X005973Y011287D02*
X006033Y011287D01*
X006033Y011188D02*
X005973Y011188D01*
X005973Y011089D02*
X006033Y011089D01*
X006033Y010991D02*
X005973Y010991D01*
X005973Y010892D02*
X006033Y010892D01*
X006033Y010794D02*
X005973Y010794D01*
X005847Y010794D02*
X004930Y010794D01*
X004884Y010892D02*
X005711Y010892D01*
X005648Y010991D02*
X004800Y010991D01*
X004611Y011089D02*
X005618Y011089D01*
X006160Y010794D02*
X008036Y010794D01*
X007937Y010892D02*
X006296Y010892D01*
X006359Y010991D02*
X007838Y010991D01*
X007740Y011089D02*
X006389Y011089D01*
X006393Y011188D02*
X007641Y011188D01*
X007543Y011287D02*
X006840Y011287D01*
X006667Y011287D02*
X006369Y011287D01*
X006316Y011385D02*
X006496Y011385D01*
X006422Y011484D02*
X006208Y011484D01*
X007011Y011385D02*
X007444Y011385D01*
X007799Y011681D02*
X013023Y011681D01*
X013023Y011779D02*
X007701Y011779D01*
X007602Y011878D02*
X013023Y011878D01*
X013023Y011582D02*
X007898Y011582D01*
X007996Y011484D02*
X010839Y011484D01*
X010714Y011385D02*
X008095Y011385D01*
X008193Y011287D02*
X010659Y011287D01*
X010633Y011188D02*
X008292Y011188D01*
X008390Y011089D02*
X010633Y011089D01*
X010669Y010991D02*
X008489Y010991D01*
X008587Y010892D02*
X010739Y010892D01*
X010773Y010794D02*
X008686Y010794D01*
X008785Y010695D02*
X010773Y010695D01*
X010773Y010597D02*
X008883Y010597D01*
X008982Y010498D02*
X010773Y010498D01*
X010773Y010400D02*
X009080Y010400D01*
X009179Y010301D02*
X010773Y010301D01*
X010773Y010203D02*
X009277Y010203D01*
X009376Y010104D02*
X010773Y010104D01*
X010773Y010006D02*
X009615Y010006D01*
X009771Y009907D02*
X010736Y009907D01*
X010668Y009808D02*
X009839Y009808D01*
X009873Y009710D02*
X010633Y009710D01*
X010633Y009611D02*
X009873Y009611D01*
X009847Y009513D02*
X010660Y009513D01*
X010717Y009414D02*
X009790Y009414D01*
X009660Y009316D02*
X010846Y009316D01*
X011160Y009316D02*
X013023Y009316D01*
X013023Y009414D02*
X011290Y009414D01*
X011271Y009907D02*
X013023Y009907D01*
X013023Y010006D02*
X011233Y010006D01*
X011233Y010104D02*
X013023Y010104D01*
X013023Y010203D02*
X011233Y010203D01*
X011233Y010301D02*
X013023Y010301D01*
X013023Y010400D02*
X011233Y010400D01*
X011233Y010498D02*
X013023Y010498D01*
X013023Y010597D02*
X011233Y010597D01*
X011233Y010695D02*
X013023Y010695D01*
X013023Y010794D02*
X011233Y010794D01*
X011268Y010892D02*
X013023Y010892D01*
X013023Y010991D02*
X011338Y010991D01*
X011373Y011089D02*
X013023Y011089D01*
X013023Y011188D02*
X011373Y011188D01*
X011348Y011287D02*
X013023Y011287D01*
X013023Y011385D02*
X011293Y011385D01*
X011168Y011484D02*
X013023Y011484D01*
X013023Y009217D02*
X009432Y009217D01*
X009512Y009119D02*
X013023Y009119D01*
X013023Y009020D02*
X009553Y009020D01*
X009594Y008922D02*
X013023Y008922D01*
X013023Y008823D02*
X009633Y008823D01*
X009633Y008724D02*
X013023Y008724D01*
X013023Y008626D02*
X009633Y008626D01*
X009633Y008527D02*
X013023Y008527D01*
X013023Y008429D02*
X009614Y008429D01*
X009573Y008330D02*
X013023Y008330D01*
X013023Y008232D02*
X009532Y008232D01*
X009480Y008133D02*
X013023Y008133D01*
X011365Y007838D02*
X009089Y007838D01*
X009333Y009316D02*
X009347Y009316D01*
X009217Y009414D02*
X009211Y009414D01*
X009160Y009513D02*
X008973Y009513D01*
X007846Y009316D02*
X006857Y009316D01*
X006792Y009414D02*
X007717Y009414D01*
X006260Y007345D02*
X005635Y007345D01*
X005536Y007443D02*
X010391Y007443D01*
X010999Y006458D02*
X011008Y006458D01*
X010999Y006359D02*
X011008Y006359D01*
X010999Y006261D02*
X011008Y006261D01*
X010999Y006162D02*
X011008Y006162D01*
X010999Y006064D02*
X011008Y006064D01*
X010999Y005965D02*
X011008Y005965D01*
X010999Y005867D02*
X011008Y005867D01*
X010999Y005768D02*
X011008Y005768D01*
X007773Y005571D02*
X004946Y005571D01*
X004917Y005473D02*
X007773Y005473D01*
X007773Y005374D02*
X004858Y005374D01*
X004752Y005275D02*
X007773Y005275D01*
X007773Y005177D02*
X003253Y005177D01*
X003253Y005078D02*
X004362Y005078D01*
X004331Y005068D02*
X004398Y005090D01*
X004453Y005099D01*
X004453Y004701D01*
X004453Y004601D01*
X004056Y004601D01*
X004065Y004546D01*
X004086Y004478D01*
X004119Y004415D01*
X004160Y004358D01*
X004210Y004308D01*
X004268Y004266D01*
X004331Y004234D01*
X004398Y004212D01*
X004453Y004203D01*
X004453Y004601D01*
X004553Y004601D01*
X004553Y004203D01*
X004609Y004212D01*
X004676Y004234D01*
X004739Y004266D01*
X004797Y004308D01*
X004847Y004358D01*
X004888Y004415D01*
X004920Y004478D01*
X004942Y004546D01*
X004951Y004601D01*
X004554Y004601D01*
X004554Y004701D01*
X004951Y004701D01*
X004942Y004757D01*
X004920Y004824D01*
X004888Y004887D01*
X004847Y004944D01*
X004797Y004994D01*
X004739Y005036D01*
X004676Y005068D01*
X004609Y005090D01*
X004553Y005099D01*
X004553Y004701D01*
X004453Y004701D01*
X004056Y004701D01*
X004065Y004757D01*
X004086Y004824D01*
X004119Y004887D01*
X004160Y004944D01*
X004210Y004994D01*
X004268Y005036D01*
X004331Y005068D01*
X004453Y005078D02*
X004553Y005078D01*
X004645Y005078D02*
X007773Y005078D01*
X007773Y004980D02*
X004811Y004980D01*
X004891Y004881D02*
X007773Y004881D01*
X007677Y004783D02*
X004934Y004783D01*
X004949Y004586D02*
X007441Y004586D01*
X007519Y004684D02*
X004554Y004684D01*
X004553Y004586D02*
X004453Y004586D01*
X004453Y004684D02*
X003253Y004684D01*
X003253Y004586D02*
X004058Y004586D01*
X004084Y004487D02*
X003253Y004487D01*
X003253Y004389D02*
X004138Y004389D01*
X004235Y004290D02*
X003253Y004290D01*
X003253Y004191D02*
X007284Y004191D01*
X007274Y004151D02*
X007274Y004151D01*
X007288Y004093D02*
X003253Y004093D01*
X003253Y003994D02*
X007310Y003994D01*
X007333Y003896D02*
X003253Y003896D01*
X003253Y003797D02*
X007296Y003797D01*
X007198Y003699D02*
X003253Y003699D01*
X003253Y003600D02*
X007099Y003600D01*
X007707Y003502D02*
X007714Y003502D01*
X007306Y004290D02*
X004772Y004290D01*
X004869Y004389D02*
X007329Y004389D01*
X007347Y004467D02*
X007347Y004467D01*
X007362Y004487D02*
X004923Y004487D01*
X004553Y004487D02*
X004453Y004487D01*
X004453Y004389D02*
X004553Y004389D01*
X004553Y004290D02*
X004453Y004290D01*
X004453Y004783D02*
X004553Y004783D01*
X004553Y004881D02*
X004453Y004881D01*
X004453Y004980D02*
X004553Y004980D01*
X004196Y004980D02*
X003253Y004980D01*
X003253Y004881D02*
X004116Y004881D01*
X004073Y004783D02*
X003253Y004783D01*
X003253Y003502D02*
X004220Y003502D01*
X004130Y003403D02*
X003253Y003403D01*
X003253Y003305D02*
X004080Y003305D01*
X004057Y003206D02*
X003253Y003206D01*
X003253Y003107D02*
X004453Y003107D01*
X004453Y003009D02*
X004553Y003009D01*
X004553Y002910D02*
X004453Y002910D01*
X004453Y002812D02*
X004553Y002812D01*
X004206Y002812D02*
X003253Y002812D01*
X003253Y002910D02*
X004122Y002910D01*
X004076Y003009D02*
X003253Y003009D01*
X003253Y002516D02*
X004261Y002516D01*
X004162Y002418D02*
X003253Y002418D01*
X003253Y002319D02*
X004108Y002319D01*
X004073Y002221D02*
X003253Y002221D01*
X003253Y002122D02*
X004073Y002122D01*
X004091Y002024D02*
X003253Y002024D01*
X003253Y001925D02*
X004132Y001925D01*
X004220Y001826D02*
X003253Y001826D01*
X003253Y001728D02*
X004402Y001728D01*
X004605Y001728D02*
X007432Y001728D01*
X007353Y001826D02*
X004787Y001826D01*
X003253Y001629D02*
X007511Y001629D01*
X007654Y001531D02*
X003253Y001531D01*
X006846Y006458D02*
X007773Y006458D01*
X007773Y006556D02*
X006764Y006556D01*
X007549Y004721D02*
X007549Y004721D01*
X007549Y004721D01*
X004260Y011287D02*
X003983Y011287D01*
X003983Y011385D02*
X004161Y011385D01*
X004221Y011976D02*
X003983Y011976D01*
X003983Y012272D02*
X004295Y012272D01*
X004176Y012371D02*
X003983Y012371D01*
X003983Y012469D02*
X004113Y012469D01*
X004073Y012568D02*
X003983Y012568D01*
X003983Y012666D02*
X004073Y012666D01*
X004085Y012765D02*
X003983Y012765D01*
X003983Y012863D02*
X004126Y012863D01*
X004206Y012962D02*
X003983Y012962D01*
X003983Y013060D02*
X004368Y013060D01*
X009473Y016312D02*
X009533Y016312D01*
X009533Y016411D02*
X009473Y016411D01*
X009473Y016509D02*
X009533Y016509D01*
X009533Y016608D02*
X009473Y016608D01*
X009473Y016706D02*
X009533Y016706D01*
X009533Y016805D02*
X009473Y016805D01*
X009473Y016904D02*
X009533Y016904D01*
X009533Y017002D02*
X009473Y017002D01*
X006123Y021239D02*
X004917Y021239D01*
X005016Y021338D02*
X006159Y021338D01*
X004858Y021831D02*
X003983Y021831D01*
X003983Y021732D02*
X004759Y021732D01*
X004661Y021634D02*
X003983Y021634D01*
X003983Y021535D02*
X004562Y021535D01*
X004266Y021437D02*
X003983Y021437D01*
X015953Y014539D02*
X016053Y014539D01*
X016054Y014637D02*
X017023Y014637D01*
X017023Y014539D02*
X016440Y014539D01*
X016401Y014440D02*
X017023Y014440D01*
X017023Y014341D02*
X016330Y014341D01*
X016193Y014243D02*
X017023Y014243D01*
X017023Y014736D02*
X016446Y014736D01*
X016415Y014834D02*
X017023Y014834D01*
X017023Y014933D02*
X016355Y014933D01*
X016246Y015031D02*
X017023Y015031D01*
X016053Y014440D02*
X015953Y014440D01*
X015953Y014341D02*
X016053Y014341D01*
X016053Y014243D02*
X015953Y014243D01*
X016218Y002418D02*
X014288Y002418D01*
X014356Y002319D02*
X016151Y002319D01*
X016120Y002221D02*
X014387Y002221D01*
X014373Y002024D02*
X016134Y002024D01*
X016186Y001925D02*
X014321Y001925D01*
X014219Y001826D02*
X016287Y001826D01*
D22*
X017503Y010401D02*
X017253Y010651D01*
M02*
