G75*
G70*
%OFA0B0*%
%FSLAX24Y24*%
%IPPOS*%
%LPD*%
%AMOC8*
5,1,8,0,0,1.08239X$1,22.5*
%
%ADD10C,0.0000*%
%ADD11C,0.0200*%
%ADD12C,0.0040*%
%ADD13C,0.0030*%
%ADD14C,0.0300*%
%ADD15C,0.0080*%
%ADD16C,0.0060*%
%ADD17R,0.0200X0.0300*%
%ADD18C,0.0050*%
%ADD19R,0.0400X0.0300*%
%ADD20R,0.0197X0.0256*%
%ADD21R,0.0900X0.0250*%
%ADD22R,0.0800X0.0200*%
%ADD23C,0.0120*%
%ADD24R,0.0200X0.0200*%
%ADD25C,0.0240*%
%ADD26R,0.0120X0.0240*%
%ADD27R,0.0240X0.0120*%
%ADD28C,0.0100*%
%ADD29R,0.0040X0.0010*%
%ADD30R,0.0020X0.0010*%
%ADD31R,0.0060X0.0010*%
%ADD32R,0.0090X0.0010*%
%ADD33R,0.0080X0.0010*%
%ADD34R,0.0100X0.0010*%
%ADD35R,0.0110X0.0010*%
%ADD36R,0.0120X0.0010*%
%ADD37R,0.0130X0.0010*%
%ADD38R,0.0140X0.0010*%
%ADD39R,0.0150X0.0010*%
%ADD40R,0.0160X0.0010*%
%ADD41R,0.0170X0.0010*%
%ADD42R,0.0180X0.0010*%
%ADD43R,0.0190X0.0010*%
%ADD44R,0.0200X0.0010*%
%ADD45R,0.0220X0.0010*%
%ADD46R,0.0210X0.0010*%
%ADD47R,0.0230X0.0010*%
%ADD48R,0.0240X0.0010*%
%ADD49R,0.0260X0.0010*%
%ADD50R,0.0250X0.0010*%
%ADD51R,0.0280X0.0010*%
%ADD52R,0.0270X0.0010*%
%ADD53R,0.0290X0.0010*%
%ADD54R,0.0300X0.0010*%
%ADD55R,0.0320X0.0010*%
%ADD56R,0.0310X0.0010*%
%ADD57R,0.0330X0.0010*%
%ADD58R,0.0340X0.0010*%
%ADD59R,0.0350X0.0010*%
%ADD60R,0.0360X0.0010*%
%ADD61R,0.0070X0.0010*%
%ADD62R,0.0030X0.0010*%
%ADD63R,0.0050X0.0010*%
%ADD64R,0.0010X0.0010*%
%ADD65R,0.0370X0.0010*%
%ADD66R,0.0390X0.0010*%
%ADD67R,0.0440X0.0010*%
%ADD68R,0.0480X0.0010*%
%ADD69R,0.0520X0.0010*%
%ADD70R,0.0580X0.0010*%
D10*
X003003Y000151D02*
X003003Y027651D01*
X018003Y027651D01*
X017996Y000151D01*
X003003Y000151D01*
X008123Y008651D02*
X008125Y008701D01*
X008131Y008751D01*
X008141Y008800D01*
X008155Y008848D01*
X008172Y008895D01*
X008193Y008940D01*
X008218Y008984D01*
X008246Y009025D01*
X008278Y009064D01*
X008312Y009101D01*
X008349Y009135D01*
X008389Y009165D01*
X008431Y009192D01*
X008475Y009216D01*
X008521Y009237D01*
X008568Y009253D01*
X008616Y009266D01*
X008666Y009275D01*
X008715Y009280D01*
X008766Y009281D01*
X008816Y009278D01*
X008865Y009271D01*
X008914Y009260D01*
X008962Y009245D01*
X009008Y009227D01*
X009053Y009205D01*
X009096Y009179D01*
X009137Y009150D01*
X009176Y009118D01*
X009212Y009083D01*
X009244Y009045D01*
X009274Y009005D01*
X009301Y008962D01*
X009324Y008918D01*
X009343Y008872D01*
X009359Y008824D01*
X009371Y008775D01*
X009379Y008726D01*
X009383Y008676D01*
X009383Y008626D01*
X009379Y008576D01*
X009371Y008527D01*
X009359Y008478D01*
X009343Y008430D01*
X009324Y008384D01*
X009301Y008340D01*
X009274Y008297D01*
X009244Y008257D01*
X009212Y008219D01*
X009176Y008184D01*
X009137Y008152D01*
X009096Y008123D01*
X009053Y008097D01*
X009008Y008075D01*
X008962Y008057D01*
X008914Y008042D01*
X008865Y008031D01*
X008816Y008024D01*
X008766Y008021D01*
X008715Y008022D01*
X008666Y008027D01*
X008616Y008036D01*
X008568Y008049D01*
X008521Y008065D01*
X008475Y008086D01*
X008431Y008110D01*
X008389Y008137D01*
X008349Y008167D01*
X008312Y008201D01*
X008278Y008238D01*
X008246Y008277D01*
X008218Y008318D01*
X008193Y008362D01*
X008172Y008407D01*
X008155Y008454D01*
X008141Y008502D01*
X008131Y008551D01*
X008125Y008601D01*
X008123Y008651D01*
X014903Y017151D02*
X014905Y017179D01*
X014911Y017206D01*
X014920Y017232D01*
X014933Y017257D01*
X014950Y017280D01*
X014969Y017300D01*
X014991Y017317D01*
X015015Y017331D01*
X015041Y017341D01*
X015068Y017348D01*
X015096Y017351D01*
X015124Y017350D01*
X015151Y017345D01*
X015178Y017336D01*
X015203Y017324D01*
X015226Y017309D01*
X015247Y017290D01*
X015265Y017269D01*
X015280Y017245D01*
X015291Y017219D01*
X015299Y017193D01*
X015303Y017165D01*
X015303Y017137D01*
X015299Y017109D01*
X015291Y017083D01*
X015280Y017057D01*
X015265Y017033D01*
X015247Y017012D01*
X015226Y016993D01*
X015203Y016978D01*
X015178Y016966D01*
X015151Y016957D01*
X015124Y016952D01*
X015096Y016951D01*
X015068Y016954D01*
X015041Y016961D01*
X015015Y016971D01*
X014991Y016985D01*
X014969Y017002D01*
X014950Y017022D01*
X014933Y017045D01*
X014920Y017070D01*
X014911Y017096D01*
X014905Y017123D01*
X014903Y017151D01*
X015703Y017151D02*
X015705Y017179D01*
X015711Y017206D01*
X015720Y017232D01*
X015733Y017257D01*
X015750Y017280D01*
X015769Y017300D01*
X015791Y017317D01*
X015815Y017331D01*
X015841Y017341D01*
X015868Y017348D01*
X015896Y017351D01*
X015924Y017350D01*
X015951Y017345D01*
X015978Y017336D01*
X016003Y017324D01*
X016026Y017309D01*
X016047Y017290D01*
X016065Y017269D01*
X016080Y017245D01*
X016091Y017219D01*
X016099Y017193D01*
X016103Y017165D01*
X016103Y017137D01*
X016099Y017109D01*
X016091Y017083D01*
X016080Y017057D01*
X016065Y017033D01*
X016047Y017012D01*
X016026Y016993D01*
X016003Y016978D01*
X015978Y016966D01*
X015951Y016957D01*
X015924Y016952D01*
X015896Y016951D01*
X015868Y016954D01*
X015841Y016961D01*
X015815Y016971D01*
X015791Y016985D01*
X015769Y017002D01*
X015750Y017022D01*
X015733Y017045D01*
X015720Y017070D01*
X015711Y017096D01*
X015705Y017123D01*
X015703Y017151D01*
X015303Y020151D02*
X015305Y020179D01*
X015311Y020206D01*
X015320Y020232D01*
X015333Y020257D01*
X015350Y020280D01*
X015369Y020300D01*
X015391Y020317D01*
X015415Y020331D01*
X015441Y020341D01*
X015468Y020348D01*
X015496Y020351D01*
X015524Y020350D01*
X015551Y020345D01*
X015578Y020336D01*
X015603Y020324D01*
X015626Y020309D01*
X015647Y020290D01*
X015665Y020269D01*
X015680Y020245D01*
X015691Y020219D01*
X015699Y020193D01*
X015703Y020165D01*
X015703Y020137D01*
X015699Y020109D01*
X015691Y020083D01*
X015680Y020057D01*
X015665Y020033D01*
X015647Y020012D01*
X015626Y019993D01*
X015603Y019978D01*
X015578Y019966D01*
X015551Y019957D01*
X015524Y019952D01*
X015496Y019951D01*
X015468Y019954D01*
X015441Y019961D01*
X015415Y019971D01*
X015391Y019985D01*
X015369Y020002D01*
X015350Y020022D01*
X015333Y020045D01*
X015320Y020070D01*
X015311Y020096D01*
X015305Y020123D01*
X015303Y020151D01*
X015623Y022901D02*
X015625Y022951D01*
X015631Y023001D01*
X015641Y023050D01*
X015655Y023098D01*
X015672Y023145D01*
X015693Y023190D01*
X015718Y023234D01*
X015746Y023275D01*
X015778Y023314D01*
X015812Y023351D01*
X015849Y023385D01*
X015889Y023415D01*
X015931Y023442D01*
X015975Y023466D01*
X016021Y023487D01*
X016068Y023503D01*
X016116Y023516D01*
X016166Y023525D01*
X016215Y023530D01*
X016266Y023531D01*
X016316Y023528D01*
X016365Y023521D01*
X016414Y023510D01*
X016462Y023495D01*
X016508Y023477D01*
X016553Y023455D01*
X016596Y023429D01*
X016637Y023400D01*
X016676Y023368D01*
X016712Y023333D01*
X016744Y023295D01*
X016774Y023255D01*
X016801Y023212D01*
X016824Y023168D01*
X016843Y023122D01*
X016859Y023074D01*
X016871Y023025D01*
X016879Y022976D01*
X016883Y022926D01*
X016883Y022876D01*
X016879Y022826D01*
X016871Y022777D01*
X016859Y022728D01*
X016843Y022680D01*
X016824Y022634D01*
X016801Y022590D01*
X016774Y022547D01*
X016744Y022507D01*
X016712Y022469D01*
X016676Y022434D01*
X016637Y022402D01*
X016596Y022373D01*
X016553Y022347D01*
X016508Y022325D01*
X016462Y022307D01*
X016414Y022292D01*
X016365Y022281D01*
X016316Y022274D01*
X016266Y022271D01*
X016215Y022272D01*
X016166Y022277D01*
X016116Y022286D01*
X016068Y022299D01*
X016021Y022315D01*
X015975Y022336D01*
X015931Y022360D01*
X015889Y022387D01*
X015849Y022417D01*
X015812Y022451D01*
X015778Y022488D01*
X015746Y022527D01*
X015718Y022568D01*
X015693Y022612D01*
X015672Y022657D01*
X015655Y022704D01*
X015641Y022752D01*
X015631Y022801D01*
X015625Y022851D01*
X015623Y022901D01*
D11*
X004503Y022151D02*
X004003Y022151D01*
X004003Y010151D02*
X004503Y010151D01*
X005003Y003151D02*
X005503Y003151D01*
X005253Y002401D02*
X005253Y002151D01*
X005253Y001901D01*
X005253Y002151D02*
X005003Y002151D01*
X005253Y002151D02*
X005503Y002151D01*
D12*
X010350Y007421D02*
X010504Y007421D01*
X010580Y007498D01*
X010580Y007882D01*
X010734Y007728D02*
X010887Y007882D01*
X010887Y007421D01*
X010734Y007421D02*
X011041Y007421D01*
X010350Y007421D02*
X010273Y007498D01*
X010273Y007882D01*
X016273Y019693D02*
X016273Y019847D01*
X016273Y019770D02*
X016657Y019770D01*
X016733Y019693D01*
X016733Y019617D01*
X016657Y019540D01*
X016733Y020000D02*
X016273Y020000D01*
X016273Y020231D01*
X016350Y020307D01*
X016503Y020307D01*
X016580Y020231D01*
X016580Y020000D01*
X016657Y020461D02*
X016733Y020537D01*
X016733Y020691D01*
X016657Y020768D01*
X016580Y020768D01*
X016503Y020691D01*
X016503Y020614D01*
X016503Y020691D02*
X016427Y020768D01*
X016350Y020768D01*
X016273Y020691D01*
X016273Y020537D01*
X016350Y020461D01*
X013661Y026171D02*
X013661Y026555D01*
X013738Y026632D01*
X013738Y026401D02*
X013585Y026401D01*
X013431Y026171D02*
X013278Y026171D01*
X013355Y026171D02*
X013355Y026632D01*
X013278Y026632D01*
X013278Y026768D02*
X013278Y027228D01*
X013508Y027228D01*
X013585Y027151D01*
X013585Y026998D01*
X013508Y026921D01*
X013278Y026921D01*
X013124Y026921D02*
X012894Y026921D01*
X012817Y026998D01*
X012817Y027228D01*
X012664Y027228D02*
X012511Y027228D01*
X012587Y027305D02*
X012587Y026998D01*
X012664Y026921D01*
X012664Y026632D02*
X012664Y026171D01*
X012511Y026325D01*
X012357Y026171D01*
X012357Y026632D01*
X012280Y026921D02*
X012357Y026998D01*
X012357Y027151D01*
X012280Y027228D01*
X012127Y027228D01*
X012050Y027151D01*
X012050Y026998D01*
X012127Y026921D01*
X012280Y026921D01*
X011897Y026921D02*
X011820Y026998D01*
X011820Y027305D01*
X011743Y027228D02*
X011897Y027228D01*
X011590Y027151D02*
X011513Y027228D01*
X011360Y027228D01*
X011283Y027151D01*
X011283Y026998D01*
X011360Y026921D01*
X011513Y026921D01*
X011590Y026998D01*
X011590Y027151D01*
X011130Y027228D02*
X011053Y027228D01*
X010899Y027075D01*
X010899Y027228D02*
X010899Y026921D01*
X010746Y027151D02*
X010669Y027075D01*
X010439Y027075D01*
X010439Y026921D02*
X010439Y027382D01*
X010669Y027382D01*
X010746Y027305D01*
X010746Y027151D01*
X010439Y026632D02*
X010362Y026555D01*
X010362Y026171D01*
X010286Y026401D02*
X010439Y026401D01*
X010592Y026401D02*
X010669Y026478D01*
X010823Y026478D01*
X010899Y026401D01*
X010899Y026248D01*
X010823Y026171D01*
X010669Y026171D01*
X010592Y026248D01*
X010592Y026401D01*
X011053Y026325D02*
X011206Y026478D01*
X011283Y026478D01*
X011436Y026401D02*
X011513Y026478D01*
X011743Y026478D01*
X011743Y026632D02*
X011743Y026171D01*
X011513Y026171D01*
X011436Y026248D01*
X011436Y026401D01*
X011053Y026478D02*
X011053Y026171D01*
X010132Y026401D02*
X009979Y026401D01*
X010055Y026555D02*
X010132Y026632D01*
X010055Y026555D02*
X010055Y026171D01*
X009825Y026171D02*
X009672Y026171D01*
X009748Y026171D02*
X009748Y026478D01*
X009672Y026478D01*
X009748Y026632D02*
X009748Y026708D01*
X009748Y026921D02*
X009595Y026921D01*
X009518Y026998D01*
X009518Y027151D01*
X009595Y027228D01*
X009748Y027228D01*
X009825Y027151D01*
X009825Y027075D01*
X009518Y027075D01*
X009365Y026921D02*
X009211Y026921D01*
X009288Y026921D02*
X009288Y027382D01*
X009211Y027382D01*
X009058Y027228D02*
X008828Y027228D01*
X008751Y027151D01*
X008751Y026998D01*
X008828Y026921D01*
X009058Y026921D01*
X009058Y026844D02*
X009058Y027228D01*
X009058Y026844D02*
X008981Y026768D01*
X008904Y026768D01*
X008981Y026632D02*
X008905Y026555D01*
X008905Y026248D01*
X008981Y026171D01*
X009135Y026171D01*
X009211Y026248D01*
X009365Y026171D02*
X009518Y026171D01*
X009442Y026171D02*
X009442Y026632D01*
X009365Y026632D01*
X009211Y026555D02*
X009135Y026632D01*
X008981Y026632D01*
X008598Y026844D02*
X008598Y027228D01*
X008367Y027228D01*
X008291Y027151D01*
X008291Y026998D01*
X008367Y026921D01*
X008598Y026921D01*
X008598Y026844D02*
X008521Y026768D01*
X008444Y026768D01*
X008291Y026478D02*
X008291Y026094D01*
X008214Y026018D01*
X008137Y026018D01*
X008061Y026171D02*
X007984Y026248D01*
X007984Y026478D01*
X007830Y026401D02*
X007754Y026478D01*
X007523Y026478D01*
X007523Y026632D02*
X007523Y026171D01*
X007754Y026171D01*
X007830Y026248D01*
X007830Y026401D01*
X008061Y026171D02*
X008291Y026171D01*
X008137Y026921D02*
X007984Y026921D01*
X008061Y026921D02*
X008061Y027228D01*
X007984Y027228D01*
X008061Y027382D02*
X008061Y027458D01*
X007830Y027382D02*
X007830Y026921D01*
X007677Y027075D01*
X007523Y026921D01*
X007523Y027382D01*
X012817Y026401D02*
X012817Y026248D01*
X012894Y026171D01*
X013048Y026171D01*
X013124Y026248D01*
X013124Y026401D01*
X013048Y026478D01*
X012894Y026478D01*
X012817Y026401D01*
X012971Y026768D02*
X013048Y026768D01*
X013124Y026844D01*
X013124Y027228D01*
X013738Y027151D02*
X013815Y027228D01*
X013968Y027228D01*
X014045Y027151D01*
X014045Y027075D01*
X013738Y027075D01*
X013738Y027151D02*
X013738Y026998D01*
X013815Y026921D01*
X013968Y026921D01*
X014659Y027228D02*
X014812Y026921D01*
X014966Y027228D01*
X015119Y027305D02*
X015196Y027382D01*
X015349Y027382D01*
X015426Y027305D01*
X015119Y026998D01*
X015196Y026921D01*
X015349Y026921D01*
X015426Y026998D01*
X015426Y027305D01*
X015119Y027305D02*
X015119Y026998D01*
X015580Y026998D02*
X015580Y026921D01*
X015656Y026921D01*
X015656Y026998D01*
X015580Y026998D01*
X015810Y026921D02*
X016117Y026921D01*
X015963Y026921D02*
X015963Y027382D01*
X015810Y027228D01*
D13*
X010988Y019986D02*
X010803Y019986D01*
X010742Y019924D01*
X010803Y019862D01*
X010988Y019862D01*
X010988Y019739D02*
X010742Y019739D01*
X010742Y019800D01*
X010803Y019862D01*
X010803Y019617D02*
X010742Y019556D01*
X010742Y019432D01*
X010803Y019370D01*
X010927Y019370D01*
X010988Y019432D01*
X010988Y019556D01*
X010927Y019617D01*
X010803Y019617D01*
X010742Y019249D02*
X010742Y019064D01*
X010803Y019002D01*
X010927Y019002D01*
X010988Y019064D01*
X010988Y019249D01*
X010988Y018880D02*
X010988Y018818D01*
X010927Y018818D01*
X010927Y018880D01*
X010988Y018880D01*
X010927Y018696D02*
X010988Y018635D01*
X010988Y018450D01*
X011112Y018450D02*
X010742Y018450D01*
X010742Y018635D01*
X010803Y018696D01*
X010927Y018696D01*
X010927Y018328D02*
X010803Y018328D01*
X010742Y018266D01*
X010742Y018143D01*
X010803Y018081D01*
X010927Y018081D01*
X010988Y018143D01*
X010988Y018266D01*
X010927Y018328D01*
X010988Y017960D02*
X010803Y017960D01*
X010742Y017898D01*
X010742Y017775D01*
X010803Y017713D01*
X010742Y017592D02*
X010742Y017406D01*
X010803Y017345D01*
X010865Y017406D01*
X010865Y017530D01*
X010927Y017592D01*
X010988Y017530D01*
X010988Y017345D01*
X010865Y017223D02*
X010865Y016976D01*
X010803Y016976D02*
X010742Y017038D01*
X010742Y017162D01*
X010803Y017223D01*
X010865Y017223D01*
X010988Y017162D02*
X010988Y017038D01*
X010927Y016976D01*
X010803Y016976D01*
X010742Y016855D02*
X010742Y016670D01*
X010803Y016608D01*
X010927Y016608D01*
X010988Y016670D01*
X010988Y016855D01*
X010988Y016487D02*
X010803Y016487D01*
X010742Y016425D01*
X010742Y016301D01*
X010865Y016301D02*
X010865Y016487D01*
X010988Y016487D02*
X010988Y016301D01*
X010927Y016240D01*
X010865Y016301D01*
X010803Y016118D02*
X010927Y016118D01*
X010988Y016057D01*
X010988Y015871D01*
X011112Y015871D02*
X010742Y015871D01*
X010742Y016057D01*
X010803Y016118D01*
X010742Y015750D02*
X010742Y015565D01*
X010803Y015503D01*
X010865Y015565D01*
X010865Y015688D01*
X010927Y015750D01*
X010988Y015688D01*
X010988Y015503D01*
X010742Y015381D02*
X010742Y015320D01*
X010865Y015196D01*
X010865Y015075D02*
X010865Y014828D01*
X010803Y014828D02*
X010742Y014890D01*
X010742Y015013D01*
X010803Y015075D01*
X010865Y015075D01*
X010988Y015013D02*
X010988Y014890D01*
X010927Y014828D01*
X010803Y014828D01*
X010742Y014706D02*
X010865Y014521D01*
X010988Y014706D01*
X010988Y014521D02*
X010618Y014521D01*
X010742Y014400D02*
X010742Y014214D01*
X010803Y014153D01*
X010927Y014153D01*
X010988Y014214D01*
X010988Y014400D01*
X010988Y014031D02*
X010803Y014031D01*
X010742Y013970D01*
X010742Y013846D01*
X010865Y013846D02*
X010865Y014031D01*
X010988Y014031D02*
X010988Y013846D01*
X010927Y013784D01*
X010865Y013846D01*
X010803Y013663D02*
X010988Y013663D01*
X010803Y013663D02*
X010742Y013601D01*
X010742Y013478D01*
X010803Y013416D01*
X010618Y013416D02*
X010988Y013416D01*
X010988Y015196D02*
X010742Y015196D01*
X010618Y017713D02*
X010988Y017713D01*
X016247Y006654D02*
X016198Y006606D01*
X016198Y006509D01*
X016247Y006461D01*
X016198Y006360D02*
X016440Y006360D01*
X016488Y006311D01*
X016488Y006215D01*
X016440Y006166D01*
X016198Y006166D01*
X016488Y006461D02*
X016295Y006654D01*
X016247Y006654D01*
X016488Y006654D02*
X016488Y006461D01*
D14*
X002503Y002151D02*
X000253Y002151D01*
X000253Y003151D02*
X002503Y003151D01*
X002503Y010651D02*
X000253Y010651D01*
X000253Y011651D02*
X002503Y011651D01*
X002503Y012651D02*
X000253Y012651D01*
X000253Y022651D02*
X002503Y022651D01*
X002503Y023651D02*
X000253Y023651D01*
X000253Y024651D02*
X002503Y024651D01*
X011228Y020276D02*
X011230Y020300D01*
X011236Y020324D01*
X011245Y020346D01*
X011258Y020366D01*
X011274Y020384D01*
X011293Y020399D01*
X011314Y020412D01*
X011336Y020420D01*
X011360Y020425D01*
X011384Y020426D01*
X011408Y020423D01*
X011431Y020416D01*
X011453Y020406D01*
X011473Y020392D01*
X011490Y020375D01*
X011505Y020356D01*
X011516Y020335D01*
X011524Y020312D01*
X011528Y020288D01*
X011528Y020264D01*
X011524Y020240D01*
X011516Y020217D01*
X011505Y020196D01*
X011490Y020177D01*
X011473Y020160D01*
X011453Y020146D01*
X011431Y020136D01*
X011408Y020129D01*
X011384Y020126D01*
X011360Y020127D01*
X011336Y020132D01*
X011314Y020140D01*
X011293Y020153D01*
X011274Y020168D01*
X011258Y020186D01*
X011245Y020206D01*
X011236Y020228D01*
X011230Y020252D01*
X011228Y020276D01*
D15*
X011753Y023651D02*
X013253Y023651D01*
X004674Y006862D02*
X004464Y006862D01*
X004464Y006441D01*
X004674Y006441D01*
X004744Y006511D01*
X004744Y006791D01*
X004674Y006862D01*
X004284Y006862D02*
X004284Y006441D01*
X004004Y006862D01*
X004004Y006441D01*
X003824Y006511D02*
X003824Y006651D01*
X003684Y006651D01*
X003824Y006511D02*
X003754Y006441D01*
X003614Y006441D01*
X003543Y006511D01*
X003543Y006791D01*
X003614Y006862D01*
X003754Y006862D01*
X003824Y006791D01*
D16*
X004253Y006151D02*
X004753Y006151D01*
X005003Y005901D01*
X005003Y005401D01*
X004753Y005151D01*
X005003Y004901D01*
X005003Y004401D01*
X004753Y004151D01*
X004253Y004151D01*
X004003Y004401D01*
X004003Y004901D01*
X004253Y005151D01*
X004003Y005401D01*
X004003Y005901D01*
X004253Y006151D01*
X004253Y005151D02*
X004753Y005151D01*
X003753Y003651D02*
X002753Y003651D01*
X002753Y002651D01*
X002753Y001651D01*
X003753Y001651D01*
X003753Y002651D01*
X003753Y003651D01*
X003753Y002651D02*
X002753Y002651D01*
X006103Y006751D02*
X006903Y006751D01*
X006903Y006951D01*
X006503Y006951D01*
X006103Y006951D01*
X006103Y006751D01*
X005503Y006651D02*
X005505Y006714D01*
X005511Y006776D01*
X005521Y006838D01*
X005534Y006900D01*
X005552Y006960D01*
X005573Y007019D01*
X005598Y007077D01*
X005627Y007133D01*
X005659Y007187D01*
X005694Y007239D01*
X005732Y007288D01*
X005774Y007336D01*
X005818Y007380D01*
X005866Y007422D01*
X005915Y007460D01*
X005967Y007495D01*
X006021Y007527D01*
X006077Y007556D01*
X006135Y007581D01*
X006194Y007602D01*
X006254Y007620D01*
X006316Y007633D01*
X006378Y007643D01*
X006440Y007649D01*
X006503Y007651D01*
X006566Y007649D01*
X006628Y007643D01*
X006690Y007633D01*
X006752Y007620D01*
X006812Y007602D01*
X006871Y007581D01*
X006929Y007556D01*
X006985Y007527D01*
X007039Y007495D01*
X007091Y007460D01*
X007140Y007422D01*
X007188Y007380D01*
X007232Y007336D01*
X007274Y007288D01*
X007312Y007239D01*
X007347Y007187D01*
X007379Y007133D01*
X007408Y007077D01*
X007433Y007019D01*
X007454Y006960D01*
X007472Y006900D01*
X007485Y006838D01*
X007495Y006776D01*
X007501Y006714D01*
X007503Y006651D01*
X007501Y006588D01*
X007495Y006526D01*
X007485Y006464D01*
X007472Y006402D01*
X007454Y006342D01*
X007433Y006283D01*
X007408Y006225D01*
X007379Y006169D01*
X007347Y006115D01*
X007312Y006063D01*
X007274Y006014D01*
X007232Y005966D01*
X007188Y005922D01*
X007140Y005880D01*
X007091Y005842D01*
X007039Y005807D01*
X006985Y005775D01*
X006929Y005746D01*
X006871Y005721D01*
X006812Y005700D01*
X006752Y005682D01*
X006690Y005669D01*
X006628Y005659D01*
X006566Y005653D01*
X006503Y005651D01*
X006440Y005653D01*
X006378Y005659D01*
X006316Y005669D01*
X006254Y005682D01*
X006194Y005700D01*
X006135Y005721D01*
X006077Y005746D01*
X006021Y005775D01*
X005967Y005807D01*
X005915Y005842D01*
X005866Y005880D01*
X005818Y005922D01*
X005774Y005966D01*
X005732Y006014D01*
X005694Y006063D01*
X005659Y006115D01*
X005627Y006169D01*
X005598Y006225D01*
X005573Y006283D01*
X005552Y006342D01*
X005534Y006402D01*
X005521Y006464D01*
X005511Y006526D01*
X005505Y006588D01*
X005503Y006651D01*
X006503Y006401D02*
X006503Y006051D01*
X006503Y006951D02*
X006503Y007251D01*
X007103Y007051D02*
X007303Y007051D01*
X007203Y007151D02*
X007203Y006951D01*
X006853Y008551D02*
X004153Y008551D01*
X004136Y008553D01*
X004119Y008557D01*
X004103Y008564D01*
X004089Y008574D01*
X004076Y008587D01*
X004066Y008601D01*
X004059Y008617D01*
X004055Y008634D01*
X004053Y008651D01*
X004053Y009651D01*
X004055Y009668D01*
X004059Y009685D01*
X004066Y009701D01*
X004076Y009715D01*
X004089Y009728D01*
X004103Y009738D01*
X004119Y009745D01*
X004136Y009749D01*
X004153Y009751D01*
X006853Y009751D01*
X006870Y009749D01*
X006887Y009745D01*
X006903Y009738D01*
X006917Y009728D01*
X006930Y009715D01*
X006940Y009701D01*
X006947Y009685D01*
X006951Y009668D01*
X006953Y009651D01*
X006953Y008651D01*
X006951Y008634D01*
X006947Y008617D01*
X006940Y008601D01*
X006930Y008587D01*
X006917Y008574D01*
X006903Y008564D01*
X006887Y008557D01*
X006870Y008553D01*
X006853Y008551D01*
X006103Y009151D02*
X005633Y009151D01*
X005383Y009151D02*
X004903Y009151D01*
X003753Y010151D02*
X002753Y010151D01*
X002753Y011151D01*
X002753Y012151D01*
X002753Y013151D01*
X003753Y013151D01*
X003753Y012151D01*
X002753Y012151D01*
X002753Y011151D02*
X003753Y011151D01*
X003753Y012151D01*
X003753Y011151D02*
X003753Y010151D01*
X004153Y013551D02*
X006853Y013551D01*
X006870Y013553D01*
X006887Y013557D01*
X006903Y013564D01*
X006917Y013574D01*
X006930Y013587D01*
X006940Y013601D01*
X006947Y013617D01*
X006951Y013634D01*
X006953Y013651D01*
X006953Y014651D01*
X006951Y014668D01*
X006947Y014685D01*
X006940Y014701D01*
X006930Y014715D01*
X006917Y014728D01*
X006903Y014738D01*
X006887Y014745D01*
X006870Y014749D01*
X006853Y014751D01*
X004153Y014751D01*
X004136Y014749D01*
X004119Y014745D01*
X004103Y014738D01*
X004089Y014728D01*
X004076Y014715D01*
X004066Y014701D01*
X004059Y014685D01*
X004055Y014668D01*
X004053Y014651D01*
X004053Y013651D01*
X004055Y013634D01*
X004059Y013617D01*
X004066Y013601D01*
X004076Y013587D01*
X004089Y013574D01*
X004103Y013564D01*
X004119Y013557D01*
X004136Y013553D01*
X004153Y013551D01*
X004903Y014151D02*
X005383Y014151D01*
X005633Y014151D02*
X006103Y014151D01*
X007403Y013251D02*
X007403Y013001D01*
X007453Y012951D01*
X007453Y010351D01*
X007403Y010301D01*
X007403Y010051D01*
X007405Y010034D01*
X007409Y010017D01*
X007416Y010001D01*
X007426Y009987D01*
X007439Y009974D01*
X007453Y009964D01*
X007469Y009957D01*
X007486Y009953D01*
X007503Y009951D01*
X008503Y009951D01*
X008520Y009953D01*
X008537Y009957D01*
X008553Y009964D01*
X008567Y009974D01*
X008580Y009987D01*
X008590Y010001D01*
X008597Y010017D01*
X008601Y010034D01*
X008603Y010051D01*
X008603Y010301D01*
X008553Y010351D01*
X008553Y012951D01*
X008603Y013001D01*
X008603Y013251D01*
X008601Y013268D01*
X008597Y013285D01*
X008590Y013301D01*
X008580Y013315D01*
X008567Y013328D01*
X008553Y013338D01*
X008537Y013345D01*
X008520Y013349D01*
X008503Y013351D01*
X007503Y013351D01*
X007486Y013349D01*
X007469Y013345D01*
X007453Y013338D01*
X007439Y013328D01*
X007426Y013315D01*
X007416Y013301D01*
X007409Y013285D01*
X007405Y013268D01*
X007403Y013251D01*
X008903Y013251D02*
X008903Y013001D01*
X008953Y012951D01*
X008953Y010351D01*
X008903Y010301D01*
X008903Y010051D01*
X008905Y010034D01*
X008909Y010017D01*
X008916Y010001D01*
X008926Y009987D01*
X008939Y009974D01*
X008953Y009964D01*
X008969Y009957D01*
X008986Y009953D01*
X009003Y009951D01*
X010003Y009951D01*
X010020Y009953D01*
X010037Y009957D01*
X010053Y009964D01*
X010067Y009974D01*
X010080Y009987D01*
X010090Y010001D01*
X010097Y010017D01*
X010101Y010034D01*
X010103Y010051D01*
X010103Y010301D01*
X010053Y010351D01*
X010053Y012951D01*
X010103Y013001D01*
X010103Y013251D01*
X010101Y013268D01*
X010097Y013285D01*
X010090Y013301D01*
X010080Y013315D01*
X010067Y013328D01*
X010053Y013338D01*
X010037Y013345D01*
X010020Y013349D01*
X010003Y013351D01*
X009003Y013351D01*
X008986Y013349D01*
X008969Y013345D01*
X008953Y013338D01*
X008939Y013328D01*
X008926Y013315D01*
X008916Y013301D01*
X008909Y013285D01*
X008905Y013268D01*
X008903Y013251D01*
X011303Y013151D02*
X011303Y012151D01*
X011305Y012134D01*
X011309Y012117D01*
X011316Y012101D01*
X011326Y012087D01*
X011339Y012074D01*
X011353Y012064D01*
X011369Y012057D01*
X011386Y012053D01*
X011403Y012051D01*
X011653Y012051D01*
X011703Y012101D01*
X014303Y012101D01*
X014353Y012051D01*
X014603Y012051D01*
X014620Y012053D01*
X014637Y012057D01*
X014653Y012064D01*
X014667Y012074D01*
X014680Y012087D01*
X014690Y012101D01*
X014697Y012117D01*
X014701Y012134D01*
X014703Y012151D01*
X014703Y013151D01*
X014701Y013168D01*
X014697Y013185D01*
X014690Y013201D01*
X014680Y013215D01*
X014667Y013228D01*
X014653Y013238D01*
X014637Y013245D01*
X014620Y013249D01*
X014603Y013251D01*
X014353Y013251D01*
X014303Y013201D01*
X011703Y013201D01*
X011653Y013251D01*
X011403Y013251D01*
X011386Y013249D01*
X011369Y013245D01*
X011353Y013238D01*
X011339Y013228D01*
X011326Y013215D01*
X011316Y013201D01*
X011309Y013185D01*
X011305Y013168D01*
X011303Y013151D01*
X011753Y014151D02*
X012253Y014151D01*
X012503Y014401D01*
X012753Y014151D01*
X013253Y014151D01*
X013503Y014401D01*
X013503Y014901D01*
X013253Y015151D01*
X012753Y015151D01*
X012503Y014901D01*
X012503Y014401D01*
X012503Y014901D02*
X012253Y015151D01*
X011753Y015151D01*
X011503Y014901D01*
X011503Y014401D01*
X011753Y014151D01*
X011653Y011751D02*
X011403Y011751D01*
X011386Y011749D01*
X011369Y011745D01*
X011353Y011738D01*
X011339Y011728D01*
X011326Y011715D01*
X011316Y011701D01*
X011309Y011685D01*
X011305Y011668D01*
X011303Y011651D01*
X011303Y010651D01*
X011305Y010634D01*
X011309Y010617D01*
X011316Y010601D01*
X011326Y010587D01*
X011339Y010574D01*
X011353Y010564D01*
X011369Y010557D01*
X011386Y010553D01*
X011403Y010551D01*
X011653Y010551D01*
X011703Y010601D01*
X014303Y010601D01*
X014353Y010551D01*
X014603Y010551D01*
X014620Y010553D01*
X014637Y010557D01*
X014653Y010564D01*
X014667Y010574D01*
X014680Y010587D01*
X014690Y010601D01*
X014697Y010617D01*
X014701Y010634D01*
X014703Y010651D01*
X014703Y011651D01*
X014701Y011668D01*
X014697Y011685D01*
X014690Y011701D01*
X014680Y011715D01*
X014667Y011728D01*
X014653Y011738D01*
X014637Y011745D01*
X014620Y011749D01*
X014603Y011751D01*
X014353Y011751D01*
X014303Y011701D01*
X011703Y011701D01*
X011653Y011751D01*
X011653Y010251D02*
X011403Y010251D01*
X011386Y010249D01*
X011369Y010245D01*
X011353Y010238D01*
X011339Y010228D01*
X011326Y010215D01*
X011316Y010201D01*
X011309Y010185D01*
X011305Y010168D01*
X011303Y010151D01*
X011303Y009151D01*
X011305Y009134D01*
X011309Y009117D01*
X011316Y009101D01*
X011326Y009087D01*
X011339Y009074D01*
X011353Y009064D01*
X011369Y009057D01*
X011386Y009053D01*
X011403Y009051D01*
X011653Y009051D01*
X011703Y009101D01*
X014303Y009101D01*
X014353Y009051D01*
X014603Y009051D01*
X014620Y009053D01*
X014637Y009057D01*
X014653Y009064D01*
X014667Y009074D01*
X014680Y009087D01*
X014690Y009101D01*
X014697Y009117D01*
X014701Y009134D01*
X014703Y009151D01*
X014703Y010151D01*
X014701Y010168D01*
X014697Y010185D01*
X014690Y010201D01*
X014680Y010215D01*
X014667Y010228D01*
X014653Y010238D01*
X014637Y010245D01*
X014620Y010249D01*
X014603Y010251D01*
X014353Y010251D01*
X014303Y010201D01*
X011703Y010201D01*
X011653Y010251D01*
X012003Y008101D02*
X013003Y008101D01*
X013020Y008099D01*
X013037Y008095D01*
X013053Y008088D01*
X013067Y008078D01*
X013080Y008065D01*
X013090Y008051D01*
X013097Y008035D01*
X013101Y008018D01*
X013103Y008001D01*
X013103Y005301D01*
X013101Y005284D01*
X013097Y005267D01*
X013090Y005251D01*
X013080Y005237D01*
X013067Y005224D01*
X013053Y005214D01*
X013037Y005207D01*
X013020Y005203D01*
X013003Y005201D01*
X012003Y005201D01*
X011986Y005203D01*
X011969Y005207D01*
X011953Y005214D01*
X011939Y005224D01*
X011926Y005237D01*
X011916Y005251D01*
X011909Y005267D01*
X011905Y005284D01*
X011903Y005301D01*
X011903Y008001D01*
X011905Y008018D01*
X011909Y008035D01*
X011916Y008051D01*
X011926Y008065D01*
X011939Y008078D01*
X011953Y008088D01*
X011969Y008095D01*
X011986Y008099D01*
X012003Y008101D01*
X012503Y007251D02*
X012503Y006771D01*
X012503Y006521D02*
X012503Y006051D01*
X011563Y006332D02*
X011526Y006332D01*
X011563Y006332D02*
X010444Y006332D01*
X010481Y006332D01*
X010444Y006332D02*
X010444Y006970D01*
X010481Y006970D01*
X010444Y006970D02*
X011563Y006970D01*
X011526Y006970D01*
X011563Y006970D02*
X011563Y006332D01*
X011209Y006332D02*
X011172Y006332D01*
X010835Y006332D02*
X010798Y006332D01*
X010798Y006970D02*
X011209Y006970D01*
X009803Y007051D02*
X009603Y007051D01*
X009703Y007151D02*
X009703Y006951D01*
X009403Y006951D02*
X009003Y006951D01*
X008603Y006951D01*
X008603Y006751D01*
X009403Y006751D01*
X009403Y006951D01*
X009003Y006951D02*
X009003Y007251D01*
X008003Y006651D02*
X008005Y006714D01*
X008011Y006776D01*
X008021Y006838D01*
X008034Y006900D01*
X008052Y006960D01*
X008073Y007019D01*
X008098Y007077D01*
X008127Y007133D01*
X008159Y007187D01*
X008194Y007239D01*
X008232Y007288D01*
X008274Y007336D01*
X008318Y007380D01*
X008366Y007422D01*
X008415Y007460D01*
X008467Y007495D01*
X008521Y007527D01*
X008577Y007556D01*
X008635Y007581D01*
X008694Y007602D01*
X008754Y007620D01*
X008816Y007633D01*
X008878Y007643D01*
X008940Y007649D01*
X009003Y007651D01*
X009066Y007649D01*
X009128Y007643D01*
X009190Y007633D01*
X009252Y007620D01*
X009312Y007602D01*
X009371Y007581D01*
X009429Y007556D01*
X009485Y007527D01*
X009539Y007495D01*
X009591Y007460D01*
X009640Y007422D01*
X009688Y007380D01*
X009732Y007336D01*
X009774Y007288D01*
X009812Y007239D01*
X009847Y007187D01*
X009879Y007133D01*
X009908Y007077D01*
X009933Y007019D01*
X009954Y006960D01*
X009972Y006900D01*
X009985Y006838D01*
X009995Y006776D01*
X010001Y006714D01*
X010003Y006651D01*
X010001Y006588D01*
X009995Y006526D01*
X009985Y006464D01*
X009972Y006402D01*
X009954Y006342D01*
X009933Y006283D01*
X009908Y006225D01*
X009879Y006169D01*
X009847Y006115D01*
X009812Y006063D01*
X009774Y006014D01*
X009732Y005966D01*
X009688Y005922D01*
X009640Y005880D01*
X009591Y005842D01*
X009539Y005807D01*
X009485Y005775D01*
X009429Y005746D01*
X009371Y005721D01*
X009312Y005700D01*
X009252Y005682D01*
X009190Y005669D01*
X009128Y005659D01*
X009066Y005653D01*
X009003Y005651D01*
X008940Y005653D01*
X008878Y005659D01*
X008816Y005669D01*
X008754Y005682D01*
X008694Y005700D01*
X008635Y005721D01*
X008577Y005746D01*
X008521Y005775D01*
X008467Y005807D01*
X008415Y005842D01*
X008366Y005880D01*
X008318Y005922D01*
X008274Y005966D01*
X008232Y006014D01*
X008194Y006063D01*
X008159Y006115D01*
X008127Y006169D01*
X008098Y006225D01*
X008073Y006283D01*
X008052Y006342D01*
X008034Y006402D01*
X008021Y006464D01*
X008011Y006526D01*
X008005Y006588D01*
X008003Y006651D01*
X009003Y006401D02*
X009003Y006051D01*
X008503Y004801D02*
X008503Y004501D01*
X008653Y004651D02*
X008353Y004651D01*
X008003Y003801D02*
X008003Y003601D01*
X008003Y003501D01*
X008453Y003501D01*
X008453Y003251D01*
X007553Y003251D01*
X007553Y003501D01*
X008003Y003501D01*
X006003Y003151D02*
X006005Y003249D01*
X006013Y003347D01*
X006025Y003444D01*
X006041Y003541D01*
X006063Y003637D01*
X006089Y003732D01*
X006120Y003825D01*
X006155Y003916D01*
X006195Y004006D01*
X006239Y004094D01*
X006288Y004179D01*
X006340Y004262D01*
X006397Y004342D01*
X006457Y004420D01*
X006521Y004494D01*
X006589Y004565D01*
X006660Y004633D01*
X006734Y004697D01*
X006812Y004757D01*
X006892Y004814D01*
X006975Y004866D01*
X007060Y004915D01*
X007148Y004959D01*
X007238Y004999D01*
X007329Y005034D01*
X007422Y005065D01*
X007517Y005091D01*
X007613Y005113D01*
X007710Y005129D01*
X007807Y005141D01*
X007905Y005149D01*
X008003Y005151D01*
X008101Y005149D01*
X008199Y005141D01*
X008296Y005129D01*
X008393Y005113D01*
X008489Y005091D01*
X008584Y005065D01*
X008677Y005034D01*
X008768Y004999D01*
X008858Y004959D01*
X008946Y004915D01*
X009031Y004866D01*
X009114Y004814D01*
X009194Y004757D01*
X009272Y004697D01*
X009346Y004633D01*
X009417Y004565D01*
X009485Y004494D01*
X009549Y004420D01*
X009609Y004342D01*
X009666Y004262D01*
X009718Y004179D01*
X009767Y004094D01*
X009811Y004006D01*
X009851Y003916D01*
X009886Y003825D01*
X009917Y003732D01*
X009943Y003637D01*
X009965Y003541D01*
X009981Y003444D01*
X009993Y003347D01*
X010001Y003249D01*
X010003Y003151D01*
X010001Y003053D01*
X009993Y002955D01*
X009981Y002858D01*
X009965Y002761D01*
X009943Y002665D01*
X009917Y002570D01*
X009886Y002477D01*
X009851Y002386D01*
X009811Y002296D01*
X009767Y002208D01*
X009718Y002123D01*
X009666Y002040D01*
X009609Y001960D01*
X009549Y001882D01*
X009485Y001808D01*
X009417Y001737D01*
X009346Y001669D01*
X009272Y001605D01*
X009194Y001545D01*
X009114Y001488D01*
X009031Y001436D01*
X008946Y001387D01*
X008858Y001343D01*
X008768Y001303D01*
X008677Y001268D01*
X008584Y001237D01*
X008489Y001211D01*
X008393Y001189D01*
X008296Y001173D01*
X008199Y001161D01*
X008101Y001153D01*
X008003Y001151D01*
X007905Y001153D01*
X007807Y001161D01*
X007710Y001173D01*
X007613Y001189D01*
X007517Y001211D01*
X007422Y001237D01*
X007329Y001268D01*
X007238Y001303D01*
X007148Y001343D01*
X007060Y001387D01*
X006975Y001436D01*
X006892Y001488D01*
X006812Y001545D01*
X006734Y001605D01*
X006660Y001669D01*
X006589Y001737D01*
X006521Y001808D01*
X006457Y001882D01*
X006397Y001960D01*
X006340Y002040D01*
X006288Y002123D01*
X006239Y002208D01*
X006195Y002296D01*
X006155Y002386D01*
X006120Y002477D01*
X006089Y002570D01*
X006063Y002665D01*
X006041Y002761D01*
X006025Y002858D01*
X006013Y002955D01*
X006005Y003053D01*
X006003Y003151D01*
X008003Y002901D02*
X008003Y002701D01*
X008003Y002501D01*
X010403Y001801D02*
X010403Y004501D01*
X010405Y004518D01*
X010409Y004535D01*
X010416Y004551D01*
X010426Y004565D01*
X010439Y004578D01*
X010453Y004588D01*
X010469Y004595D01*
X010486Y004599D01*
X010503Y004601D01*
X011503Y004601D01*
X011520Y004599D01*
X011537Y004595D01*
X011553Y004588D01*
X011567Y004578D01*
X011580Y004565D01*
X011590Y004551D01*
X011597Y004535D01*
X011601Y004518D01*
X011603Y004501D01*
X011603Y001801D01*
X011601Y001784D01*
X011597Y001767D01*
X011590Y001751D01*
X011580Y001737D01*
X011567Y001724D01*
X011553Y001714D01*
X011537Y001707D01*
X011520Y001703D01*
X011503Y001701D01*
X010503Y001701D01*
X010486Y001703D01*
X010469Y001707D01*
X010453Y001714D01*
X010439Y001724D01*
X010426Y001737D01*
X010416Y001751D01*
X010409Y001767D01*
X010405Y001784D01*
X010403Y001801D01*
X011003Y002551D02*
X011003Y003021D01*
X011003Y003271D02*
X011003Y003751D01*
X011903Y004501D02*
X011903Y001801D01*
X011905Y001784D01*
X011909Y001767D01*
X011916Y001751D01*
X011926Y001737D01*
X011939Y001724D01*
X011953Y001714D01*
X011969Y001707D01*
X011986Y001703D01*
X012003Y001701D01*
X013003Y001701D01*
X013020Y001703D01*
X013037Y001707D01*
X013053Y001714D01*
X013067Y001724D01*
X013080Y001737D01*
X013090Y001751D01*
X013097Y001767D01*
X013101Y001784D01*
X013103Y001801D01*
X013103Y004501D01*
X013101Y004518D01*
X013097Y004535D01*
X013090Y004551D01*
X013080Y004565D01*
X013067Y004578D01*
X013053Y004588D01*
X013037Y004595D01*
X013020Y004599D01*
X013003Y004601D01*
X012003Y004601D01*
X011986Y004599D01*
X011969Y004595D01*
X011953Y004588D01*
X011939Y004578D01*
X011926Y004565D01*
X011916Y004551D01*
X011909Y004535D01*
X011905Y004518D01*
X011903Y004501D01*
X012503Y003751D02*
X012503Y003271D01*
X012503Y003021D02*
X012503Y002551D01*
X013403Y001801D02*
X013403Y004501D01*
X013405Y004518D01*
X013409Y004535D01*
X013416Y004551D01*
X013426Y004565D01*
X013439Y004578D01*
X013453Y004588D01*
X013469Y004595D01*
X013486Y004599D01*
X013503Y004601D01*
X014503Y004601D01*
X014520Y004599D01*
X014537Y004595D01*
X014553Y004588D01*
X014567Y004578D01*
X014580Y004565D01*
X014590Y004551D01*
X014597Y004535D01*
X014601Y004518D01*
X014603Y004501D01*
X014603Y001801D01*
X014601Y001784D01*
X014597Y001767D01*
X014590Y001751D01*
X014580Y001737D01*
X014567Y001724D01*
X014553Y001714D01*
X014537Y001707D01*
X014520Y001703D01*
X014503Y001701D01*
X013503Y001701D01*
X013486Y001703D01*
X013469Y001707D01*
X013453Y001714D01*
X013439Y001724D01*
X013426Y001737D01*
X013416Y001751D01*
X013409Y001767D01*
X013405Y001784D01*
X013403Y001801D01*
X014003Y002551D02*
X014003Y003021D01*
X014003Y003271D02*
X014003Y003751D01*
X013503Y005201D02*
X014503Y005201D01*
X014520Y005203D01*
X014537Y005207D01*
X014553Y005214D01*
X014567Y005224D01*
X014580Y005237D01*
X014590Y005251D01*
X014597Y005267D01*
X014601Y005284D01*
X014603Y005301D01*
X014603Y008001D01*
X014601Y008018D01*
X014597Y008035D01*
X014590Y008051D01*
X014580Y008065D01*
X014567Y008078D01*
X014553Y008088D01*
X014537Y008095D01*
X014520Y008099D01*
X014503Y008101D01*
X013503Y008101D01*
X013486Y008099D01*
X013469Y008095D01*
X013453Y008088D01*
X013439Y008078D01*
X013426Y008065D01*
X013416Y008051D01*
X013409Y008035D01*
X013405Y008018D01*
X013403Y008001D01*
X013403Y005301D01*
X013405Y005284D01*
X013409Y005267D01*
X013416Y005251D01*
X013426Y005237D01*
X013439Y005224D01*
X013453Y005214D01*
X013469Y005207D01*
X013486Y005203D01*
X013503Y005201D01*
X014003Y006051D02*
X014003Y006521D01*
X014003Y006771D02*
X014003Y007251D01*
X015903Y004501D02*
X015903Y001801D01*
X015905Y001784D01*
X015909Y001767D01*
X015916Y001751D01*
X015926Y001737D01*
X015939Y001724D01*
X015953Y001714D01*
X015969Y001707D01*
X015986Y001703D01*
X016003Y001701D01*
X017003Y001701D01*
X017020Y001703D01*
X017037Y001707D01*
X017053Y001714D01*
X017067Y001724D01*
X017080Y001737D01*
X017090Y001751D01*
X017097Y001767D01*
X017101Y001784D01*
X017103Y001801D01*
X017103Y004501D01*
X017101Y004518D01*
X017097Y004535D01*
X017090Y004551D01*
X017080Y004565D01*
X017067Y004578D01*
X017053Y004588D01*
X017037Y004595D01*
X017020Y004599D01*
X017003Y004601D01*
X016003Y004601D01*
X015986Y004599D01*
X015969Y004595D01*
X015953Y004588D01*
X015939Y004578D01*
X015926Y004565D01*
X015916Y004551D01*
X015909Y004535D01*
X015905Y004518D01*
X015903Y004501D01*
X016503Y003751D02*
X016503Y003271D01*
X016503Y003021D02*
X016503Y002551D01*
X016253Y008151D02*
X016003Y008401D01*
X016003Y008901D01*
X016253Y009151D01*
X016003Y009401D01*
X016003Y009901D01*
X016253Y010151D01*
X016003Y010401D01*
X016003Y010901D01*
X016253Y011151D01*
X016003Y011401D01*
X016003Y011901D01*
X016253Y012151D01*
X016003Y012401D01*
X016003Y012901D01*
X016253Y013151D01*
X016753Y013151D01*
X017003Y012901D01*
X017003Y012401D01*
X016753Y012151D01*
X017003Y011901D01*
X017003Y011401D01*
X016753Y011151D01*
X016253Y011151D01*
X016753Y011151D02*
X017003Y010901D01*
X017003Y010401D01*
X016753Y010151D01*
X017003Y009901D01*
X017003Y009401D01*
X016753Y009151D01*
X017003Y008901D01*
X017003Y008401D01*
X016753Y008151D01*
X016253Y008151D01*
X016253Y009151D02*
X016753Y009151D01*
X016753Y010151D02*
X016253Y010151D01*
X016253Y012151D02*
X016753Y012151D01*
X016253Y014151D02*
X015753Y014151D01*
X015503Y014401D01*
X015253Y014151D01*
X014753Y014151D01*
X014503Y014401D01*
X014253Y014151D01*
X013753Y014151D01*
X013503Y014401D01*
X013503Y014901D02*
X013753Y015151D01*
X014253Y015151D01*
X014503Y014901D01*
X014753Y015151D01*
X015253Y015151D01*
X015503Y014901D01*
X015753Y015151D01*
X016253Y015151D01*
X016503Y014901D01*
X016503Y014401D01*
X016253Y014151D01*
X015503Y014401D02*
X015503Y014901D01*
X014503Y014901D02*
X014503Y014401D01*
X013253Y017151D02*
X011753Y017151D01*
X011503Y017401D01*
X011503Y017901D01*
X011753Y018151D01*
X013253Y018151D01*
X013503Y017901D01*
X013503Y017401D01*
X013253Y017151D01*
X013253Y018151D02*
X013503Y018401D01*
X013503Y018901D01*
X013253Y019151D01*
X011753Y019151D01*
X011503Y018901D01*
X011503Y018401D01*
X011753Y018151D01*
X011753Y019151D02*
X011503Y019401D01*
X011503Y019901D01*
X011753Y020151D01*
X013253Y020151D01*
X013503Y019901D01*
X013503Y019401D01*
X013253Y019151D01*
X013853Y020801D02*
X013803Y020851D01*
X011203Y020851D01*
X011153Y020801D01*
X010903Y020801D01*
X010886Y020803D01*
X010869Y020807D01*
X010853Y020814D01*
X010839Y020824D01*
X010826Y020837D01*
X010816Y020851D01*
X010809Y020867D01*
X010805Y020884D01*
X010803Y020901D01*
X010803Y021901D01*
X010805Y021918D01*
X010809Y021935D01*
X010816Y021951D01*
X010826Y021965D01*
X010839Y021978D01*
X010853Y021988D01*
X010869Y021995D01*
X010886Y021999D01*
X010903Y022001D01*
X011153Y022001D01*
X011203Y021951D01*
X013803Y021951D01*
X013853Y022001D01*
X014103Y022001D01*
X014120Y021999D01*
X014137Y021995D01*
X014153Y021988D01*
X014167Y021978D01*
X014180Y021965D01*
X014190Y021951D01*
X014197Y021935D01*
X014201Y021918D01*
X014203Y021901D01*
X014203Y020901D01*
X014201Y020884D01*
X014197Y020867D01*
X014190Y020851D01*
X014180Y020837D01*
X014167Y020824D01*
X014153Y020814D01*
X014137Y020807D01*
X014120Y020803D01*
X014103Y020801D01*
X013853Y020801D01*
X013853Y022301D02*
X013803Y022351D01*
X011203Y022351D01*
X011153Y022301D01*
X010903Y022301D01*
X010886Y022303D01*
X010869Y022307D01*
X010853Y022314D01*
X010839Y022324D01*
X010826Y022337D01*
X010816Y022351D01*
X010809Y022367D01*
X010805Y022384D01*
X010803Y022401D01*
X010803Y023401D01*
X010805Y023418D01*
X010809Y023435D01*
X010816Y023451D01*
X010826Y023465D01*
X010839Y023478D01*
X010853Y023488D01*
X010869Y023495D01*
X010886Y023499D01*
X010903Y023501D01*
X011153Y023501D01*
X011203Y023451D01*
X013803Y023451D01*
X013853Y023501D01*
X014103Y023501D01*
X014120Y023499D01*
X014137Y023495D01*
X014153Y023488D01*
X014167Y023478D01*
X014180Y023465D01*
X014190Y023451D01*
X014197Y023435D01*
X014201Y023418D01*
X014203Y023401D01*
X014203Y022401D01*
X014201Y022384D01*
X014197Y022367D01*
X014190Y022351D01*
X014180Y022337D01*
X014167Y022324D01*
X014153Y022314D01*
X014137Y022307D01*
X014120Y022303D01*
X014103Y022301D01*
X013853Y022301D01*
X015253Y023651D02*
X015003Y023901D01*
X015003Y024401D01*
X015253Y024651D01*
X015003Y024901D01*
X015003Y025401D01*
X015253Y025651D01*
X015003Y025901D01*
X015003Y026401D01*
X015253Y026651D01*
X015753Y026651D01*
X016003Y026401D01*
X016003Y025901D01*
X015753Y025651D01*
X016003Y025401D01*
X016003Y024901D01*
X015753Y024651D01*
X016003Y024401D01*
X016003Y023901D01*
X015753Y023651D01*
X015253Y023651D01*
X015253Y024651D02*
X015753Y024651D01*
X015753Y025651D02*
X015253Y025651D01*
X012503Y023801D02*
X012447Y023803D01*
X012392Y023808D01*
X012337Y023817D01*
X012283Y023830D01*
X012230Y023846D01*
X012178Y023866D01*
X012127Y023889D01*
X012078Y023915D01*
X012031Y023944D01*
X011986Y023977D01*
X011943Y024012D01*
X011902Y024050D01*
X011864Y024091D01*
X011829Y024134D01*
X011796Y024179D01*
X011767Y024226D01*
X011741Y024275D01*
X011718Y024326D01*
X011698Y024378D01*
X011682Y024431D01*
X011669Y024485D01*
X011660Y024540D01*
X011655Y024595D01*
X011653Y024651D01*
X012503Y025501D02*
X012559Y025499D01*
X012614Y025494D01*
X012669Y025485D01*
X012723Y025472D01*
X012776Y025456D01*
X012828Y025436D01*
X012879Y025413D01*
X012928Y025387D01*
X012975Y025358D01*
X013020Y025325D01*
X013063Y025290D01*
X013104Y025252D01*
X013142Y025211D01*
X013177Y025168D01*
X013210Y025123D01*
X013239Y025076D01*
X013265Y025027D01*
X013288Y024976D01*
X013308Y024924D01*
X013324Y024871D01*
X013337Y024817D01*
X013346Y024762D01*
X013351Y024707D01*
X013353Y024651D01*
X012503Y024001D02*
X012454Y024003D01*
X012406Y024008D01*
X012358Y024017D01*
X012311Y024030D01*
X012266Y024046D01*
X012221Y024065D01*
X012178Y024088D01*
X012137Y024114D01*
X012098Y024143D01*
X012061Y024175D01*
X012027Y024209D01*
X011995Y024246D01*
X011966Y024285D01*
X011940Y024326D01*
X011917Y024369D01*
X011898Y024414D01*
X011882Y024459D01*
X011869Y024506D01*
X011860Y024554D01*
X011855Y024602D01*
X011853Y024651D01*
X012503Y025301D02*
X012552Y025299D01*
X012600Y025294D01*
X012648Y025285D01*
X012695Y025272D01*
X012740Y025256D01*
X012785Y025237D01*
X012828Y025214D01*
X012869Y025188D01*
X012908Y025159D01*
X012945Y025127D01*
X012979Y025093D01*
X013011Y025056D01*
X013040Y025017D01*
X013066Y024976D01*
X013089Y024933D01*
X013108Y024888D01*
X013124Y024843D01*
X013137Y024796D01*
X013146Y024748D01*
X013151Y024700D01*
X013153Y024651D01*
X012503Y024201D02*
X012461Y024203D01*
X012420Y024209D01*
X012380Y024218D01*
X012340Y024231D01*
X012302Y024248D01*
X012266Y024268D01*
X012232Y024292D01*
X012200Y024318D01*
X012170Y024348D01*
X012144Y024380D01*
X012120Y024414D01*
X012100Y024450D01*
X012083Y024488D01*
X012070Y024528D01*
X012061Y024568D01*
X012055Y024609D01*
X012053Y024651D01*
X012503Y025101D02*
X012545Y025099D01*
X012586Y025093D01*
X012626Y025084D01*
X012666Y025071D01*
X012704Y025054D01*
X012740Y025034D01*
X012774Y025010D01*
X012806Y024984D01*
X012836Y024954D01*
X012862Y024922D01*
X012886Y024888D01*
X012906Y024852D01*
X012923Y024814D01*
X012936Y024774D01*
X012945Y024734D01*
X012951Y024693D01*
X012953Y024651D01*
X011503Y024651D02*
X011505Y024714D01*
X011511Y024776D01*
X011521Y024838D01*
X011534Y024900D01*
X011552Y024960D01*
X011573Y025019D01*
X011598Y025077D01*
X011627Y025133D01*
X011659Y025187D01*
X011694Y025239D01*
X011732Y025288D01*
X011774Y025336D01*
X011818Y025380D01*
X011866Y025422D01*
X011915Y025460D01*
X011967Y025495D01*
X012021Y025527D01*
X012077Y025556D01*
X012135Y025581D01*
X012194Y025602D01*
X012254Y025620D01*
X012316Y025633D01*
X012378Y025643D01*
X012440Y025649D01*
X012503Y025651D01*
X012566Y025649D01*
X012628Y025643D01*
X012690Y025633D01*
X012752Y025620D01*
X012812Y025602D01*
X012871Y025581D01*
X012929Y025556D01*
X012985Y025527D01*
X013039Y025495D01*
X013091Y025460D01*
X013140Y025422D01*
X013188Y025380D01*
X013232Y025336D01*
X013274Y025288D01*
X013312Y025239D01*
X013347Y025187D01*
X013379Y025133D01*
X013408Y025077D01*
X013433Y025019D01*
X013454Y024960D01*
X013472Y024900D01*
X013485Y024838D01*
X013495Y024776D01*
X013501Y024714D01*
X013503Y024651D01*
X013501Y024588D01*
X013495Y024526D01*
X013485Y024464D01*
X013472Y024402D01*
X013454Y024342D01*
X013433Y024283D01*
X013408Y024225D01*
X013379Y024169D01*
X013347Y024115D01*
X013312Y024063D01*
X013274Y024014D01*
X013232Y023966D01*
X013188Y023922D01*
X013140Y023880D01*
X013091Y023842D01*
X013039Y023807D01*
X012985Y023775D01*
X012929Y023746D01*
X012871Y023721D01*
X012812Y023700D01*
X012752Y023682D01*
X012690Y023669D01*
X012628Y023659D01*
X012566Y023653D01*
X012503Y023651D01*
X012440Y023653D01*
X012378Y023659D01*
X012316Y023669D01*
X012254Y023682D01*
X012194Y023700D01*
X012135Y023721D01*
X012077Y023746D01*
X012021Y023775D01*
X011967Y023807D01*
X011915Y023842D01*
X011866Y023880D01*
X011818Y023922D01*
X011774Y023966D01*
X011732Y024014D01*
X011694Y024063D01*
X011659Y024115D01*
X011627Y024169D01*
X011598Y024225D01*
X011573Y024283D01*
X011552Y024342D01*
X011534Y024402D01*
X011521Y024464D01*
X011511Y024526D01*
X011505Y024588D01*
X011503Y024651D01*
X010103Y025001D02*
X010053Y024951D01*
X010053Y022351D01*
X010103Y022301D01*
X010103Y022051D01*
X010101Y022034D01*
X010097Y022017D01*
X010090Y022001D01*
X010080Y021987D01*
X010067Y021974D01*
X010053Y021964D01*
X010037Y021957D01*
X010020Y021953D01*
X010003Y021951D01*
X009003Y021951D01*
X008986Y021953D01*
X008969Y021957D01*
X008953Y021964D01*
X008939Y021974D01*
X008926Y021987D01*
X008916Y022001D01*
X008909Y022017D01*
X008905Y022034D01*
X008903Y022051D01*
X008903Y022301D01*
X008953Y022351D01*
X008953Y024951D01*
X008903Y025001D01*
X008903Y025251D01*
X008905Y025268D01*
X008909Y025285D01*
X008916Y025301D01*
X008926Y025315D01*
X008939Y025328D01*
X008953Y025338D01*
X008969Y025345D01*
X008986Y025349D01*
X009003Y025351D01*
X010003Y025351D01*
X010020Y025349D01*
X010037Y025345D01*
X010053Y025338D01*
X010067Y025328D01*
X010080Y025315D01*
X010090Y025301D01*
X010097Y025285D01*
X010101Y025268D01*
X010103Y025251D01*
X010103Y025001D01*
X008603Y025001D02*
X008553Y024951D01*
X008553Y022351D01*
X008603Y022301D01*
X008603Y022051D01*
X008601Y022034D01*
X008597Y022017D01*
X008590Y022001D01*
X008580Y021987D01*
X008567Y021974D01*
X008553Y021964D01*
X008537Y021957D01*
X008520Y021953D01*
X008503Y021951D01*
X007503Y021951D01*
X007486Y021953D01*
X007469Y021957D01*
X007453Y021964D01*
X007439Y021974D01*
X007426Y021987D01*
X007416Y022001D01*
X007409Y022017D01*
X007405Y022034D01*
X007403Y022051D01*
X007403Y022301D01*
X007453Y022351D01*
X007453Y024951D01*
X007403Y025001D01*
X007403Y025251D01*
X007405Y025268D01*
X007409Y025285D01*
X007416Y025301D01*
X007426Y025315D01*
X007439Y025328D01*
X007453Y025338D01*
X007469Y025345D01*
X007486Y025349D01*
X007503Y025351D01*
X008503Y025351D01*
X008520Y025349D01*
X008537Y025345D01*
X008553Y025338D01*
X008567Y025328D01*
X008580Y025315D01*
X008590Y025301D01*
X008597Y025285D01*
X008601Y025268D01*
X008603Y025251D01*
X008603Y025001D01*
X006953Y025651D02*
X006953Y026651D01*
X006951Y026668D01*
X006947Y026685D01*
X006940Y026701D01*
X006930Y026715D01*
X006917Y026728D01*
X006903Y026738D01*
X006887Y026745D01*
X006870Y026749D01*
X006853Y026751D01*
X004153Y026751D01*
X004136Y026749D01*
X004119Y026745D01*
X004103Y026738D01*
X004089Y026728D01*
X004076Y026715D01*
X004066Y026701D01*
X004059Y026685D01*
X004055Y026668D01*
X004053Y026651D01*
X004053Y025651D01*
X004055Y025634D01*
X004059Y025617D01*
X004066Y025601D01*
X004076Y025587D01*
X004089Y025574D01*
X004103Y025564D01*
X004119Y025557D01*
X004136Y025553D01*
X004153Y025551D01*
X006853Y025551D01*
X006870Y025553D01*
X006887Y025557D01*
X006903Y025564D01*
X006917Y025574D01*
X006930Y025587D01*
X006940Y025601D01*
X006947Y025617D01*
X006951Y025634D01*
X006953Y025651D01*
X006103Y026151D02*
X005633Y026151D01*
X005383Y026151D02*
X004903Y026151D01*
X003753Y025151D02*
X002753Y025151D01*
X002753Y024151D01*
X002753Y023151D01*
X002753Y022151D01*
X003753Y022151D01*
X003753Y023151D01*
X003753Y024151D01*
X003753Y025151D01*
X003753Y024151D02*
X002753Y024151D01*
X002753Y023151D02*
X003753Y023151D01*
X004153Y021751D02*
X006853Y021751D01*
X006870Y021749D01*
X006887Y021745D01*
X006903Y021738D01*
X006917Y021728D01*
X006930Y021715D01*
X006940Y021701D01*
X006947Y021685D01*
X006951Y021668D01*
X006953Y021651D01*
X006953Y020651D01*
X006951Y020634D01*
X006947Y020617D01*
X006940Y020601D01*
X006930Y020587D01*
X006917Y020574D01*
X006903Y020564D01*
X006887Y020557D01*
X006870Y020553D01*
X006853Y020551D01*
X004153Y020551D01*
X004136Y020553D01*
X004119Y020557D01*
X004103Y020564D01*
X004089Y020574D01*
X004076Y020587D01*
X004066Y020601D01*
X004059Y020617D01*
X004055Y020634D01*
X004053Y020651D01*
X004053Y021651D01*
X004055Y021668D01*
X004059Y021685D01*
X004066Y021701D01*
X004076Y021715D01*
X004089Y021728D01*
X004103Y021738D01*
X004119Y021745D01*
X004136Y021749D01*
X004153Y021751D01*
X004903Y021151D02*
X005383Y021151D01*
X005633Y021151D02*
X006103Y021151D01*
X005003Y019601D02*
X004003Y019601D01*
X003986Y019599D01*
X003969Y019595D01*
X003953Y019588D01*
X003939Y019578D01*
X003926Y019565D01*
X003916Y019551D01*
X003909Y019535D01*
X003905Y019518D01*
X003903Y019501D01*
X003903Y016801D01*
X003905Y016784D01*
X003909Y016767D01*
X003916Y016751D01*
X003926Y016737D01*
X003939Y016724D01*
X003953Y016714D01*
X003969Y016707D01*
X003986Y016703D01*
X004003Y016701D01*
X005003Y016701D01*
X005020Y016703D01*
X005037Y016707D01*
X005053Y016714D01*
X005067Y016724D01*
X005080Y016737D01*
X005090Y016751D01*
X005097Y016767D01*
X005101Y016784D01*
X005103Y016801D01*
X005103Y019501D01*
X005101Y019518D01*
X005097Y019535D01*
X005090Y019551D01*
X005080Y019565D01*
X005067Y019578D01*
X005053Y019588D01*
X005037Y019595D01*
X005020Y019599D01*
X005003Y019601D01*
X004503Y018751D02*
X004503Y018271D01*
X004503Y018021D02*
X004503Y017551D01*
X006003Y017901D02*
X006003Y017051D01*
X010003Y017051D01*
X010003Y019251D01*
X006003Y019251D01*
X006003Y018401D01*
X006033Y018399D01*
X006063Y018394D01*
X006092Y018385D01*
X006119Y018372D01*
X006145Y018357D01*
X006169Y018338D01*
X006190Y018317D01*
X006209Y018293D01*
X006224Y018267D01*
X006237Y018240D01*
X006246Y018211D01*
X006251Y018181D01*
X006253Y018151D01*
X006251Y018121D01*
X006246Y018091D01*
X006237Y018062D01*
X006224Y018035D01*
X006209Y018009D01*
X006190Y017985D01*
X006169Y017964D01*
X006145Y017945D01*
X006119Y017930D01*
X006092Y017917D01*
X006063Y017908D01*
X006033Y017903D01*
X006003Y017901D01*
D17*
X002653Y022651D03*
X002653Y023651D03*
X002653Y024651D03*
X002653Y012651D03*
X002653Y011651D03*
X002653Y010651D03*
X002653Y003151D03*
X002653Y002151D03*
D18*
X003297Y001377D02*
X003448Y001377D01*
X003372Y001377D02*
X003372Y001001D01*
X003297Y000926D01*
X003222Y000926D01*
X003147Y001001D01*
X003608Y000926D02*
X003608Y001377D01*
X003833Y001377D01*
X003908Y001301D01*
X003908Y001151D01*
X003833Y001076D01*
X003608Y001076D01*
X004068Y000926D02*
X004368Y000926D01*
X004218Y000926D02*
X004218Y001377D01*
X004068Y001226D01*
X005878Y001081D02*
X005954Y001006D01*
X006104Y001006D01*
X006179Y001081D01*
X006339Y001006D02*
X006639Y001006D01*
X006489Y001006D02*
X006489Y001457D01*
X006339Y001306D01*
X006179Y001381D02*
X006104Y001457D01*
X005954Y001457D01*
X005878Y001381D01*
X005878Y001081D01*
X003683Y004146D02*
X003758Y004221D01*
X003758Y004296D01*
X003683Y004371D01*
X003308Y004371D01*
X003308Y004296D02*
X003308Y004446D01*
X003308Y004607D02*
X003308Y004832D01*
X003383Y004907D01*
X003533Y004907D01*
X003608Y004832D01*
X003608Y004607D01*
X003758Y004607D02*
X003308Y004607D01*
X003383Y005067D02*
X003458Y005067D01*
X003533Y005142D01*
X003533Y005367D01*
X003383Y005367D02*
X003308Y005292D01*
X003308Y005142D01*
X003383Y005067D01*
X003383Y005367D02*
X003683Y005367D01*
X003758Y005292D01*
X003758Y005142D01*
X003683Y005067D01*
X005358Y005101D02*
X005433Y005026D01*
X005583Y005026D01*
X005658Y005101D01*
X005818Y005026D02*
X006118Y005326D01*
X006118Y005401D01*
X006043Y005477D01*
X005893Y005477D01*
X005818Y005401D01*
X005658Y005401D02*
X005583Y005477D01*
X005433Y005477D01*
X005358Y005401D01*
X005358Y005101D01*
X005818Y005026D02*
X006118Y005026D01*
X003653Y008295D02*
X003728Y008370D01*
X003728Y008445D01*
X003653Y008520D01*
X003278Y008520D01*
X003278Y008445D02*
X003278Y008595D01*
X003278Y008755D02*
X003278Y008981D01*
X003353Y009056D01*
X003503Y009056D01*
X003578Y008981D01*
X003578Y008755D01*
X003728Y008755D02*
X003278Y008755D01*
X003503Y009216D02*
X003278Y009441D01*
X003728Y009441D01*
X003503Y009516D02*
X003503Y009216D01*
X004878Y010001D02*
X004954Y009926D01*
X005104Y009926D01*
X005179Y010001D01*
X005339Y009926D02*
X005639Y009926D01*
X005489Y009926D02*
X005489Y010377D01*
X005339Y010226D01*
X005179Y010301D02*
X005104Y010377D01*
X004954Y010377D01*
X004878Y010301D01*
X004878Y010001D01*
X005353Y010827D02*
X005353Y012476D01*
X005354Y012926D02*
X005278Y013001D01*
X005278Y013301D01*
X005354Y013377D01*
X005504Y013377D01*
X005579Y013301D01*
X005579Y013001D01*
X005504Y012926D01*
X005354Y012926D01*
X005429Y013076D02*
X005579Y012926D01*
X005739Y012926D02*
X006039Y012926D01*
X005889Y012926D02*
X005889Y013377D01*
X005739Y013226D01*
X005903Y012696D02*
X005903Y012538D01*
X005903Y011764D01*
X005903Y011538D01*
X005903Y010764D01*
X005903Y010606D01*
X005949Y010377D02*
X005949Y009926D01*
X005799Y009926D02*
X006099Y009926D01*
X005799Y010226D02*
X005949Y010377D01*
X006178Y010766D02*
X006028Y010916D01*
X006478Y010916D01*
X006478Y010766D02*
X006478Y011066D01*
X006353Y011466D02*
X006278Y011541D01*
X006278Y011691D01*
X006353Y011766D01*
X006428Y011766D01*
X006728Y011466D01*
X006728Y011766D01*
X006403Y012066D02*
X006478Y012141D01*
X006478Y012291D01*
X006403Y012366D01*
X006328Y012366D01*
X006253Y012291D01*
X006253Y012216D01*
X006253Y012291D02*
X006178Y012366D01*
X006103Y012366D01*
X006028Y012291D01*
X006028Y012141D01*
X006103Y012066D01*
X007006Y011961D02*
X007023Y011900D01*
X007036Y011839D01*
X007045Y011776D01*
X007051Y011714D01*
X007053Y011651D01*
X007051Y011588D01*
X007045Y011526D01*
X007036Y011463D01*
X007023Y011402D01*
X007006Y011341D01*
X007778Y011905D02*
X007778Y012131D01*
X007853Y012206D01*
X008003Y012206D01*
X008078Y012131D01*
X008078Y011905D01*
X008228Y011905D02*
X007778Y011905D01*
X008078Y012056D02*
X008228Y012206D01*
X008153Y012366D02*
X008228Y012441D01*
X008228Y012591D01*
X008153Y012666D01*
X008078Y012666D01*
X008003Y012591D01*
X008003Y012516D01*
X008003Y012591D02*
X007928Y012666D01*
X007853Y012666D01*
X007778Y012591D01*
X007778Y012441D01*
X007853Y012366D01*
X009278Y012591D02*
X009503Y012366D01*
X009503Y012666D01*
X009728Y012591D02*
X009278Y012591D01*
X009353Y012206D02*
X009503Y012206D01*
X009578Y012131D01*
X009578Y011905D01*
X009728Y011905D02*
X009278Y011905D01*
X009278Y012131D01*
X009353Y012206D01*
X009578Y012056D02*
X009728Y012206D01*
X011508Y011377D02*
X011508Y010926D01*
X011508Y011076D02*
X011733Y011076D01*
X011808Y011151D01*
X011808Y011301D01*
X011733Y011377D01*
X011508Y011377D01*
X011658Y011076D02*
X011808Y010926D01*
X011968Y011001D02*
X011968Y011076D01*
X012043Y011151D01*
X012193Y011151D01*
X012268Y011076D01*
X012268Y011001D01*
X012193Y010926D01*
X012043Y010926D01*
X011968Y011001D01*
X012043Y011151D02*
X011968Y011226D01*
X011968Y011301D01*
X012043Y011377D01*
X012193Y011377D01*
X012268Y011301D01*
X012268Y011226D01*
X012193Y011151D01*
X012089Y012426D02*
X012389Y012726D01*
X012389Y012801D01*
X012314Y012877D01*
X012164Y012877D01*
X012089Y012801D01*
X011929Y012801D02*
X011929Y012651D01*
X011854Y012576D01*
X011628Y012576D01*
X011628Y012426D02*
X011628Y012877D01*
X011854Y012877D01*
X011929Y012801D01*
X011779Y012576D02*
X011929Y012426D01*
X012089Y012426D02*
X012389Y012426D01*
X012193Y009877D02*
X012043Y009877D01*
X011968Y009801D01*
X011968Y009726D01*
X012043Y009651D01*
X012268Y009651D01*
X012268Y009501D02*
X012268Y009801D01*
X012193Y009877D01*
X012268Y009501D02*
X012193Y009426D01*
X012043Y009426D01*
X011968Y009501D01*
X011808Y009426D02*
X011658Y009576D01*
X011733Y009576D02*
X011508Y009576D01*
X011508Y009426D02*
X011508Y009877D01*
X011733Y009877D01*
X011808Y009801D01*
X011808Y009651D01*
X011733Y009576D01*
X012204Y008877D02*
X012128Y008801D01*
X012128Y008501D01*
X012204Y008426D01*
X012354Y008426D01*
X012429Y008501D01*
X012589Y008501D02*
X012589Y008576D01*
X012664Y008651D01*
X012814Y008651D01*
X012889Y008576D01*
X012889Y008501D01*
X012814Y008426D01*
X012664Y008426D01*
X012589Y008501D01*
X012664Y008651D02*
X012589Y008726D01*
X012589Y008801D01*
X012664Y008877D01*
X012814Y008877D01*
X012889Y008801D01*
X012889Y008726D01*
X012814Y008651D01*
X012429Y008801D02*
X012354Y008877D01*
X012204Y008877D01*
X013628Y008801D02*
X013628Y008501D01*
X013704Y008426D01*
X013854Y008426D01*
X013929Y008501D01*
X014089Y008501D02*
X014089Y008426D01*
X014089Y008501D02*
X014389Y008801D01*
X014389Y008877D01*
X014089Y008877D01*
X013929Y008801D02*
X013854Y008877D01*
X013704Y008877D01*
X013628Y008801D01*
X015913Y006742D02*
X015913Y005561D01*
X017094Y005561D01*
X017094Y006742D01*
X015913Y006742D01*
X015753Y005351D02*
X015755Y005371D01*
X015761Y005389D01*
X015770Y005407D01*
X015782Y005422D01*
X015797Y005434D01*
X015815Y005443D01*
X015833Y005449D01*
X015853Y005451D01*
X015873Y005449D01*
X015891Y005443D01*
X015909Y005434D01*
X015924Y005422D01*
X015936Y005407D01*
X015945Y005389D01*
X015951Y005371D01*
X015953Y005351D01*
X015951Y005331D01*
X015945Y005313D01*
X015936Y005295D01*
X015924Y005280D01*
X015909Y005268D01*
X015891Y005259D01*
X015873Y005253D01*
X015853Y005251D01*
X015833Y005253D01*
X015815Y005259D01*
X015797Y005268D01*
X015782Y005280D01*
X015770Y005295D01*
X015761Y005313D01*
X015755Y005331D01*
X015753Y005351D01*
X015954Y001377D02*
X015878Y001301D01*
X015878Y001001D01*
X015954Y000926D01*
X016104Y000926D01*
X016179Y001001D01*
X016339Y000926D02*
X016639Y000926D01*
X016489Y000926D02*
X016489Y001377D01*
X016339Y001226D01*
X016179Y001301D02*
X016104Y001377D01*
X015954Y001377D01*
X016799Y001301D02*
X016799Y001001D01*
X017099Y001301D01*
X017099Y001001D01*
X017024Y000926D01*
X016874Y000926D01*
X016799Y001001D01*
X016799Y001301D02*
X016874Y001377D01*
X017024Y001377D01*
X017099Y001301D01*
X014389Y001377D02*
X014239Y001301D01*
X014089Y001151D01*
X014314Y001151D01*
X014389Y001076D01*
X014389Y001001D01*
X014314Y000926D01*
X014164Y000926D01*
X014089Y001001D01*
X014089Y001151D01*
X013929Y001001D02*
X013854Y000926D01*
X013704Y000926D01*
X013628Y001001D01*
X013628Y001301D01*
X013704Y001377D01*
X013854Y001377D01*
X013929Y001301D01*
X012889Y001377D02*
X012589Y001377D01*
X012589Y001151D01*
X012739Y001226D01*
X012814Y001226D01*
X012889Y001151D01*
X012889Y001001D01*
X012814Y000926D01*
X012664Y000926D01*
X012589Y001001D01*
X012429Y001001D02*
X012354Y000926D01*
X012204Y000926D01*
X012128Y001001D01*
X012128Y001301D01*
X012204Y001377D01*
X012354Y001377D01*
X012429Y001301D01*
X011389Y001151D02*
X011089Y001151D01*
X011314Y001377D01*
X011314Y000926D01*
X010929Y001001D02*
X010854Y000926D01*
X010704Y000926D01*
X010628Y001001D01*
X010628Y001301D01*
X010704Y001377D01*
X010854Y001377D01*
X010929Y001301D01*
X009964Y005076D02*
X009814Y005076D01*
X009739Y005151D01*
X009579Y005151D02*
X009504Y005076D01*
X009354Y005076D01*
X009278Y005151D01*
X009278Y005451D01*
X009354Y005527D01*
X009504Y005527D01*
X009579Y005451D01*
X009739Y005451D02*
X009814Y005527D01*
X009964Y005527D01*
X010039Y005451D01*
X010039Y005376D01*
X009964Y005301D01*
X010039Y005226D01*
X010039Y005151D01*
X009964Y005076D01*
X009964Y005301D02*
X009889Y005301D01*
X007006Y011341D02*
X006986Y011281D01*
X006962Y011222D01*
X006934Y011165D01*
X006903Y011110D01*
X006868Y011056D01*
X006831Y011005D01*
X006790Y010956D01*
X006746Y010910D01*
X006700Y010866D01*
X006651Y010825D01*
X006600Y010787D01*
X006547Y010753D01*
X006491Y010721D01*
X006434Y010694D01*
X006375Y010669D01*
X006315Y010649D01*
X006254Y010631D01*
X006192Y010618D01*
X006129Y010609D01*
X006066Y010603D01*
X006002Y010601D01*
X005938Y010603D01*
X005875Y010609D01*
X005812Y010618D01*
X005750Y010632D01*
X005689Y010649D01*
X005629Y010670D01*
X005570Y010694D01*
X005513Y010722D01*
X005457Y010754D01*
X005404Y010789D01*
X005353Y010826D01*
X005903Y012696D02*
X005965Y012700D01*
X006028Y012701D01*
X006090Y012697D01*
X006152Y012690D01*
X006213Y012680D01*
X006274Y012665D01*
X006334Y012647D01*
X006393Y012626D01*
X006450Y012601D01*
X006505Y012573D01*
X006559Y012542D01*
X006611Y012507D01*
X006661Y012469D01*
X006708Y012429D01*
X006753Y012385D01*
X006796Y012340D01*
X006835Y012291D01*
X006872Y012241D01*
X006905Y012188D01*
X006936Y012134D01*
X006963Y012077D01*
X006986Y012020D01*
X007006Y011961D01*
X005903Y012696D02*
X005843Y012689D01*
X005784Y012678D01*
X005726Y012664D01*
X005669Y012646D01*
X005612Y012626D01*
X005557Y012602D01*
X005503Y012575D01*
X005451Y012544D01*
X005401Y012511D01*
X005353Y012476D01*
X005274Y014926D02*
X005124Y014926D01*
X005049Y015001D01*
X004889Y014926D02*
X004589Y014926D01*
X004739Y014926D02*
X004739Y015377D01*
X004589Y015226D01*
X004429Y015301D02*
X004354Y015377D01*
X004204Y015377D01*
X004128Y015301D01*
X004128Y015001D01*
X004204Y014926D01*
X004354Y014926D01*
X004429Y015001D01*
X005049Y015301D02*
X005124Y015377D01*
X005274Y015377D01*
X005349Y015301D01*
X005349Y015226D01*
X005274Y015151D01*
X005349Y015076D01*
X005349Y015001D01*
X005274Y014926D01*
X005274Y015151D02*
X005199Y015151D01*
X005418Y017176D02*
X005418Y017326D01*
X005418Y017251D02*
X005868Y017251D01*
X005868Y017176D02*
X005868Y017326D01*
X005793Y017483D02*
X005868Y017558D01*
X005868Y017708D01*
X005793Y017783D01*
X005868Y017943D02*
X005868Y018244D01*
X005868Y018094D02*
X005418Y018094D01*
X005568Y017943D01*
X005493Y017783D02*
X005418Y017708D01*
X005418Y017558D01*
X005493Y017483D01*
X005793Y017483D01*
X005653Y018655D02*
X005353Y018655D01*
X005278Y018730D01*
X005278Y018881D01*
X005353Y018956D01*
X005353Y019116D02*
X005428Y019116D01*
X005503Y019191D01*
X005503Y019416D01*
X005353Y019416D02*
X005278Y019341D01*
X005278Y019191D01*
X005353Y019116D01*
X005353Y019416D02*
X005653Y019416D01*
X005728Y019341D01*
X005728Y019191D01*
X005653Y019116D01*
X005653Y018956D02*
X005728Y018881D01*
X005728Y018730D01*
X005653Y018655D01*
X003728Y020620D02*
X003653Y020545D01*
X003728Y020620D02*
X003728Y020695D01*
X003653Y020770D01*
X003278Y020770D01*
X003278Y020695D02*
X003278Y020845D01*
X003278Y021005D02*
X003278Y021231D01*
X003353Y021306D01*
X003503Y021306D01*
X003578Y021231D01*
X003578Y021005D01*
X003728Y021005D02*
X003278Y021005D01*
X003278Y021466D02*
X003503Y021466D01*
X003428Y021616D01*
X003428Y021691D01*
X003503Y021766D01*
X003653Y021766D01*
X003728Y021691D01*
X003728Y021541D01*
X003653Y021466D01*
X003278Y021466D02*
X003278Y021766D01*
X004878Y022001D02*
X004954Y021926D01*
X005104Y021926D01*
X005179Y022001D01*
X005339Y021926D02*
X005639Y021926D01*
X005489Y021926D02*
X005489Y022377D01*
X005339Y022226D01*
X005179Y022301D02*
X005104Y022377D01*
X004954Y022377D01*
X004878Y022301D01*
X004878Y022001D01*
X005353Y022827D02*
X005353Y024476D01*
X005354Y024926D02*
X005278Y025001D01*
X005278Y025301D01*
X005354Y025377D01*
X005504Y025377D01*
X005579Y025301D01*
X005579Y025001D01*
X005504Y024926D01*
X005354Y024926D01*
X005429Y025076D02*
X005579Y024926D01*
X005739Y024926D02*
X006039Y025226D01*
X006039Y025301D01*
X005964Y025377D01*
X005814Y025377D01*
X005739Y025301D01*
X005739Y024926D02*
X006039Y024926D01*
X005903Y024696D02*
X005903Y024538D01*
X005903Y023764D01*
X005903Y023538D01*
X005903Y022764D01*
X005903Y022606D01*
X005874Y022377D02*
X005799Y022301D01*
X005874Y022377D02*
X006024Y022377D01*
X006099Y022301D01*
X006099Y022226D01*
X005799Y021926D01*
X006099Y021926D01*
X006178Y022766D02*
X006028Y022916D01*
X006478Y022916D01*
X006478Y022766D02*
X006478Y023066D01*
X006353Y023466D02*
X006278Y023541D01*
X006278Y023691D01*
X006353Y023766D01*
X006428Y023766D01*
X006728Y023466D01*
X006728Y023766D01*
X006403Y024066D02*
X006478Y024141D01*
X006478Y024291D01*
X006403Y024366D01*
X006328Y024366D01*
X006253Y024291D01*
X006253Y024216D01*
X006253Y024291D02*
X006178Y024366D01*
X006103Y024366D01*
X006028Y024291D01*
X006028Y024141D01*
X006103Y024066D01*
X007006Y023961D02*
X007023Y023900D01*
X007036Y023839D01*
X007045Y023776D01*
X007051Y023714D01*
X007053Y023651D01*
X007051Y023588D01*
X007045Y023526D01*
X007036Y023463D01*
X007023Y023402D01*
X007006Y023341D01*
X007778Y023905D02*
X007778Y024131D01*
X007853Y024206D01*
X008003Y024206D01*
X008078Y024131D01*
X008078Y023905D01*
X008228Y023905D02*
X007778Y023905D01*
X008078Y024056D02*
X008228Y024206D01*
X008153Y024366D02*
X008228Y024441D01*
X008228Y024591D01*
X008153Y024666D01*
X008003Y024666D01*
X007928Y024591D01*
X007928Y024516D01*
X008003Y024366D01*
X007778Y024366D01*
X007778Y024666D01*
X009278Y024666D02*
X009353Y024516D01*
X009503Y024366D01*
X009503Y024591D01*
X009578Y024666D01*
X009653Y024666D01*
X009728Y024591D01*
X009728Y024441D01*
X009653Y024366D01*
X009503Y024366D01*
X009503Y024206D02*
X009578Y024131D01*
X009578Y023905D01*
X009728Y023905D02*
X009278Y023905D01*
X009278Y024131D01*
X009353Y024206D01*
X009503Y024206D01*
X009578Y024056D02*
X009728Y024206D01*
X011258Y023127D02*
X011258Y022676D01*
X011258Y022826D02*
X011483Y022826D01*
X011558Y022901D01*
X011558Y023051D01*
X011483Y023127D01*
X011258Y023127D01*
X011408Y022826D02*
X011558Y022676D01*
X011718Y022676D02*
X011718Y022751D01*
X012018Y023051D01*
X012018Y023127D01*
X011718Y023127D01*
X011868Y021627D02*
X011718Y021476D01*
X011558Y021401D02*
X011483Y021326D01*
X011258Y021326D01*
X011258Y021176D02*
X011258Y021627D01*
X011483Y021627D01*
X011558Y021551D01*
X011558Y021401D01*
X011408Y021326D02*
X011558Y021176D01*
X011718Y021176D02*
X012018Y021176D01*
X011868Y021176D02*
X011868Y021627D01*
X013778Y025386D02*
X014004Y025386D01*
X014079Y025461D01*
X014079Y025761D01*
X014004Y025837D01*
X013778Y025837D01*
X013778Y025386D01*
X014239Y025386D02*
X014539Y025386D01*
X014389Y025386D02*
X014389Y025837D01*
X014239Y025686D01*
X016248Y025625D02*
X016248Y025475D01*
X016248Y025550D02*
X016623Y025550D01*
X016698Y025475D01*
X016698Y025400D01*
X016623Y025325D01*
X016548Y025785D02*
X016548Y026011D01*
X016473Y026086D01*
X016323Y026086D01*
X016248Y026011D01*
X016248Y025785D01*
X016698Y025785D01*
X016623Y026246D02*
X016473Y026246D01*
X016473Y026471D01*
X016548Y026546D01*
X016623Y026546D01*
X016698Y026471D01*
X016698Y026321D01*
X016623Y026246D01*
X016473Y026246D02*
X016323Y026396D01*
X016248Y026546D01*
X015753Y020651D02*
X015253Y020651D01*
X014878Y020276D01*
X014878Y017026D01*
X015253Y016651D01*
X015753Y016651D01*
X016128Y017026D01*
X016128Y020276D01*
X015753Y020651D01*
X013674Y016877D02*
X013524Y016877D01*
X013449Y016801D01*
X013289Y016801D02*
X013289Y016651D01*
X013214Y016576D01*
X012989Y016576D01*
X012989Y016426D02*
X012989Y016877D01*
X013214Y016877D01*
X013289Y016801D01*
X013449Y016426D02*
X013749Y016726D01*
X013749Y016801D01*
X013674Y016877D01*
X013749Y016426D02*
X013449Y016426D01*
X012754Y016501D02*
X012754Y016877D01*
X012679Y016877D02*
X012829Y016877D01*
X012754Y016501D02*
X012679Y016426D01*
X012604Y016426D01*
X012528Y016501D01*
X012419Y015847D02*
X012719Y015847D01*
X012719Y015771D01*
X012419Y015471D01*
X012419Y015396D01*
X012259Y015621D02*
X012184Y015546D01*
X011959Y015546D01*
X011959Y015396D02*
X011959Y015847D01*
X012184Y015847D01*
X012259Y015771D01*
X012259Y015621D01*
X011799Y015847D02*
X011649Y015847D01*
X011724Y015847D02*
X011724Y015471D01*
X011649Y015396D01*
X011574Y015396D01*
X011498Y015471D01*
X007006Y023341D02*
X006986Y023281D01*
X006962Y023222D01*
X006934Y023165D01*
X006903Y023110D01*
X006868Y023056D01*
X006831Y023005D01*
X006790Y022956D01*
X006746Y022910D01*
X006700Y022866D01*
X006651Y022825D01*
X006600Y022787D01*
X006547Y022753D01*
X006491Y022721D01*
X006434Y022694D01*
X006375Y022669D01*
X006315Y022649D01*
X006254Y022631D01*
X006192Y022618D01*
X006129Y022609D01*
X006066Y022603D01*
X006002Y022601D01*
X005938Y022603D01*
X005875Y022609D01*
X005812Y022618D01*
X005750Y022632D01*
X005689Y022649D01*
X005629Y022670D01*
X005570Y022694D01*
X005513Y022722D01*
X005457Y022754D01*
X005404Y022789D01*
X005353Y022826D01*
X005903Y024696D02*
X005965Y024700D01*
X006028Y024701D01*
X006090Y024697D01*
X006152Y024690D01*
X006213Y024680D01*
X006274Y024665D01*
X006334Y024647D01*
X006393Y024626D01*
X006450Y024601D01*
X006505Y024573D01*
X006559Y024542D01*
X006611Y024507D01*
X006661Y024469D01*
X006708Y024429D01*
X006753Y024385D01*
X006796Y024340D01*
X006835Y024291D01*
X006872Y024241D01*
X006905Y024188D01*
X006936Y024134D01*
X006963Y024077D01*
X006986Y024020D01*
X007006Y023961D01*
X005903Y024696D02*
X005843Y024689D01*
X005784Y024678D01*
X005726Y024664D01*
X005669Y024646D01*
X005612Y024626D01*
X005557Y024602D01*
X005503Y024575D01*
X005451Y024544D01*
X005401Y024511D01*
X005353Y024476D01*
X005274Y026926D02*
X005274Y027377D01*
X005049Y027151D01*
X005349Y027151D01*
X004889Y026926D02*
X004589Y026926D01*
X004739Y026926D02*
X004739Y027377D01*
X004589Y027226D01*
X004429Y027301D02*
X004354Y027377D01*
X004204Y027377D01*
X004128Y027301D01*
X004128Y027001D01*
X004204Y026926D01*
X004354Y026926D01*
X004429Y027001D01*
X017323Y013046D02*
X017248Y012971D01*
X017248Y012821D01*
X017323Y012746D01*
X017398Y012746D01*
X017473Y012821D01*
X017473Y012971D01*
X017548Y013046D01*
X017623Y013046D01*
X017698Y012971D01*
X017698Y012821D01*
X017623Y012746D01*
X017548Y012746D01*
X017473Y012821D01*
X017473Y012971D02*
X017398Y013046D01*
X017323Y013046D01*
X017323Y012586D02*
X017473Y012586D01*
X017548Y012511D01*
X017548Y012285D01*
X017698Y012285D02*
X017248Y012285D01*
X017248Y012511D01*
X017323Y012586D01*
X017248Y012125D02*
X017248Y011975D01*
X017248Y012050D02*
X017623Y012050D01*
X017698Y011975D01*
X017698Y011900D01*
X017623Y011825D01*
D19*
X003953Y011651D03*
X003953Y010651D03*
X003953Y012651D03*
X003953Y003151D03*
X003953Y002151D03*
X003953Y022651D03*
X003953Y023651D03*
X003953Y024651D03*
D20*
X010629Y007114D03*
X010629Y006189D03*
X011003Y006189D03*
X011377Y006189D03*
X011377Y007114D03*
D21*
X008003Y002926D03*
D22*
X009003Y006451D03*
X006503Y006451D03*
D23*
X005633Y008901D02*
X005633Y009151D01*
X005633Y009401D01*
X005383Y009401D02*
X005383Y009151D01*
X005383Y008901D01*
X005383Y013901D02*
X005383Y014151D01*
X005383Y014401D01*
X005633Y014401D02*
X005633Y014151D01*
X005633Y013901D01*
X004753Y018021D02*
X004503Y018021D01*
X004253Y018021D01*
X004253Y018271D02*
X004503Y018271D01*
X004753Y018271D01*
X005383Y020901D02*
X005383Y021151D01*
X005383Y021401D01*
X005633Y021401D02*
X005633Y021151D01*
X005633Y020901D01*
X005633Y025901D02*
X005633Y026151D01*
X005633Y026401D01*
X005383Y026401D02*
X005383Y026151D01*
X005383Y025901D01*
X012253Y006771D02*
X012503Y006771D01*
X012753Y006771D01*
X012753Y006521D02*
X012503Y006521D01*
X012253Y006521D01*
X013753Y006521D02*
X014003Y006521D01*
X014253Y006521D01*
X014253Y006771D02*
X014003Y006771D01*
X013753Y006771D01*
X013753Y003271D02*
X014003Y003271D01*
X014253Y003271D01*
X014253Y003021D02*
X014003Y003021D01*
X013753Y003021D01*
X012753Y003021D02*
X012503Y003021D01*
X012253Y003021D01*
X012253Y003271D02*
X012503Y003271D01*
X012753Y003271D01*
X011253Y003271D02*
X011003Y003271D01*
X010753Y003271D01*
X010753Y003021D02*
X011003Y003021D01*
X011253Y003021D01*
X016253Y003021D02*
X016503Y003021D01*
X016753Y003021D01*
X016753Y003271D02*
X016503Y003271D01*
X016253Y003271D01*
D24*
X016503Y008651D03*
X016503Y009651D03*
X016503Y010651D03*
X016503Y011651D03*
X016503Y012651D03*
X016003Y014651D03*
X015003Y014651D03*
X014003Y014651D03*
X013003Y014651D03*
X012003Y014651D03*
X012003Y017651D03*
X012003Y018651D03*
X012003Y019651D03*
X013003Y019651D03*
X013003Y018651D03*
X013003Y017651D03*
X015503Y024151D03*
X015503Y025151D03*
X015503Y026151D03*
X004503Y005651D03*
X004503Y004651D03*
D25*
X008003Y009651D02*
X008003Y009801D01*
X009503Y009801D02*
X009503Y009651D01*
X011003Y009651D02*
X011153Y009651D01*
X011153Y011151D02*
X011003Y011151D01*
X011003Y012651D02*
X011153Y012651D01*
X009503Y013501D02*
X009503Y013651D01*
X008003Y013651D02*
X008003Y013501D01*
X010503Y021401D02*
X010653Y021401D01*
X009503Y021651D02*
X009503Y021801D01*
X010503Y022901D02*
X010653Y022901D01*
X009503Y025501D02*
X009503Y025651D01*
X008003Y025651D02*
X008003Y025501D01*
X008003Y021801D02*
X008003Y021651D01*
X014353Y021401D02*
X014503Y021401D01*
X014503Y022901D02*
X014353Y022901D01*
X014853Y012651D02*
X015003Y012651D01*
X015003Y011151D02*
X014853Y011151D01*
X014853Y009651D02*
X015003Y009651D01*
D26*
X014763Y009651D03*
X014763Y011151D03*
X014763Y012651D03*
X011243Y012651D03*
X011243Y011151D03*
X011243Y009651D03*
X010743Y021401D03*
X010743Y022901D03*
X014263Y022901D03*
X014263Y021401D03*
D27*
X009503Y021891D03*
X008003Y021891D03*
X008003Y025411D03*
X009503Y025411D03*
X009503Y013411D03*
X008003Y013411D03*
X008003Y009891D03*
X009503Y009891D03*
D28*
X011753Y023651D02*
X011699Y023694D01*
X011647Y023740D01*
X011598Y023789D01*
X011551Y023841D01*
X011508Y023895D01*
X011467Y023951D01*
X011430Y024010D01*
X011396Y024070D01*
X011366Y024133D01*
X011339Y024196D01*
X011315Y024262D01*
X011295Y024328D01*
X011279Y024396D01*
X011267Y024464D01*
X011259Y024533D01*
X011254Y024602D01*
X011253Y024672D01*
X011256Y024741D01*
X011263Y024810D01*
X011274Y024878D01*
X011288Y024946D01*
X011307Y025013D01*
X011329Y025079D01*
X011354Y025144D01*
X011383Y025207D01*
X011416Y025268D01*
X011452Y025327D01*
X011491Y025384D01*
X011533Y025440D01*
X011578Y025492D01*
X011626Y025542D01*
X011677Y025589D01*
X011731Y025634D01*
X011786Y025675D01*
X011844Y025713D01*
X011904Y025748D01*
X011966Y025780D01*
X012029Y025808D01*
X012094Y025832D01*
X012160Y025853D01*
X012228Y025870D01*
X012296Y025884D01*
X012365Y025893D01*
X012434Y025899D01*
X012503Y025901D01*
X012572Y025899D01*
X012641Y025893D01*
X012710Y025884D01*
X012778Y025870D01*
X012846Y025853D01*
X012912Y025832D01*
X012977Y025808D01*
X013040Y025780D01*
X013102Y025748D01*
X013162Y025713D01*
X013220Y025675D01*
X013275Y025634D01*
X013329Y025589D01*
X013380Y025542D01*
X013428Y025492D01*
X013473Y025440D01*
X013515Y025384D01*
X013554Y025327D01*
X013590Y025268D01*
X013623Y025207D01*
X013652Y025144D01*
X013677Y025079D01*
X013699Y025013D01*
X013718Y024946D01*
X013732Y024878D01*
X013743Y024810D01*
X013750Y024741D01*
X013753Y024672D01*
X013752Y024602D01*
X013747Y024533D01*
X013739Y024464D01*
X013727Y024396D01*
X013711Y024328D01*
X013691Y024262D01*
X013667Y024196D01*
X013640Y024133D01*
X013610Y024070D01*
X013576Y024010D01*
X013539Y023951D01*
X013498Y023895D01*
X013455Y023841D01*
X013408Y023789D01*
X013359Y023740D01*
X013307Y023694D01*
X013253Y023651D01*
D29*
X009258Y015731D03*
X009358Y015621D03*
X009268Y015331D03*
X009508Y015241D03*
X009508Y015061D03*
X009298Y014981D03*
X009048Y015111D03*
X009048Y015211D03*
X008718Y015151D03*
X008718Y015141D03*
X008718Y015131D03*
X008718Y015121D03*
X008718Y015111D03*
X008718Y015101D03*
X008718Y015091D03*
X008718Y015081D03*
X008718Y015071D03*
X008718Y014951D03*
X008718Y014941D03*
X008718Y014931D03*
X008718Y014921D03*
X008718Y014911D03*
X008718Y014901D03*
X008718Y014891D03*
X008718Y014881D03*
X008718Y014871D03*
X008728Y014721D03*
X008568Y014691D03*
X008488Y014911D03*
X008488Y014921D03*
X008488Y014931D03*
X008488Y014941D03*
X008488Y014951D03*
X008488Y014961D03*
X008488Y014971D03*
X008488Y014981D03*
X008488Y014991D03*
X008488Y015001D03*
X008418Y014921D03*
X008488Y015111D03*
X008488Y015121D03*
X008488Y015131D03*
X008488Y015141D03*
X008488Y015151D03*
X008488Y015161D03*
X008488Y015171D03*
X008488Y015181D03*
X008488Y015191D03*
X008488Y015201D03*
X008418Y015141D03*
X008418Y015131D03*
X008378Y015171D03*
X008488Y015311D03*
X008488Y015321D03*
X008488Y015331D03*
X008488Y015341D03*
X008488Y015351D03*
X008488Y015361D03*
X008488Y015371D03*
X008488Y015381D03*
X008488Y015391D03*
X008488Y015401D03*
X008718Y015351D03*
X008718Y015341D03*
X008718Y015331D03*
X008718Y015321D03*
X008718Y015311D03*
X008718Y015301D03*
X008718Y015291D03*
X008718Y015281D03*
X008718Y015271D03*
X008918Y015651D03*
X009018Y015581D03*
X008938Y014721D03*
X008988Y014661D03*
X008668Y014391D03*
X008148Y014711D03*
X008018Y015041D03*
X008008Y015251D03*
X008018Y015261D03*
X008108Y015541D03*
D30*
X008118Y015571D03*
X008118Y015581D03*
X008228Y015361D03*
X008378Y015161D03*
X008428Y015161D03*
X008428Y015171D03*
X008428Y015111D03*
X008008Y015051D03*
X007998Y015061D03*
X007998Y015071D03*
X007998Y015231D03*
X008158Y014681D03*
X008528Y014631D03*
X008728Y014651D03*
X008728Y014661D03*
X008728Y014671D03*
X008728Y014681D03*
X008728Y014691D03*
X008728Y014701D03*
X008728Y014711D03*
X008858Y014731D03*
X008948Y014711D03*
X009038Y014911D03*
X009038Y015091D03*
X009118Y015191D03*
X009038Y015231D03*
X009238Y015371D03*
X009338Y015661D03*
X009328Y015671D03*
X009278Y015721D03*
X009518Y015221D03*
X009518Y015211D03*
X009518Y015091D03*
X009518Y015081D03*
X009378Y014711D03*
X009378Y014701D03*
X008748Y014391D03*
D31*
X008838Y014391D03*
X008998Y014651D03*
X008938Y014731D03*
X008928Y015011D03*
X009058Y015141D03*
X009058Y015191D03*
X009118Y015221D03*
X009218Y015381D03*
X009368Y015591D03*
X009498Y015261D03*
X009498Y015041D03*
X009488Y015031D03*
X009398Y014771D03*
X009398Y014761D03*
X008928Y015211D03*
X008928Y015411D03*
X008938Y015601D03*
X008898Y015611D03*
X008848Y015621D03*
X008808Y015631D03*
X008638Y015621D03*
X008598Y015611D03*
X008558Y015601D03*
X008478Y015581D03*
X008498Y015421D03*
X008498Y015281D03*
X008498Y015221D03*
X008378Y015181D03*
X008498Y015081D03*
X008498Y015021D03*
X008498Y014881D03*
X008708Y014841D03*
X008708Y014981D03*
X008708Y015041D03*
X008708Y015181D03*
X008708Y015241D03*
X008708Y015381D03*
X008678Y015921D03*
X008028Y015281D03*
X008028Y015021D03*
X008138Y014741D03*
X008658Y014691D03*
D32*
X008643Y014671D03*
X008503Y014601D03*
X008633Y014401D03*
X008513Y014861D03*
X008393Y014931D03*
X008223Y014981D03*
X008043Y015001D03*
X008133Y014771D03*
X008513Y015061D03*
X008693Y015001D03*
X008693Y015201D03*
X008513Y015261D03*
X008693Y015401D03*
X008493Y015661D03*
X009193Y015711D03*
X009473Y015291D03*
X009473Y015011D03*
X009403Y014811D03*
X009123Y015101D03*
D33*
X009068Y015161D03*
X009068Y015171D03*
X009118Y015231D03*
X009278Y015321D03*
X009478Y015281D03*
X009378Y015561D03*
X008998Y015561D03*
X008988Y015691D03*
X008898Y015661D03*
X008828Y015921D03*
X008598Y015661D03*
X008398Y015371D03*
X008378Y015201D03*
X008388Y015071D03*
X008038Y015011D03*
X008038Y015291D03*
X008098Y015481D03*
X008098Y015491D03*
X008648Y014681D03*
X008748Y014401D03*
X009068Y014921D03*
X009408Y014801D03*
D34*
X009408Y014821D03*
X009408Y014831D03*
X009248Y014921D03*
X009318Y015001D03*
X009128Y015091D03*
X009118Y015241D03*
X009378Y015541D03*
X009378Y015551D03*
X008998Y015701D03*
X008748Y015641D03*
X008638Y015911D03*
X008498Y015561D03*
X008278Y015671D03*
X008098Y015471D03*
X008098Y015461D03*
X008098Y015451D03*
X008048Y015301D03*
X008188Y015301D03*
X008258Y015381D03*
X008378Y015211D03*
X008388Y015061D03*
X008298Y014911D03*
X008128Y014791D03*
X008128Y014781D03*
X008058Y014991D03*
X008308Y014591D03*
X008878Y014401D03*
X009008Y014641D03*
X008858Y014861D03*
X008858Y015061D03*
X008858Y015261D03*
D35*
X008913Y015201D03*
X008913Y015001D03*
X009123Y015081D03*
X009113Y015251D03*
X009203Y015391D03*
X009283Y015311D03*
X009463Y015301D03*
X009383Y015521D03*
X009383Y015531D03*
X008913Y015401D03*
X008683Y015011D03*
X008683Y014741D03*
X008633Y014661D03*
X008843Y014711D03*
X008603Y014411D03*
X008213Y014991D03*
X008383Y015041D03*
X008383Y015051D03*
X008123Y014801D03*
X008753Y015891D03*
X009463Y015001D03*
D36*
X009408Y014851D03*
X009408Y014841D03*
X009218Y014631D03*
X009018Y014631D03*
X008748Y014411D03*
X008528Y014851D03*
X008528Y015051D03*
X008378Y015031D03*
X008378Y015221D03*
X008378Y015361D03*
X008528Y015251D03*
X008678Y015211D03*
X008678Y015411D03*
X008618Y015671D03*
X008478Y015671D03*
X008878Y015671D03*
X008868Y015911D03*
X009088Y015371D03*
X009388Y015511D03*
X008178Y015291D03*
X008058Y015311D03*
X008098Y015431D03*
X008098Y015441D03*
X008068Y014981D03*
X008128Y014811D03*
D37*
X008123Y014821D03*
X008123Y014831D03*
X008373Y014941D03*
X008373Y015011D03*
X008373Y015021D03*
X008373Y015231D03*
X008073Y015321D03*
X008613Y015901D03*
X009013Y015711D03*
X008973Y015551D03*
X008903Y015391D03*
X008863Y015271D03*
X008903Y015191D03*
X008903Y014991D03*
X008863Y014871D03*
X008853Y014701D03*
X008633Y014621D03*
X008623Y014631D03*
X008623Y014641D03*
X008623Y014651D03*
X008493Y014591D03*
X008583Y014421D03*
X008903Y014411D03*
X009093Y014931D03*
X009123Y015071D03*
X009113Y015261D03*
X009323Y015011D03*
X009453Y014991D03*
X009413Y014861D03*
X009453Y015311D03*
X009383Y015501D03*
D38*
X009388Y015491D03*
X009388Y015481D03*
X009298Y015301D03*
X009438Y014981D03*
X009408Y014881D03*
X009408Y014871D03*
X009228Y014911D03*
X008868Y015071D03*
X008368Y015001D03*
X008368Y014991D03*
X008368Y015241D03*
X008368Y015251D03*
X008098Y015411D03*
X008098Y015421D03*
X008078Y014971D03*
X008638Y014611D03*
X008748Y014421D03*
X008748Y015881D03*
X008898Y015901D03*
D39*
X008593Y015891D03*
X008643Y015681D03*
X008523Y015551D03*
X008663Y015421D03*
X008663Y015221D03*
X008543Y015241D03*
X008363Y015261D03*
X008173Y015281D03*
X008083Y015331D03*
X008103Y015401D03*
X008203Y015001D03*
X008323Y014901D03*
X008363Y014981D03*
X008543Y015041D03*
X008663Y015021D03*
X008873Y015081D03*
X008903Y014981D03*
X008873Y014881D03*
X008863Y014691D03*
X008663Y014751D03*
X008873Y015281D03*
X008903Y015181D03*
X008903Y015381D03*
X009113Y015271D03*
X009123Y015061D03*
X009443Y015321D03*
X008923Y014421D03*
X008563Y014431D03*
X008123Y014841D03*
X008123Y014851D03*
D40*
X008128Y014861D03*
X008358Y014961D03*
X008358Y014971D03*
X008548Y014841D03*
X008478Y014581D03*
X008748Y014431D03*
X008858Y014641D03*
X008868Y014651D03*
X008868Y014661D03*
X008868Y014671D03*
X008868Y014681D03*
X009038Y014621D03*
X008878Y014891D03*
X008898Y014971D03*
X008878Y015091D03*
X008898Y015171D03*
X008878Y015291D03*
X008898Y015371D03*
X009108Y015361D03*
X009108Y015281D03*
X009428Y015331D03*
X009388Y015461D03*
X009388Y015471D03*
X009188Y015701D03*
X008918Y015891D03*
X008748Y015871D03*
X008568Y015881D03*
X008278Y015391D03*
X008358Y015351D03*
X008358Y015271D03*
X008098Y015391D03*
X009328Y015021D03*
X009428Y014971D03*
X009408Y014901D03*
X009408Y014891D03*
D41*
X009403Y014911D03*
X009113Y014941D03*
X009123Y015051D03*
X009113Y015291D03*
X009173Y015401D03*
X009303Y015291D03*
X009393Y015451D03*
X009023Y015721D03*
X008853Y015681D03*
X008893Y015361D03*
X008893Y015351D03*
X008883Y015321D03*
X008883Y015311D03*
X008883Y015301D03*
X008893Y015161D03*
X008893Y015151D03*
X008883Y015121D03*
X008883Y015111D03*
X008883Y015101D03*
X008893Y014961D03*
X008893Y014951D03*
X008883Y014921D03*
X008883Y014911D03*
X008883Y014901D03*
X008853Y014631D03*
X008853Y014621D03*
X008843Y014611D03*
X008943Y014431D03*
X008553Y014441D03*
X008313Y014601D03*
X008123Y014871D03*
X008123Y014881D03*
X008093Y014961D03*
X008193Y015011D03*
X008353Y014951D03*
X008353Y015281D03*
X008353Y015291D03*
X008103Y015371D03*
X008103Y015381D03*
X008093Y015341D03*
X008463Y015681D03*
D42*
X008288Y015661D03*
X008108Y015361D03*
X008168Y015271D03*
X008348Y015301D03*
X008108Y014951D03*
X008888Y014941D03*
X008888Y014931D03*
X008888Y015131D03*
X008888Y015141D03*
X008888Y015331D03*
X008888Y015341D03*
X009118Y015311D03*
X009118Y015301D03*
X009388Y015431D03*
X009388Y015441D03*
X009338Y015031D03*
X009418Y014961D03*
X009408Y014921D03*
X008748Y014441D03*
X008748Y015861D03*
X008558Y015871D03*
X008938Y015881D03*
D43*
X008943Y015541D03*
X009123Y015331D03*
X009123Y015321D03*
X009313Y015281D03*
X009413Y015341D03*
X009123Y015041D03*
X009123Y015031D03*
X009403Y014941D03*
X009403Y014931D03*
X009213Y014641D03*
X008963Y014441D03*
X008533Y014451D03*
X008123Y014891D03*
X008123Y014901D03*
X008193Y015021D03*
X008163Y015261D03*
X008103Y015351D03*
X008343Y015321D03*
X008343Y015311D03*
D44*
X008338Y015331D03*
X008338Y015341D03*
X008548Y015541D03*
X008538Y015861D03*
X008748Y015851D03*
X008958Y015871D03*
X009178Y015691D03*
X009388Y015421D03*
X009388Y015411D03*
X009128Y015351D03*
X009128Y015341D03*
X009128Y015021D03*
X009338Y015041D03*
X008978Y014451D03*
X008748Y014451D03*
X008518Y014461D03*
X008458Y014571D03*
X008638Y014761D03*
X008338Y014881D03*
X008338Y014891D03*
X008128Y014911D03*
D45*
X008128Y014931D03*
X008188Y015031D03*
X008328Y014851D03*
X008328Y014841D03*
X008328Y014831D03*
X008748Y014461D03*
X008988Y014461D03*
X009058Y014611D03*
X009138Y014991D03*
X009338Y015051D03*
X009388Y015391D03*
X008748Y015831D03*
X008508Y015841D03*
X008438Y015691D03*
X008298Y015651D03*
D46*
X008303Y015401D03*
X008163Y015251D03*
X008123Y014941D03*
X008123Y014921D03*
X008333Y014871D03*
X008333Y014861D03*
X008323Y014611D03*
X008503Y014471D03*
X009133Y014951D03*
X009133Y015001D03*
X009133Y015011D03*
X009203Y014901D03*
X009403Y014951D03*
X009313Y015271D03*
X009403Y015351D03*
X009383Y015401D03*
X009043Y015731D03*
X008973Y015861D03*
X008753Y015841D03*
X008523Y015851D03*
D47*
X008983Y015851D03*
X009173Y015681D03*
X009183Y015511D03*
X009183Y015501D03*
X009183Y015491D03*
X009173Y015481D03*
X009383Y015381D03*
X009383Y015371D03*
X009343Y015061D03*
X009143Y014981D03*
X009143Y014971D03*
X009203Y014651D03*
X009003Y014471D03*
X008753Y014471D03*
X008493Y014481D03*
X008483Y014491D03*
X008323Y014801D03*
X008323Y014811D03*
X008323Y014821D03*
X008183Y015041D03*
D48*
X008158Y015241D03*
X008318Y014791D03*
X008318Y014781D03*
X008318Y014771D03*
X008748Y014481D03*
X009018Y014481D03*
X009148Y014961D03*
X009318Y015261D03*
X009388Y015361D03*
X009148Y015411D03*
X009148Y015421D03*
X009188Y015521D03*
X009188Y015531D03*
X009188Y015541D03*
X009188Y015551D03*
X008918Y015531D03*
X008998Y015841D03*
X008748Y015821D03*
X008498Y015831D03*
X008488Y015821D03*
D49*
X008288Y015511D03*
X008288Y015501D03*
X008308Y015451D03*
X008308Y015441D03*
X008308Y015431D03*
X008158Y015231D03*
X008178Y015051D03*
X008318Y014671D03*
X008458Y014511D03*
X008748Y014501D03*
X008748Y014491D03*
X009028Y014491D03*
X009038Y014501D03*
X009158Y015461D03*
X009158Y015471D03*
X009188Y015611D03*
X008748Y015801D03*
D50*
X008753Y015811D03*
X009013Y015831D03*
X009193Y015601D03*
X009193Y015591D03*
X009193Y015581D03*
X009193Y015571D03*
X009193Y015561D03*
X009153Y015451D03*
X009153Y015441D03*
X009153Y015431D03*
X009323Y015251D03*
X009343Y015071D03*
X008573Y015531D03*
X008473Y015811D03*
X008313Y015421D03*
X008313Y015411D03*
X008313Y014761D03*
X008313Y014751D03*
X008313Y014741D03*
X008313Y014731D03*
X008313Y014721D03*
X008313Y014711D03*
X008313Y014701D03*
X008313Y014691D03*
X008313Y014681D03*
X008333Y014621D03*
X008473Y014501D03*
D51*
X008338Y014631D03*
X008178Y015061D03*
X008158Y015211D03*
X008448Y015781D03*
X008748Y015781D03*
X008748Y015791D03*
X009048Y015801D03*
X009178Y015621D03*
X009058Y014521D03*
X009048Y014511D03*
X008748Y014511D03*
D52*
X008603Y014771D03*
X008603Y014781D03*
X008603Y014791D03*
X008603Y014801D03*
X008603Y014811D03*
X008603Y014821D03*
X008603Y014831D03*
X008603Y015031D03*
X008603Y015231D03*
X008603Y015431D03*
X008603Y015441D03*
X008453Y015791D03*
X008463Y015801D03*
X008303Y015641D03*
X008293Y015611D03*
X008283Y015601D03*
X008283Y015591D03*
X008283Y015581D03*
X008283Y015571D03*
X008283Y015561D03*
X008283Y015551D03*
X008283Y015541D03*
X008283Y015531D03*
X008283Y015521D03*
X008293Y015491D03*
X008303Y015481D03*
X008303Y015471D03*
X008303Y015461D03*
X008153Y015221D03*
X008443Y014531D03*
X008453Y014521D03*
X009193Y014661D03*
X009173Y014891D03*
X009343Y015081D03*
X009323Y015241D03*
X009163Y015671D03*
X009033Y015811D03*
X009023Y015821D03*
D53*
X009053Y015791D03*
X008893Y015521D03*
X008593Y015521D03*
X008433Y015771D03*
X008173Y015071D03*
X008423Y014551D03*
X008433Y014541D03*
X008753Y014521D03*
X009173Y014861D03*
X009173Y014871D03*
X009173Y014881D03*
X009343Y015091D03*
X009323Y015231D03*
D54*
X009328Y015221D03*
X009178Y014851D03*
X009178Y014841D03*
X009078Y014541D03*
X009068Y014531D03*
X008748Y014531D03*
X008748Y014541D03*
X008418Y014561D03*
X008348Y014641D03*
X008158Y015201D03*
X008308Y015621D03*
X008318Y015631D03*
X008418Y015751D03*
X008428Y015761D03*
X008618Y015451D03*
X008748Y015761D03*
X008748Y015771D03*
X009068Y015781D03*
X009158Y015661D03*
D55*
X009148Y015651D03*
X008748Y015741D03*
X008748Y015751D03*
X008408Y015741D03*
X008398Y015731D03*
X008158Y015191D03*
X008748Y014561D03*
X008748Y014551D03*
X009098Y014561D03*
X009188Y014701D03*
X009188Y014771D03*
X009188Y014781D03*
X009188Y014791D03*
X009188Y014801D03*
X009328Y015211D03*
D56*
X009343Y015111D03*
X009343Y015101D03*
X009183Y014831D03*
X009183Y014821D03*
X009183Y014811D03*
X009183Y014671D03*
X009083Y014551D03*
X009083Y015761D03*
X009073Y015771D03*
X008173Y015081D03*
D57*
X008173Y015091D03*
X008163Y015181D03*
X008353Y014651D03*
X008753Y014571D03*
X009103Y014571D03*
X009183Y014691D03*
X009193Y014711D03*
X009193Y014721D03*
X009193Y014731D03*
X009193Y014741D03*
X009193Y014751D03*
X009193Y014761D03*
X009343Y015121D03*
X009153Y015631D03*
X009093Y015751D03*
X008753Y015731D03*
X008393Y015721D03*
D58*
X008388Y015711D03*
X008378Y015701D03*
X008748Y015711D03*
X008748Y015721D03*
X009098Y015741D03*
X009138Y015641D03*
X009328Y015201D03*
X009328Y015191D03*
X009338Y015131D03*
X009178Y014681D03*
X009118Y014591D03*
X009108Y014581D03*
X008748Y014581D03*
X008358Y014661D03*
X008178Y015101D03*
X008168Y015171D03*
D59*
X008163Y015161D03*
X008173Y015111D03*
X008643Y015461D03*
X008753Y014591D03*
X009123Y014601D03*
X009333Y015141D03*
D60*
X009328Y015151D03*
X009328Y015181D03*
X008748Y015691D03*
X008748Y015701D03*
X008178Y015121D03*
X008168Y015151D03*
X008748Y014601D03*
D61*
X008703Y014731D03*
X008573Y014711D03*
X008573Y014701D03*
X008513Y014611D03*
X008503Y014871D03*
X008503Y015071D03*
X008383Y015081D03*
X008373Y015191D03*
X008503Y015271D03*
X008703Y015191D03*
X008703Y014991D03*
X008843Y014721D03*
X008933Y014741D03*
X009123Y015111D03*
X009063Y015151D03*
X009063Y015181D03*
X009063Y015381D03*
X008983Y015591D03*
X008753Y015901D03*
X008503Y015651D03*
X008513Y015591D03*
X008703Y015391D03*
X008193Y015311D03*
X008103Y015501D03*
X008103Y015511D03*
X008133Y014761D03*
X008133Y014751D03*
X009313Y014991D03*
X009483Y015021D03*
X009403Y014791D03*
X009403Y014781D03*
X009493Y015271D03*
X009373Y015571D03*
X009373Y015581D03*
D62*
X009353Y015631D03*
X009343Y015641D03*
X009343Y015651D03*
X009023Y015571D03*
X008973Y015671D03*
X008573Y015651D03*
X008513Y015641D03*
X008423Y015381D03*
X008203Y015321D03*
X008003Y015241D03*
X008113Y015551D03*
X008113Y015561D03*
X008213Y015691D03*
X008423Y015151D03*
X008423Y015121D03*
X008383Y015101D03*
X008483Y014761D03*
X008483Y014751D03*
X008483Y014741D03*
X008483Y014731D03*
X008483Y014721D03*
X008483Y014711D03*
X008483Y014701D03*
X008553Y014721D03*
X008563Y014681D03*
X008953Y014751D03*
X009043Y015101D03*
X009123Y015131D03*
X009123Y015201D03*
X009043Y015221D03*
X009393Y014741D03*
X009393Y014731D03*
X009383Y014721D03*
X009293Y014611D03*
X009513Y015071D03*
X009513Y015231D03*
X008153Y014701D03*
X008153Y014691D03*
D63*
X008143Y014721D03*
X008143Y014731D03*
X008283Y014921D03*
X008233Y014971D03*
X008383Y015091D03*
X008493Y015091D03*
X008493Y015101D03*
X008493Y015011D03*
X008493Y014901D03*
X008493Y014891D03*
X008713Y014861D03*
X008713Y014851D03*
X008713Y014961D03*
X008713Y014971D03*
X008713Y015051D03*
X008713Y015061D03*
X008713Y015161D03*
X008713Y015171D03*
X008713Y015251D03*
X008713Y015261D03*
X008713Y015361D03*
X008713Y015371D03*
X008843Y015251D03*
X008843Y015051D03*
X008843Y014851D03*
X009053Y015121D03*
X009053Y015131D03*
X009053Y015201D03*
X009123Y015211D03*
X009123Y015121D03*
X009263Y014931D03*
X009393Y014751D03*
X009503Y015051D03*
X009503Y015251D03*
X009363Y015601D03*
X009363Y015611D03*
X008983Y015681D03*
X008683Y015631D03*
X008473Y015571D03*
X008493Y015411D03*
X008493Y015301D03*
X008493Y015291D03*
X008493Y015211D03*
X008243Y015371D03*
X008103Y015521D03*
X008103Y015531D03*
X008023Y015271D03*
X008023Y015031D03*
X008523Y014621D03*
D64*
X008523Y014671D03*
X008553Y014671D03*
X008643Y014701D03*
X008733Y014641D03*
X008973Y014671D03*
X009313Y014621D03*
X009373Y014691D03*
X009273Y014941D03*
X009293Y014971D03*
X009123Y015141D03*
X009033Y015081D03*
X009033Y015241D03*
X009253Y015341D03*
X009323Y015681D03*
X009313Y015691D03*
X009523Y015201D03*
X009523Y015191D03*
X009523Y015111D03*
X009523Y015101D03*
X008743Y015651D03*
X008433Y015181D03*
X008433Y015101D03*
X008383Y015111D03*
X008243Y014961D03*
X008263Y014931D03*
X008163Y014671D03*
X007993Y015081D03*
X007993Y015221D03*
X008123Y015591D03*
D65*
X008173Y015141D03*
X008183Y015131D03*
X009323Y015161D03*
X009323Y015171D03*
D66*
X008663Y015471D03*
D67*
X008688Y015481D03*
D68*
X008708Y015491D03*
D69*
X008728Y015501D03*
D70*
X008748Y015511D03*
M02*
