G75*
G70*
%OFA0B0*%
%FSLAX24Y24*%
%IPPOS*%
%LPD*%
%AMOC8*
5,1,8,0,0,1.08239X$1,22.5*
%
%ADD10C,0.1300*%
%ADD11C,0.0640*%
%ADD12C,0.1040*%
%ADD13OC8,0.1040*%
%ADD14OC8,0.0560*%
%ADD15C,0.0560*%
%ADD16C,0.0560*%
%ADD17OC8,0.0640*%
%ADD18C,0.0440*%
D10*
X010753Y008651D03*
X018253Y022901D03*
D11*
X004803Y002151D02*
X004203Y002151D01*
X004203Y003151D02*
X004803Y003151D01*
X006203Y004651D02*
X006803Y004651D01*
X006803Y005651D02*
X006203Y005651D01*
X004803Y011651D02*
X004203Y011651D01*
X004203Y012651D02*
X004803Y012651D01*
X004803Y013651D02*
X004203Y013651D01*
X004203Y022651D02*
X004803Y022651D01*
X004803Y023651D02*
X004203Y023651D01*
X004203Y024651D02*
X004803Y024651D01*
X014003Y014951D02*
X014003Y014351D01*
X015003Y014351D02*
X015003Y014951D01*
X016003Y014951D02*
X016003Y014351D01*
X017003Y014351D02*
X017003Y014951D01*
X018003Y014951D02*
X018003Y014351D01*
X018203Y012651D02*
X018803Y012651D01*
X018803Y011651D02*
X018203Y011651D01*
X018203Y010651D02*
X018803Y010651D01*
X018803Y009651D02*
X018203Y009651D01*
X018203Y008651D02*
X018803Y008651D01*
X017803Y024151D02*
X017203Y024151D01*
X017203Y025151D02*
X017803Y025151D01*
X017803Y026151D02*
X017203Y026151D01*
D12*
X010003Y004151D03*
D13*
X010003Y002151D03*
D14*
X013003Y002151D03*
X014503Y002151D03*
X014503Y004151D03*
X014503Y005651D03*
X014503Y007651D03*
X013003Y009651D03*
X013003Y011151D03*
X013003Y012651D03*
X011503Y013651D03*
X010003Y013651D03*
X008503Y014151D03*
X008003Y012151D03*
X008003Y011151D03*
X008753Y011651D03*
X010003Y009651D03*
X008503Y009151D03*
X006503Y009151D03*
X008503Y006251D03*
X011003Y006251D03*
X013003Y004151D03*
X016003Y004151D03*
X016003Y005651D03*
X016003Y007651D03*
X017003Y009651D03*
X017003Y011151D03*
X017003Y012651D03*
X011503Y009651D03*
X006503Y014151D03*
X006503Y017151D03*
X006503Y019151D03*
X006503Y021151D03*
X008003Y023151D03*
X008003Y024151D03*
X008753Y023651D03*
X010003Y025651D03*
X008503Y026151D03*
X006503Y026151D03*
X010003Y021651D03*
X008503Y021151D03*
X011503Y021651D03*
X012503Y021401D03*
X012503Y022901D03*
X014503Y024151D03*
X014503Y025151D03*
X016503Y022901D03*
X016503Y021401D03*
X011503Y025651D03*
X018503Y004151D03*
X018503Y002151D03*
X016003Y002151D03*
D15*
X011003Y007051D03*
X008503Y007051D03*
D16*
X008503Y016391D02*
X008503Y016911D01*
X009503Y016911D02*
X009503Y016391D01*
X010503Y016391D02*
X010503Y016911D01*
X011503Y016911D02*
X011503Y016391D01*
X011503Y019391D02*
X011503Y019911D01*
X010503Y019911D02*
X010503Y019391D01*
X009503Y019391D02*
X009503Y019911D01*
X008503Y019911D02*
X008503Y019391D01*
D17*
X004253Y021151D03*
X004253Y015151D03*
X004253Y010401D03*
X004253Y004401D03*
X014003Y017651D03*
X014003Y018651D03*
X014003Y019651D03*
X015003Y019651D03*
X015003Y018651D03*
X015003Y017651D03*
D18*
X017103Y017151D03*
X017903Y017151D03*
X017503Y020151D03*
M02*
