G75*
G70*
%OFA0B0*%
%FSLAX24Y24*%
%IPPOS*%
%LPD*%
%AMOC8*
5,1,8,0,0,1.08239X$1,22.5*
%
%ADD10C,0.0600*%
%ADD11R,0.0217X0.0472*%
%ADD12C,0.1000*%
%ADD13OC8,0.1000*%
%ADD14OC8,0.0520*%
%ADD15C,0.0520*%
%ADD16C,0.0520*%
%ADD17OC8,0.0600*%
%ADD18C,0.0310*%
%ADD19R,0.0098X0.0315*%
%ADD20R,0.0197X0.0098*%
%ADD21C,0.0240*%
%ADD22C,0.0200*%
%ADD23C,0.0100*%
%ADD24R,0.0356X0.0356*%
D10*
X004203Y002151D02*
X004803Y002151D01*
X004803Y003151D02*
X004203Y003151D01*
X006203Y004651D02*
X006803Y004651D01*
X006803Y005651D02*
X006203Y005651D01*
X004803Y011651D02*
X004203Y011651D01*
X004203Y012651D02*
X004803Y012651D01*
X004803Y013651D02*
X004203Y013651D01*
X004203Y022651D02*
X004803Y022651D01*
X004803Y023651D02*
X004203Y023651D01*
X004203Y024651D02*
X004803Y024651D01*
X014003Y014951D02*
X014003Y014351D01*
X015003Y014351D02*
X015003Y014951D01*
X016003Y014951D02*
X016003Y014351D01*
X017003Y014351D02*
X017003Y014951D01*
X018003Y014951D02*
X018003Y014351D01*
X018203Y012651D02*
X018803Y012651D01*
X018803Y011651D02*
X018203Y011651D01*
X018203Y010651D02*
X018803Y010651D01*
X018803Y009651D02*
X018203Y009651D01*
X018203Y008651D02*
X018803Y008651D01*
X017803Y024151D02*
X017203Y024151D01*
X017203Y025151D02*
X017803Y025151D01*
X017803Y026151D02*
X017203Y026151D01*
D11*
X013377Y007163D03*
X013377Y006139D03*
X013003Y006139D03*
X012629Y006139D03*
X012629Y007163D03*
D12*
X010003Y004151D03*
D13*
X010003Y002151D03*
D14*
X013003Y002151D03*
X014503Y002151D03*
X014503Y004151D03*
X014503Y005651D03*
X014503Y007651D03*
X013003Y009651D03*
X013003Y011151D03*
X013003Y012651D03*
X011503Y013651D03*
X010003Y013651D03*
X008503Y014151D03*
X008003Y012151D03*
X008003Y011151D03*
X008753Y011651D03*
X010003Y009651D03*
X008503Y009151D03*
X006503Y009151D03*
X008503Y006251D03*
X011003Y006251D03*
X013003Y004151D03*
X016003Y004151D03*
X016003Y005651D03*
X016003Y007651D03*
X017003Y009651D03*
X017003Y011151D03*
X017003Y012651D03*
X011503Y009651D03*
X006503Y014151D03*
X006503Y017151D03*
X006503Y019151D03*
X006503Y021151D03*
X008003Y023151D03*
X008003Y024151D03*
X008753Y023651D03*
X010003Y025651D03*
X008503Y026151D03*
X006503Y026151D03*
X010003Y021651D03*
X008503Y021151D03*
X011503Y021651D03*
X012503Y021401D03*
X012503Y022901D03*
X014503Y024151D03*
X014503Y025151D03*
X016503Y022901D03*
X016503Y021401D03*
X011503Y025651D03*
X018503Y004151D03*
X018503Y002151D03*
X016003Y002151D03*
D15*
X011003Y007051D03*
X008503Y007051D03*
D16*
X008503Y016391D02*
X008503Y016911D01*
X009503Y016911D02*
X009503Y016391D01*
X010503Y016391D02*
X010503Y016911D01*
X011503Y016911D02*
X011503Y016391D01*
X011503Y019391D02*
X011503Y019911D01*
X010503Y019911D02*
X010503Y019391D01*
X009503Y019391D02*
X009503Y019911D01*
X008503Y019911D02*
X008503Y019391D01*
D17*
X004253Y021151D03*
X004253Y015151D03*
X004253Y010401D03*
X004253Y004401D03*
X014003Y017651D03*
X014003Y018651D03*
X014003Y019651D03*
X015003Y019651D03*
X015003Y018651D03*
X015003Y017651D03*
D18*
X017253Y017651D03*
X017253Y018151D03*
X017253Y018651D03*
X017253Y019151D03*
X017253Y019651D03*
X017753Y019651D03*
X017753Y019151D03*
X017753Y018651D03*
X017753Y018151D03*
X017753Y017651D03*
D19*
X018110Y006693D03*
X018307Y006693D03*
X018503Y006693D03*
X018700Y006693D03*
X018897Y006693D03*
X018897Y005610D03*
X018700Y005610D03*
X018503Y005610D03*
X018307Y005610D03*
X018110Y005610D03*
D20*
X017913Y006151D03*
X019094Y006151D03*
D21*
X014503Y004151D02*
X013003Y004151D01*
X010003Y004151D02*
X008003Y002151D01*
X005753Y002151D01*
X004503Y002151D01*
D22*
X005753Y002151D02*
X005753Y003901D01*
X005253Y004401D01*
X004253Y004401D01*
X004253Y009151D01*
X005503Y010401D01*
X005503Y014651D01*
X005003Y015151D01*
X004253Y015151D01*
X004253Y019151D01*
X005503Y020401D01*
X007253Y020401D01*
X007503Y020651D01*
X007503Y021401D01*
X007753Y021651D01*
X010003Y021651D01*
X009503Y020651D02*
X011753Y020651D01*
X012503Y021401D01*
X014253Y021401D01*
X015003Y020651D01*
X015003Y019651D01*
X014503Y019151D02*
X015003Y018651D01*
X014503Y019151D02*
X012253Y019151D01*
X012253Y015901D01*
X011503Y015151D01*
X011503Y013651D01*
X013003Y012651D02*
X013003Y015651D01*
X014003Y016651D01*
X014003Y017151D01*
X014003Y017651D01*
X012253Y019151D02*
X012003Y019151D01*
X011503Y019651D01*
X010753Y018151D02*
X008003Y018151D01*
X007503Y017401D02*
X006503Y018401D01*
X006503Y019151D01*
X006503Y019401D01*
X006753Y019651D01*
X008503Y019651D01*
X009503Y020651D01*
X010753Y018151D02*
X011503Y017401D01*
X011503Y016651D01*
X010003Y013651D02*
X009003Y012651D01*
X008003Y012651D01*
X007503Y013151D01*
X007503Y015151D01*
X006753Y015901D01*
X006503Y015901D01*
X007503Y016401D02*
X007503Y017401D01*
X007503Y016401D02*
X008253Y015651D01*
X009003Y015651D01*
X008003Y012651D02*
X008003Y012151D01*
X008753Y011651D02*
X009503Y011651D01*
X011503Y009651D01*
X013003Y009651D02*
X015253Y009651D01*
X015253Y012651D01*
X017003Y012651D01*
X018503Y012651D01*
X018503Y010651D02*
X019503Y010651D01*
X019503Y014901D01*
X019253Y015151D01*
X019253Y025651D01*
X018753Y026151D01*
X017503Y026151D01*
X017503Y024151D02*
X016753Y024151D01*
X016503Y023901D01*
X016503Y022901D01*
X017253Y021901D02*
X018503Y020651D01*
X018503Y019651D01*
X017753Y019651D01*
X017753Y017651D02*
X018503Y017651D01*
X018503Y016151D01*
X018003Y015651D01*
X018003Y014651D01*
X016003Y011901D02*
X016003Y009901D01*
X016253Y009651D01*
X017003Y009651D01*
X018503Y009651D01*
X017003Y007651D02*
X017003Y004151D01*
X018503Y004151D01*
X016003Y004151D02*
X015503Y004151D01*
X015253Y004401D01*
X015253Y005901D01*
X015015Y006139D01*
X013377Y006139D01*
X013003Y006139D02*
X013003Y005651D01*
X014503Y005651D01*
X013377Y007163D02*
X013377Y007525D01*
X013503Y007651D01*
X014503Y007651D01*
X015253Y007651D01*
X015253Y009651D01*
X015253Y007651D02*
X016003Y007651D01*
X017003Y007651D01*
X015253Y012651D02*
X014503Y012651D01*
X014003Y013151D01*
X014003Y014651D01*
X013003Y011151D02*
X013003Y009651D01*
X012503Y007651D02*
X011603Y007651D01*
X011003Y007051D01*
X010003Y007051D01*
X009503Y007051D01*
X009503Y009151D01*
X010003Y009651D01*
X010003Y007051D02*
X010003Y004151D01*
X009503Y007051D02*
X008503Y007051D01*
X006503Y009151D02*
X006503Y014151D01*
X011115Y007163D02*
X011003Y007051D01*
X012503Y007651D02*
X012629Y007525D01*
X012629Y007163D01*
X012629Y006139D01*
X012629Y004525D01*
X013003Y004151D01*
X005253Y021151D02*
X004253Y021151D01*
X005253Y021151D02*
X005503Y021401D01*
X005503Y023401D01*
X005253Y023651D01*
X004503Y023651D01*
X004503Y024651D02*
X008003Y024651D01*
X008003Y024151D01*
X008003Y024651D02*
X009003Y024651D01*
X010003Y025651D01*
X009503Y023651D02*
X008753Y023651D01*
X009503Y023651D02*
X011503Y021651D01*
X012503Y022901D02*
X012503Y024901D01*
X012753Y025151D01*
X014503Y025151D01*
X014503Y024151D02*
X014503Y022401D01*
X015003Y021901D01*
X017253Y021901D01*
D23*
X003153Y027501D02*
X003153Y000301D01*
X019846Y000301D01*
X019853Y027501D01*
X003153Y027501D01*
X003153Y027448D02*
X019853Y027448D01*
X019853Y027349D02*
X003153Y027349D01*
X003153Y027251D02*
X019853Y027251D01*
X019853Y027152D02*
X003153Y027152D01*
X003153Y027054D02*
X019853Y027054D01*
X019853Y026955D02*
X003153Y026955D01*
X003153Y026856D02*
X019853Y026856D01*
X019853Y026758D02*
X003153Y026758D01*
X003153Y026659D02*
X019853Y026659D01*
X019853Y026561D02*
X017886Y026561D01*
X017885Y026561D02*
X017122Y026561D01*
X016971Y026499D01*
X016856Y026383D01*
X016793Y026233D01*
X016793Y026070D01*
X016856Y025919D01*
X016971Y025804D01*
X017122Y025741D01*
X017885Y025741D01*
X018036Y025804D01*
X018151Y025919D01*
X018160Y025941D01*
X018666Y025941D01*
X019043Y025564D01*
X019043Y015064D01*
X019166Y014941D01*
X019293Y014814D01*
X019293Y010861D01*
X019160Y010861D01*
X019151Y010883D01*
X019036Y010999D01*
X018885Y011061D01*
X018122Y011061D01*
X017971Y010999D01*
X017856Y010883D01*
X017793Y010733D01*
X017793Y010570D01*
X017856Y010419D01*
X017971Y010304D01*
X018122Y010241D01*
X018885Y010241D01*
X019036Y010304D01*
X019151Y010419D01*
X019160Y010441D01*
X019343Y010441D01*
X019343Y009287D01*
X019169Y009462D01*
X019213Y009570D01*
X019213Y009733D01*
X019151Y009883D01*
X019036Y009999D01*
X018885Y010061D01*
X018122Y010061D01*
X017971Y009999D01*
X017856Y009883D01*
X017847Y009861D01*
X017317Y009861D01*
X017157Y010021D01*
X016850Y010021D01*
X016690Y009861D01*
X016340Y009861D01*
X016213Y009988D01*
X016213Y011613D01*
X016227Y011613D01*
X016292Y011677D01*
X016292Y012125D01*
X016227Y012189D01*
X015780Y012189D01*
X015715Y012125D01*
X015715Y011677D01*
X015780Y011613D01*
X015793Y011613D01*
X015793Y009814D01*
X015916Y009691D01*
X016166Y009441D01*
X016340Y009441D01*
X016690Y009441D01*
X016850Y009281D01*
X017157Y009281D01*
X017317Y009441D01*
X017847Y009441D01*
X017856Y009419D01*
X017971Y009304D01*
X018122Y009241D01*
X018885Y009241D01*
X018922Y009256D01*
X019093Y009085D01*
X019093Y008941D01*
X019036Y008999D01*
X018885Y009061D01*
X018122Y009061D01*
X017971Y008999D01*
X017856Y008883D01*
X017793Y008733D01*
X017793Y008570D01*
X017856Y008419D01*
X017971Y008304D01*
X018122Y008241D01*
X018343Y008241D01*
X018343Y007335D01*
X018437Y007241D01*
X018437Y007241D01*
X018540Y007138D01*
X018540Y007000D01*
X018504Y007000D01*
X018504Y006693D01*
X018503Y006693D01*
X018503Y007000D01*
X018467Y007000D01*
X018467Y007032D01*
X018467Y007164D01*
X018413Y007217D01*
X018320Y007311D01*
X017437Y007311D01*
X017343Y007217D01*
X017343Y007085D01*
X017343Y004967D01*
X017343Y004835D01*
X017437Y004741D01*
X018343Y004741D01*
X018343Y004514D01*
X018190Y004361D01*
X017213Y004361D01*
X017213Y007738D01*
X017090Y007861D01*
X016916Y007861D01*
X016317Y007861D01*
X016157Y008021D01*
X015850Y008021D01*
X015690Y007861D01*
X015463Y007861D01*
X015463Y009564D01*
X015463Y012441D01*
X016690Y012441D01*
X016850Y012281D01*
X017157Y012281D01*
X017317Y012441D01*
X017847Y012441D01*
X017856Y012419D01*
X017971Y012304D01*
X018122Y012241D01*
X018885Y012241D01*
X019036Y012304D01*
X019151Y012419D01*
X019213Y012570D01*
X019213Y012733D01*
X019151Y012883D01*
X019036Y012999D01*
X018885Y013061D01*
X018122Y013061D01*
X017971Y012999D01*
X017856Y012883D01*
X017847Y012861D01*
X017317Y012861D01*
X017157Y013021D01*
X016850Y013021D01*
X016690Y012861D01*
X015340Y012861D01*
X015166Y012861D01*
X014590Y012861D01*
X014213Y013238D01*
X014213Y013994D01*
X014236Y014004D01*
X014351Y014119D01*
X014413Y014270D01*
X014413Y015033D01*
X014351Y015183D01*
X014236Y015299D01*
X014085Y015361D01*
X013922Y015361D01*
X013771Y015299D01*
X013656Y015183D01*
X013593Y015033D01*
X013593Y014270D01*
X013656Y014119D01*
X013771Y014004D01*
X013793Y013994D01*
X013793Y013238D01*
X013793Y013064D01*
X014293Y012564D01*
X014416Y012441D01*
X015043Y012441D01*
X015043Y009861D01*
X013317Y009861D01*
X013213Y009964D01*
X013213Y010838D01*
X013373Y010998D01*
X013373Y011304D01*
X013157Y011521D01*
X012850Y011521D01*
X012633Y011304D01*
X012633Y010998D01*
X012793Y010838D01*
X012793Y009964D01*
X012633Y009804D01*
X012633Y009498D01*
X012850Y009281D01*
X013157Y009281D01*
X013317Y009441D01*
X015043Y009441D01*
X015043Y007861D01*
X014817Y007861D01*
X014657Y008021D01*
X014350Y008021D01*
X014190Y007861D01*
X013416Y007861D01*
X013293Y007738D01*
X013167Y007612D01*
X013167Y007453D01*
X013159Y007445D01*
X013159Y006881D01*
X013224Y006817D01*
X013531Y006817D01*
X013596Y006881D01*
X013596Y007441D01*
X014190Y007441D01*
X014350Y007281D01*
X014657Y007281D01*
X014817Y007441D01*
X015166Y007441D01*
X015340Y007441D01*
X015690Y007441D01*
X015850Y007281D01*
X016157Y007281D01*
X016317Y007441D01*
X016793Y007441D01*
X016793Y004238D01*
X016793Y004064D01*
X016916Y003941D01*
X018190Y003941D01*
X018350Y003781D01*
X018657Y003781D01*
X018873Y003998D01*
X018873Y004304D01*
X018663Y004514D01*
X018663Y004835D01*
X018663Y005302D01*
X018700Y005302D01*
X018700Y005609D01*
X018700Y005609D01*
X018700Y005302D01*
X018737Y005302D01*
X018737Y005191D01*
X018843Y005085D01*
X018937Y004991D01*
X019187Y004991D01*
X019320Y004991D01*
X019570Y005241D01*
X019663Y005335D01*
X019663Y010514D01*
X019713Y010564D01*
X019713Y010738D01*
X019713Y014814D01*
X019713Y014988D01*
X019463Y015238D01*
X019463Y025738D01*
X019340Y025861D01*
X018840Y026361D01*
X018666Y026361D01*
X018160Y026361D01*
X018151Y026383D01*
X018036Y026499D01*
X017885Y026561D01*
X018072Y026462D02*
X019853Y026462D01*
X019853Y026364D02*
X018159Y026364D01*
X018103Y025871D02*
X018737Y025871D01*
X018835Y025772D02*
X017960Y025772D01*
X017885Y025561D02*
X018036Y025499D01*
X018151Y025383D01*
X018213Y025233D01*
X018213Y025070D01*
X018151Y024919D01*
X018036Y024804D01*
X017885Y024741D01*
X017122Y024741D01*
X016971Y024804D01*
X016856Y024919D01*
X016793Y025070D01*
X016793Y025233D01*
X016856Y025383D01*
X016971Y025499D01*
X017122Y025561D01*
X017885Y025561D01*
X018058Y025477D02*
X019043Y025477D01*
X019043Y025378D02*
X018153Y025378D01*
X018194Y025280D02*
X019043Y025280D01*
X019043Y025181D02*
X018213Y025181D01*
X018213Y025083D02*
X019043Y025083D01*
X019043Y024984D02*
X018178Y024984D01*
X018118Y024886D02*
X019043Y024886D01*
X019043Y024787D02*
X017996Y024787D01*
X017885Y024561D02*
X017122Y024561D01*
X016971Y024499D01*
X016856Y024383D01*
X016847Y024361D01*
X016666Y024361D01*
X016543Y024238D01*
X016293Y023988D01*
X016293Y023814D01*
X016293Y023214D01*
X016133Y023054D01*
X016133Y022748D01*
X016350Y022531D01*
X016657Y022531D01*
X016873Y022748D01*
X016873Y023054D01*
X016713Y023214D01*
X016713Y023814D01*
X016840Y023941D01*
X016847Y023941D01*
X016856Y023919D01*
X016971Y023804D01*
X017122Y023741D01*
X017885Y023741D01*
X018036Y023804D01*
X018151Y023919D01*
X018213Y024070D01*
X018213Y024233D01*
X018151Y024383D01*
X018036Y024499D01*
X017885Y024561D01*
X018043Y024491D02*
X019043Y024491D01*
X019043Y024393D02*
X018142Y024393D01*
X018188Y024294D02*
X019043Y024294D01*
X019043Y024196D02*
X018213Y024196D01*
X018213Y024097D02*
X019043Y024097D01*
X019043Y023999D02*
X018184Y023999D01*
X018132Y023900D02*
X019043Y023900D01*
X019043Y023802D02*
X018031Y023802D01*
X018098Y023681D02*
X017812Y023562D01*
X017592Y023343D01*
X017474Y023056D01*
X017474Y022746D01*
X017592Y022459D01*
X017812Y022240D01*
X018098Y022121D01*
X018409Y022121D01*
X018695Y022240D01*
X018915Y022459D01*
X019033Y022746D01*
X019033Y023056D01*
X018915Y023343D01*
X018695Y023562D01*
X018409Y023681D01*
X018098Y023681D01*
X017913Y023604D02*
X016713Y023604D01*
X016713Y023506D02*
X017755Y023506D01*
X017657Y023407D02*
X016713Y023407D01*
X016713Y023309D02*
X017578Y023309D01*
X017537Y023210D02*
X016718Y023210D01*
X016816Y023112D02*
X017497Y023112D01*
X017474Y023013D02*
X016873Y023013D01*
X016873Y022915D02*
X017474Y022915D01*
X017474Y022816D02*
X016873Y022816D01*
X016843Y022718D02*
X017485Y022718D01*
X017526Y022619D02*
X016745Y022619D01*
X016262Y022619D02*
X012745Y022619D01*
X012657Y022531D02*
X012873Y022748D01*
X012873Y023054D01*
X012713Y023214D01*
X012713Y024814D01*
X012840Y024941D01*
X014190Y024941D01*
X014350Y024781D01*
X014657Y024781D01*
X014873Y024998D01*
X014873Y025304D01*
X014657Y025521D01*
X014350Y025521D01*
X014190Y025361D01*
X012666Y025361D01*
X012543Y025238D01*
X012293Y024988D01*
X012293Y024814D01*
X012293Y023214D01*
X012133Y023054D01*
X012133Y022748D01*
X012350Y022531D01*
X012657Y022531D01*
X012843Y022718D02*
X016164Y022718D01*
X016133Y022816D02*
X012873Y022816D01*
X012873Y022915D02*
X016133Y022915D01*
X016133Y023013D02*
X012873Y023013D01*
X012816Y023112D02*
X016191Y023112D01*
X016289Y023210D02*
X012718Y023210D01*
X012713Y023309D02*
X016293Y023309D01*
X016293Y023407D02*
X012713Y023407D01*
X012713Y023506D02*
X016293Y023506D01*
X016293Y023604D02*
X012713Y023604D01*
X012713Y023703D02*
X016293Y023703D01*
X016293Y023802D02*
X014734Y023802D01*
X014673Y023741D02*
X014913Y023981D01*
X014913Y024121D01*
X014534Y024121D01*
X014534Y024181D01*
X014913Y024181D01*
X014913Y024321D01*
X014673Y024561D01*
X014533Y024561D01*
X014533Y024181D01*
X014473Y024181D01*
X014473Y024121D01*
X014093Y024121D01*
X014093Y023981D01*
X014334Y023741D01*
X014473Y023741D01*
X014473Y024121D01*
X014533Y024121D01*
X014533Y023741D01*
X014673Y023741D01*
X014533Y023802D02*
X014473Y023802D01*
X014473Y023900D02*
X014533Y023900D01*
X014533Y023999D02*
X014473Y023999D01*
X014473Y024097D02*
X014533Y024097D01*
X014533Y024196D02*
X014473Y024196D01*
X014473Y024181D02*
X014473Y024561D01*
X014334Y024561D01*
X014093Y024321D01*
X014093Y024181D01*
X014473Y024181D01*
X014473Y024294D02*
X014533Y024294D01*
X014533Y024393D02*
X014473Y024393D01*
X014473Y024491D02*
X014533Y024491D01*
X014743Y024491D02*
X016964Y024491D01*
X016865Y024393D02*
X014842Y024393D01*
X014913Y024294D02*
X016600Y024294D01*
X016501Y024196D02*
X014913Y024196D01*
X014913Y024097D02*
X016403Y024097D01*
X016304Y023999D02*
X014913Y023999D01*
X014832Y023900D02*
X016293Y023900D01*
X016713Y023802D02*
X016976Y023802D01*
X016875Y023900D02*
X016799Y023900D01*
X016713Y023703D02*
X019043Y023703D01*
X019043Y023604D02*
X018593Y023604D01*
X018752Y023506D02*
X019043Y023506D01*
X019043Y023407D02*
X018850Y023407D01*
X018929Y023309D02*
X019043Y023309D01*
X019043Y023210D02*
X018970Y023210D01*
X019010Y023112D02*
X019043Y023112D01*
X019033Y023013D02*
X019043Y023013D01*
X019033Y022915D02*
X019043Y022915D01*
X019033Y022816D02*
X019043Y022816D01*
X019043Y022718D02*
X019022Y022718D01*
X019043Y022619D02*
X018981Y022619D01*
X018940Y022521D02*
X019043Y022521D01*
X019043Y022422D02*
X018877Y022422D01*
X018779Y022323D02*
X019043Y022323D01*
X019043Y022225D02*
X018659Y022225D01*
X018421Y022126D02*
X019043Y022126D01*
X019043Y022028D02*
X011424Y022028D01*
X011430Y022021D02*
X009590Y023861D01*
X009416Y023861D01*
X009067Y023861D01*
X008907Y024021D01*
X008600Y024021D01*
X008383Y023804D01*
X008383Y023498D01*
X008600Y023281D01*
X008907Y023281D01*
X009067Y023441D01*
X009416Y023441D01*
X011133Y021724D01*
X011133Y021498D01*
X011350Y021281D01*
X011657Y021281D01*
X011873Y021498D01*
X011873Y021804D01*
X011657Y022021D01*
X011430Y022021D01*
X011325Y022126D02*
X018086Y022126D01*
X017848Y022225D02*
X011227Y022225D01*
X011128Y022323D02*
X017728Y022323D01*
X017630Y022422D02*
X011030Y022422D01*
X010931Y022521D02*
X017567Y022521D01*
X016794Y021634D02*
X019043Y021634D01*
X019043Y021732D02*
X016696Y021732D01*
X016657Y021771D02*
X016350Y021771D01*
X016133Y021554D01*
X016133Y021248D01*
X016350Y021031D01*
X016657Y021031D01*
X016873Y021248D01*
X016873Y021554D01*
X016657Y021771D01*
X016873Y021535D02*
X019043Y021535D01*
X019043Y021437D02*
X016873Y021437D01*
X016873Y021338D02*
X019043Y021338D01*
X019043Y021239D02*
X016865Y021239D01*
X016766Y021141D02*
X019043Y021141D01*
X019043Y021042D02*
X016668Y021042D01*
X016339Y021042D02*
X014909Y021042D01*
X015008Y020944D02*
X019043Y020944D01*
X019043Y020845D02*
X015106Y020845D01*
X015090Y020861D02*
X014340Y021611D01*
X014166Y021611D01*
X012817Y021611D01*
X012657Y021771D01*
X012350Y021771D01*
X012133Y021554D01*
X012133Y021328D01*
X011666Y020861D01*
X009416Y020861D01*
X009293Y020738D01*
X008747Y020191D01*
X008713Y020225D01*
X008577Y020281D01*
X008430Y020281D01*
X008294Y020225D01*
X008190Y020121D01*
X008133Y019985D01*
X008133Y019861D01*
X006666Y019861D01*
X006543Y019738D01*
X006293Y019488D01*
X006293Y019464D01*
X006133Y019304D01*
X006133Y018998D01*
X006293Y018838D01*
X006293Y018314D01*
X006416Y018191D01*
X007293Y017314D01*
X007293Y016314D01*
X007416Y016191D01*
X008166Y015441D01*
X008340Y015441D01*
X008715Y015441D01*
X008715Y015427D01*
X008780Y015363D01*
X009227Y015363D01*
X009292Y015427D01*
X009292Y015875D01*
X009227Y015939D01*
X008780Y015939D01*
X008715Y015875D01*
X008715Y015861D01*
X008340Y015861D01*
X007713Y016488D01*
X007713Y017314D01*
X007713Y017488D01*
X006713Y018488D01*
X006713Y018838D01*
X006873Y018998D01*
X006873Y019304D01*
X006789Y019389D01*
X006840Y019441D01*
X008133Y019441D01*
X008133Y019318D01*
X008190Y019182D01*
X008294Y019078D01*
X008430Y019021D01*
X008577Y019021D01*
X008713Y019078D01*
X008817Y019182D01*
X008873Y019318D01*
X008873Y019724D01*
X009133Y019984D01*
X009133Y019318D01*
X009190Y019182D01*
X009294Y019078D01*
X009430Y019021D01*
X009577Y019021D01*
X009713Y019078D01*
X009817Y019182D01*
X009873Y019318D01*
X009873Y019985D01*
X009817Y020121D01*
X009713Y020225D01*
X009577Y020281D01*
X009430Y020281D01*
X009590Y020441D01*
X011666Y020441D01*
X011840Y020441D01*
X012430Y021031D01*
X012657Y021031D01*
X012817Y021191D01*
X014166Y021191D01*
X014793Y020564D01*
X014793Y020021D01*
X014593Y019821D01*
X014593Y019481D01*
X014834Y019241D01*
X015173Y019241D01*
X015413Y019481D01*
X015413Y019491D01*
X015437Y019491D01*
X015843Y019085D01*
X015937Y018991D01*
X017039Y018991D01*
X017103Y018927D01*
X017165Y018901D01*
X017103Y018876D01*
X017039Y018811D01*
X016292Y018811D01*
X016292Y018875D01*
X016227Y018939D01*
X015780Y018939D01*
X015715Y018875D01*
X015715Y018427D01*
X015742Y018401D01*
X015715Y018375D01*
X015715Y018311D01*
X015243Y018311D01*
X015413Y018481D01*
X015413Y018821D01*
X015173Y019061D01*
X014890Y019061D01*
X014713Y019238D01*
X014590Y019361D01*
X014293Y019361D01*
X014413Y019481D01*
X014413Y019821D01*
X014173Y020061D01*
X013834Y020061D01*
X013593Y019821D01*
X013593Y019481D01*
X013714Y019361D01*
X012340Y019361D01*
X012166Y019361D01*
X012090Y019361D01*
X011873Y019578D01*
X011873Y019985D01*
X011817Y020121D01*
X011713Y020225D01*
X011577Y020281D01*
X011430Y020281D01*
X011294Y020225D01*
X011190Y020121D01*
X011133Y019985D01*
X011133Y019318D01*
X011190Y019182D01*
X011294Y019078D01*
X011430Y019021D01*
X011577Y019021D01*
X011713Y019078D01*
X011747Y019111D01*
X011916Y018941D01*
X012043Y018941D01*
X012043Y015988D01*
X011293Y015238D01*
X011293Y015064D01*
X011293Y013964D01*
X011133Y013804D01*
X011133Y013498D01*
X011350Y013281D01*
X011657Y013281D01*
X011873Y013498D01*
X011873Y013804D01*
X011713Y013964D01*
X011713Y015064D01*
X012340Y015691D01*
X012463Y015814D01*
X012463Y018941D01*
X013714Y018941D01*
X013593Y018821D01*
X013593Y018481D01*
X013834Y018241D01*
X013937Y018241D01*
X014093Y018085D01*
X014117Y018061D01*
X013834Y018061D01*
X013593Y017821D01*
X013593Y017481D01*
X013793Y017281D01*
X013793Y017238D01*
X013793Y016738D01*
X012793Y015738D01*
X012793Y015564D01*
X012793Y012964D01*
X012633Y012804D01*
X012633Y012498D01*
X012850Y012281D01*
X013157Y012281D01*
X013373Y012498D01*
X013373Y012804D01*
X013213Y012964D01*
X013213Y015564D01*
X014090Y016441D01*
X014213Y016564D01*
X014213Y016991D01*
X016320Y016991D01*
X016413Y017085D01*
X016820Y017491D01*
X017010Y017491D01*
X016905Y017448D01*
X016807Y017349D01*
X016753Y017221D01*
X016753Y017082D01*
X016807Y016953D01*
X016905Y016854D01*
X017034Y016801D01*
X017173Y016801D01*
X017302Y016854D01*
X017400Y016953D01*
X017453Y017082D01*
X017453Y017221D01*
X017400Y017349D01*
X017347Y017403D01*
X017404Y017427D01*
X017478Y017501D01*
X017482Y017510D01*
X017483Y017507D01*
X017517Y017457D01*
X017559Y017414D01*
X017609Y017381D01*
X017630Y017372D01*
X017607Y017349D01*
X017553Y017221D01*
X017553Y017082D01*
X017607Y016953D01*
X017705Y016854D01*
X017834Y016801D01*
X017973Y016801D01*
X018102Y016854D01*
X018200Y016953D01*
X018253Y017082D01*
X018253Y017221D01*
X018200Y017349D01*
X018102Y017448D01*
X018010Y017486D01*
X018024Y017507D01*
X018047Y017562D01*
X018058Y017621D01*
X018058Y017624D01*
X017797Y017624D01*
X017803Y017630D01*
X017803Y017679D01*
X018058Y017679D01*
X018058Y017681D01*
X018047Y017740D01*
X018024Y017796D01*
X017990Y017846D01*
X017948Y017888D01*
X017898Y017921D01*
X017895Y017923D01*
X017904Y017927D01*
X017968Y017991D01*
X018215Y017991D01*
X018215Y017927D01*
X018280Y017863D01*
X018727Y017863D01*
X018792Y017927D01*
X018792Y018375D01*
X018727Y018439D01*
X018280Y018439D01*
X018215Y018375D01*
X018215Y018311D01*
X017968Y018311D01*
X017904Y018376D01*
X017895Y018380D01*
X017898Y018381D01*
X017948Y018414D01*
X017990Y018457D01*
X018024Y018507D01*
X018047Y018562D01*
X018058Y018621D01*
X018058Y018624D01*
X017803Y018624D01*
X017803Y018679D01*
X018058Y018679D01*
X018058Y018681D01*
X018047Y018740D01*
X018024Y018796D01*
X017990Y018846D01*
X017948Y018888D01*
X017898Y018921D01*
X017895Y018923D01*
X017904Y018927D01*
X017968Y018991D01*
X018215Y018991D01*
X018215Y018927D01*
X018280Y018863D01*
X018727Y018863D01*
X018792Y018927D01*
X018792Y019375D01*
X018727Y019439D01*
X018280Y019439D01*
X018215Y019375D01*
X018215Y019311D01*
X017968Y019311D01*
X017904Y019376D01*
X017895Y019380D01*
X017898Y019381D01*
X017948Y019414D01*
X017990Y019457D01*
X018024Y019507D01*
X018047Y019562D01*
X018058Y019621D01*
X018058Y019624D01*
X017803Y019624D01*
X017803Y019672D01*
X017797Y019679D01*
X018058Y019679D01*
X018058Y019681D01*
X018047Y019740D01*
X018024Y019796D01*
X017990Y019846D01*
X017948Y019888D01*
X017898Y019921D01*
X017842Y019944D01*
X017800Y019953D01*
X017853Y020082D01*
X017853Y020221D01*
X017800Y020349D01*
X017702Y020448D01*
X017573Y020501D01*
X017434Y020501D01*
X017305Y020448D01*
X017207Y020349D01*
X017153Y020221D01*
X017153Y020082D01*
X017207Y019953D01*
X017244Y019916D01*
X017201Y019916D01*
X017103Y019876D01*
X017039Y019811D01*
X016542Y019811D01*
X016542Y019875D01*
X016477Y019939D01*
X016030Y019939D01*
X015965Y019875D01*
X015965Y019427D01*
X016030Y019363D01*
X016477Y019363D01*
X016542Y019427D01*
X016542Y019491D01*
X017039Y019491D01*
X017103Y019427D01*
X017165Y019401D01*
X017103Y019376D01*
X017039Y019311D01*
X016070Y019311D01*
X015570Y019811D01*
X015437Y019811D01*
X015413Y019811D01*
X015413Y019821D01*
X015213Y020021D01*
X015213Y020738D01*
X015090Y020861D01*
X015205Y020747D02*
X019043Y020747D01*
X019043Y020648D02*
X015213Y020648D01*
X015213Y020550D02*
X019043Y020550D01*
X019043Y020451D02*
X017694Y020451D01*
X017797Y020353D02*
X019043Y020353D01*
X019043Y020254D02*
X017840Y020254D01*
X017853Y020155D02*
X019043Y020155D01*
X019043Y020057D02*
X017843Y020057D01*
X017802Y019958D02*
X019043Y019958D01*
X019043Y019860D02*
X017976Y019860D01*
X018038Y019761D02*
X019043Y019761D01*
X019043Y019663D02*
X017803Y019663D01*
X018047Y019564D02*
X019043Y019564D01*
X019043Y019466D02*
X017996Y019466D01*
X017912Y019367D02*
X018215Y019367D01*
X018503Y019151D02*
X017753Y019151D01*
X017950Y018973D02*
X018215Y018973D01*
X018268Y018874D02*
X017962Y018874D01*
X018032Y018776D02*
X019043Y018776D01*
X019043Y018874D02*
X018738Y018874D01*
X018792Y018973D02*
X019043Y018973D01*
X019043Y019071D02*
X018792Y019071D01*
X018792Y019170D02*
X019043Y019170D01*
X019043Y019269D02*
X018792Y019269D01*
X018792Y019367D02*
X019043Y019367D01*
X019463Y019367D02*
X019851Y019367D01*
X019851Y019269D02*
X019463Y019269D01*
X019463Y019170D02*
X019851Y019170D01*
X019851Y019071D02*
X019463Y019071D01*
X019463Y018973D02*
X019851Y018973D01*
X019851Y018874D02*
X019463Y018874D01*
X019463Y018776D02*
X019851Y018776D01*
X019851Y018677D02*
X019463Y018677D01*
X019463Y018579D02*
X019851Y018579D01*
X019851Y018480D02*
X019463Y018480D01*
X019463Y018382D02*
X019851Y018382D01*
X019851Y018283D02*
X019463Y018283D01*
X019463Y018185D02*
X019851Y018185D01*
X019851Y018086D02*
X019463Y018086D01*
X019463Y017988D02*
X019851Y017988D01*
X019851Y017889D02*
X019463Y017889D01*
X019463Y017790D02*
X019851Y017790D01*
X019851Y017692D02*
X019463Y017692D01*
X019463Y017593D02*
X019851Y017593D01*
X019851Y017495D02*
X019463Y017495D01*
X019463Y017396D02*
X019851Y017396D01*
X019851Y017298D02*
X019463Y017298D01*
X019463Y017199D02*
X019851Y017199D01*
X019850Y017101D02*
X019463Y017101D01*
X019463Y017002D02*
X019850Y017002D01*
X019850Y016904D02*
X019463Y016904D01*
X019463Y016805D02*
X019850Y016805D01*
X019850Y016706D02*
X019463Y016706D01*
X019463Y016608D02*
X019850Y016608D01*
X019850Y016509D02*
X019463Y016509D01*
X019463Y016411D02*
X019850Y016411D01*
X019850Y016312D02*
X019463Y016312D01*
X019463Y016214D02*
X019850Y016214D01*
X019850Y016115D02*
X019463Y016115D01*
X019463Y016017D02*
X019850Y016017D01*
X019850Y015918D02*
X019463Y015918D01*
X019463Y015820D02*
X019850Y015820D01*
X019850Y015721D02*
X019463Y015721D01*
X019463Y015622D02*
X019850Y015622D01*
X019850Y015524D02*
X019463Y015524D01*
X019463Y015425D02*
X019850Y015425D01*
X019850Y015327D02*
X019463Y015327D01*
X019473Y015228D02*
X019850Y015228D01*
X019850Y015130D02*
X019572Y015130D01*
X019670Y015031D02*
X019850Y015031D01*
X019850Y014933D02*
X019713Y014933D01*
X019713Y014834D02*
X019850Y014834D01*
X019850Y014736D02*
X019713Y014736D01*
X019713Y014637D02*
X019850Y014637D01*
X019850Y014539D02*
X019713Y014539D01*
X019713Y014440D02*
X019850Y014440D01*
X019850Y014341D02*
X019713Y014341D01*
X019713Y014243D02*
X019850Y014243D01*
X019850Y014144D02*
X019713Y014144D01*
X019713Y014046D02*
X019850Y014046D01*
X019850Y013947D02*
X019713Y013947D01*
X019713Y013849D02*
X019850Y013849D01*
X019850Y013750D02*
X019713Y013750D01*
X019713Y013652D02*
X019849Y013652D01*
X019849Y013553D02*
X019713Y013553D01*
X019713Y013455D02*
X019849Y013455D01*
X019849Y013356D02*
X019713Y013356D01*
X019713Y013257D02*
X019849Y013257D01*
X019849Y013159D02*
X019713Y013159D01*
X019713Y013060D02*
X019849Y013060D01*
X019849Y012962D02*
X019713Y012962D01*
X019713Y012863D02*
X019849Y012863D01*
X019849Y012765D02*
X019713Y012765D01*
X019713Y012666D02*
X019849Y012666D01*
X019849Y012568D02*
X019713Y012568D01*
X019713Y012469D02*
X019849Y012469D01*
X019849Y012371D02*
X019713Y012371D01*
X019713Y012272D02*
X019849Y012272D01*
X019849Y012173D02*
X019713Y012173D01*
X019713Y012075D02*
X019849Y012075D01*
X019849Y011976D02*
X019713Y011976D01*
X019713Y011878D02*
X019849Y011878D01*
X019849Y011779D02*
X019713Y011779D01*
X019713Y011681D02*
X019849Y011681D01*
X019849Y011582D02*
X019713Y011582D01*
X019713Y011484D02*
X019849Y011484D01*
X019849Y011385D02*
X019713Y011385D01*
X019713Y011287D02*
X019849Y011287D01*
X019849Y011188D02*
X019713Y011188D01*
X019713Y011089D02*
X019849Y011089D01*
X019849Y010991D02*
X019713Y010991D01*
X019713Y010892D02*
X019849Y010892D01*
X019849Y010794D02*
X019713Y010794D01*
X019713Y010695D02*
X019849Y010695D01*
X019849Y010597D02*
X019713Y010597D01*
X019663Y010498D02*
X019849Y010498D01*
X019849Y010400D02*
X019663Y010400D01*
X019663Y010301D02*
X019849Y010301D01*
X019849Y010203D02*
X019663Y010203D01*
X019663Y010104D02*
X019848Y010104D01*
X019848Y010006D02*
X019663Y010006D01*
X019663Y009907D02*
X019848Y009907D01*
X019848Y009808D02*
X019663Y009808D01*
X019663Y009710D02*
X019848Y009710D01*
X019848Y009611D02*
X019663Y009611D01*
X019663Y009513D02*
X019848Y009513D01*
X019848Y009414D02*
X019663Y009414D01*
X019663Y009316D02*
X019848Y009316D01*
X019848Y009217D02*
X019663Y009217D01*
X019663Y009119D02*
X019848Y009119D01*
X019848Y009020D02*
X019663Y009020D01*
X019663Y008922D02*
X019848Y008922D01*
X019848Y008823D02*
X019663Y008823D01*
X019663Y008724D02*
X019848Y008724D01*
X019848Y008626D02*
X019663Y008626D01*
X019663Y008527D02*
X019848Y008527D01*
X019848Y008429D02*
X019663Y008429D01*
X019663Y008330D02*
X019848Y008330D01*
X019848Y008232D02*
X019663Y008232D01*
X019663Y008133D02*
X019848Y008133D01*
X019848Y008035D02*
X019663Y008035D01*
X019663Y007936D02*
X019848Y007936D01*
X019848Y007838D02*
X019663Y007838D01*
X019663Y007739D02*
X019848Y007739D01*
X019848Y007640D02*
X019663Y007640D01*
X019663Y007542D02*
X019848Y007542D01*
X019848Y007443D02*
X019663Y007443D01*
X019663Y007345D02*
X019848Y007345D01*
X019848Y007246D02*
X019663Y007246D01*
X019663Y007148D02*
X019848Y007148D01*
X019848Y007049D02*
X019663Y007049D01*
X019663Y006951D02*
X019848Y006951D01*
X019848Y006852D02*
X019663Y006852D01*
X019663Y006754D02*
X019848Y006754D01*
X019848Y006655D02*
X019663Y006655D01*
X019663Y006556D02*
X019847Y006556D01*
X019847Y006458D02*
X019663Y006458D01*
X019663Y006359D02*
X019847Y006359D01*
X019847Y006261D02*
X019663Y006261D01*
X019663Y006162D02*
X019847Y006162D01*
X019847Y006064D02*
X019663Y006064D01*
X019663Y005965D02*
X019847Y005965D01*
X019847Y005867D02*
X019663Y005867D01*
X019663Y005768D02*
X019847Y005768D01*
X019847Y005670D02*
X019663Y005670D01*
X019663Y005571D02*
X019847Y005571D01*
X019847Y005473D02*
X019663Y005473D01*
X019663Y005374D02*
X019847Y005374D01*
X019847Y005275D02*
X019604Y005275D01*
X019505Y005177D02*
X019847Y005177D01*
X019847Y005078D02*
X019407Y005078D01*
X019253Y005151D02*
X019503Y005401D01*
X019503Y010651D01*
X019343Y010400D02*
X019132Y010400D01*
X019030Y010301D02*
X019343Y010301D01*
X019343Y010203D02*
X016213Y010203D01*
X016213Y010301D02*
X017977Y010301D01*
X017875Y010400D02*
X016213Y010400D01*
X016213Y010498D02*
X017823Y010498D01*
X017793Y010597D02*
X016213Y010597D01*
X016213Y010695D02*
X017793Y010695D01*
X017819Y010794D02*
X017169Y010794D01*
X017157Y010781D02*
X017373Y010998D01*
X017373Y011304D01*
X017157Y011521D01*
X016850Y011521D01*
X016633Y011304D01*
X016633Y010998D01*
X016850Y010781D01*
X017157Y010781D01*
X017268Y010892D02*
X017865Y010892D01*
X017963Y010991D02*
X017366Y010991D01*
X017373Y011089D02*
X019293Y011089D01*
X019293Y010991D02*
X019043Y010991D01*
X019142Y010892D02*
X019293Y010892D01*
X019293Y011188D02*
X017373Y011188D01*
X017373Y011287D02*
X017940Y011287D01*
X017968Y011266D02*
X017910Y011308D01*
X017860Y011358D01*
X017819Y011415D01*
X017786Y011478D01*
X017765Y011546D01*
X017756Y011601D01*
X018453Y011601D01*
X018453Y011701D01*
X017756Y011701D01*
X017765Y011757D01*
X017786Y011824D01*
X017819Y011887D01*
X017860Y011944D01*
X017910Y011994D01*
X017968Y012036D01*
X018031Y012068D01*
X018098Y012090D01*
X018168Y012101D01*
X018453Y012101D01*
X018453Y011701D01*
X018553Y011701D01*
X018553Y012101D01*
X018839Y012101D01*
X018909Y012090D01*
X018976Y012068D01*
X019039Y012036D01*
X019097Y011994D01*
X019147Y011944D01*
X019188Y011887D01*
X019220Y011824D01*
X019242Y011757D01*
X019251Y011701D01*
X018554Y011701D01*
X018554Y011601D01*
X019251Y011601D01*
X019242Y011546D01*
X019220Y011478D01*
X019188Y011415D01*
X019147Y011358D01*
X019097Y011308D01*
X019039Y011266D01*
X018976Y011234D01*
X018909Y011212D01*
X018839Y011201D01*
X018553Y011201D01*
X018553Y011601D01*
X018453Y011601D01*
X018453Y011201D01*
X018168Y011201D01*
X018098Y011212D01*
X018031Y011234D01*
X017968Y011266D01*
X017841Y011385D02*
X017293Y011385D01*
X017194Y011484D02*
X017785Y011484D01*
X017759Y011582D02*
X016213Y011582D01*
X016213Y011484D02*
X016813Y011484D01*
X016714Y011385D02*
X016213Y011385D01*
X016213Y011287D02*
X016633Y011287D01*
X016633Y011188D02*
X016213Y011188D01*
X016213Y011089D02*
X016633Y011089D01*
X016640Y010991D02*
X016213Y010991D01*
X016213Y010892D02*
X016739Y010892D01*
X016838Y010794D02*
X016213Y010794D01*
X015793Y010794D02*
X015463Y010794D01*
X015463Y010892D02*
X015793Y010892D01*
X015793Y010991D02*
X015463Y010991D01*
X015463Y011089D02*
X015793Y011089D01*
X015793Y011188D02*
X015463Y011188D01*
X015463Y011287D02*
X015793Y011287D01*
X015793Y011385D02*
X015463Y011385D01*
X015463Y011484D02*
X015793Y011484D01*
X015793Y011582D02*
X015463Y011582D01*
X015463Y011681D02*
X015715Y011681D01*
X015715Y011779D02*
X015463Y011779D01*
X015463Y011878D02*
X015715Y011878D01*
X015715Y011976D02*
X015463Y011976D01*
X015463Y012075D02*
X015715Y012075D01*
X015764Y012173D02*
X015463Y012173D01*
X015463Y012272D02*
X018047Y012272D01*
X017904Y012371D02*
X017246Y012371D01*
X016761Y012371D02*
X015463Y012371D01*
X015043Y012371D02*
X013246Y012371D01*
X013345Y012469D02*
X014389Y012469D01*
X014290Y012568D02*
X013373Y012568D01*
X013373Y012666D02*
X014191Y012666D01*
X014093Y012765D02*
X013373Y012765D01*
X013315Y012863D02*
X013994Y012863D01*
X013896Y012962D02*
X013216Y012962D01*
X013213Y013060D02*
X013797Y013060D01*
X013793Y013159D02*
X013213Y013159D01*
X013213Y013257D02*
X013793Y013257D01*
X013793Y013356D02*
X013213Y013356D01*
X013213Y013455D02*
X013793Y013455D01*
X013793Y013553D02*
X013213Y013553D01*
X013213Y013652D02*
X013793Y013652D01*
X013793Y013750D02*
X013213Y013750D01*
X013213Y013849D02*
X013793Y013849D01*
X013793Y013947D02*
X013213Y013947D01*
X013213Y014046D02*
X013729Y014046D01*
X013645Y014144D02*
X013213Y014144D01*
X013213Y014243D02*
X013605Y014243D01*
X013593Y014341D02*
X013213Y014341D01*
X013213Y014440D02*
X013593Y014440D01*
X013593Y014539D02*
X013213Y014539D01*
X013213Y014637D02*
X013593Y014637D01*
X013593Y014736D02*
X013213Y014736D01*
X013213Y014834D02*
X013593Y014834D01*
X013593Y014933D02*
X013213Y014933D01*
X013213Y015031D02*
X013593Y015031D01*
X013634Y015130D02*
X013213Y015130D01*
X013213Y015228D02*
X013701Y015228D01*
X013839Y015327D02*
X013213Y015327D01*
X013213Y015425D02*
X019043Y015425D01*
X019043Y015327D02*
X018252Y015327D01*
X018239Y015336D02*
X018176Y015368D01*
X018109Y015390D01*
X018053Y015399D01*
X018053Y014701D01*
X017953Y014701D01*
X017953Y014601D01*
X017553Y014601D01*
X017553Y014316D01*
X017565Y014246D01*
X017586Y014178D01*
X017619Y014115D01*
X017660Y014058D01*
X017710Y014008D01*
X017768Y013966D01*
X017831Y013934D01*
X017898Y013912D01*
X017953Y013903D01*
X017953Y014601D01*
X018053Y014601D01*
X018053Y013903D01*
X018109Y013912D01*
X018176Y013934D01*
X018239Y013966D01*
X018297Y014008D01*
X018347Y014058D01*
X018388Y014115D01*
X018420Y014178D01*
X018442Y014246D01*
X018453Y014316D01*
X018453Y014601D01*
X018054Y014601D01*
X018054Y014701D01*
X018453Y014701D01*
X018453Y014987D01*
X018442Y015057D01*
X018420Y015124D01*
X018388Y015187D01*
X018347Y015244D01*
X018297Y015294D01*
X018239Y015336D01*
X018358Y015228D02*
X019043Y015228D01*
X019043Y015130D02*
X018418Y015130D01*
X018446Y015031D02*
X019076Y015031D01*
X019175Y014933D02*
X018453Y014933D01*
X018453Y014834D02*
X019274Y014834D01*
X019293Y014736D02*
X018453Y014736D01*
X018453Y014539D02*
X019293Y014539D01*
X019293Y014637D02*
X018054Y014637D01*
X018053Y014539D02*
X017953Y014539D01*
X017953Y014637D02*
X017413Y014637D01*
X017413Y014539D02*
X017553Y014539D01*
X017553Y014440D02*
X017413Y014440D01*
X017413Y014341D02*
X017553Y014341D01*
X017565Y014243D02*
X017402Y014243D01*
X017413Y014270D02*
X017413Y015033D01*
X017351Y015183D01*
X017236Y015299D01*
X017085Y015361D01*
X016922Y015361D01*
X016771Y015299D01*
X016656Y015183D01*
X016593Y015033D01*
X016593Y014270D01*
X016656Y014119D01*
X016771Y014004D01*
X016922Y013941D01*
X017085Y013941D01*
X017236Y014004D01*
X017351Y014119D01*
X017413Y014270D01*
X017362Y014144D02*
X017604Y014144D01*
X017672Y014046D02*
X017278Y014046D01*
X017100Y013947D02*
X017805Y013947D01*
X017953Y013947D02*
X018053Y013947D01*
X018053Y014046D02*
X017953Y014046D01*
X017953Y014144D02*
X018053Y014144D01*
X018053Y014243D02*
X017953Y014243D01*
X017953Y014341D02*
X018053Y014341D01*
X018053Y014440D02*
X017953Y014440D01*
X017953Y014701D02*
X017553Y014701D01*
X017553Y014987D01*
X017565Y015057D01*
X017586Y015124D01*
X017619Y015187D01*
X017660Y015244D01*
X017710Y015294D01*
X017768Y015336D01*
X017831Y015368D01*
X017898Y015390D01*
X017953Y015399D01*
X017953Y014701D01*
X017953Y014736D02*
X018053Y014736D01*
X018053Y014834D02*
X017953Y014834D01*
X017953Y014933D02*
X018053Y014933D01*
X018053Y015031D02*
X017953Y015031D01*
X017953Y015130D02*
X018053Y015130D01*
X018053Y015228D02*
X017953Y015228D01*
X017953Y015327D02*
X018053Y015327D01*
X017755Y015327D02*
X017168Y015327D01*
X017306Y015228D02*
X017649Y015228D01*
X017589Y015130D02*
X017373Y015130D01*
X017413Y015031D02*
X017561Y015031D01*
X017553Y014933D02*
X017413Y014933D01*
X017413Y014834D02*
X017553Y014834D01*
X017553Y014736D02*
X017413Y014736D01*
X016839Y015327D02*
X016168Y015327D01*
X016236Y015299D02*
X016085Y015361D01*
X015922Y015361D01*
X015771Y015299D01*
X015656Y015183D01*
X015593Y015033D01*
X015593Y014270D01*
X015656Y014119D01*
X015771Y014004D01*
X015922Y013941D01*
X016085Y013941D01*
X016236Y014004D01*
X016351Y014119D01*
X016413Y014270D01*
X016413Y015033D01*
X016351Y015183D01*
X016236Y015299D01*
X016306Y015228D02*
X016701Y015228D01*
X016634Y015130D02*
X016373Y015130D01*
X016413Y015031D02*
X016593Y015031D01*
X016593Y014933D02*
X016413Y014933D01*
X016413Y014834D02*
X016593Y014834D01*
X016593Y014736D02*
X016413Y014736D01*
X016413Y014637D02*
X016593Y014637D01*
X016593Y014539D02*
X016413Y014539D01*
X016413Y014440D02*
X016593Y014440D01*
X016593Y014341D02*
X016413Y014341D01*
X016402Y014243D02*
X016605Y014243D01*
X016645Y014144D02*
X016362Y014144D01*
X016278Y014046D02*
X016729Y014046D01*
X016907Y013947D02*
X016100Y013947D01*
X015907Y013947D02*
X015100Y013947D01*
X015085Y013941D02*
X015236Y014004D01*
X015351Y014119D01*
X015413Y014270D01*
X015413Y015033D01*
X015351Y015183D01*
X015236Y015299D01*
X015085Y015361D01*
X014922Y015361D01*
X014771Y015299D01*
X014656Y015183D01*
X014593Y015033D01*
X014593Y014270D01*
X014656Y014119D01*
X014771Y014004D01*
X014922Y013941D01*
X015085Y013941D01*
X014907Y013947D02*
X014213Y013947D01*
X014213Y013849D02*
X019293Y013849D01*
X019293Y013947D02*
X018202Y013947D01*
X018334Y014046D02*
X019293Y014046D01*
X019293Y014144D02*
X018403Y014144D01*
X018441Y014243D02*
X019293Y014243D01*
X019293Y014341D02*
X018453Y014341D01*
X018453Y014440D02*
X019293Y014440D01*
X019293Y013750D02*
X014213Y013750D01*
X014213Y013652D02*
X019293Y013652D01*
X019293Y013553D02*
X014213Y013553D01*
X014213Y013455D02*
X019293Y013455D01*
X019293Y013356D02*
X014213Y013356D01*
X014213Y013257D02*
X019293Y013257D01*
X019293Y013159D02*
X014293Y013159D01*
X014391Y013060D02*
X018120Y013060D01*
X017934Y012962D02*
X017216Y012962D01*
X017315Y012863D02*
X017848Y012863D01*
X018051Y012075D02*
X016292Y012075D01*
X016292Y011976D02*
X017892Y011976D01*
X017814Y011878D02*
X016292Y011878D01*
X016292Y011779D02*
X017772Y011779D01*
X018453Y011779D02*
X018553Y011779D01*
X018554Y011681D02*
X019293Y011681D01*
X019293Y011779D02*
X019235Y011779D01*
X019193Y011878D02*
X019293Y011878D01*
X019293Y011976D02*
X019115Y011976D01*
X018955Y012075D02*
X019293Y012075D01*
X019293Y012173D02*
X016243Y012173D01*
X016292Y011681D02*
X018453Y011681D01*
X018453Y011582D02*
X018553Y011582D01*
X018553Y011484D02*
X018453Y011484D01*
X018453Y011385D02*
X018553Y011385D01*
X018553Y011287D02*
X018453Y011287D01*
X018453Y011878D02*
X018553Y011878D01*
X018553Y011976D02*
X018453Y011976D01*
X018453Y012075D02*
X018553Y012075D01*
X018959Y012272D02*
X019293Y012272D01*
X019293Y012371D02*
X019103Y012371D01*
X019172Y012469D02*
X019293Y012469D01*
X019293Y012568D02*
X019213Y012568D01*
X019213Y012666D02*
X019293Y012666D01*
X019293Y012765D02*
X019200Y012765D01*
X019159Y012863D02*
X019293Y012863D01*
X019293Y012962D02*
X019073Y012962D01*
X018887Y013060D02*
X019293Y013060D01*
X019248Y011582D02*
X019293Y011582D01*
X019293Y011484D02*
X019222Y011484D01*
X019166Y011385D02*
X019293Y011385D01*
X019293Y011287D02*
X019067Y011287D01*
X019343Y010104D02*
X016213Y010104D01*
X016213Y010006D02*
X016835Y010006D01*
X016736Y009907D02*
X016295Y009907D01*
X015996Y009611D02*
X015463Y009611D01*
X015463Y009513D02*
X016095Y009513D01*
X015898Y009710D02*
X015463Y009710D01*
X015463Y009808D02*
X015799Y009808D01*
X015793Y009907D02*
X015463Y009907D01*
X015463Y010006D02*
X015793Y010006D01*
X015793Y010104D02*
X015463Y010104D01*
X015463Y010203D02*
X015793Y010203D01*
X015793Y010301D02*
X015463Y010301D01*
X015463Y010400D02*
X015793Y010400D01*
X015793Y010498D02*
X015463Y010498D01*
X015463Y010597D02*
X015793Y010597D01*
X015793Y010695D02*
X015463Y010695D01*
X015043Y010695D02*
X013213Y010695D01*
X013213Y010597D02*
X015043Y010597D01*
X015043Y010498D02*
X013213Y010498D01*
X013213Y010400D02*
X015043Y010400D01*
X015043Y010301D02*
X013213Y010301D01*
X013213Y010203D02*
X015043Y010203D01*
X015043Y010104D02*
X013213Y010104D01*
X013213Y010006D02*
X015043Y010006D01*
X015043Y009907D02*
X013271Y009907D01*
X012793Y010006D02*
X011672Y010006D01*
X011657Y010021D02*
X011430Y010021D01*
X009590Y011861D01*
X009416Y011861D01*
X009067Y011861D01*
X008907Y012021D01*
X008600Y012021D01*
X008383Y011804D01*
X008383Y011498D01*
X008600Y011281D01*
X008907Y011281D01*
X009067Y011441D01*
X009416Y011441D01*
X011133Y009724D01*
X011133Y009498D01*
X011350Y009281D01*
X011657Y009281D01*
X011873Y009498D01*
X011873Y009804D01*
X011657Y010021D01*
X011771Y009907D02*
X012736Y009907D01*
X012638Y009808D02*
X011869Y009808D01*
X011873Y009710D02*
X012633Y009710D01*
X012633Y009611D02*
X011873Y009611D01*
X011873Y009513D02*
X012633Y009513D01*
X012717Y009414D02*
X011790Y009414D01*
X011691Y009316D02*
X012816Y009316D01*
X013191Y009316D02*
X015043Y009316D01*
X015043Y009414D02*
X013290Y009414D01*
X012793Y010104D02*
X011348Y010104D01*
X011249Y010203D02*
X012793Y010203D01*
X012793Y010301D02*
X011150Y010301D01*
X011052Y010400D02*
X012793Y010400D01*
X012793Y010498D02*
X010953Y010498D01*
X010855Y010597D02*
X012793Y010597D01*
X012793Y010695D02*
X010756Y010695D01*
X010658Y010794D02*
X012793Y010794D01*
X012739Y010892D02*
X010559Y010892D01*
X010461Y010991D02*
X012640Y010991D01*
X012633Y011089D02*
X010362Y011089D01*
X010264Y011188D02*
X012633Y011188D01*
X012633Y011287D02*
X010165Y011287D01*
X010066Y011385D02*
X012714Y011385D01*
X012813Y011484D02*
X009968Y011484D01*
X009869Y011582D02*
X015043Y011582D01*
X015043Y011484D02*
X013194Y011484D01*
X013293Y011385D02*
X015043Y011385D01*
X015043Y011287D02*
X013373Y011287D01*
X013373Y011188D02*
X015043Y011188D01*
X015043Y011089D02*
X013373Y011089D01*
X013366Y010991D02*
X015043Y010991D01*
X015043Y010892D02*
X013268Y010892D01*
X013213Y010794D02*
X015043Y010794D01*
X015043Y011681D02*
X009771Y011681D01*
X009672Y011779D02*
X015043Y011779D01*
X015043Y011878D02*
X009050Y011878D01*
X008951Y011976D02*
X015043Y011976D01*
X015043Y012075D02*
X008373Y012075D01*
X008373Y011998D02*
X008157Y011781D01*
X007850Y011781D01*
X007633Y011998D01*
X007633Y012304D01*
X007793Y012464D01*
X007793Y012564D01*
X007293Y013064D01*
X007293Y013238D01*
X007293Y015064D01*
X006736Y015622D01*
X006727Y015613D01*
X006280Y015613D01*
X006215Y015677D01*
X006215Y016125D01*
X006280Y016189D01*
X006727Y016189D01*
X006792Y016125D01*
X006792Y016111D01*
X006840Y016111D01*
X007590Y015361D01*
X007713Y015238D01*
X007713Y013238D01*
X008090Y012861D01*
X008916Y012861D01*
X009633Y013578D01*
X009633Y013804D01*
X009850Y014021D01*
X010157Y014021D01*
X010373Y013804D01*
X010373Y013498D01*
X010157Y013281D01*
X009930Y013281D01*
X009090Y012441D01*
X008916Y012441D01*
X008237Y012441D01*
X008373Y012304D01*
X008373Y011998D01*
X008352Y011976D02*
X008555Y011976D01*
X008457Y011878D02*
X008253Y011878D01*
X008383Y011779D02*
X006713Y011779D01*
X006713Y011681D02*
X008383Y011681D01*
X008383Y011582D02*
X006713Y011582D01*
X006713Y011484D02*
X007756Y011484D01*
X007834Y011561D02*
X007593Y011321D01*
X007593Y011181D01*
X007973Y011181D01*
X007973Y011121D01*
X007593Y011121D01*
X007593Y010981D01*
X007834Y010741D01*
X007973Y010741D01*
X007973Y011121D01*
X008033Y011121D01*
X008033Y010741D01*
X008173Y010741D01*
X008413Y010981D01*
X008413Y011121D01*
X008034Y011121D01*
X008034Y011181D01*
X008413Y011181D01*
X008413Y011321D01*
X008173Y011561D01*
X008033Y011561D01*
X008033Y011181D01*
X007973Y011181D01*
X007973Y011561D01*
X007834Y011561D01*
X007973Y011484D02*
X008033Y011484D01*
X008033Y011385D02*
X007973Y011385D01*
X007973Y011287D02*
X008033Y011287D01*
X008033Y011188D02*
X007973Y011188D01*
X007973Y011089D02*
X008033Y011089D01*
X008033Y010991D02*
X007973Y010991D01*
X007973Y010892D02*
X008033Y010892D01*
X008033Y010794D02*
X007973Y010794D01*
X007781Y010794D02*
X006713Y010794D01*
X006713Y010892D02*
X007682Y010892D01*
X007593Y010991D02*
X006713Y010991D01*
X006713Y011089D02*
X007593Y011089D01*
X007593Y011188D02*
X006713Y011188D01*
X006713Y011287D02*
X007593Y011287D01*
X007658Y011385D02*
X006713Y011385D01*
X006293Y011385D02*
X005713Y011385D01*
X005713Y011287D02*
X006293Y011287D01*
X006293Y011188D02*
X005713Y011188D01*
X005713Y011089D02*
X006293Y011089D01*
X006293Y010991D02*
X005713Y010991D01*
X005713Y010892D02*
X006293Y010892D01*
X006293Y010794D02*
X005713Y010794D01*
X005713Y010695D02*
X006293Y010695D01*
X006293Y010597D02*
X005713Y010597D01*
X005713Y010498D02*
X006293Y010498D01*
X006293Y010400D02*
X005713Y010400D01*
X005713Y010314D02*
X005713Y010488D01*
X005713Y014738D01*
X005590Y014861D01*
X005090Y015361D01*
X004916Y015361D01*
X004623Y015361D01*
X004463Y015521D01*
X004463Y019064D01*
X005590Y020191D01*
X007340Y020191D01*
X007463Y020314D01*
X007713Y020564D01*
X007713Y020738D01*
X007713Y021314D01*
X007840Y021441D01*
X008214Y021441D01*
X008093Y021321D01*
X008093Y021181D01*
X008473Y021181D01*
X008473Y021121D01*
X008093Y021121D01*
X008093Y020981D01*
X008334Y020741D01*
X008473Y020741D01*
X008473Y021121D01*
X008533Y021121D01*
X008533Y020741D01*
X008673Y020741D01*
X008913Y020981D01*
X008913Y021121D01*
X008534Y021121D01*
X008534Y021181D01*
X008913Y021181D01*
X008913Y021321D01*
X008793Y021441D01*
X009690Y021441D01*
X009850Y021281D01*
X010157Y021281D01*
X010373Y021498D01*
X010373Y021804D01*
X010157Y022021D01*
X009850Y022021D01*
X009690Y021861D01*
X007840Y021861D01*
X007666Y021861D01*
X007416Y021611D01*
X007293Y021488D01*
X007293Y020738D01*
X007166Y020611D01*
X005590Y020611D01*
X005416Y020611D01*
X004166Y019361D01*
X004043Y019238D01*
X004043Y015521D01*
X003843Y015321D01*
X003843Y014981D01*
X004084Y014741D01*
X004423Y014741D01*
X004623Y014941D01*
X004916Y014941D01*
X005293Y014564D01*
X005293Y010488D01*
X004043Y009238D01*
X004043Y009064D01*
X004043Y004771D01*
X003843Y004571D01*
X003843Y004231D01*
X004084Y003991D01*
X004423Y003991D01*
X004623Y004191D01*
X005166Y004191D01*
X005543Y003814D01*
X005543Y002381D01*
X005152Y002381D01*
X005151Y002383D01*
X005036Y002499D01*
X004885Y002561D01*
X004122Y002561D01*
X003971Y002499D01*
X003856Y002383D01*
X003793Y002233D01*
X003793Y002070D01*
X003856Y001919D01*
X003971Y001804D01*
X004122Y001741D01*
X004885Y001741D01*
X005036Y001804D01*
X005151Y001919D01*
X005152Y001921D01*
X005658Y001921D01*
X007908Y001921D01*
X008099Y001921D01*
X009691Y003513D01*
X009841Y003440D01*
X009841Y003440D01*
X010166Y003440D01*
X010458Y003581D01*
X010458Y003581D01*
X010458Y003581D01*
X010660Y003835D01*
X010732Y004151D01*
X010660Y004467D01*
X010660Y004467D01*
X010458Y004721D01*
X010213Y004839D01*
X010213Y006841D01*
X010690Y006841D01*
X010794Y006738D01*
X010930Y006681D01*
X011077Y006681D01*
X011213Y006738D01*
X011317Y006842D01*
X011373Y006978D01*
X011373Y007124D01*
X011690Y007441D01*
X012411Y007441D01*
X012411Y006881D01*
X012419Y006873D01*
X012419Y006429D01*
X012411Y006421D01*
X012411Y005858D01*
X012419Y005849D01*
X012419Y004612D01*
X012419Y004438D01*
X012633Y004224D01*
X012633Y003998D01*
X012850Y003781D01*
X013157Y003781D01*
X013297Y003921D01*
X014210Y003921D01*
X014350Y003781D01*
X014657Y003781D01*
X014873Y003998D01*
X014873Y004304D01*
X014657Y004521D01*
X014350Y004521D01*
X014210Y004381D01*
X013297Y004381D01*
X013157Y004521D01*
X012930Y004521D01*
X012839Y004612D01*
X012839Y005763D01*
X012875Y005753D01*
X012999Y005753D01*
X012999Y006135D01*
X013008Y006135D01*
X013008Y005753D01*
X013131Y005753D01*
X013170Y005763D01*
X013204Y005783D01*
X013219Y005798D01*
X013224Y005793D01*
X013531Y005793D01*
X013596Y005858D01*
X013596Y005929D01*
X014202Y005929D01*
X014093Y005821D01*
X014093Y005681D01*
X014473Y005681D01*
X014473Y005621D01*
X014093Y005621D01*
X014093Y005481D01*
X014334Y005241D01*
X014473Y005241D01*
X014473Y005621D01*
X014533Y005621D01*
X014533Y005241D01*
X014673Y005241D01*
X014913Y005481D01*
X014913Y005621D01*
X014534Y005621D01*
X014534Y005681D01*
X014913Y005681D01*
X014913Y005821D01*
X014805Y005929D01*
X014928Y005929D01*
X015043Y005814D01*
X015043Y004488D01*
X015043Y004314D01*
X015293Y004064D01*
X015416Y003941D01*
X015690Y003941D01*
X015850Y003781D01*
X016157Y003781D01*
X016373Y003998D01*
X016373Y004304D01*
X016157Y004521D01*
X015850Y004521D01*
X015690Y004361D01*
X015590Y004361D01*
X015463Y004488D01*
X015463Y005988D01*
X015340Y006111D01*
X015102Y006349D01*
X014928Y006349D01*
X013596Y006349D01*
X013596Y006421D01*
X013531Y006486D01*
X013224Y006486D01*
X013219Y006481D01*
X013204Y006496D01*
X013170Y006515D01*
X013131Y006526D01*
X013008Y006526D01*
X013008Y006144D01*
X012999Y006144D01*
X012999Y006526D01*
X012875Y006526D01*
X012839Y006516D01*
X012839Y006873D01*
X012848Y006881D01*
X012848Y007445D01*
X012839Y007453D01*
X012839Y007612D01*
X012713Y007738D01*
X012590Y007861D01*
X011690Y007861D01*
X011516Y007861D01*
X011076Y007421D01*
X010930Y007421D01*
X010794Y007365D01*
X010690Y007261D01*
X010090Y007261D01*
X009713Y007261D01*
X009713Y009064D01*
X009930Y009281D01*
X010157Y009281D01*
X010373Y009498D01*
X010373Y009804D01*
X010157Y010021D01*
X009850Y010021D01*
X009633Y009804D01*
X009633Y009578D01*
X009416Y009361D01*
X009293Y009238D01*
X009293Y007261D01*
X008817Y007261D01*
X008713Y007365D01*
X008577Y007421D01*
X008430Y007421D01*
X008294Y007365D01*
X008190Y007261D01*
X008133Y007125D01*
X008133Y006978D01*
X008190Y006842D01*
X008294Y006738D01*
X008430Y006681D01*
X008577Y006681D01*
X008713Y006738D01*
X008817Y006841D01*
X009416Y006841D01*
X009590Y006841D01*
X009793Y006841D01*
X009793Y004839D01*
X009549Y004721D01*
X009347Y004467D01*
X009274Y004151D01*
X009347Y003835D01*
X009353Y003826D01*
X007908Y002381D01*
X005963Y002381D01*
X005963Y003988D01*
X005840Y004111D01*
X005340Y004611D01*
X005166Y004611D01*
X004623Y004611D01*
X004463Y004771D01*
X004463Y009064D01*
X005713Y010314D01*
X005700Y010301D02*
X006293Y010301D01*
X006293Y010203D02*
X005602Y010203D01*
X005503Y010104D02*
X006293Y010104D01*
X006293Y010006D02*
X005405Y010006D01*
X005306Y009907D02*
X006293Y009907D01*
X006293Y009808D02*
X005208Y009808D01*
X005109Y009710D02*
X006293Y009710D01*
X006293Y009611D02*
X005011Y009611D01*
X004912Y009513D02*
X006293Y009513D01*
X006293Y009464D02*
X006133Y009304D01*
X006133Y008998D01*
X006350Y008781D01*
X006657Y008781D01*
X006873Y008998D01*
X006873Y009304D01*
X006713Y009464D01*
X006713Y013838D01*
X006873Y013998D01*
X006873Y014304D01*
X006657Y014521D01*
X006350Y014521D01*
X006133Y014304D01*
X006133Y013998D01*
X006293Y013838D01*
X006293Y009464D01*
X006243Y009414D02*
X004814Y009414D01*
X004715Y009316D02*
X006145Y009316D01*
X006133Y009217D02*
X004616Y009217D01*
X004518Y009119D02*
X006133Y009119D01*
X006133Y009020D02*
X004463Y009020D01*
X004463Y008922D02*
X006210Y008922D01*
X006308Y008823D02*
X004463Y008823D01*
X004463Y008724D02*
X009293Y008724D01*
X009293Y008626D02*
X004463Y008626D01*
X004463Y008527D02*
X009293Y008527D01*
X009293Y008429D02*
X004463Y008429D01*
X004463Y008330D02*
X009293Y008330D01*
X009293Y008232D02*
X004463Y008232D01*
X004463Y008133D02*
X009293Y008133D01*
X009293Y008035D02*
X004463Y008035D01*
X004463Y007936D02*
X009293Y007936D01*
X009293Y007838D02*
X004463Y007838D01*
X004463Y007739D02*
X009293Y007739D01*
X009293Y007640D02*
X004463Y007640D01*
X004463Y007542D02*
X009293Y007542D01*
X009293Y007443D02*
X004463Y007443D01*
X004463Y007345D02*
X008274Y007345D01*
X008184Y007246D02*
X004463Y007246D01*
X004463Y007148D02*
X008143Y007148D01*
X008133Y007049D02*
X004463Y007049D01*
X004463Y006951D02*
X008145Y006951D01*
X008185Y006852D02*
X004463Y006852D01*
X004463Y006754D02*
X008278Y006754D01*
X008334Y006661D02*
X008093Y006421D01*
X008093Y006281D01*
X008473Y006281D01*
X008473Y006221D01*
X008093Y006221D01*
X008093Y006081D01*
X008334Y005841D01*
X008473Y005841D01*
X008473Y006221D01*
X008533Y006221D01*
X008533Y005841D01*
X008673Y005841D01*
X008913Y006081D01*
X008913Y006221D01*
X008534Y006221D01*
X008534Y006281D01*
X008913Y006281D01*
X008913Y006421D01*
X008673Y006661D01*
X008533Y006661D01*
X008533Y006281D01*
X008473Y006281D01*
X008473Y006661D01*
X008334Y006661D01*
X008328Y006655D02*
X004463Y006655D01*
X004463Y006556D02*
X008229Y006556D01*
X008130Y006458D02*
X004463Y006458D01*
X004463Y006359D02*
X008093Y006359D01*
X008093Y006162D02*
X004463Y006162D01*
X004463Y006064D02*
X006022Y006064D01*
X006031Y006068D02*
X005968Y006036D01*
X005910Y005994D01*
X005860Y005944D01*
X005819Y005887D01*
X005786Y005824D01*
X005765Y005757D01*
X005756Y005701D01*
X006453Y005701D01*
X006453Y005601D01*
X005756Y005601D01*
X005765Y005546D01*
X005786Y005478D01*
X005819Y005415D01*
X005860Y005358D01*
X005910Y005308D01*
X005968Y005266D01*
X006031Y005234D01*
X006098Y005212D01*
X006168Y005201D01*
X006453Y005201D01*
X006453Y005601D01*
X006553Y005601D01*
X006553Y005201D01*
X006839Y005201D01*
X006909Y005212D01*
X006976Y005234D01*
X007039Y005266D01*
X007097Y005308D01*
X007147Y005358D01*
X007188Y005415D01*
X007220Y005478D01*
X007242Y005546D01*
X007251Y005601D01*
X006554Y005601D01*
X006554Y005701D01*
X007251Y005701D01*
X007242Y005757D01*
X007220Y005824D01*
X007188Y005887D01*
X007147Y005944D01*
X007097Y005994D01*
X007039Y006036D01*
X006976Y006068D01*
X006909Y006090D01*
X006839Y006101D01*
X006553Y006101D01*
X006553Y005701D01*
X006453Y005701D01*
X006453Y006101D01*
X006168Y006101D01*
X006098Y006090D01*
X006031Y006068D01*
X005881Y005965D02*
X004463Y005965D01*
X004463Y005867D02*
X005808Y005867D01*
X005768Y005768D02*
X004463Y005768D01*
X004463Y005670D02*
X006453Y005670D01*
X006453Y005768D02*
X006553Y005768D01*
X006554Y005670D02*
X009793Y005670D01*
X009793Y005768D02*
X007239Y005768D01*
X007199Y005867D02*
X008308Y005867D01*
X008210Y005965D02*
X007126Y005965D01*
X006985Y006064D02*
X008111Y006064D01*
X008473Y006064D02*
X008533Y006064D01*
X008533Y006162D02*
X008473Y006162D01*
X008473Y006261D02*
X004463Y006261D01*
X004043Y006261D02*
X003153Y006261D01*
X003153Y006359D02*
X004043Y006359D01*
X004043Y006458D02*
X003153Y006458D01*
X003153Y006556D02*
X004043Y006556D01*
X004043Y006655D02*
X003153Y006655D01*
X003153Y006754D02*
X004043Y006754D01*
X004043Y006852D02*
X003153Y006852D01*
X003153Y006951D02*
X004043Y006951D01*
X004043Y007049D02*
X003153Y007049D01*
X003153Y007148D02*
X004043Y007148D01*
X004043Y007246D02*
X003153Y007246D01*
X003153Y007345D02*
X004043Y007345D01*
X004043Y007443D02*
X003153Y007443D01*
X003153Y007542D02*
X004043Y007542D01*
X004043Y007640D02*
X003153Y007640D01*
X003153Y007739D02*
X004043Y007739D01*
X004043Y007838D02*
X003153Y007838D01*
X003153Y007936D02*
X004043Y007936D01*
X004043Y008035D02*
X003153Y008035D01*
X003153Y008133D02*
X004043Y008133D01*
X004043Y008232D02*
X003153Y008232D01*
X003153Y008330D02*
X004043Y008330D01*
X004043Y008429D02*
X003153Y008429D01*
X003153Y008527D02*
X004043Y008527D01*
X004043Y008626D02*
X003153Y008626D01*
X003153Y008724D02*
X004043Y008724D01*
X004043Y008823D02*
X003153Y008823D01*
X003153Y008922D02*
X004043Y008922D01*
X004043Y009020D02*
X003153Y009020D01*
X003153Y009119D02*
X004043Y009119D01*
X004043Y009217D02*
X003153Y009217D01*
X003153Y009316D02*
X004121Y009316D01*
X004220Y009414D02*
X003153Y009414D01*
X003153Y009513D02*
X004318Y009513D01*
X004417Y009611D02*
X003153Y009611D01*
X003153Y009710D02*
X004515Y009710D01*
X004614Y009808D02*
X003153Y009808D01*
X003153Y009907D02*
X004712Y009907D01*
X004811Y010006D02*
X004438Y010006D01*
X004423Y009991D02*
X004663Y010231D01*
X004663Y010571D01*
X004423Y010811D01*
X004084Y010811D01*
X003843Y010571D01*
X003843Y010231D01*
X004084Y009991D01*
X004423Y009991D01*
X004536Y010104D02*
X004909Y010104D01*
X005008Y010203D02*
X004635Y010203D01*
X004663Y010301D02*
X005106Y010301D01*
X005205Y010400D02*
X004663Y010400D01*
X004663Y010498D02*
X005293Y010498D01*
X005293Y010597D02*
X004638Y010597D01*
X004539Y010695D02*
X005293Y010695D01*
X005293Y010794D02*
X004441Y010794D01*
X004066Y010794D02*
X003153Y010794D01*
X003153Y010892D02*
X005293Y010892D01*
X005293Y010991D02*
X003153Y010991D01*
X003153Y011089D02*
X005293Y011089D01*
X005293Y011188D02*
X003153Y011188D01*
X003153Y011287D02*
X003940Y011287D01*
X003968Y011266D02*
X004031Y011234D01*
X004098Y011212D01*
X004168Y011201D01*
X004453Y011201D01*
X004453Y011601D01*
X003756Y011601D01*
X003765Y011546D01*
X003786Y011478D01*
X003819Y011415D01*
X003860Y011358D01*
X003910Y011308D01*
X003968Y011266D01*
X003841Y011385D02*
X003153Y011385D01*
X003153Y011484D02*
X003785Y011484D01*
X003759Y011582D02*
X003153Y011582D01*
X003153Y011681D02*
X004453Y011681D01*
X004453Y011701D02*
X004453Y011601D01*
X004553Y011601D01*
X004553Y011201D01*
X004839Y011201D01*
X004909Y011212D01*
X004976Y011234D01*
X005039Y011266D01*
X005097Y011308D01*
X005147Y011358D01*
X005188Y011415D01*
X005220Y011478D01*
X005242Y011546D01*
X005251Y011601D01*
X004554Y011601D01*
X004554Y011701D01*
X005251Y011701D01*
X005242Y011757D01*
X005220Y011824D01*
X005188Y011887D01*
X005147Y011944D01*
X005097Y011994D01*
X005039Y012036D01*
X004976Y012068D01*
X004909Y012090D01*
X004839Y012101D01*
X004553Y012101D01*
X004553Y011701D01*
X004453Y011701D01*
X003756Y011701D01*
X003765Y011757D01*
X003786Y011824D01*
X003819Y011887D01*
X003860Y011944D01*
X003910Y011994D01*
X003968Y012036D01*
X004031Y012068D01*
X004098Y012090D01*
X004168Y012101D01*
X004453Y012101D01*
X004453Y011701D01*
X004453Y011779D02*
X004553Y011779D01*
X004554Y011681D02*
X005293Y011681D01*
X005293Y011779D02*
X005235Y011779D01*
X005193Y011878D02*
X005293Y011878D01*
X005293Y011976D02*
X005115Y011976D01*
X004955Y012075D02*
X005293Y012075D01*
X005293Y012173D02*
X003153Y012173D01*
X003153Y012075D02*
X004051Y012075D01*
X004122Y012241D02*
X003971Y012304D01*
X003856Y012419D01*
X003793Y012570D01*
X003793Y012733D01*
X003856Y012883D01*
X003971Y012999D01*
X004122Y013061D01*
X004885Y013061D01*
X005036Y012999D01*
X005151Y012883D01*
X005213Y012733D01*
X005213Y012570D01*
X005151Y012419D01*
X005036Y012304D01*
X004885Y012241D01*
X004122Y012241D01*
X004047Y012272D02*
X003153Y012272D01*
X003153Y012371D02*
X003904Y012371D01*
X003835Y012469D02*
X003153Y012469D01*
X003153Y012568D02*
X003794Y012568D01*
X003793Y012666D02*
X003153Y012666D01*
X003153Y012765D02*
X003807Y012765D01*
X003848Y012863D02*
X003153Y012863D01*
X003153Y012962D02*
X003934Y012962D01*
X004120Y013060D02*
X003153Y013060D01*
X003153Y013159D02*
X005293Y013159D01*
X005293Y013257D02*
X004924Y013257D01*
X004885Y013241D02*
X005036Y013304D01*
X005151Y013419D01*
X005213Y013570D01*
X005213Y013733D01*
X005151Y013883D01*
X005036Y013999D01*
X004885Y014061D01*
X004122Y014061D01*
X003971Y013999D01*
X003856Y013883D01*
X003793Y013733D01*
X003793Y013570D01*
X003856Y013419D01*
X003971Y013304D01*
X004122Y013241D01*
X004885Y013241D01*
X004887Y013060D02*
X005293Y013060D01*
X005293Y012962D02*
X005073Y012962D01*
X005159Y012863D02*
X005293Y012863D01*
X005293Y012765D02*
X005200Y012765D01*
X005213Y012666D02*
X005293Y012666D01*
X005293Y012568D02*
X005213Y012568D01*
X005172Y012469D02*
X005293Y012469D01*
X005293Y012371D02*
X005103Y012371D01*
X004959Y012272D02*
X005293Y012272D01*
X005713Y012272D02*
X006293Y012272D01*
X006293Y012371D02*
X005713Y012371D01*
X005713Y012469D02*
X006293Y012469D01*
X006293Y012568D02*
X005713Y012568D01*
X005713Y012666D02*
X006293Y012666D01*
X006293Y012765D02*
X005713Y012765D01*
X005713Y012863D02*
X006293Y012863D01*
X006293Y012962D02*
X005713Y012962D01*
X005713Y013060D02*
X006293Y013060D01*
X006293Y013159D02*
X005713Y013159D01*
X005713Y013257D02*
X006293Y013257D01*
X006293Y013356D02*
X005713Y013356D01*
X005713Y013455D02*
X006293Y013455D01*
X006293Y013553D02*
X005713Y013553D01*
X005713Y013652D02*
X006293Y013652D01*
X006293Y013750D02*
X005713Y013750D01*
X005713Y013849D02*
X006283Y013849D01*
X006184Y013947D02*
X005713Y013947D01*
X005713Y014046D02*
X006133Y014046D01*
X006133Y014144D02*
X005713Y014144D01*
X005713Y014243D02*
X006133Y014243D01*
X006170Y014341D02*
X005713Y014341D01*
X005713Y014440D02*
X006269Y014440D01*
X006738Y014440D02*
X007293Y014440D01*
X007293Y014539D02*
X005713Y014539D01*
X005713Y014637D02*
X007293Y014637D01*
X007293Y014736D02*
X005713Y014736D01*
X005617Y014834D02*
X007293Y014834D01*
X007293Y014933D02*
X005519Y014933D01*
X005420Y015031D02*
X007293Y015031D01*
X007228Y015130D02*
X005322Y015130D01*
X005223Y015228D02*
X007129Y015228D01*
X007031Y015327D02*
X005125Y015327D01*
X004925Y014933D02*
X004615Y014933D01*
X004516Y014834D02*
X005024Y014834D01*
X005122Y014736D02*
X003153Y014736D01*
X003153Y014834D02*
X003991Y014834D01*
X003892Y014933D02*
X003153Y014933D01*
X003153Y015031D02*
X003843Y015031D01*
X003843Y015130D02*
X003153Y015130D01*
X003153Y015228D02*
X003843Y015228D01*
X003849Y015327D02*
X003153Y015327D01*
X003153Y015425D02*
X003948Y015425D01*
X004043Y015524D02*
X003153Y015524D01*
X003153Y015622D02*
X004043Y015622D01*
X004043Y015721D02*
X003153Y015721D01*
X003153Y015820D02*
X004043Y015820D01*
X004043Y015918D02*
X003153Y015918D01*
X003153Y016017D02*
X004043Y016017D01*
X004043Y016115D02*
X003153Y016115D01*
X003153Y016214D02*
X004043Y016214D01*
X004043Y016312D02*
X003153Y016312D01*
X003153Y016411D02*
X004043Y016411D01*
X004043Y016509D02*
X003153Y016509D01*
X003153Y016608D02*
X004043Y016608D01*
X004043Y016706D02*
X003153Y016706D01*
X003153Y016805D02*
X004043Y016805D01*
X004043Y016904D02*
X003153Y016904D01*
X003153Y017002D02*
X004043Y017002D01*
X004043Y017101D02*
X003153Y017101D01*
X003153Y017199D02*
X004043Y017199D01*
X004043Y017298D02*
X003153Y017298D01*
X003153Y017396D02*
X004043Y017396D01*
X004043Y017495D02*
X003153Y017495D01*
X003153Y017593D02*
X004043Y017593D01*
X004043Y017692D02*
X003153Y017692D01*
X003153Y017790D02*
X004043Y017790D01*
X004043Y017889D02*
X003153Y017889D01*
X003153Y017988D02*
X004043Y017988D01*
X004043Y018086D02*
X003153Y018086D01*
X003153Y018185D02*
X004043Y018185D01*
X004043Y018283D02*
X003153Y018283D01*
X003153Y018382D02*
X004043Y018382D01*
X004043Y018480D02*
X003153Y018480D01*
X003153Y018579D02*
X004043Y018579D01*
X004043Y018677D02*
X003153Y018677D01*
X003153Y018776D02*
X004043Y018776D01*
X004043Y018874D02*
X003153Y018874D01*
X003153Y018973D02*
X004043Y018973D01*
X004043Y019071D02*
X003153Y019071D01*
X003153Y019170D02*
X004043Y019170D01*
X004074Y019269D02*
X003153Y019269D01*
X003153Y019367D02*
X004172Y019367D01*
X004271Y019466D02*
X003153Y019466D01*
X003153Y019564D02*
X004370Y019564D01*
X004468Y019663D02*
X003153Y019663D01*
X003153Y019761D02*
X004567Y019761D01*
X004665Y019860D02*
X003153Y019860D01*
X003153Y019958D02*
X004764Y019958D01*
X004862Y020057D02*
X003153Y020057D01*
X003153Y020155D02*
X004961Y020155D01*
X005059Y020254D02*
X003153Y020254D01*
X003153Y020353D02*
X005158Y020353D01*
X005256Y020451D02*
X003153Y020451D01*
X003153Y020550D02*
X005355Y020550D01*
X005555Y020155D02*
X008225Y020155D01*
X008163Y020057D02*
X005456Y020057D01*
X005358Y019958D02*
X008133Y019958D01*
X008364Y020254D02*
X007403Y020254D01*
X007502Y020353D02*
X008908Y020353D01*
X009006Y020451D02*
X007600Y020451D01*
X007699Y020550D02*
X009105Y020550D01*
X009204Y020648D02*
X007713Y020648D01*
X007713Y020747D02*
X008328Y020747D01*
X008230Y020845D02*
X007713Y020845D01*
X007713Y020944D02*
X008131Y020944D01*
X008093Y021042D02*
X007713Y021042D01*
X007713Y021141D02*
X008473Y021141D01*
X008534Y021141D02*
X011946Y021141D01*
X011848Y021042D02*
X008913Y021042D01*
X008876Y020944D02*
X011749Y020944D01*
X011714Y021338D02*
X012133Y021338D01*
X012133Y021437D02*
X011812Y021437D01*
X011873Y021535D02*
X012133Y021535D01*
X012213Y021634D02*
X011873Y021634D01*
X011873Y021732D02*
X012311Y021732D01*
X012696Y021732D02*
X016311Y021732D01*
X016213Y021634D02*
X012794Y021634D01*
X012766Y021141D02*
X014217Y021141D01*
X014315Y021042D02*
X012668Y021042D01*
X012343Y020944D02*
X014414Y020944D01*
X014512Y020845D02*
X012245Y020845D01*
X012146Y020747D02*
X014611Y020747D01*
X014709Y020648D02*
X012047Y020648D01*
X011949Y020550D02*
X014793Y020550D01*
X014793Y020451D02*
X011850Y020451D01*
X011643Y020254D02*
X014793Y020254D01*
X014793Y020155D02*
X011782Y020155D01*
X011844Y020057D02*
X013829Y020057D01*
X013731Y019958D02*
X011873Y019958D01*
X011873Y019860D02*
X013632Y019860D01*
X013593Y019761D02*
X011873Y019761D01*
X011873Y019663D02*
X013593Y019663D01*
X013593Y019564D02*
X011887Y019564D01*
X011986Y019466D02*
X013609Y019466D01*
X013708Y019367D02*
X012084Y019367D01*
X011786Y019071D02*
X011698Y019071D01*
X011885Y018973D02*
X006848Y018973D01*
X006873Y019071D02*
X008308Y019071D01*
X008201Y019170D02*
X006873Y019170D01*
X006873Y019269D02*
X008154Y019269D01*
X008133Y019367D02*
X006811Y019367D01*
X006468Y019663D02*
X005062Y019663D01*
X005161Y019761D02*
X006567Y019761D01*
X006665Y019860D02*
X005259Y019860D01*
X004963Y019564D02*
X006370Y019564D01*
X006293Y019466D02*
X004865Y019466D01*
X004766Y019367D02*
X006196Y019367D01*
X006133Y019269D02*
X004668Y019269D01*
X004569Y019170D02*
X006133Y019170D01*
X006133Y019071D02*
X004471Y019071D01*
X004463Y018973D02*
X006158Y018973D01*
X006257Y018874D02*
X004463Y018874D01*
X004463Y018776D02*
X006293Y018776D01*
X006293Y018677D02*
X004463Y018677D01*
X004463Y018579D02*
X006293Y018579D01*
X006293Y018480D02*
X004463Y018480D01*
X004463Y018382D02*
X006293Y018382D01*
X006324Y018283D02*
X004463Y018283D01*
X004463Y018185D02*
X006423Y018185D01*
X006522Y018086D02*
X004463Y018086D01*
X004463Y017988D02*
X006620Y017988D01*
X006719Y017889D02*
X004463Y017889D01*
X004463Y017790D02*
X006817Y017790D01*
X006916Y017692D02*
X004463Y017692D01*
X004463Y017593D02*
X007014Y017593D01*
X007113Y017495D02*
X006740Y017495D01*
X006673Y017561D02*
X006533Y017561D01*
X006533Y017181D01*
X006473Y017181D01*
X006473Y017121D01*
X006093Y017121D01*
X006093Y016981D01*
X006334Y016741D01*
X006473Y016741D01*
X006473Y017121D01*
X006533Y017121D01*
X006533Y016741D01*
X006673Y016741D01*
X006913Y016981D01*
X006913Y017121D01*
X006534Y017121D01*
X006534Y017181D01*
X006913Y017181D01*
X006913Y017321D01*
X006673Y017561D01*
X006533Y017495D02*
X006473Y017495D01*
X006473Y017561D02*
X006334Y017561D01*
X006093Y017321D01*
X006093Y017181D01*
X006473Y017181D01*
X006473Y017561D01*
X006473Y017396D02*
X006533Y017396D01*
X006533Y017298D02*
X006473Y017298D01*
X006473Y017199D02*
X006533Y017199D01*
X006533Y017101D02*
X006473Y017101D01*
X006473Y017002D02*
X006533Y017002D01*
X006533Y016904D02*
X006473Y016904D01*
X006473Y016805D02*
X006533Y016805D01*
X006737Y016805D02*
X007293Y016805D01*
X007293Y016904D02*
X006836Y016904D01*
X006913Y017002D02*
X007293Y017002D01*
X007293Y017101D02*
X006913Y017101D01*
X006913Y017199D02*
X007293Y017199D01*
X007293Y017298D02*
X006913Y017298D01*
X006838Y017396D02*
X007211Y017396D01*
X007411Y017790D02*
X012043Y017790D01*
X012043Y017692D02*
X007510Y017692D01*
X007608Y017593D02*
X012043Y017593D01*
X012043Y017495D02*
X007707Y017495D01*
X007713Y017396D02*
X012043Y017396D01*
X012043Y017298D02*
X011641Y017298D01*
X011661Y017291D02*
X011599Y017311D01*
X011536Y017321D01*
X011533Y017321D01*
X011533Y016681D01*
X011473Y016681D01*
X011473Y016621D01*
X011093Y016621D01*
X011093Y016359D01*
X011104Y016295D01*
X011124Y016234D01*
X011153Y016176D01*
X011191Y016124D01*
X011236Y016078D01*
X011289Y016041D01*
X011346Y016011D01*
X011407Y015991D01*
X011471Y015981D01*
X011473Y015981D01*
X011473Y016621D01*
X011533Y016621D01*
X011533Y015981D01*
X011536Y015981D01*
X011599Y015991D01*
X011661Y016011D01*
X011718Y016041D01*
X011771Y016078D01*
X011816Y016124D01*
X011854Y016176D01*
X011883Y016234D01*
X011903Y016295D01*
X011913Y016359D01*
X011913Y016621D01*
X011534Y016621D01*
X011534Y016681D01*
X011913Y016681D01*
X011913Y016943D01*
X011903Y017007D01*
X011883Y017069D01*
X011854Y017126D01*
X011816Y017178D01*
X011771Y017224D01*
X011718Y017262D01*
X011661Y017291D01*
X011533Y017298D02*
X011473Y017298D01*
X011473Y017321D02*
X011471Y017321D01*
X011407Y017311D01*
X011346Y017291D01*
X011289Y017262D01*
X011236Y017224D01*
X011191Y017178D01*
X011153Y017126D01*
X011124Y017069D01*
X011104Y017007D01*
X011093Y016943D01*
X011093Y016681D01*
X011473Y016681D01*
X011473Y017321D01*
X011366Y017298D02*
X007713Y017298D01*
X007713Y017199D02*
X008268Y017199D01*
X008294Y017225D02*
X008190Y017121D01*
X008133Y016985D01*
X008133Y016318D01*
X008190Y016182D01*
X008294Y016078D01*
X008430Y016021D01*
X008577Y016021D01*
X008713Y016078D01*
X008817Y016182D01*
X008873Y016318D01*
X008873Y016985D01*
X008817Y017121D01*
X008713Y017225D01*
X008577Y017281D01*
X008430Y017281D01*
X008294Y017225D01*
X008181Y017101D02*
X007713Y017101D01*
X007713Y017002D02*
X008141Y017002D01*
X008133Y016904D02*
X007713Y016904D01*
X007713Y016805D02*
X008133Y016805D01*
X008133Y016706D02*
X007713Y016706D01*
X007713Y016608D02*
X008133Y016608D01*
X008133Y016509D02*
X007713Y016509D01*
X007791Y016411D02*
X008133Y016411D01*
X008136Y016312D02*
X007889Y016312D01*
X007988Y016214D02*
X008176Y016214D01*
X008256Y016115D02*
X008086Y016115D01*
X008185Y016017D02*
X011335Y016017D01*
X011473Y016017D02*
X011533Y016017D01*
X011533Y016115D02*
X011473Y016115D01*
X011473Y016214D02*
X011533Y016214D01*
X011533Y016312D02*
X011473Y016312D01*
X011473Y016411D02*
X011533Y016411D01*
X011533Y016509D02*
X011473Y016509D01*
X011473Y016608D02*
X011533Y016608D01*
X011533Y016706D02*
X011473Y016706D01*
X011473Y016805D02*
X011533Y016805D01*
X011533Y016904D02*
X011473Y016904D01*
X011473Y017002D02*
X011533Y017002D01*
X011533Y017101D02*
X011473Y017101D01*
X011473Y017199D02*
X011533Y017199D01*
X011795Y017199D02*
X012043Y017199D01*
X012043Y017101D02*
X011867Y017101D01*
X011904Y017002D02*
X012043Y017002D01*
X012043Y016904D02*
X011913Y016904D01*
X011913Y016805D02*
X012043Y016805D01*
X012043Y016706D02*
X011913Y016706D01*
X011913Y016608D02*
X012043Y016608D01*
X012043Y016509D02*
X011913Y016509D01*
X011913Y016411D02*
X012043Y016411D01*
X012043Y016312D02*
X011906Y016312D01*
X011873Y016214D02*
X012043Y016214D01*
X012043Y016115D02*
X011807Y016115D01*
X011671Y016017D02*
X012043Y016017D01*
X011973Y015918D02*
X009248Y015918D01*
X009292Y015820D02*
X011875Y015820D01*
X011776Y015721D02*
X009292Y015721D01*
X009292Y015622D02*
X011678Y015622D01*
X011579Y015524D02*
X009292Y015524D01*
X009289Y015425D02*
X011481Y015425D01*
X011382Y015327D02*
X007625Y015327D01*
X007713Y015228D02*
X011293Y015228D01*
X011293Y015130D02*
X007713Y015130D01*
X007713Y015031D02*
X011293Y015031D01*
X011293Y014933D02*
X007713Y014933D01*
X007713Y014834D02*
X011293Y014834D01*
X011293Y014736D02*
X007713Y014736D01*
X007713Y014637D02*
X011293Y014637D01*
X011293Y014539D02*
X008696Y014539D01*
X008673Y014561D02*
X008533Y014561D01*
X008533Y014181D01*
X008473Y014181D01*
X008473Y014121D01*
X008093Y014121D01*
X008093Y013981D01*
X008334Y013741D01*
X008473Y013741D01*
X008473Y014121D01*
X008533Y014121D01*
X008533Y013741D01*
X008673Y013741D01*
X008913Y013981D01*
X008913Y014121D01*
X008534Y014121D01*
X008534Y014181D01*
X008913Y014181D01*
X008913Y014321D01*
X008673Y014561D01*
X008533Y014539D02*
X008473Y014539D01*
X008473Y014561D02*
X008334Y014561D01*
X008093Y014321D01*
X008093Y014181D01*
X008473Y014181D01*
X008473Y014561D01*
X008473Y014440D02*
X008533Y014440D01*
X008533Y014341D02*
X008473Y014341D01*
X008473Y014243D02*
X008533Y014243D01*
X008534Y014144D02*
X011293Y014144D01*
X011293Y014046D02*
X008913Y014046D01*
X008879Y013947D02*
X009776Y013947D01*
X009678Y013849D02*
X008781Y013849D01*
X008682Y013750D02*
X009633Y013750D01*
X009633Y013652D02*
X007713Y013652D01*
X007713Y013750D02*
X008325Y013750D01*
X008226Y013849D02*
X007713Y013849D01*
X007713Y013947D02*
X008128Y013947D01*
X008093Y014046D02*
X007713Y014046D01*
X007713Y014144D02*
X008473Y014144D01*
X008473Y014046D02*
X008533Y014046D01*
X008533Y013947D02*
X008473Y013947D01*
X008473Y013849D02*
X008533Y013849D01*
X008533Y013750D02*
X008473Y013750D01*
X008093Y014243D02*
X007713Y014243D01*
X007713Y014341D02*
X008114Y014341D01*
X008212Y014440D02*
X007713Y014440D01*
X007713Y014539D02*
X008311Y014539D01*
X008794Y014440D02*
X011293Y014440D01*
X011293Y014341D02*
X008893Y014341D01*
X008913Y014243D02*
X011293Y014243D01*
X011276Y013947D02*
X010231Y013947D01*
X010329Y013849D02*
X011178Y013849D01*
X011133Y013750D02*
X010373Y013750D01*
X010373Y013652D02*
X011133Y013652D01*
X011133Y013553D02*
X010373Y013553D01*
X010330Y013455D02*
X011177Y013455D01*
X011275Y013356D02*
X010231Y013356D01*
X009907Y013257D02*
X012793Y013257D01*
X012793Y013159D02*
X009808Y013159D01*
X009710Y013060D02*
X012793Y013060D01*
X012791Y012962D02*
X009611Y012962D01*
X009512Y012863D02*
X012692Y012863D01*
X012633Y012765D02*
X009414Y012765D01*
X009315Y012666D02*
X012633Y012666D01*
X012633Y012568D02*
X009217Y012568D01*
X009118Y012469D02*
X012662Y012469D01*
X012761Y012371D02*
X008307Y012371D01*
X008373Y012272D02*
X015043Y012272D01*
X015043Y012173D02*
X008373Y012173D01*
X008398Y011484D02*
X008251Y011484D01*
X008349Y011385D02*
X008496Y011385D01*
X008413Y011287D02*
X008595Y011287D01*
X008413Y011188D02*
X009670Y011188D01*
X009768Y011089D02*
X008413Y011089D01*
X008413Y010991D02*
X009867Y010991D01*
X009965Y010892D02*
X008324Y010892D01*
X008226Y010794D02*
X010064Y010794D01*
X010162Y010695D02*
X006713Y010695D01*
X006713Y010597D02*
X010261Y010597D01*
X010359Y010498D02*
X006713Y010498D01*
X006713Y010400D02*
X010458Y010400D01*
X010556Y010301D02*
X006713Y010301D01*
X006713Y010203D02*
X010655Y010203D01*
X010754Y010104D02*
X006713Y010104D01*
X006713Y010006D02*
X009835Y010006D01*
X009736Y009907D02*
X006713Y009907D01*
X006713Y009808D02*
X009637Y009808D01*
X009633Y009710D02*
X006713Y009710D01*
X006713Y009611D02*
X009633Y009611D01*
X009568Y009513D02*
X008722Y009513D01*
X008673Y009561D02*
X008533Y009561D01*
X008533Y009181D01*
X008473Y009181D01*
X008473Y009121D01*
X008093Y009121D01*
X008093Y008981D01*
X008334Y008741D01*
X008473Y008741D01*
X008473Y009121D01*
X008533Y009121D01*
X008533Y008741D01*
X008673Y008741D01*
X008913Y008981D01*
X008913Y009121D01*
X008534Y009121D01*
X008534Y009181D01*
X008913Y009181D01*
X008913Y009321D01*
X008673Y009561D01*
X008533Y009513D02*
X008473Y009513D01*
X008473Y009561D02*
X008334Y009561D01*
X008093Y009321D01*
X008093Y009181D01*
X008473Y009181D01*
X008473Y009561D01*
X008473Y009414D02*
X008533Y009414D01*
X008533Y009316D02*
X008473Y009316D01*
X008473Y009217D02*
X008533Y009217D01*
X008533Y009119D02*
X008473Y009119D01*
X008473Y009020D02*
X008533Y009020D01*
X008533Y008922D02*
X008473Y008922D01*
X008473Y008823D02*
X008533Y008823D01*
X008755Y008823D02*
X009293Y008823D01*
X009293Y008922D02*
X008854Y008922D01*
X008913Y009020D02*
X009293Y009020D01*
X009293Y009119D02*
X008913Y009119D01*
X008913Y009217D02*
X009293Y009217D01*
X009371Y009316D02*
X008913Y009316D01*
X008820Y009414D02*
X009470Y009414D01*
X009768Y009119D02*
X010118Y009119D01*
X010092Y009093D02*
X009974Y008806D01*
X009974Y008496D01*
X010092Y008209D01*
X010312Y007990D01*
X010598Y007871D01*
X010909Y007871D01*
X011195Y007990D01*
X011415Y008209D01*
X011533Y008496D01*
X011533Y008806D01*
X011415Y009093D01*
X011195Y009312D01*
X010909Y009431D01*
X010598Y009431D01*
X010312Y009312D01*
X010092Y009093D01*
X010062Y009020D02*
X009713Y009020D01*
X009713Y008922D02*
X010021Y008922D01*
X009980Y008823D02*
X009713Y008823D01*
X009713Y008724D02*
X009974Y008724D01*
X009974Y008626D02*
X009713Y008626D01*
X009713Y008527D02*
X009974Y008527D01*
X010001Y008429D02*
X009713Y008429D01*
X009713Y008330D02*
X010042Y008330D01*
X010083Y008232D02*
X009713Y008232D01*
X009713Y008133D02*
X010168Y008133D01*
X010267Y008035D02*
X009713Y008035D01*
X009713Y007936D02*
X010442Y007936D01*
X010774Y007345D02*
X009713Y007345D01*
X009713Y007443D02*
X011099Y007443D01*
X011197Y007542D02*
X009713Y007542D01*
X009713Y007640D02*
X011296Y007640D01*
X011394Y007739D02*
X009713Y007739D01*
X009713Y007838D02*
X011493Y007838D01*
X011338Y008133D02*
X015043Y008133D01*
X015043Y008035D02*
X011240Y008035D01*
X011065Y007936D02*
X014265Y007936D01*
X014287Y007345D02*
X013596Y007345D01*
X013596Y007246D02*
X016793Y007246D01*
X016793Y007148D02*
X013596Y007148D01*
X013596Y007049D02*
X016793Y007049D01*
X016793Y006951D02*
X013596Y006951D01*
X013567Y006852D02*
X016793Y006852D01*
X016793Y006754D02*
X012839Y006754D01*
X012839Y006852D02*
X013188Y006852D01*
X013159Y006951D02*
X012848Y006951D01*
X012848Y007049D02*
X013159Y007049D01*
X013159Y007148D02*
X012848Y007148D01*
X012848Y007246D02*
X013159Y007246D01*
X013159Y007345D02*
X012848Y007345D01*
X012848Y007443D02*
X013159Y007443D01*
X013167Y007542D02*
X012839Y007542D01*
X012811Y007640D02*
X013196Y007640D01*
X013294Y007739D02*
X012713Y007739D01*
X012713Y007738D02*
X012713Y007738D01*
X012614Y007838D02*
X013393Y007838D01*
X012411Y007345D02*
X011594Y007345D01*
X011496Y007246D02*
X012411Y007246D01*
X012411Y007148D02*
X011397Y007148D01*
X011373Y007049D02*
X012411Y007049D01*
X012411Y006951D02*
X011362Y006951D01*
X011321Y006852D02*
X012419Y006852D01*
X012419Y006754D02*
X011229Y006754D01*
X011173Y006661D02*
X011033Y006661D01*
X011033Y006281D01*
X010973Y006281D01*
X010973Y006221D01*
X010593Y006221D01*
X010593Y006081D01*
X010834Y005841D01*
X010973Y005841D01*
X010973Y006221D01*
X011033Y006221D01*
X011033Y005841D01*
X011173Y005841D01*
X011413Y006081D01*
X011413Y006221D01*
X011034Y006221D01*
X011034Y006281D01*
X011413Y006281D01*
X011413Y006421D01*
X011173Y006661D01*
X011179Y006655D02*
X012419Y006655D01*
X012419Y006556D02*
X011278Y006556D01*
X011376Y006458D02*
X012419Y006458D01*
X012411Y006359D02*
X011413Y006359D01*
X011413Y006162D02*
X012411Y006162D01*
X012411Y006064D02*
X011396Y006064D01*
X011297Y005965D02*
X012411Y005965D01*
X012411Y005867D02*
X011199Y005867D01*
X011033Y005867D02*
X010973Y005867D01*
X010973Y005965D02*
X011033Y005965D01*
X011033Y006064D02*
X010973Y006064D01*
X010973Y006162D02*
X011033Y006162D01*
X011034Y006261D02*
X012411Y006261D01*
X012419Y005768D02*
X010213Y005768D01*
X010213Y005670D02*
X012419Y005670D01*
X012419Y005571D02*
X010213Y005571D01*
X010213Y005473D02*
X012419Y005473D01*
X012419Y005374D02*
X010213Y005374D01*
X010213Y005275D02*
X012419Y005275D01*
X012419Y005177D02*
X010213Y005177D01*
X010213Y005078D02*
X012419Y005078D01*
X012419Y004980D02*
X010213Y004980D01*
X010213Y004881D02*
X012419Y004881D01*
X012419Y004783D02*
X010330Y004783D01*
X010458Y004721D02*
X010458Y004721D01*
X010487Y004684D02*
X012419Y004684D01*
X012419Y004586D02*
X010566Y004586D01*
X010645Y004487D02*
X012419Y004487D01*
X012469Y004389D02*
X010678Y004389D01*
X010701Y004290D02*
X012568Y004290D01*
X012633Y004191D02*
X010723Y004191D01*
X010719Y004093D02*
X012633Y004093D01*
X012637Y003994D02*
X010697Y003994D01*
X010674Y003896D02*
X012736Y003896D01*
X012834Y003797D02*
X010630Y003797D01*
X010660Y003835D02*
X010660Y003835D01*
X010552Y003699D02*
X019847Y003699D01*
X019847Y003797D02*
X018673Y003797D01*
X018771Y003896D02*
X019847Y003896D01*
X019847Y003994D02*
X018870Y003994D01*
X018873Y004093D02*
X019847Y004093D01*
X019847Y004191D02*
X018873Y004191D01*
X018873Y004290D02*
X019847Y004290D01*
X019847Y004389D02*
X018789Y004389D01*
X018691Y004487D02*
X019847Y004487D01*
X019847Y004586D02*
X018663Y004586D01*
X018663Y004684D02*
X019847Y004684D01*
X019847Y004783D02*
X018663Y004783D01*
X018663Y004881D02*
X019847Y004881D01*
X019847Y004980D02*
X018663Y004980D01*
X018663Y005078D02*
X018850Y005078D01*
X018751Y005177D02*
X018663Y005177D01*
X018663Y005275D02*
X018737Y005275D01*
X018700Y005374D02*
X018700Y005374D01*
X018700Y005473D02*
X018700Y005473D01*
X018700Y005571D02*
X018700Y005571D01*
X018700Y005610D02*
X018700Y005917D01*
X018631Y005917D01*
X018593Y005907D01*
X018559Y005887D01*
X018549Y005877D01*
X018409Y005877D01*
X018405Y005874D01*
X018401Y005877D01*
X018261Y005877D01*
X018251Y005887D01*
X018217Y005907D01*
X018179Y005917D01*
X018110Y005917D01*
X018110Y005610D01*
X018110Y005610D01*
X018110Y005917D01*
X018041Y005917D01*
X018003Y005907D01*
X017968Y005887D01*
X017941Y005859D01*
X017921Y005825D01*
X017911Y005787D01*
X017911Y005610D01*
X018109Y005610D01*
X018109Y005610D01*
X017911Y005610D01*
X017911Y005433D01*
X017921Y005394D01*
X017941Y005360D01*
X017968Y005332D01*
X018003Y005313D01*
X018041Y005302D01*
X018110Y005302D01*
X018179Y005302D01*
X018217Y005313D01*
X018251Y005332D01*
X018261Y005342D01*
X018343Y005342D01*
X018343Y005061D01*
X017663Y005061D01*
X017663Y006991D01*
X018147Y006991D01*
X018147Y006960D01*
X018015Y006960D01*
X017951Y006896D01*
X017951Y006489D01*
X018015Y006425D01*
X018205Y006425D01*
X018208Y006429D01*
X018212Y006425D01*
X018352Y006425D01*
X018362Y006415D01*
X018396Y006395D01*
X018434Y006385D01*
X018503Y006385D01*
X018503Y006692D01*
X018504Y006692D01*
X018504Y006385D01*
X018572Y006385D01*
X018611Y006395D01*
X018645Y006415D01*
X018655Y006425D01*
X018795Y006425D01*
X018799Y006429D01*
X018802Y006425D01*
X018992Y006425D01*
X019056Y006489D01*
X019056Y006625D01*
X019057Y006626D01*
X019057Y007479D01*
X019320Y007741D01*
X019343Y007765D01*
X019343Y005467D01*
X019187Y005311D01*
X019070Y005311D01*
X019057Y005324D01*
X019057Y005676D01*
X019056Y005677D01*
X019056Y005813D01*
X018992Y005877D01*
X018852Y005877D01*
X018842Y005887D01*
X018807Y005907D01*
X018769Y005917D01*
X018700Y005917D01*
X018700Y005610D01*
X018700Y005610D01*
X018700Y005670D02*
X018700Y005670D01*
X018700Y005768D02*
X018700Y005768D01*
X018700Y005867D02*
X018700Y005867D01*
X018886Y006056D02*
X018886Y006246D01*
X018950Y006310D01*
X019238Y006310D01*
X019302Y006246D01*
X019302Y006056D01*
X019238Y005992D01*
X018950Y005992D01*
X018886Y006056D01*
X018886Y006064D02*
X018121Y006064D01*
X018121Y006056D02*
X018121Y006246D01*
X018057Y006310D01*
X017769Y006310D01*
X017704Y006246D01*
X017704Y006056D01*
X017769Y005992D01*
X018057Y005992D01*
X018121Y006056D01*
X018121Y006162D02*
X018886Y006162D01*
X018901Y006261D02*
X018106Y006261D01*
X017982Y006458D02*
X017663Y006458D01*
X017663Y006556D02*
X017951Y006556D01*
X017951Y006655D02*
X017663Y006655D01*
X017663Y006754D02*
X017951Y006754D01*
X017951Y006852D02*
X017663Y006852D01*
X017663Y006951D02*
X018006Y006951D01*
X018253Y007151D02*
X017503Y007151D01*
X017503Y004901D01*
X018503Y004901D01*
X018503Y005610D01*
X018343Y005275D02*
X017663Y005275D01*
X017663Y005177D02*
X018343Y005177D01*
X018343Y005078D02*
X017663Y005078D01*
X017663Y005374D02*
X017933Y005374D01*
X017911Y005473D02*
X017663Y005473D01*
X017663Y005571D02*
X017911Y005571D01*
X017911Y005670D02*
X017663Y005670D01*
X017663Y005768D02*
X017911Y005768D01*
X017948Y005867D02*
X017663Y005867D01*
X017663Y005965D02*
X019343Y005965D01*
X019343Y005867D02*
X019003Y005867D01*
X019056Y005768D02*
X019343Y005768D01*
X019343Y005670D02*
X019057Y005670D01*
X019057Y005571D02*
X019343Y005571D01*
X019343Y005473D02*
X019057Y005473D01*
X019057Y005374D02*
X019250Y005374D01*
X019253Y005151D02*
X019003Y005151D01*
X018897Y005257D01*
X018897Y005610D01*
X019302Y006064D02*
X019343Y006064D01*
X019343Y006162D02*
X019302Y006162D01*
X019287Y006261D02*
X019343Y006261D01*
X019343Y006359D02*
X017663Y006359D01*
X017663Y006261D02*
X017719Y006261D01*
X017704Y006162D02*
X017663Y006162D01*
X017663Y006064D02*
X017704Y006064D01*
X017343Y006064D02*
X017213Y006064D01*
X017213Y006162D02*
X017343Y006162D01*
X017343Y006261D02*
X017213Y006261D01*
X017213Y006359D02*
X017343Y006359D01*
X017343Y006458D02*
X017213Y006458D01*
X017213Y006556D02*
X017343Y006556D01*
X017343Y006655D02*
X017213Y006655D01*
X017213Y006754D02*
X017343Y006754D01*
X017343Y006852D02*
X017213Y006852D01*
X017213Y006951D02*
X017343Y006951D01*
X017343Y007049D02*
X017213Y007049D01*
X017213Y007148D02*
X017343Y007148D01*
X017372Y007246D02*
X017213Y007246D01*
X017213Y007345D02*
X018343Y007345D01*
X018343Y007443D02*
X017213Y007443D01*
X017213Y007542D02*
X018343Y007542D01*
X018343Y007640D02*
X017213Y007640D01*
X017213Y007739D02*
X018343Y007739D01*
X018343Y007838D02*
X017114Y007838D01*
X016793Y007345D02*
X016220Y007345D01*
X015787Y007345D02*
X014720Y007345D01*
X014742Y007936D02*
X015043Y007936D01*
X015043Y008232D02*
X011424Y008232D01*
X011465Y008330D02*
X015043Y008330D01*
X015043Y008429D02*
X011505Y008429D01*
X011533Y008527D02*
X015043Y008527D01*
X015043Y008626D02*
X011533Y008626D01*
X011533Y008724D02*
X015043Y008724D01*
X015043Y008823D02*
X011526Y008823D01*
X011486Y008922D02*
X015043Y008922D01*
X015043Y009020D02*
X011445Y009020D01*
X011389Y009119D02*
X015043Y009119D01*
X015043Y009217D02*
X011290Y009217D01*
X011316Y009316D02*
X011187Y009316D01*
X011217Y009414D02*
X010949Y009414D01*
X011133Y009513D02*
X010373Y009513D01*
X010373Y009611D02*
X011133Y009611D01*
X011133Y009710D02*
X010373Y009710D01*
X010369Y009808D02*
X011049Y009808D01*
X010951Y009907D02*
X010271Y009907D01*
X010172Y010006D02*
X010852Y010006D01*
X010558Y009414D02*
X010290Y009414D01*
X010320Y009316D02*
X010191Y009316D01*
X010216Y009217D02*
X009866Y009217D01*
X008285Y009513D02*
X006713Y009513D01*
X006764Y009414D02*
X008187Y009414D01*
X008093Y009316D02*
X006862Y009316D01*
X006873Y009217D02*
X008093Y009217D01*
X008093Y009119D02*
X006873Y009119D01*
X006873Y009020D02*
X008093Y009020D01*
X008153Y008922D02*
X006797Y008922D01*
X006699Y008823D02*
X008252Y008823D01*
X008733Y007345D02*
X009293Y007345D01*
X009793Y006754D02*
X008729Y006754D01*
X008679Y006655D02*
X009793Y006655D01*
X009793Y006556D02*
X008778Y006556D01*
X008876Y006458D02*
X009793Y006458D01*
X009793Y006359D02*
X008913Y006359D01*
X008913Y006162D02*
X009793Y006162D01*
X009793Y006064D02*
X008896Y006064D01*
X008797Y005965D02*
X009793Y005965D01*
X009793Y005867D02*
X008699Y005867D01*
X008533Y005867D02*
X008473Y005867D01*
X008473Y005965D02*
X008533Y005965D01*
X008534Y006261D02*
X009793Y006261D01*
X010213Y006261D02*
X010973Y006261D01*
X010973Y006281D02*
X010593Y006281D01*
X010593Y006421D01*
X010834Y006661D01*
X010973Y006661D01*
X010973Y006281D01*
X010973Y006359D02*
X011033Y006359D01*
X011033Y006458D02*
X010973Y006458D01*
X010973Y006556D02*
X011033Y006556D01*
X011033Y006655D02*
X010973Y006655D01*
X010828Y006655D02*
X010213Y006655D01*
X010213Y006556D02*
X010729Y006556D01*
X010630Y006458D02*
X010213Y006458D01*
X010213Y006359D02*
X010593Y006359D01*
X010593Y006162D02*
X010213Y006162D01*
X010213Y006064D02*
X010611Y006064D01*
X010710Y005965D02*
X010213Y005965D01*
X010213Y005867D02*
X010808Y005867D01*
X010778Y006754D02*
X010213Y006754D01*
X009793Y005571D02*
X007246Y005571D01*
X007217Y005473D02*
X009793Y005473D01*
X009793Y005374D02*
X007158Y005374D01*
X007052Y005275D02*
X009793Y005275D01*
X009793Y005177D02*
X004463Y005177D01*
X004463Y005275D02*
X005955Y005275D01*
X005849Y005374D02*
X004463Y005374D01*
X004463Y005473D02*
X005789Y005473D01*
X005761Y005571D02*
X004463Y005571D01*
X004043Y005571D02*
X003153Y005571D01*
X003153Y005473D02*
X004043Y005473D01*
X004043Y005374D02*
X003153Y005374D01*
X003153Y005275D02*
X004043Y005275D01*
X004043Y005177D02*
X003153Y005177D01*
X003153Y005078D02*
X004043Y005078D01*
X004043Y004980D02*
X003153Y004980D01*
X003153Y004881D02*
X004043Y004881D01*
X004043Y004783D02*
X003153Y004783D01*
X003153Y004684D02*
X003957Y004684D01*
X003858Y004586D02*
X003153Y004586D01*
X003153Y004487D02*
X003843Y004487D01*
X003843Y004389D02*
X003153Y004389D01*
X003153Y004290D02*
X003843Y004290D01*
X003883Y004191D02*
X003153Y004191D01*
X003153Y004093D02*
X003982Y004093D01*
X004080Y003994D02*
X003153Y003994D01*
X003153Y003896D02*
X005462Y003896D01*
X005543Y003797D02*
X003153Y003797D01*
X003153Y003699D02*
X005543Y003699D01*
X005543Y003600D02*
X004845Y003600D01*
X004839Y003601D02*
X004553Y003601D01*
X004553Y003201D01*
X004453Y003201D01*
X004453Y003101D01*
X003756Y003101D01*
X003765Y003046D01*
X003786Y002978D01*
X003819Y002915D01*
X003860Y002858D01*
X003910Y002808D01*
X003968Y002766D01*
X004031Y002734D01*
X004098Y002712D01*
X004168Y002701D01*
X004453Y002701D01*
X004453Y003101D01*
X004553Y003101D01*
X004553Y002701D01*
X004839Y002701D01*
X004909Y002712D01*
X004976Y002734D01*
X005039Y002766D01*
X005097Y002808D01*
X005147Y002858D01*
X005188Y002915D01*
X005220Y002978D01*
X005242Y003046D01*
X005251Y003101D01*
X004554Y003101D01*
X004554Y003201D01*
X005251Y003201D01*
X005242Y003257D01*
X005220Y003324D01*
X005188Y003387D01*
X005147Y003444D01*
X005097Y003494D01*
X005039Y003536D01*
X004976Y003568D01*
X004909Y003590D01*
X004839Y003601D01*
X005087Y003502D02*
X005543Y003502D01*
X005543Y003403D02*
X005177Y003403D01*
X005227Y003305D02*
X005543Y003305D01*
X005543Y003206D02*
X005250Y003206D01*
X005230Y003009D02*
X005543Y003009D01*
X005543Y003107D02*
X004554Y003107D01*
X004553Y003009D02*
X004453Y003009D01*
X004453Y003107D02*
X003153Y003107D01*
X003153Y003009D02*
X003776Y003009D01*
X003822Y002910D02*
X003153Y002910D01*
X003153Y002812D02*
X003906Y002812D01*
X004095Y002713D02*
X003153Y002713D01*
X003153Y002615D02*
X005543Y002615D01*
X005543Y002713D02*
X004912Y002713D01*
X005101Y002812D02*
X005543Y002812D01*
X005543Y002910D02*
X005185Y002910D01*
X004993Y002516D02*
X005543Y002516D01*
X005543Y002418D02*
X005117Y002418D01*
X005059Y001826D02*
X009353Y001826D01*
X009347Y001835D02*
X009549Y001581D01*
X009841Y001440D01*
X009841Y001440D01*
X010166Y001440D01*
X010458Y001581D01*
X010458Y001581D01*
X010458Y001581D01*
X010660Y001835D01*
X010732Y002151D01*
X010660Y002467D01*
X010660Y002467D01*
X010458Y002721D01*
X010166Y002862D01*
X010166Y002862D01*
X009841Y002862D01*
X009549Y002721D01*
X009347Y002467D01*
X009274Y002151D01*
X009347Y001835D01*
X009347Y001835D01*
X009326Y001925D02*
X008102Y001925D01*
X008201Y002024D02*
X009304Y002024D01*
X009281Y002122D02*
X008300Y002122D01*
X008398Y002221D02*
X009290Y002221D01*
X009274Y002151D02*
X009274Y002151D01*
X009313Y002319D02*
X008497Y002319D01*
X008595Y002418D02*
X009335Y002418D01*
X009347Y002467D02*
X009347Y002467D01*
X009386Y002516D02*
X008694Y002516D01*
X008792Y002615D02*
X009464Y002615D01*
X009543Y002713D02*
X008891Y002713D01*
X008989Y002812D02*
X009737Y002812D01*
X009841Y002862D02*
X009841Y002862D01*
X009549Y002721D02*
X009549Y002721D01*
X009549Y002721D01*
X009186Y003009D02*
X019846Y003009D01*
X019846Y003107D02*
X009285Y003107D01*
X009384Y003206D02*
X019847Y003206D01*
X019847Y003305D02*
X009482Y003305D01*
X009581Y003403D02*
X019847Y003403D01*
X019847Y003502D02*
X010293Y003502D01*
X010166Y003440D02*
X010166Y003440D01*
X010473Y003600D02*
X019847Y003600D01*
X019846Y002910D02*
X009088Y002910D01*
X008733Y003206D02*
X005963Y003206D01*
X005963Y003107D02*
X008635Y003107D01*
X008536Y003009D02*
X005963Y003009D01*
X005963Y002910D02*
X008437Y002910D01*
X008339Y002812D02*
X005963Y002812D01*
X005963Y002713D02*
X008240Y002713D01*
X008142Y002615D02*
X005963Y002615D01*
X005963Y002516D02*
X008043Y002516D01*
X007945Y002418D02*
X005963Y002418D01*
X005963Y003305D02*
X008832Y003305D01*
X008930Y003403D02*
X005963Y003403D01*
X005963Y003502D02*
X009029Y003502D01*
X009127Y003600D02*
X005963Y003600D01*
X005963Y003699D02*
X009226Y003699D01*
X009324Y003797D02*
X005963Y003797D01*
X005963Y003896D02*
X009333Y003896D01*
X009347Y003835D02*
X009347Y003835D01*
X009310Y003994D02*
X005957Y003994D01*
X005859Y004093D02*
X009288Y004093D01*
X009274Y004151D02*
X009274Y004151D01*
X009284Y004191D02*
X005760Y004191D01*
X005662Y004290D02*
X005935Y004290D01*
X005910Y004308D02*
X005968Y004266D01*
X006031Y004234D01*
X006098Y004212D01*
X006168Y004201D01*
X006453Y004201D01*
X006453Y004601D01*
X005756Y004601D01*
X005765Y004546D01*
X005786Y004478D01*
X005819Y004415D01*
X005860Y004358D01*
X005910Y004308D01*
X005838Y004389D02*
X005563Y004389D01*
X005464Y004487D02*
X005784Y004487D01*
X005758Y004586D02*
X005366Y004586D01*
X005756Y004701D02*
X006453Y004701D01*
X006453Y004601D01*
X006553Y004601D01*
X006553Y004201D01*
X006839Y004201D01*
X006909Y004212D01*
X006976Y004234D01*
X007039Y004266D01*
X007097Y004308D01*
X007147Y004358D01*
X007188Y004415D01*
X007220Y004478D01*
X007242Y004546D01*
X007251Y004601D01*
X006554Y004601D01*
X006554Y004701D01*
X007251Y004701D01*
X007242Y004757D01*
X007220Y004824D01*
X007188Y004887D01*
X007147Y004944D01*
X007097Y004994D01*
X007039Y005036D01*
X006976Y005068D01*
X006909Y005090D01*
X006839Y005101D01*
X006553Y005101D01*
X006553Y004701D01*
X006453Y004701D01*
X006453Y005101D01*
X006168Y005101D01*
X006098Y005090D01*
X006031Y005068D01*
X005968Y005036D01*
X005910Y004994D01*
X005860Y004944D01*
X005819Y004887D01*
X005786Y004824D01*
X005765Y004757D01*
X005756Y004701D01*
X005773Y004783D02*
X004463Y004783D01*
X004463Y004881D02*
X005816Y004881D01*
X005896Y004980D02*
X004463Y004980D01*
X004463Y005078D02*
X006062Y005078D01*
X006453Y005078D02*
X006553Y005078D01*
X006553Y004980D02*
X006453Y004980D01*
X006453Y004881D02*
X006553Y004881D01*
X006553Y004783D02*
X006453Y004783D01*
X006453Y004684D02*
X004550Y004684D01*
X004525Y004093D02*
X005265Y004093D01*
X005363Y003994D02*
X004426Y003994D01*
X004453Y003601D02*
X004168Y003601D01*
X004098Y003590D01*
X004031Y003568D01*
X003968Y003536D01*
X003910Y003494D01*
X003860Y003444D01*
X003819Y003387D01*
X003786Y003324D01*
X003765Y003257D01*
X003756Y003201D01*
X004453Y003201D01*
X004453Y003601D01*
X004453Y003600D02*
X004553Y003600D01*
X004553Y003502D02*
X004453Y003502D01*
X004453Y003403D02*
X004553Y003403D01*
X004553Y003305D02*
X004453Y003305D01*
X004453Y003206D02*
X004553Y003206D01*
X004553Y002910D02*
X004453Y002910D01*
X004453Y002812D02*
X004553Y002812D01*
X004553Y002713D02*
X004453Y002713D01*
X004013Y002516D02*
X003153Y002516D01*
X003153Y002418D02*
X003890Y002418D01*
X003829Y002319D02*
X003153Y002319D01*
X003153Y002221D02*
X003793Y002221D01*
X003793Y002122D02*
X003153Y002122D01*
X003153Y002024D02*
X003813Y002024D01*
X003853Y001925D02*
X003153Y001925D01*
X003153Y001826D02*
X003948Y001826D01*
X003153Y001728D02*
X009432Y001728D01*
X009511Y001629D02*
X003153Y001629D01*
X003153Y001531D02*
X009654Y001531D01*
X009549Y001581D02*
X009549Y001581D01*
X010166Y001440D02*
X010166Y001440D01*
X010353Y001531D02*
X019846Y001531D01*
X019846Y001629D02*
X010496Y001629D01*
X010575Y001728D02*
X019846Y001728D01*
X019846Y001826D02*
X018759Y001826D01*
X018673Y001741D02*
X018913Y001981D01*
X018913Y002121D01*
X018534Y002121D01*
X018534Y002181D01*
X018913Y002181D01*
X018913Y002321D01*
X018673Y002561D01*
X018533Y002561D01*
X018533Y002181D01*
X018473Y002181D01*
X018473Y002121D01*
X018093Y002121D01*
X018093Y001981D01*
X018334Y001741D01*
X018473Y001741D01*
X018473Y002121D01*
X018533Y002121D01*
X018533Y001741D01*
X018673Y001741D01*
X018533Y001826D02*
X018473Y001826D01*
X018473Y001925D02*
X018533Y001925D01*
X018533Y002024D02*
X018473Y002024D01*
X018473Y002122D02*
X016034Y002122D01*
X016034Y002121D02*
X016034Y002181D01*
X016413Y002181D01*
X016413Y002321D01*
X016173Y002561D01*
X016033Y002561D01*
X016033Y002181D01*
X015973Y002181D01*
X015973Y002121D01*
X015593Y002121D01*
X015593Y001981D01*
X015834Y001741D01*
X015973Y001741D01*
X015973Y002121D01*
X016033Y002121D01*
X016033Y001741D01*
X016173Y001741D01*
X016413Y001981D01*
X016413Y002121D01*
X016034Y002121D01*
X015973Y002122D02*
X014534Y002122D01*
X014534Y002121D02*
X014534Y002181D01*
X014913Y002181D01*
X014913Y002321D01*
X014673Y002561D01*
X014533Y002561D01*
X014533Y002181D01*
X014473Y002181D01*
X014473Y002121D01*
X014093Y002121D01*
X014093Y001981D01*
X014334Y001741D01*
X014473Y001741D01*
X014473Y002121D01*
X014533Y002121D01*
X014533Y001741D01*
X014673Y001741D01*
X014913Y001981D01*
X014913Y002121D01*
X014534Y002121D01*
X014473Y002122D02*
X013034Y002122D01*
X013034Y002121D02*
X013034Y002181D01*
X013413Y002181D01*
X013413Y002321D01*
X013173Y002561D01*
X013033Y002561D01*
X013033Y002181D01*
X012973Y002181D01*
X012973Y002121D01*
X012593Y002121D01*
X012593Y001981D01*
X012834Y001741D01*
X012973Y001741D01*
X012973Y002121D01*
X013033Y002121D01*
X013033Y001741D01*
X013173Y001741D01*
X013413Y001981D01*
X013413Y002121D01*
X013034Y002121D01*
X012973Y002122D02*
X010726Y002122D01*
X010717Y002221D02*
X012593Y002221D01*
X012593Y002181D02*
X012973Y002181D01*
X012973Y002561D01*
X012834Y002561D01*
X012593Y002321D01*
X012593Y002181D01*
X012593Y002319D02*
X010694Y002319D01*
X010672Y002418D02*
X012690Y002418D01*
X012789Y002516D02*
X010621Y002516D01*
X010543Y002615D02*
X019846Y002615D01*
X019846Y002713D02*
X010464Y002713D01*
X010458Y002721D02*
X010458Y002721D01*
X010270Y002812D02*
X019846Y002812D01*
X019846Y002516D02*
X018718Y002516D01*
X018817Y002418D02*
X019846Y002418D01*
X019846Y002319D02*
X018913Y002319D01*
X018913Y002221D02*
X019846Y002221D01*
X019846Y002122D02*
X018534Y002122D01*
X018473Y002181D02*
X018093Y002181D01*
X018093Y002321D01*
X018334Y002561D01*
X018473Y002561D01*
X018473Y002181D01*
X018473Y002221D02*
X018533Y002221D01*
X018533Y002319D02*
X018473Y002319D01*
X018473Y002418D02*
X018533Y002418D01*
X018533Y002516D02*
X018473Y002516D01*
X018289Y002516D02*
X016218Y002516D01*
X016317Y002418D02*
X018190Y002418D01*
X018093Y002319D02*
X016413Y002319D01*
X016413Y002221D02*
X018093Y002221D01*
X018093Y002024D02*
X016413Y002024D01*
X016357Y001925D02*
X018150Y001925D01*
X018248Y001826D02*
X016259Y001826D01*
X016033Y001826D02*
X015973Y001826D01*
X015973Y001925D02*
X016033Y001925D01*
X016033Y002024D02*
X015973Y002024D01*
X015973Y002181D02*
X015593Y002181D01*
X015593Y002321D01*
X015834Y002561D01*
X015973Y002561D01*
X015973Y002181D01*
X015973Y002221D02*
X016033Y002221D01*
X016033Y002319D02*
X015973Y002319D01*
X015973Y002418D02*
X016033Y002418D01*
X016033Y002516D02*
X015973Y002516D01*
X015789Y002516D02*
X014718Y002516D01*
X014817Y002418D02*
X015690Y002418D01*
X015593Y002319D02*
X014913Y002319D01*
X014913Y002221D02*
X015593Y002221D01*
X015593Y002024D02*
X014913Y002024D01*
X014857Y001925D02*
X015650Y001925D01*
X015748Y001826D02*
X014759Y001826D01*
X014533Y001826D02*
X014473Y001826D01*
X014473Y001925D02*
X014533Y001925D01*
X014533Y002024D02*
X014473Y002024D01*
X014473Y002181D02*
X014093Y002181D01*
X014093Y002321D01*
X014334Y002561D01*
X014473Y002561D01*
X014473Y002181D01*
X014473Y002221D02*
X014533Y002221D01*
X014533Y002319D02*
X014473Y002319D01*
X014473Y002418D02*
X014533Y002418D01*
X014533Y002516D02*
X014473Y002516D01*
X014289Y002516D02*
X013218Y002516D01*
X013317Y002418D02*
X014190Y002418D01*
X014093Y002319D02*
X013413Y002319D01*
X013413Y002221D02*
X014093Y002221D01*
X014093Y002024D02*
X013413Y002024D01*
X013357Y001925D02*
X014150Y001925D01*
X014248Y001826D02*
X013259Y001826D01*
X013033Y001826D02*
X012973Y001826D01*
X012973Y001925D02*
X013033Y001925D01*
X013033Y002024D02*
X012973Y002024D01*
X012973Y002221D02*
X013033Y002221D01*
X013033Y002319D02*
X012973Y002319D01*
X012973Y002418D02*
X013033Y002418D01*
X013033Y002516D02*
X012973Y002516D01*
X012593Y002024D02*
X010703Y002024D01*
X010681Y001925D02*
X012650Y001925D01*
X012748Y001826D02*
X010654Y001826D01*
X010660Y001835D02*
X010660Y001835D01*
X009714Y003502D02*
X009679Y003502D01*
X009306Y004290D02*
X007072Y004290D01*
X007169Y004389D02*
X009329Y004389D01*
X009347Y004467D02*
X009347Y004467D01*
X009362Y004487D02*
X007223Y004487D01*
X007249Y004586D02*
X009441Y004586D01*
X009519Y004684D02*
X006554Y004684D01*
X006553Y004586D02*
X006453Y004586D01*
X006453Y004487D02*
X006553Y004487D01*
X006553Y004389D02*
X006453Y004389D01*
X006453Y004290D02*
X006553Y004290D01*
X007234Y004783D02*
X009677Y004783D01*
X009549Y004721D02*
X009549Y004721D01*
X009549Y004721D01*
X009793Y004881D02*
X007191Y004881D01*
X007111Y004980D02*
X009793Y004980D01*
X009793Y005078D02*
X006945Y005078D01*
X006553Y005275D02*
X006453Y005275D01*
X006453Y005374D02*
X006553Y005374D01*
X006553Y005473D02*
X006453Y005473D01*
X006453Y005571D02*
X006553Y005571D01*
X006553Y005867D02*
X006453Y005867D01*
X006453Y005965D02*
X006553Y005965D01*
X006553Y006064D02*
X006453Y006064D01*
X008473Y006359D02*
X008533Y006359D01*
X008533Y006458D02*
X008473Y006458D01*
X008473Y006556D02*
X008533Y006556D01*
X008533Y006655D02*
X008473Y006655D01*
X008912Y011287D02*
X009571Y011287D01*
X009473Y011385D02*
X009011Y011385D01*
X007754Y011878D02*
X006713Y011878D01*
X006713Y011976D02*
X007655Y011976D01*
X007633Y012075D02*
X006713Y012075D01*
X006713Y012173D02*
X007633Y012173D01*
X007633Y012272D02*
X006713Y012272D01*
X006713Y012371D02*
X007700Y012371D01*
X007793Y012469D02*
X006713Y012469D01*
X006713Y012568D02*
X007790Y012568D01*
X007691Y012666D02*
X006713Y012666D01*
X006713Y012765D02*
X007593Y012765D01*
X007494Y012863D02*
X006713Y012863D01*
X006713Y012962D02*
X007396Y012962D01*
X007297Y013060D02*
X006713Y013060D01*
X006713Y013159D02*
X007293Y013159D01*
X007293Y013257D02*
X006713Y013257D01*
X006713Y013356D02*
X007293Y013356D01*
X007293Y013455D02*
X006713Y013455D01*
X006713Y013553D02*
X007293Y013553D01*
X007293Y013652D02*
X006713Y013652D01*
X006713Y013750D02*
X007293Y013750D01*
X007293Y013849D02*
X006724Y013849D01*
X006823Y013947D02*
X007293Y013947D01*
X007293Y014046D02*
X006873Y014046D01*
X006873Y014144D02*
X007293Y014144D01*
X007293Y014243D02*
X006873Y014243D01*
X006836Y014341D02*
X007293Y014341D01*
X007713Y013553D02*
X009608Y013553D01*
X009510Y013455D02*
X007713Y013455D01*
X007713Y013356D02*
X009411Y013356D01*
X009313Y013257D02*
X007713Y013257D01*
X007793Y013159D02*
X009214Y013159D01*
X009116Y013060D02*
X007891Y013060D01*
X007990Y012962D02*
X009017Y012962D01*
X008919Y012863D02*
X008088Y012863D01*
X006293Y012173D02*
X005713Y012173D01*
X005713Y012075D02*
X006293Y012075D01*
X006293Y011976D02*
X005713Y011976D01*
X005713Y011878D02*
X006293Y011878D01*
X006293Y011779D02*
X005713Y011779D01*
X005713Y011681D02*
X006293Y011681D01*
X006293Y011582D02*
X005713Y011582D01*
X005713Y011484D02*
X006293Y011484D01*
X005293Y011484D02*
X005222Y011484D01*
X005248Y011582D02*
X005293Y011582D01*
X005293Y011385D02*
X005166Y011385D01*
X005067Y011287D02*
X005293Y011287D01*
X004553Y011287D02*
X004453Y011287D01*
X004453Y011385D02*
X004553Y011385D01*
X004553Y011484D02*
X004453Y011484D01*
X004453Y011582D02*
X004553Y011582D01*
X004553Y011878D02*
X004453Y011878D01*
X004453Y011976D02*
X004553Y011976D01*
X004553Y012075D02*
X004453Y012075D01*
X003892Y011976D02*
X003153Y011976D01*
X003153Y011878D02*
X003814Y011878D01*
X003772Y011779D02*
X003153Y011779D01*
X003153Y010695D02*
X003968Y010695D01*
X003869Y010597D02*
X003153Y010597D01*
X003153Y010498D02*
X003843Y010498D01*
X003843Y010400D02*
X003153Y010400D01*
X003153Y010301D02*
X003843Y010301D01*
X003872Y010203D02*
X003153Y010203D01*
X003153Y010104D02*
X003971Y010104D01*
X004069Y010006D02*
X003153Y010006D01*
X003153Y013257D02*
X004083Y013257D01*
X003919Y013356D02*
X003153Y013356D01*
X003153Y013455D02*
X003841Y013455D01*
X003800Y013553D02*
X003153Y013553D01*
X003153Y013652D02*
X003793Y013652D01*
X003801Y013750D02*
X003153Y013750D01*
X003153Y013849D02*
X003842Y013849D01*
X003920Y013947D02*
X003153Y013947D01*
X003153Y014046D02*
X004085Y014046D01*
X004922Y014046D02*
X005293Y014046D01*
X005293Y014144D02*
X003153Y014144D01*
X003153Y014243D02*
X005293Y014243D01*
X005293Y014341D02*
X003153Y014341D01*
X003153Y014440D02*
X005293Y014440D01*
X005293Y014539D02*
X003153Y014539D01*
X003153Y014637D02*
X005221Y014637D01*
X005293Y013947D02*
X005087Y013947D01*
X005165Y013849D02*
X005293Y013849D01*
X005293Y013750D02*
X005206Y013750D01*
X005213Y013652D02*
X005293Y013652D01*
X005293Y013553D02*
X005207Y013553D01*
X005166Y013455D02*
X005293Y013455D01*
X005293Y013356D02*
X005088Y013356D01*
X004559Y015425D02*
X006932Y015425D01*
X006834Y015524D02*
X004463Y015524D01*
X004463Y015622D02*
X006270Y015622D01*
X006215Y015721D02*
X004463Y015721D01*
X004463Y015820D02*
X006215Y015820D01*
X006215Y015918D02*
X004463Y015918D01*
X004463Y016017D02*
X006215Y016017D01*
X006215Y016115D02*
X004463Y016115D01*
X004463Y016214D02*
X007394Y016214D01*
X007295Y016312D02*
X004463Y016312D01*
X004463Y016411D02*
X007293Y016411D01*
X007293Y016509D02*
X004463Y016509D01*
X004463Y016608D02*
X007293Y016608D01*
X007293Y016706D02*
X004463Y016706D01*
X004463Y016805D02*
X006270Y016805D01*
X006171Y016904D02*
X004463Y016904D01*
X004463Y017002D02*
X006093Y017002D01*
X006093Y017101D02*
X004463Y017101D01*
X004463Y017199D02*
X006093Y017199D01*
X006093Y017298D02*
X004463Y017298D01*
X004463Y017396D02*
X006169Y017396D01*
X006267Y017495D02*
X004463Y017495D01*
X006721Y018480D02*
X012043Y018480D01*
X012043Y018382D02*
X006820Y018382D01*
X006918Y018283D02*
X012043Y018283D01*
X012043Y018185D02*
X007017Y018185D01*
X007116Y018086D02*
X012043Y018086D01*
X012043Y017988D02*
X007214Y017988D01*
X007313Y017889D02*
X012043Y017889D01*
X012463Y017889D02*
X013661Y017889D01*
X013593Y017790D02*
X012463Y017790D01*
X012463Y017692D02*
X013593Y017692D01*
X013593Y017593D02*
X012463Y017593D01*
X012463Y017495D02*
X013593Y017495D01*
X013679Y017396D02*
X012463Y017396D01*
X012463Y017298D02*
X013777Y017298D01*
X013793Y017199D02*
X012463Y017199D01*
X012463Y017101D02*
X013793Y017101D01*
X013793Y017002D02*
X012463Y017002D01*
X012463Y016904D02*
X013793Y016904D01*
X013793Y016805D02*
X012463Y016805D01*
X012463Y016706D02*
X013762Y016706D01*
X013663Y016608D02*
X012463Y016608D01*
X012463Y016509D02*
X013565Y016509D01*
X013466Y016411D02*
X012463Y016411D01*
X012463Y016312D02*
X013368Y016312D01*
X013269Y016214D02*
X012463Y016214D01*
X012463Y016115D02*
X013171Y016115D01*
X013072Y016017D02*
X012463Y016017D01*
X012463Y015918D02*
X012973Y015918D01*
X012875Y015820D02*
X012463Y015820D01*
X012370Y015721D02*
X012793Y015721D01*
X012793Y015622D02*
X012272Y015622D01*
X012173Y015524D02*
X012793Y015524D01*
X012793Y015425D02*
X012075Y015425D01*
X011976Y015327D02*
X012793Y015327D01*
X012793Y015228D02*
X011878Y015228D01*
X011779Y015130D02*
X012793Y015130D01*
X012793Y015031D02*
X011713Y015031D01*
X011713Y014933D02*
X012793Y014933D01*
X012793Y014834D02*
X011713Y014834D01*
X011713Y014736D02*
X012793Y014736D01*
X012793Y014637D02*
X011713Y014637D01*
X011713Y014539D02*
X012793Y014539D01*
X012793Y014440D02*
X011713Y014440D01*
X011713Y014341D02*
X012793Y014341D01*
X012793Y014243D02*
X011713Y014243D01*
X011713Y014144D02*
X012793Y014144D01*
X012793Y014046D02*
X011713Y014046D01*
X011731Y013947D02*
X012793Y013947D01*
X012793Y013849D02*
X011829Y013849D01*
X011873Y013750D02*
X012793Y013750D01*
X012793Y013652D02*
X011873Y013652D01*
X011873Y013553D02*
X012793Y013553D01*
X012793Y013455D02*
X011830Y013455D01*
X011731Y013356D02*
X012793Y013356D01*
X014278Y014046D02*
X014729Y014046D01*
X014645Y014144D02*
X014362Y014144D01*
X014402Y014243D02*
X014605Y014243D01*
X014593Y014341D02*
X014413Y014341D01*
X014413Y014440D02*
X014593Y014440D01*
X014593Y014539D02*
X014413Y014539D01*
X014413Y014637D02*
X014593Y014637D01*
X014593Y014736D02*
X014413Y014736D01*
X014413Y014834D02*
X014593Y014834D01*
X014593Y014933D02*
X014413Y014933D01*
X014413Y015031D02*
X014593Y015031D01*
X014634Y015130D02*
X014373Y015130D01*
X014306Y015228D02*
X014701Y015228D01*
X014839Y015327D02*
X014168Y015327D01*
X013764Y016115D02*
X019043Y016115D01*
X019043Y016017D02*
X013666Y016017D01*
X013567Y015918D02*
X019043Y015918D01*
X019043Y015820D02*
X013469Y015820D01*
X013370Y015721D02*
X019043Y015721D01*
X019043Y015622D02*
X013272Y015622D01*
X013213Y015524D02*
X019043Y015524D01*
X019043Y016214D02*
X013863Y016214D01*
X013962Y016312D02*
X019043Y016312D01*
X019043Y016411D02*
X014060Y016411D01*
X014159Y016509D02*
X019043Y016509D01*
X019043Y016608D02*
X014213Y016608D01*
X014213Y016706D02*
X019043Y016706D01*
X019043Y016805D02*
X017982Y016805D01*
X017825Y016805D02*
X017182Y016805D01*
X017025Y016805D02*
X014213Y016805D01*
X014213Y016904D02*
X016856Y016904D01*
X016786Y017002D02*
X016331Y017002D01*
X016413Y017085D02*
X016413Y017085D01*
X016429Y017101D02*
X016753Y017101D01*
X016753Y017199D02*
X016528Y017199D01*
X016626Y017298D02*
X016785Y017298D01*
X016725Y017396D02*
X016854Y017396D01*
X016753Y017651D02*
X017253Y017651D01*
X017039Y017811D02*
X016687Y017811D01*
X016593Y017717D01*
X016187Y017311D01*
X015300Y017311D01*
X015453Y017465D01*
X015453Y017601D01*
X015054Y017601D01*
X015054Y017701D01*
X015453Y017701D01*
X015453Y017838D01*
X015300Y017991D01*
X015715Y017991D01*
X015715Y017927D01*
X015780Y017863D01*
X016227Y017863D01*
X016292Y017927D01*
X016292Y018375D01*
X016265Y018401D01*
X016292Y018427D01*
X016292Y018491D01*
X017039Y018491D01*
X017103Y018427D01*
X017112Y018423D01*
X017109Y018421D01*
X017059Y018388D01*
X017017Y018346D01*
X016983Y018296D01*
X016960Y018240D01*
X016948Y018181D01*
X016948Y018179D01*
X017203Y018179D01*
X017203Y018124D01*
X016948Y018124D01*
X016948Y018121D01*
X016960Y018062D01*
X016983Y018007D01*
X017017Y017957D01*
X017059Y017914D01*
X017109Y017881D01*
X017112Y017880D01*
X017103Y017876D01*
X017039Y017811D01*
X017097Y017889D02*
X016253Y017889D01*
X016292Y017988D02*
X016996Y017988D01*
X016955Y018086D02*
X016292Y018086D01*
X016292Y018185D02*
X016949Y018185D01*
X016978Y018283D02*
X016292Y018283D01*
X016285Y018382D02*
X017053Y018382D01*
X017050Y018480D02*
X016292Y018480D01*
X016003Y018651D02*
X017253Y018651D01*
X017102Y018874D02*
X016292Y018874D01*
X016003Y019151D02*
X017253Y019151D01*
X017057Y018973D02*
X015261Y018973D01*
X015360Y018874D02*
X015715Y018874D01*
X015715Y018776D02*
X015413Y018776D01*
X015413Y018677D02*
X015715Y018677D01*
X015715Y018579D02*
X015413Y018579D01*
X015412Y018480D02*
X015715Y018480D01*
X015722Y018382D02*
X015314Y018382D01*
X015303Y017988D02*
X015715Y017988D01*
X015754Y017889D02*
X015402Y017889D01*
X015453Y017790D02*
X016666Y017790D01*
X016593Y017717D02*
X016593Y017717D01*
X016568Y017692D02*
X015054Y017692D01*
X015003Y017651D02*
X016253Y017651D01*
X016753Y018151D01*
X017253Y018151D01*
X016753Y017651D02*
X016253Y017151D01*
X014003Y017151D01*
X014243Y017311D02*
X014413Y017481D01*
X014413Y017821D01*
X014243Y017991D01*
X014707Y017991D01*
X014553Y017838D01*
X014553Y017701D01*
X014953Y017701D01*
X014953Y017601D01*
X014553Y017601D01*
X014553Y017465D01*
X014707Y017311D01*
X014243Y017311D01*
X014328Y017396D02*
X014622Y017396D01*
X014553Y017495D02*
X014413Y017495D01*
X014413Y017593D02*
X014553Y017593D01*
X014413Y017692D02*
X014953Y017692D01*
X014703Y017988D02*
X014247Y017988D01*
X014345Y017889D02*
X014605Y017889D01*
X014553Y017790D02*
X014413Y017790D01*
X014253Y018151D02*
X016003Y018151D01*
X016469Y017593D02*
X015453Y017593D01*
X015453Y017495D02*
X016371Y017495D01*
X016272Y017396D02*
X015385Y017396D01*
X014253Y018151D02*
X014003Y018401D01*
X014003Y018651D01*
X013593Y018677D02*
X012463Y018677D01*
X012463Y018579D02*
X013593Y018579D01*
X013595Y018480D02*
X012463Y018480D01*
X012463Y018382D02*
X013693Y018382D01*
X013792Y018283D02*
X012463Y018283D01*
X012463Y018185D02*
X013994Y018185D01*
X014092Y018086D02*
X012463Y018086D01*
X012463Y017988D02*
X013760Y017988D01*
X013593Y018776D02*
X012463Y018776D01*
X012463Y018874D02*
X013647Y018874D01*
X014299Y019367D02*
X014708Y019367D01*
X014683Y019269D02*
X014806Y019269D01*
X014782Y019170D02*
X015758Y019170D01*
X015660Y019269D02*
X015201Y019269D01*
X015299Y019367D02*
X015561Y019367D01*
X015463Y019466D02*
X015398Y019466D01*
X015503Y019651D02*
X016003Y019151D01*
X015857Y019071D02*
X014880Y019071D01*
X014609Y019466D02*
X014398Y019466D01*
X014413Y019564D02*
X014593Y019564D01*
X014593Y019663D02*
X014413Y019663D01*
X014413Y019761D02*
X014593Y019761D01*
X014632Y019860D02*
X014375Y019860D01*
X014276Y019958D02*
X014731Y019958D01*
X014793Y020057D02*
X014177Y020057D01*
X014793Y020353D02*
X009502Y020353D01*
X009643Y020254D02*
X010364Y020254D01*
X010430Y020281D02*
X010294Y020225D01*
X010190Y020121D01*
X010133Y019985D01*
X010133Y019318D01*
X010190Y019182D01*
X010294Y019078D01*
X010430Y019021D01*
X010577Y019021D01*
X010713Y019078D01*
X010817Y019182D01*
X010873Y019318D01*
X010873Y019985D01*
X010817Y020121D01*
X010713Y020225D01*
X010577Y020281D01*
X010430Y020281D01*
X010643Y020254D02*
X011364Y020254D01*
X011225Y020155D02*
X010782Y020155D01*
X010844Y020057D02*
X011163Y020057D01*
X011133Y019958D02*
X010873Y019958D01*
X010873Y019860D02*
X011133Y019860D01*
X011133Y019761D02*
X010873Y019761D01*
X010873Y019663D02*
X011133Y019663D01*
X011133Y019564D02*
X010873Y019564D01*
X010873Y019466D02*
X011133Y019466D01*
X011133Y019367D02*
X010873Y019367D01*
X010853Y019269D02*
X011154Y019269D01*
X011201Y019170D02*
X010806Y019170D01*
X010698Y019071D02*
X011308Y019071D01*
X012043Y018874D02*
X006750Y018874D01*
X006713Y018776D02*
X012043Y018776D01*
X012043Y018677D02*
X006713Y018677D01*
X006713Y018579D02*
X012043Y018579D01*
X011212Y017199D02*
X010739Y017199D01*
X010713Y017225D02*
X010577Y017281D01*
X010430Y017281D01*
X010294Y017225D01*
X010190Y017121D01*
X010133Y016985D01*
X010133Y016318D01*
X010190Y016182D01*
X010294Y016078D01*
X010430Y016021D01*
X010577Y016021D01*
X010713Y016078D01*
X010817Y016182D01*
X010873Y016318D01*
X010873Y016985D01*
X010817Y017121D01*
X010713Y017225D01*
X010825Y017101D02*
X011140Y017101D01*
X011103Y017002D02*
X010866Y017002D01*
X010873Y016904D02*
X011093Y016904D01*
X011093Y016805D02*
X010873Y016805D01*
X010873Y016706D02*
X011093Y016706D01*
X011093Y016608D02*
X010873Y016608D01*
X010873Y016509D02*
X011093Y016509D01*
X011093Y016411D02*
X010873Y016411D01*
X010871Y016312D02*
X011101Y016312D01*
X011134Y016214D02*
X010830Y016214D01*
X010751Y016115D02*
X011200Y016115D01*
X010256Y016115D02*
X009751Y016115D01*
X009713Y016078D02*
X009817Y016182D01*
X009873Y016318D01*
X009873Y016985D01*
X009817Y017121D01*
X009713Y017225D01*
X009577Y017281D01*
X009430Y017281D01*
X009294Y017225D01*
X009190Y017121D01*
X009133Y016985D01*
X009133Y016318D01*
X009190Y016182D01*
X009294Y016078D01*
X009430Y016021D01*
X009577Y016021D01*
X009713Y016078D01*
X009830Y016214D02*
X010176Y016214D01*
X010136Y016312D02*
X009871Y016312D01*
X009873Y016411D02*
X010133Y016411D01*
X010133Y016509D02*
X009873Y016509D01*
X009873Y016608D02*
X010133Y016608D01*
X010133Y016706D02*
X009873Y016706D01*
X009873Y016805D02*
X010133Y016805D01*
X010133Y016904D02*
X009873Y016904D01*
X009866Y017002D02*
X010141Y017002D01*
X010181Y017101D02*
X009825Y017101D01*
X009739Y017199D02*
X010268Y017199D01*
X009268Y017199D02*
X008739Y017199D01*
X008825Y017101D02*
X009181Y017101D01*
X009141Y017002D02*
X008866Y017002D01*
X008873Y016904D02*
X009133Y016904D01*
X009133Y016805D02*
X008873Y016805D01*
X008873Y016706D02*
X009133Y016706D01*
X009133Y016608D02*
X008873Y016608D01*
X008873Y016509D02*
X009133Y016509D01*
X009133Y016411D02*
X008873Y016411D01*
X008871Y016312D02*
X009136Y016312D01*
X009176Y016214D02*
X008830Y016214D01*
X008751Y016115D02*
X009256Y016115D01*
X008759Y015918D02*
X008283Y015918D01*
X007985Y015622D02*
X007329Y015622D01*
X007428Y015524D02*
X008084Y015524D01*
X007887Y015721D02*
X007231Y015721D01*
X007132Y015820D02*
X007788Y015820D01*
X007690Y015918D02*
X007033Y015918D01*
X006935Y016017D02*
X007591Y016017D01*
X007492Y016115D02*
X006792Y016115D01*
X007526Y015425D02*
X008717Y015425D01*
X008698Y019071D02*
X009308Y019071D01*
X009201Y019170D02*
X008806Y019170D01*
X008853Y019269D02*
X009154Y019269D01*
X009133Y019367D02*
X008873Y019367D01*
X008873Y019466D02*
X009133Y019466D01*
X009133Y019564D02*
X008873Y019564D01*
X008873Y019663D02*
X009133Y019663D01*
X009133Y019761D02*
X008911Y019761D01*
X009009Y019860D02*
X009133Y019860D01*
X009133Y019958D02*
X009108Y019958D01*
X008809Y020254D02*
X008643Y020254D01*
X008679Y020747D02*
X009302Y020747D01*
X009401Y020845D02*
X008777Y020845D01*
X008533Y020845D02*
X008473Y020845D01*
X008473Y020747D02*
X008533Y020747D01*
X008533Y020944D02*
X008473Y020944D01*
X008473Y021042D02*
X008533Y021042D01*
X008913Y021239D02*
X012045Y021239D01*
X011847Y021831D02*
X019043Y021831D01*
X019043Y021929D02*
X011749Y021929D01*
X011293Y021338D02*
X010214Y021338D01*
X010312Y021437D02*
X011195Y021437D01*
X011133Y021535D02*
X010373Y021535D01*
X010373Y021634D02*
X011133Y021634D01*
X011125Y021732D02*
X010373Y021732D01*
X010347Y021831D02*
X011027Y021831D01*
X010928Y021929D02*
X010249Y021929D01*
X010633Y022225D02*
X005713Y022225D01*
X005713Y022323D02*
X010534Y022323D01*
X010436Y022422D02*
X005713Y022422D01*
X005713Y022521D02*
X010337Y022521D01*
X010239Y022619D02*
X005713Y022619D01*
X005713Y022718D02*
X010140Y022718D01*
X010041Y022816D02*
X008248Y022816D01*
X008173Y022741D02*
X008033Y022741D01*
X008033Y023121D01*
X007973Y023121D01*
X007593Y023121D01*
X007593Y022981D01*
X007834Y022741D01*
X007973Y022741D01*
X007973Y023121D01*
X007973Y023181D01*
X007593Y023181D01*
X007593Y023321D01*
X007834Y023561D01*
X007973Y023561D01*
X007973Y023181D01*
X008033Y023181D01*
X008033Y023561D01*
X008173Y023561D01*
X008413Y023321D01*
X008413Y023181D01*
X008034Y023181D01*
X008034Y023121D01*
X008413Y023121D01*
X008413Y022981D01*
X008173Y022741D01*
X008033Y022816D02*
X007973Y022816D01*
X007973Y022915D02*
X008033Y022915D01*
X008033Y023013D02*
X007973Y023013D01*
X007973Y023112D02*
X008033Y023112D01*
X008033Y023210D02*
X007973Y023210D01*
X007973Y023309D02*
X008033Y023309D01*
X008033Y023407D02*
X007973Y023407D01*
X007973Y023506D02*
X008033Y023506D01*
X008228Y023506D02*
X008383Y023506D01*
X008383Y023604D02*
X005597Y023604D01*
X005590Y023611D02*
X005340Y023861D01*
X005166Y023861D01*
X005160Y023861D01*
X005151Y023883D01*
X005036Y023999D01*
X007633Y023999D01*
X007633Y023998D02*
X007850Y023781D01*
X008157Y023781D01*
X008373Y023998D01*
X008373Y024304D01*
X008237Y024441D01*
X008916Y024441D01*
X009090Y024441D01*
X009930Y025281D01*
X010157Y025281D01*
X010373Y025498D01*
X010373Y025804D01*
X010157Y026021D01*
X009850Y026021D01*
X009633Y025804D01*
X009633Y025578D01*
X008916Y024861D01*
X008090Y024861D01*
X007916Y024861D01*
X005160Y024861D01*
X005151Y024883D01*
X005036Y024999D01*
X004885Y025061D01*
X004122Y025061D01*
X003971Y024999D01*
X003856Y024883D01*
X003793Y024733D01*
X003793Y024570D01*
X003856Y024419D01*
X003971Y024304D01*
X004122Y024241D01*
X004885Y024241D01*
X005036Y024304D01*
X005151Y024419D01*
X005160Y024441D01*
X007770Y024441D01*
X007633Y024304D01*
X007633Y023998D01*
X007633Y024097D02*
X003153Y024097D01*
X003153Y023999D02*
X003971Y023999D01*
X003856Y023883D01*
X003793Y023733D01*
X003793Y023570D01*
X003856Y023419D01*
X003971Y023304D01*
X004122Y023241D01*
X004885Y023241D01*
X005036Y023304D01*
X005151Y023419D01*
X005160Y023441D01*
X005166Y023441D01*
X005293Y023314D01*
X005293Y021488D01*
X005166Y021361D01*
X004623Y021361D01*
X004423Y021561D01*
X004084Y021561D01*
X003843Y021321D01*
X003843Y020981D01*
X004084Y020741D01*
X004423Y020741D01*
X004623Y020941D01*
X005340Y020941D01*
X005463Y021064D01*
X005713Y021314D01*
X005713Y021488D01*
X005713Y023488D01*
X005590Y023611D01*
X005499Y023703D02*
X008383Y023703D01*
X008383Y023802D02*
X008177Y023802D01*
X008276Y023900D02*
X008479Y023900D01*
X008578Y023999D02*
X008373Y023999D01*
X008373Y024097D02*
X012293Y024097D01*
X012293Y023999D02*
X008929Y023999D01*
X009028Y023900D02*
X012293Y023900D01*
X012293Y023802D02*
X009650Y023802D01*
X009749Y023703D02*
X012293Y023703D01*
X012293Y023604D02*
X009847Y023604D01*
X009946Y023506D02*
X012293Y023506D01*
X012293Y023407D02*
X010044Y023407D01*
X010143Y023309D02*
X012293Y023309D01*
X012289Y023210D02*
X010241Y023210D01*
X010340Y023112D02*
X012191Y023112D01*
X012133Y023013D02*
X010438Y023013D01*
X010537Y022915D02*
X012133Y022915D01*
X012133Y022816D02*
X010635Y022816D01*
X010734Y022718D02*
X012164Y022718D01*
X012262Y022619D02*
X010833Y022619D01*
X010731Y022126D02*
X005713Y022126D01*
X005713Y022028D02*
X010830Y022028D01*
X009943Y022915D02*
X008347Y022915D01*
X008413Y023013D02*
X009844Y023013D01*
X009746Y023112D02*
X008413Y023112D01*
X008413Y023210D02*
X009647Y023210D01*
X009549Y023309D02*
X008934Y023309D01*
X009033Y023407D02*
X009450Y023407D01*
X008573Y023309D02*
X008413Y023309D01*
X008474Y023407D02*
X008327Y023407D01*
X007778Y023506D02*
X005696Y023506D01*
X005713Y023407D02*
X007680Y023407D01*
X007593Y023309D02*
X005713Y023309D01*
X005713Y023210D02*
X007593Y023210D01*
X007593Y023112D02*
X005713Y023112D01*
X005713Y023013D02*
X007593Y023013D01*
X007660Y022915D02*
X005713Y022915D01*
X005713Y022816D02*
X007759Y022816D01*
X007830Y023802D02*
X005400Y023802D01*
X005134Y023900D02*
X007731Y023900D01*
X007633Y024196D02*
X003153Y024196D01*
X003153Y024294D02*
X003994Y024294D01*
X003882Y024393D02*
X003153Y024393D01*
X003153Y024491D02*
X003826Y024491D01*
X003793Y024590D02*
X003153Y024590D01*
X003153Y024688D02*
X003793Y024688D01*
X003816Y024787D02*
X003153Y024787D01*
X003153Y024886D02*
X003858Y024886D01*
X003957Y024984D02*
X003153Y024984D01*
X003153Y025083D02*
X009138Y025083D01*
X009237Y025181D02*
X003153Y025181D01*
X003153Y025280D02*
X009335Y025280D01*
X009434Y025378D02*
X003153Y025378D01*
X003153Y025477D02*
X009532Y025477D01*
X009631Y025575D02*
X003153Y025575D01*
X003153Y025674D02*
X009633Y025674D01*
X009633Y025772D02*
X008705Y025772D01*
X008673Y025741D02*
X008913Y025981D01*
X008913Y026121D01*
X008534Y026121D01*
X008534Y026181D01*
X008913Y026181D01*
X008913Y026321D01*
X008673Y026561D01*
X008533Y026561D01*
X008533Y026181D01*
X008473Y026181D01*
X008473Y026121D01*
X008093Y026121D01*
X008093Y025981D01*
X008334Y025741D01*
X008473Y025741D01*
X008473Y026121D01*
X008533Y026121D01*
X008533Y025741D01*
X008673Y025741D01*
X008533Y025772D02*
X008473Y025772D01*
X008473Y025871D02*
X008533Y025871D01*
X008533Y025970D02*
X008473Y025970D01*
X008473Y026068D02*
X008533Y026068D01*
X008534Y026167D02*
X016793Y026167D01*
X016794Y026068D02*
X008913Y026068D01*
X008902Y025970D02*
X009799Y025970D01*
X009700Y025871D02*
X008803Y025871D01*
X008913Y026265D02*
X016807Y026265D01*
X016848Y026364D02*
X008871Y026364D01*
X008772Y026462D02*
X016935Y026462D01*
X017121Y026561D02*
X008674Y026561D01*
X008533Y026561D02*
X008473Y026561D01*
X008334Y026561D01*
X008093Y026321D01*
X008093Y026181D01*
X008473Y026181D01*
X008473Y026561D01*
X008473Y026462D02*
X008533Y026462D01*
X008533Y026364D02*
X008473Y026364D01*
X008473Y026265D02*
X008533Y026265D01*
X008473Y026167D02*
X006873Y026167D01*
X006873Y026265D02*
X008093Y026265D01*
X008136Y026364D02*
X006814Y026364D01*
X006873Y026304D02*
X006657Y026521D01*
X006350Y026521D01*
X006133Y026304D01*
X006133Y025998D01*
X006350Y025781D01*
X006657Y025781D01*
X006873Y025998D01*
X006873Y026304D01*
X006716Y026462D02*
X008235Y026462D01*
X008333Y026561D02*
X003153Y026561D01*
X003153Y026462D02*
X006291Y026462D01*
X006193Y026364D02*
X003153Y026364D01*
X003153Y026265D02*
X006133Y026265D01*
X006133Y026167D02*
X003153Y026167D01*
X003153Y026068D02*
X006133Y026068D01*
X006162Y025970D02*
X003153Y025970D01*
X003153Y025871D02*
X006260Y025871D01*
X006746Y025871D02*
X008204Y025871D01*
X008302Y025772D02*
X003153Y025772D01*
X003971Y023999D02*
X004122Y024061D01*
X004885Y024061D01*
X005036Y023999D01*
X005013Y024294D02*
X007633Y024294D01*
X007722Y024393D02*
X005125Y024393D01*
X005149Y024886D02*
X008941Y024886D01*
X009039Y024984D02*
X005050Y024984D01*
X005139Y023407D02*
X005200Y023407D01*
X005293Y023309D02*
X005041Y023309D01*
X004976Y023068D02*
X004909Y023090D01*
X004839Y023101D01*
X004553Y023101D01*
X004553Y022701D01*
X004453Y022701D01*
X004453Y022601D01*
X003756Y022601D01*
X003765Y022546D01*
X003786Y022478D01*
X003819Y022415D01*
X003860Y022358D01*
X003910Y022308D01*
X003968Y022266D01*
X004031Y022234D01*
X004098Y022212D01*
X004168Y022201D01*
X004453Y022201D01*
X004453Y022601D01*
X004553Y022601D01*
X004553Y022201D01*
X004839Y022201D01*
X004909Y022212D01*
X004976Y022234D01*
X005039Y022266D01*
X005097Y022308D01*
X005147Y022358D01*
X005188Y022415D01*
X005220Y022478D01*
X005242Y022546D01*
X005251Y022601D01*
X004554Y022601D01*
X004554Y022701D01*
X005251Y022701D01*
X005242Y022757D01*
X005220Y022824D01*
X005188Y022887D01*
X005147Y022944D01*
X005097Y022994D01*
X005039Y023036D01*
X004976Y023068D01*
X005071Y023013D02*
X005293Y023013D01*
X005293Y022915D02*
X005168Y022915D01*
X005223Y022816D02*
X005293Y022816D01*
X005293Y022718D02*
X005249Y022718D01*
X005293Y022619D02*
X004554Y022619D01*
X004553Y022521D02*
X004453Y022521D01*
X004453Y022619D02*
X003153Y022619D01*
X003153Y022521D02*
X003773Y022521D01*
X003815Y022422D02*
X003153Y022422D01*
X003153Y022323D02*
X003895Y022323D01*
X004059Y022225D02*
X003153Y022225D01*
X003153Y022126D02*
X005293Y022126D01*
X005293Y022028D02*
X003153Y022028D01*
X003153Y021929D02*
X005293Y021929D01*
X005293Y021831D02*
X003153Y021831D01*
X003153Y021732D02*
X005293Y021732D01*
X005293Y021634D02*
X003153Y021634D01*
X003153Y021535D02*
X004058Y021535D01*
X003959Y021437D02*
X003153Y021437D01*
X003153Y021338D02*
X003860Y021338D01*
X003843Y021239D02*
X003153Y021239D01*
X003153Y021141D02*
X003843Y021141D01*
X003843Y021042D02*
X003153Y021042D01*
X003153Y020944D02*
X003881Y020944D01*
X003980Y020845D02*
X003153Y020845D01*
X003153Y020747D02*
X004078Y020747D01*
X004429Y020747D02*
X007293Y020747D01*
X007293Y020845D02*
X006721Y020845D01*
X006657Y020781D02*
X006873Y020998D01*
X006873Y021304D01*
X006657Y021521D01*
X006350Y021521D01*
X006133Y021304D01*
X006133Y020998D01*
X006350Y020781D01*
X006657Y020781D01*
X006819Y020944D02*
X007293Y020944D01*
X007293Y021042D02*
X006873Y021042D01*
X006873Y021141D02*
X007293Y021141D01*
X007293Y021239D02*
X006873Y021239D01*
X006840Y021338D02*
X007293Y021338D01*
X007293Y021437D02*
X006741Y021437D01*
X006266Y021437D02*
X005713Y021437D01*
X005713Y021535D02*
X007340Y021535D01*
X007439Y021634D02*
X005713Y021634D01*
X005713Y021732D02*
X007537Y021732D01*
X007636Y021831D02*
X005713Y021831D01*
X005713Y021929D02*
X009758Y021929D01*
X009695Y021437D02*
X008798Y021437D01*
X008896Y021338D02*
X009793Y021338D01*
X009782Y020155D02*
X010225Y020155D01*
X010163Y020057D02*
X009844Y020057D01*
X009873Y019958D02*
X010133Y019958D01*
X010133Y019860D02*
X009873Y019860D01*
X009873Y019761D02*
X010133Y019761D01*
X010133Y019663D02*
X009873Y019663D01*
X009873Y019564D02*
X010133Y019564D01*
X010133Y019466D02*
X009873Y019466D01*
X009873Y019367D02*
X010133Y019367D01*
X010154Y019269D02*
X009853Y019269D01*
X009806Y019170D02*
X010201Y019170D01*
X010308Y019071D02*
X009698Y019071D01*
X008093Y021239D02*
X007713Y021239D01*
X007737Y021338D02*
X008111Y021338D01*
X008209Y021437D02*
X007836Y021437D01*
X007204Y020648D02*
X003153Y020648D01*
X004527Y020845D02*
X006286Y020845D01*
X006188Y020944D02*
X005343Y020944D01*
X005442Y021042D02*
X006133Y021042D01*
X006133Y021141D02*
X005540Y021141D01*
X005639Y021239D02*
X006133Y021239D01*
X006167Y021338D02*
X005713Y021338D01*
X005293Y021535D02*
X004449Y021535D01*
X004548Y021437D02*
X005242Y021437D01*
X005293Y022225D02*
X004948Y022225D01*
X005112Y022323D02*
X005293Y022323D01*
X005293Y022422D02*
X005192Y022422D01*
X005234Y022521D02*
X005293Y022521D01*
X005293Y023112D02*
X003153Y023112D01*
X003153Y023210D02*
X005293Y023210D01*
X004553Y023013D02*
X004453Y023013D01*
X004453Y023101D02*
X004453Y022701D01*
X003756Y022701D01*
X003765Y022757D01*
X003786Y022824D01*
X003819Y022887D01*
X003860Y022944D01*
X003910Y022994D01*
X003968Y023036D01*
X004031Y023068D01*
X004098Y023090D01*
X004168Y023101D01*
X004453Y023101D01*
X004453Y022915D02*
X004553Y022915D01*
X004553Y022816D02*
X004453Y022816D01*
X004453Y022718D02*
X004553Y022718D01*
X004553Y022422D02*
X004453Y022422D01*
X004453Y022323D02*
X004553Y022323D01*
X004553Y022225D02*
X004453Y022225D01*
X003839Y022915D02*
X003153Y022915D01*
X003153Y023013D02*
X003936Y023013D01*
X003784Y022816D02*
X003153Y022816D01*
X003153Y022718D02*
X003758Y022718D01*
X003966Y023309D02*
X003153Y023309D01*
X003153Y023407D02*
X003867Y023407D01*
X003820Y023506D02*
X003153Y023506D01*
X003153Y023604D02*
X003793Y023604D01*
X003793Y023703D02*
X003153Y023703D01*
X003153Y023802D02*
X003822Y023802D01*
X003873Y023900D02*
X003153Y023900D01*
X006845Y025970D02*
X008105Y025970D01*
X008093Y026068D02*
X006873Y026068D01*
X008285Y024393D02*
X012293Y024393D01*
X012293Y024491D02*
X009141Y024491D01*
X009239Y024590D02*
X012293Y024590D01*
X012293Y024688D02*
X009338Y024688D01*
X009436Y024787D02*
X012293Y024787D01*
X012293Y024886D02*
X009535Y024886D01*
X009633Y024984D02*
X012293Y024984D01*
X012388Y025083D02*
X009732Y025083D01*
X009830Y025181D02*
X012486Y025181D01*
X012585Y025280D02*
X009929Y025280D01*
X010254Y025378D02*
X011253Y025378D01*
X011350Y025281D02*
X011133Y025498D01*
X011133Y025804D01*
X011350Y026021D01*
X011657Y026021D01*
X011873Y025804D01*
X011873Y025498D01*
X011657Y025281D01*
X011350Y025281D01*
X011155Y025477D02*
X010352Y025477D01*
X010373Y025575D02*
X011133Y025575D01*
X011133Y025674D02*
X010373Y025674D01*
X010373Y025772D02*
X011133Y025772D01*
X011200Y025871D02*
X010307Y025871D01*
X010208Y025970D02*
X011299Y025970D01*
X011708Y025970D02*
X016835Y025970D01*
X016904Y025871D02*
X011807Y025871D01*
X011873Y025772D02*
X017046Y025772D01*
X016949Y025477D02*
X014701Y025477D01*
X014800Y025378D02*
X016854Y025378D01*
X016813Y025280D02*
X014873Y025280D01*
X014873Y025181D02*
X016793Y025181D01*
X016793Y025083D02*
X014873Y025083D01*
X014860Y024984D02*
X016829Y024984D01*
X016889Y024886D02*
X014761Y024886D01*
X014663Y024787D02*
X017011Y024787D01*
X018934Y025674D02*
X011873Y025674D01*
X011873Y025575D02*
X019032Y025575D01*
X019331Y025871D02*
X019853Y025871D01*
X019853Y025970D02*
X019232Y025970D01*
X019134Y026068D02*
X019853Y026068D01*
X019853Y026167D02*
X019035Y026167D01*
X018936Y026265D02*
X019853Y026265D01*
X019853Y025772D02*
X019429Y025772D01*
X019463Y025674D02*
X019853Y025674D01*
X019853Y025575D02*
X019463Y025575D01*
X019463Y025477D02*
X019853Y025477D01*
X019853Y025378D02*
X019463Y025378D01*
X019463Y025280D02*
X019853Y025280D01*
X019853Y025181D02*
X019463Y025181D01*
X019463Y025083D02*
X019853Y025083D01*
X019853Y024984D02*
X019463Y024984D01*
X019463Y024886D02*
X019853Y024886D01*
X019853Y024787D02*
X019463Y024787D01*
X019463Y024688D02*
X019853Y024688D01*
X019853Y024590D02*
X019463Y024590D01*
X019463Y024491D02*
X019853Y024491D01*
X019853Y024393D02*
X019463Y024393D01*
X019463Y024294D02*
X019853Y024294D01*
X019853Y024196D02*
X019463Y024196D01*
X019463Y024097D02*
X019852Y024097D01*
X019852Y023999D02*
X019463Y023999D01*
X019463Y023900D02*
X019852Y023900D01*
X019852Y023802D02*
X019463Y023802D01*
X019463Y023703D02*
X019852Y023703D01*
X019852Y023604D02*
X019463Y023604D01*
X019463Y023506D02*
X019852Y023506D01*
X019852Y023407D02*
X019463Y023407D01*
X019463Y023309D02*
X019852Y023309D01*
X019852Y023210D02*
X019463Y023210D01*
X019463Y023112D02*
X019852Y023112D01*
X019852Y023013D02*
X019463Y023013D01*
X019463Y022915D02*
X019852Y022915D01*
X019852Y022816D02*
X019463Y022816D01*
X019463Y022718D02*
X019852Y022718D01*
X019852Y022619D02*
X019463Y022619D01*
X019463Y022521D02*
X019852Y022521D01*
X019852Y022422D02*
X019463Y022422D01*
X019463Y022323D02*
X019852Y022323D01*
X019852Y022225D02*
X019463Y022225D01*
X019463Y022126D02*
X019852Y022126D01*
X019852Y022028D02*
X019463Y022028D01*
X019463Y021929D02*
X019852Y021929D01*
X019852Y021831D02*
X019463Y021831D01*
X019463Y021732D02*
X019852Y021732D01*
X019852Y021634D02*
X019463Y021634D01*
X019463Y021535D02*
X019852Y021535D01*
X019852Y021437D02*
X019463Y021437D01*
X019463Y021338D02*
X019852Y021338D01*
X019852Y021239D02*
X019463Y021239D01*
X019463Y021141D02*
X019852Y021141D01*
X019852Y021042D02*
X019463Y021042D01*
X019463Y020944D02*
X019852Y020944D01*
X019852Y020845D02*
X019463Y020845D01*
X019463Y020747D02*
X019852Y020747D01*
X019851Y020648D02*
X019463Y020648D01*
X019463Y020550D02*
X019851Y020550D01*
X019851Y020451D02*
X019463Y020451D01*
X019463Y020353D02*
X019851Y020353D01*
X019851Y020254D02*
X019463Y020254D01*
X019463Y020155D02*
X019851Y020155D01*
X019851Y020057D02*
X019463Y020057D01*
X019463Y019958D02*
X019851Y019958D01*
X019851Y019860D02*
X019463Y019860D01*
X019463Y019761D02*
X019851Y019761D01*
X019851Y019663D02*
X019463Y019663D01*
X019463Y019564D02*
X019851Y019564D01*
X019851Y019466D02*
X019463Y019466D01*
X019043Y018677D02*
X017803Y018677D01*
X018050Y018579D02*
X019043Y018579D01*
X019043Y018480D02*
X018006Y018480D01*
X017899Y018382D02*
X018222Y018382D01*
X018503Y018151D02*
X017753Y018151D01*
X017965Y017988D02*
X018215Y017988D01*
X018254Y017889D02*
X017947Y017889D01*
X018026Y017790D02*
X019043Y017790D01*
X019043Y017692D02*
X018056Y017692D01*
X018053Y017593D02*
X019043Y017593D01*
X019043Y017495D02*
X018016Y017495D01*
X018153Y017396D02*
X019043Y017396D01*
X019043Y017298D02*
X018222Y017298D01*
X018253Y017199D02*
X019043Y017199D01*
X019043Y017101D02*
X018253Y017101D01*
X018221Y017002D02*
X019043Y017002D01*
X019043Y016904D02*
X018151Y016904D01*
X017656Y016904D02*
X017351Y016904D01*
X017421Y017002D02*
X017586Y017002D01*
X017553Y017101D02*
X017453Y017101D01*
X017453Y017199D02*
X017553Y017199D01*
X017585Y017298D02*
X017422Y017298D01*
X017353Y017396D02*
X017586Y017396D01*
X017491Y017495D02*
X017472Y017495D01*
X018753Y017889D02*
X019043Y017889D01*
X019043Y017988D02*
X018792Y017988D01*
X018792Y018086D02*
X019043Y018086D01*
X019043Y018185D02*
X018792Y018185D01*
X018792Y018283D02*
X019043Y018283D01*
X019043Y018382D02*
X018785Y018382D01*
X017800Y019953D02*
X017800Y019953D01*
X017204Y019958D02*
X015276Y019958D01*
X015213Y020057D02*
X017164Y020057D01*
X017153Y020155D02*
X015213Y020155D01*
X015213Y020254D02*
X017167Y020254D01*
X017210Y020353D02*
X015213Y020353D01*
X015213Y020451D02*
X017313Y020451D01*
X017087Y019860D02*
X016542Y019860D01*
X016542Y019466D02*
X017064Y019466D01*
X017095Y019367D02*
X016481Y019367D01*
X016253Y019651D02*
X017253Y019651D01*
X016026Y019367D02*
X016014Y019367D01*
X015965Y019466D02*
X015915Y019466D01*
X015965Y019564D02*
X015817Y019564D01*
X015718Y019663D02*
X015965Y019663D01*
X015965Y019761D02*
X015620Y019761D01*
X015503Y019651D02*
X015003Y019651D01*
X015375Y019860D02*
X015965Y019860D01*
X016240Y021141D02*
X014811Y021141D01*
X014712Y021239D02*
X016142Y021239D01*
X016133Y021338D02*
X014614Y021338D01*
X014515Y021437D02*
X016133Y021437D01*
X016133Y021535D02*
X014416Y021535D01*
X014273Y023802D02*
X012713Y023802D01*
X012713Y023900D02*
X014175Y023900D01*
X014093Y023999D02*
X012713Y023999D01*
X012713Y024097D02*
X014093Y024097D01*
X014093Y024196D02*
X012713Y024196D01*
X012713Y024294D02*
X014093Y024294D01*
X014165Y024393D02*
X012713Y024393D01*
X012713Y024491D02*
X014264Y024491D01*
X014344Y024787D02*
X012713Y024787D01*
X012713Y024688D02*
X019043Y024688D01*
X019043Y024590D02*
X012713Y024590D01*
X012785Y024886D02*
X014246Y024886D01*
X014207Y025378D02*
X011754Y025378D01*
X011852Y025477D02*
X014306Y025477D01*
X012293Y024294D02*
X008373Y024294D01*
X008373Y024196D02*
X012293Y024196D01*
X015168Y015327D02*
X015839Y015327D01*
X015701Y015228D02*
X015306Y015228D01*
X015373Y015130D02*
X015634Y015130D01*
X015593Y015031D02*
X015413Y015031D01*
X015413Y014933D02*
X015593Y014933D01*
X015593Y014834D02*
X015413Y014834D01*
X015413Y014736D02*
X015593Y014736D01*
X015593Y014637D02*
X015413Y014637D01*
X015413Y014539D02*
X015593Y014539D01*
X015593Y014440D02*
X015413Y014440D01*
X015413Y014341D02*
X015593Y014341D01*
X015605Y014243D02*
X015402Y014243D01*
X015362Y014144D02*
X015645Y014144D01*
X015729Y014046D02*
X015278Y014046D01*
X014490Y012962D02*
X016791Y012962D01*
X016692Y012863D02*
X014588Y012863D01*
X015463Y009414D02*
X016717Y009414D01*
X016816Y009316D02*
X015463Y009316D01*
X015463Y009217D02*
X018961Y009217D01*
X019060Y009119D02*
X015463Y009119D01*
X015463Y009020D02*
X018023Y009020D01*
X017894Y008922D02*
X015463Y008922D01*
X015463Y008823D02*
X017831Y008823D01*
X017793Y008724D02*
X015463Y008724D01*
X015463Y008626D02*
X017793Y008626D01*
X017811Y008527D02*
X015463Y008527D01*
X015463Y008429D02*
X017852Y008429D01*
X017945Y008330D02*
X015463Y008330D01*
X015463Y008232D02*
X018343Y008232D01*
X018343Y008133D02*
X015463Y008133D01*
X015463Y008035D02*
X018343Y008035D01*
X018343Y007936D02*
X016242Y007936D01*
X015765Y007936D02*
X015463Y007936D01*
X015191Y006261D02*
X016793Y006261D01*
X016793Y006359D02*
X013596Y006359D01*
X013559Y006458D02*
X016793Y006458D01*
X016793Y006556D02*
X012839Y006556D01*
X012839Y006655D02*
X016793Y006655D01*
X016793Y006162D02*
X015289Y006162D01*
X015388Y006064D02*
X016793Y006064D01*
X016793Y005965D02*
X016269Y005965D01*
X016173Y006061D02*
X016033Y006061D01*
X016033Y005681D01*
X015973Y005681D01*
X015973Y005621D01*
X015593Y005621D01*
X015593Y005481D01*
X015834Y005241D01*
X015973Y005241D01*
X015973Y005621D01*
X016033Y005621D01*
X016033Y005241D01*
X016173Y005241D01*
X016413Y005481D01*
X016413Y005621D01*
X016034Y005621D01*
X016034Y005681D01*
X016413Y005681D01*
X016413Y005821D01*
X016173Y006061D01*
X016033Y005965D02*
X015973Y005965D01*
X015973Y006061D02*
X015834Y006061D01*
X015593Y005821D01*
X015593Y005681D01*
X015973Y005681D01*
X015973Y006061D01*
X015973Y005867D02*
X016033Y005867D01*
X016033Y005768D02*
X015973Y005768D01*
X015973Y005670D02*
X015463Y005670D01*
X015463Y005768D02*
X015593Y005768D01*
X015639Y005867D02*
X015463Y005867D01*
X015463Y005965D02*
X015738Y005965D01*
X016034Y005670D02*
X016793Y005670D01*
X016793Y005768D02*
X016413Y005768D01*
X016368Y005867D02*
X016793Y005867D01*
X016793Y005571D02*
X016413Y005571D01*
X016405Y005473D02*
X016793Y005473D01*
X016793Y005374D02*
X016306Y005374D01*
X016208Y005275D02*
X016793Y005275D01*
X016793Y005177D02*
X015463Y005177D01*
X015463Y005275D02*
X015799Y005275D01*
X015701Y005374D02*
X015463Y005374D01*
X015463Y005473D02*
X015602Y005473D01*
X015593Y005571D02*
X015463Y005571D01*
X015043Y005571D02*
X014913Y005571D01*
X014905Y005473D02*
X015043Y005473D01*
X015043Y005374D02*
X014806Y005374D01*
X014708Y005275D02*
X015043Y005275D01*
X015043Y005177D02*
X012839Y005177D01*
X012839Y005275D02*
X014299Y005275D01*
X014201Y005374D02*
X012839Y005374D01*
X012839Y005473D02*
X014102Y005473D01*
X014093Y005571D02*
X012839Y005571D01*
X012839Y005670D02*
X014473Y005670D01*
X014534Y005670D02*
X015043Y005670D01*
X015043Y005768D02*
X014913Y005768D01*
X014868Y005867D02*
X014991Y005867D01*
X014533Y005571D02*
X014473Y005571D01*
X014473Y005473D02*
X014533Y005473D01*
X014533Y005374D02*
X014473Y005374D01*
X014473Y005275D02*
X014533Y005275D01*
X015043Y005078D02*
X012839Y005078D01*
X012839Y004980D02*
X015043Y004980D01*
X015043Y004881D02*
X012839Y004881D01*
X012839Y004783D02*
X015043Y004783D01*
X015043Y004684D02*
X012839Y004684D01*
X012866Y004586D02*
X015043Y004586D01*
X015043Y004487D02*
X014691Y004487D01*
X014789Y004389D02*
X015043Y004389D01*
X015068Y004290D02*
X014873Y004290D01*
X014873Y004191D02*
X015166Y004191D01*
X015265Y004093D02*
X014873Y004093D01*
X014870Y003994D02*
X015363Y003994D01*
X015563Y004389D02*
X015718Y004389D01*
X015816Y004487D02*
X015464Y004487D01*
X015463Y004586D02*
X016793Y004586D01*
X016793Y004684D02*
X015463Y004684D01*
X015463Y004783D02*
X016793Y004783D01*
X016793Y004881D02*
X015463Y004881D01*
X015463Y004980D02*
X016793Y004980D01*
X016793Y005078D02*
X015463Y005078D01*
X015973Y005275D02*
X016033Y005275D01*
X016033Y005374D02*
X015973Y005374D01*
X015973Y005473D02*
X016033Y005473D01*
X016033Y005571D02*
X015973Y005571D01*
X016191Y004487D02*
X016793Y004487D01*
X016793Y004389D02*
X016289Y004389D01*
X016373Y004290D02*
X016793Y004290D01*
X016793Y004191D02*
X016373Y004191D01*
X016373Y004093D02*
X016793Y004093D01*
X016863Y003994D02*
X016370Y003994D01*
X016271Y003896D02*
X018236Y003896D01*
X018334Y003797D02*
X016173Y003797D01*
X015834Y003797D02*
X014673Y003797D01*
X014771Y003896D02*
X015736Y003896D01*
X014334Y003797D02*
X013173Y003797D01*
X013271Y003896D02*
X014236Y003896D01*
X014218Y004389D02*
X013289Y004389D01*
X013191Y004487D02*
X014316Y004487D01*
X014093Y005768D02*
X013178Y005768D01*
X013008Y005768D02*
X012999Y005768D01*
X012999Y005867D02*
X013008Y005867D01*
X012999Y005965D02*
X013008Y005965D01*
X012999Y006064D02*
X013008Y006064D01*
X012999Y006162D02*
X013008Y006162D01*
X012999Y006261D02*
X013008Y006261D01*
X012999Y006359D02*
X013008Y006359D01*
X012999Y006458D02*
X013008Y006458D01*
X013596Y005867D02*
X014139Y005867D01*
X017213Y005867D02*
X017343Y005867D01*
X017343Y005965D02*
X017213Y005965D01*
X017213Y005768D02*
X017343Y005768D01*
X017343Y005670D02*
X017213Y005670D01*
X017213Y005571D02*
X017343Y005571D01*
X017343Y005473D02*
X017213Y005473D01*
X017213Y005374D02*
X017343Y005374D01*
X017343Y005275D02*
X017213Y005275D01*
X017213Y005177D02*
X017343Y005177D01*
X017343Y005078D02*
X017213Y005078D01*
X017213Y004980D02*
X017343Y004980D01*
X017343Y004881D02*
X017213Y004881D01*
X017213Y004783D02*
X017396Y004783D01*
X017213Y004684D02*
X018343Y004684D01*
X018343Y004586D02*
X017213Y004586D01*
X017213Y004487D02*
X018316Y004487D01*
X018218Y004389D02*
X017213Y004389D01*
X018110Y005302D02*
X018110Y005609D01*
X018110Y005302D01*
X018110Y005374D02*
X018110Y005374D01*
X018110Y005473D02*
X018110Y005473D01*
X018110Y005571D02*
X018110Y005571D01*
X018110Y005609D02*
X018110Y005609D01*
X018110Y005670D02*
X018110Y005670D01*
X018110Y005768D02*
X018110Y005768D01*
X018110Y005867D02*
X018110Y005867D01*
X018503Y006458D02*
X018504Y006458D01*
X018503Y006556D02*
X018504Y006556D01*
X018503Y006655D02*
X018504Y006655D01*
X018503Y006754D02*
X018504Y006754D01*
X018503Y006852D02*
X018504Y006852D01*
X018503Y006951D02*
X018504Y006951D01*
X018467Y007049D02*
X018540Y007049D01*
X018531Y007148D02*
X018467Y007148D01*
X018432Y007246D02*
X018385Y007246D01*
X018253Y007151D02*
X018307Y007098D01*
X018307Y006693D01*
X018700Y006693D02*
X018700Y007204D01*
X018503Y007401D01*
X018503Y008651D01*
X017959Y009316D02*
X017191Y009316D01*
X017290Y009414D02*
X017861Y009414D01*
X017879Y009907D02*
X017271Y009907D01*
X017172Y010006D02*
X017988Y010006D01*
X018503Y009651D02*
X018753Y009651D01*
X019253Y009151D01*
X019253Y007901D01*
X018897Y007545D01*
X018897Y006693D01*
X019057Y006655D02*
X019343Y006655D01*
X019343Y006556D02*
X019056Y006556D01*
X019025Y006458D02*
X019343Y006458D01*
X019343Y006754D02*
X019057Y006754D01*
X019057Y006852D02*
X019343Y006852D01*
X019343Y006951D02*
X019057Y006951D01*
X019057Y007049D02*
X019343Y007049D01*
X019343Y007148D02*
X019057Y007148D01*
X019057Y007246D02*
X019343Y007246D01*
X019343Y007345D02*
X019057Y007345D01*
X019057Y007443D02*
X019343Y007443D01*
X019343Y007542D02*
X019120Y007542D01*
X019219Y007640D02*
X019343Y007640D01*
X019343Y007739D02*
X019318Y007739D01*
X019093Y009020D02*
X018984Y009020D01*
X019315Y009316D02*
X019343Y009316D01*
X019343Y009414D02*
X019217Y009414D01*
X019190Y009513D02*
X019343Y009513D01*
X019343Y009611D02*
X019213Y009611D01*
X019213Y009710D02*
X019343Y009710D01*
X019343Y009808D02*
X019182Y009808D01*
X019127Y009907D02*
X019343Y009907D01*
X019343Y010006D02*
X019019Y010006D01*
X018503Y004901D02*
X018503Y004151D01*
X018913Y002024D02*
X019846Y002024D01*
X019846Y001925D02*
X018857Y001925D01*
X019846Y001432D02*
X003153Y001432D01*
X003153Y001334D02*
X019846Y001334D01*
X019846Y001235D02*
X003153Y001235D01*
X003153Y001137D02*
X019846Y001137D01*
X019846Y001038D02*
X003153Y001038D01*
X003153Y000940D02*
X019846Y000940D01*
X019846Y000841D02*
X003153Y000841D01*
X003153Y000742D02*
X019846Y000742D01*
X019846Y000644D02*
X003153Y000644D01*
X003153Y000545D02*
X019846Y000545D01*
X019846Y000447D02*
X003153Y000447D01*
X003153Y000348D02*
X019846Y000348D01*
X004162Y003600D02*
X003153Y003600D01*
X003153Y003502D02*
X003920Y003502D01*
X003830Y003403D02*
X003153Y003403D01*
X003153Y003305D02*
X003780Y003305D01*
X003757Y003206D02*
X003153Y003206D01*
X003153Y005670D02*
X004043Y005670D01*
X004043Y005768D02*
X003153Y005768D01*
X003153Y005867D02*
X004043Y005867D01*
X004043Y005965D02*
X003153Y005965D01*
X003153Y006064D02*
X004043Y006064D01*
X004043Y006162D02*
X003153Y006162D01*
D24*
X009003Y015651D03*
X008003Y018151D03*
X006503Y015901D03*
X016003Y018151D03*
X016003Y018651D03*
X016253Y019651D03*
X018503Y019151D03*
X018503Y018151D03*
X016003Y011901D03*
M02*
